<?xml version="1.0" standalone="no"?>
 <!DOCTYPE svg PUBLIC "-//W3C//DTD SVG 1.1//EN" 
 "http://www.w3.org/Graphics/SVG/1.1/DTD/svg11.dtd"> 
<svg xmlns="http://www.w3.org/2000/svg" version="1.1" 
    width="3.01498cm" height="4.51358cm" viewBox="0 0 11870 17770 ">
<title>SVG Picture created as Main-F.Fab.svg date 2018/07/02 21:41:05 </title>
  <desc>Picture generated by PCBNEW </desc>
<g style="fill:#000000; fill-opacity:1;stroke:#000000; stroke-opacity:1;
stroke-linecap:round; stroke-linejoin:round; "
 transform="translate(0 0) scale(1 1)">
</g>
<g style="fill:#C2C200; fill-opacity:0.0; 
stroke:#C2C200; stroke-width:-0.000393701; stroke-opacity:1; 
stroke-linecap:round; stroke-linejoin:round;">
</g>
<g style="fill:#C2C200; fill-opacity:0.0; 
stroke:#C2C200; stroke-width:59.0551; stroke-opacity:1; 
stroke-linecap:round; stroke-linejoin:round;">
<path d="M29 17746
L29 29
" />
<path d="M11840 17746
L29 17746
" />
<path d="M11840 11840
L11840 17746
" />
<path d="M11840 29
L11840 11840
" />
<path d="M29 29
L11840 29
" />
<path d="M4158 17249
L4177 17267
L4195 17324
L4195 17361
L4177 17417
L4139 17455
L4102 17474
L4027 17492
L3970 17492
L3895 17474
L3858 17455
L3820 17417
L3802 17361
L3802 17324
L3820 17267
L3839 17249
" />
<path d="M4195 17024
L4177 17061
L4158 17080
L4120 17099
L4008 17099
L3970 17080
L3952 17061
L3933 17024
L3933 16968
L3952 16930
L3970 16911
L4008 16893
L4120 16893
L4158 16911
L4177 16930
L4195 16968
L4195 17024
" />
<path d="M3933 16724
L4195 16724
" />
<path d="M3970 16724
L3952 16705
L3933 16668
L3933 16611
L3952 16574
L3989 16555
L4195 16555
" />
<path d="M3933 16368
L4195 16368
" />
<path d="M3970 16368
L3952 16349
L3933 16311
L3933 16255
L3952 16218
L3989 16199
L4195 16199
" />
<path d="M4233 16105
L4233 15805
" />
<path d="M3802 15636
L3802 15599
L3820 15561
L3839 15543
L3877 15524
L3952 15505
L4045 15505
L4120 15524
L4158 15543
L4177 15561
L4195 15599
L4195 15636
L4177 15674
L4158 15693
L4120 15711
L4045 15730
L3952 15730
L3877 15711
L3839 15693
L3820 15674
L3802 15636
" />
<path d="M4195 15130
L4195 15355
" />
<path d="M4195 15243
L3802 15243
L3858 15280
L3895 15318
L3914 15355
" />
<path d="M4195 14999
L3933 14793
" />
<path d="M3933 14999
L4195 14793
" />
<path d="M3802 14568
L3802 14530
L3820 14493
L3839 14474
L3877 14455
L3952 14437
L4045 14437
L4120 14455
L4158 14474
L4177 14493
L4195 14530
L4195 14568
L4177 14605
L4158 14624
L4120 14643
L4045 14662
L3952 14662
L3877 14643
L3839 14624
L3820 14605
L3802 14568
" />
<path d="M3802 14305
L3802 14062
L3952 14193
L3952 14137
L3970 14099
L3989 14080
L4027 14062
L4120 14062
L4158 14080
L4177 14099
L4195 14137
L4195 14249
L4177 14287
L4158 14305
" />
<path d="M5803 15561
L5803 15843
L5785 15899
L5747 15936
L5691 15955
L5653 15955
" />
<path d="M6197 15955
L5972 15955
" />
<path d="M6085 15955
L6085 15561
L6047 15618
L6010 15655
L5972 15674
" />
<path d="M1660 3357
L1435 3357
" />
<path d="M1548 3357
L1548 2963
L1510 3019
L1473 3057
L1435 3076
" />
<path d="M1829 3094
L1829 3488
" />
<path d="M1829 3113
L1866 3094
L1941 3094
L1979 3113
L1998 3132
L2016 3169
L2016 3282
L1998 3319
L1979 3338
L1941 3357
L1866 3357
L1829 3338
" />
<path d="M2185 3357
L2185 3094
" />
<path d="M2185 2963
L2166 2982
L2185 3001
L2204 2982
L2185 2963
L2185 3001
" />
<path d="M2372 3094
L2372 3357
" />
<path d="M2372 3132
L2391 3113
L2429 3094
L2485 3094
L2522 3113
L2541 3151
L2541 3357
" />
<path d="M9534 3357
L9309 3357
" />
<path d="M9422 3357
L9422 2963
L9384 3019
L9347 3057
L9309 3076
" />
<path d="M9703 3094
L9703 3488
" />
<path d="M9703 3113
L9740 3094
L9815 3094
L9853 3113
L9872 3132
L9890 3169
L9890 3282
L9872 3319
L9853 3338
L9815 3357
L9740 3357
L9703 3338
" />
<path d="M10059 3357
L10059 3094
" />
<path d="M10059 2963
L10040 2982
L10059 3001
L10078 2982
L10059 2963
L10059 3001
" />
<path d="M10247 3094
L10247 3357
" />
<path d="M10247 3132
L10265 3113
L10303 3094
L10359 3094
L10396 3113
L10415 3151
L10415 3357
" />
<path d="M1660 17136
L1435 17136
" />
<path d="M1548 17136
L1548 16743
L1510 16799
L1473 16836
L1435 16855
" />
<path d="M1829 16874
L1829 17267
" />
<path d="M1829 16893
L1866 16874
L1941 16874
L1979 16893
L1998 16911
L2016 16949
L2016 17061
L1998 17099
L1979 17118
L1941 17136
L1866 17136
L1829 17118
" />
<path d="M2185 17136
L2185 16874
" />
<path d="M2185 16743
L2166 16761
L2185 16780
L2204 16761
L2185 16743
L2185 16780
" />
<path d="M2372 16874
L2372 17136
" />
<path d="M2372 16911
L2391 16893
L2429 16874
L2485 16874
L2522 16893
L2541 16930
L2541 17136
" />
<path d="M9534 17136
L9309 17136
" />
<path d="M9422 17136
L9422 16743
L9384 16799
L9347 16836
L9309 16855
" />
<path d="M9703 16874
L9703 17267
" />
<path d="M9703 16893
L9740 16874
L9815 16874
L9853 16893
L9872 16911
L9890 16949
L9890 17061
L9872 17099
L9853 17118
L9815 17136
L9740 17136
L9703 17118
" />
<path d="M10059 17136
L10059 16874
" />
<path d="M10059 16743
L10040 16761
L10059 16780
L10078 16761
L10059 16743
L10059 16780
" />
<path d="M10247 16874
L10247 17136
" />
<path d="M10247 16911
L10265 16893
L10303 16874
L10359 16874
L10396 16893
L10415 16930
L10415 17136
" />
<path d="M3975 4853
L3975 4459
L4125 4459
L4163 4478
L4182 4497
L4200 4534
L4200 4590
L4182 4628
L4163 4647
L4125 4665
L3975 4665
" />
<path d="M4425 4853
L4388 4834
L4369 4815
L4350 4778
L4350 4665
L4369 4628
L4388 4609
L4425 4590
L4482 4590
L4519 4609
L4538 4628
L4557 4665
L4557 4778
L4538 4815
L4519 4834
L4482 4853
L4425 4853
" />
<path d="M4669 4590
L4819 4590
" />
<path d="M4725 4459
L4725 4797
L4744 4834
L4782 4853
L4819 4853
" />
<path d="M5100 4834
L5063 4853
L4988 4853
L4950 4834
L4932 4797
L4932 4647
L4950 4609
L4988 4590
L5063 4590
L5100 4609
L5119 4647
L5119 4684
L4932 4722
" />
<path d="M5288 4590
L5288 4853
" />
<path d="M5288 4628
L5306 4609
L5344 4590
L5400 4590
L5438 4609
L5456 4647
L5456 4853
" />
<path d="M5588 4590
L5738 4590
" />
<path d="M5644 4459
L5644 4797
L5663 4834
L5700 4853
L5738 4853
" />
<path d="M5869 4853
L5869 4590
" />
<path d="M5869 4459
L5850 4478
L5869 4497
L5888 4478
L5869 4459
L5869 4497
" />
<path d="M6113 4853
L6075 4834
L6056 4815
L6038 4778
L6038 4665
L6056 4628
L6075 4609
L6113 4590
L6169 4590
L6206 4609
L6225 4628
L6244 4665
L6244 4778
L6225 4815
L6206 4834
L6169 4853
L6113 4853
" />
<path d="M6413 4853
L6413 4590
" />
<path d="M6413 4628
L6431 4609
L6469 4590
L6525 4590
L6563 4609
L6581 4647
L6581 4853
" />
<path d="M6581 4647
L6600 4609
L6638 4590
L6694 4590
L6731 4609
L6750 4647
L6750 4853
" />
<path d="M7088 4834
L7050 4853
L6975 4853
L6938 4834
L6919 4797
L6919 4647
L6938 4609
L6975 4590
L7050 4590
L7088 4609
L7106 4647
L7106 4684
L6919 4722
" />
<path d="M7219 4590
L7369 4590
" />
<path d="M7275 4459
L7275 4797
L7294 4834
L7331 4853
L7369 4853
" />
<path d="M7650 4834
L7612 4853
L7537 4853
L7500 4834
L7481 4797
L7481 4647
L7500 4609
L7537 4590
L7612 4590
L7650 4609
L7669 4647
L7669 4684
L7481 4722
" />
<path d="M7837 4853
L7837 4590
" />
<path d="M7837 4665
L7856 4628
L7875 4609
L7912 4590
L7950 4590
" />
</g>
<g style="fill:#C2C200; fill-opacity:0.0; 
stroke:#C2C200; stroke-width:39.3701; stroke-opacity:1; 
stroke-linecap:round; stroke-linejoin:round;">
<path d="M7435 15527
L7435 16277
" />
<path d="M7435 16277
L4435 16277
" />
<path d="M4435 16277
L4435 15277
" />
<path d="M4435 15277
L7185 15277
" />
<path d="M7185 15277
L7435 15527
" />
<circle cx="1998.03" cy="1998.03" r="848.057" /> 
<circle cx="9872.05" cy="1998.03" r="848.057" /> 
<circle cx="1998.03" cy="15777.6" r="848.057" /> 
<circle cx="9872.05" cy="15777.6" r="848.057" /> 
</g> 
</svg>
