M48
;GenerationSoftware,Autodesk,EAGLE,9.1.3*%
;CreationDate,2018-11-23T23:54:25Z*%
FMAT,2
ICI,OFF
METRIC,TZ,000.000
T5C0.350
T4C1.016
T3C2.794
T2C4.318
T1C4.500
%
G90
M71
T1
X5000Y5000
X85000Y5000
X85000Y105000
X5000Y105000
T2
X68707Y29210
X68707Y37084
X60833Y29210
X60833Y37084
T3
X74930Y102680
X55880Y102680
T4
X6350Y72390
X6350Y69850
X6350Y74930
X6350Y77470
X6223Y84074
X6223Y86614
T5
X20649Y67997
X14605Y76420
X31115Y79060
X23495Y78994
X29210Y83058
X38608Y58509
X47323Y58880
X48641Y57658
X14605Y83312
X26751Y58085
X27154Y61021
X20447Y66548
X9398Y58039
X26933Y70739
X25273Y70739
X12192Y51435
X10160Y51435
X11557Y60325
X9906Y60325
X19685Y71882
X24384Y70104
X16345Y73022
X22482Y72774
X31242Y63373
X29337Y63249
X36576Y85471
X34671Y85344
X17780Y50419
X11176Y48925
X5270Y55880
X5270Y61214
X5270Y50800
X15621Y54991
X26797Y65659
X32385Y58166
X36830Y63500
X36830Y73787
X32639Y70231
X26797Y66929
X25146Y74295
X15240Y68110
M30