G04 EAGLE Gerber X2 export*
%TF.Part,Single*%
%TF.FileFunction,Profile,NP*%
%TF.FilePolarity,Positive*%
%TF.GenerationSoftware,Autodesk,EAGLE,9.1.3*%
%TF.CreationDate,2018-11-23T23:54:25Z*%
G75*
%MOMM*%
%FSLAX34Y34*%
%LPD*%
%AMOC8*
5,1,8,0,0,1.08239X$1,22.5*%
G01*
%ADD10C,0.254000*%


D10*
X0Y0D02*
X896740Y1270D01*
X896740Y1094470D01*
X0Y1093200D01*
X0Y0D01*
X72500Y49369D02*
X72429Y48108D01*
X72288Y46853D01*
X72076Y45609D01*
X71795Y44378D01*
X71446Y43165D01*
X71029Y41973D01*
X70546Y40806D01*
X69998Y39669D01*
X69387Y38564D01*
X68715Y37495D01*
X67985Y36465D01*
X67198Y35478D01*
X66356Y34537D01*
X65464Y33644D01*
X64522Y32802D01*
X63535Y32015D01*
X62505Y31285D01*
X61436Y30613D01*
X60331Y30002D01*
X59194Y29454D01*
X58027Y28971D01*
X56835Y28554D01*
X55622Y28205D01*
X54391Y27924D01*
X53147Y27712D01*
X51892Y27571D01*
X50631Y27500D01*
X49369Y27500D01*
X48108Y27571D01*
X46853Y27712D01*
X45609Y27924D01*
X44378Y28205D01*
X43165Y28554D01*
X41973Y28971D01*
X40806Y29454D01*
X39669Y30002D01*
X38564Y30613D01*
X37495Y31285D01*
X36465Y32015D01*
X35478Y32802D01*
X34537Y33644D01*
X33644Y34537D01*
X32802Y35478D01*
X32015Y36465D01*
X31285Y37495D01*
X30613Y38564D01*
X30002Y39669D01*
X29454Y40806D01*
X28971Y41973D01*
X28554Y43165D01*
X28205Y44378D01*
X27924Y45609D01*
X27712Y46853D01*
X27571Y48108D01*
X27500Y49369D01*
X27500Y50631D01*
X27571Y51892D01*
X27712Y53147D01*
X27924Y54391D01*
X28205Y55622D01*
X28554Y56835D01*
X28971Y58027D01*
X29454Y59194D01*
X30002Y60331D01*
X30613Y61436D01*
X31285Y62505D01*
X32015Y63535D01*
X32802Y64522D01*
X33644Y65464D01*
X34537Y66356D01*
X35478Y67198D01*
X36465Y67985D01*
X37495Y68715D01*
X38564Y69387D01*
X39669Y69998D01*
X40806Y70546D01*
X41973Y71029D01*
X43165Y71446D01*
X44378Y71795D01*
X45609Y72076D01*
X46853Y72288D01*
X48108Y72429D01*
X49369Y72500D01*
X50631Y72500D01*
X51892Y72429D01*
X53147Y72288D01*
X54391Y72076D01*
X55622Y71795D01*
X56835Y71446D01*
X58027Y71029D01*
X59194Y70546D01*
X60331Y69998D01*
X61436Y69387D01*
X62505Y68715D01*
X63535Y67985D01*
X64522Y67198D01*
X65464Y66356D01*
X66356Y65464D01*
X67198Y64522D01*
X67985Y63535D01*
X68715Y62505D01*
X69387Y61436D01*
X69998Y60331D01*
X70546Y59194D01*
X71029Y58027D01*
X71446Y56835D01*
X71795Y55622D01*
X72076Y54391D01*
X72288Y53147D01*
X72429Y51892D01*
X72500Y50631D01*
X72500Y49369D01*
X872500Y49369D02*
X872429Y48108D01*
X872288Y46853D01*
X872076Y45609D01*
X871795Y44378D01*
X871446Y43165D01*
X871029Y41973D01*
X870546Y40806D01*
X869998Y39669D01*
X869387Y38564D01*
X868715Y37495D01*
X867985Y36465D01*
X867198Y35478D01*
X866356Y34537D01*
X865464Y33644D01*
X864522Y32802D01*
X863535Y32015D01*
X862505Y31285D01*
X861436Y30613D01*
X860331Y30002D01*
X859194Y29454D01*
X858027Y28971D01*
X856835Y28554D01*
X855622Y28205D01*
X854391Y27924D01*
X853147Y27712D01*
X851892Y27571D01*
X850631Y27500D01*
X849369Y27500D01*
X848108Y27571D01*
X846853Y27712D01*
X845609Y27924D01*
X844378Y28205D01*
X843165Y28554D01*
X841973Y28971D01*
X840806Y29454D01*
X839669Y30002D01*
X838564Y30613D01*
X837495Y31285D01*
X836465Y32015D01*
X835478Y32802D01*
X834537Y33644D01*
X833644Y34537D01*
X832802Y35478D01*
X832015Y36465D01*
X831285Y37495D01*
X830613Y38564D01*
X830002Y39669D01*
X829454Y40806D01*
X828971Y41973D01*
X828554Y43165D01*
X828205Y44378D01*
X827924Y45609D01*
X827712Y46853D01*
X827571Y48108D01*
X827500Y49369D01*
X827500Y50631D01*
X827571Y51892D01*
X827712Y53147D01*
X827924Y54391D01*
X828205Y55622D01*
X828554Y56835D01*
X828971Y58027D01*
X829454Y59194D01*
X830002Y60331D01*
X830613Y61436D01*
X831285Y62505D01*
X832015Y63535D01*
X832802Y64522D01*
X833644Y65464D01*
X834537Y66356D01*
X835478Y67198D01*
X836465Y67985D01*
X837495Y68715D01*
X838564Y69387D01*
X839669Y69998D01*
X840806Y70546D01*
X841973Y71029D01*
X843165Y71446D01*
X844378Y71795D01*
X845609Y72076D01*
X846853Y72288D01*
X848108Y72429D01*
X849369Y72500D01*
X850631Y72500D01*
X851892Y72429D01*
X853147Y72288D01*
X854391Y72076D01*
X855622Y71795D01*
X856835Y71446D01*
X858027Y71029D01*
X859194Y70546D01*
X860331Y69998D01*
X861436Y69387D01*
X862505Y68715D01*
X863535Y67985D01*
X864522Y67198D01*
X865464Y66356D01*
X866356Y65464D01*
X867198Y64522D01*
X867985Y63535D01*
X868715Y62505D01*
X869387Y61436D01*
X869998Y60331D01*
X870546Y59194D01*
X871029Y58027D01*
X871446Y56835D01*
X871795Y55622D01*
X872076Y54391D01*
X872288Y53147D01*
X872429Y51892D01*
X872500Y50631D01*
X872500Y49369D01*
X872500Y1049369D02*
X872429Y1048108D01*
X872288Y1046853D01*
X872076Y1045609D01*
X871795Y1044378D01*
X871446Y1043165D01*
X871029Y1041973D01*
X870546Y1040806D01*
X869998Y1039669D01*
X869387Y1038564D01*
X868715Y1037495D01*
X867985Y1036465D01*
X867198Y1035478D01*
X866356Y1034537D01*
X865464Y1033644D01*
X864522Y1032802D01*
X863535Y1032015D01*
X862505Y1031285D01*
X861436Y1030613D01*
X860331Y1030002D01*
X859194Y1029454D01*
X858027Y1028971D01*
X856835Y1028554D01*
X855622Y1028205D01*
X854391Y1027924D01*
X853147Y1027712D01*
X851892Y1027571D01*
X850631Y1027500D01*
X849369Y1027500D01*
X848108Y1027571D01*
X846853Y1027712D01*
X845609Y1027924D01*
X844378Y1028205D01*
X843165Y1028554D01*
X841973Y1028971D01*
X840806Y1029454D01*
X839669Y1030002D01*
X838564Y1030613D01*
X837495Y1031285D01*
X836465Y1032015D01*
X835478Y1032802D01*
X834537Y1033644D01*
X833644Y1034537D01*
X832802Y1035478D01*
X832015Y1036465D01*
X831285Y1037495D01*
X830613Y1038564D01*
X830002Y1039669D01*
X829454Y1040806D01*
X828971Y1041973D01*
X828554Y1043165D01*
X828205Y1044378D01*
X827924Y1045609D01*
X827712Y1046853D01*
X827571Y1048108D01*
X827500Y1049369D01*
X827500Y1050631D01*
X827571Y1051892D01*
X827712Y1053147D01*
X827924Y1054391D01*
X828205Y1055622D01*
X828554Y1056835D01*
X828971Y1058027D01*
X829454Y1059194D01*
X830002Y1060331D01*
X830613Y1061436D01*
X831285Y1062505D01*
X832015Y1063535D01*
X832802Y1064522D01*
X833644Y1065464D01*
X834537Y1066356D01*
X835478Y1067198D01*
X836465Y1067985D01*
X837495Y1068715D01*
X838564Y1069387D01*
X839669Y1069998D01*
X840806Y1070546D01*
X841973Y1071029D01*
X843165Y1071446D01*
X844378Y1071795D01*
X845609Y1072076D01*
X846853Y1072288D01*
X848108Y1072429D01*
X849369Y1072500D01*
X850631Y1072500D01*
X851892Y1072429D01*
X853147Y1072288D01*
X854391Y1072076D01*
X855622Y1071795D01*
X856835Y1071446D01*
X858027Y1071029D01*
X859194Y1070546D01*
X860331Y1069998D01*
X861436Y1069387D01*
X862505Y1068715D01*
X863535Y1067985D01*
X864522Y1067198D01*
X865464Y1066356D01*
X866356Y1065464D01*
X867198Y1064522D01*
X867985Y1063535D01*
X868715Y1062505D01*
X869387Y1061436D01*
X869998Y1060331D01*
X870546Y1059194D01*
X871029Y1058027D01*
X871446Y1056835D01*
X871795Y1055622D01*
X872076Y1054391D01*
X872288Y1053147D01*
X872429Y1051892D01*
X872500Y1050631D01*
X872500Y1049369D01*
X72500Y1049369D02*
X72429Y1048108D01*
X72288Y1046853D01*
X72076Y1045609D01*
X71795Y1044378D01*
X71446Y1043165D01*
X71029Y1041973D01*
X70546Y1040806D01*
X69998Y1039669D01*
X69387Y1038564D01*
X68715Y1037495D01*
X67985Y1036465D01*
X67198Y1035478D01*
X66356Y1034537D01*
X65464Y1033644D01*
X64522Y1032802D01*
X63535Y1032015D01*
X62505Y1031285D01*
X61436Y1030613D01*
X60331Y1030002D01*
X59194Y1029454D01*
X58027Y1028971D01*
X56835Y1028554D01*
X55622Y1028205D01*
X54391Y1027924D01*
X53147Y1027712D01*
X51892Y1027571D01*
X50631Y1027500D01*
X49369Y1027500D01*
X48108Y1027571D01*
X46853Y1027712D01*
X45609Y1027924D01*
X44378Y1028205D01*
X43165Y1028554D01*
X41973Y1028971D01*
X40806Y1029454D01*
X39669Y1030002D01*
X38564Y1030613D01*
X37495Y1031285D01*
X36465Y1032015D01*
X35478Y1032802D01*
X34537Y1033644D01*
X33644Y1034537D01*
X32802Y1035478D01*
X32015Y1036465D01*
X31285Y1037495D01*
X30613Y1038564D01*
X30002Y1039669D01*
X29454Y1040806D01*
X28971Y1041973D01*
X28554Y1043165D01*
X28205Y1044378D01*
X27924Y1045609D01*
X27712Y1046853D01*
X27571Y1048108D01*
X27500Y1049369D01*
X27500Y1050631D01*
X27571Y1051892D01*
X27712Y1053147D01*
X27924Y1054391D01*
X28205Y1055622D01*
X28554Y1056835D01*
X28971Y1058027D01*
X29454Y1059194D01*
X30002Y1060331D01*
X30613Y1061436D01*
X31285Y1062505D01*
X32015Y1063535D01*
X32802Y1064522D01*
X33644Y1065464D01*
X34537Y1066356D01*
X35478Y1067198D01*
X36465Y1067985D01*
X37495Y1068715D01*
X38564Y1069387D01*
X39669Y1069998D01*
X40806Y1070546D01*
X41973Y1071029D01*
X43165Y1071446D01*
X44378Y1071795D01*
X45609Y1072076D01*
X46853Y1072288D01*
X48108Y1072429D01*
X49369Y1072500D01*
X50631Y1072500D01*
X51892Y1072429D01*
X53147Y1072288D01*
X54391Y1072076D01*
X55622Y1071795D01*
X56835Y1071446D01*
X58027Y1071029D01*
X59194Y1070546D01*
X60331Y1069998D01*
X61436Y1069387D01*
X62505Y1068715D01*
X63535Y1067985D01*
X64522Y1067198D01*
X65464Y1066356D01*
X66356Y1065464D01*
X67198Y1064522D01*
X67985Y1063535D01*
X68715Y1062505D01*
X69387Y1061436D01*
X69998Y1060331D01*
X70546Y1059194D01*
X71029Y1058027D01*
X71446Y1056835D01*
X71795Y1055622D01*
X72076Y1054391D01*
X72288Y1053147D01*
X72429Y1051892D01*
X72500Y1050631D01*
X72500Y1049369D01*
M02*
