G04 #@! TF.GenerationSoftware,KiCad,Pcbnew,7.0.5*
G04 #@! TF.CreationDate,2023-06-29T23:29:45-06:00*
G04 #@! TF.ProjectId,speedy-breakout,73706565-6479-42d6-9272-65616b6f7574,1.0*
G04 #@! TF.SameCoordinates,Original*
G04 #@! TF.FileFunction,Legend,Bot*
G04 #@! TF.FilePolarity,Positive*
%FSLAX46Y46*%
G04 Gerber Fmt 4.6, Leading zero omitted, Abs format (unit mm)*
G04 Created by KiCad (PCBNEW 7.0.5) date 2023-06-29 23:29:45*
%MOMM*%
%LPD*%
G01*
G04 APERTURE LIST*
G04 Aperture macros list*
%AMRoundRect*
0 Rectangle with rounded corners*
0 $1 Rounding radius*
0 $2 $3 $4 $5 $6 $7 $8 $9 X,Y pos of 4 corners*
0 Add a 4 corners polygon primitive as box body*
4,1,4,$2,$3,$4,$5,$6,$7,$8,$9,$2,$3,0*
0 Add four circle primitives for the rounded corners*
1,1,$1+$1,$2,$3*
1,1,$1+$1,$4,$5*
1,1,$1+$1,$6,$7*
1,1,$1+$1,$8,$9*
0 Add four rect primitives between the rounded corners*
20,1,$1+$1,$2,$3,$4,$5,0*
20,1,$1+$1,$4,$5,$6,$7,0*
20,1,$1+$1,$6,$7,$8,$9,0*
20,1,$1+$1,$8,$9,$2,$3,0*%
G04 Aperture macros list end*
%ADD10C,0.153000*%
%ADD11RoundRect,0.038000X0.850000X-0.850000X0.850000X0.850000X-0.850000X0.850000X-0.850000X-0.850000X0*%
%ADD12O,1.776000X1.776000*%
%ADD13O,2.026000X1.776000*%
%ADD14RoundRect,0.288000X-0.725000X0.600000X-0.725000X-0.600000X0.725000X-0.600000X0.725000X0.600000X0*%
%ADD15C,1.776000*%
%ADD16C,5.676000*%
G04 APERTURE END LIST*
D10*
X141318948Y-117381133D02*
X141318948Y-117857323D01*
X141604663Y-117285895D02*
X140604663Y-117619228D01*
X140604663Y-117619228D02*
X141604663Y-117952561D01*
X141604663Y-118809704D02*
X141604663Y-118238276D01*
X141604663Y-118523990D02*
X140604663Y-118523990D01*
X140604663Y-118523990D02*
X140747520Y-118428752D01*
X140747520Y-118428752D02*
X140842758Y-118333514D01*
X140842758Y-118333514D02*
X140890377Y-118238276D01*
X140604663Y-119714466D02*
X140604663Y-119238276D01*
X140604663Y-119238276D02*
X141080853Y-119190657D01*
X141080853Y-119190657D02*
X141033234Y-119238276D01*
X141033234Y-119238276D02*
X140985615Y-119333514D01*
X140985615Y-119333514D02*
X140985615Y-119571609D01*
X140985615Y-119571609D02*
X141033234Y-119666847D01*
X141033234Y-119666847D02*
X141080853Y-119714466D01*
X141080853Y-119714466D02*
X141176091Y-119762085D01*
X141176091Y-119762085D02*
X141414186Y-119762085D01*
X141414186Y-119762085D02*
X141509424Y-119714466D01*
X141509424Y-119714466D02*
X141557044Y-119666847D01*
X141557044Y-119666847D02*
X141604663Y-119571609D01*
X141604663Y-119571609D02*
X141604663Y-119333514D01*
X141604663Y-119333514D02*
X141557044Y-119238276D01*
X141557044Y-119238276D02*
X141509424Y-119190657D01*
X163512282Y-117952561D02*
X163464663Y-117857323D01*
X163464663Y-117857323D02*
X163464663Y-117714466D01*
X163464663Y-117714466D02*
X163512282Y-117571609D01*
X163512282Y-117571609D02*
X163607520Y-117476371D01*
X163607520Y-117476371D02*
X163702758Y-117428752D01*
X163702758Y-117428752D02*
X163893234Y-117381133D01*
X163893234Y-117381133D02*
X164036091Y-117381133D01*
X164036091Y-117381133D02*
X164226567Y-117428752D01*
X164226567Y-117428752D02*
X164321805Y-117476371D01*
X164321805Y-117476371D02*
X164417044Y-117571609D01*
X164417044Y-117571609D02*
X164464663Y-117714466D01*
X164464663Y-117714466D02*
X164464663Y-117809704D01*
X164464663Y-117809704D02*
X164417044Y-117952561D01*
X164417044Y-117952561D02*
X164369424Y-118000180D01*
X164369424Y-118000180D02*
X164036091Y-118000180D01*
X164036091Y-118000180D02*
X164036091Y-117809704D01*
X164464663Y-118428752D02*
X163464663Y-118428752D01*
X163464663Y-118428752D02*
X164464663Y-119000180D01*
X164464663Y-119000180D02*
X163464663Y-119000180D01*
X164464663Y-119476371D02*
X163464663Y-119476371D01*
X163464663Y-119476371D02*
X163464663Y-119714466D01*
X163464663Y-119714466D02*
X163512282Y-119857323D01*
X163512282Y-119857323D02*
X163607520Y-119952561D01*
X163607520Y-119952561D02*
X163702758Y-120000180D01*
X163702758Y-120000180D02*
X163893234Y-120047799D01*
X163893234Y-120047799D02*
X164036091Y-120047799D01*
X164036091Y-120047799D02*
X164226567Y-120000180D01*
X164226567Y-120000180D02*
X164321805Y-119952561D01*
X164321805Y-119952561D02*
X164417044Y-119857323D01*
X164417044Y-119857323D02*
X164464663Y-119714466D01*
X164464663Y-119714466D02*
X164464663Y-119476371D01*
X125840853Y-117762085D02*
X125888472Y-117904942D01*
X125888472Y-117904942D02*
X125936091Y-117952561D01*
X125936091Y-117952561D02*
X126031329Y-118000180D01*
X126031329Y-118000180D02*
X126174186Y-118000180D01*
X126174186Y-118000180D02*
X126269424Y-117952561D01*
X126269424Y-117952561D02*
X126317044Y-117904942D01*
X126317044Y-117904942D02*
X126364663Y-117809704D01*
X126364663Y-117809704D02*
X126364663Y-117428752D01*
X126364663Y-117428752D02*
X125364663Y-117428752D01*
X125364663Y-117428752D02*
X125364663Y-117762085D01*
X125364663Y-117762085D02*
X125412282Y-117857323D01*
X125412282Y-117857323D02*
X125459901Y-117904942D01*
X125459901Y-117904942D02*
X125555139Y-117952561D01*
X125555139Y-117952561D02*
X125650377Y-117952561D01*
X125650377Y-117952561D02*
X125745615Y-117904942D01*
X125745615Y-117904942D02*
X125793234Y-117857323D01*
X125793234Y-117857323D02*
X125840853Y-117762085D01*
X125840853Y-117762085D02*
X125840853Y-117428752D01*
X126364663Y-118952561D02*
X126364663Y-118381133D01*
X126364663Y-118666847D02*
X125364663Y-118666847D01*
X125364663Y-118666847D02*
X125507520Y-118571609D01*
X125507520Y-118571609D02*
X125602758Y-118476371D01*
X125602758Y-118476371D02*
X125650377Y-118381133D01*
X125364663Y-119857323D02*
X125364663Y-119381133D01*
X125364663Y-119381133D02*
X125840853Y-119333514D01*
X125840853Y-119333514D02*
X125793234Y-119381133D01*
X125793234Y-119381133D02*
X125745615Y-119476371D01*
X125745615Y-119476371D02*
X125745615Y-119714466D01*
X125745615Y-119714466D02*
X125793234Y-119809704D01*
X125793234Y-119809704D02*
X125840853Y-119857323D01*
X125840853Y-119857323D02*
X125936091Y-119904942D01*
X125936091Y-119904942D02*
X126174186Y-119904942D01*
X126174186Y-119904942D02*
X126269424Y-119857323D01*
X126269424Y-119857323D02*
X126317044Y-119809704D01*
X126317044Y-119809704D02*
X126364663Y-119714466D01*
X126364663Y-119714466D02*
X126364663Y-119476371D01*
X126364663Y-119476371D02*
X126317044Y-119381133D01*
X126317044Y-119381133D02*
X126269424Y-119333514D01*
X158860853Y-117762085D02*
X158908472Y-117904942D01*
X158908472Y-117904942D02*
X158956091Y-117952561D01*
X158956091Y-117952561D02*
X159051329Y-118000180D01*
X159051329Y-118000180D02*
X159194186Y-118000180D01*
X159194186Y-118000180D02*
X159289424Y-117952561D01*
X159289424Y-117952561D02*
X159337044Y-117904942D01*
X159337044Y-117904942D02*
X159384663Y-117809704D01*
X159384663Y-117809704D02*
X159384663Y-117428752D01*
X159384663Y-117428752D02*
X158384663Y-117428752D01*
X158384663Y-117428752D02*
X158384663Y-117762085D01*
X158384663Y-117762085D02*
X158432282Y-117857323D01*
X158432282Y-117857323D02*
X158479901Y-117904942D01*
X158479901Y-117904942D02*
X158575139Y-117952561D01*
X158575139Y-117952561D02*
X158670377Y-117952561D01*
X158670377Y-117952561D02*
X158765615Y-117904942D01*
X158765615Y-117904942D02*
X158813234Y-117857323D01*
X158813234Y-117857323D02*
X158860853Y-117762085D01*
X158860853Y-117762085D02*
X158860853Y-117428752D01*
X159384663Y-118476371D02*
X159384663Y-118666847D01*
X159384663Y-118666847D02*
X159337044Y-118762085D01*
X159337044Y-118762085D02*
X159289424Y-118809704D01*
X159289424Y-118809704D02*
X159146567Y-118904942D01*
X159146567Y-118904942D02*
X158956091Y-118952561D01*
X158956091Y-118952561D02*
X158575139Y-118952561D01*
X158575139Y-118952561D02*
X158479901Y-118904942D01*
X158479901Y-118904942D02*
X158432282Y-118857323D01*
X158432282Y-118857323D02*
X158384663Y-118762085D01*
X158384663Y-118762085D02*
X158384663Y-118571609D01*
X158384663Y-118571609D02*
X158432282Y-118476371D01*
X158432282Y-118476371D02*
X158479901Y-118428752D01*
X158479901Y-118428752D02*
X158575139Y-118381133D01*
X158575139Y-118381133D02*
X158813234Y-118381133D01*
X158813234Y-118381133D02*
X158908472Y-118428752D01*
X158908472Y-118428752D02*
X158956091Y-118476371D01*
X158956091Y-118476371D02*
X159003710Y-118571609D01*
X159003710Y-118571609D02*
X159003710Y-118762085D01*
X159003710Y-118762085D02*
X158956091Y-118857323D01*
X158956091Y-118857323D02*
X158908472Y-118904942D01*
X158908472Y-118904942D02*
X158813234Y-118952561D01*
X136429424Y-118000180D02*
X136477044Y-117952561D01*
X136477044Y-117952561D02*
X136524663Y-117809704D01*
X136524663Y-117809704D02*
X136524663Y-117714466D01*
X136524663Y-117714466D02*
X136477044Y-117571609D01*
X136477044Y-117571609D02*
X136381805Y-117476371D01*
X136381805Y-117476371D02*
X136286567Y-117428752D01*
X136286567Y-117428752D02*
X136096091Y-117381133D01*
X136096091Y-117381133D02*
X135953234Y-117381133D01*
X135953234Y-117381133D02*
X135762758Y-117428752D01*
X135762758Y-117428752D02*
X135667520Y-117476371D01*
X135667520Y-117476371D02*
X135572282Y-117571609D01*
X135572282Y-117571609D02*
X135524663Y-117714466D01*
X135524663Y-117714466D02*
X135524663Y-117809704D01*
X135524663Y-117809704D02*
X135572282Y-117952561D01*
X135572282Y-117952561D02*
X135619901Y-118000180D01*
X136238948Y-118381133D02*
X136238948Y-118857323D01*
X136524663Y-118285895D02*
X135524663Y-118619228D01*
X135524663Y-118619228D02*
X136524663Y-118952561D01*
X136524663Y-119285895D02*
X135524663Y-119285895D01*
X135524663Y-119285895D02*
X136524663Y-119857323D01*
X136524663Y-119857323D02*
X135524663Y-119857323D01*
X136524663Y-120809704D02*
X136524663Y-120333514D01*
X136524663Y-120333514D02*
X135524663Y-120333514D01*
X166004663Y-117333514D02*
X166004663Y-117952561D01*
X166004663Y-117952561D02*
X166385615Y-117619228D01*
X166385615Y-117619228D02*
X166385615Y-117762085D01*
X166385615Y-117762085D02*
X166433234Y-117857323D01*
X166433234Y-117857323D02*
X166480853Y-117904942D01*
X166480853Y-117904942D02*
X166576091Y-117952561D01*
X166576091Y-117952561D02*
X166814186Y-117952561D01*
X166814186Y-117952561D02*
X166909424Y-117904942D01*
X166909424Y-117904942D02*
X166957044Y-117857323D01*
X166957044Y-117857323D02*
X167004663Y-117762085D01*
X167004663Y-117762085D02*
X167004663Y-117476371D01*
X167004663Y-117476371D02*
X166957044Y-117381133D01*
X166957044Y-117381133D02*
X166909424Y-117333514D01*
X166909424Y-118381133D02*
X166957044Y-118428752D01*
X166957044Y-118428752D02*
X167004663Y-118381133D01*
X167004663Y-118381133D02*
X166957044Y-118333514D01*
X166957044Y-118333514D02*
X166909424Y-118381133D01*
X166909424Y-118381133D02*
X167004663Y-118381133D01*
X166004663Y-118762085D02*
X166004663Y-119381132D01*
X166004663Y-119381132D02*
X166385615Y-119047799D01*
X166385615Y-119047799D02*
X166385615Y-119190656D01*
X166385615Y-119190656D02*
X166433234Y-119285894D01*
X166433234Y-119285894D02*
X166480853Y-119333513D01*
X166480853Y-119333513D02*
X166576091Y-119381132D01*
X166576091Y-119381132D02*
X166814186Y-119381132D01*
X166814186Y-119381132D02*
X166909424Y-119333513D01*
X166909424Y-119333513D02*
X166957044Y-119285894D01*
X166957044Y-119285894D02*
X167004663Y-119190656D01*
X167004663Y-119190656D02*
X167004663Y-118904942D01*
X167004663Y-118904942D02*
X166957044Y-118809704D01*
X166957044Y-118809704D02*
X166909424Y-118762085D01*
X166004663Y-119666847D02*
X167004663Y-120000180D01*
X167004663Y-120000180D02*
X166004663Y-120333513D01*
X131158948Y-117381133D02*
X131158948Y-117857323D01*
X131444663Y-117285895D02*
X130444663Y-117619228D01*
X130444663Y-117619228D02*
X131444663Y-117952561D01*
X131444663Y-118333514D02*
X131444663Y-118523990D01*
X131444663Y-118523990D02*
X131397044Y-118619228D01*
X131397044Y-118619228D02*
X131349424Y-118666847D01*
X131349424Y-118666847D02*
X131206567Y-118762085D01*
X131206567Y-118762085D02*
X131016091Y-118809704D01*
X131016091Y-118809704D02*
X130635139Y-118809704D01*
X130635139Y-118809704D02*
X130539901Y-118762085D01*
X130539901Y-118762085D02*
X130492282Y-118714466D01*
X130492282Y-118714466D02*
X130444663Y-118619228D01*
X130444663Y-118619228D02*
X130444663Y-118428752D01*
X130444663Y-118428752D02*
X130492282Y-118333514D01*
X130492282Y-118333514D02*
X130539901Y-118285895D01*
X130539901Y-118285895D02*
X130635139Y-118238276D01*
X130635139Y-118238276D02*
X130873234Y-118238276D01*
X130873234Y-118238276D02*
X130968472Y-118285895D01*
X130968472Y-118285895D02*
X131016091Y-118333514D01*
X131016091Y-118333514D02*
X131063710Y-118428752D01*
X131063710Y-118428752D02*
X131063710Y-118619228D01*
X131063710Y-118619228D02*
X131016091Y-118714466D01*
X131016091Y-118714466D02*
X130968472Y-118762085D01*
X130968472Y-118762085D02*
X130873234Y-118809704D01*
X160924663Y-117904942D02*
X160924663Y-117428752D01*
X160924663Y-117428752D02*
X161400853Y-117381133D01*
X161400853Y-117381133D02*
X161353234Y-117428752D01*
X161353234Y-117428752D02*
X161305615Y-117523990D01*
X161305615Y-117523990D02*
X161305615Y-117762085D01*
X161305615Y-117762085D02*
X161353234Y-117857323D01*
X161353234Y-117857323D02*
X161400853Y-117904942D01*
X161400853Y-117904942D02*
X161496091Y-117952561D01*
X161496091Y-117952561D02*
X161734186Y-117952561D01*
X161734186Y-117952561D02*
X161829424Y-117904942D01*
X161829424Y-117904942D02*
X161877044Y-117857323D01*
X161877044Y-117857323D02*
X161924663Y-117762085D01*
X161924663Y-117762085D02*
X161924663Y-117523990D01*
X161924663Y-117523990D02*
X161877044Y-117428752D01*
X161877044Y-117428752D02*
X161829424Y-117381133D01*
X160924663Y-118238276D02*
X161924663Y-118571609D01*
X161924663Y-118571609D02*
X160924663Y-118904942D01*
X120760853Y-117762085D02*
X120808472Y-117904942D01*
X120808472Y-117904942D02*
X120856091Y-117952561D01*
X120856091Y-117952561D02*
X120951329Y-118000180D01*
X120951329Y-118000180D02*
X121094186Y-118000180D01*
X121094186Y-118000180D02*
X121189424Y-117952561D01*
X121189424Y-117952561D02*
X121237044Y-117904942D01*
X121237044Y-117904942D02*
X121284663Y-117809704D01*
X121284663Y-117809704D02*
X121284663Y-117428752D01*
X121284663Y-117428752D02*
X120284663Y-117428752D01*
X120284663Y-117428752D02*
X120284663Y-117762085D01*
X120284663Y-117762085D02*
X120332282Y-117857323D01*
X120332282Y-117857323D02*
X120379901Y-117904942D01*
X120379901Y-117904942D02*
X120475139Y-117952561D01*
X120475139Y-117952561D02*
X120570377Y-117952561D01*
X120570377Y-117952561D02*
X120665615Y-117904942D01*
X120665615Y-117904942D02*
X120713234Y-117857323D01*
X120713234Y-117857323D02*
X120760853Y-117762085D01*
X120760853Y-117762085D02*
X120760853Y-117428752D01*
X121284663Y-118952561D02*
X121284663Y-118381133D01*
X121284663Y-118666847D02*
X120284663Y-118666847D01*
X120284663Y-118666847D02*
X120427520Y-118571609D01*
X120427520Y-118571609D02*
X120522758Y-118476371D01*
X120522758Y-118476371D02*
X120570377Y-118381133D01*
X120284663Y-119285895D02*
X120284663Y-119904942D01*
X120284663Y-119904942D02*
X120665615Y-119571609D01*
X120665615Y-119571609D02*
X120665615Y-119714466D01*
X120665615Y-119714466D02*
X120713234Y-119809704D01*
X120713234Y-119809704D02*
X120760853Y-119857323D01*
X120760853Y-119857323D02*
X120856091Y-119904942D01*
X120856091Y-119904942D02*
X121094186Y-119904942D01*
X121094186Y-119904942D02*
X121189424Y-119857323D01*
X121189424Y-119857323D02*
X121237044Y-119809704D01*
X121237044Y-119809704D02*
X121284663Y-119714466D01*
X121284663Y-119714466D02*
X121284663Y-119428752D01*
X121284663Y-119428752D02*
X121237044Y-119333514D01*
X121237044Y-119333514D02*
X121189424Y-119285895D01*
X143620853Y-117762085D02*
X143668472Y-117904942D01*
X143668472Y-117904942D02*
X143716091Y-117952561D01*
X143716091Y-117952561D02*
X143811329Y-118000180D01*
X143811329Y-118000180D02*
X143954186Y-118000180D01*
X143954186Y-118000180D02*
X144049424Y-117952561D01*
X144049424Y-117952561D02*
X144097044Y-117904942D01*
X144097044Y-117904942D02*
X144144663Y-117809704D01*
X144144663Y-117809704D02*
X144144663Y-117428752D01*
X144144663Y-117428752D02*
X143144663Y-117428752D01*
X143144663Y-117428752D02*
X143144663Y-117762085D01*
X143144663Y-117762085D02*
X143192282Y-117857323D01*
X143192282Y-117857323D02*
X143239901Y-117904942D01*
X143239901Y-117904942D02*
X143335139Y-117952561D01*
X143335139Y-117952561D02*
X143430377Y-117952561D01*
X143430377Y-117952561D02*
X143525615Y-117904942D01*
X143525615Y-117904942D02*
X143573234Y-117857323D01*
X143573234Y-117857323D02*
X143620853Y-117762085D01*
X143620853Y-117762085D02*
X143620853Y-117428752D01*
X143144663Y-118333514D02*
X143144663Y-118952561D01*
X143144663Y-118952561D02*
X143525615Y-118619228D01*
X143525615Y-118619228D02*
X143525615Y-118762085D01*
X143525615Y-118762085D02*
X143573234Y-118857323D01*
X143573234Y-118857323D02*
X143620853Y-118904942D01*
X143620853Y-118904942D02*
X143716091Y-118952561D01*
X143716091Y-118952561D02*
X143954186Y-118952561D01*
X143954186Y-118952561D02*
X144049424Y-118904942D01*
X144049424Y-118904942D02*
X144097044Y-118857323D01*
X144097044Y-118857323D02*
X144144663Y-118762085D01*
X144144663Y-118762085D02*
X144144663Y-118476371D01*
X144144663Y-118476371D02*
X144097044Y-118381133D01*
X144097044Y-118381133D02*
X144049424Y-118333514D01*
X138969424Y-118000180D02*
X139017044Y-117952561D01*
X139017044Y-117952561D02*
X139064663Y-117809704D01*
X139064663Y-117809704D02*
X139064663Y-117714466D01*
X139064663Y-117714466D02*
X139017044Y-117571609D01*
X139017044Y-117571609D02*
X138921805Y-117476371D01*
X138921805Y-117476371D02*
X138826567Y-117428752D01*
X138826567Y-117428752D02*
X138636091Y-117381133D01*
X138636091Y-117381133D02*
X138493234Y-117381133D01*
X138493234Y-117381133D02*
X138302758Y-117428752D01*
X138302758Y-117428752D02*
X138207520Y-117476371D01*
X138207520Y-117476371D02*
X138112282Y-117571609D01*
X138112282Y-117571609D02*
X138064663Y-117714466D01*
X138064663Y-117714466D02*
X138064663Y-117809704D01*
X138064663Y-117809704D02*
X138112282Y-117952561D01*
X138112282Y-117952561D02*
X138159901Y-118000180D01*
X138778948Y-118381133D02*
X138778948Y-118857323D01*
X139064663Y-118285895D02*
X138064663Y-118619228D01*
X138064663Y-118619228D02*
X139064663Y-118952561D01*
X139064663Y-119285895D02*
X138064663Y-119285895D01*
X138064663Y-119285895D02*
X139064663Y-119857323D01*
X139064663Y-119857323D02*
X138064663Y-119857323D01*
X139064663Y-120333514D02*
X138064663Y-120333514D01*
X138540853Y-120333514D02*
X138540853Y-120904942D01*
X139064663Y-120904942D02*
X138064663Y-120904942D01*
X146160853Y-117762085D02*
X146208472Y-117904942D01*
X146208472Y-117904942D02*
X146256091Y-117952561D01*
X146256091Y-117952561D02*
X146351329Y-118000180D01*
X146351329Y-118000180D02*
X146494186Y-118000180D01*
X146494186Y-118000180D02*
X146589424Y-117952561D01*
X146589424Y-117952561D02*
X146637044Y-117904942D01*
X146637044Y-117904942D02*
X146684663Y-117809704D01*
X146684663Y-117809704D02*
X146684663Y-117428752D01*
X146684663Y-117428752D02*
X145684663Y-117428752D01*
X145684663Y-117428752D02*
X145684663Y-117762085D01*
X145684663Y-117762085D02*
X145732282Y-117857323D01*
X145732282Y-117857323D02*
X145779901Y-117904942D01*
X145779901Y-117904942D02*
X145875139Y-117952561D01*
X145875139Y-117952561D02*
X145970377Y-117952561D01*
X145970377Y-117952561D02*
X146065615Y-117904942D01*
X146065615Y-117904942D02*
X146113234Y-117857323D01*
X146113234Y-117857323D02*
X146160853Y-117762085D01*
X146160853Y-117762085D02*
X146160853Y-117428752D01*
X146017996Y-118857323D02*
X146684663Y-118857323D01*
X145637044Y-118619228D02*
X146351329Y-118381133D01*
X146351329Y-118381133D02*
X146351329Y-119000180D01*
X133698948Y-117381133D02*
X133698948Y-117857323D01*
X133984663Y-117285895D02*
X132984663Y-117619228D01*
X132984663Y-117619228D02*
X133984663Y-117952561D01*
X133984663Y-118809704D02*
X133984663Y-118238276D01*
X133984663Y-118523990D02*
X132984663Y-118523990D01*
X132984663Y-118523990D02*
X133127520Y-118428752D01*
X133127520Y-118428752D02*
X133222758Y-118333514D01*
X133222758Y-118333514D02*
X133270377Y-118238276D01*
X132984663Y-119428752D02*
X132984663Y-119523990D01*
X132984663Y-119523990D02*
X133032282Y-119619228D01*
X133032282Y-119619228D02*
X133079901Y-119666847D01*
X133079901Y-119666847D02*
X133175139Y-119714466D01*
X133175139Y-119714466D02*
X133365615Y-119762085D01*
X133365615Y-119762085D02*
X133603710Y-119762085D01*
X133603710Y-119762085D02*
X133794186Y-119714466D01*
X133794186Y-119714466D02*
X133889424Y-119666847D01*
X133889424Y-119666847D02*
X133937044Y-119619228D01*
X133937044Y-119619228D02*
X133984663Y-119523990D01*
X133984663Y-119523990D02*
X133984663Y-119428752D01*
X133984663Y-119428752D02*
X133937044Y-119333514D01*
X133937044Y-119333514D02*
X133889424Y-119285895D01*
X133889424Y-119285895D02*
X133794186Y-119238276D01*
X133794186Y-119238276D02*
X133603710Y-119190657D01*
X133603710Y-119190657D02*
X133365615Y-119190657D01*
X133365615Y-119190657D02*
X133175139Y-119238276D01*
X133175139Y-119238276D02*
X133079901Y-119285895D01*
X133079901Y-119285895D02*
X133032282Y-119333514D01*
X133032282Y-119333514D02*
X132984663Y-119428752D01*
X128618948Y-117381133D02*
X128618948Y-117857323D01*
X128904663Y-117285895D02*
X127904663Y-117619228D01*
X127904663Y-117619228D02*
X128904663Y-117952561D01*
X128333234Y-118428752D02*
X128285615Y-118333514D01*
X128285615Y-118333514D02*
X128237996Y-118285895D01*
X128237996Y-118285895D02*
X128142758Y-118238276D01*
X128142758Y-118238276D02*
X128095139Y-118238276D01*
X128095139Y-118238276D02*
X127999901Y-118285895D01*
X127999901Y-118285895D02*
X127952282Y-118333514D01*
X127952282Y-118333514D02*
X127904663Y-118428752D01*
X127904663Y-118428752D02*
X127904663Y-118619228D01*
X127904663Y-118619228D02*
X127952282Y-118714466D01*
X127952282Y-118714466D02*
X127999901Y-118762085D01*
X127999901Y-118762085D02*
X128095139Y-118809704D01*
X128095139Y-118809704D02*
X128142758Y-118809704D01*
X128142758Y-118809704D02*
X128237996Y-118762085D01*
X128237996Y-118762085D02*
X128285615Y-118714466D01*
X128285615Y-118714466D02*
X128333234Y-118619228D01*
X128333234Y-118619228D02*
X128333234Y-118428752D01*
X128333234Y-118428752D02*
X128380853Y-118333514D01*
X128380853Y-118333514D02*
X128428472Y-118285895D01*
X128428472Y-118285895D02*
X128523710Y-118238276D01*
X128523710Y-118238276D02*
X128714186Y-118238276D01*
X128714186Y-118238276D02*
X128809424Y-118285895D01*
X128809424Y-118285895D02*
X128857044Y-118333514D01*
X128857044Y-118333514D02*
X128904663Y-118428752D01*
X128904663Y-118428752D02*
X128904663Y-118619228D01*
X128904663Y-118619228D02*
X128857044Y-118714466D01*
X128857044Y-118714466D02*
X128809424Y-118762085D01*
X128809424Y-118762085D02*
X128714186Y-118809704D01*
X128714186Y-118809704D02*
X128523710Y-118809704D01*
X128523710Y-118809704D02*
X128428472Y-118762085D01*
X128428472Y-118762085D02*
X128380853Y-118714466D01*
X128380853Y-118714466D02*
X128333234Y-118619228D01*
X118220853Y-117762085D02*
X118268472Y-117904942D01*
X118268472Y-117904942D02*
X118316091Y-117952561D01*
X118316091Y-117952561D02*
X118411329Y-118000180D01*
X118411329Y-118000180D02*
X118554186Y-118000180D01*
X118554186Y-118000180D02*
X118649424Y-117952561D01*
X118649424Y-117952561D02*
X118697044Y-117904942D01*
X118697044Y-117904942D02*
X118744663Y-117809704D01*
X118744663Y-117809704D02*
X118744663Y-117428752D01*
X118744663Y-117428752D02*
X117744663Y-117428752D01*
X117744663Y-117428752D02*
X117744663Y-117762085D01*
X117744663Y-117762085D02*
X117792282Y-117857323D01*
X117792282Y-117857323D02*
X117839901Y-117904942D01*
X117839901Y-117904942D02*
X117935139Y-117952561D01*
X117935139Y-117952561D02*
X118030377Y-117952561D01*
X118030377Y-117952561D02*
X118125615Y-117904942D01*
X118125615Y-117904942D02*
X118173234Y-117857323D01*
X118173234Y-117857323D02*
X118220853Y-117762085D01*
X118220853Y-117762085D02*
X118220853Y-117428752D01*
X118744663Y-118952561D02*
X118744663Y-118381133D01*
X118744663Y-118666847D02*
X117744663Y-118666847D01*
X117744663Y-118666847D02*
X117887520Y-118571609D01*
X117887520Y-118571609D02*
X117982758Y-118476371D01*
X117982758Y-118476371D02*
X118030377Y-118381133D01*
X117839901Y-119333514D02*
X117792282Y-119381133D01*
X117792282Y-119381133D02*
X117744663Y-119476371D01*
X117744663Y-119476371D02*
X117744663Y-119714466D01*
X117744663Y-119714466D02*
X117792282Y-119809704D01*
X117792282Y-119809704D02*
X117839901Y-119857323D01*
X117839901Y-119857323D02*
X117935139Y-119904942D01*
X117935139Y-119904942D02*
X118030377Y-119904942D01*
X118030377Y-119904942D02*
X118173234Y-119857323D01*
X118173234Y-119857323D02*
X118744663Y-119285895D01*
X118744663Y-119285895D02*
X118744663Y-119904942D01*
X156320853Y-117762085D02*
X156368472Y-117904942D01*
X156368472Y-117904942D02*
X156416091Y-117952561D01*
X156416091Y-117952561D02*
X156511329Y-118000180D01*
X156511329Y-118000180D02*
X156654186Y-118000180D01*
X156654186Y-118000180D02*
X156749424Y-117952561D01*
X156749424Y-117952561D02*
X156797044Y-117904942D01*
X156797044Y-117904942D02*
X156844663Y-117809704D01*
X156844663Y-117809704D02*
X156844663Y-117428752D01*
X156844663Y-117428752D02*
X155844663Y-117428752D01*
X155844663Y-117428752D02*
X155844663Y-117762085D01*
X155844663Y-117762085D02*
X155892282Y-117857323D01*
X155892282Y-117857323D02*
X155939901Y-117904942D01*
X155939901Y-117904942D02*
X156035139Y-117952561D01*
X156035139Y-117952561D02*
X156130377Y-117952561D01*
X156130377Y-117952561D02*
X156225615Y-117904942D01*
X156225615Y-117904942D02*
X156273234Y-117857323D01*
X156273234Y-117857323D02*
X156320853Y-117762085D01*
X156320853Y-117762085D02*
X156320853Y-117428752D01*
X156273234Y-118571609D02*
X156225615Y-118476371D01*
X156225615Y-118476371D02*
X156177996Y-118428752D01*
X156177996Y-118428752D02*
X156082758Y-118381133D01*
X156082758Y-118381133D02*
X156035139Y-118381133D01*
X156035139Y-118381133D02*
X155939901Y-118428752D01*
X155939901Y-118428752D02*
X155892282Y-118476371D01*
X155892282Y-118476371D02*
X155844663Y-118571609D01*
X155844663Y-118571609D02*
X155844663Y-118762085D01*
X155844663Y-118762085D02*
X155892282Y-118857323D01*
X155892282Y-118857323D02*
X155939901Y-118904942D01*
X155939901Y-118904942D02*
X156035139Y-118952561D01*
X156035139Y-118952561D02*
X156082758Y-118952561D01*
X156082758Y-118952561D02*
X156177996Y-118904942D01*
X156177996Y-118904942D02*
X156225615Y-118857323D01*
X156225615Y-118857323D02*
X156273234Y-118762085D01*
X156273234Y-118762085D02*
X156273234Y-118571609D01*
X156273234Y-118571609D02*
X156320853Y-118476371D01*
X156320853Y-118476371D02*
X156368472Y-118428752D01*
X156368472Y-118428752D02*
X156463710Y-118381133D01*
X156463710Y-118381133D02*
X156654186Y-118381133D01*
X156654186Y-118381133D02*
X156749424Y-118428752D01*
X156749424Y-118428752D02*
X156797044Y-118476371D01*
X156797044Y-118476371D02*
X156844663Y-118571609D01*
X156844663Y-118571609D02*
X156844663Y-118762085D01*
X156844663Y-118762085D02*
X156797044Y-118857323D01*
X156797044Y-118857323D02*
X156749424Y-118904942D01*
X156749424Y-118904942D02*
X156654186Y-118952561D01*
X156654186Y-118952561D02*
X156463710Y-118952561D01*
X156463710Y-118952561D02*
X156368472Y-118904942D01*
X156368472Y-118904942D02*
X156320853Y-118857323D01*
X156320853Y-118857323D02*
X156273234Y-118762085D01*
X148700853Y-117762085D02*
X148748472Y-117904942D01*
X148748472Y-117904942D02*
X148796091Y-117952561D01*
X148796091Y-117952561D02*
X148891329Y-118000180D01*
X148891329Y-118000180D02*
X149034186Y-118000180D01*
X149034186Y-118000180D02*
X149129424Y-117952561D01*
X149129424Y-117952561D02*
X149177044Y-117904942D01*
X149177044Y-117904942D02*
X149224663Y-117809704D01*
X149224663Y-117809704D02*
X149224663Y-117428752D01*
X149224663Y-117428752D02*
X148224663Y-117428752D01*
X148224663Y-117428752D02*
X148224663Y-117762085D01*
X148224663Y-117762085D02*
X148272282Y-117857323D01*
X148272282Y-117857323D02*
X148319901Y-117904942D01*
X148319901Y-117904942D02*
X148415139Y-117952561D01*
X148415139Y-117952561D02*
X148510377Y-117952561D01*
X148510377Y-117952561D02*
X148605615Y-117904942D01*
X148605615Y-117904942D02*
X148653234Y-117857323D01*
X148653234Y-117857323D02*
X148700853Y-117762085D01*
X148700853Y-117762085D02*
X148700853Y-117428752D01*
X148224663Y-118904942D02*
X148224663Y-118428752D01*
X148224663Y-118428752D02*
X148700853Y-118381133D01*
X148700853Y-118381133D02*
X148653234Y-118428752D01*
X148653234Y-118428752D02*
X148605615Y-118523990D01*
X148605615Y-118523990D02*
X148605615Y-118762085D01*
X148605615Y-118762085D02*
X148653234Y-118857323D01*
X148653234Y-118857323D02*
X148700853Y-118904942D01*
X148700853Y-118904942D02*
X148796091Y-118952561D01*
X148796091Y-118952561D02*
X149034186Y-118952561D01*
X149034186Y-118952561D02*
X149129424Y-118904942D01*
X149129424Y-118904942D02*
X149177044Y-118857323D01*
X149177044Y-118857323D02*
X149224663Y-118762085D01*
X149224663Y-118762085D02*
X149224663Y-118523990D01*
X149224663Y-118523990D02*
X149177044Y-118428752D01*
X149177044Y-118428752D02*
X149129424Y-118381133D01*
X153780853Y-117762085D02*
X153828472Y-117904942D01*
X153828472Y-117904942D02*
X153876091Y-117952561D01*
X153876091Y-117952561D02*
X153971329Y-118000180D01*
X153971329Y-118000180D02*
X154114186Y-118000180D01*
X154114186Y-118000180D02*
X154209424Y-117952561D01*
X154209424Y-117952561D02*
X154257044Y-117904942D01*
X154257044Y-117904942D02*
X154304663Y-117809704D01*
X154304663Y-117809704D02*
X154304663Y-117428752D01*
X154304663Y-117428752D02*
X153304663Y-117428752D01*
X153304663Y-117428752D02*
X153304663Y-117762085D01*
X153304663Y-117762085D02*
X153352282Y-117857323D01*
X153352282Y-117857323D02*
X153399901Y-117904942D01*
X153399901Y-117904942D02*
X153495139Y-117952561D01*
X153495139Y-117952561D02*
X153590377Y-117952561D01*
X153590377Y-117952561D02*
X153685615Y-117904942D01*
X153685615Y-117904942D02*
X153733234Y-117857323D01*
X153733234Y-117857323D02*
X153780853Y-117762085D01*
X153780853Y-117762085D02*
X153780853Y-117428752D01*
X153304663Y-118333514D02*
X153304663Y-119000180D01*
X153304663Y-119000180D02*
X154304663Y-118571609D01*
X123300853Y-117762085D02*
X123348472Y-117904942D01*
X123348472Y-117904942D02*
X123396091Y-117952561D01*
X123396091Y-117952561D02*
X123491329Y-118000180D01*
X123491329Y-118000180D02*
X123634186Y-118000180D01*
X123634186Y-118000180D02*
X123729424Y-117952561D01*
X123729424Y-117952561D02*
X123777044Y-117904942D01*
X123777044Y-117904942D02*
X123824663Y-117809704D01*
X123824663Y-117809704D02*
X123824663Y-117428752D01*
X123824663Y-117428752D02*
X122824663Y-117428752D01*
X122824663Y-117428752D02*
X122824663Y-117762085D01*
X122824663Y-117762085D02*
X122872282Y-117857323D01*
X122872282Y-117857323D02*
X122919901Y-117904942D01*
X122919901Y-117904942D02*
X123015139Y-117952561D01*
X123015139Y-117952561D02*
X123110377Y-117952561D01*
X123110377Y-117952561D02*
X123205615Y-117904942D01*
X123205615Y-117904942D02*
X123253234Y-117857323D01*
X123253234Y-117857323D02*
X123300853Y-117762085D01*
X123300853Y-117762085D02*
X123300853Y-117428752D01*
X123824663Y-118952561D02*
X123824663Y-118381133D01*
X123824663Y-118666847D02*
X122824663Y-118666847D01*
X122824663Y-118666847D02*
X122967520Y-118571609D01*
X122967520Y-118571609D02*
X123062758Y-118476371D01*
X123062758Y-118476371D02*
X123110377Y-118381133D01*
X123157996Y-119809704D02*
X123824663Y-119809704D01*
X122777044Y-119571609D02*
X123491329Y-119333514D01*
X123491329Y-119333514D02*
X123491329Y-119952561D01*
X151240853Y-117762085D02*
X151288472Y-117904942D01*
X151288472Y-117904942D02*
X151336091Y-117952561D01*
X151336091Y-117952561D02*
X151431329Y-118000180D01*
X151431329Y-118000180D02*
X151574186Y-118000180D01*
X151574186Y-118000180D02*
X151669424Y-117952561D01*
X151669424Y-117952561D02*
X151717044Y-117904942D01*
X151717044Y-117904942D02*
X151764663Y-117809704D01*
X151764663Y-117809704D02*
X151764663Y-117428752D01*
X151764663Y-117428752D02*
X150764663Y-117428752D01*
X150764663Y-117428752D02*
X150764663Y-117762085D01*
X150764663Y-117762085D02*
X150812282Y-117857323D01*
X150812282Y-117857323D02*
X150859901Y-117904942D01*
X150859901Y-117904942D02*
X150955139Y-117952561D01*
X150955139Y-117952561D02*
X151050377Y-117952561D01*
X151050377Y-117952561D02*
X151145615Y-117904942D01*
X151145615Y-117904942D02*
X151193234Y-117857323D01*
X151193234Y-117857323D02*
X151240853Y-117762085D01*
X151240853Y-117762085D02*
X151240853Y-117428752D01*
X150764663Y-118857323D02*
X150764663Y-118666847D01*
X150764663Y-118666847D02*
X150812282Y-118571609D01*
X150812282Y-118571609D02*
X150859901Y-118523990D01*
X150859901Y-118523990D02*
X151002758Y-118428752D01*
X151002758Y-118428752D02*
X151193234Y-118381133D01*
X151193234Y-118381133D02*
X151574186Y-118381133D01*
X151574186Y-118381133D02*
X151669424Y-118428752D01*
X151669424Y-118428752D02*
X151717044Y-118476371D01*
X151717044Y-118476371D02*
X151764663Y-118571609D01*
X151764663Y-118571609D02*
X151764663Y-118762085D01*
X151764663Y-118762085D02*
X151717044Y-118857323D01*
X151717044Y-118857323D02*
X151669424Y-118904942D01*
X151669424Y-118904942D02*
X151574186Y-118952561D01*
X151574186Y-118952561D02*
X151336091Y-118952561D01*
X151336091Y-118952561D02*
X151240853Y-118904942D01*
X151240853Y-118904942D02*
X151193234Y-118857323D01*
X151193234Y-118857323D02*
X151145615Y-118762085D01*
X151145615Y-118762085D02*
X151145615Y-118571609D01*
X151145615Y-118571609D02*
X151193234Y-118476371D01*
X151193234Y-118476371D02*
X151240853Y-118428752D01*
X151240853Y-118428752D02*
X151336091Y-118381133D01*
X130920853Y-80386009D02*
X130968472Y-80528866D01*
X130968472Y-80528866D02*
X131016091Y-80576485D01*
X131016091Y-80576485D02*
X131111329Y-80624104D01*
X131111329Y-80624104D02*
X131254186Y-80624104D01*
X131254186Y-80624104D02*
X131349424Y-80576485D01*
X131349424Y-80576485D02*
X131397044Y-80528866D01*
X131397044Y-80528866D02*
X131444663Y-80433628D01*
X131444663Y-80433628D02*
X131444663Y-80052676D01*
X131444663Y-80052676D02*
X130444663Y-80052676D01*
X130444663Y-80052676D02*
X130444663Y-80386009D01*
X130444663Y-80386009D02*
X130492282Y-80481247D01*
X130492282Y-80481247D02*
X130539901Y-80528866D01*
X130539901Y-80528866D02*
X130635139Y-80576485D01*
X130635139Y-80576485D02*
X130730377Y-80576485D01*
X130730377Y-80576485D02*
X130825615Y-80528866D01*
X130825615Y-80528866D02*
X130873234Y-80481247D01*
X130873234Y-80481247D02*
X130920853Y-80386009D01*
X130920853Y-80386009D02*
X130920853Y-80052676D01*
X131444663Y-81576485D02*
X131444663Y-81005057D01*
X131444663Y-81290771D02*
X130444663Y-81290771D01*
X130444663Y-81290771D02*
X130587520Y-81195533D01*
X130587520Y-81195533D02*
X130682758Y-81100295D01*
X130682758Y-81100295D02*
X130730377Y-81005057D01*
X130444663Y-82195533D02*
X130444663Y-82290771D01*
X130444663Y-82290771D02*
X130492282Y-82386009D01*
X130492282Y-82386009D02*
X130539901Y-82433628D01*
X130539901Y-82433628D02*
X130635139Y-82481247D01*
X130635139Y-82481247D02*
X130825615Y-82528866D01*
X130825615Y-82528866D02*
X131063710Y-82528866D01*
X131063710Y-82528866D02*
X131254186Y-82481247D01*
X131254186Y-82481247D02*
X131349424Y-82433628D01*
X131349424Y-82433628D02*
X131397044Y-82386009D01*
X131397044Y-82386009D02*
X131444663Y-82290771D01*
X131444663Y-82290771D02*
X131444663Y-82195533D01*
X131444663Y-82195533D02*
X131397044Y-82100295D01*
X131397044Y-82100295D02*
X131349424Y-82052676D01*
X131349424Y-82052676D02*
X131254186Y-82005057D01*
X131254186Y-82005057D02*
X131063710Y-81957438D01*
X131063710Y-81957438D02*
X130825615Y-81957438D01*
X130825615Y-81957438D02*
X130635139Y-82005057D01*
X130635139Y-82005057D02*
X130539901Y-82052676D01*
X130539901Y-82052676D02*
X130492282Y-82100295D01*
X130492282Y-82100295D02*
X130444663Y-82195533D01*
X126364663Y-79195533D02*
X125364663Y-79195533D01*
X125364663Y-79195533D02*
X126364663Y-79766961D01*
X126364663Y-79766961D02*
X125364663Y-79766961D01*
X126364663Y-80814580D02*
X125888472Y-80481247D01*
X126364663Y-80243152D02*
X125364663Y-80243152D01*
X125364663Y-80243152D02*
X125364663Y-80624104D01*
X125364663Y-80624104D02*
X125412282Y-80719342D01*
X125412282Y-80719342D02*
X125459901Y-80766961D01*
X125459901Y-80766961D02*
X125555139Y-80814580D01*
X125555139Y-80814580D02*
X125697996Y-80814580D01*
X125697996Y-80814580D02*
X125793234Y-80766961D01*
X125793234Y-80766961D02*
X125840853Y-80719342D01*
X125840853Y-80719342D02*
X125888472Y-80624104D01*
X125888472Y-80624104D02*
X125888472Y-80243152D01*
X126317044Y-81195533D02*
X126364663Y-81338390D01*
X126364663Y-81338390D02*
X126364663Y-81576485D01*
X126364663Y-81576485D02*
X126317044Y-81671723D01*
X126317044Y-81671723D02*
X126269424Y-81719342D01*
X126269424Y-81719342D02*
X126174186Y-81766961D01*
X126174186Y-81766961D02*
X126078948Y-81766961D01*
X126078948Y-81766961D02*
X125983710Y-81719342D01*
X125983710Y-81719342D02*
X125936091Y-81671723D01*
X125936091Y-81671723D02*
X125888472Y-81576485D01*
X125888472Y-81576485D02*
X125840853Y-81386009D01*
X125840853Y-81386009D02*
X125793234Y-81290771D01*
X125793234Y-81290771D02*
X125745615Y-81243152D01*
X125745615Y-81243152D02*
X125650377Y-81195533D01*
X125650377Y-81195533D02*
X125555139Y-81195533D01*
X125555139Y-81195533D02*
X125459901Y-81243152D01*
X125459901Y-81243152D02*
X125412282Y-81290771D01*
X125412282Y-81290771D02*
X125364663Y-81386009D01*
X125364663Y-81386009D02*
X125364663Y-81624104D01*
X125364663Y-81624104D02*
X125412282Y-81766961D01*
X125364663Y-82052676D02*
X125364663Y-82624104D01*
X126364663Y-82338390D02*
X125364663Y-82338390D01*
X117792282Y-80433628D02*
X117744663Y-80338390D01*
X117744663Y-80338390D02*
X117744663Y-80195533D01*
X117744663Y-80195533D02*
X117792282Y-80052676D01*
X117792282Y-80052676D02*
X117887520Y-79957438D01*
X117887520Y-79957438D02*
X117982758Y-79909819D01*
X117982758Y-79909819D02*
X118173234Y-79862200D01*
X118173234Y-79862200D02*
X118316091Y-79862200D01*
X118316091Y-79862200D02*
X118506567Y-79909819D01*
X118506567Y-79909819D02*
X118601805Y-79957438D01*
X118601805Y-79957438D02*
X118697044Y-80052676D01*
X118697044Y-80052676D02*
X118744663Y-80195533D01*
X118744663Y-80195533D02*
X118744663Y-80290771D01*
X118744663Y-80290771D02*
X118697044Y-80433628D01*
X118697044Y-80433628D02*
X118649424Y-80481247D01*
X118649424Y-80481247D02*
X118316091Y-80481247D01*
X118316091Y-80481247D02*
X118316091Y-80290771D01*
X118744663Y-80909819D02*
X117744663Y-80909819D01*
X117744663Y-80909819D02*
X118744663Y-81481247D01*
X118744663Y-81481247D02*
X117744663Y-81481247D01*
X118744663Y-81957438D02*
X117744663Y-81957438D01*
X117744663Y-81957438D02*
X117744663Y-82195533D01*
X117744663Y-82195533D02*
X117792282Y-82338390D01*
X117792282Y-82338390D02*
X117887520Y-82433628D01*
X117887520Y-82433628D02*
X117982758Y-82481247D01*
X117982758Y-82481247D02*
X118173234Y-82528866D01*
X118173234Y-82528866D02*
X118316091Y-82528866D01*
X118316091Y-82528866D02*
X118506567Y-82481247D01*
X118506567Y-82481247D02*
X118601805Y-82433628D01*
X118601805Y-82433628D02*
X118697044Y-82338390D01*
X118697044Y-82338390D02*
X118744663Y-82195533D01*
X118744663Y-82195533D02*
X118744663Y-81957438D01*
X161829424Y-80624104D02*
X161877044Y-80576485D01*
X161877044Y-80576485D02*
X161924663Y-80433628D01*
X161924663Y-80433628D02*
X161924663Y-80338390D01*
X161924663Y-80338390D02*
X161877044Y-80195533D01*
X161877044Y-80195533D02*
X161781805Y-80100295D01*
X161781805Y-80100295D02*
X161686567Y-80052676D01*
X161686567Y-80052676D02*
X161496091Y-80005057D01*
X161496091Y-80005057D02*
X161353234Y-80005057D01*
X161353234Y-80005057D02*
X161162758Y-80052676D01*
X161162758Y-80052676D02*
X161067520Y-80100295D01*
X161067520Y-80100295D02*
X160972282Y-80195533D01*
X160972282Y-80195533D02*
X160924663Y-80338390D01*
X160924663Y-80338390D02*
X160924663Y-80433628D01*
X160924663Y-80433628D02*
X160972282Y-80576485D01*
X160972282Y-80576485D02*
X161019901Y-80624104D01*
X161924663Y-81576485D02*
X161924663Y-81005057D01*
X161924663Y-81290771D02*
X160924663Y-81290771D01*
X160924663Y-81290771D02*
X161067520Y-81195533D01*
X161067520Y-81195533D02*
X161162758Y-81100295D01*
X161162758Y-81100295D02*
X161210377Y-81005057D01*
X161257996Y-82433628D02*
X161924663Y-82433628D01*
X160877044Y-82195533D02*
X161591329Y-81957438D01*
X161591329Y-81957438D02*
X161591329Y-82576485D01*
X136000853Y-81338390D02*
X136048472Y-81481247D01*
X136048472Y-81481247D02*
X136096091Y-81528866D01*
X136096091Y-81528866D02*
X136191329Y-81576485D01*
X136191329Y-81576485D02*
X136334186Y-81576485D01*
X136334186Y-81576485D02*
X136429424Y-81528866D01*
X136429424Y-81528866D02*
X136477044Y-81481247D01*
X136477044Y-81481247D02*
X136524663Y-81386009D01*
X136524663Y-81386009D02*
X136524663Y-81005057D01*
X136524663Y-81005057D02*
X135524663Y-81005057D01*
X135524663Y-81005057D02*
X135524663Y-81338390D01*
X135524663Y-81338390D02*
X135572282Y-81433628D01*
X135572282Y-81433628D02*
X135619901Y-81481247D01*
X135619901Y-81481247D02*
X135715139Y-81528866D01*
X135715139Y-81528866D02*
X135810377Y-81528866D01*
X135810377Y-81528866D02*
X135905615Y-81481247D01*
X135905615Y-81481247D02*
X135953234Y-81433628D01*
X135953234Y-81433628D02*
X136000853Y-81338390D01*
X136000853Y-81338390D02*
X136000853Y-81005057D01*
X135524663Y-82195533D02*
X135524663Y-82290771D01*
X135524663Y-82290771D02*
X135572282Y-82386009D01*
X135572282Y-82386009D02*
X135619901Y-82433628D01*
X135619901Y-82433628D02*
X135715139Y-82481247D01*
X135715139Y-82481247D02*
X135905615Y-82528866D01*
X135905615Y-82528866D02*
X136143710Y-82528866D01*
X136143710Y-82528866D02*
X136334186Y-82481247D01*
X136334186Y-82481247D02*
X136429424Y-82433628D01*
X136429424Y-82433628D02*
X136477044Y-82386009D01*
X136477044Y-82386009D02*
X136524663Y-82290771D01*
X136524663Y-82290771D02*
X136524663Y-82195533D01*
X136524663Y-82195533D02*
X136477044Y-82100295D01*
X136477044Y-82100295D02*
X136429424Y-82052676D01*
X136429424Y-82052676D02*
X136334186Y-82005057D01*
X136334186Y-82005057D02*
X136143710Y-81957438D01*
X136143710Y-81957438D02*
X135905615Y-81957438D01*
X135905615Y-81957438D02*
X135715139Y-82005057D01*
X135715139Y-82005057D02*
X135619901Y-82052676D01*
X135619901Y-82052676D02*
X135572282Y-82100295D01*
X135572282Y-82100295D02*
X135524663Y-82195533D01*
X122824663Y-79624105D02*
X122824663Y-80243152D01*
X122824663Y-80243152D02*
X123205615Y-79909819D01*
X123205615Y-79909819D02*
X123205615Y-80052676D01*
X123205615Y-80052676D02*
X123253234Y-80147914D01*
X123253234Y-80147914D02*
X123300853Y-80195533D01*
X123300853Y-80195533D02*
X123396091Y-80243152D01*
X123396091Y-80243152D02*
X123634186Y-80243152D01*
X123634186Y-80243152D02*
X123729424Y-80195533D01*
X123729424Y-80195533D02*
X123777044Y-80147914D01*
X123777044Y-80147914D02*
X123824663Y-80052676D01*
X123824663Y-80052676D02*
X123824663Y-79766962D01*
X123824663Y-79766962D02*
X123777044Y-79671724D01*
X123777044Y-79671724D02*
X123729424Y-79624105D01*
X123729424Y-80671724D02*
X123777044Y-80719343D01*
X123777044Y-80719343D02*
X123824663Y-80671724D01*
X123824663Y-80671724D02*
X123777044Y-80624105D01*
X123777044Y-80624105D02*
X123729424Y-80671724D01*
X123729424Y-80671724D02*
X123824663Y-80671724D01*
X122824663Y-81052676D02*
X122824663Y-81671723D01*
X122824663Y-81671723D02*
X123205615Y-81338390D01*
X123205615Y-81338390D02*
X123205615Y-81481247D01*
X123205615Y-81481247D02*
X123253234Y-81576485D01*
X123253234Y-81576485D02*
X123300853Y-81624104D01*
X123300853Y-81624104D02*
X123396091Y-81671723D01*
X123396091Y-81671723D02*
X123634186Y-81671723D01*
X123634186Y-81671723D02*
X123729424Y-81624104D01*
X123729424Y-81624104D02*
X123777044Y-81576485D01*
X123777044Y-81576485D02*
X123824663Y-81481247D01*
X123824663Y-81481247D02*
X123824663Y-81195533D01*
X123824663Y-81195533D02*
X123777044Y-81100295D01*
X123777044Y-81100295D02*
X123729424Y-81052676D01*
X122824663Y-81957438D02*
X123824663Y-82290771D01*
X123824663Y-82290771D02*
X122824663Y-82624104D01*
X163940853Y-81338390D02*
X163988472Y-81481247D01*
X163988472Y-81481247D02*
X164036091Y-81528866D01*
X164036091Y-81528866D02*
X164131329Y-81576485D01*
X164131329Y-81576485D02*
X164274186Y-81576485D01*
X164274186Y-81576485D02*
X164369424Y-81528866D01*
X164369424Y-81528866D02*
X164417044Y-81481247D01*
X164417044Y-81481247D02*
X164464663Y-81386009D01*
X164464663Y-81386009D02*
X164464663Y-81005057D01*
X164464663Y-81005057D02*
X163464663Y-81005057D01*
X163464663Y-81005057D02*
X163464663Y-81338390D01*
X163464663Y-81338390D02*
X163512282Y-81433628D01*
X163512282Y-81433628D02*
X163559901Y-81481247D01*
X163559901Y-81481247D02*
X163655139Y-81528866D01*
X163655139Y-81528866D02*
X163750377Y-81528866D01*
X163750377Y-81528866D02*
X163845615Y-81481247D01*
X163845615Y-81481247D02*
X163893234Y-81433628D01*
X163893234Y-81433628D02*
X163940853Y-81338390D01*
X163940853Y-81338390D02*
X163940853Y-81005057D01*
X163559901Y-81957438D02*
X163512282Y-82005057D01*
X163512282Y-82005057D02*
X163464663Y-82100295D01*
X163464663Y-82100295D02*
X163464663Y-82338390D01*
X163464663Y-82338390D02*
X163512282Y-82433628D01*
X163512282Y-82433628D02*
X163559901Y-82481247D01*
X163559901Y-82481247D02*
X163655139Y-82528866D01*
X163655139Y-82528866D02*
X163750377Y-82528866D01*
X163750377Y-82528866D02*
X163893234Y-82481247D01*
X163893234Y-82481247D02*
X164464663Y-81909819D01*
X164464663Y-81909819D02*
X164464663Y-82528866D01*
X156558948Y-81100295D02*
X156558948Y-81576485D01*
X156844663Y-81005057D02*
X155844663Y-81338390D01*
X155844663Y-81338390D02*
X156844663Y-81671723D01*
X155844663Y-82195533D02*
X155844663Y-82290771D01*
X155844663Y-82290771D02*
X155892282Y-82386009D01*
X155892282Y-82386009D02*
X155939901Y-82433628D01*
X155939901Y-82433628D02*
X156035139Y-82481247D01*
X156035139Y-82481247D02*
X156225615Y-82528866D01*
X156225615Y-82528866D02*
X156463710Y-82528866D01*
X156463710Y-82528866D02*
X156654186Y-82481247D01*
X156654186Y-82481247D02*
X156749424Y-82433628D01*
X156749424Y-82433628D02*
X156797044Y-82386009D01*
X156797044Y-82386009D02*
X156844663Y-82290771D01*
X156844663Y-82290771D02*
X156844663Y-82195533D01*
X156844663Y-82195533D02*
X156797044Y-82100295D01*
X156797044Y-82100295D02*
X156749424Y-82052676D01*
X156749424Y-82052676D02*
X156654186Y-82005057D01*
X156654186Y-82005057D02*
X156463710Y-81957438D01*
X156463710Y-81957438D02*
X156225615Y-81957438D01*
X156225615Y-81957438D02*
X156035139Y-82005057D01*
X156035139Y-82005057D02*
X155939901Y-82052676D01*
X155939901Y-82052676D02*
X155892282Y-82100295D01*
X155892282Y-82100295D02*
X155844663Y-82195533D01*
X154018948Y-81100295D02*
X154018948Y-81576485D01*
X154304663Y-81005057D02*
X153304663Y-81338390D01*
X153304663Y-81338390D02*
X154304663Y-81671723D01*
X154304663Y-82528866D02*
X154304663Y-81957438D01*
X154304663Y-82243152D02*
X153304663Y-82243152D01*
X153304663Y-82243152D02*
X153447520Y-82147914D01*
X153447520Y-82147914D02*
X153542758Y-82052676D01*
X153542758Y-82052676D02*
X153590377Y-81957438D01*
X120332282Y-80433628D02*
X120284663Y-80338390D01*
X120284663Y-80338390D02*
X120284663Y-80195533D01*
X120284663Y-80195533D02*
X120332282Y-80052676D01*
X120332282Y-80052676D02*
X120427520Y-79957438D01*
X120427520Y-79957438D02*
X120522758Y-79909819D01*
X120522758Y-79909819D02*
X120713234Y-79862200D01*
X120713234Y-79862200D02*
X120856091Y-79862200D01*
X120856091Y-79862200D02*
X121046567Y-79909819D01*
X121046567Y-79909819D02*
X121141805Y-79957438D01*
X121141805Y-79957438D02*
X121237044Y-80052676D01*
X121237044Y-80052676D02*
X121284663Y-80195533D01*
X121284663Y-80195533D02*
X121284663Y-80290771D01*
X121284663Y-80290771D02*
X121237044Y-80433628D01*
X121237044Y-80433628D02*
X121189424Y-80481247D01*
X121189424Y-80481247D02*
X120856091Y-80481247D01*
X120856091Y-80481247D02*
X120856091Y-80290771D01*
X121284663Y-80909819D02*
X120284663Y-80909819D01*
X120284663Y-80909819D02*
X121284663Y-81481247D01*
X121284663Y-81481247D02*
X120284663Y-81481247D01*
X121284663Y-81957438D02*
X120284663Y-81957438D01*
X120284663Y-81957438D02*
X120284663Y-82195533D01*
X120284663Y-82195533D02*
X120332282Y-82338390D01*
X120332282Y-82338390D02*
X120427520Y-82433628D01*
X120427520Y-82433628D02*
X120522758Y-82481247D01*
X120522758Y-82481247D02*
X120713234Y-82528866D01*
X120713234Y-82528866D02*
X120856091Y-82528866D01*
X120856091Y-82528866D02*
X121046567Y-82481247D01*
X121046567Y-82481247D02*
X121141805Y-82433628D01*
X121141805Y-82433628D02*
X121237044Y-82338390D01*
X121237044Y-82338390D02*
X121284663Y-82195533D01*
X121284663Y-82195533D02*
X121284663Y-81957438D01*
X143858948Y-81100295D02*
X143858948Y-81576485D01*
X144144663Y-81005057D02*
X143144663Y-81338390D01*
X143144663Y-81338390D02*
X144144663Y-81671723D01*
X143144663Y-82481247D02*
X143144663Y-82005057D01*
X143144663Y-82005057D02*
X143620853Y-81957438D01*
X143620853Y-81957438D02*
X143573234Y-82005057D01*
X143573234Y-82005057D02*
X143525615Y-82100295D01*
X143525615Y-82100295D02*
X143525615Y-82338390D01*
X143525615Y-82338390D02*
X143573234Y-82433628D01*
X143573234Y-82433628D02*
X143620853Y-82481247D01*
X143620853Y-82481247D02*
X143716091Y-82528866D01*
X143716091Y-82528866D02*
X143954186Y-82528866D01*
X143954186Y-82528866D02*
X144049424Y-82481247D01*
X144049424Y-82481247D02*
X144097044Y-82433628D01*
X144097044Y-82433628D02*
X144144663Y-82338390D01*
X144144663Y-82338390D02*
X144144663Y-82100295D01*
X144144663Y-82100295D02*
X144097044Y-82005057D01*
X144097044Y-82005057D02*
X144049424Y-81957438D01*
X151478948Y-81100295D02*
X151478948Y-81576485D01*
X151764663Y-81005057D02*
X150764663Y-81338390D01*
X150764663Y-81338390D02*
X151764663Y-81671723D01*
X150859901Y-81957438D02*
X150812282Y-82005057D01*
X150812282Y-82005057D02*
X150764663Y-82100295D01*
X150764663Y-82100295D02*
X150764663Y-82338390D01*
X150764663Y-82338390D02*
X150812282Y-82433628D01*
X150812282Y-82433628D02*
X150859901Y-82481247D01*
X150859901Y-82481247D02*
X150955139Y-82528866D01*
X150955139Y-82528866D02*
X151050377Y-82528866D01*
X151050377Y-82528866D02*
X151193234Y-82481247D01*
X151193234Y-82481247D02*
X151764663Y-81909819D01*
X151764663Y-81909819D02*
X151764663Y-82528866D01*
X138778948Y-81100295D02*
X138778948Y-81576485D01*
X139064663Y-81005057D02*
X138064663Y-81338390D01*
X138064663Y-81338390D02*
X139064663Y-81671723D01*
X138064663Y-81909819D02*
X138064663Y-82576485D01*
X138064663Y-82576485D02*
X139064663Y-82147914D01*
X148938948Y-81100295D02*
X148938948Y-81576485D01*
X149224663Y-81005057D02*
X148224663Y-81338390D01*
X148224663Y-81338390D02*
X149224663Y-81671723D01*
X148224663Y-81909819D02*
X148224663Y-82528866D01*
X148224663Y-82528866D02*
X148605615Y-82195533D01*
X148605615Y-82195533D02*
X148605615Y-82338390D01*
X148605615Y-82338390D02*
X148653234Y-82433628D01*
X148653234Y-82433628D02*
X148700853Y-82481247D01*
X148700853Y-82481247D02*
X148796091Y-82528866D01*
X148796091Y-82528866D02*
X149034186Y-82528866D01*
X149034186Y-82528866D02*
X149129424Y-82481247D01*
X149129424Y-82481247D02*
X149177044Y-82433628D01*
X149177044Y-82433628D02*
X149224663Y-82338390D01*
X149224663Y-82338390D02*
X149224663Y-82052676D01*
X149224663Y-82052676D02*
X149177044Y-81957438D01*
X149177044Y-81957438D02*
X149129424Y-81909819D01*
X133460853Y-81338390D02*
X133508472Y-81481247D01*
X133508472Y-81481247D02*
X133556091Y-81528866D01*
X133556091Y-81528866D02*
X133651329Y-81576485D01*
X133651329Y-81576485D02*
X133794186Y-81576485D01*
X133794186Y-81576485D02*
X133889424Y-81528866D01*
X133889424Y-81528866D02*
X133937044Y-81481247D01*
X133937044Y-81481247D02*
X133984663Y-81386009D01*
X133984663Y-81386009D02*
X133984663Y-81005057D01*
X133984663Y-81005057D02*
X132984663Y-81005057D01*
X132984663Y-81005057D02*
X132984663Y-81338390D01*
X132984663Y-81338390D02*
X133032282Y-81433628D01*
X133032282Y-81433628D02*
X133079901Y-81481247D01*
X133079901Y-81481247D02*
X133175139Y-81528866D01*
X133175139Y-81528866D02*
X133270377Y-81528866D01*
X133270377Y-81528866D02*
X133365615Y-81481247D01*
X133365615Y-81481247D02*
X133413234Y-81433628D01*
X133413234Y-81433628D02*
X133460853Y-81338390D01*
X133460853Y-81338390D02*
X133460853Y-81005057D01*
X133984663Y-82528866D02*
X133984663Y-81957438D01*
X133984663Y-82243152D02*
X132984663Y-82243152D01*
X132984663Y-82243152D02*
X133127520Y-82147914D01*
X133127520Y-82147914D02*
X133222758Y-82052676D01*
X133222758Y-82052676D02*
X133270377Y-81957438D01*
X159289424Y-80624104D02*
X159337044Y-80576485D01*
X159337044Y-80576485D02*
X159384663Y-80433628D01*
X159384663Y-80433628D02*
X159384663Y-80338390D01*
X159384663Y-80338390D02*
X159337044Y-80195533D01*
X159337044Y-80195533D02*
X159241805Y-80100295D01*
X159241805Y-80100295D02*
X159146567Y-80052676D01*
X159146567Y-80052676D02*
X158956091Y-80005057D01*
X158956091Y-80005057D02*
X158813234Y-80005057D01*
X158813234Y-80005057D02*
X158622758Y-80052676D01*
X158622758Y-80052676D02*
X158527520Y-80100295D01*
X158527520Y-80100295D02*
X158432282Y-80195533D01*
X158432282Y-80195533D02*
X158384663Y-80338390D01*
X158384663Y-80338390D02*
X158384663Y-80433628D01*
X158384663Y-80433628D02*
X158432282Y-80576485D01*
X158432282Y-80576485D02*
X158479901Y-80624104D01*
X159384663Y-81576485D02*
X159384663Y-81005057D01*
X159384663Y-81290771D02*
X158384663Y-81290771D01*
X158384663Y-81290771D02*
X158527520Y-81195533D01*
X158527520Y-81195533D02*
X158622758Y-81100295D01*
X158622758Y-81100295D02*
X158670377Y-81005057D01*
X158384663Y-82481247D02*
X158384663Y-82005057D01*
X158384663Y-82005057D02*
X158860853Y-81957438D01*
X158860853Y-81957438D02*
X158813234Y-82005057D01*
X158813234Y-82005057D02*
X158765615Y-82100295D01*
X158765615Y-82100295D02*
X158765615Y-82338390D01*
X158765615Y-82338390D02*
X158813234Y-82433628D01*
X158813234Y-82433628D02*
X158860853Y-82481247D01*
X158860853Y-82481247D02*
X158956091Y-82528866D01*
X158956091Y-82528866D02*
X159194186Y-82528866D01*
X159194186Y-82528866D02*
X159289424Y-82481247D01*
X159289424Y-82481247D02*
X159337044Y-82433628D01*
X159337044Y-82433628D02*
X159384663Y-82338390D01*
X159384663Y-82338390D02*
X159384663Y-82100295D01*
X159384663Y-82100295D02*
X159337044Y-82005057D01*
X159337044Y-82005057D02*
X159289424Y-81957438D01*
X141318948Y-81100295D02*
X141318948Y-81576485D01*
X141604663Y-81005057D02*
X140604663Y-81338390D01*
X140604663Y-81338390D02*
X141604663Y-81671723D01*
X140604663Y-82433628D02*
X140604663Y-82243152D01*
X140604663Y-82243152D02*
X140652282Y-82147914D01*
X140652282Y-82147914D02*
X140699901Y-82100295D01*
X140699901Y-82100295D02*
X140842758Y-82005057D01*
X140842758Y-82005057D02*
X141033234Y-81957438D01*
X141033234Y-81957438D02*
X141414186Y-81957438D01*
X141414186Y-81957438D02*
X141509424Y-82005057D01*
X141509424Y-82005057D02*
X141557044Y-82052676D01*
X141557044Y-82052676D02*
X141604663Y-82147914D01*
X141604663Y-82147914D02*
X141604663Y-82338390D01*
X141604663Y-82338390D02*
X141557044Y-82433628D01*
X141557044Y-82433628D02*
X141509424Y-82481247D01*
X141509424Y-82481247D02*
X141414186Y-82528866D01*
X141414186Y-82528866D02*
X141176091Y-82528866D01*
X141176091Y-82528866D02*
X141080853Y-82481247D01*
X141080853Y-82481247D02*
X141033234Y-82433628D01*
X141033234Y-82433628D02*
X140985615Y-82338390D01*
X140985615Y-82338390D02*
X140985615Y-82147914D01*
X140985615Y-82147914D02*
X141033234Y-82052676D01*
X141033234Y-82052676D02*
X141080853Y-82005057D01*
X141080853Y-82005057D02*
X141176091Y-81957438D01*
X128380853Y-80386009D02*
X128428472Y-80528866D01*
X128428472Y-80528866D02*
X128476091Y-80576485D01*
X128476091Y-80576485D02*
X128571329Y-80624104D01*
X128571329Y-80624104D02*
X128714186Y-80624104D01*
X128714186Y-80624104D02*
X128809424Y-80576485D01*
X128809424Y-80576485D02*
X128857044Y-80528866D01*
X128857044Y-80528866D02*
X128904663Y-80433628D01*
X128904663Y-80433628D02*
X128904663Y-80052676D01*
X128904663Y-80052676D02*
X127904663Y-80052676D01*
X127904663Y-80052676D02*
X127904663Y-80386009D01*
X127904663Y-80386009D02*
X127952282Y-80481247D01*
X127952282Y-80481247D02*
X127999901Y-80528866D01*
X127999901Y-80528866D02*
X128095139Y-80576485D01*
X128095139Y-80576485D02*
X128190377Y-80576485D01*
X128190377Y-80576485D02*
X128285615Y-80528866D01*
X128285615Y-80528866D02*
X128333234Y-80481247D01*
X128333234Y-80481247D02*
X128380853Y-80386009D01*
X128380853Y-80386009D02*
X128380853Y-80052676D01*
X128904663Y-81576485D02*
X128904663Y-81005057D01*
X128904663Y-81290771D02*
X127904663Y-81290771D01*
X127904663Y-81290771D02*
X128047520Y-81195533D01*
X128047520Y-81195533D02*
X128142758Y-81100295D01*
X128142758Y-81100295D02*
X128190377Y-81005057D01*
X128904663Y-82528866D02*
X128904663Y-81957438D01*
X128904663Y-82243152D02*
X127904663Y-82243152D01*
X127904663Y-82243152D02*
X128047520Y-82147914D01*
X128047520Y-82147914D02*
X128142758Y-82052676D01*
X128142758Y-82052676D02*
X128190377Y-81957438D01*
X166004663Y-79338390D02*
X167004663Y-79671723D01*
X167004663Y-79671723D02*
X166004663Y-80005056D01*
X166480853Y-80671723D02*
X166528472Y-80814580D01*
X166528472Y-80814580D02*
X166576091Y-80862199D01*
X166576091Y-80862199D02*
X166671329Y-80909818D01*
X166671329Y-80909818D02*
X166814186Y-80909818D01*
X166814186Y-80909818D02*
X166909424Y-80862199D01*
X166909424Y-80862199D02*
X166957044Y-80814580D01*
X166957044Y-80814580D02*
X167004663Y-80719342D01*
X167004663Y-80719342D02*
X167004663Y-80338390D01*
X167004663Y-80338390D02*
X166004663Y-80338390D01*
X166004663Y-80338390D02*
X166004663Y-80671723D01*
X166004663Y-80671723D02*
X166052282Y-80766961D01*
X166052282Y-80766961D02*
X166099901Y-80814580D01*
X166099901Y-80814580D02*
X166195139Y-80862199D01*
X166195139Y-80862199D02*
X166290377Y-80862199D01*
X166290377Y-80862199D02*
X166385615Y-80814580D01*
X166385615Y-80814580D02*
X166433234Y-80766961D01*
X166433234Y-80766961D02*
X166480853Y-80671723D01*
X166480853Y-80671723D02*
X166480853Y-80338390D01*
X166718948Y-81290771D02*
X166718948Y-81766961D01*
X167004663Y-81195533D02*
X166004663Y-81528866D01*
X166004663Y-81528866D02*
X167004663Y-81862199D01*
X166004663Y-82052676D02*
X166004663Y-82624104D01*
X167004663Y-82338390D02*
X166004663Y-82338390D01*
X146398948Y-81100295D02*
X146398948Y-81576485D01*
X146684663Y-81005057D02*
X145684663Y-81338390D01*
X145684663Y-81338390D02*
X146684663Y-81671723D01*
X146017996Y-82433628D02*
X146684663Y-82433628D01*
X145637044Y-82195533D02*
X146351329Y-81957438D01*
X146351329Y-81957438D02*
X146351329Y-82576485D01*
%LPC*%
D11*
X173230000Y-79705401D03*
D12*
X175770000Y-79705401D03*
X178310000Y-79705401D03*
X180850000Y-79705401D03*
X183390000Y-79705401D03*
X185930000Y-79705401D03*
X185930000Y-120230000D03*
X183390000Y-120230000D03*
X180850000Y-120230000D03*
X178310000Y-120230000D03*
X175770000Y-120230000D03*
D11*
X173230000Y-120230000D03*
X173230000Y-87325401D03*
D12*
X175770000Y-87325401D03*
X178310000Y-87325401D03*
X180850000Y-87325401D03*
X183390000Y-87325401D03*
X185930000Y-87325401D03*
X185930000Y-112725401D03*
X183390000Y-112725401D03*
X180850000Y-112725401D03*
X178310000Y-112725401D03*
X175770000Y-112725401D03*
D11*
X173230000Y-112725401D03*
D13*
X105000000Y-96250000D03*
X105000000Y-93750000D03*
X105000000Y-91250000D03*
D14*
X105000000Y-88750000D03*
D12*
X166552200Y-89840401D03*
X164012200Y-89840401D03*
X161472200Y-89840401D03*
X158932200Y-89840401D03*
X156392200Y-89840401D03*
X153852200Y-89840401D03*
X151312200Y-89840401D03*
X148772200Y-89840401D03*
X146232200Y-89840401D03*
X143692200Y-89840401D03*
X141152200Y-89840401D03*
X138612200Y-89840401D03*
X136072200Y-89840401D03*
X133532200Y-89840401D03*
X130992200Y-89840401D03*
X128452200Y-89840401D03*
X125912200Y-89840401D03*
X123372200Y-89840401D03*
X120832200Y-89840401D03*
D11*
X118292200Y-89840401D03*
D13*
X105000000Y-111250000D03*
X105000000Y-108750000D03*
X105000000Y-106250000D03*
D14*
X105000000Y-103750000D03*
D15*
X190650000Y-93635000D03*
X185570000Y-93635000D03*
D11*
X190650000Y-96175000D03*
X185570000Y-96175000D03*
D12*
X166552200Y-110160401D03*
X164012200Y-110160401D03*
X161472200Y-110160401D03*
X158932200Y-110160401D03*
X156392200Y-110160401D03*
X153852200Y-110160401D03*
X151312200Y-110160401D03*
X148772200Y-110160401D03*
X146232200Y-110160401D03*
X143692200Y-110160401D03*
X141152200Y-110160401D03*
X138612200Y-110160401D03*
X136072200Y-110160401D03*
X133532200Y-110160401D03*
X130992200Y-110160401D03*
X128452200Y-110160401D03*
X125912200Y-110160401D03*
X123372200Y-110160401D03*
X120832200Y-110160401D03*
D11*
X118292200Y-110160401D03*
D12*
X114675000Y-84760401D03*
D11*
X112135000Y-84760401D03*
D16*
X195000000Y-80000000D03*
D12*
X166552200Y-84760401D03*
X164012200Y-84760401D03*
X161472200Y-84760401D03*
X158932200Y-84760401D03*
X156392200Y-84760401D03*
X153852200Y-84760401D03*
X151312200Y-84760401D03*
X148772200Y-84760401D03*
X146232200Y-84760401D03*
X143692200Y-84760401D03*
X141152200Y-84760401D03*
X138612200Y-84760401D03*
X136072200Y-84760401D03*
X133532200Y-84760401D03*
X130992200Y-84760401D03*
X128452200Y-84760401D03*
X125912200Y-84760401D03*
X123372200Y-84760401D03*
X120832200Y-84760401D03*
D11*
X118292200Y-84760401D03*
D16*
X105000000Y-120000000D03*
D15*
X190650000Y-101285000D03*
X185570000Y-101285000D03*
D11*
X190650000Y-103825000D03*
X185570000Y-103825000D03*
D16*
X195000000Y-120000000D03*
X105000000Y-80000000D03*
D12*
X166552200Y-115240401D03*
X164012200Y-115240401D03*
X161472200Y-115240401D03*
X158932200Y-115240401D03*
X156392200Y-115240401D03*
X153852200Y-115240401D03*
X151312200Y-115240401D03*
X148772200Y-115240401D03*
X146232200Y-115240401D03*
X143692200Y-115240401D03*
X141152200Y-115240401D03*
X138612200Y-115240401D03*
X136072200Y-115240401D03*
X133532200Y-115240401D03*
X130992200Y-115240401D03*
X128452200Y-115240401D03*
X125912200Y-115240401D03*
X123372200Y-115240401D03*
X120832200Y-115240401D03*
D11*
X118292200Y-115240401D03*
%LPD*%
M02*
