G04 #@! TF.GenerationSoftware,KiCad,Pcbnew,7.0.5*
G04 #@! TF.CreationDate,2023-06-29T23:29:45-06:00*
G04 #@! TF.ProjectId,speedy-breakout,73706565-6479-42d6-9272-65616b6f7574,1.0*
G04 #@! TF.SameCoordinates,Original*
G04 #@! TF.FileFunction,Copper,L1,Top*
G04 #@! TF.FilePolarity,Positive*
%FSLAX46Y46*%
G04 Gerber Fmt 4.6, Leading zero omitted, Abs format (unit mm)*
G04 Created by KiCad (PCBNEW 7.0.5) date 2023-06-29 23:29:45*
%MOMM*%
%LPD*%
G01*
G04 APERTURE LIST*
G04 Aperture macros list*
%AMRoundRect*
0 Rectangle with rounded corners*
0 $1 Rounding radius*
0 $2 $3 $4 $5 $6 $7 $8 $9 X,Y pos of 4 corners*
0 Add a 4 corners polygon primitive as box body*
4,1,4,$2,$3,$4,$5,$6,$7,$8,$9,$2,$3,0*
0 Add four circle primitives for the rounded corners*
1,1,$1+$1,$2,$3*
1,1,$1+$1,$4,$5*
1,1,$1+$1,$6,$7*
1,1,$1+$1,$8,$9*
0 Add four rect primitives between the rounded corners*
20,1,$1+$1,$2,$3,$4,$5,0*
20,1,$1+$1,$4,$5,$6,$7,0*
20,1,$1+$1,$6,$7,$8,$9,0*
20,1,$1+$1,$8,$9,$2,$3,0*%
G04 Aperture macros list end*
G04 #@! TA.AperFunction,ComponentPad*
%ADD10R,1.700000X1.700000*%
G04 #@! TD*
G04 #@! TA.AperFunction,ComponentPad*
%ADD11O,1.700000X1.700000*%
G04 #@! TD*
G04 #@! TA.AperFunction,ComponentPad*
%ADD12O,1.950000X1.700000*%
G04 #@! TD*
G04 #@! TA.AperFunction,ComponentPad*
%ADD13RoundRect,0.250000X-0.725000X0.600000X-0.725000X-0.600000X0.725000X-0.600000X0.725000X0.600000X0*%
G04 #@! TD*
G04 #@! TA.AperFunction,ComponentPad*
%ADD14C,1.700000*%
G04 #@! TD*
G04 #@! TA.AperFunction,ComponentPad*
%ADD15C,5.600000*%
G04 #@! TD*
G04 #@! TA.AperFunction,SMDPad,CuDef*
%ADD16RoundRect,0.250000X1.000000X0.650000X-1.000000X0.650000X-1.000000X-0.650000X1.000000X-0.650000X0*%
G04 #@! TD*
G04 #@! TA.AperFunction,SMDPad,CuDef*
%ADD17RoundRect,0.250000X-0.350000X-0.450000X0.350000X-0.450000X0.350000X0.450000X-0.350000X0.450000X0*%
G04 #@! TD*
G04 #@! TA.AperFunction,Conductor*
%ADD18C,0.500000*%
G04 #@! TD*
G04 #@! TA.AperFunction,Conductor*
%ADD19C,0.250000*%
G04 #@! TD*
G04 #@! TA.AperFunction,Conductor*
%ADD20C,1.000000*%
G04 #@! TD*
G04 APERTURE END LIST*
D10*
X173230000Y-79705401D03*
D11*
X175770000Y-79705401D03*
X178310000Y-79705401D03*
X180850000Y-79705401D03*
X183390000Y-79705401D03*
X185930000Y-79705401D03*
X185930000Y-120230000D03*
X183390000Y-120230000D03*
X180850000Y-120230000D03*
X178310000Y-120230000D03*
X175770000Y-120230000D03*
D10*
X173230000Y-120230000D03*
X173230000Y-87325401D03*
D11*
X175770000Y-87325401D03*
X178310000Y-87325401D03*
X180850000Y-87325401D03*
X183390000Y-87325401D03*
X185930000Y-87325401D03*
X185930000Y-112725401D03*
X183390000Y-112725401D03*
X180850000Y-112725401D03*
X178310000Y-112725401D03*
X175770000Y-112725401D03*
D10*
X173230000Y-112725401D03*
D12*
X105000000Y-96250000D03*
X105000000Y-93750000D03*
X105000000Y-91250000D03*
D13*
X105000000Y-88750000D03*
D11*
X166552200Y-89840401D03*
X164012200Y-89840401D03*
X161472200Y-89840401D03*
X158932200Y-89840401D03*
X156392200Y-89840401D03*
X153852200Y-89840401D03*
X151312200Y-89840401D03*
X148772200Y-89840401D03*
X146232200Y-89840401D03*
X143692200Y-89840401D03*
X141152200Y-89840401D03*
X138612200Y-89840401D03*
X136072200Y-89840401D03*
X133532200Y-89840401D03*
X130992200Y-89840401D03*
X128452200Y-89840401D03*
X125912200Y-89840401D03*
X123372200Y-89840401D03*
X120832200Y-89840401D03*
D10*
X118292200Y-89840401D03*
D12*
X105000000Y-111250000D03*
X105000000Y-108750000D03*
X105000000Y-106250000D03*
D13*
X105000000Y-103750000D03*
D14*
X190650000Y-93635000D03*
X185570000Y-93635000D03*
D10*
X190650000Y-96175000D03*
X185570000Y-96175000D03*
D11*
X166552200Y-110160401D03*
X164012200Y-110160401D03*
X161472200Y-110160401D03*
X158932200Y-110160401D03*
X156392200Y-110160401D03*
X153852200Y-110160401D03*
X151312200Y-110160401D03*
X148772200Y-110160401D03*
X146232200Y-110160401D03*
X143692200Y-110160401D03*
X141152200Y-110160401D03*
X138612200Y-110160401D03*
X136072200Y-110160401D03*
X133532200Y-110160401D03*
X130992200Y-110160401D03*
X128452200Y-110160401D03*
X125912200Y-110160401D03*
X123372200Y-110160401D03*
X120832200Y-110160401D03*
D10*
X118292200Y-110160401D03*
D11*
X114675000Y-84760401D03*
D10*
X112135000Y-84760401D03*
D15*
X195000000Y-80000000D03*
D11*
X166552200Y-84760401D03*
X164012200Y-84760401D03*
X161472200Y-84760401D03*
X158932200Y-84760401D03*
X156392200Y-84760401D03*
X153852200Y-84760401D03*
X151312200Y-84760401D03*
X148772200Y-84760401D03*
X146232200Y-84760401D03*
X143692200Y-84760401D03*
X141152200Y-84760401D03*
X138612200Y-84760401D03*
X136072200Y-84760401D03*
X133532200Y-84760401D03*
X130992200Y-84760401D03*
X128452200Y-84760401D03*
X125912200Y-84760401D03*
X123372200Y-84760401D03*
X120832200Y-84760401D03*
D10*
X118292200Y-84760401D03*
D15*
X105000000Y-120000000D03*
D16*
X112577500Y-103750000D03*
X116577500Y-103750000D03*
D14*
X190650000Y-101285000D03*
X185570000Y-101285000D03*
D10*
X190650000Y-103825000D03*
X185570000Y-103825000D03*
D15*
X195000000Y-120000000D03*
X105000000Y-80000000D03*
D17*
X113450000Y-93750000D03*
X111450000Y-93750000D03*
D11*
X166552200Y-115240401D03*
X164012200Y-115240401D03*
X161472200Y-115240401D03*
X158932200Y-115240401D03*
X156392200Y-115240401D03*
X153852200Y-115240401D03*
X151312200Y-115240401D03*
X148772200Y-115240401D03*
X146232200Y-115240401D03*
X143692200Y-115240401D03*
X141152200Y-115240401D03*
X138612200Y-115240401D03*
X136072200Y-115240401D03*
X133532200Y-115240401D03*
X130992200Y-115240401D03*
X128452200Y-115240401D03*
X125912200Y-115240401D03*
X123372200Y-115240401D03*
X120832200Y-115240401D03*
D10*
X118292200Y-115240401D03*
D18*
X183390000Y-79705401D02*
X183390000Y-87325401D01*
X180850000Y-79705401D02*
X180850000Y-87325401D01*
X178310000Y-79705401D02*
X178310000Y-87325401D01*
X175770000Y-79705401D02*
X175770000Y-87325401D01*
X173230000Y-79705401D02*
X173230000Y-87325401D01*
X183390000Y-120230000D02*
X183390000Y-112725401D01*
X180850000Y-120230000D02*
X180850000Y-112725401D01*
X178310000Y-120230000D02*
X178310000Y-112725401D01*
X175770000Y-120230000D02*
X175770000Y-112725401D01*
X173230000Y-120230000D02*
X173230000Y-112725401D01*
D19*
X118292200Y-115240401D02*
X118292200Y-110160401D01*
X120832200Y-110160401D02*
X120832200Y-115240401D01*
X123372200Y-115240401D02*
X123372200Y-110160401D01*
X125912200Y-110160401D02*
X125912200Y-115240401D01*
X128452200Y-115240401D02*
X128452200Y-110160401D01*
X130992200Y-110160401D02*
X130992200Y-115240401D01*
X133532200Y-110160401D02*
X133532200Y-115240401D01*
X136072200Y-115240401D02*
X136072200Y-110160401D01*
X108450000Y-106880000D02*
X106580000Y-108750000D01*
X111450000Y-93750000D02*
X111450000Y-95180000D01*
X111450000Y-93750000D02*
X105000000Y-93750000D01*
X108450000Y-98180000D02*
X108450000Y-106880000D01*
X111450000Y-95180000D02*
X108450000Y-98180000D01*
X106580000Y-108750000D02*
X105000000Y-108750000D01*
X105000000Y-91250000D02*
X110470000Y-91250000D01*
X110470000Y-91250000D02*
X112150000Y-89570000D01*
X112150000Y-89570000D02*
X112150000Y-84760401D01*
X138612200Y-110160401D02*
X138612200Y-115240401D01*
X141152200Y-115240401D02*
X141152200Y-110160401D01*
X143692200Y-110160401D02*
X143692200Y-115240401D01*
X146232200Y-115240401D02*
X146232200Y-110160401D01*
X148772200Y-110160401D02*
X148772200Y-115240401D01*
X151312200Y-115240401D02*
X151312200Y-110160401D01*
X153852200Y-110160401D02*
X153852200Y-115240401D01*
X156392200Y-115240401D02*
X156392200Y-110160401D01*
X158932200Y-110160401D02*
X158932200Y-115240401D01*
D20*
X116577500Y-103750000D02*
X155061799Y-103750000D01*
X161472200Y-115240401D02*
X161472200Y-110160401D01*
X155061799Y-103750000D02*
X161472200Y-110160401D01*
D19*
X125912200Y-89840401D02*
X125912200Y-84760401D01*
X128452200Y-89840401D02*
X128452200Y-84760401D01*
X130992200Y-84760401D02*
X130992200Y-89840401D01*
X133532200Y-89840401D02*
X133532200Y-84760401D01*
X136072200Y-84760401D02*
X136072200Y-89840401D01*
X138612200Y-89840401D02*
X138612200Y-84760401D01*
X141152200Y-84760401D02*
X141152200Y-89840401D01*
X143692200Y-89840401D02*
X143692200Y-84760401D01*
X146232200Y-84760401D02*
X146232200Y-89840401D01*
X162756799Y-103825000D02*
X148772200Y-89840401D01*
X148772200Y-84760401D02*
X148772200Y-89840401D01*
X185570000Y-103825000D02*
X162756799Y-103825000D01*
X190650000Y-103825000D02*
X185570000Y-103825000D01*
X151312200Y-89840401D02*
X151312200Y-84760401D01*
X185570000Y-101285000D02*
X162756799Y-101285000D01*
X162756799Y-101285000D02*
X151312200Y-89840401D01*
X190650000Y-101285000D02*
X185570000Y-101285000D01*
X185570000Y-96175000D02*
X160186799Y-96175000D01*
X160186799Y-96175000D02*
X153852200Y-89840401D01*
X190650000Y-96175000D02*
X185570000Y-96175000D01*
X153852200Y-89840401D02*
X153852200Y-84760401D01*
X185570000Y-93635000D02*
X160186799Y-93635000D01*
X156392200Y-84760401D02*
X156392200Y-89840401D01*
X160186799Y-93635000D02*
X156392200Y-89840401D01*
X190650000Y-93635000D02*
X185570000Y-93635000D01*
X164012200Y-89840401D02*
X164012200Y-84760401D01*
X166552200Y-89840401D02*
X166552200Y-84760401D01*
X158932200Y-84760401D02*
X158932200Y-89840401D01*
X161472200Y-89840401D02*
X161472200Y-84760401D01*
X114675000Y-84760401D02*
X114675000Y-92205000D01*
X113450000Y-93430000D02*
X113450000Y-93750000D01*
X114675000Y-92205000D02*
X113450000Y-93430000D01*
G04 #@! TA.AperFunction,Conductor*
G36*
X110810571Y-85893787D02*
G01*
X110877496Y-85913851D01*
X110909132Y-85943473D01*
X110927450Y-85967943D01*
X110927452Y-85967945D01*
X110927454Y-85967947D01*
X110956095Y-85989388D01*
X111042664Y-86054194D01*
X111042671Y-86054198D01*
X111087618Y-86070961D01*
X111177517Y-86104492D01*
X111237127Y-86110901D01*
X111400500Y-86110900D01*
X111467539Y-86130584D01*
X111513294Y-86183388D01*
X111524500Y-86234900D01*
X111524500Y-89259546D01*
X111504815Y-89326585D01*
X111488181Y-89347227D01*
X110247228Y-90588181D01*
X110185905Y-90621666D01*
X110159547Y-90624500D01*
X106400227Y-90624500D01*
X106333188Y-90604815D01*
X106298652Y-90571623D01*
X106163494Y-90378597D01*
X106015932Y-90231035D01*
X105982447Y-90169712D01*
X105987431Y-90100020D01*
X106029303Y-90044087D01*
X106038516Y-90037815D01*
X106193345Y-89942315D01*
X106317315Y-89818345D01*
X106409356Y-89669124D01*
X106409358Y-89669119D01*
X106464505Y-89502697D01*
X106464506Y-89502690D01*
X106474999Y-89399986D01*
X106475000Y-89399973D01*
X106475000Y-89000000D01*
X105403969Y-89000000D01*
X105436519Y-88949351D01*
X105475000Y-88818295D01*
X105475000Y-88681705D01*
X105436519Y-88550649D01*
X105403969Y-88500000D01*
X106474999Y-88500000D01*
X106474999Y-88100028D01*
X106474998Y-88100013D01*
X106464505Y-87997302D01*
X106409358Y-87830880D01*
X106409356Y-87830875D01*
X106317315Y-87681654D01*
X106193345Y-87557684D01*
X106044124Y-87465643D01*
X106044119Y-87465641D01*
X105877697Y-87410494D01*
X105877690Y-87410493D01*
X105774986Y-87400000D01*
X105250000Y-87400000D01*
X105249999Y-88341981D01*
X105135199Y-88289554D01*
X105033975Y-88275000D01*
X104966025Y-88275000D01*
X104864801Y-88289554D01*
X104750000Y-88341981D01*
X104750000Y-87400000D01*
X104225028Y-87400000D01*
X104225012Y-87400001D01*
X104122302Y-87410494D01*
X103955880Y-87465641D01*
X103955875Y-87465643D01*
X103806654Y-87557684D01*
X103682684Y-87681654D01*
X103590643Y-87830875D01*
X103590641Y-87830880D01*
X103535494Y-87997302D01*
X103535493Y-87997309D01*
X103525000Y-88100013D01*
X103525000Y-88500000D01*
X104596031Y-88500000D01*
X104563481Y-88550649D01*
X104525000Y-88681705D01*
X104525000Y-88818295D01*
X104563481Y-88949351D01*
X104596031Y-89000000D01*
X103525001Y-89000000D01*
X103525001Y-89399986D01*
X103535494Y-89502697D01*
X103590641Y-89669119D01*
X103590643Y-89669124D01*
X103682684Y-89818345D01*
X103806654Y-89942315D01*
X103961484Y-90037815D01*
X104008208Y-90089763D01*
X104019431Y-90158726D01*
X103991587Y-90222808D01*
X103984069Y-90231035D01*
X103836501Y-90378603D01*
X103836501Y-90378604D01*
X103700967Y-90572165D01*
X103700965Y-90572169D01*
X103601098Y-90786335D01*
X103601094Y-90786344D01*
X103539938Y-91014586D01*
X103539936Y-91014596D01*
X103519341Y-91249999D01*
X103519341Y-91250000D01*
X103539936Y-91485403D01*
X103539938Y-91485413D01*
X103601094Y-91713655D01*
X103601096Y-91713659D01*
X103601097Y-91713663D01*
X103629745Y-91775098D01*
X103700964Y-91927828D01*
X103700965Y-91927830D01*
X103836505Y-92121402D01*
X104003597Y-92288494D01*
X104160595Y-92398425D01*
X104204220Y-92453002D01*
X104211414Y-92522500D01*
X104179891Y-92584855D01*
X104160595Y-92601575D01*
X104003597Y-92711505D01*
X103836506Y-92878597D01*
X103836501Y-92878604D01*
X103700967Y-93072165D01*
X103700965Y-93072169D01*
X103601098Y-93286335D01*
X103601094Y-93286344D01*
X103539938Y-93514586D01*
X103539936Y-93514596D01*
X103519341Y-93749999D01*
X103519341Y-93750000D01*
X103539936Y-93985403D01*
X103539938Y-93985413D01*
X103601094Y-94213655D01*
X103601096Y-94213659D01*
X103601097Y-94213663D01*
X103618046Y-94250009D01*
X103700964Y-94427828D01*
X103700965Y-94427830D01*
X103836505Y-94621402D01*
X104003597Y-94788494D01*
X104160595Y-94898425D01*
X104204220Y-94953002D01*
X104211414Y-95022500D01*
X104179891Y-95084855D01*
X104160595Y-95101575D01*
X104003597Y-95211505D01*
X103836506Y-95378597D01*
X103836501Y-95378604D01*
X103700967Y-95572165D01*
X103700965Y-95572169D01*
X103601098Y-95786335D01*
X103601094Y-95786344D01*
X103539938Y-96014586D01*
X103539936Y-96014596D01*
X103519341Y-96249999D01*
X103519341Y-96250000D01*
X103539936Y-96485403D01*
X103539938Y-96485413D01*
X103601094Y-96713655D01*
X103601096Y-96713659D01*
X103601097Y-96713663D01*
X103651031Y-96820746D01*
X103700964Y-96927828D01*
X103700965Y-96927830D01*
X103836505Y-97121402D01*
X104003597Y-97288494D01*
X104197169Y-97424034D01*
X104197171Y-97424035D01*
X104411337Y-97523903D01*
X104639592Y-97585063D01*
X104816032Y-97600499D01*
X104816033Y-97600500D01*
X104816034Y-97600500D01*
X105183967Y-97600500D01*
X105183967Y-97600499D01*
X105360408Y-97585063D01*
X105588663Y-97523903D01*
X105802829Y-97424035D01*
X105996401Y-97288495D01*
X106163495Y-97121401D01*
X106299035Y-96927830D01*
X106398903Y-96713663D01*
X106460063Y-96485408D01*
X106480659Y-96250000D01*
X106460063Y-96014592D01*
X106398903Y-95786337D01*
X106299035Y-95572171D01*
X106299034Y-95572169D01*
X106163494Y-95378597D01*
X105996403Y-95211506D01*
X105905113Y-95147585D01*
X105839401Y-95101573D01*
X105795778Y-95046999D01*
X105788584Y-94977500D01*
X105820106Y-94915145D01*
X105839398Y-94898428D01*
X105996401Y-94788495D01*
X106163495Y-94621401D01*
X106298651Y-94428377D01*
X106353229Y-94384752D01*
X106400227Y-94375500D01*
X110277983Y-94375500D01*
X110345022Y-94395185D01*
X110390777Y-94447989D01*
X110395686Y-94460489D01*
X110415186Y-94519334D01*
X110507288Y-94668656D01*
X110631344Y-94792712D01*
X110696626Y-94832978D01*
X110743351Y-94884926D01*
X110754572Y-94953889D01*
X110726729Y-95017971D01*
X110719210Y-95026198D01*
X108066208Y-97679199D01*
X108053951Y-97689020D01*
X108054134Y-97689241D01*
X108048122Y-97694214D01*
X108001432Y-97743932D01*
X108000079Y-97745329D01*
X107979889Y-97765519D01*
X107979877Y-97765532D01*
X107975621Y-97771017D01*
X107971837Y-97775447D01*
X107939937Y-97809418D01*
X107939936Y-97809420D01*
X107930284Y-97826976D01*
X107919610Y-97843226D01*
X107907329Y-97859061D01*
X107907324Y-97859068D01*
X107888815Y-97901838D01*
X107886245Y-97907084D01*
X107863803Y-97947906D01*
X107858822Y-97967307D01*
X107852521Y-97985710D01*
X107844562Y-98004102D01*
X107844561Y-98004105D01*
X107837271Y-98050127D01*
X107836087Y-98055846D01*
X107824501Y-98100972D01*
X107824500Y-98100982D01*
X107824500Y-98121016D01*
X107822973Y-98140415D01*
X107819840Y-98160194D01*
X107819840Y-98160195D01*
X107824225Y-98206583D01*
X107824500Y-98212421D01*
X107824499Y-106569546D01*
X107804814Y-106636585D01*
X107788180Y-106657227D01*
X106434088Y-108011319D01*
X106372765Y-108044804D01*
X106303073Y-108039820D01*
X106247140Y-107997948D01*
X106244832Y-107994761D01*
X106163493Y-107878596D01*
X105996403Y-107711506D01*
X105940187Y-107672144D01*
X105839401Y-107601573D01*
X105795778Y-107546999D01*
X105788584Y-107477500D01*
X105820106Y-107415145D01*
X105839398Y-107398428D01*
X105996401Y-107288495D01*
X106163495Y-107121401D01*
X106299035Y-106927830D01*
X106398903Y-106713663D01*
X106460063Y-106485408D01*
X106480659Y-106250000D01*
X106460063Y-106014592D01*
X106398903Y-105786337D01*
X106299035Y-105572171D01*
X106299034Y-105572169D01*
X106163494Y-105378597D01*
X106015932Y-105231035D01*
X105982447Y-105169712D01*
X105987431Y-105100020D01*
X106029303Y-105044087D01*
X106038516Y-105037815D01*
X106193345Y-104942315D01*
X106317315Y-104818345D01*
X106409356Y-104669124D01*
X106409358Y-104669119D01*
X106464505Y-104502697D01*
X106464506Y-104502690D01*
X106474999Y-104399986D01*
X106475000Y-104399973D01*
X106475000Y-104000000D01*
X105403969Y-104000000D01*
X105436519Y-103949351D01*
X105475000Y-103818295D01*
X105475000Y-103681705D01*
X105436519Y-103550649D01*
X105403969Y-103500000D01*
X106474999Y-103500000D01*
X106474999Y-103100028D01*
X106474998Y-103100013D01*
X106464505Y-102997302D01*
X106409358Y-102830880D01*
X106409356Y-102830875D01*
X106317315Y-102681654D01*
X106193345Y-102557684D01*
X106044124Y-102465643D01*
X106044119Y-102465641D01*
X105877697Y-102410494D01*
X105877690Y-102410493D01*
X105774986Y-102400000D01*
X105250000Y-102400000D01*
X105249999Y-103341981D01*
X105135199Y-103289554D01*
X105033975Y-103275000D01*
X104966025Y-103275000D01*
X104864801Y-103289554D01*
X104750000Y-103341981D01*
X104750000Y-102400000D01*
X104225028Y-102400000D01*
X104225012Y-102400001D01*
X104122302Y-102410494D01*
X103955880Y-102465641D01*
X103955875Y-102465643D01*
X103806654Y-102557684D01*
X103682684Y-102681654D01*
X103590643Y-102830875D01*
X103590641Y-102830880D01*
X103535494Y-102997302D01*
X103535493Y-102997309D01*
X103525000Y-103100013D01*
X103525000Y-103500000D01*
X104596031Y-103500000D01*
X104563481Y-103550649D01*
X104525000Y-103681705D01*
X104525000Y-103818295D01*
X104563481Y-103949351D01*
X104596031Y-104000000D01*
X103525001Y-104000000D01*
X103525001Y-104399986D01*
X103535494Y-104502697D01*
X103590641Y-104669119D01*
X103590643Y-104669124D01*
X103682684Y-104818345D01*
X103806654Y-104942315D01*
X103961484Y-105037815D01*
X104008208Y-105089763D01*
X104019431Y-105158726D01*
X103991587Y-105222808D01*
X103984069Y-105231035D01*
X103836501Y-105378603D01*
X103836501Y-105378604D01*
X103700967Y-105572165D01*
X103700965Y-105572169D01*
X103601098Y-105786335D01*
X103601094Y-105786344D01*
X103539938Y-106014586D01*
X103539936Y-106014596D01*
X103519341Y-106249999D01*
X103519341Y-106250000D01*
X103539936Y-106485403D01*
X103539938Y-106485413D01*
X103601094Y-106713655D01*
X103601096Y-106713659D01*
X103601097Y-106713663D01*
X103651031Y-106820746D01*
X103700964Y-106927828D01*
X103700965Y-106927830D01*
X103836505Y-107121402D01*
X104003597Y-107288494D01*
X104160595Y-107398425D01*
X104204220Y-107453002D01*
X104211414Y-107522500D01*
X104179891Y-107584855D01*
X104160595Y-107601575D01*
X104003597Y-107711505D01*
X103836506Y-107878597D01*
X103836501Y-107878604D01*
X103700967Y-108072165D01*
X103700965Y-108072169D01*
X103601098Y-108286335D01*
X103601094Y-108286344D01*
X103539938Y-108514586D01*
X103539936Y-108514596D01*
X103519341Y-108749999D01*
X103519341Y-108750000D01*
X103539936Y-108985403D01*
X103539938Y-108985413D01*
X103601094Y-109213655D01*
X103601096Y-109213659D01*
X103601097Y-109213663D01*
X103629745Y-109275098D01*
X103700964Y-109427828D01*
X103700965Y-109427830D01*
X103836505Y-109621402D01*
X104003596Y-109788493D01*
X104160595Y-109898424D01*
X104204220Y-109953000D01*
X104211414Y-110022499D01*
X104179891Y-110084854D01*
X104160596Y-110101574D01*
X104003594Y-110211508D01*
X103836506Y-110378597D01*
X103836501Y-110378604D01*
X103700967Y-110572165D01*
X103700965Y-110572169D01*
X103601098Y-110786335D01*
X103601094Y-110786344D01*
X103539938Y-111014586D01*
X103539936Y-111014596D01*
X103519341Y-111249999D01*
X103519341Y-111250000D01*
X103539936Y-111485403D01*
X103539938Y-111485413D01*
X103601094Y-111713655D01*
X103601096Y-111713659D01*
X103601097Y-111713663D01*
X103651031Y-111820746D01*
X103700964Y-111927828D01*
X103700965Y-111927830D01*
X103836505Y-112121402D01*
X104003597Y-112288494D01*
X104197169Y-112424034D01*
X104197171Y-112424035D01*
X104411337Y-112523903D01*
X104639592Y-112585063D01*
X104816032Y-112600499D01*
X104816033Y-112600500D01*
X104816034Y-112600500D01*
X105183967Y-112600500D01*
X105183967Y-112600499D01*
X105360408Y-112585063D01*
X105588663Y-112523903D01*
X105802829Y-112424035D01*
X105996401Y-112288495D01*
X106163495Y-112121401D01*
X106299035Y-111927830D01*
X106398903Y-111713663D01*
X106460063Y-111485408D01*
X106480659Y-111250000D01*
X106460063Y-111014592D01*
X106398903Y-110786337D01*
X106299035Y-110572171D01*
X106299034Y-110572169D01*
X106163494Y-110378597D01*
X105996403Y-110211506D01*
X105940187Y-110172144D01*
X105839401Y-110101573D01*
X105795778Y-110046999D01*
X105788584Y-109977500D01*
X105820106Y-109915145D01*
X105839398Y-109898428D01*
X105996401Y-109788495D01*
X106163495Y-109621401D01*
X106298651Y-109428377D01*
X106353229Y-109384752D01*
X106400227Y-109375500D01*
X106497257Y-109375500D01*
X106512877Y-109377224D01*
X106512904Y-109376939D01*
X106520666Y-109377673D01*
X106520666Y-109377672D01*
X106520667Y-109377673D01*
X106523999Y-109377568D01*
X106588847Y-109375531D01*
X106590794Y-109375500D01*
X106619347Y-109375500D01*
X106619350Y-109375500D01*
X106626228Y-109374630D01*
X106632041Y-109374172D01*
X106678627Y-109372709D01*
X106697869Y-109367117D01*
X106716912Y-109363174D01*
X106736792Y-109360664D01*
X106780122Y-109343507D01*
X106785646Y-109341617D01*
X106789396Y-109340527D01*
X106830390Y-109328618D01*
X106847629Y-109318422D01*
X106865103Y-109309862D01*
X106883727Y-109302488D01*
X106883727Y-109302487D01*
X106883732Y-109302486D01*
X106921449Y-109275082D01*
X106926305Y-109271892D01*
X106966420Y-109248170D01*
X106980589Y-109233999D01*
X106995379Y-109221368D01*
X107011587Y-109209594D01*
X107041299Y-109173676D01*
X107045212Y-109169376D01*
X108833787Y-107380801D01*
X108846042Y-107370986D01*
X108845859Y-107370764D01*
X108851868Y-107365791D01*
X108851877Y-107365786D01*
X108898607Y-107316022D01*
X108899846Y-107314743D01*
X108920120Y-107294471D01*
X108924379Y-107288978D01*
X108928152Y-107284561D01*
X108960062Y-107250582D01*
X108969713Y-107233024D01*
X108980396Y-107216761D01*
X108992673Y-107200936D01*
X109011185Y-107158153D01*
X109013738Y-107152941D01*
X109036197Y-107112092D01*
X109041180Y-107092680D01*
X109047481Y-107074280D01*
X109055437Y-107055896D01*
X109062729Y-107009852D01*
X109063906Y-107004171D01*
X109075500Y-106959019D01*
X109075500Y-106938982D01*
X109077027Y-106919582D01*
X109080160Y-106899804D01*
X109075775Y-106853415D01*
X109075500Y-106847577D01*
X109075500Y-104000000D01*
X110827501Y-104000000D01*
X110827501Y-104449986D01*
X110837994Y-104552697D01*
X110893141Y-104719119D01*
X110893143Y-104719124D01*
X110985184Y-104868345D01*
X111109154Y-104992315D01*
X111258375Y-105084356D01*
X111258380Y-105084358D01*
X111424802Y-105139505D01*
X111424809Y-105139506D01*
X111527519Y-105149999D01*
X112327499Y-105149999D01*
X112327500Y-105149998D01*
X112327500Y-104000000D01*
X110827501Y-104000000D01*
X109075500Y-104000000D01*
X109075500Y-103500000D01*
X110827500Y-103500000D01*
X112327500Y-103500000D01*
X112327500Y-102350000D01*
X111527528Y-102350000D01*
X111527512Y-102350001D01*
X111424802Y-102360494D01*
X111258380Y-102415641D01*
X111258375Y-102415643D01*
X111109154Y-102507684D01*
X110985184Y-102631654D01*
X110893143Y-102780875D01*
X110893141Y-102780880D01*
X110837994Y-102947302D01*
X110837993Y-102947309D01*
X110827500Y-103050013D01*
X110827500Y-103500000D01*
X109075500Y-103500000D01*
X109075500Y-98490451D01*
X109095185Y-98423412D01*
X109111814Y-98402775D01*
X111833786Y-95680802D01*
X111846048Y-95670980D01*
X111845865Y-95670759D01*
X111851873Y-95665788D01*
X111851877Y-95665786D01*
X111898649Y-95615977D01*
X111899891Y-95614697D01*
X111920120Y-95594470D01*
X111924373Y-95588986D01*
X111928150Y-95584563D01*
X111960062Y-95550582D01*
X111969714Y-95533023D01*
X111980389Y-95516772D01*
X111992674Y-95500936D01*
X112011186Y-95458152D01*
X112013742Y-95452935D01*
X112036197Y-95412092D01*
X112041180Y-95392680D01*
X112047477Y-95374291D01*
X112055438Y-95355895D01*
X112062729Y-95309853D01*
X112063908Y-95304162D01*
X112075500Y-95259019D01*
X112075500Y-95238982D01*
X112077027Y-95219583D01*
X112080160Y-95199804D01*
X112075775Y-95153425D01*
X112075499Y-95147585D01*
X112075499Y-95026198D01*
X112075499Y-94981055D01*
X112095184Y-94914019D01*
X112134401Y-94875520D01*
X112268656Y-94792712D01*
X112362318Y-94699049D01*
X112423642Y-94665564D01*
X112493334Y-94670548D01*
X112537680Y-94699048D01*
X112631344Y-94792712D01*
X112780666Y-94884814D01*
X112947203Y-94939999D01*
X113049991Y-94950500D01*
X113546001Y-94950499D01*
X113613039Y-94970183D01*
X113658794Y-95022987D01*
X113670000Y-95074499D01*
X113670000Y-102226000D01*
X113650315Y-102293039D01*
X113597511Y-102338794D01*
X113546000Y-102350000D01*
X112827500Y-102350000D01*
X112827500Y-105149999D01*
X113545999Y-105149999D01*
X113613038Y-105169684D01*
X113658793Y-105222488D01*
X113669999Y-105273999D01*
X113670000Y-113866000D01*
X113650315Y-113933039D01*
X113597511Y-113978794D01*
X113546000Y-113990000D01*
X100424500Y-113990000D01*
X100357461Y-113970315D01*
X100311706Y-113917511D01*
X100300500Y-113866000D01*
X100300500Y-85958902D01*
X100320185Y-85891863D01*
X100372989Y-85846108D01*
X100425199Y-85834904D01*
X110810571Y-85893787D01*
G37*
G04 #@! TD.AperFunction*
G04 #@! TA.AperFunction,Conductor*
G36*
X199642539Y-75320185D02*
G01*
X199688294Y-75372989D01*
X199699500Y-75424500D01*
X199699500Y-124575500D01*
X199679815Y-124642539D01*
X199627011Y-124688294D01*
X199575500Y-124699500D01*
X100424500Y-124699500D01*
X100357461Y-124679815D01*
X100311706Y-124627011D01*
X100300500Y-124575500D01*
X100300500Y-120000002D01*
X101694652Y-120000002D01*
X101714028Y-120357368D01*
X101714029Y-120357385D01*
X101771926Y-120710539D01*
X101771932Y-120710565D01*
X101867672Y-121055392D01*
X101867674Y-121055399D01*
X102000142Y-121387870D01*
X102000151Y-121387888D01*
X102167784Y-121704077D01*
X102167790Y-121704086D01*
X102368634Y-122000309D01*
X102368641Y-122000319D01*
X102600331Y-122273085D01*
X102600332Y-122273086D01*
X102860163Y-122519211D01*
X103145081Y-122735800D01*
X103451747Y-122920315D01*
X103451749Y-122920316D01*
X103451751Y-122920317D01*
X103451755Y-122920319D01*
X103776552Y-123070585D01*
X103776565Y-123070591D01*
X104115726Y-123184868D01*
X104465254Y-123261805D01*
X104821052Y-123300500D01*
X104821058Y-123300500D01*
X105178942Y-123300500D01*
X105178948Y-123300500D01*
X105534746Y-123261805D01*
X105884274Y-123184868D01*
X106223435Y-123070591D01*
X106548253Y-122920315D01*
X106854919Y-122735800D01*
X107139837Y-122519211D01*
X107399668Y-122273086D01*
X107631365Y-122000311D01*
X107832211Y-121704085D01*
X107999853Y-121387880D01*
X108103450Y-121127870D01*
X171879500Y-121127870D01*
X171879501Y-121127876D01*
X171885908Y-121187483D01*
X171936202Y-121322328D01*
X171936206Y-121322335D01*
X172022452Y-121437544D01*
X172022455Y-121437547D01*
X172137664Y-121523793D01*
X172137671Y-121523797D01*
X172272517Y-121574091D01*
X172272516Y-121574091D01*
X172279444Y-121574835D01*
X172332127Y-121580500D01*
X174127872Y-121580499D01*
X174187483Y-121574091D01*
X174322331Y-121523796D01*
X174437546Y-121437546D01*
X174523796Y-121322331D01*
X174572810Y-121190916D01*
X174614681Y-121134984D01*
X174680145Y-121110566D01*
X174748418Y-121125417D01*
X174776673Y-121146569D01*
X174898599Y-121268495D01*
X174995384Y-121336265D01*
X175092165Y-121404032D01*
X175092167Y-121404033D01*
X175092170Y-121404035D01*
X175306337Y-121503903D01*
X175534592Y-121565063D01*
X175711034Y-121580500D01*
X175769999Y-121585659D01*
X175770000Y-121585659D01*
X175770001Y-121585659D01*
X175828966Y-121580500D01*
X176005408Y-121565063D01*
X176233663Y-121503903D01*
X176447830Y-121404035D01*
X176641401Y-121268495D01*
X176808495Y-121101401D01*
X176938426Y-120915841D01*
X176993002Y-120872217D01*
X177062500Y-120865023D01*
X177124855Y-120896546D01*
X177141575Y-120915842D01*
X177271500Y-121101395D01*
X177271505Y-121101401D01*
X177438599Y-121268495D01*
X177535384Y-121336265D01*
X177632165Y-121404032D01*
X177632167Y-121404033D01*
X177632170Y-121404035D01*
X177846337Y-121503903D01*
X178074592Y-121565063D01*
X178251034Y-121580500D01*
X178309999Y-121585659D01*
X178310000Y-121585659D01*
X178310001Y-121585659D01*
X178368966Y-121580500D01*
X178545408Y-121565063D01*
X178773663Y-121503903D01*
X178987830Y-121404035D01*
X179181401Y-121268495D01*
X179348495Y-121101401D01*
X179478426Y-120915840D01*
X179533001Y-120872217D01*
X179602499Y-120865023D01*
X179664854Y-120896546D01*
X179681574Y-120915841D01*
X179811505Y-121101401D01*
X179978599Y-121268495D01*
X180075384Y-121336265D01*
X180172165Y-121404032D01*
X180172167Y-121404033D01*
X180172170Y-121404035D01*
X180386337Y-121503903D01*
X180614592Y-121565063D01*
X180791034Y-121580500D01*
X180849999Y-121585659D01*
X180850000Y-121585659D01*
X180850001Y-121585659D01*
X180908966Y-121580500D01*
X181085408Y-121565063D01*
X181313663Y-121503903D01*
X181527830Y-121404035D01*
X181721401Y-121268495D01*
X181888495Y-121101401D01*
X182018426Y-120915841D01*
X182073002Y-120872217D01*
X182142500Y-120865023D01*
X182204855Y-120896546D01*
X182221575Y-120915842D01*
X182351500Y-121101395D01*
X182351505Y-121101401D01*
X182518599Y-121268495D01*
X182615384Y-121336264D01*
X182712165Y-121404032D01*
X182712167Y-121404033D01*
X182712170Y-121404035D01*
X182926337Y-121503903D01*
X183154592Y-121565063D01*
X183331034Y-121580500D01*
X183389999Y-121585659D01*
X183390000Y-121585659D01*
X183390001Y-121585659D01*
X183448966Y-121580500D01*
X183625408Y-121565063D01*
X183853663Y-121503903D01*
X184067830Y-121404035D01*
X184261401Y-121268495D01*
X184428495Y-121101401D01*
X184558426Y-120915841D01*
X184613002Y-120872217D01*
X184682500Y-120865023D01*
X184744855Y-120896546D01*
X184761575Y-120915842D01*
X184891500Y-121101395D01*
X184891505Y-121101401D01*
X185058599Y-121268495D01*
X185155384Y-121336264D01*
X185252165Y-121404032D01*
X185252167Y-121404033D01*
X185252170Y-121404035D01*
X185466337Y-121503903D01*
X185694592Y-121565063D01*
X185871034Y-121580500D01*
X185929999Y-121585659D01*
X185930000Y-121585659D01*
X185930001Y-121585659D01*
X185988966Y-121580500D01*
X186165408Y-121565063D01*
X186393663Y-121503903D01*
X186607830Y-121404035D01*
X186801401Y-121268495D01*
X186968495Y-121101401D01*
X187104035Y-120907830D01*
X187203903Y-120693663D01*
X187265063Y-120465408D01*
X187285659Y-120230000D01*
X187265536Y-120000002D01*
X191694652Y-120000002D01*
X191714028Y-120357368D01*
X191714029Y-120357385D01*
X191771926Y-120710539D01*
X191771932Y-120710565D01*
X191867672Y-121055392D01*
X191867674Y-121055399D01*
X192000142Y-121387870D01*
X192000151Y-121387888D01*
X192167784Y-121704077D01*
X192167790Y-121704086D01*
X192368634Y-122000309D01*
X192368641Y-122000319D01*
X192600331Y-122273085D01*
X192600332Y-122273086D01*
X192860163Y-122519211D01*
X193145081Y-122735800D01*
X193451747Y-122920315D01*
X193451749Y-122920316D01*
X193451751Y-122920317D01*
X193451755Y-122920319D01*
X193776552Y-123070585D01*
X193776565Y-123070591D01*
X194115726Y-123184868D01*
X194465254Y-123261805D01*
X194821052Y-123300500D01*
X194821058Y-123300500D01*
X195178942Y-123300500D01*
X195178948Y-123300500D01*
X195534746Y-123261805D01*
X195884274Y-123184868D01*
X196223435Y-123070591D01*
X196548253Y-122920315D01*
X196854919Y-122735800D01*
X197139837Y-122519211D01*
X197399668Y-122273086D01*
X197631365Y-122000311D01*
X197832211Y-121704085D01*
X197999853Y-121387880D01*
X198132324Y-121055403D01*
X198228071Y-120710552D01*
X198245891Y-120601848D01*
X198285970Y-120357385D01*
X198285970Y-120357382D01*
X198285972Y-120357371D01*
X198305348Y-120000000D01*
X198305054Y-119994586D01*
X198302868Y-119954266D01*
X198285972Y-119642629D01*
X198276980Y-119587783D01*
X198228073Y-119289460D01*
X198228072Y-119289459D01*
X198228071Y-119289448D01*
X198163245Y-119055964D01*
X198132327Y-118944607D01*
X198132325Y-118944600D01*
X198108940Y-118885909D01*
X197999853Y-118612120D01*
X197832211Y-118295915D01*
X197631365Y-117999689D01*
X197631361Y-117999684D01*
X197631358Y-117999680D01*
X197399668Y-117726914D01*
X197399667Y-117726913D01*
X197139837Y-117480789D01*
X197139830Y-117480783D01*
X197139827Y-117480781D01*
X197072245Y-117429407D01*
X196854919Y-117264200D01*
X196548253Y-117079685D01*
X196548252Y-117079684D01*
X196548248Y-117079682D01*
X196548244Y-117079680D01*
X196223447Y-116929414D01*
X196223441Y-116929411D01*
X196223435Y-116929409D01*
X196053854Y-116872270D01*
X195884273Y-116815131D01*
X195534744Y-116738194D01*
X195178949Y-116699500D01*
X195178948Y-116699500D01*
X194821052Y-116699500D01*
X194821050Y-116699500D01*
X194465255Y-116738194D01*
X194115726Y-116815131D01*
X193859970Y-116901306D01*
X193776565Y-116929409D01*
X193776562Y-116929410D01*
X193776563Y-116929410D01*
X193776552Y-116929414D01*
X193451755Y-117079680D01*
X193451751Y-117079682D01*
X193223367Y-117217096D01*
X193145081Y-117264200D01*
X193056768Y-117331333D01*
X192860172Y-117480781D01*
X192860163Y-117480789D01*
X192600331Y-117726914D01*
X192368641Y-117999680D01*
X192368634Y-117999690D01*
X192167790Y-118295913D01*
X192167784Y-118295922D01*
X192000151Y-118612111D01*
X192000142Y-118612129D01*
X191867674Y-118944600D01*
X191867672Y-118944607D01*
X191771932Y-119289434D01*
X191771926Y-119289460D01*
X191714029Y-119642614D01*
X191714028Y-119642631D01*
X191694652Y-119999997D01*
X191694652Y-120000002D01*
X187265536Y-120000002D01*
X187265063Y-119994592D01*
X187203903Y-119766337D01*
X187104035Y-119552171D01*
X187098425Y-119544158D01*
X186968494Y-119358597D01*
X186801402Y-119191506D01*
X186801395Y-119191501D01*
X186607834Y-119055967D01*
X186607830Y-119055965D01*
X186578521Y-119042298D01*
X186393663Y-118956097D01*
X186393659Y-118956096D01*
X186393655Y-118956094D01*
X186165413Y-118894938D01*
X186165403Y-118894936D01*
X185930001Y-118874341D01*
X185929999Y-118874341D01*
X185694596Y-118894936D01*
X185694586Y-118894938D01*
X185466344Y-118956094D01*
X185466335Y-118956098D01*
X185252171Y-119055964D01*
X185252169Y-119055965D01*
X185058597Y-119191505D01*
X184891505Y-119358597D01*
X184761575Y-119544158D01*
X184706998Y-119587783D01*
X184637500Y-119594977D01*
X184575145Y-119563454D01*
X184558425Y-119544158D01*
X184428494Y-119358597D01*
X184261404Y-119191507D01*
X184193375Y-119143872D01*
X184149751Y-119089294D01*
X184140500Y-119042298D01*
X184140500Y-113913101D01*
X184160185Y-113846062D01*
X184193375Y-113811527D01*
X184261401Y-113763896D01*
X184428495Y-113596802D01*
X184558426Y-113411241D01*
X184613001Y-113367618D01*
X184682499Y-113360424D01*
X184744854Y-113391947D01*
X184761574Y-113411242D01*
X184891505Y-113596802D01*
X185058599Y-113763896D01*
X185155384Y-113831665D01*
X185252165Y-113899433D01*
X185252167Y-113899434D01*
X185252170Y-113899436D01*
X185466337Y-113999304D01*
X185694592Y-114060464D01*
X185871034Y-114075901D01*
X185929999Y-114081060D01*
X185930000Y-114081060D01*
X185930001Y-114081060D01*
X185988966Y-114075901D01*
X186165408Y-114060464D01*
X186393663Y-113999304D01*
X186607830Y-113899436D01*
X186801401Y-113763896D01*
X186968495Y-113596802D01*
X187104035Y-113403231D01*
X187203903Y-113189064D01*
X187265063Y-112960809D01*
X187285659Y-112725401D01*
X187265063Y-112489993D01*
X187203903Y-112261738D01*
X187104035Y-112047572D01*
X187098425Y-112039559D01*
X186968494Y-111853998D01*
X186801402Y-111686907D01*
X186801395Y-111686902D01*
X186607834Y-111551368D01*
X186607830Y-111551366D01*
X186545082Y-111522106D01*
X186393663Y-111451498D01*
X186393659Y-111451497D01*
X186393655Y-111451495D01*
X186165413Y-111390339D01*
X186165403Y-111390337D01*
X185930001Y-111369742D01*
X185929999Y-111369742D01*
X185694596Y-111390337D01*
X185694586Y-111390339D01*
X185466344Y-111451495D01*
X185466337Y-111451497D01*
X185466337Y-111451498D01*
X185460549Y-111454197D01*
X185252171Y-111551365D01*
X185252169Y-111551366D01*
X185058597Y-111686906D01*
X184891505Y-111853998D01*
X184761575Y-112039559D01*
X184706998Y-112083184D01*
X184637500Y-112090378D01*
X184575145Y-112058855D01*
X184558425Y-112039559D01*
X184428494Y-111853998D01*
X184261402Y-111686907D01*
X184261395Y-111686902D01*
X184067834Y-111551368D01*
X184067830Y-111551366D01*
X184005082Y-111522106D01*
X183853663Y-111451498D01*
X183853659Y-111451497D01*
X183853655Y-111451495D01*
X183625413Y-111390339D01*
X183625403Y-111390337D01*
X183390001Y-111369742D01*
X183389999Y-111369742D01*
X183154596Y-111390337D01*
X183154586Y-111390339D01*
X182926344Y-111451495D01*
X182926337Y-111451497D01*
X182926337Y-111451498D01*
X182920549Y-111454197D01*
X182712171Y-111551365D01*
X182712169Y-111551366D01*
X182518597Y-111686906D01*
X182351508Y-111853995D01*
X182221574Y-112039561D01*
X182166997Y-112083185D01*
X182097498Y-112090378D01*
X182035144Y-112058856D01*
X182018429Y-112039565D01*
X181888495Y-111854000D01*
X181888493Y-111853997D01*
X181721402Y-111686907D01*
X181721395Y-111686902D01*
X181527834Y-111551368D01*
X181527830Y-111551366D01*
X181465082Y-111522106D01*
X181313663Y-111451498D01*
X181313659Y-111451497D01*
X181313655Y-111451495D01*
X181085413Y-111390339D01*
X181085403Y-111390337D01*
X180850001Y-111369742D01*
X180849999Y-111369742D01*
X180614596Y-111390337D01*
X180614586Y-111390339D01*
X180386344Y-111451495D01*
X180386337Y-111451497D01*
X180386337Y-111451498D01*
X180380549Y-111454197D01*
X180172171Y-111551365D01*
X180172169Y-111551366D01*
X179978597Y-111686906D01*
X179811505Y-111853998D01*
X179681575Y-112039559D01*
X179626998Y-112083184D01*
X179557500Y-112090378D01*
X179495145Y-112058855D01*
X179478425Y-112039559D01*
X179348494Y-111853998D01*
X179181402Y-111686907D01*
X179181395Y-111686902D01*
X178987834Y-111551368D01*
X178987830Y-111551366D01*
X178925082Y-111522106D01*
X178773663Y-111451498D01*
X178773659Y-111451497D01*
X178773655Y-111451495D01*
X178545413Y-111390339D01*
X178545403Y-111390337D01*
X178310001Y-111369742D01*
X178309999Y-111369742D01*
X178074596Y-111390337D01*
X178074586Y-111390339D01*
X177846344Y-111451495D01*
X177846337Y-111451497D01*
X177846337Y-111451498D01*
X177840549Y-111454197D01*
X177632171Y-111551365D01*
X177632169Y-111551366D01*
X177438597Y-111686906D01*
X177271505Y-111853998D01*
X177141575Y-112039559D01*
X177086998Y-112083184D01*
X177017500Y-112090378D01*
X176955145Y-112058855D01*
X176938425Y-112039559D01*
X176808494Y-111853998D01*
X176641402Y-111686907D01*
X176641395Y-111686902D01*
X176447834Y-111551368D01*
X176447830Y-111551366D01*
X176385082Y-111522106D01*
X176233663Y-111451498D01*
X176233659Y-111451497D01*
X176233655Y-111451495D01*
X176005413Y-111390339D01*
X176005403Y-111390337D01*
X175770001Y-111369742D01*
X175769999Y-111369742D01*
X175534596Y-111390337D01*
X175534586Y-111390339D01*
X175306344Y-111451495D01*
X175306337Y-111451497D01*
X175306337Y-111451498D01*
X175300549Y-111454197D01*
X175092171Y-111551365D01*
X175092169Y-111551366D01*
X174898600Y-111686904D01*
X174776673Y-111808831D01*
X174715350Y-111842315D01*
X174645658Y-111837331D01*
X174589725Y-111795459D01*
X174572810Y-111764482D01*
X174523797Y-111633072D01*
X174523793Y-111633065D01*
X174437547Y-111517856D01*
X174437544Y-111517853D01*
X174322335Y-111431607D01*
X174322328Y-111431603D01*
X174187482Y-111381309D01*
X174187483Y-111381309D01*
X174127883Y-111374902D01*
X174127881Y-111374901D01*
X174127873Y-111374901D01*
X174127864Y-111374901D01*
X172332129Y-111374901D01*
X172332123Y-111374902D01*
X172272516Y-111381309D01*
X172137671Y-111431603D01*
X172137664Y-111431607D01*
X172022455Y-111517853D01*
X172022452Y-111517856D01*
X171936206Y-111633065D01*
X171936202Y-111633072D01*
X171885908Y-111767918D01*
X171879501Y-111827517D01*
X171879500Y-111827536D01*
X171879500Y-113623271D01*
X171879501Y-113623277D01*
X171885908Y-113682884D01*
X171936202Y-113817729D01*
X171936206Y-113817736D01*
X172022452Y-113932945D01*
X172022455Y-113932948D01*
X172137664Y-114019194D01*
X172137671Y-114019198D01*
X172172567Y-114032213D01*
X172272517Y-114069492D01*
X172332127Y-114075901D01*
X172355497Y-114075900D01*
X172422536Y-114095582D01*
X172468292Y-114148384D01*
X172479500Y-114199900D01*
X172479500Y-118755500D01*
X172459815Y-118822539D01*
X172407011Y-118868294D01*
X172355505Y-118879500D01*
X172332132Y-118879500D01*
X172332123Y-118879501D01*
X172272516Y-118885908D01*
X172137671Y-118936202D01*
X172137664Y-118936206D01*
X172022455Y-119022452D01*
X172022452Y-119022455D01*
X171936206Y-119137664D01*
X171936202Y-119137671D01*
X171885908Y-119272517D01*
X171879501Y-119332116D01*
X171879500Y-119332135D01*
X171879500Y-121127870D01*
X108103450Y-121127870D01*
X108132324Y-121055403D01*
X108228071Y-120710552D01*
X108245891Y-120601848D01*
X108285970Y-120357385D01*
X108285970Y-120357382D01*
X108285972Y-120357371D01*
X108305348Y-120000000D01*
X108305054Y-119994586D01*
X108302868Y-119954266D01*
X108285972Y-119642629D01*
X108276980Y-119587783D01*
X108228073Y-119289460D01*
X108228072Y-119289459D01*
X108228071Y-119289448D01*
X108163245Y-119055964D01*
X108132327Y-118944607D01*
X108132325Y-118944600D01*
X108108940Y-118885909D01*
X107999853Y-118612120D01*
X107832211Y-118295915D01*
X107631365Y-117999689D01*
X107631361Y-117999684D01*
X107631358Y-117999680D01*
X107399668Y-117726914D01*
X107399668Y-117726913D01*
X107139837Y-117480789D01*
X107139830Y-117480783D01*
X107139827Y-117480781D01*
X107072245Y-117429407D01*
X106854919Y-117264200D01*
X106548253Y-117079685D01*
X106548252Y-117079684D01*
X106548248Y-117079682D01*
X106548244Y-117079680D01*
X106223447Y-116929414D01*
X106223441Y-116929411D01*
X106223435Y-116929409D01*
X106053854Y-116872270D01*
X105884273Y-116815131D01*
X105534744Y-116738194D01*
X105178949Y-116699500D01*
X105178948Y-116699500D01*
X104821052Y-116699500D01*
X104821050Y-116699500D01*
X104465255Y-116738194D01*
X104115726Y-116815131D01*
X103859970Y-116901306D01*
X103776565Y-116929409D01*
X103776562Y-116929410D01*
X103776563Y-116929410D01*
X103776552Y-116929414D01*
X103451755Y-117079680D01*
X103451751Y-117079682D01*
X103223367Y-117217096D01*
X103145081Y-117264200D01*
X103056768Y-117331333D01*
X102860172Y-117480781D01*
X102860163Y-117480789D01*
X102600331Y-117726914D01*
X102368641Y-117999680D01*
X102368634Y-117999690D01*
X102167790Y-118295913D01*
X102167784Y-118295922D01*
X102000151Y-118612111D01*
X102000142Y-118612129D01*
X101867674Y-118944600D01*
X101867672Y-118944607D01*
X101771932Y-119289434D01*
X101771926Y-119289460D01*
X101714029Y-119642614D01*
X101714028Y-119642631D01*
X101694652Y-119999997D01*
X101694652Y-120000002D01*
X100300500Y-120000002D01*
X100300500Y-114619500D01*
X100320185Y-114552461D01*
X100372989Y-114506706D01*
X100424500Y-114495500D01*
X113545990Y-114495500D01*
X113546000Y-114495500D01*
X113653456Y-114483947D01*
X113704967Y-114472741D01*
X113739197Y-114461347D01*
X113807497Y-114438616D01*
X113807501Y-114438613D01*
X113807504Y-114438613D01*
X113928543Y-114360825D01*
X113981347Y-114315070D01*
X114075567Y-114206336D01*
X114135338Y-114075459D01*
X114155023Y-114008420D01*
X114155024Y-114008416D01*
X114175500Y-113866000D01*
X114175499Y-105273999D01*
X114163946Y-105166543D01*
X114152740Y-105115032D01*
X114119766Y-105015964D01*
X114117272Y-104946144D01*
X114149740Y-104889127D01*
X114170212Y-104868656D01*
X114262314Y-104719334D01*
X114317499Y-104552797D01*
X114328000Y-104450009D01*
X114328000Y-104450001D01*
X114827000Y-104450001D01*
X114827001Y-104450018D01*
X114837500Y-104552796D01*
X114837501Y-104552799D01*
X114892685Y-104719331D01*
X114892687Y-104719336D01*
X114894875Y-104722883D01*
X114984788Y-104868656D01*
X115108844Y-104992712D01*
X115258166Y-105084814D01*
X115424703Y-105139999D01*
X115527491Y-105150500D01*
X117627508Y-105150499D01*
X117730297Y-105139999D01*
X117896834Y-105084814D01*
X118046156Y-104992712D01*
X118170212Y-104868656D01*
X118206759Y-104809402D01*
X118258707Y-104762679D01*
X118312298Y-104750500D01*
X154596016Y-104750500D01*
X154663055Y-104770185D01*
X154683697Y-104786819D01*
X158564975Y-108668096D01*
X158598460Y-108729419D01*
X158593476Y-108799111D01*
X158551604Y-108855044D01*
X158509387Y-108875552D01*
X158468544Y-108886495D01*
X158468535Y-108886499D01*
X158254371Y-108986365D01*
X158254369Y-108986366D01*
X158060797Y-109121906D01*
X157893705Y-109288998D01*
X157763775Y-109474559D01*
X157709198Y-109518184D01*
X157639700Y-109525378D01*
X157577345Y-109493855D01*
X157560625Y-109474559D01*
X157430694Y-109288998D01*
X157263602Y-109121907D01*
X157263595Y-109121902D01*
X157070034Y-108986368D01*
X157070030Y-108986366D01*
X157070030Y-108986365D01*
X156855863Y-108886498D01*
X156855859Y-108886497D01*
X156855855Y-108886495D01*
X156627613Y-108825339D01*
X156627603Y-108825337D01*
X156392201Y-108804742D01*
X156392199Y-108804742D01*
X156156796Y-108825337D01*
X156156786Y-108825339D01*
X155928544Y-108886495D01*
X155928535Y-108886499D01*
X155714371Y-108986365D01*
X155714369Y-108986366D01*
X155520797Y-109121906D01*
X155353705Y-109288998D01*
X155223775Y-109474559D01*
X155169198Y-109518184D01*
X155099700Y-109525378D01*
X155037345Y-109493855D01*
X155020625Y-109474559D01*
X154890694Y-109288998D01*
X154723602Y-109121907D01*
X154723595Y-109121902D01*
X154530034Y-108986368D01*
X154530030Y-108986366D01*
X154530030Y-108986365D01*
X154315863Y-108886498D01*
X154315859Y-108886497D01*
X154315855Y-108886495D01*
X154087613Y-108825339D01*
X154087603Y-108825337D01*
X153852201Y-108804742D01*
X153852199Y-108804742D01*
X153616796Y-108825337D01*
X153616786Y-108825339D01*
X153388544Y-108886495D01*
X153388535Y-108886499D01*
X153174371Y-108986365D01*
X153174369Y-108986366D01*
X152980797Y-109121906D01*
X152813705Y-109288998D01*
X152683775Y-109474559D01*
X152629198Y-109518184D01*
X152559700Y-109525378D01*
X152497345Y-109493855D01*
X152480625Y-109474559D01*
X152350694Y-109288998D01*
X152183602Y-109121907D01*
X152183595Y-109121902D01*
X151990034Y-108986368D01*
X151990030Y-108986366D01*
X151990030Y-108986365D01*
X151775863Y-108886498D01*
X151775859Y-108886497D01*
X151775855Y-108886495D01*
X151547613Y-108825339D01*
X151547603Y-108825337D01*
X151312201Y-108804742D01*
X151312199Y-108804742D01*
X151076796Y-108825337D01*
X151076786Y-108825339D01*
X150848544Y-108886495D01*
X150848535Y-108886499D01*
X150634371Y-108986365D01*
X150634369Y-108986366D01*
X150440797Y-109121906D01*
X150273705Y-109288998D01*
X150143775Y-109474559D01*
X150089198Y-109518184D01*
X150019700Y-109525378D01*
X149957345Y-109493855D01*
X149940625Y-109474559D01*
X149810694Y-109288998D01*
X149643602Y-109121907D01*
X149643595Y-109121902D01*
X149450034Y-108986368D01*
X149450030Y-108986366D01*
X149450029Y-108986365D01*
X149235863Y-108886498D01*
X149235859Y-108886497D01*
X149235855Y-108886495D01*
X149007613Y-108825339D01*
X149007603Y-108825337D01*
X148772201Y-108804742D01*
X148772199Y-108804742D01*
X148536796Y-108825337D01*
X148536786Y-108825339D01*
X148308544Y-108886495D01*
X148308535Y-108886499D01*
X148094371Y-108986365D01*
X148094369Y-108986366D01*
X147900797Y-109121906D01*
X147733705Y-109288998D01*
X147603775Y-109474559D01*
X147549198Y-109518184D01*
X147479700Y-109525378D01*
X147417345Y-109493855D01*
X147400625Y-109474559D01*
X147270694Y-109288998D01*
X147103602Y-109121907D01*
X147103595Y-109121902D01*
X146910034Y-108986368D01*
X146910030Y-108986366D01*
X146910030Y-108986365D01*
X146695863Y-108886498D01*
X146695859Y-108886497D01*
X146695855Y-108886495D01*
X146467613Y-108825339D01*
X146467603Y-108825337D01*
X146232201Y-108804742D01*
X146232199Y-108804742D01*
X145996796Y-108825337D01*
X145996786Y-108825339D01*
X145768544Y-108886495D01*
X145768535Y-108886499D01*
X145554371Y-108986365D01*
X145554369Y-108986366D01*
X145360797Y-109121906D01*
X145193705Y-109288998D01*
X145063775Y-109474559D01*
X145009198Y-109518184D01*
X144939700Y-109525378D01*
X144877345Y-109493855D01*
X144860625Y-109474559D01*
X144730694Y-109288998D01*
X144563602Y-109121907D01*
X144563595Y-109121902D01*
X144370034Y-108986368D01*
X144370030Y-108986366D01*
X144370030Y-108986365D01*
X144155863Y-108886498D01*
X144155859Y-108886497D01*
X144155855Y-108886495D01*
X143927613Y-108825339D01*
X143927603Y-108825337D01*
X143692201Y-108804742D01*
X143692199Y-108804742D01*
X143456796Y-108825337D01*
X143456786Y-108825339D01*
X143228544Y-108886495D01*
X143228535Y-108886499D01*
X143014371Y-108986365D01*
X143014369Y-108986366D01*
X142820797Y-109121906D01*
X142653705Y-109288998D01*
X142523775Y-109474559D01*
X142469198Y-109518184D01*
X142399700Y-109525378D01*
X142337345Y-109493855D01*
X142320625Y-109474559D01*
X142190694Y-109288998D01*
X142023602Y-109121907D01*
X142023595Y-109121902D01*
X141830034Y-108986368D01*
X141830030Y-108986366D01*
X141830030Y-108986365D01*
X141615863Y-108886498D01*
X141615859Y-108886497D01*
X141615855Y-108886495D01*
X141387613Y-108825339D01*
X141387603Y-108825337D01*
X141152201Y-108804742D01*
X141152199Y-108804742D01*
X140916796Y-108825337D01*
X140916786Y-108825339D01*
X140688544Y-108886495D01*
X140688535Y-108886499D01*
X140474371Y-108986365D01*
X140474369Y-108986366D01*
X140280797Y-109121906D01*
X140113705Y-109288998D01*
X139983775Y-109474559D01*
X139929198Y-109518184D01*
X139859700Y-109525378D01*
X139797345Y-109493855D01*
X139780625Y-109474559D01*
X139650694Y-109288998D01*
X139483602Y-109121907D01*
X139483595Y-109121902D01*
X139290034Y-108986368D01*
X139290030Y-108986366D01*
X139290030Y-108986365D01*
X139075863Y-108886498D01*
X139075859Y-108886497D01*
X139075855Y-108886495D01*
X138847613Y-108825339D01*
X138847603Y-108825337D01*
X138612201Y-108804742D01*
X138612199Y-108804742D01*
X138376796Y-108825337D01*
X138376786Y-108825339D01*
X138148544Y-108886495D01*
X138148535Y-108886499D01*
X137934371Y-108986365D01*
X137934369Y-108986366D01*
X137740797Y-109121906D01*
X137573705Y-109288998D01*
X137443775Y-109474559D01*
X137389198Y-109518184D01*
X137319700Y-109525378D01*
X137257345Y-109493855D01*
X137240625Y-109474559D01*
X137110694Y-109288998D01*
X136943602Y-109121907D01*
X136943595Y-109121902D01*
X136750034Y-108986368D01*
X136750030Y-108986366D01*
X136750030Y-108986365D01*
X136535863Y-108886498D01*
X136535859Y-108886497D01*
X136535855Y-108886495D01*
X136307613Y-108825339D01*
X136307603Y-108825337D01*
X136072201Y-108804742D01*
X136072199Y-108804742D01*
X135836796Y-108825337D01*
X135836786Y-108825339D01*
X135608544Y-108886495D01*
X135608535Y-108886499D01*
X135394371Y-108986365D01*
X135394369Y-108986366D01*
X135200797Y-109121906D01*
X135033705Y-109288998D01*
X134903775Y-109474559D01*
X134849198Y-109518184D01*
X134779700Y-109525378D01*
X134717345Y-109493855D01*
X134700625Y-109474559D01*
X134570694Y-109288998D01*
X134403602Y-109121907D01*
X134403595Y-109121902D01*
X134210034Y-108986368D01*
X134210030Y-108986366D01*
X134210030Y-108986365D01*
X133995863Y-108886498D01*
X133995859Y-108886497D01*
X133995855Y-108886495D01*
X133767613Y-108825339D01*
X133767603Y-108825337D01*
X133532201Y-108804742D01*
X133532199Y-108804742D01*
X133296796Y-108825337D01*
X133296786Y-108825339D01*
X133068544Y-108886495D01*
X133068535Y-108886499D01*
X132854371Y-108986365D01*
X132854369Y-108986366D01*
X132660797Y-109121906D01*
X132493705Y-109288998D01*
X132363775Y-109474559D01*
X132309198Y-109518184D01*
X132239700Y-109525378D01*
X132177345Y-109493855D01*
X132160625Y-109474559D01*
X132030694Y-109288998D01*
X131863602Y-109121907D01*
X131863595Y-109121902D01*
X131670034Y-108986368D01*
X131670030Y-108986366D01*
X131670030Y-108986365D01*
X131455863Y-108886498D01*
X131455859Y-108886497D01*
X131455855Y-108886495D01*
X131227613Y-108825339D01*
X131227603Y-108825337D01*
X130992201Y-108804742D01*
X130992199Y-108804742D01*
X130756796Y-108825337D01*
X130756786Y-108825339D01*
X130528544Y-108886495D01*
X130528535Y-108886499D01*
X130314371Y-108986365D01*
X130314369Y-108986366D01*
X130120797Y-109121906D01*
X129953708Y-109288995D01*
X129823774Y-109474560D01*
X129769197Y-109518185D01*
X129699698Y-109525377D01*
X129637344Y-109493855D01*
X129620624Y-109474559D01*
X129490694Y-109288998D01*
X129323602Y-109121907D01*
X129323595Y-109121902D01*
X129130034Y-108986368D01*
X129130030Y-108986366D01*
X129130029Y-108986365D01*
X128915863Y-108886498D01*
X128915859Y-108886497D01*
X128915855Y-108886495D01*
X128687613Y-108825339D01*
X128687603Y-108825337D01*
X128452201Y-108804742D01*
X128452199Y-108804742D01*
X128216796Y-108825337D01*
X128216786Y-108825339D01*
X127988544Y-108886495D01*
X127988535Y-108886499D01*
X127774371Y-108986365D01*
X127774369Y-108986366D01*
X127580797Y-109121906D01*
X127413708Y-109288995D01*
X127283774Y-109474561D01*
X127229197Y-109518185D01*
X127159698Y-109525378D01*
X127097344Y-109493856D01*
X127080629Y-109474565D01*
X126950695Y-109289000D01*
X126950693Y-109288997D01*
X126783602Y-109121907D01*
X126783595Y-109121902D01*
X126590034Y-108986368D01*
X126590030Y-108986366D01*
X126590030Y-108986365D01*
X126375863Y-108886498D01*
X126375859Y-108886497D01*
X126375855Y-108886495D01*
X126147613Y-108825339D01*
X126147603Y-108825337D01*
X125912201Y-108804742D01*
X125912199Y-108804742D01*
X125676796Y-108825337D01*
X125676786Y-108825339D01*
X125448544Y-108886495D01*
X125448535Y-108886499D01*
X125234371Y-108986365D01*
X125234369Y-108986366D01*
X125040797Y-109121906D01*
X124873705Y-109288998D01*
X124743775Y-109474559D01*
X124689198Y-109518184D01*
X124619700Y-109525378D01*
X124557345Y-109493855D01*
X124540625Y-109474559D01*
X124410694Y-109288998D01*
X124243602Y-109121907D01*
X124243595Y-109121902D01*
X124050034Y-108986368D01*
X124050030Y-108986366D01*
X124050030Y-108986365D01*
X123835863Y-108886498D01*
X123835859Y-108886497D01*
X123835855Y-108886495D01*
X123607613Y-108825339D01*
X123607603Y-108825337D01*
X123372201Y-108804742D01*
X123372199Y-108804742D01*
X123136796Y-108825337D01*
X123136786Y-108825339D01*
X122908544Y-108886495D01*
X122908535Y-108886499D01*
X122694371Y-108986365D01*
X122694369Y-108986366D01*
X122500797Y-109121906D01*
X122333705Y-109288998D01*
X122203775Y-109474559D01*
X122149198Y-109518184D01*
X122079700Y-109525378D01*
X122017345Y-109493855D01*
X122000625Y-109474559D01*
X121870694Y-109288998D01*
X121703602Y-109121907D01*
X121703595Y-109121902D01*
X121510034Y-108986368D01*
X121510030Y-108986366D01*
X121510029Y-108986365D01*
X121295863Y-108886498D01*
X121295859Y-108886497D01*
X121295855Y-108886495D01*
X121067613Y-108825339D01*
X121067603Y-108825337D01*
X120832201Y-108804742D01*
X120832199Y-108804742D01*
X120596796Y-108825337D01*
X120596786Y-108825339D01*
X120368544Y-108886495D01*
X120368535Y-108886499D01*
X120154371Y-108986365D01*
X120154369Y-108986366D01*
X119960800Y-109121904D01*
X119838873Y-109243831D01*
X119777550Y-109277315D01*
X119707858Y-109272331D01*
X119651925Y-109230459D01*
X119635010Y-109199482D01*
X119585997Y-109068072D01*
X119585993Y-109068065D01*
X119499747Y-108952856D01*
X119499744Y-108952853D01*
X119384535Y-108866607D01*
X119384528Y-108866603D01*
X119249682Y-108816309D01*
X119249683Y-108816309D01*
X119190083Y-108809902D01*
X119190081Y-108809901D01*
X119190073Y-108809901D01*
X119190064Y-108809901D01*
X117394329Y-108809901D01*
X117394323Y-108809902D01*
X117334716Y-108816309D01*
X117199871Y-108866603D01*
X117199864Y-108866607D01*
X117084655Y-108952853D01*
X117084652Y-108952856D01*
X116998406Y-109068065D01*
X116998402Y-109068072D01*
X116948108Y-109202918D01*
X116941701Y-109262517D01*
X116941700Y-109262536D01*
X116941700Y-111058271D01*
X116941701Y-111058277D01*
X116948108Y-111117884D01*
X116998402Y-111252729D01*
X116998406Y-111252736D01*
X117084652Y-111367945D01*
X117084655Y-111367948D01*
X117199864Y-111454194D01*
X117199871Y-111454198D01*
X117244818Y-111470961D01*
X117334717Y-111504492D01*
X117394327Y-111510901D01*
X117542700Y-111510900D01*
X117609739Y-111530584D01*
X117655494Y-111583388D01*
X117666700Y-111634900D01*
X117666700Y-113765901D01*
X117647015Y-113832940D01*
X117594211Y-113878695D01*
X117542701Y-113889901D01*
X117394330Y-113889901D01*
X117394323Y-113889902D01*
X117334716Y-113896309D01*
X117199871Y-113946603D01*
X117199864Y-113946607D01*
X117084655Y-114032853D01*
X117084652Y-114032856D01*
X116998406Y-114148065D01*
X116998402Y-114148072D01*
X116948108Y-114282918D01*
X116941701Y-114342517D01*
X116941700Y-114342536D01*
X116941700Y-116138271D01*
X116941701Y-116138277D01*
X116948108Y-116197884D01*
X116998402Y-116332729D01*
X116998406Y-116332736D01*
X117084652Y-116447945D01*
X117084655Y-116447948D01*
X117199864Y-116534194D01*
X117199871Y-116534198D01*
X117334717Y-116584492D01*
X117334716Y-116584492D01*
X117341644Y-116585236D01*
X117394327Y-116590901D01*
X119190072Y-116590900D01*
X119249683Y-116584492D01*
X119384531Y-116534197D01*
X119499746Y-116447947D01*
X119585996Y-116332732D01*
X119635010Y-116201317D01*
X119676881Y-116145385D01*
X119742345Y-116120967D01*
X119810618Y-116135818D01*
X119838872Y-116156970D01*
X119960799Y-116278896D01*
X120057584Y-116346665D01*
X120154365Y-116414433D01*
X120154367Y-116414434D01*
X120154370Y-116414436D01*
X120368537Y-116514304D01*
X120596792Y-116575464D01*
X120773234Y-116590901D01*
X120832199Y-116596060D01*
X120832200Y-116596060D01*
X120832201Y-116596060D01*
X120891166Y-116590901D01*
X121067608Y-116575464D01*
X121295863Y-116514304D01*
X121510030Y-116414436D01*
X121703601Y-116278896D01*
X121870695Y-116111802D01*
X122000624Y-115926243D01*
X122055202Y-115882618D01*
X122124700Y-115875424D01*
X122187055Y-115906947D01*
X122203775Y-115926243D01*
X122333481Y-116111483D01*
X122333705Y-116111802D01*
X122500799Y-116278896D01*
X122597584Y-116346665D01*
X122694365Y-116414433D01*
X122694367Y-116414434D01*
X122694370Y-116414436D01*
X122908537Y-116514304D01*
X123136792Y-116575464D01*
X123313234Y-116590901D01*
X123372199Y-116596060D01*
X123372200Y-116596060D01*
X123372201Y-116596060D01*
X123431166Y-116590901D01*
X123607608Y-116575464D01*
X123835863Y-116514304D01*
X124050030Y-116414436D01*
X124243601Y-116278896D01*
X124410695Y-116111802D01*
X124540624Y-115926243D01*
X124595202Y-115882618D01*
X124664700Y-115875424D01*
X124727055Y-115906947D01*
X124743775Y-115926243D01*
X124873481Y-116111483D01*
X124873705Y-116111802D01*
X125040799Y-116278896D01*
X125137584Y-116346665D01*
X125234365Y-116414433D01*
X125234367Y-116414434D01*
X125234370Y-116414436D01*
X125448537Y-116514304D01*
X125676792Y-116575464D01*
X125853234Y-116590901D01*
X125912199Y-116596060D01*
X125912200Y-116596060D01*
X125912201Y-116596060D01*
X125971166Y-116590901D01*
X126147608Y-116575464D01*
X126375863Y-116514304D01*
X126590030Y-116414436D01*
X126783601Y-116278896D01*
X126950695Y-116111802D01*
X127080624Y-115926243D01*
X127135202Y-115882618D01*
X127204700Y-115875424D01*
X127267055Y-115906947D01*
X127283775Y-115926243D01*
X127413481Y-116111483D01*
X127413705Y-116111802D01*
X127580799Y-116278896D01*
X127677584Y-116346665D01*
X127774365Y-116414433D01*
X127774367Y-116414434D01*
X127774370Y-116414436D01*
X127988537Y-116514304D01*
X128216792Y-116575464D01*
X128393234Y-116590901D01*
X128452199Y-116596060D01*
X128452200Y-116596060D01*
X128452201Y-116596060D01*
X128511166Y-116590901D01*
X128687608Y-116575464D01*
X128915863Y-116514304D01*
X129130030Y-116414436D01*
X129323601Y-116278896D01*
X129490695Y-116111802D01*
X129620624Y-115926243D01*
X129675202Y-115882618D01*
X129744700Y-115875424D01*
X129807055Y-115906947D01*
X129823775Y-115926243D01*
X129953481Y-116111483D01*
X129953705Y-116111802D01*
X130120799Y-116278896D01*
X130217584Y-116346665D01*
X130314365Y-116414433D01*
X130314367Y-116414434D01*
X130314370Y-116414436D01*
X130528537Y-116514304D01*
X130756792Y-116575464D01*
X130933234Y-116590901D01*
X130992199Y-116596060D01*
X130992200Y-116596060D01*
X130992201Y-116596060D01*
X131051166Y-116590901D01*
X131227608Y-116575464D01*
X131455863Y-116514304D01*
X131670030Y-116414436D01*
X131863601Y-116278896D01*
X132030695Y-116111802D01*
X132160624Y-115926243D01*
X132215202Y-115882618D01*
X132284700Y-115875424D01*
X132347055Y-115906947D01*
X132363775Y-115926243D01*
X132493481Y-116111483D01*
X132493705Y-116111802D01*
X132660799Y-116278896D01*
X132757584Y-116346665D01*
X132854365Y-116414433D01*
X132854367Y-116414434D01*
X132854370Y-116414436D01*
X133068537Y-116514304D01*
X133296792Y-116575464D01*
X133473234Y-116590901D01*
X133532199Y-116596060D01*
X133532200Y-116596060D01*
X133532201Y-116596060D01*
X133591166Y-116590901D01*
X133767608Y-116575464D01*
X133995863Y-116514304D01*
X134210030Y-116414436D01*
X134403601Y-116278896D01*
X134570695Y-116111802D01*
X134700624Y-115926243D01*
X134755202Y-115882618D01*
X134824700Y-115875424D01*
X134887055Y-115906947D01*
X134903775Y-115926243D01*
X135033481Y-116111483D01*
X135033705Y-116111802D01*
X135200799Y-116278896D01*
X135297584Y-116346666D01*
X135394365Y-116414433D01*
X135394367Y-116414434D01*
X135394370Y-116414436D01*
X135608537Y-116514304D01*
X135836792Y-116575464D01*
X136013234Y-116590901D01*
X136072199Y-116596060D01*
X136072200Y-116596060D01*
X136072201Y-116596060D01*
X136131166Y-116590901D01*
X136307608Y-116575464D01*
X136535863Y-116514304D01*
X136750030Y-116414436D01*
X136943601Y-116278896D01*
X137110695Y-116111802D01*
X137240624Y-115926243D01*
X137295202Y-115882618D01*
X137364700Y-115875424D01*
X137427055Y-115906947D01*
X137443775Y-115926243D01*
X137573481Y-116111483D01*
X137573705Y-116111802D01*
X137740799Y-116278896D01*
X137837584Y-116346666D01*
X137934365Y-116414433D01*
X137934367Y-116414434D01*
X137934370Y-116414436D01*
X138148537Y-116514304D01*
X138376792Y-116575464D01*
X138553234Y-116590901D01*
X138612199Y-116596060D01*
X138612200Y-116596060D01*
X138612201Y-116596060D01*
X138671166Y-116590901D01*
X138847608Y-116575464D01*
X139075863Y-116514304D01*
X139290030Y-116414436D01*
X139483601Y-116278896D01*
X139650695Y-116111802D01*
X139780624Y-115926243D01*
X139835202Y-115882618D01*
X139904700Y-115875424D01*
X139967055Y-115906947D01*
X139983775Y-115926243D01*
X140113481Y-116111483D01*
X140113705Y-116111802D01*
X140280799Y-116278896D01*
X140377584Y-116346666D01*
X140474365Y-116414433D01*
X140474367Y-116414434D01*
X140474370Y-116414436D01*
X140688537Y-116514304D01*
X140916792Y-116575464D01*
X141093234Y-116590901D01*
X141152199Y-116596060D01*
X141152200Y-116596060D01*
X141152201Y-116596060D01*
X141211166Y-116590901D01*
X141387608Y-116575464D01*
X141615863Y-116514304D01*
X141830030Y-116414436D01*
X142023601Y-116278896D01*
X142190695Y-116111802D01*
X142320624Y-115926243D01*
X142375202Y-115882618D01*
X142444700Y-115875424D01*
X142507055Y-115906947D01*
X142523775Y-115926243D01*
X142653481Y-116111483D01*
X142653705Y-116111802D01*
X142820799Y-116278896D01*
X142917584Y-116346666D01*
X143014365Y-116414433D01*
X143014367Y-116414434D01*
X143014370Y-116414436D01*
X143228537Y-116514304D01*
X143456792Y-116575464D01*
X143633234Y-116590901D01*
X143692199Y-116596060D01*
X143692200Y-116596060D01*
X143692201Y-116596060D01*
X143751166Y-116590901D01*
X143927608Y-116575464D01*
X144155863Y-116514304D01*
X144370030Y-116414436D01*
X144563601Y-116278896D01*
X144730695Y-116111802D01*
X144860624Y-115926243D01*
X144915202Y-115882618D01*
X144984700Y-115875424D01*
X145047055Y-115906947D01*
X145063775Y-115926243D01*
X145193481Y-116111483D01*
X145193705Y-116111802D01*
X145360799Y-116278896D01*
X145457584Y-116346666D01*
X145554365Y-116414433D01*
X145554367Y-116414434D01*
X145554370Y-116414436D01*
X145768537Y-116514304D01*
X145996792Y-116575464D01*
X146173234Y-116590901D01*
X146232199Y-116596060D01*
X146232200Y-116596060D01*
X146232201Y-116596060D01*
X146291166Y-116590901D01*
X146467608Y-116575464D01*
X146695863Y-116514304D01*
X146910030Y-116414436D01*
X147103601Y-116278896D01*
X147270695Y-116111802D01*
X147400624Y-115926243D01*
X147455202Y-115882618D01*
X147524700Y-115875424D01*
X147587055Y-115906947D01*
X147603775Y-115926243D01*
X147733481Y-116111483D01*
X147733705Y-116111802D01*
X147900799Y-116278896D01*
X147997584Y-116346666D01*
X148094365Y-116414433D01*
X148094367Y-116414434D01*
X148094370Y-116414436D01*
X148308537Y-116514304D01*
X148536792Y-116575464D01*
X148713234Y-116590901D01*
X148772199Y-116596060D01*
X148772200Y-116596060D01*
X148772201Y-116596060D01*
X148831166Y-116590901D01*
X149007608Y-116575464D01*
X149235863Y-116514304D01*
X149450030Y-116414436D01*
X149643601Y-116278896D01*
X149810695Y-116111802D01*
X149940624Y-115926243D01*
X149995202Y-115882618D01*
X150064700Y-115875424D01*
X150127055Y-115906947D01*
X150143775Y-115926243D01*
X150273481Y-116111483D01*
X150273705Y-116111802D01*
X150440799Y-116278896D01*
X150537584Y-116346666D01*
X150634365Y-116414433D01*
X150634367Y-116414434D01*
X150634370Y-116414436D01*
X150848537Y-116514304D01*
X151076792Y-116575464D01*
X151253234Y-116590901D01*
X151312199Y-116596060D01*
X151312200Y-116596060D01*
X151312201Y-116596060D01*
X151371166Y-116590901D01*
X151547608Y-116575464D01*
X151775863Y-116514304D01*
X151990030Y-116414436D01*
X152183601Y-116278896D01*
X152350695Y-116111802D01*
X152480624Y-115926243D01*
X152535202Y-115882618D01*
X152604700Y-115875424D01*
X152667055Y-115906947D01*
X152683775Y-115926243D01*
X152813481Y-116111483D01*
X152813705Y-116111802D01*
X152980799Y-116278896D01*
X153077584Y-116346666D01*
X153174365Y-116414433D01*
X153174367Y-116414434D01*
X153174370Y-116414436D01*
X153388537Y-116514304D01*
X153616792Y-116575464D01*
X153793234Y-116590901D01*
X153852199Y-116596060D01*
X153852200Y-116596060D01*
X153852201Y-116596060D01*
X153911166Y-116590901D01*
X154087608Y-116575464D01*
X154315863Y-116514304D01*
X154530030Y-116414436D01*
X154723601Y-116278896D01*
X154890695Y-116111802D01*
X155020624Y-115926243D01*
X155075202Y-115882618D01*
X155144700Y-115875424D01*
X155207055Y-115906947D01*
X155223775Y-115926243D01*
X155353481Y-116111483D01*
X155353705Y-116111802D01*
X155520799Y-116278896D01*
X155617584Y-116346666D01*
X155714365Y-116414433D01*
X155714367Y-116414434D01*
X155714370Y-116414436D01*
X155928537Y-116514304D01*
X156156792Y-116575464D01*
X156333234Y-116590901D01*
X156392199Y-116596060D01*
X156392200Y-116596060D01*
X156392201Y-116596060D01*
X156451166Y-116590901D01*
X156627608Y-116575464D01*
X156855863Y-116514304D01*
X157070030Y-116414436D01*
X157263601Y-116278896D01*
X157430695Y-116111802D01*
X157560624Y-115926243D01*
X157615202Y-115882618D01*
X157684700Y-115875424D01*
X157747055Y-115906947D01*
X157763775Y-115926243D01*
X157893481Y-116111483D01*
X157893705Y-116111802D01*
X158060799Y-116278896D01*
X158157584Y-116346666D01*
X158254365Y-116414433D01*
X158254367Y-116414434D01*
X158254370Y-116414436D01*
X158468537Y-116514304D01*
X158696792Y-116575464D01*
X158873234Y-116590901D01*
X158932199Y-116596060D01*
X158932200Y-116596060D01*
X158932201Y-116596060D01*
X158991166Y-116590901D01*
X159167608Y-116575464D01*
X159395863Y-116514304D01*
X159610030Y-116414436D01*
X159803601Y-116278896D01*
X159970695Y-116111802D01*
X160100624Y-115926243D01*
X160155202Y-115882618D01*
X160224700Y-115875424D01*
X160287055Y-115906947D01*
X160303775Y-115926243D01*
X160433481Y-116111483D01*
X160433705Y-116111802D01*
X160600799Y-116278896D01*
X160697584Y-116346666D01*
X160794365Y-116414433D01*
X160794367Y-116414434D01*
X160794370Y-116414436D01*
X161008537Y-116514304D01*
X161236792Y-116575464D01*
X161413234Y-116590901D01*
X161472199Y-116596060D01*
X161472200Y-116596060D01*
X161472201Y-116596060D01*
X161531166Y-116590901D01*
X161707608Y-116575464D01*
X161935863Y-116514304D01*
X162150030Y-116414436D01*
X162343601Y-116278896D01*
X162510695Y-116111802D01*
X162640624Y-115926243D01*
X162695202Y-115882618D01*
X162764700Y-115875424D01*
X162827055Y-115906947D01*
X162843775Y-115926243D01*
X162973481Y-116111483D01*
X162973705Y-116111802D01*
X163140799Y-116278896D01*
X163237584Y-116346665D01*
X163334365Y-116414433D01*
X163334367Y-116414434D01*
X163334370Y-116414436D01*
X163548537Y-116514304D01*
X163776792Y-116575464D01*
X163953234Y-116590901D01*
X164012199Y-116596060D01*
X164012200Y-116596060D01*
X164012201Y-116596060D01*
X164071166Y-116590901D01*
X164247608Y-116575464D01*
X164475863Y-116514304D01*
X164690030Y-116414436D01*
X164883601Y-116278896D01*
X165050695Y-116111802D01*
X165180930Y-115925806D01*
X165235507Y-115882182D01*
X165305005Y-115874988D01*
X165367360Y-115906511D01*
X165384079Y-115925806D01*
X165514090Y-116111479D01*
X165681117Y-116278506D01*
X165874621Y-116414001D01*
X166088707Y-116513830D01*
X166088716Y-116513834D01*
X166302200Y-116571035D01*
X166302200Y-115675902D01*
X166409885Y-115725081D01*
X166516437Y-115740401D01*
X166587963Y-115740401D01*
X166694515Y-115725081D01*
X166802200Y-115675902D01*
X166802200Y-116571034D01*
X167015683Y-116513834D01*
X167015692Y-116513830D01*
X167229778Y-116414001D01*
X167423282Y-116278506D01*
X167590305Y-116111483D01*
X167725800Y-115917979D01*
X167825629Y-115703893D01*
X167825632Y-115703887D01*
X167882836Y-115490401D01*
X166985886Y-115490401D01*
X167011693Y-115450245D01*
X167052200Y-115312290D01*
X167052200Y-115168512D01*
X167011693Y-115030557D01*
X166985886Y-114990401D01*
X167882836Y-114990401D01*
X167882835Y-114990400D01*
X167825632Y-114776914D01*
X167825629Y-114776908D01*
X167725800Y-114562823D01*
X167725799Y-114562821D01*
X167590313Y-114369327D01*
X167590308Y-114369321D01*
X167423282Y-114202295D01*
X167229778Y-114066800D01*
X167015692Y-113966971D01*
X167015686Y-113966968D01*
X166802200Y-113909765D01*
X166802200Y-114804899D01*
X166694515Y-114755721D01*
X166587963Y-114740401D01*
X166516437Y-114740401D01*
X166409885Y-114755721D01*
X166302200Y-114804899D01*
X166302200Y-113909765D01*
X166302199Y-113909765D01*
X166088713Y-113966968D01*
X166088707Y-113966971D01*
X165874622Y-114066800D01*
X165874620Y-114066801D01*
X165681126Y-114202287D01*
X165681120Y-114202292D01*
X165514091Y-114369321D01*
X165514090Y-114369323D01*
X165384080Y-114554996D01*
X165329503Y-114598620D01*
X165260004Y-114605813D01*
X165197650Y-114574291D01*
X165180930Y-114554995D01*
X165050694Y-114368998D01*
X164883602Y-114201907D01*
X164883595Y-114201902D01*
X164690034Y-114066368D01*
X164690030Y-114066366D01*
X164637700Y-114041964D01*
X164475863Y-113966498D01*
X164475859Y-113966497D01*
X164475855Y-113966495D01*
X164247613Y-113905339D01*
X164247603Y-113905337D01*
X164012201Y-113884742D01*
X164012199Y-113884742D01*
X163776796Y-113905337D01*
X163776786Y-113905339D01*
X163548544Y-113966495D01*
X163548535Y-113966499D01*
X163334371Y-114066365D01*
X163334369Y-114066366D01*
X163140797Y-114201906D01*
X162973705Y-114368998D01*
X162843775Y-114554559D01*
X162789198Y-114598184D01*
X162719700Y-114605378D01*
X162657345Y-114573855D01*
X162640625Y-114554559D01*
X162510699Y-114369005D01*
X162510689Y-114368993D01*
X162509011Y-114367315D01*
X162508508Y-114366395D01*
X162507218Y-114364857D01*
X162507527Y-114364597D01*
X162475531Y-114305989D01*
X162472700Y-114279642D01*
X162472700Y-111121158D01*
X162492385Y-111054119D01*
X162509022Y-111033474D01*
X162510695Y-111031802D01*
X162640626Y-110846241D01*
X162695201Y-110802618D01*
X162764699Y-110795424D01*
X162827054Y-110826947D01*
X162843774Y-110846242D01*
X162973705Y-111031802D01*
X163140799Y-111198896D01*
X163237584Y-111266666D01*
X163334365Y-111334433D01*
X163334367Y-111334434D01*
X163334370Y-111334436D01*
X163548537Y-111434304D01*
X163548543Y-111434305D01*
X163548544Y-111434306D01*
X163603485Y-111449027D01*
X163776792Y-111495464D01*
X163953234Y-111510901D01*
X164012199Y-111516060D01*
X164012200Y-111516060D01*
X164012201Y-111516060D01*
X164071166Y-111510901D01*
X164247608Y-111495464D01*
X164475863Y-111434304D01*
X164690030Y-111334436D01*
X164883601Y-111198896D01*
X165050695Y-111031802D01*
X165180930Y-110845806D01*
X165235507Y-110802182D01*
X165305005Y-110794988D01*
X165367360Y-110826511D01*
X165384079Y-110845806D01*
X165514090Y-111031479D01*
X165681117Y-111198506D01*
X165874621Y-111334001D01*
X166088707Y-111433830D01*
X166088716Y-111433834D01*
X166302200Y-111491035D01*
X166302200Y-110595902D01*
X166409885Y-110645081D01*
X166516437Y-110660401D01*
X166587963Y-110660401D01*
X166694515Y-110645081D01*
X166802200Y-110595902D01*
X166802200Y-111491034D01*
X167015683Y-111433834D01*
X167015692Y-111433830D01*
X167229778Y-111334001D01*
X167423282Y-111198506D01*
X167590305Y-111031483D01*
X167725800Y-110837979D01*
X167825629Y-110623893D01*
X167825632Y-110623887D01*
X167882836Y-110410401D01*
X166985886Y-110410401D01*
X167011693Y-110370245D01*
X167052200Y-110232290D01*
X167052200Y-110088512D01*
X167011693Y-109950557D01*
X166985886Y-109910401D01*
X167882836Y-109910401D01*
X167882835Y-109910400D01*
X167825632Y-109696914D01*
X167825629Y-109696908D01*
X167725800Y-109482823D01*
X167725799Y-109482821D01*
X167590313Y-109289327D01*
X167590308Y-109289321D01*
X167423282Y-109122295D01*
X167229778Y-108986800D01*
X167015692Y-108886971D01*
X167015686Y-108886968D01*
X166802200Y-108829765D01*
X166802200Y-109724899D01*
X166694515Y-109675721D01*
X166587963Y-109660401D01*
X166516437Y-109660401D01*
X166409885Y-109675721D01*
X166302200Y-109724899D01*
X166302200Y-108829765D01*
X166302199Y-108829765D01*
X166088713Y-108886968D01*
X166088707Y-108886971D01*
X165874622Y-108986800D01*
X165874620Y-108986801D01*
X165681126Y-109122287D01*
X165681120Y-109122292D01*
X165514091Y-109289321D01*
X165514090Y-109289323D01*
X165384080Y-109474996D01*
X165329503Y-109518620D01*
X165260004Y-109525813D01*
X165197650Y-109494291D01*
X165180930Y-109474995D01*
X165050694Y-109288998D01*
X164883602Y-109121907D01*
X164883595Y-109121902D01*
X164690034Y-108986368D01*
X164690030Y-108986366D01*
X164690030Y-108986365D01*
X164475863Y-108886498D01*
X164475859Y-108886497D01*
X164475855Y-108886495D01*
X164247613Y-108825339D01*
X164247603Y-108825337D01*
X164012201Y-108804742D01*
X164012199Y-108804742D01*
X163776796Y-108825337D01*
X163776786Y-108825339D01*
X163548544Y-108886495D01*
X163548535Y-108886499D01*
X163334371Y-108986365D01*
X163334369Y-108986366D01*
X163140797Y-109121906D01*
X162973705Y-109288998D01*
X162843775Y-109474559D01*
X162789198Y-109518184D01*
X162719700Y-109525378D01*
X162657345Y-109493855D01*
X162640625Y-109474559D01*
X162510694Y-109288998D01*
X162343602Y-109121907D01*
X162343595Y-109121902D01*
X162150034Y-108986368D01*
X162150030Y-108986366D01*
X162150030Y-108986365D01*
X161935863Y-108886498D01*
X161935859Y-108886497D01*
X161935855Y-108886495D01*
X161707613Y-108825339D01*
X161707603Y-108825337D01*
X161582101Y-108814356D01*
X161517033Y-108788903D01*
X161505229Y-108778509D01*
X155778811Y-103052092D01*
X155777714Y-103050967D01*
X155716860Y-102986949D01*
X155716859Y-102986948D01*
X155716858Y-102986947D01*
X155689003Y-102967559D01*
X155666508Y-102951902D01*
X155662745Y-102949064D01*
X155615212Y-102910305D01*
X155615205Y-102910300D01*
X155584758Y-102894397D01*
X155578050Y-102890334D01*
X155549848Y-102870705D01*
X155549845Y-102870703D01*
X155549844Y-102870703D01*
X155549840Y-102870701D01*
X155493479Y-102846514D01*
X155489223Y-102844493D01*
X155434856Y-102816094D01*
X155434849Y-102816091D01*
X155434848Y-102816091D01*
X155428807Y-102814362D01*
X155401829Y-102806642D01*
X155394429Y-102804008D01*
X155362856Y-102790459D01*
X155362857Y-102790459D01*
X155302765Y-102778109D01*
X155298190Y-102776986D01*
X155239219Y-102760113D01*
X155239224Y-102760113D01*
X155204957Y-102757503D01*
X155197179Y-102756412D01*
X155163541Y-102749500D01*
X155163540Y-102749500D01*
X155102201Y-102749500D01*
X155097494Y-102749321D01*
X155091920Y-102748896D01*
X155036323Y-102744662D01*
X155016388Y-102747201D01*
X155002239Y-102749003D01*
X154994410Y-102749500D01*
X118312298Y-102749500D01*
X118245259Y-102729815D01*
X118206759Y-102690597D01*
X118170212Y-102631344D01*
X118046156Y-102507288D01*
X117896834Y-102415186D01*
X117730297Y-102360001D01*
X117730295Y-102360000D01*
X117627510Y-102349500D01*
X115527498Y-102349500D01*
X115527481Y-102349501D01*
X115424703Y-102360000D01*
X115424700Y-102360001D01*
X115258168Y-102415185D01*
X115258163Y-102415187D01*
X115108842Y-102507289D01*
X114984789Y-102631342D01*
X114892687Y-102780663D01*
X114892685Y-102780668D01*
X114880947Y-102816091D01*
X114837501Y-102947203D01*
X114837501Y-102947204D01*
X114837500Y-102947204D01*
X114827000Y-103049983D01*
X114827000Y-104450001D01*
X114328000Y-104450001D01*
X114327999Y-103049992D01*
X114317499Y-102947203D01*
X114262314Y-102780666D01*
X114170212Y-102631344D01*
X114145737Y-102606869D01*
X114112252Y-102545546D01*
X114117236Y-102475854D01*
X114120625Y-102467674D01*
X114121721Y-102465274D01*
X114135338Y-102435459D01*
X114155023Y-102368420D01*
X114155024Y-102368416D01*
X114175500Y-102226000D01*
X114175500Y-95074499D01*
X114163947Y-94967045D01*
X114161563Y-94956086D01*
X114166542Y-94886396D01*
X114208410Y-94830460D01*
X114217624Y-94824188D01*
X114268656Y-94792712D01*
X114392712Y-94668656D01*
X114484814Y-94519334D01*
X114539999Y-94352797D01*
X114550500Y-94250009D01*
X114550499Y-93265450D01*
X114570183Y-93198412D01*
X114586813Y-93177775D01*
X115058786Y-92705802D01*
X115071048Y-92695980D01*
X115070865Y-92695759D01*
X115076873Y-92690788D01*
X115076877Y-92690786D01*
X115123649Y-92640977D01*
X115124891Y-92639697D01*
X115145120Y-92619470D01*
X115149373Y-92613986D01*
X115153150Y-92609563D01*
X115185062Y-92575582D01*
X115194714Y-92558023D01*
X115205389Y-92541772D01*
X115217674Y-92525936D01*
X115236186Y-92483152D01*
X115238742Y-92477935D01*
X115261197Y-92437092D01*
X115266180Y-92417680D01*
X115272477Y-92399291D01*
X115280438Y-92380895D01*
X115287729Y-92334853D01*
X115288906Y-92329166D01*
X115300500Y-92284019D01*
X115300499Y-92263986D01*
X115302027Y-92244583D01*
X115305159Y-92224808D01*
X115305160Y-92224804D01*
X115300773Y-92178395D01*
X115300499Y-92172599D01*
X115300499Y-90738271D01*
X116941700Y-90738271D01*
X116941701Y-90738277D01*
X116948108Y-90797884D01*
X116998402Y-90932729D01*
X116998406Y-90932736D01*
X117084652Y-91047945D01*
X117084655Y-91047948D01*
X117199864Y-91134194D01*
X117199871Y-91134198D01*
X117334717Y-91184492D01*
X117334716Y-91184492D01*
X117341644Y-91185236D01*
X117394327Y-91190901D01*
X119190072Y-91190900D01*
X119249683Y-91184492D01*
X119384531Y-91134197D01*
X119499746Y-91047947D01*
X119585996Y-90932732D01*
X119635010Y-90801317D01*
X119676881Y-90745385D01*
X119742345Y-90720967D01*
X119810618Y-90735818D01*
X119838872Y-90756970D01*
X119960799Y-90878896D01*
X120057584Y-90946666D01*
X120154365Y-91014433D01*
X120154367Y-91014434D01*
X120154370Y-91014436D01*
X120368537Y-91114304D01*
X120596792Y-91175464D01*
X120773234Y-91190901D01*
X120832199Y-91196060D01*
X120832200Y-91196060D01*
X120832201Y-91196060D01*
X120891166Y-91190901D01*
X121067608Y-91175464D01*
X121295863Y-91114304D01*
X121510030Y-91014436D01*
X121703601Y-90878896D01*
X121870695Y-90711802D01*
X122000930Y-90525806D01*
X122055507Y-90482182D01*
X122125005Y-90474988D01*
X122187360Y-90506511D01*
X122204079Y-90525806D01*
X122334090Y-90711479D01*
X122501117Y-90878506D01*
X122694621Y-91014001D01*
X122908707Y-91113830D01*
X122908716Y-91113834D01*
X123122200Y-91171035D01*
X123122200Y-90275902D01*
X123229885Y-90325081D01*
X123336437Y-90340401D01*
X123407963Y-90340401D01*
X123514515Y-90325081D01*
X123622199Y-90275902D01*
X123622199Y-91171035D01*
X123835683Y-91113834D01*
X123835692Y-91113830D01*
X124049778Y-91014001D01*
X124243282Y-90878506D01*
X124410305Y-90711483D01*
X124540319Y-90525806D01*
X124594896Y-90482182D01*
X124664395Y-90474989D01*
X124726749Y-90506511D01*
X124743469Y-90525806D01*
X124873705Y-90711802D01*
X125040799Y-90878896D01*
X125137584Y-90946666D01*
X125234365Y-91014433D01*
X125234367Y-91014434D01*
X125234370Y-91014436D01*
X125448537Y-91114304D01*
X125676792Y-91175464D01*
X125853234Y-91190901D01*
X125912199Y-91196060D01*
X125912200Y-91196060D01*
X125912201Y-91196060D01*
X125971166Y-91190901D01*
X126147608Y-91175464D01*
X126375863Y-91114304D01*
X126590030Y-91014436D01*
X126783601Y-90878896D01*
X126950695Y-90711802D01*
X127080626Y-90526242D01*
X127135202Y-90482618D01*
X127204700Y-90475424D01*
X127267055Y-90506947D01*
X127283775Y-90526243D01*
X127413700Y-90711796D01*
X127413705Y-90711802D01*
X127580799Y-90878896D01*
X127677584Y-90946665D01*
X127774365Y-91014433D01*
X127774367Y-91014434D01*
X127774370Y-91014436D01*
X127988537Y-91114304D01*
X128216792Y-91175464D01*
X128393234Y-91190901D01*
X128452199Y-91196060D01*
X128452200Y-91196060D01*
X128452201Y-91196060D01*
X128511166Y-91190901D01*
X128687608Y-91175464D01*
X128915863Y-91114304D01*
X129130030Y-91014436D01*
X129323601Y-90878896D01*
X129490695Y-90711802D01*
X129620626Y-90526242D01*
X129675202Y-90482618D01*
X129744700Y-90475424D01*
X129807055Y-90506947D01*
X129823775Y-90526243D01*
X129953700Y-90711796D01*
X129953705Y-90711802D01*
X130120799Y-90878896D01*
X130217584Y-90946666D01*
X130314365Y-91014433D01*
X130314367Y-91014434D01*
X130314370Y-91014436D01*
X130528537Y-91114304D01*
X130756792Y-91175464D01*
X130933234Y-91190901D01*
X130992199Y-91196060D01*
X130992200Y-91196060D01*
X130992201Y-91196060D01*
X131051166Y-91190901D01*
X131227608Y-91175464D01*
X131455863Y-91114304D01*
X131670030Y-91014436D01*
X131863601Y-90878896D01*
X132030695Y-90711802D01*
X132160626Y-90526242D01*
X132215202Y-90482618D01*
X132284700Y-90475424D01*
X132347055Y-90506947D01*
X132363775Y-90526243D01*
X132493700Y-90711796D01*
X132493705Y-90711802D01*
X132660799Y-90878896D01*
X132757584Y-90946665D01*
X132854365Y-91014433D01*
X132854367Y-91014434D01*
X132854370Y-91014436D01*
X133068537Y-91114304D01*
X133296792Y-91175464D01*
X133473234Y-91190901D01*
X133532199Y-91196060D01*
X133532200Y-91196060D01*
X133532201Y-91196060D01*
X133591166Y-91190901D01*
X133767608Y-91175464D01*
X133995863Y-91114304D01*
X134210030Y-91014436D01*
X134403601Y-90878896D01*
X134570695Y-90711802D01*
X134700626Y-90526242D01*
X134755202Y-90482618D01*
X134824700Y-90475424D01*
X134887055Y-90506947D01*
X134903775Y-90526243D01*
X135033700Y-90711796D01*
X135033705Y-90711802D01*
X135200799Y-90878896D01*
X135297584Y-90946666D01*
X135394365Y-91014433D01*
X135394367Y-91014434D01*
X135394370Y-91014436D01*
X135608537Y-91114304D01*
X135836792Y-91175464D01*
X136013234Y-91190901D01*
X136072199Y-91196060D01*
X136072200Y-91196060D01*
X136072201Y-91196060D01*
X136131166Y-91190901D01*
X136307608Y-91175464D01*
X136535863Y-91114304D01*
X136750030Y-91014436D01*
X136943601Y-90878896D01*
X137110695Y-90711802D01*
X137240626Y-90526242D01*
X137295202Y-90482618D01*
X137364700Y-90475424D01*
X137427055Y-90506947D01*
X137443775Y-90526243D01*
X137573700Y-90711796D01*
X137573705Y-90711802D01*
X137740799Y-90878896D01*
X137837584Y-90946666D01*
X137934365Y-91014433D01*
X137934367Y-91014434D01*
X137934370Y-91014436D01*
X138148537Y-91114304D01*
X138376792Y-91175464D01*
X138553234Y-91190901D01*
X138612199Y-91196060D01*
X138612200Y-91196060D01*
X138612201Y-91196060D01*
X138671166Y-91190901D01*
X138847608Y-91175464D01*
X139075863Y-91114304D01*
X139290030Y-91014436D01*
X139483601Y-90878896D01*
X139650695Y-90711802D01*
X139780626Y-90526242D01*
X139835202Y-90482618D01*
X139904700Y-90475424D01*
X139967055Y-90506947D01*
X139983775Y-90526243D01*
X140113700Y-90711796D01*
X140113705Y-90711802D01*
X140280799Y-90878896D01*
X140377584Y-90946666D01*
X140474365Y-91014433D01*
X140474367Y-91014434D01*
X140474370Y-91014436D01*
X140688537Y-91114304D01*
X140916792Y-91175464D01*
X141093234Y-91190901D01*
X141152199Y-91196060D01*
X141152200Y-91196060D01*
X141152201Y-91196060D01*
X141211166Y-91190901D01*
X141387608Y-91175464D01*
X141615863Y-91114304D01*
X141830030Y-91014436D01*
X142023601Y-90878896D01*
X142190695Y-90711802D01*
X142320626Y-90526242D01*
X142375202Y-90482618D01*
X142444700Y-90475424D01*
X142507055Y-90506947D01*
X142523775Y-90526243D01*
X142653700Y-90711796D01*
X142653705Y-90711802D01*
X142820799Y-90878896D01*
X142917584Y-90946666D01*
X143014365Y-91014433D01*
X143014367Y-91014434D01*
X143014370Y-91014436D01*
X143228537Y-91114304D01*
X143456792Y-91175464D01*
X143633234Y-91190901D01*
X143692199Y-91196060D01*
X143692200Y-91196060D01*
X143692201Y-91196060D01*
X143751166Y-91190901D01*
X143927608Y-91175464D01*
X144155863Y-91114304D01*
X144370030Y-91014436D01*
X144563601Y-90878896D01*
X144730695Y-90711802D01*
X144860626Y-90526242D01*
X144915202Y-90482618D01*
X144984700Y-90475424D01*
X145047055Y-90506947D01*
X145063775Y-90526243D01*
X145193700Y-90711796D01*
X145193705Y-90711802D01*
X145360799Y-90878896D01*
X145457584Y-90946666D01*
X145554365Y-91014433D01*
X145554367Y-91014434D01*
X145554370Y-91014436D01*
X145768537Y-91114304D01*
X145996792Y-91175464D01*
X146173234Y-91190901D01*
X146232199Y-91196060D01*
X146232200Y-91196060D01*
X146232201Y-91196060D01*
X146291166Y-91190901D01*
X146467608Y-91175464D01*
X146695863Y-91114304D01*
X146910030Y-91014436D01*
X147103601Y-90878896D01*
X147270695Y-90711802D01*
X147400626Y-90526242D01*
X147455202Y-90482618D01*
X147524700Y-90475424D01*
X147587055Y-90506947D01*
X147603775Y-90526243D01*
X147733700Y-90711796D01*
X147733705Y-90711802D01*
X147900799Y-90878896D01*
X147997584Y-90946666D01*
X148094365Y-91014433D01*
X148094367Y-91014434D01*
X148094370Y-91014436D01*
X148308537Y-91114304D01*
X148536792Y-91175464D01*
X148713234Y-91190901D01*
X148772199Y-91196060D01*
X148772200Y-91196060D01*
X148772201Y-91196060D01*
X148831166Y-91190901D01*
X149007608Y-91175464D01*
X149108073Y-91148544D01*
X149177922Y-91150207D01*
X149227847Y-91180638D01*
X162255993Y-104208784D01*
X162265818Y-104221048D01*
X162266039Y-104220866D01*
X162271009Y-104226874D01*
X162320748Y-104273582D01*
X162322115Y-104274906D01*
X162342329Y-104295120D01*
X162347803Y-104299366D01*
X162352241Y-104303156D01*
X162386217Y-104335062D01*
X162386221Y-104335064D01*
X162403772Y-104344713D01*
X162420030Y-104355392D01*
X162435863Y-104367674D01*
X162457814Y-104377172D01*
X162478636Y-104386183D01*
X162483880Y-104388752D01*
X162524707Y-104411197D01*
X162544111Y-104416179D01*
X162562509Y-104422478D01*
X162580904Y-104430438D01*
X162626928Y-104437726D01*
X162632631Y-104438907D01*
X162677780Y-104450500D01*
X162697815Y-104450500D01*
X162717212Y-104452026D01*
X162736995Y-104455160D01*
X162783382Y-104450775D01*
X162789221Y-104450500D01*
X184095501Y-104450500D01*
X184162540Y-104470185D01*
X184208295Y-104522989D01*
X184219501Y-104574500D01*
X184219501Y-104722876D01*
X184225908Y-104782483D01*
X184276202Y-104917328D01*
X184276206Y-104917335D01*
X184362452Y-105032544D01*
X184362455Y-105032547D01*
X184477664Y-105118793D01*
X184477671Y-105118797D01*
X184612517Y-105169091D01*
X184612516Y-105169091D01*
X184619444Y-105169835D01*
X184672127Y-105175500D01*
X186467872Y-105175499D01*
X186527483Y-105169091D01*
X186662331Y-105118796D01*
X186777546Y-105032546D01*
X186863796Y-104917331D01*
X186914091Y-104782483D01*
X186920500Y-104722873D01*
X186920500Y-104574500D01*
X186940185Y-104507461D01*
X186992989Y-104461706D01*
X187044500Y-104450500D01*
X189175501Y-104450500D01*
X189242540Y-104470185D01*
X189288295Y-104522989D01*
X189299501Y-104574500D01*
X189299501Y-104722876D01*
X189305908Y-104782483D01*
X189356202Y-104917328D01*
X189356206Y-104917335D01*
X189442452Y-105032544D01*
X189442455Y-105032547D01*
X189557664Y-105118793D01*
X189557671Y-105118797D01*
X189692517Y-105169091D01*
X189692516Y-105169091D01*
X189699444Y-105169835D01*
X189752127Y-105175500D01*
X191547872Y-105175499D01*
X191607483Y-105169091D01*
X191742331Y-105118796D01*
X191857546Y-105032546D01*
X191943796Y-104917331D01*
X191994091Y-104782483D01*
X192000500Y-104722873D01*
X192000499Y-102927128D01*
X191994434Y-102870705D01*
X191994091Y-102867516D01*
X191943797Y-102732671D01*
X191943793Y-102732664D01*
X191857547Y-102617455D01*
X191857544Y-102617452D01*
X191742335Y-102531206D01*
X191742328Y-102531202D01*
X191610917Y-102482189D01*
X191554983Y-102440318D01*
X191530566Y-102374853D01*
X191545418Y-102306580D01*
X191566563Y-102278332D01*
X191688495Y-102156401D01*
X191824035Y-101962830D01*
X191923903Y-101748663D01*
X191985063Y-101520408D01*
X192005659Y-101285000D01*
X191985063Y-101049592D01*
X191923903Y-100821337D01*
X191824035Y-100607171D01*
X191823652Y-100606623D01*
X191688494Y-100413597D01*
X191521402Y-100246506D01*
X191521395Y-100246501D01*
X191327834Y-100110967D01*
X191327830Y-100110965D01*
X191327830Y-100110964D01*
X191113663Y-100011097D01*
X191113659Y-100011096D01*
X191113655Y-100011094D01*
X190885413Y-99949938D01*
X190885403Y-99949936D01*
X190650001Y-99929341D01*
X190649999Y-99929341D01*
X190414596Y-99949936D01*
X190414586Y-99949938D01*
X190186344Y-100011094D01*
X190186335Y-100011098D01*
X189972171Y-100110964D01*
X189972169Y-100110965D01*
X189778597Y-100246505D01*
X189611505Y-100413597D01*
X189476348Y-100606623D01*
X189421771Y-100650248D01*
X189374773Y-100659500D01*
X186845227Y-100659500D01*
X186778188Y-100639815D01*
X186743652Y-100606623D01*
X186608494Y-100413597D01*
X186441402Y-100246506D01*
X186441395Y-100246501D01*
X186247834Y-100110967D01*
X186247830Y-100110965D01*
X186247829Y-100110964D01*
X186033663Y-100011097D01*
X186033659Y-100011096D01*
X186033655Y-100011094D01*
X185805413Y-99949938D01*
X185805403Y-99949936D01*
X185570001Y-99929341D01*
X185569999Y-99929341D01*
X185334596Y-99949936D01*
X185334586Y-99949938D01*
X185106344Y-100011094D01*
X185106335Y-100011098D01*
X184892171Y-100110964D01*
X184892169Y-100110965D01*
X184698597Y-100246505D01*
X184531505Y-100413597D01*
X184396348Y-100606623D01*
X184341771Y-100650248D01*
X184294773Y-100659500D01*
X163067252Y-100659500D01*
X163000213Y-100639815D01*
X162979571Y-100623181D01*
X153764131Y-91407741D01*
X153730646Y-91346418D01*
X153735630Y-91276726D01*
X153777502Y-91220793D01*
X153842966Y-91196376D01*
X153851812Y-91196060D01*
X153852201Y-91196060D01*
X153911166Y-91190901D01*
X154087608Y-91175464D01*
X154188073Y-91148544D01*
X154257922Y-91150207D01*
X154307847Y-91180638D01*
X159685996Y-96558788D01*
X159695821Y-96571051D01*
X159696042Y-96570869D01*
X159701010Y-96576874D01*
X159750731Y-96623566D01*
X159752131Y-96624923D01*
X159772322Y-96645115D01*
X159772326Y-96645118D01*
X159772328Y-96645120D01*
X159777810Y-96649373D01*
X159782242Y-96653157D01*
X159816217Y-96685062D01*
X159833775Y-96694714D01*
X159850032Y-96705393D01*
X159865863Y-96717673D01*
X159885536Y-96726186D01*
X159908632Y-96736182D01*
X159913876Y-96738750D01*
X159954707Y-96761197D01*
X159967322Y-96764435D01*
X159974104Y-96766177D01*
X159992518Y-96772481D01*
X160010903Y-96780438D01*
X160056956Y-96787732D01*
X160062625Y-96788906D01*
X160107780Y-96800500D01*
X160127815Y-96800500D01*
X160147212Y-96802026D01*
X160166995Y-96805160D01*
X160213382Y-96800775D01*
X160219221Y-96800500D01*
X184095501Y-96800500D01*
X184162540Y-96820185D01*
X184208295Y-96872989D01*
X184219501Y-96924500D01*
X184219501Y-97072876D01*
X184225908Y-97132483D01*
X184276202Y-97267328D01*
X184276206Y-97267335D01*
X184362452Y-97382544D01*
X184362455Y-97382547D01*
X184477664Y-97468793D01*
X184477671Y-97468797D01*
X184612517Y-97519091D01*
X184612516Y-97519091D01*
X184619444Y-97519835D01*
X184672127Y-97525500D01*
X186467872Y-97525499D01*
X186527483Y-97519091D01*
X186662331Y-97468796D01*
X186777546Y-97382546D01*
X186863796Y-97267331D01*
X186914091Y-97132483D01*
X186920500Y-97072873D01*
X186920500Y-96924499D01*
X186940185Y-96857461D01*
X186992989Y-96811706D01*
X187044500Y-96800500D01*
X189175501Y-96800500D01*
X189242540Y-96820185D01*
X189288295Y-96872989D01*
X189299501Y-96924500D01*
X189299501Y-97072876D01*
X189305908Y-97132483D01*
X189356202Y-97267328D01*
X189356206Y-97267335D01*
X189442452Y-97382544D01*
X189442455Y-97382547D01*
X189557664Y-97468793D01*
X189557671Y-97468797D01*
X189692517Y-97519091D01*
X189692516Y-97519091D01*
X189699444Y-97519835D01*
X189752127Y-97525500D01*
X191547872Y-97525499D01*
X191607483Y-97519091D01*
X191742331Y-97468796D01*
X191857546Y-97382546D01*
X191943796Y-97267331D01*
X191994091Y-97132483D01*
X192000500Y-97072873D01*
X192000499Y-95277128D01*
X191994091Y-95217517D01*
X191943796Y-95082669D01*
X191943795Y-95082668D01*
X191943793Y-95082664D01*
X191857547Y-94967455D01*
X191857544Y-94967452D01*
X191742335Y-94881206D01*
X191742328Y-94881202D01*
X191610917Y-94832189D01*
X191554983Y-94790318D01*
X191530566Y-94724853D01*
X191545418Y-94656580D01*
X191566563Y-94628332D01*
X191688495Y-94506401D01*
X191824035Y-94312830D01*
X191923903Y-94098663D01*
X191985063Y-93870408D01*
X192005659Y-93635000D01*
X191985063Y-93399592D01*
X191923903Y-93171337D01*
X191824035Y-92957171D01*
X191823652Y-92956623D01*
X191688494Y-92763597D01*
X191521402Y-92596506D01*
X191521395Y-92596501D01*
X191327834Y-92460967D01*
X191327830Y-92460965D01*
X191276647Y-92437098D01*
X191113663Y-92361097D01*
X191113659Y-92361096D01*
X191113655Y-92361094D01*
X190885413Y-92299938D01*
X190885403Y-92299936D01*
X190650001Y-92279341D01*
X190649999Y-92279341D01*
X190414596Y-92299936D01*
X190414586Y-92299938D01*
X190186344Y-92361094D01*
X190186335Y-92361098D01*
X189972171Y-92460964D01*
X189972169Y-92460965D01*
X189778597Y-92596505D01*
X189611505Y-92763597D01*
X189476348Y-92956623D01*
X189421771Y-93000248D01*
X189374773Y-93009500D01*
X186845227Y-93009500D01*
X186778188Y-92989815D01*
X186743652Y-92956623D01*
X186608494Y-92763597D01*
X186441402Y-92596506D01*
X186441395Y-92596501D01*
X186247834Y-92460967D01*
X186247830Y-92460965D01*
X186196647Y-92437098D01*
X186033663Y-92361097D01*
X186033659Y-92361096D01*
X186033655Y-92361094D01*
X185805413Y-92299938D01*
X185805403Y-92299936D01*
X185570001Y-92279341D01*
X185569999Y-92279341D01*
X185334596Y-92299936D01*
X185334586Y-92299938D01*
X185106344Y-92361094D01*
X185106335Y-92361098D01*
X184892171Y-92460964D01*
X184892169Y-92460965D01*
X184698597Y-92596505D01*
X184531505Y-92763597D01*
X184396348Y-92956623D01*
X184341771Y-93000248D01*
X184294773Y-93009500D01*
X160497252Y-93009500D01*
X160430213Y-92989815D01*
X160409571Y-92973181D01*
X158844131Y-91407741D01*
X158810646Y-91346418D01*
X158815630Y-91276726D01*
X158857502Y-91220793D01*
X158922966Y-91196376D01*
X158931812Y-91196060D01*
X158932201Y-91196060D01*
X158991166Y-91190901D01*
X159167608Y-91175464D01*
X159395863Y-91114304D01*
X159610030Y-91014436D01*
X159803601Y-90878896D01*
X159970695Y-90711802D01*
X160100626Y-90526242D01*
X160155202Y-90482618D01*
X160224700Y-90475424D01*
X160287055Y-90506947D01*
X160303775Y-90526243D01*
X160433700Y-90711796D01*
X160433705Y-90711802D01*
X160600799Y-90878896D01*
X160697584Y-90946666D01*
X160794365Y-91014433D01*
X160794367Y-91014434D01*
X160794370Y-91014436D01*
X161008537Y-91114304D01*
X161236792Y-91175464D01*
X161413234Y-91190901D01*
X161472199Y-91196060D01*
X161472200Y-91196060D01*
X161472201Y-91196060D01*
X161531166Y-91190901D01*
X161707608Y-91175464D01*
X161935863Y-91114304D01*
X162150030Y-91014436D01*
X162343601Y-90878896D01*
X162510695Y-90711802D01*
X162640626Y-90526241D01*
X162695201Y-90482618D01*
X162764699Y-90475424D01*
X162827054Y-90506947D01*
X162843774Y-90526242D01*
X162973705Y-90711802D01*
X163140799Y-90878896D01*
X163237584Y-90946665D01*
X163334365Y-91014433D01*
X163334367Y-91014434D01*
X163334370Y-91014436D01*
X163548537Y-91114304D01*
X163776792Y-91175464D01*
X163953234Y-91190901D01*
X164012199Y-91196060D01*
X164012200Y-91196060D01*
X164012201Y-91196060D01*
X164071166Y-91190901D01*
X164247608Y-91175464D01*
X164475863Y-91114304D01*
X164690030Y-91014436D01*
X164883601Y-90878896D01*
X165050695Y-90711802D01*
X165180626Y-90526242D01*
X165235202Y-90482618D01*
X165304700Y-90475424D01*
X165367055Y-90506947D01*
X165383775Y-90526243D01*
X165513700Y-90711796D01*
X165513705Y-90711802D01*
X165680799Y-90878896D01*
X165777584Y-90946665D01*
X165874365Y-91014433D01*
X165874367Y-91014434D01*
X165874370Y-91014436D01*
X166088537Y-91114304D01*
X166316792Y-91175464D01*
X166493234Y-91190901D01*
X166552199Y-91196060D01*
X166552200Y-91196060D01*
X166552201Y-91196060D01*
X166611166Y-91190901D01*
X166787608Y-91175464D01*
X167015863Y-91114304D01*
X167230030Y-91014436D01*
X167423601Y-90878896D01*
X167590695Y-90711802D01*
X167726235Y-90518231D01*
X167826103Y-90304064D01*
X167887263Y-90075809D01*
X167907859Y-89840401D01*
X167887263Y-89604993D01*
X167826103Y-89376738D01*
X167726235Y-89162572D01*
X167720931Y-89154996D01*
X167590694Y-88968998D01*
X167423602Y-88801907D01*
X167423601Y-88801906D01*
X167251015Y-88681060D01*
X167230576Y-88666748D01*
X167186951Y-88612171D01*
X167177700Y-88565173D01*
X167177700Y-88223271D01*
X171879500Y-88223271D01*
X171879501Y-88223277D01*
X171885908Y-88282884D01*
X171936202Y-88417729D01*
X171936206Y-88417736D01*
X172022452Y-88532945D01*
X172022455Y-88532948D01*
X172137664Y-88619194D01*
X172137671Y-88619198D01*
X172272517Y-88669492D01*
X172272516Y-88669492D01*
X172279444Y-88670236D01*
X172332127Y-88675901D01*
X174127872Y-88675900D01*
X174187483Y-88669492D01*
X174322331Y-88619197D01*
X174437546Y-88532947D01*
X174523796Y-88417732D01*
X174572810Y-88286317D01*
X174614681Y-88230385D01*
X174680145Y-88205967D01*
X174748418Y-88220818D01*
X174776673Y-88241970D01*
X174898599Y-88363896D01*
X174995384Y-88431666D01*
X175092165Y-88499433D01*
X175092167Y-88499434D01*
X175092170Y-88499436D01*
X175306337Y-88599304D01*
X175534592Y-88660464D01*
X175711034Y-88675901D01*
X175769999Y-88681060D01*
X175770000Y-88681060D01*
X175770001Y-88681060D01*
X175828966Y-88675901D01*
X176005408Y-88660464D01*
X176233663Y-88599304D01*
X176447830Y-88499436D01*
X176641401Y-88363896D01*
X176808495Y-88196802D01*
X176938424Y-88011243D01*
X176993002Y-87967618D01*
X177062500Y-87960424D01*
X177124855Y-87991947D01*
X177141575Y-88011243D01*
X177271500Y-88196796D01*
X177271505Y-88196802D01*
X177438599Y-88363896D01*
X177535384Y-88431666D01*
X177632165Y-88499433D01*
X177632167Y-88499434D01*
X177632170Y-88499436D01*
X177846337Y-88599304D01*
X178074592Y-88660464D01*
X178251034Y-88675901D01*
X178309999Y-88681060D01*
X178310000Y-88681060D01*
X178310001Y-88681060D01*
X178368966Y-88675901D01*
X178545408Y-88660464D01*
X178773663Y-88599304D01*
X178987830Y-88499436D01*
X179181401Y-88363896D01*
X179348495Y-88196802D01*
X179478424Y-88011243D01*
X179533002Y-87967618D01*
X179602500Y-87960424D01*
X179664855Y-87991947D01*
X179681575Y-88011243D01*
X179811500Y-88196796D01*
X179811505Y-88196802D01*
X179978599Y-88363896D01*
X180075384Y-88431666D01*
X180172165Y-88499433D01*
X180172167Y-88499434D01*
X180172170Y-88499436D01*
X180386337Y-88599304D01*
X180614592Y-88660464D01*
X180791034Y-88675901D01*
X180849999Y-88681060D01*
X180850000Y-88681060D01*
X180850001Y-88681060D01*
X180908966Y-88675901D01*
X181085408Y-88660464D01*
X181313663Y-88599304D01*
X181527830Y-88499436D01*
X181721401Y-88363896D01*
X181888495Y-88196802D01*
X182018424Y-88011243D01*
X182073002Y-87967618D01*
X182142500Y-87960424D01*
X182204855Y-87991947D01*
X182221575Y-88011243D01*
X182351500Y-88196796D01*
X182351505Y-88196802D01*
X182518599Y-88363896D01*
X182615384Y-88431666D01*
X182712165Y-88499433D01*
X182712167Y-88499434D01*
X182712170Y-88499436D01*
X182926337Y-88599304D01*
X183154592Y-88660464D01*
X183331034Y-88675901D01*
X183389999Y-88681060D01*
X183390000Y-88681060D01*
X183390001Y-88681060D01*
X183448966Y-88675901D01*
X183625408Y-88660464D01*
X183853663Y-88599304D01*
X184067830Y-88499436D01*
X184261401Y-88363896D01*
X184428495Y-88196802D01*
X184558424Y-88011243D01*
X184613002Y-87967618D01*
X184682500Y-87960424D01*
X184744855Y-87991947D01*
X184761575Y-88011243D01*
X184891500Y-88196796D01*
X184891505Y-88196802D01*
X185058599Y-88363896D01*
X185155384Y-88431666D01*
X185252165Y-88499433D01*
X185252167Y-88499434D01*
X185252170Y-88499436D01*
X185466337Y-88599304D01*
X185694592Y-88660464D01*
X185871034Y-88675901D01*
X185929999Y-88681060D01*
X185930000Y-88681060D01*
X185930001Y-88681060D01*
X185988966Y-88675901D01*
X186165408Y-88660464D01*
X186393663Y-88599304D01*
X186607830Y-88499436D01*
X186801401Y-88363896D01*
X186968495Y-88196802D01*
X187104035Y-88003231D01*
X187203903Y-87789064D01*
X187265063Y-87560809D01*
X187285659Y-87325401D01*
X187265063Y-87089993D01*
X187203903Y-86861738D01*
X187104035Y-86647572D01*
X187098425Y-86639559D01*
X186968494Y-86453998D01*
X186801402Y-86286907D01*
X186801395Y-86286902D01*
X186607834Y-86151368D01*
X186607830Y-86151366D01*
X186578521Y-86137699D01*
X186393663Y-86051498D01*
X186393659Y-86051497D01*
X186393655Y-86051495D01*
X186165413Y-85990339D01*
X186165403Y-85990337D01*
X185930001Y-85969742D01*
X185929999Y-85969742D01*
X185694596Y-85990337D01*
X185694586Y-85990339D01*
X185466344Y-86051495D01*
X185466337Y-86051497D01*
X185466337Y-86051498D01*
X185460549Y-86054197D01*
X185252171Y-86151365D01*
X185252169Y-86151366D01*
X185058597Y-86286906D01*
X184891505Y-86453998D01*
X184761575Y-86639559D01*
X184706998Y-86683184D01*
X184637500Y-86690378D01*
X184575145Y-86658855D01*
X184558425Y-86639559D01*
X184428494Y-86453998D01*
X184261404Y-86286908D01*
X184193375Y-86239273D01*
X184149751Y-86184695D01*
X184140500Y-86137699D01*
X184140500Y-80893101D01*
X184160185Y-80826062D01*
X184193375Y-80791527D01*
X184261401Y-80743896D01*
X184428495Y-80576802D01*
X184558426Y-80391242D01*
X184613002Y-80347618D01*
X184682500Y-80340424D01*
X184744855Y-80371947D01*
X184761575Y-80391243D01*
X184891500Y-80576796D01*
X184891505Y-80576802D01*
X185058599Y-80743896D01*
X185155384Y-80811666D01*
X185252165Y-80879433D01*
X185252167Y-80879434D01*
X185252170Y-80879436D01*
X185466337Y-80979304D01*
X185694592Y-81040464D01*
X185871034Y-81055901D01*
X185929999Y-81061060D01*
X185930000Y-81061060D01*
X185930001Y-81061060D01*
X185988966Y-81055901D01*
X186165408Y-81040464D01*
X186393663Y-80979304D01*
X186607830Y-80879436D01*
X186801401Y-80743896D01*
X186968495Y-80576802D01*
X187104035Y-80383231D01*
X187203903Y-80169064D01*
X187249202Y-80000002D01*
X191694652Y-80000002D01*
X191714028Y-80357368D01*
X191714029Y-80357385D01*
X191771926Y-80710539D01*
X191771932Y-80710565D01*
X191867672Y-81055392D01*
X191867674Y-81055399D01*
X192000142Y-81387870D01*
X192000151Y-81387888D01*
X192167784Y-81704077D01*
X192167790Y-81704086D01*
X192368634Y-82000309D01*
X192368641Y-82000319D01*
X192600331Y-82273085D01*
X192600332Y-82273086D01*
X192860163Y-82519211D01*
X193145081Y-82735800D01*
X193451747Y-82920315D01*
X193451749Y-82920316D01*
X193451751Y-82920317D01*
X193451755Y-82920319D01*
X193776552Y-83070585D01*
X193776565Y-83070591D01*
X194115726Y-83184868D01*
X194465254Y-83261805D01*
X194821052Y-83300500D01*
X194821058Y-83300500D01*
X195178942Y-83300500D01*
X195178948Y-83300500D01*
X195534746Y-83261805D01*
X195884274Y-83184868D01*
X196223435Y-83070591D01*
X196548253Y-82920315D01*
X196854919Y-82735800D01*
X197139837Y-82519211D01*
X197399668Y-82273086D01*
X197631365Y-82000311D01*
X197832211Y-81704085D01*
X197999853Y-81387880D01*
X198132324Y-81055403D01*
X198228071Y-80710552D01*
X198281732Y-80383235D01*
X198285970Y-80357385D01*
X198285970Y-80357382D01*
X198285972Y-80357371D01*
X198305348Y-80000000D01*
X198285972Y-79642629D01*
X198257670Y-79469997D01*
X198228073Y-79289460D01*
X198228072Y-79289459D01*
X198228071Y-79289448D01*
X198164570Y-79060738D01*
X198132327Y-78944607D01*
X198132325Y-78944600D01*
X197999857Y-78612129D01*
X197999848Y-78612111D01*
X197832215Y-78295922D01*
X197832213Y-78295919D01*
X197832211Y-78295915D01*
X197631365Y-77999689D01*
X197631361Y-77999684D01*
X197631358Y-77999680D01*
X197399668Y-77726914D01*
X197399667Y-77726913D01*
X197139837Y-77480789D01*
X197139830Y-77480783D01*
X197139827Y-77480781D01*
X197072245Y-77429407D01*
X196854919Y-77264200D01*
X196548253Y-77079685D01*
X196548252Y-77079684D01*
X196548248Y-77079682D01*
X196548244Y-77079680D01*
X196223447Y-76929414D01*
X196223441Y-76929411D01*
X196223435Y-76929409D01*
X196053854Y-76872270D01*
X195884273Y-76815131D01*
X195534744Y-76738194D01*
X195178949Y-76699500D01*
X195178948Y-76699500D01*
X194821052Y-76699500D01*
X194821050Y-76699500D01*
X194465255Y-76738194D01*
X194115726Y-76815131D01*
X193859970Y-76901306D01*
X193776565Y-76929409D01*
X193776562Y-76929410D01*
X193776563Y-76929410D01*
X193776552Y-76929414D01*
X193451755Y-77079680D01*
X193451751Y-77079682D01*
X193223367Y-77217096D01*
X193145081Y-77264200D01*
X193056768Y-77331333D01*
X192860172Y-77480781D01*
X192860163Y-77480789D01*
X192600331Y-77726914D01*
X192368641Y-77999680D01*
X192368634Y-77999690D01*
X192167790Y-78295913D01*
X192167784Y-78295922D01*
X192000151Y-78612111D01*
X192000142Y-78612129D01*
X191867674Y-78944600D01*
X191867672Y-78944607D01*
X191771932Y-79289434D01*
X191771926Y-79289460D01*
X191714029Y-79642614D01*
X191714028Y-79642631D01*
X191694652Y-79999997D01*
X191694652Y-80000002D01*
X187249202Y-80000002D01*
X187265063Y-79940809D01*
X187285659Y-79705401D01*
X187265063Y-79469993D01*
X187203903Y-79241738D01*
X187104035Y-79027572D01*
X187098425Y-79019559D01*
X186968494Y-78833998D01*
X186801402Y-78666907D01*
X186801395Y-78666902D01*
X186607834Y-78531368D01*
X186607830Y-78531366D01*
X186607829Y-78531365D01*
X186393663Y-78431498D01*
X186393659Y-78431497D01*
X186393655Y-78431495D01*
X186165413Y-78370339D01*
X186165403Y-78370337D01*
X185930001Y-78349742D01*
X185929999Y-78349742D01*
X185694596Y-78370337D01*
X185694586Y-78370339D01*
X185466344Y-78431495D01*
X185466335Y-78431499D01*
X185252171Y-78531365D01*
X185252169Y-78531366D01*
X185058597Y-78666906D01*
X184891505Y-78833998D01*
X184761575Y-79019559D01*
X184706998Y-79063184D01*
X184637500Y-79070378D01*
X184575145Y-79038855D01*
X184558425Y-79019559D01*
X184428494Y-78833998D01*
X184261402Y-78666907D01*
X184261395Y-78666902D01*
X184067834Y-78531368D01*
X184067830Y-78531366D01*
X184067829Y-78531365D01*
X183853663Y-78431498D01*
X183853659Y-78431497D01*
X183853655Y-78431495D01*
X183625413Y-78370339D01*
X183625403Y-78370337D01*
X183390001Y-78349742D01*
X183389999Y-78349742D01*
X183154596Y-78370337D01*
X183154586Y-78370339D01*
X182926344Y-78431495D01*
X182926335Y-78431499D01*
X182712171Y-78531365D01*
X182712169Y-78531366D01*
X182518597Y-78666906D01*
X182351505Y-78833998D01*
X182221575Y-79019559D01*
X182166998Y-79063184D01*
X182097500Y-79070378D01*
X182035145Y-79038855D01*
X182018425Y-79019559D01*
X181888494Y-78833998D01*
X181721402Y-78666907D01*
X181721395Y-78666902D01*
X181527834Y-78531368D01*
X181527830Y-78531366D01*
X181527828Y-78531365D01*
X181313663Y-78431498D01*
X181313659Y-78431497D01*
X181313655Y-78431495D01*
X181085413Y-78370339D01*
X181085403Y-78370337D01*
X180850001Y-78349742D01*
X180849999Y-78349742D01*
X180614596Y-78370337D01*
X180614586Y-78370339D01*
X180386344Y-78431495D01*
X180386335Y-78431499D01*
X180172171Y-78531365D01*
X180172169Y-78531366D01*
X179978597Y-78666906D01*
X179811505Y-78833998D01*
X179681575Y-79019559D01*
X179626998Y-79063184D01*
X179557500Y-79070378D01*
X179495145Y-79038855D01*
X179478425Y-79019559D01*
X179348494Y-78833998D01*
X179181402Y-78666907D01*
X179181395Y-78666902D01*
X178987834Y-78531368D01*
X178987830Y-78531366D01*
X178987828Y-78531365D01*
X178773663Y-78431498D01*
X178773659Y-78431497D01*
X178773655Y-78431495D01*
X178545413Y-78370339D01*
X178545403Y-78370337D01*
X178310001Y-78349742D01*
X178309999Y-78349742D01*
X178074596Y-78370337D01*
X178074586Y-78370339D01*
X177846344Y-78431495D01*
X177846335Y-78431499D01*
X177632171Y-78531365D01*
X177632169Y-78531366D01*
X177438597Y-78666906D01*
X177271505Y-78833998D01*
X177141575Y-79019559D01*
X177086998Y-79063184D01*
X177017500Y-79070378D01*
X176955145Y-79038855D01*
X176938425Y-79019559D01*
X176808494Y-78833998D01*
X176641402Y-78666907D01*
X176641395Y-78666902D01*
X176447834Y-78531368D01*
X176447830Y-78531366D01*
X176447828Y-78531365D01*
X176233663Y-78431498D01*
X176233659Y-78431497D01*
X176233655Y-78431495D01*
X176005413Y-78370339D01*
X176005403Y-78370337D01*
X175770001Y-78349742D01*
X175769999Y-78349742D01*
X175534596Y-78370337D01*
X175534586Y-78370339D01*
X175306344Y-78431495D01*
X175306335Y-78431499D01*
X175092171Y-78531365D01*
X175092169Y-78531366D01*
X174898600Y-78666904D01*
X174776673Y-78788831D01*
X174715350Y-78822315D01*
X174645658Y-78817331D01*
X174589725Y-78775459D01*
X174572810Y-78744482D01*
X174523797Y-78613072D01*
X174523793Y-78613065D01*
X174437547Y-78497856D01*
X174437544Y-78497853D01*
X174322335Y-78411607D01*
X174322328Y-78411603D01*
X174187482Y-78361309D01*
X174187483Y-78361309D01*
X174127883Y-78354902D01*
X174127881Y-78354901D01*
X174127873Y-78354901D01*
X174127864Y-78354901D01*
X172332129Y-78354901D01*
X172332123Y-78354902D01*
X172272516Y-78361309D01*
X172137671Y-78411603D01*
X172137664Y-78411607D01*
X172022455Y-78497853D01*
X172022452Y-78497856D01*
X171936206Y-78613065D01*
X171936202Y-78613072D01*
X171885908Y-78747918D01*
X171879501Y-78807517D01*
X171879500Y-78807536D01*
X171879500Y-80603271D01*
X171879501Y-80603277D01*
X171885908Y-80662884D01*
X171936202Y-80797729D01*
X171936206Y-80797736D01*
X172022452Y-80912945D01*
X172022455Y-80912948D01*
X172137664Y-80999194D01*
X172137671Y-80999198D01*
X172182618Y-81015962D01*
X172272517Y-81049492D01*
X172332127Y-81055901D01*
X172355497Y-81055900D01*
X172422536Y-81075582D01*
X172468292Y-81128384D01*
X172479500Y-81179900D01*
X172479500Y-85850901D01*
X172459815Y-85917940D01*
X172407011Y-85963695D01*
X172355505Y-85974901D01*
X172332132Y-85974901D01*
X172332123Y-85974902D01*
X172272516Y-85981309D01*
X172137671Y-86031603D01*
X172137664Y-86031607D01*
X172022455Y-86117853D01*
X172022452Y-86117856D01*
X171936206Y-86233065D01*
X171936202Y-86233072D01*
X171885908Y-86367918D01*
X171879501Y-86427517D01*
X171879500Y-86427536D01*
X171879500Y-88223271D01*
X167177700Y-88223271D01*
X167177700Y-86035627D01*
X167197385Y-85968588D01*
X167230574Y-85934055D01*
X167423601Y-85798896D01*
X167590695Y-85631802D01*
X167726235Y-85438231D01*
X167826103Y-85224064D01*
X167887263Y-84995809D01*
X167907859Y-84760401D01*
X167887263Y-84524993D01*
X167826103Y-84296738D01*
X167726235Y-84082572D01*
X167720931Y-84074996D01*
X167590694Y-83888998D01*
X167423602Y-83721907D01*
X167423595Y-83721902D01*
X167230034Y-83586368D01*
X167230030Y-83586366D01*
X167230028Y-83586365D01*
X167015863Y-83486498D01*
X167015859Y-83486497D01*
X167015855Y-83486495D01*
X166787613Y-83425339D01*
X166787603Y-83425337D01*
X166552201Y-83404742D01*
X166552199Y-83404742D01*
X166316796Y-83425337D01*
X166316786Y-83425339D01*
X166088544Y-83486495D01*
X166088535Y-83486499D01*
X165874371Y-83586365D01*
X165874369Y-83586366D01*
X165680797Y-83721906D01*
X165513705Y-83888998D01*
X165383775Y-84074559D01*
X165329198Y-84118184D01*
X165259700Y-84125378D01*
X165197345Y-84093855D01*
X165180625Y-84074559D01*
X165050694Y-83888998D01*
X164883602Y-83721907D01*
X164883595Y-83721902D01*
X164690034Y-83586368D01*
X164690030Y-83586366D01*
X164690028Y-83586365D01*
X164475863Y-83486498D01*
X164475859Y-83486497D01*
X164475855Y-83486495D01*
X164247613Y-83425339D01*
X164247603Y-83425337D01*
X164012201Y-83404742D01*
X164012199Y-83404742D01*
X163776796Y-83425337D01*
X163776786Y-83425339D01*
X163548544Y-83486495D01*
X163548535Y-83486499D01*
X163334371Y-83586365D01*
X163334369Y-83586366D01*
X163140797Y-83721906D01*
X162973705Y-83888998D01*
X162843775Y-84074559D01*
X162789198Y-84118184D01*
X162719700Y-84125378D01*
X162657345Y-84093855D01*
X162640625Y-84074559D01*
X162510694Y-83888998D01*
X162343602Y-83721907D01*
X162343595Y-83721902D01*
X162150034Y-83586368D01*
X162150030Y-83586366D01*
X162150028Y-83586365D01*
X161935863Y-83486498D01*
X161935859Y-83486497D01*
X161935855Y-83486495D01*
X161707613Y-83425339D01*
X161707603Y-83425337D01*
X161472201Y-83404742D01*
X161472199Y-83404742D01*
X161236796Y-83425337D01*
X161236786Y-83425339D01*
X161008544Y-83486495D01*
X161008535Y-83486499D01*
X160794371Y-83586365D01*
X160794369Y-83586366D01*
X160600797Y-83721906D01*
X160433705Y-83888998D01*
X160303775Y-84074559D01*
X160249198Y-84118184D01*
X160179700Y-84125378D01*
X160117345Y-84093855D01*
X160100625Y-84074559D01*
X159970694Y-83888998D01*
X159803602Y-83721907D01*
X159803595Y-83721902D01*
X159610034Y-83586368D01*
X159610030Y-83586366D01*
X159610028Y-83586365D01*
X159395863Y-83486498D01*
X159395859Y-83486497D01*
X159395855Y-83486495D01*
X159167613Y-83425339D01*
X159167603Y-83425337D01*
X158932201Y-83404742D01*
X158932199Y-83404742D01*
X158696796Y-83425337D01*
X158696786Y-83425339D01*
X158468544Y-83486495D01*
X158468535Y-83486499D01*
X158254371Y-83586365D01*
X158254369Y-83586366D01*
X158060797Y-83721906D01*
X157893705Y-83888998D01*
X157763775Y-84074559D01*
X157709198Y-84118184D01*
X157639700Y-84125378D01*
X157577345Y-84093855D01*
X157560625Y-84074559D01*
X157430694Y-83888998D01*
X157263602Y-83721907D01*
X157263595Y-83721902D01*
X157070034Y-83586368D01*
X157070030Y-83586366D01*
X157070028Y-83586365D01*
X156855863Y-83486498D01*
X156855859Y-83486497D01*
X156855855Y-83486495D01*
X156627613Y-83425339D01*
X156627603Y-83425337D01*
X156392201Y-83404742D01*
X156392199Y-83404742D01*
X156156796Y-83425337D01*
X156156786Y-83425339D01*
X155928544Y-83486495D01*
X155928535Y-83486499D01*
X155714371Y-83586365D01*
X155714369Y-83586366D01*
X155520797Y-83721906D01*
X155353705Y-83888998D01*
X155223775Y-84074559D01*
X155169198Y-84118184D01*
X155099700Y-84125378D01*
X155037345Y-84093855D01*
X155020625Y-84074559D01*
X154890694Y-83888998D01*
X154723602Y-83721907D01*
X154723595Y-83721902D01*
X154530034Y-83586368D01*
X154530030Y-83586366D01*
X154530028Y-83586365D01*
X154315863Y-83486498D01*
X154315859Y-83486497D01*
X154315855Y-83486495D01*
X154087613Y-83425339D01*
X154087603Y-83425337D01*
X153852201Y-83404742D01*
X153852199Y-83404742D01*
X153616796Y-83425337D01*
X153616786Y-83425339D01*
X153388544Y-83486495D01*
X153388535Y-83486499D01*
X153174371Y-83586365D01*
X153174369Y-83586366D01*
X152980797Y-83721906D01*
X152813705Y-83888998D01*
X152683775Y-84074559D01*
X152629198Y-84118184D01*
X152559700Y-84125378D01*
X152497345Y-84093855D01*
X152480625Y-84074559D01*
X152350694Y-83888998D01*
X152183602Y-83721907D01*
X152183595Y-83721902D01*
X151990034Y-83586368D01*
X151990030Y-83586366D01*
X151990028Y-83586365D01*
X151775863Y-83486498D01*
X151775859Y-83486497D01*
X151775855Y-83486495D01*
X151547613Y-83425339D01*
X151547603Y-83425337D01*
X151312201Y-83404742D01*
X151312199Y-83404742D01*
X151076796Y-83425337D01*
X151076786Y-83425339D01*
X150848544Y-83486495D01*
X150848535Y-83486499D01*
X150634371Y-83586365D01*
X150634369Y-83586366D01*
X150440797Y-83721906D01*
X150273705Y-83888998D01*
X150143775Y-84074559D01*
X150089198Y-84118184D01*
X150019700Y-84125378D01*
X149957345Y-84093855D01*
X149940625Y-84074559D01*
X149810694Y-83888998D01*
X149643602Y-83721907D01*
X149643595Y-83721902D01*
X149450034Y-83586368D01*
X149450030Y-83586366D01*
X149450029Y-83586365D01*
X149235863Y-83486498D01*
X149235859Y-83486497D01*
X149235855Y-83486495D01*
X149007613Y-83425339D01*
X149007603Y-83425337D01*
X148772201Y-83404742D01*
X148772199Y-83404742D01*
X148536796Y-83425337D01*
X148536786Y-83425339D01*
X148308544Y-83486495D01*
X148308535Y-83486499D01*
X148094371Y-83586365D01*
X148094369Y-83586366D01*
X147900797Y-83721906D01*
X147733705Y-83888998D01*
X147603775Y-84074559D01*
X147549198Y-84118184D01*
X147479700Y-84125378D01*
X147417345Y-84093855D01*
X147400625Y-84074559D01*
X147270694Y-83888998D01*
X147103602Y-83721907D01*
X147103595Y-83721902D01*
X146910034Y-83586368D01*
X146910030Y-83586366D01*
X146910030Y-83586365D01*
X146695863Y-83486498D01*
X146695859Y-83486497D01*
X146695855Y-83486495D01*
X146467613Y-83425339D01*
X146467603Y-83425337D01*
X146232201Y-83404742D01*
X146232199Y-83404742D01*
X145996796Y-83425337D01*
X145996786Y-83425339D01*
X145768544Y-83486495D01*
X145768535Y-83486499D01*
X145554371Y-83586365D01*
X145554369Y-83586366D01*
X145360797Y-83721906D01*
X145193705Y-83888998D01*
X145063775Y-84074559D01*
X145009198Y-84118184D01*
X144939700Y-84125378D01*
X144877345Y-84093855D01*
X144860625Y-84074559D01*
X144730694Y-83888998D01*
X144563602Y-83721907D01*
X144563595Y-83721902D01*
X144370034Y-83586368D01*
X144370030Y-83586366D01*
X144370029Y-83586365D01*
X144155863Y-83486498D01*
X144155859Y-83486497D01*
X144155855Y-83486495D01*
X143927613Y-83425339D01*
X143927603Y-83425337D01*
X143692201Y-83404742D01*
X143692199Y-83404742D01*
X143456796Y-83425337D01*
X143456786Y-83425339D01*
X143228544Y-83486495D01*
X143228535Y-83486499D01*
X143014371Y-83586365D01*
X143014369Y-83586366D01*
X142820797Y-83721906D01*
X142653705Y-83888998D01*
X142523775Y-84074559D01*
X142469198Y-84118184D01*
X142399700Y-84125378D01*
X142337345Y-84093855D01*
X142320625Y-84074559D01*
X142190694Y-83888998D01*
X142023602Y-83721907D01*
X142023595Y-83721902D01*
X141830034Y-83586368D01*
X141830030Y-83586366D01*
X141830029Y-83586365D01*
X141615863Y-83486498D01*
X141615859Y-83486497D01*
X141615855Y-83486495D01*
X141387613Y-83425339D01*
X141387603Y-83425337D01*
X141152201Y-83404742D01*
X141152199Y-83404742D01*
X140916796Y-83425337D01*
X140916786Y-83425339D01*
X140688544Y-83486495D01*
X140688535Y-83486499D01*
X140474371Y-83586365D01*
X140474369Y-83586366D01*
X140280797Y-83721906D01*
X140113705Y-83888998D01*
X139983775Y-84074559D01*
X139929198Y-84118184D01*
X139859700Y-84125378D01*
X139797345Y-84093855D01*
X139780625Y-84074559D01*
X139650694Y-83888998D01*
X139483602Y-83721907D01*
X139483595Y-83721902D01*
X139290034Y-83586368D01*
X139290030Y-83586366D01*
X139290029Y-83586365D01*
X139075863Y-83486498D01*
X139075859Y-83486497D01*
X139075855Y-83486495D01*
X138847613Y-83425339D01*
X138847603Y-83425337D01*
X138612201Y-83404742D01*
X138612199Y-83404742D01*
X138376796Y-83425337D01*
X138376786Y-83425339D01*
X138148544Y-83486495D01*
X138148535Y-83486499D01*
X137934371Y-83586365D01*
X137934369Y-83586366D01*
X137740797Y-83721906D01*
X137573705Y-83888998D01*
X137443775Y-84074559D01*
X137389198Y-84118184D01*
X137319700Y-84125378D01*
X137257345Y-84093855D01*
X137240625Y-84074559D01*
X137110694Y-83888998D01*
X136943602Y-83721907D01*
X136943595Y-83721902D01*
X136750034Y-83586368D01*
X136750030Y-83586366D01*
X136750030Y-83586365D01*
X136535863Y-83486498D01*
X136535859Y-83486497D01*
X136535855Y-83486495D01*
X136307613Y-83425339D01*
X136307603Y-83425337D01*
X136072201Y-83404742D01*
X136072199Y-83404742D01*
X135836796Y-83425337D01*
X135836786Y-83425339D01*
X135608544Y-83486495D01*
X135608535Y-83486499D01*
X135394371Y-83586365D01*
X135394369Y-83586366D01*
X135200797Y-83721906D01*
X135033705Y-83888998D01*
X134903775Y-84074559D01*
X134849198Y-84118184D01*
X134779700Y-84125378D01*
X134717345Y-84093855D01*
X134700625Y-84074559D01*
X134570694Y-83888998D01*
X134403602Y-83721907D01*
X134403595Y-83721902D01*
X134210034Y-83586368D01*
X134210030Y-83586366D01*
X134210029Y-83586365D01*
X133995863Y-83486498D01*
X133995859Y-83486497D01*
X133995855Y-83486495D01*
X133767613Y-83425339D01*
X133767603Y-83425337D01*
X133532201Y-83404742D01*
X133532199Y-83404742D01*
X133296796Y-83425337D01*
X133296786Y-83425339D01*
X133068544Y-83486495D01*
X133068535Y-83486499D01*
X132854371Y-83586365D01*
X132854369Y-83586366D01*
X132660797Y-83721906D01*
X132493705Y-83888998D01*
X132363775Y-84074559D01*
X132309198Y-84118184D01*
X132239700Y-84125378D01*
X132177345Y-84093855D01*
X132160625Y-84074559D01*
X132030694Y-83888998D01*
X131863602Y-83721907D01*
X131863595Y-83721902D01*
X131670034Y-83586368D01*
X131670030Y-83586366D01*
X131670029Y-83586365D01*
X131455863Y-83486498D01*
X131455859Y-83486497D01*
X131455855Y-83486495D01*
X131227613Y-83425339D01*
X131227603Y-83425337D01*
X130992201Y-83404742D01*
X130992199Y-83404742D01*
X130756796Y-83425337D01*
X130756786Y-83425339D01*
X130528544Y-83486495D01*
X130528535Y-83486499D01*
X130314371Y-83586365D01*
X130314369Y-83586366D01*
X130120797Y-83721906D01*
X129953708Y-83888995D01*
X129823774Y-84074560D01*
X129769197Y-84118185D01*
X129699698Y-84125377D01*
X129637344Y-84093855D01*
X129620624Y-84074559D01*
X129490694Y-83888998D01*
X129323602Y-83721907D01*
X129323595Y-83721902D01*
X129130034Y-83586368D01*
X129130030Y-83586366D01*
X129130029Y-83586365D01*
X128915863Y-83486498D01*
X128915859Y-83486497D01*
X128915855Y-83486495D01*
X128687613Y-83425339D01*
X128687603Y-83425337D01*
X128452201Y-83404742D01*
X128452199Y-83404742D01*
X128216796Y-83425337D01*
X128216786Y-83425339D01*
X127988544Y-83486495D01*
X127988535Y-83486499D01*
X127774371Y-83586365D01*
X127774369Y-83586366D01*
X127580797Y-83721906D01*
X127413708Y-83888995D01*
X127283774Y-84074561D01*
X127229197Y-84118185D01*
X127159698Y-84125378D01*
X127097344Y-84093856D01*
X127080629Y-84074565D01*
X126950695Y-83889000D01*
X126950693Y-83888997D01*
X126783602Y-83721907D01*
X126783595Y-83721902D01*
X126590034Y-83586368D01*
X126590030Y-83586366D01*
X126590030Y-83586365D01*
X126375863Y-83486498D01*
X126375859Y-83486497D01*
X126375855Y-83486495D01*
X126147613Y-83425339D01*
X126147603Y-83425337D01*
X125912201Y-83404742D01*
X125912199Y-83404742D01*
X125676796Y-83425337D01*
X125676786Y-83425339D01*
X125448544Y-83486495D01*
X125448535Y-83486499D01*
X125234371Y-83586365D01*
X125234369Y-83586366D01*
X125040797Y-83721906D01*
X124873708Y-83888995D01*
X124743469Y-84074996D01*
X124688892Y-84118620D01*
X124619393Y-84125813D01*
X124557039Y-84094291D01*
X124540319Y-84074995D01*
X124410313Y-83889327D01*
X124410308Y-83889321D01*
X124243282Y-83722295D01*
X124049778Y-83586800D01*
X123835692Y-83486971D01*
X123835686Y-83486968D01*
X123622199Y-83429765D01*
X123622199Y-84324899D01*
X123514515Y-84275721D01*
X123407963Y-84260401D01*
X123336437Y-84260401D01*
X123229885Y-84275721D01*
X123122200Y-84324899D01*
X123122200Y-83429765D01*
X123122199Y-83429765D01*
X122908713Y-83486968D01*
X122908707Y-83486971D01*
X122694622Y-83586800D01*
X122694620Y-83586801D01*
X122501126Y-83722287D01*
X122501120Y-83722292D01*
X122334091Y-83889321D01*
X122334090Y-83889323D01*
X122204080Y-84074996D01*
X122149503Y-84118620D01*
X122080004Y-84125813D01*
X122017650Y-84094291D01*
X122000930Y-84074995D01*
X121870694Y-83888998D01*
X121703602Y-83721907D01*
X121703595Y-83721902D01*
X121510034Y-83586368D01*
X121510030Y-83586366D01*
X121510029Y-83586365D01*
X121295863Y-83486498D01*
X121295859Y-83486497D01*
X121295855Y-83486495D01*
X121067613Y-83425339D01*
X121067603Y-83425337D01*
X120832201Y-83404742D01*
X120832199Y-83404742D01*
X120596796Y-83425337D01*
X120596786Y-83425339D01*
X120368544Y-83486495D01*
X120368535Y-83486499D01*
X120154371Y-83586365D01*
X120154369Y-83586366D01*
X119960800Y-83721904D01*
X119838873Y-83843831D01*
X119777550Y-83877315D01*
X119707858Y-83872331D01*
X119651925Y-83830459D01*
X119635010Y-83799482D01*
X119585997Y-83668072D01*
X119585993Y-83668065D01*
X119499747Y-83552856D01*
X119499744Y-83552853D01*
X119384535Y-83466607D01*
X119384528Y-83466603D01*
X119249682Y-83416309D01*
X119249683Y-83416309D01*
X119190083Y-83409902D01*
X119190081Y-83409901D01*
X119190073Y-83409901D01*
X119190064Y-83409901D01*
X117394329Y-83409901D01*
X117394323Y-83409902D01*
X117334716Y-83416309D01*
X117199871Y-83466603D01*
X117199864Y-83466607D01*
X117084655Y-83552853D01*
X117084652Y-83552856D01*
X116998406Y-83668065D01*
X116998402Y-83668072D01*
X116948108Y-83802918D01*
X116941701Y-83862517D01*
X116941700Y-83862536D01*
X116941700Y-85658271D01*
X116941701Y-85658277D01*
X116948108Y-85717884D01*
X116998402Y-85852729D01*
X116998406Y-85852736D01*
X117084652Y-85967945D01*
X117084655Y-85967948D01*
X117199864Y-86054194D01*
X117199871Y-86054198D01*
X117334717Y-86104492D01*
X117334716Y-86104492D01*
X117341644Y-86105236D01*
X117394327Y-86110901D01*
X119190072Y-86110900D01*
X119249683Y-86104492D01*
X119384531Y-86054197D01*
X119499746Y-85967947D01*
X119585996Y-85852732D01*
X119635010Y-85721317D01*
X119676881Y-85665385D01*
X119742345Y-85640967D01*
X119810618Y-85655818D01*
X119838873Y-85676970D01*
X119960799Y-85798896D01*
X120057584Y-85866665D01*
X120154365Y-85934433D01*
X120154367Y-85934434D01*
X120154370Y-85934436D01*
X120368537Y-86034304D01*
X120368543Y-86034305D01*
X120368544Y-86034306D01*
X120373482Y-86035629D01*
X120596792Y-86095464D01*
X120773234Y-86110901D01*
X120832199Y-86116060D01*
X120832200Y-86116060D01*
X120832201Y-86116060D01*
X120891166Y-86110901D01*
X121067608Y-86095464D01*
X121295863Y-86034304D01*
X121510030Y-85934436D01*
X121703601Y-85798896D01*
X121870695Y-85631802D01*
X122000930Y-85445806D01*
X122055507Y-85402182D01*
X122125005Y-85394988D01*
X122187360Y-85426511D01*
X122204079Y-85445806D01*
X122334090Y-85631479D01*
X122501117Y-85798506D01*
X122694621Y-85934001D01*
X122908707Y-86033830D01*
X122908716Y-86033834D01*
X123122200Y-86091035D01*
X123122200Y-85195902D01*
X123229885Y-85245081D01*
X123336437Y-85260401D01*
X123407963Y-85260401D01*
X123514515Y-85245081D01*
X123622199Y-85195902D01*
X123622199Y-86091034D01*
X123835683Y-86033834D01*
X123835692Y-86033830D01*
X124049778Y-85934001D01*
X124243282Y-85798506D01*
X124410305Y-85631483D01*
X124540319Y-85445806D01*
X124594896Y-85402182D01*
X124664395Y-85394989D01*
X124726749Y-85426511D01*
X124743469Y-85445806D01*
X124873705Y-85631802D01*
X125040799Y-85798896D01*
X125233824Y-85934054D01*
X125277448Y-85988629D01*
X125286700Y-86035627D01*
X125286700Y-88565174D01*
X125267015Y-88632213D01*
X125233823Y-88666749D01*
X125040797Y-88801906D01*
X124873708Y-88968995D01*
X124743469Y-89154996D01*
X124688892Y-89198620D01*
X124619393Y-89205813D01*
X124557039Y-89174291D01*
X124540319Y-89154995D01*
X124410313Y-88969327D01*
X124410308Y-88969321D01*
X124243282Y-88802295D01*
X124049778Y-88666800D01*
X123835692Y-88566971D01*
X123835686Y-88566968D01*
X123622199Y-88509765D01*
X123622199Y-89404899D01*
X123514515Y-89355721D01*
X123407963Y-89340401D01*
X123336437Y-89340401D01*
X123229885Y-89355721D01*
X123122200Y-89404899D01*
X123122200Y-88509765D01*
X123122199Y-88509765D01*
X122908713Y-88566968D01*
X122908707Y-88566971D01*
X122694622Y-88666800D01*
X122694620Y-88666801D01*
X122501126Y-88802287D01*
X122501120Y-88802292D01*
X122334091Y-88969321D01*
X122334090Y-88969323D01*
X122204080Y-89154996D01*
X122149503Y-89198620D01*
X122080004Y-89205813D01*
X122017650Y-89174291D01*
X122000930Y-89154995D01*
X121870694Y-88968998D01*
X121703602Y-88801907D01*
X121703595Y-88801902D01*
X121510034Y-88666368D01*
X121510030Y-88666366D01*
X121457700Y-88641964D01*
X121295863Y-88566498D01*
X121295859Y-88566497D01*
X121295855Y-88566495D01*
X121067613Y-88505339D01*
X121067603Y-88505337D01*
X120832201Y-88484742D01*
X120832199Y-88484742D01*
X120596796Y-88505337D01*
X120596786Y-88505339D01*
X120368544Y-88566495D01*
X120368535Y-88566499D01*
X120154371Y-88666365D01*
X120154369Y-88666366D01*
X119960800Y-88801904D01*
X119838873Y-88923831D01*
X119777550Y-88957315D01*
X119707858Y-88952331D01*
X119651925Y-88910459D01*
X119635010Y-88879482D01*
X119585997Y-88748072D01*
X119585993Y-88748065D01*
X119499747Y-88632856D01*
X119499744Y-88632853D01*
X119384535Y-88546607D01*
X119384528Y-88546603D01*
X119249682Y-88496309D01*
X119249683Y-88496309D01*
X119190083Y-88489902D01*
X119190081Y-88489901D01*
X119190073Y-88489901D01*
X119190064Y-88489901D01*
X117394329Y-88489901D01*
X117394323Y-88489902D01*
X117334716Y-88496309D01*
X117199871Y-88546603D01*
X117199864Y-88546607D01*
X117084655Y-88632853D01*
X117084652Y-88632856D01*
X116998406Y-88748065D01*
X116998402Y-88748072D01*
X116948108Y-88882918D01*
X116941701Y-88942517D01*
X116941700Y-88942536D01*
X116941700Y-90738271D01*
X115300499Y-90738271D01*
X115300499Y-86035628D01*
X115320184Y-85968590D01*
X115353376Y-85934054D01*
X115398565Y-85902412D01*
X115546401Y-85798896D01*
X115713495Y-85631802D01*
X115849035Y-85438231D01*
X115948903Y-85224064D01*
X116010063Y-84995809D01*
X116030659Y-84760401D01*
X116010063Y-84524993D01*
X115948903Y-84296738D01*
X115849035Y-84082572D01*
X115843731Y-84074996D01*
X115713494Y-83888998D01*
X115546402Y-83721907D01*
X115546395Y-83721902D01*
X115352834Y-83586368D01*
X115352830Y-83586366D01*
X115352829Y-83586365D01*
X115138663Y-83486498D01*
X115138659Y-83486497D01*
X115138655Y-83486495D01*
X114910413Y-83425339D01*
X114910403Y-83425337D01*
X114675001Y-83404742D01*
X114674999Y-83404742D01*
X114439596Y-83425337D01*
X114439586Y-83425339D01*
X114211344Y-83486495D01*
X114211335Y-83486499D01*
X113997171Y-83586365D01*
X113997169Y-83586366D01*
X113803600Y-83721904D01*
X113681673Y-83843831D01*
X113620350Y-83877315D01*
X113550658Y-83872331D01*
X113494725Y-83830459D01*
X113477810Y-83799482D01*
X113428797Y-83668072D01*
X113428793Y-83668065D01*
X113342547Y-83552856D01*
X113342544Y-83552853D01*
X113227335Y-83466607D01*
X113227328Y-83466603D01*
X113092482Y-83416309D01*
X113092483Y-83416309D01*
X113032883Y-83409902D01*
X113032881Y-83409901D01*
X113032873Y-83409901D01*
X113032864Y-83409901D01*
X111237129Y-83409901D01*
X111237123Y-83409902D01*
X111177516Y-83416309D01*
X111042671Y-83466603D01*
X111042664Y-83466607D01*
X110927455Y-83552853D01*
X110927452Y-83552856D01*
X110841206Y-83668065D01*
X110841202Y-83668072D01*
X110790908Y-83802918D01*
X110784501Y-83862517D01*
X110784500Y-83862536D01*
X110784500Y-85263424D01*
X110764815Y-85330463D01*
X110712011Y-85376218D01*
X110659797Y-85387422D01*
X101191745Y-85333741D01*
X100428065Y-85329412D01*
X100428064Y-85329412D01*
X100424700Y-85329393D01*
X100424708Y-85327917D01*
X100362498Y-85312824D01*
X100314283Y-85262256D01*
X100300500Y-85205438D01*
X100300500Y-80000002D01*
X101694652Y-80000002D01*
X101714028Y-80357368D01*
X101714029Y-80357385D01*
X101771926Y-80710539D01*
X101771932Y-80710565D01*
X101867672Y-81055392D01*
X101867674Y-81055399D01*
X102000142Y-81387870D01*
X102000151Y-81387888D01*
X102167784Y-81704077D01*
X102167790Y-81704086D01*
X102368634Y-82000309D01*
X102368641Y-82000319D01*
X102600331Y-82273085D01*
X102600332Y-82273086D01*
X102860163Y-82519211D01*
X103145081Y-82735800D01*
X103451747Y-82920315D01*
X103451749Y-82920316D01*
X103451751Y-82920317D01*
X103451755Y-82920319D01*
X103776552Y-83070585D01*
X103776565Y-83070591D01*
X104115726Y-83184868D01*
X104465254Y-83261805D01*
X104821052Y-83300500D01*
X104821058Y-83300500D01*
X105178942Y-83300500D01*
X105178948Y-83300500D01*
X105534746Y-83261805D01*
X105884274Y-83184868D01*
X106223435Y-83070591D01*
X106548253Y-82920315D01*
X106854919Y-82735800D01*
X107139837Y-82519211D01*
X107399668Y-82273086D01*
X107631365Y-82000311D01*
X107832211Y-81704085D01*
X107999853Y-81387880D01*
X108132324Y-81055403D01*
X108228071Y-80710552D01*
X108281732Y-80383235D01*
X108285970Y-80357385D01*
X108285970Y-80357382D01*
X108285972Y-80357371D01*
X108305348Y-80000000D01*
X108285972Y-79642629D01*
X108257670Y-79469997D01*
X108228073Y-79289460D01*
X108228072Y-79289459D01*
X108228071Y-79289448D01*
X108164570Y-79060738D01*
X108132327Y-78944607D01*
X108132325Y-78944600D01*
X107999857Y-78612129D01*
X107999848Y-78612111D01*
X107832215Y-78295922D01*
X107832213Y-78295919D01*
X107832211Y-78295915D01*
X107631365Y-77999689D01*
X107631361Y-77999684D01*
X107631358Y-77999680D01*
X107399668Y-77726914D01*
X107399668Y-77726913D01*
X107139837Y-77480789D01*
X107139830Y-77480783D01*
X107139827Y-77480781D01*
X107072245Y-77429407D01*
X106854919Y-77264200D01*
X106548253Y-77079685D01*
X106548252Y-77079684D01*
X106548248Y-77079682D01*
X106548244Y-77079680D01*
X106223447Y-76929414D01*
X106223441Y-76929411D01*
X106223435Y-76929409D01*
X106053854Y-76872270D01*
X105884273Y-76815131D01*
X105534744Y-76738194D01*
X105178949Y-76699500D01*
X105178948Y-76699500D01*
X104821052Y-76699500D01*
X104821050Y-76699500D01*
X104465255Y-76738194D01*
X104115726Y-76815131D01*
X103859970Y-76901306D01*
X103776565Y-76929409D01*
X103776562Y-76929410D01*
X103776563Y-76929410D01*
X103776552Y-76929414D01*
X103451755Y-77079680D01*
X103451751Y-77079682D01*
X103223367Y-77217096D01*
X103145081Y-77264200D01*
X103056768Y-77331333D01*
X102860172Y-77480781D01*
X102860163Y-77480789D01*
X102600331Y-77726914D01*
X102368641Y-77999680D01*
X102368634Y-77999690D01*
X102167790Y-78295913D01*
X102167784Y-78295922D01*
X102000151Y-78612111D01*
X102000142Y-78612129D01*
X101867674Y-78944600D01*
X101867672Y-78944607D01*
X101771932Y-79289434D01*
X101771926Y-79289460D01*
X101714029Y-79642614D01*
X101714028Y-79642631D01*
X101694652Y-79999997D01*
X101694652Y-80000002D01*
X100300500Y-80000002D01*
X100300500Y-75424500D01*
X100320185Y-75357461D01*
X100372989Y-75311706D01*
X100424500Y-75300500D01*
X199575500Y-75300500D01*
X199642539Y-75320185D01*
G37*
G04 #@! TD.AperFunction*
G04 #@! TA.AperFunction,NonConductor*
G36*
X174748418Y-80600818D02*
G01*
X174776670Y-80621967D01*
X174898599Y-80743896D01*
X174966623Y-80791526D01*
X175010248Y-80846102D01*
X175019500Y-80893101D01*
X175019500Y-86137699D01*
X174999815Y-86204738D01*
X174966625Y-86239273D01*
X174898599Y-86286906D01*
X174776673Y-86408832D01*
X174715350Y-86442316D01*
X174645658Y-86437332D01*
X174589725Y-86395460D01*
X174572810Y-86364483D01*
X174523797Y-86233072D01*
X174523793Y-86233065D01*
X174437547Y-86117856D01*
X174437544Y-86117853D01*
X174322335Y-86031607D01*
X174322328Y-86031603D01*
X174187482Y-85981309D01*
X174187483Y-85981309D01*
X174127883Y-85974902D01*
X174127881Y-85974901D01*
X174127873Y-85974901D01*
X174127865Y-85974901D01*
X174104500Y-85974901D01*
X174037461Y-85955216D01*
X173991706Y-85902412D01*
X173980500Y-85850901D01*
X173980500Y-81179900D01*
X174000185Y-81112861D01*
X174052989Y-81067106D01*
X174104500Y-81055900D01*
X174127871Y-81055900D01*
X174127872Y-81055900D01*
X174187483Y-81049492D01*
X174322331Y-80999197D01*
X174437546Y-80912947D01*
X174523796Y-80797732D01*
X174572810Y-80666317D01*
X174614681Y-80610385D01*
X174680145Y-80585967D01*
X174748418Y-80600818D01*
G37*
G04 #@! TD.AperFunction*
G04 #@! TA.AperFunction,NonConductor*
G36*
X182204855Y-80371947D02*
G01*
X182221575Y-80391243D01*
X182351501Y-80576797D01*
X182351506Y-80576803D01*
X182518595Y-80743893D01*
X182518598Y-80743895D01*
X182518599Y-80743896D01*
X182586623Y-80791526D01*
X182630248Y-80846102D01*
X182639500Y-80893101D01*
X182639500Y-86137699D01*
X182619815Y-86204738D01*
X182586625Y-86239273D01*
X182518595Y-86286908D01*
X182351508Y-86453995D01*
X182221574Y-86639561D01*
X182166997Y-86683185D01*
X182097498Y-86690378D01*
X182035144Y-86658856D01*
X182018429Y-86639565D01*
X181888495Y-86454000D01*
X181888493Y-86453997D01*
X181721404Y-86286908D01*
X181653375Y-86239273D01*
X181609751Y-86184695D01*
X181600500Y-86137699D01*
X181600500Y-80893101D01*
X181620185Y-80826062D01*
X181653375Y-80791527D01*
X181721401Y-80743896D01*
X181888495Y-80576802D01*
X182018426Y-80391242D01*
X182073002Y-80347618D01*
X182142500Y-80340424D01*
X182204855Y-80371947D01*
G37*
G04 #@! TD.AperFunction*
G04 #@! TA.AperFunction,NonConductor*
G36*
X179664854Y-80371947D02*
G01*
X179681574Y-80391242D01*
X179811505Y-80576802D01*
X179811506Y-80576803D01*
X179978595Y-80743893D01*
X179978598Y-80743895D01*
X179978599Y-80743896D01*
X180046623Y-80791526D01*
X180090248Y-80846102D01*
X180099500Y-80893101D01*
X180099500Y-86137699D01*
X180079815Y-86204738D01*
X180046625Y-86239273D01*
X179978595Y-86286908D01*
X179811505Y-86453998D01*
X179681575Y-86639559D01*
X179626998Y-86683184D01*
X179557500Y-86690378D01*
X179495145Y-86658855D01*
X179478425Y-86639559D01*
X179348494Y-86453998D01*
X179181404Y-86286908D01*
X179113375Y-86239273D01*
X179069751Y-86184695D01*
X179060500Y-86137699D01*
X179060500Y-80893101D01*
X179080185Y-80826062D01*
X179113375Y-80791527D01*
X179181401Y-80743896D01*
X179348495Y-80576802D01*
X179478426Y-80391241D01*
X179533001Y-80347618D01*
X179602499Y-80340424D01*
X179664854Y-80371947D01*
G37*
G04 #@! TD.AperFunction*
G04 #@! TA.AperFunction,NonConductor*
G36*
X177124855Y-80371947D02*
G01*
X177141575Y-80391243D01*
X177271501Y-80576797D01*
X177271506Y-80576803D01*
X177438595Y-80743893D01*
X177438598Y-80743895D01*
X177438599Y-80743896D01*
X177506623Y-80791526D01*
X177550248Y-80846102D01*
X177559500Y-80893101D01*
X177559500Y-86137699D01*
X177539815Y-86204738D01*
X177506625Y-86239273D01*
X177438595Y-86286908D01*
X177271505Y-86453998D01*
X177141575Y-86639559D01*
X177086998Y-86683184D01*
X177017500Y-86690378D01*
X176955145Y-86658855D01*
X176938425Y-86639559D01*
X176808494Y-86453998D01*
X176641404Y-86286908D01*
X176573375Y-86239273D01*
X176529751Y-86184695D01*
X176520500Y-86137699D01*
X176520500Y-80893101D01*
X176540185Y-80826062D01*
X176573375Y-80791527D01*
X176641401Y-80743896D01*
X176808495Y-80576802D01*
X176938426Y-80391242D01*
X176993002Y-80347618D01*
X177062500Y-80340424D01*
X177124855Y-80371947D01*
G37*
G04 #@! TD.AperFunction*
G04 #@! TA.AperFunction,NonConductor*
G36*
X152667055Y-85426947D02*
G01*
X152683775Y-85446243D01*
X152813700Y-85631796D01*
X152813705Y-85631802D01*
X152980799Y-85798896D01*
X153173824Y-85934054D01*
X153217448Y-85988629D01*
X153226700Y-86035627D01*
X153226700Y-88565174D01*
X153207015Y-88632213D01*
X153173823Y-88666749D01*
X152980797Y-88801906D01*
X152813708Y-88968995D01*
X152683774Y-89154560D01*
X152629197Y-89198185D01*
X152559698Y-89205377D01*
X152497344Y-89173855D01*
X152480624Y-89154559D01*
X152350694Y-88968998D01*
X152183602Y-88801907D01*
X152183601Y-88801906D01*
X152011015Y-88681060D01*
X151990576Y-88666748D01*
X151946951Y-88612171D01*
X151937700Y-88565173D01*
X151937700Y-86035627D01*
X151957385Y-85968588D01*
X151990574Y-85934055D01*
X152183601Y-85798896D01*
X152350695Y-85631802D01*
X152480626Y-85446242D01*
X152535202Y-85402618D01*
X152604700Y-85395424D01*
X152667055Y-85426947D01*
G37*
G04 #@! TD.AperFunction*
G04 #@! TA.AperFunction,NonConductor*
G36*
X129807055Y-85426947D02*
G01*
X129823775Y-85446243D01*
X129953700Y-85631796D01*
X129953705Y-85631802D01*
X130120799Y-85798896D01*
X130313824Y-85934054D01*
X130357448Y-85988629D01*
X130366700Y-86035627D01*
X130366700Y-88565174D01*
X130347015Y-88632213D01*
X130313823Y-88666749D01*
X130120797Y-88801906D01*
X129953708Y-88968995D01*
X129823774Y-89154560D01*
X129769197Y-89198185D01*
X129699698Y-89205377D01*
X129637344Y-89173855D01*
X129620624Y-89154559D01*
X129490694Y-88968998D01*
X129323602Y-88801907D01*
X129323601Y-88801906D01*
X129151015Y-88681060D01*
X129130576Y-88666748D01*
X129086951Y-88612171D01*
X129077700Y-88565173D01*
X129077700Y-86035627D01*
X129097385Y-85968588D01*
X129130574Y-85934055D01*
X129323601Y-85798896D01*
X129490695Y-85631802D01*
X129620626Y-85446242D01*
X129675202Y-85402618D01*
X129744700Y-85395424D01*
X129807055Y-85426947D01*
G37*
G04 #@! TD.AperFunction*
G04 #@! TA.AperFunction,NonConductor*
G36*
X165367055Y-85426947D02*
G01*
X165383775Y-85446243D01*
X165513700Y-85631796D01*
X165513705Y-85631802D01*
X165680799Y-85798896D01*
X165873824Y-85934054D01*
X165917448Y-85988629D01*
X165926700Y-86035627D01*
X165926700Y-88565174D01*
X165907015Y-88632213D01*
X165873823Y-88666749D01*
X165680797Y-88801906D01*
X165513705Y-88968998D01*
X165383775Y-89154559D01*
X165329198Y-89198184D01*
X165259700Y-89205378D01*
X165197345Y-89173855D01*
X165180625Y-89154559D01*
X165050694Y-88968998D01*
X164883602Y-88801907D01*
X164883601Y-88801906D01*
X164711015Y-88681060D01*
X164690576Y-88666748D01*
X164646951Y-88612171D01*
X164637700Y-88565173D01*
X164637700Y-86035627D01*
X164657385Y-85968588D01*
X164690574Y-85934055D01*
X164883601Y-85798896D01*
X165050695Y-85631802D01*
X165180626Y-85446242D01*
X165235202Y-85402618D01*
X165304700Y-85395424D01*
X165367055Y-85426947D01*
G37*
G04 #@! TD.AperFunction*
G04 #@! TA.AperFunction,NonConductor*
G36*
X162827054Y-85426947D02*
G01*
X162843774Y-85446242D01*
X162973705Y-85631802D01*
X163140799Y-85798896D01*
X163333824Y-85934054D01*
X163377448Y-85988629D01*
X163386700Y-86035627D01*
X163386700Y-88565174D01*
X163367015Y-88632213D01*
X163333823Y-88666749D01*
X163140797Y-88801906D01*
X162973705Y-88968998D01*
X162843775Y-89154559D01*
X162789198Y-89198184D01*
X162719700Y-89205378D01*
X162657345Y-89173855D01*
X162640625Y-89154559D01*
X162510694Y-88968998D01*
X162343602Y-88801907D01*
X162343601Y-88801906D01*
X162171015Y-88681060D01*
X162150576Y-88666748D01*
X162106951Y-88612171D01*
X162097700Y-88565173D01*
X162097700Y-86035627D01*
X162117385Y-85968588D01*
X162150574Y-85934055D01*
X162343601Y-85798896D01*
X162510695Y-85631802D01*
X162640626Y-85446241D01*
X162695201Y-85402618D01*
X162764699Y-85395424D01*
X162827054Y-85426947D01*
G37*
G04 #@! TD.AperFunction*
G04 #@! TA.AperFunction,NonConductor*
G36*
X160287055Y-85426947D02*
G01*
X160303775Y-85446243D01*
X160433700Y-85631796D01*
X160433705Y-85631802D01*
X160600799Y-85798896D01*
X160793824Y-85934054D01*
X160837448Y-85988629D01*
X160846700Y-86035627D01*
X160846700Y-88565174D01*
X160827015Y-88632213D01*
X160793823Y-88666749D01*
X160600797Y-88801906D01*
X160433705Y-88968998D01*
X160303775Y-89154559D01*
X160249198Y-89198184D01*
X160179700Y-89205378D01*
X160117345Y-89173855D01*
X160100625Y-89154559D01*
X159970694Y-88968998D01*
X159803602Y-88801907D01*
X159803601Y-88801906D01*
X159631015Y-88681060D01*
X159610576Y-88666748D01*
X159566951Y-88612171D01*
X159557700Y-88565173D01*
X159557700Y-86035627D01*
X159577385Y-85968588D01*
X159610574Y-85934055D01*
X159803601Y-85798896D01*
X159970695Y-85631802D01*
X160100626Y-85446242D01*
X160155202Y-85402618D01*
X160224700Y-85395424D01*
X160287055Y-85426947D01*
G37*
G04 #@! TD.AperFunction*
G04 #@! TA.AperFunction,NonConductor*
G36*
X157747055Y-85426947D02*
G01*
X157763775Y-85446243D01*
X157893700Y-85631796D01*
X157893705Y-85631802D01*
X158060799Y-85798896D01*
X158253824Y-85934054D01*
X158297448Y-85988629D01*
X158306700Y-86035627D01*
X158306700Y-88565174D01*
X158287015Y-88632213D01*
X158253823Y-88666749D01*
X158060797Y-88801906D01*
X157893705Y-88968998D01*
X157763775Y-89154559D01*
X157709198Y-89198184D01*
X157639700Y-89205378D01*
X157577345Y-89173855D01*
X157560625Y-89154559D01*
X157430694Y-88968998D01*
X157263602Y-88801907D01*
X157263601Y-88801906D01*
X157091015Y-88681060D01*
X157070576Y-88666748D01*
X157026951Y-88612171D01*
X157017700Y-88565173D01*
X157017700Y-86035627D01*
X157037385Y-85968588D01*
X157070574Y-85934055D01*
X157263601Y-85798896D01*
X157430695Y-85631802D01*
X157560626Y-85446242D01*
X157615202Y-85402618D01*
X157684700Y-85395424D01*
X157747055Y-85426947D01*
G37*
G04 #@! TD.AperFunction*
G04 #@! TA.AperFunction,NonConductor*
G36*
X155207055Y-85426947D02*
G01*
X155223775Y-85446243D01*
X155353700Y-85631796D01*
X155353705Y-85631802D01*
X155520799Y-85798896D01*
X155713824Y-85934054D01*
X155757448Y-85988629D01*
X155766700Y-86035627D01*
X155766700Y-88565174D01*
X155747015Y-88632213D01*
X155713823Y-88666749D01*
X155520797Y-88801906D01*
X155353705Y-88968998D01*
X155223775Y-89154559D01*
X155169198Y-89198184D01*
X155099700Y-89205378D01*
X155037345Y-89173855D01*
X155020625Y-89154559D01*
X154890694Y-88968998D01*
X154723602Y-88801907D01*
X154723601Y-88801906D01*
X154551015Y-88681060D01*
X154530576Y-88666748D01*
X154486951Y-88612171D01*
X154477700Y-88565173D01*
X154477700Y-86035627D01*
X154497385Y-85968588D01*
X154530574Y-85934055D01*
X154723601Y-85798896D01*
X154890695Y-85631802D01*
X155020626Y-85446242D01*
X155075202Y-85402618D01*
X155144700Y-85395424D01*
X155207055Y-85426947D01*
G37*
G04 #@! TD.AperFunction*
G04 #@! TA.AperFunction,NonConductor*
G36*
X150127055Y-85426947D02*
G01*
X150143775Y-85446243D01*
X150273700Y-85631796D01*
X150273705Y-85631802D01*
X150440799Y-85798896D01*
X150633824Y-85934054D01*
X150677448Y-85988629D01*
X150686700Y-86035627D01*
X150686700Y-88565174D01*
X150667015Y-88632213D01*
X150633823Y-88666749D01*
X150440797Y-88801906D01*
X150273705Y-88968998D01*
X150143775Y-89154559D01*
X150089198Y-89198184D01*
X150019700Y-89205378D01*
X149957345Y-89173855D01*
X149940625Y-89154559D01*
X149810694Y-88968998D01*
X149643602Y-88801907D01*
X149643601Y-88801906D01*
X149471015Y-88681060D01*
X149450576Y-88666748D01*
X149406951Y-88612171D01*
X149397700Y-88565173D01*
X149397700Y-86035627D01*
X149417385Y-85968588D01*
X149450574Y-85934055D01*
X149643601Y-85798896D01*
X149810695Y-85631802D01*
X149940626Y-85446242D01*
X149995202Y-85402618D01*
X150064700Y-85395424D01*
X150127055Y-85426947D01*
G37*
G04 #@! TD.AperFunction*
G04 #@! TA.AperFunction,NonConductor*
G36*
X147587055Y-85426947D02*
G01*
X147603775Y-85446243D01*
X147733700Y-85631796D01*
X147733705Y-85631802D01*
X147900799Y-85798896D01*
X148093824Y-85934054D01*
X148137448Y-85988629D01*
X148146700Y-86035627D01*
X148146700Y-88565174D01*
X148127015Y-88632213D01*
X148093823Y-88666749D01*
X147900797Y-88801906D01*
X147733705Y-88968998D01*
X147603775Y-89154559D01*
X147549198Y-89198184D01*
X147479700Y-89205378D01*
X147417345Y-89173855D01*
X147400625Y-89154559D01*
X147270694Y-88968998D01*
X147103602Y-88801907D01*
X147103601Y-88801906D01*
X146931015Y-88681060D01*
X146910576Y-88666748D01*
X146866951Y-88612171D01*
X146857700Y-88565173D01*
X146857700Y-86035627D01*
X146877385Y-85968588D01*
X146910574Y-85934055D01*
X147103601Y-85798896D01*
X147270695Y-85631802D01*
X147400626Y-85446242D01*
X147455202Y-85402618D01*
X147524700Y-85395424D01*
X147587055Y-85426947D01*
G37*
G04 #@! TD.AperFunction*
G04 #@! TA.AperFunction,NonConductor*
G36*
X145047055Y-85426947D02*
G01*
X145063775Y-85446243D01*
X145193700Y-85631796D01*
X145193705Y-85631802D01*
X145360799Y-85798896D01*
X145553824Y-85934054D01*
X145597448Y-85988629D01*
X145606700Y-86035627D01*
X145606700Y-88565174D01*
X145587015Y-88632213D01*
X145553823Y-88666749D01*
X145360797Y-88801906D01*
X145193705Y-88968998D01*
X145063775Y-89154559D01*
X145009198Y-89198184D01*
X144939700Y-89205378D01*
X144877345Y-89173855D01*
X144860625Y-89154559D01*
X144730694Y-88968998D01*
X144563602Y-88801907D01*
X144563601Y-88801906D01*
X144391015Y-88681060D01*
X144370576Y-88666748D01*
X144326951Y-88612171D01*
X144317700Y-88565173D01*
X144317700Y-86035627D01*
X144337385Y-85968588D01*
X144370574Y-85934055D01*
X144563601Y-85798896D01*
X144730695Y-85631802D01*
X144860626Y-85446242D01*
X144915202Y-85402618D01*
X144984700Y-85395424D01*
X145047055Y-85426947D01*
G37*
G04 #@! TD.AperFunction*
G04 #@! TA.AperFunction,NonConductor*
G36*
X142507055Y-85426947D02*
G01*
X142523775Y-85446243D01*
X142653700Y-85631796D01*
X142653705Y-85631802D01*
X142820799Y-85798896D01*
X143013824Y-85934054D01*
X143057448Y-85988629D01*
X143066700Y-86035627D01*
X143066700Y-88565174D01*
X143047015Y-88632213D01*
X143013823Y-88666749D01*
X142820797Y-88801906D01*
X142653705Y-88968998D01*
X142523775Y-89154559D01*
X142469198Y-89198184D01*
X142399700Y-89205378D01*
X142337345Y-89173855D01*
X142320625Y-89154559D01*
X142190694Y-88968998D01*
X142023602Y-88801907D01*
X142023601Y-88801906D01*
X141851015Y-88681060D01*
X141830576Y-88666748D01*
X141786951Y-88612171D01*
X141777700Y-88565173D01*
X141777700Y-86035627D01*
X141797385Y-85968588D01*
X141830574Y-85934055D01*
X142023601Y-85798896D01*
X142190695Y-85631802D01*
X142320626Y-85446242D01*
X142375202Y-85402618D01*
X142444700Y-85395424D01*
X142507055Y-85426947D01*
G37*
G04 #@! TD.AperFunction*
G04 #@! TA.AperFunction,NonConductor*
G36*
X139967055Y-85426947D02*
G01*
X139983775Y-85446243D01*
X140113700Y-85631796D01*
X140113705Y-85631802D01*
X140280799Y-85798896D01*
X140473824Y-85934054D01*
X140517448Y-85988629D01*
X140526700Y-86035627D01*
X140526700Y-88565174D01*
X140507015Y-88632213D01*
X140473823Y-88666749D01*
X140280797Y-88801906D01*
X140113705Y-88968998D01*
X139983775Y-89154559D01*
X139929198Y-89198184D01*
X139859700Y-89205378D01*
X139797345Y-89173855D01*
X139780625Y-89154559D01*
X139650694Y-88968998D01*
X139483602Y-88801907D01*
X139483601Y-88801906D01*
X139311015Y-88681060D01*
X139290576Y-88666748D01*
X139246951Y-88612171D01*
X139237700Y-88565173D01*
X139237700Y-86035627D01*
X139257385Y-85968588D01*
X139290574Y-85934055D01*
X139483601Y-85798896D01*
X139650695Y-85631802D01*
X139780626Y-85446242D01*
X139835202Y-85402618D01*
X139904700Y-85395424D01*
X139967055Y-85426947D01*
G37*
G04 #@! TD.AperFunction*
G04 #@! TA.AperFunction,NonConductor*
G36*
X137427055Y-85426947D02*
G01*
X137443775Y-85446243D01*
X137573700Y-85631796D01*
X137573705Y-85631802D01*
X137740799Y-85798896D01*
X137933824Y-85934054D01*
X137977448Y-85988629D01*
X137986700Y-86035627D01*
X137986700Y-88565174D01*
X137967015Y-88632213D01*
X137933823Y-88666749D01*
X137740797Y-88801906D01*
X137573705Y-88968998D01*
X137443775Y-89154559D01*
X137389198Y-89198184D01*
X137319700Y-89205378D01*
X137257345Y-89173855D01*
X137240625Y-89154559D01*
X137110694Y-88968998D01*
X136943602Y-88801907D01*
X136943601Y-88801906D01*
X136771015Y-88681060D01*
X136750576Y-88666748D01*
X136706951Y-88612171D01*
X136697700Y-88565173D01*
X136697700Y-86035627D01*
X136717385Y-85968588D01*
X136750574Y-85934055D01*
X136943601Y-85798896D01*
X137110695Y-85631802D01*
X137240626Y-85446242D01*
X137295202Y-85402618D01*
X137364700Y-85395424D01*
X137427055Y-85426947D01*
G37*
G04 #@! TD.AperFunction*
G04 #@! TA.AperFunction,NonConductor*
G36*
X134887055Y-85426947D02*
G01*
X134903775Y-85446243D01*
X135033700Y-85631796D01*
X135033705Y-85631802D01*
X135200799Y-85798896D01*
X135393824Y-85934054D01*
X135437448Y-85988629D01*
X135446700Y-86035627D01*
X135446700Y-88565174D01*
X135427015Y-88632213D01*
X135393823Y-88666749D01*
X135200797Y-88801906D01*
X135033705Y-88968998D01*
X134903775Y-89154559D01*
X134849198Y-89198184D01*
X134779700Y-89205378D01*
X134717345Y-89173855D01*
X134700625Y-89154559D01*
X134570694Y-88968998D01*
X134403602Y-88801907D01*
X134403601Y-88801906D01*
X134231015Y-88681060D01*
X134210576Y-88666748D01*
X134166951Y-88612171D01*
X134157700Y-88565173D01*
X134157700Y-86035627D01*
X134177385Y-85968588D01*
X134210574Y-85934055D01*
X134403601Y-85798896D01*
X134570695Y-85631802D01*
X134700626Y-85446242D01*
X134755202Y-85402618D01*
X134824700Y-85395424D01*
X134887055Y-85426947D01*
G37*
G04 #@! TD.AperFunction*
G04 #@! TA.AperFunction,NonConductor*
G36*
X132347055Y-85426947D02*
G01*
X132363775Y-85446243D01*
X132493700Y-85631796D01*
X132493705Y-85631802D01*
X132660799Y-85798896D01*
X132853824Y-85934053D01*
X132897447Y-85988627D01*
X132906699Y-86035626D01*
X132906699Y-88565174D01*
X132887014Y-88632213D01*
X132853823Y-88666749D01*
X132660794Y-88801909D01*
X132493705Y-88968998D01*
X132363775Y-89154559D01*
X132309198Y-89198184D01*
X132239700Y-89205378D01*
X132177345Y-89173855D01*
X132160625Y-89154559D01*
X132030694Y-88968998D01*
X131863602Y-88801907D01*
X131863601Y-88801906D01*
X131691015Y-88681060D01*
X131670576Y-88666748D01*
X131626951Y-88612171D01*
X131617700Y-88565173D01*
X131617700Y-86035627D01*
X131637385Y-85968588D01*
X131670574Y-85934055D01*
X131863601Y-85798896D01*
X132030695Y-85631802D01*
X132160626Y-85446242D01*
X132215202Y-85402618D01*
X132284700Y-85395424D01*
X132347055Y-85426947D01*
G37*
G04 #@! TD.AperFunction*
G04 #@! TA.AperFunction,NonConductor*
G36*
X127267055Y-85426947D02*
G01*
X127283775Y-85446243D01*
X127413700Y-85631796D01*
X127413705Y-85631802D01*
X127580799Y-85798896D01*
X127773824Y-85934054D01*
X127817448Y-85988629D01*
X127826700Y-86035627D01*
X127826700Y-88565174D01*
X127807015Y-88632213D01*
X127773823Y-88666749D01*
X127580797Y-88801906D01*
X127413708Y-88968995D01*
X127283774Y-89154561D01*
X127229197Y-89198185D01*
X127159698Y-89205378D01*
X127097344Y-89173856D01*
X127080629Y-89154565D01*
X126950695Y-88969000D01*
X126950693Y-88968997D01*
X126783602Y-88801907D01*
X126783601Y-88801906D01*
X126611015Y-88681060D01*
X126590576Y-88666748D01*
X126546951Y-88612171D01*
X126537700Y-88565173D01*
X126537700Y-86035627D01*
X126557385Y-85968588D01*
X126590574Y-85934055D01*
X126783601Y-85798896D01*
X126950695Y-85631802D01*
X127080626Y-85446242D01*
X127135202Y-85402618D01*
X127204700Y-85395424D01*
X127267055Y-85426947D01*
G37*
G04 #@! TD.AperFunction*
G04 #@! TA.AperFunction,NonConductor*
G36*
X189441812Y-94280185D02*
G01*
X189476348Y-94313377D01*
X189611501Y-94506396D01*
X189611506Y-94506402D01*
X189733430Y-94628326D01*
X189766915Y-94689649D01*
X189761931Y-94759341D01*
X189720059Y-94815274D01*
X189689083Y-94832189D01*
X189557669Y-94881203D01*
X189557664Y-94881206D01*
X189442455Y-94967452D01*
X189442452Y-94967455D01*
X189356206Y-95082664D01*
X189356202Y-95082671D01*
X189305908Y-95217517D01*
X189299501Y-95277116D01*
X189299501Y-95277123D01*
X189299500Y-95277135D01*
X189299500Y-95425500D01*
X189279815Y-95492539D01*
X189227011Y-95538294D01*
X189175500Y-95549500D01*
X187044499Y-95549500D01*
X186977460Y-95529815D01*
X186931705Y-95477011D01*
X186920499Y-95425500D01*
X186920499Y-95277129D01*
X186920498Y-95277123D01*
X186920497Y-95277116D01*
X186914091Y-95217517D01*
X186863796Y-95082669D01*
X186863795Y-95082668D01*
X186863793Y-95082664D01*
X186777547Y-94967455D01*
X186777544Y-94967452D01*
X186662335Y-94881206D01*
X186662328Y-94881202D01*
X186530917Y-94832189D01*
X186474983Y-94790318D01*
X186450566Y-94724853D01*
X186465418Y-94656580D01*
X186486563Y-94628332D01*
X186608495Y-94506401D01*
X186743651Y-94313377D01*
X186798229Y-94269752D01*
X186845227Y-94260500D01*
X189374773Y-94260500D01*
X189441812Y-94280185D01*
G37*
G04 #@! TD.AperFunction*
G04 #@! TA.AperFunction,NonConductor*
G36*
X156797922Y-91150207D02*
G01*
X156847846Y-91180637D01*
X158276759Y-92609551D01*
X159685996Y-94018788D01*
X159695821Y-94031051D01*
X159696042Y-94030869D01*
X159701010Y-94036874D01*
X159750731Y-94083566D01*
X159752131Y-94084923D01*
X159772322Y-94105115D01*
X159772326Y-94105118D01*
X159772328Y-94105120D01*
X159777810Y-94109373D01*
X159782242Y-94113157D01*
X159816217Y-94145062D01*
X159833775Y-94154714D01*
X159850034Y-94165395D01*
X159865863Y-94177673D01*
X159908637Y-94196182D01*
X159913855Y-94198738D01*
X159954707Y-94221197D01*
X159974115Y-94226180D01*
X159992516Y-94232480D01*
X160010903Y-94240437D01*
X160054287Y-94247308D01*
X160056918Y-94247725D01*
X160062638Y-94248909D01*
X160107780Y-94260500D01*
X160127815Y-94260500D01*
X160147213Y-94262026D01*
X160166993Y-94265159D01*
X160166994Y-94265160D01*
X160166994Y-94265159D01*
X160166995Y-94265160D01*
X160213382Y-94260775D01*
X160219221Y-94260500D01*
X184294773Y-94260500D01*
X184361812Y-94280185D01*
X184396348Y-94313377D01*
X184531501Y-94506396D01*
X184531506Y-94506402D01*
X184653430Y-94628326D01*
X184686915Y-94689649D01*
X184681931Y-94759341D01*
X184640059Y-94815274D01*
X184609083Y-94832189D01*
X184477669Y-94881203D01*
X184477664Y-94881206D01*
X184362455Y-94967452D01*
X184362452Y-94967455D01*
X184276206Y-95082664D01*
X184276202Y-95082671D01*
X184225908Y-95217517D01*
X184219501Y-95277116D01*
X184219501Y-95277123D01*
X184219500Y-95277135D01*
X184219500Y-95425500D01*
X184199815Y-95492539D01*
X184147011Y-95538294D01*
X184095500Y-95549500D01*
X160497251Y-95549500D01*
X160430212Y-95529815D01*
X160409570Y-95513181D01*
X156304131Y-91407741D01*
X156270646Y-91346418D01*
X156275630Y-91276726D01*
X156317502Y-91220793D01*
X156382966Y-91196376D01*
X156391812Y-91196060D01*
X156392201Y-91196060D01*
X156451166Y-91190901D01*
X156627608Y-91175464D01*
X156728073Y-91148544D01*
X156797922Y-91150207D01*
G37*
G04 #@! TD.AperFunction*
G04 #@! TA.AperFunction,NonConductor*
G36*
X189441812Y-101930185D02*
G01*
X189476348Y-101963377D01*
X189611501Y-102156396D01*
X189611506Y-102156402D01*
X189733430Y-102278326D01*
X189766915Y-102339649D01*
X189761931Y-102409341D01*
X189720059Y-102465274D01*
X189689083Y-102482189D01*
X189557669Y-102531203D01*
X189557664Y-102531206D01*
X189442455Y-102617452D01*
X189442452Y-102617455D01*
X189356206Y-102732664D01*
X189356202Y-102732671D01*
X189305908Y-102867517D01*
X189299501Y-102927116D01*
X189299501Y-102927123D01*
X189299500Y-102927135D01*
X189299500Y-103075500D01*
X189279815Y-103142539D01*
X189227011Y-103188294D01*
X189175500Y-103199500D01*
X187044499Y-103199500D01*
X186977460Y-103179815D01*
X186931705Y-103127011D01*
X186920499Y-103075500D01*
X186920499Y-102927129D01*
X186920498Y-102927123D01*
X186920497Y-102927116D01*
X186914434Y-102870705D01*
X186914091Y-102867516D01*
X186863797Y-102732671D01*
X186863793Y-102732664D01*
X186777547Y-102617455D01*
X186777544Y-102617452D01*
X186662335Y-102531206D01*
X186662328Y-102531202D01*
X186530917Y-102482189D01*
X186474983Y-102440318D01*
X186450566Y-102374853D01*
X186465418Y-102306580D01*
X186486563Y-102278332D01*
X186608495Y-102156401D01*
X186743651Y-101963377D01*
X186798229Y-101919752D01*
X186845227Y-101910500D01*
X189374773Y-101910500D01*
X189441812Y-101930185D01*
G37*
G04 #@! TD.AperFunction*
G04 #@! TA.AperFunction,NonConductor*
G36*
X151717922Y-91150207D02*
G01*
X151767847Y-91180638D01*
X162255996Y-101668788D01*
X162265821Y-101681051D01*
X162266042Y-101680869D01*
X162271010Y-101686874D01*
X162320731Y-101733566D01*
X162322131Y-101734923D01*
X162342322Y-101755115D01*
X162342326Y-101755118D01*
X162342328Y-101755120D01*
X162347810Y-101759373D01*
X162352242Y-101763157D01*
X162386217Y-101795062D01*
X162403775Y-101804714D01*
X162420034Y-101815395D01*
X162435863Y-101827673D01*
X162478637Y-101846182D01*
X162483855Y-101848738D01*
X162524707Y-101871197D01*
X162544115Y-101876180D01*
X162562516Y-101882480D01*
X162580903Y-101890437D01*
X162624287Y-101897308D01*
X162626918Y-101897725D01*
X162632638Y-101898909D01*
X162677780Y-101910500D01*
X162697815Y-101910500D01*
X162717213Y-101912026D01*
X162736993Y-101915159D01*
X162736994Y-101915160D01*
X162736994Y-101915159D01*
X162736995Y-101915160D01*
X162783382Y-101910775D01*
X162789221Y-101910500D01*
X184294773Y-101910500D01*
X184361812Y-101930185D01*
X184396348Y-101963377D01*
X184531501Y-102156396D01*
X184531506Y-102156402D01*
X184653430Y-102278326D01*
X184686915Y-102339649D01*
X184681931Y-102409341D01*
X184640059Y-102465274D01*
X184609083Y-102482189D01*
X184477669Y-102531203D01*
X184477664Y-102531206D01*
X184362455Y-102617452D01*
X184362452Y-102617455D01*
X184276206Y-102732664D01*
X184276202Y-102732671D01*
X184225908Y-102867517D01*
X184219501Y-102927116D01*
X184219501Y-102927123D01*
X184219500Y-102927135D01*
X184219500Y-103075500D01*
X184199815Y-103142539D01*
X184147011Y-103188294D01*
X184095500Y-103199500D01*
X163067251Y-103199500D01*
X163000212Y-103179815D01*
X162979570Y-103163181D01*
X151224130Y-91407741D01*
X151190645Y-91346418D01*
X151195629Y-91276726D01*
X151237501Y-91220793D01*
X151302965Y-91196376D01*
X151311811Y-91196060D01*
X151312201Y-91196060D01*
X151371166Y-91190901D01*
X151547608Y-91175464D01*
X151648073Y-91148544D01*
X151717922Y-91150207D01*
G37*
G04 #@! TD.AperFunction*
G04 #@! TA.AperFunction,NonConductor*
G36*
X119810618Y-111055818D02*
G01*
X119838873Y-111076970D01*
X119960799Y-111198896D01*
X120153824Y-111334054D01*
X120197448Y-111388629D01*
X120206700Y-111435627D01*
X120206700Y-113965174D01*
X120187015Y-114032213D01*
X120153823Y-114066749D01*
X119960800Y-114201904D01*
X119838873Y-114323831D01*
X119777550Y-114357315D01*
X119707858Y-114352331D01*
X119651925Y-114310459D01*
X119635010Y-114279482D01*
X119585997Y-114148072D01*
X119585993Y-114148065D01*
X119499747Y-114032856D01*
X119499744Y-114032853D01*
X119384535Y-113946607D01*
X119384528Y-113946603D01*
X119249682Y-113896309D01*
X119249683Y-113896309D01*
X119190083Y-113889902D01*
X119190081Y-113889901D01*
X119190073Y-113889901D01*
X119190065Y-113889901D01*
X119041700Y-113889901D01*
X118974661Y-113870216D01*
X118928906Y-113817412D01*
X118917700Y-113765901D01*
X118917700Y-111634900D01*
X118937385Y-111567861D01*
X118990189Y-111522106D01*
X119041700Y-111510900D01*
X119190071Y-111510900D01*
X119190072Y-111510900D01*
X119249683Y-111504492D01*
X119384531Y-111454197D01*
X119499746Y-111367947D01*
X119585996Y-111252732D01*
X119635010Y-111121317D01*
X119676881Y-111065385D01*
X119742345Y-111040967D01*
X119810618Y-111055818D01*
G37*
G04 #@! TD.AperFunction*
G04 #@! TA.AperFunction,NonConductor*
G36*
X122187055Y-110826947D02*
G01*
X122203775Y-110846243D01*
X122333481Y-111031483D01*
X122333705Y-111031802D01*
X122500799Y-111198896D01*
X122693824Y-111334054D01*
X122737448Y-111388629D01*
X122746700Y-111435627D01*
X122746700Y-113965174D01*
X122727015Y-114032213D01*
X122693823Y-114066749D01*
X122500797Y-114201906D01*
X122333708Y-114368995D01*
X122203774Y-114554560D01*
X122149197Y-114598185D01*
X122079698Y-114605377D01*
X122017344Y-114573855D01*
X122000624Y-114554559D01*
X121870694Y-114368998D01*
X121703602Y-114201907D01*
X121703601Y-114201906D01*
X121531015Y-114081060D01*
X121510576Y-114066748D01*
X121466951Y-114012171D01*
X121457700Y-113965173D01*
X121457700Y-111435627D01*
X121477385Y-111368588D01*
X121510574Y-111334055D01*
X121703601Y-111198896D01*
X121870695Y-111031802D01*
X122000626Y-110846242D01*
X122055202Y-110802618D01*
X122124700Y-110795424D01*
X122187055Y-110826947D01*
G37*
G04 #@! TD.AperFunction*
G04 #@! TA.AperFunction,NonConductor*
G36*
X160287055Y-110826947D02*
G01*
X160303775Y-110846243D01*
X160433701Y-111031797D01*
X160433706Y-111031803D01*
X160435381Y-111033478D01*
X160435882Y-111034396D01*
X160437182Y-111035945D01*
X160436870Y-111036206D01*
X160468866Y-111094801D01*
X160471700Y-111121159D01*
X160471700Y-114279642D01*
X160452015Y-114346681D01*
X160435381Y-114367323D01*
X160433705Y-114368998D01*
X160303775Y-114554559D01*
X160249198Y-114598184D01*
X160179700Y-114605378D01*
X160117345Y-114573855D01*
X160100625Y-114554559D01*
X159970694Y-114368998D01*
X159803602Y-114201907D01*
X159803601Y-114201906D01*
X159631015Y-114081060D01*
X159610576Y-114066748D01*
X159566951Y-114012171D01*
X159557700Y-113965173D01*
X159557700Y-111435627D01*
X159577385Y-111368588D01*
X159610574Y-111334055D01*
X159803601Y-111198896D01*
X159970695Y-111031802D01*
X160100626Y-110846242D01*
X160155202Y-110802618D01*
X160224700Y-110795424D01*
X160287055Y-110826947D01*
G37*
G04 #@! TD.AperFunction*
G04 #@! TA.AperFunction,NonConductor*
G36*
X157747055Y-110826947D02*
G01*
X157763775Y-110846243D01*
X157893481Y-111031483D01*
X157893705Y-111031802D01*
X158060799Y-111198896D01*
X158253824Y-111334054D01*
X158297448Y-111388629D01*
X158306700Y-111435627D01*
X158306700Y-113965174D01*
X158287015Y-114032213D01*
X158253823Y-114066749D01*
X158060797Y-114201906D01*
X157893705Y-114368998D01*
X157763775Y-114554559D01*
X157709198Y-114598184D01*
X157639700Y-114605378D01*
X157577345Y-114573855D01*
X157560625Y-114554559D01*
X157430694Y-114368998D01*
X157263602Y-114201907D01*
X157263601Y-114201906D01*
X157091015Y-114081060D01*
X157070576Y-114066748D01*
X157026951Y-114012171D01*
X157017700Y-113965173D01*
X157017700Y-111435627D01*
X157037385Y-111368588D01*
X157070574Y-111334055D01*
X157263601Y-111198896D01*
X157430695Y-111031802D01*
X157560626Y-110846242D01*
X157615202Y-110802618D01*
X157684700Y-110795424D01*
X157747055Y-110826947D01*
G37*
G04 #@! TD.AperFunction*
G04 #@! TA.AperFunction,NonConductor*
G36*
X155207055Y-110826947D02*
G01*
X155223775Y-110846243D01*
X155353481Y-111031483D01*
X155353705Y-111031802D01*
X155520799Y-111198896D01*
X155713824Y-111334054D01*
X155757448Y-111388629D01*
X155766700Y-111435627D01*
X155766700Y-113965174D01*
X155747015Y-114032213D01*
X155713823Y-114066749D01*
X155520797Y-114201906D01*
X155353705Y-114368998D01*
X155223775Y-114554559D01*
X155169198Y-114598184D01*
X155099700Y-114605378D01*
X155037345Y-114573855D01*
X155020625Y-114554559D01*
X154890694Y-114368998D01*
X154723602Y-114201907D01*
X154723601Y-114201906D01*
X154551015Y-114081060D01*
X154530576Y-114066748D01*
X154486951Y-114012171D01*
X154477700Y-113965173D01*
X154477700Y-111435627D01*
X154497385Y-111368588D01*
X154530574Y-111334055D01*
X154723601Y-111198896D01*
X154890695Y-111031802D01*
X155020626Y-110846242D01*
X155075202Y-110802618D01*
X155144700Y-110795424D01*
X155207055Y-110826947D01*
G37*
G04 #@! TD.AperFunction*
G04 #@! TA.AperFunction,NonConductor*
G36*
X152667055Y-110826947D02*
G01*
X152683775Y-110846243D01*
X152813481Y-111031483D01*
X152813705Y-111031802D01*
X152980799Y-111198896D01*
X153173824Y-111334054D01*
X153217448Y-111388629D01*
X153226700Y-111435627D01*
X153226700Y-113965174D01*
X153207015Y-114032213D01*
X153173823Y-114066749D01*
X152980797Y-114201906D01*
X152813705Y-114368998D01*
X152683775Y-114554559D01*
X152629198Y-114598184D01*
X152559700Y-114605378D01*
X152497345Y-114573855D01*
X152480625Y-114554559D01*
X152350694Y-114368998D01*
X152183602Y-114201907D01*
X152183601Y-114201906D01*
X152011015Y-114081060D01*
X151990576Y-114066748D01*
X151946951Y-114012171D01*
X151937700Y-113965173D01*
X151937700Y-111435627D01*
X151957385Y-111368588D01*
X151990574Y-111334055D01*
X152183601Y-111198896D01*
X152350695Y-111031802D01*
X152480626Y-110846242D01*
X152535202Y-110802618D01*
X152604700Y-110795424D01*
X152667055Y-110826947D01*
G37*
G04 #@! TD.AperFunction*
G04 #@! TA.AperFunction,NonConductor*
G36*
X150127055Y-110826947D02*
G01*
X150143775Y-110846243D01*
X150273481Y-111031483D01*
X150273705Y-111031802D01*
X150440799Y-111198896D01*
X150633824Y-111334054D01*
X150677448Y-111388629D01*
X150686700Y-111435627D01*
X150686700Y-113965174D01*
X150667015Y-114032213D01*
X150633823Y-114066749D01*
X150440797Y-114201906D01*
X150273705Y-114368998D01*
X150143775Y-114554559D01*
X150089198Y-114598184D01*
X150019700Y-114605378D01*
X149957345Y-114573855D01*
X149940625Y-114554559D01*
X149810694Y-114368998D01*
X149643602Y-114201907D01*
X149643601Y-114201906D01*
X149471015Y-114081060D01*
X149450576Y-114066748D01*
X149406951Y-114012171D01*
X149397700Y-113965173D01*
X149397700Y-111435627D01*
X149417385Y-111368588D01*
X149450574Y-111334055D01*
X149643601Y-111198896D01*
X149810695Y-111031802D01*
X149940626Y-110846242D01*
X149995202Y-110802618D01*
X150064700Y-110795424D01*
X150127055Y-110826947D01*
G37*
G04 #@! TD.AperFunction*
G04 #@! TA.AperFunction,NonConductor*
G36*
X147587055Y-110826947D02*
G01*
X147603775Y-110846243D01*
X147733481Y-111031483D01*
X147733705Y-111031802D01*
X147900799Y-111198896D01*
X148093824Y-111334054D01*
X148137448Y-111388629D01*
X148146700Y-111435627D01*
X148146700Y-113965174D01*
X148127015Y-114032213D01*
X148093823Y-114066749D01*
X147900797Y-114201906D01*
X147733705Y-114368998D01*
X147603775Y-114554559D01*
X147549198Y-114598184D01*
X147479700Y-114605378D01*
X147417345Y-114573855D01*
X147400625Y-114554559D01*
X147270694Y-114368998D01*
X147103602Y-114201907D01*
X147103601Y-114201906D01*
X146931015Y-114081060D01*
X146910576Y-114066748D01*
X146866951Y-114012171D01*
X146857700Y-113965173D01*
X146857700Y-111435627D01*
X146877385Y-111368588D01*
X146910574Y-111334055D01*
X147103601Y-111198896D01*
X147270695Y-111031802D01*
X147400626Y-110846242D01*
X147455202Y-110802618D01*
X147524700Y-110795424D01*
X147587055Y-110826947D01*
G37*
G04 #@! TD.AperFunction*
G04 #@! TA.AperFunction,NonConductor*
G36*
X145047055Y-110826947D02*
G01*
X145063775Y-110846243D01*
X145193481Y-111031483D01*
X145193705Y-111031802D01*
X145360799Y-111198896D01*
X145553824Y-111334054D01*
X145597448Y-111388629D01*
X145606700Y-111435627D01*
X145606700Y-113965174D01*
X145587015Y-114032213D01*
X145553823Y-114066749D01*
X145360797Y-114201906D01*
X145193705Y-114368998D01*
X145063775Y-114554559D01*
X145009198Y-114598184D01*
X144939700Y-114605378D01*
X144877345Y-114573855D01*
X144860625Y-114554559D01*
X144730694Y-114368998D01*
X144563602Y-114201907D01*
X144563601Y-114201906D01*
X144391015Y-114081060D01*
X144370576Y-114066748D01*
X144326951Y-114012171D01*
X144317700Y-113965173D01*
X144317700Y-111435627D01*
X144337385Y-111368588D01*
X144370574Y-111334055D01*
X144563601Y-111198896D01*
X144730695Y-111031802D01*
X144860626Y-110846242D01*
X144915202Y-110802618D01*
X144984700Y-110795424D01*
X145047055Y-110826947D01*
G37*
G04 #@! TD.AperFunction*
G04 #@! TA.AperFunction,NonConductor*
G36*
X142507055Y-110826947D02*
G01*
X142523775Y-110846243D01*
X142653481Y-111031483D01*
X142653705Y-111031802D01*
X142820799Y-111198896D01*
X143013824Y-111334054D01*
X143057448Y-111388629D01*
X143066700Y-111435627D01*
X143066700Y-113965174D01*
X143047015Y-114032213D01*
X143013823Y-114066749D01*
X142820797Y-114201906D01*
X142653705Y-114368998D01*
X142523775Y-114554559D01*
X142469198Y-114598184D01*
X142399700Y-114605378D01*
X142337345Y-114573855D01*
X142320625Y-114554559D01*
X142190694Y-114368998D01*
X142023602Y-114201907D01*
X142023601Y-114201906D01*
X141851015Y-114081060D01*
X141830576Y-114066748D01*
X141786951Y-114012171D01*
X141777700Y-113965173D01*
X141777700Y-111435627D01*
X141797385Y-111368588D01*
X141830574Y-111334055D01*
X142023601Y-111198896D01*
X142190695Y-111031802D01*
X142320626Y-110846242D01*
X142375202Y-110802618D01*
X142444700Y-110795424D01*
X142507055Y-110826947D01*
G37*
G04 #@! TD.AperFunction*
G04 #@! TA.AperFunction,NonConductor*
G36*
X139967055Y-110826947D02*
G01*
X139983775Y-110846243D01*
X140113481Y-111031483D01*
X140113705Y-111031802D01*
X140280799Y-111198896D01*
X140473824Y-111334054D01*
X140517448Y-111388629D01*
X140526700Y-111435627D01*
X140526700Y-113965174D01*
X140507015Y-114032213D01*
X140473823Y-114066749D01*
X140280797Y-114201906D01*
X140113705Y-114368998D01*
X139983775Y-114554559D01*
X139929198Y-114598184D01*
X139859700Y-114605378D01*
X139797345Y-114573855D01*
X139780625Y-114554559D01*
X139650694Y-114368998D01*
X139483602Y-114201907D01*
X139483601Y-114201906D01*
X139311015Y-114081060D01*
X139290576Y-114066748D01*
X139246951Y-114012171D01*
X139237700Y-113965173D01*
X139237700Y-111435627D01*
X139257385Y-111368588D01*
X139290574Y-111334055D01*
X139483601Y-111198896D01*
X139650695Y-111031802D01*
X139780626Y-110846242D01*
X139835202Y-110802618D01*
X139904700Y-110795424D01*
X139967055Y-110826947D01*
G37*
G04 #@! TD.AperFunction*
G04 #@! TA.AperFunction,NonConductor*
G36*
X137427055Y-110826947D02*
G01*
X137443775Y-110846243D01*
X137573481Y-111031483D01*
X137573705Y-111031802D01*
X137740799Y-111198896D01*
X137933824Y-111334054D01*
X137977448Y-111388629D01*
X137986700Y-111435627D01*
X137986700Y-113965174D01*
X137967015Y-114032213D01*
X137933823Y-114066749D01*
X137740797Y-114201906D01*
X137573705Y-114368998D01*
X137443775Y-114554559D01*
X137389198Y-114598184D01*
X137319700Y-114605378D01*
X137257345Y-114573855D01*
X137240625Y-114554559D01*
X137110694Y-114368998D01*
X136943602Y-114201907D01*
X136943601Y-114201906D01*
X136771015Y-114081060D01*
X136750576Y-114066748D01*
X136706951Y-114012171D01*
X136697700Y-113965173D01*
X136697700Y-111435627D01*
X136717385Y-111368588D01*
X136750574Y-111334055D01*
X136943601Y-111198896D01*
X137110695Y-111031802D01*
X137240626Y-110846242D01*
X137295202Y-110802618D01*
X137364700Y-110795424D01*
X137427055Y-110826947D01*
G37*
G04 #@! TD.AperFunction*
G04 #@! TA.AperFunction,NonConductor*
G36*
X134887055Y-110826947D02*
G01*
X134903775Y-110846243D01*
X135033481Y-111031483D01*
X135033705Y-111031802D01*
X135200799Y-111198896D01*
X135393824Y-111334054D01*
X135437448Y-111388629D01*
X135446700Y-111435627D01*
X135446700Y-113965174D01*
X135427015Y-114032213D01*
X135393823Y-114066749D01*
X135200797Y-114201906D01*
X135033705Y-114368998D01*
X134903775Y-114554559D01*
X134849198Y-114598184D01*
X134779700Y-114605378D01*
X134717345Y-114573855D01*
X134700625Y-114554559D01*
X134570694Y-114368998D01*
X134403602Y-114201907D01*
X134403601Y-114201906D01*
X134231015Y-114081060D01*
X134210576Y-114066748D01*
X134166951Y-114012171D01*
X134157700Y-113965173D01*
X134157700Y-111435627D01*
X134177385Y-111368588D01*
X134210574Y-111334055D01*
X134403601Y-111198896D01*
X134570695Y-111031802D01*
X134700626Y-110846242D01*
X134755202Y-110802618D01*
X134824700Y-110795424D01*
X134887055Y-110826947D01*
G37*
G04 #@! TD.AperFunction*
G04 #@! TA.AperFunction,NonConductor*
G36*
X132347055Y-110826947D02*
G01*
X132363775Y-110846243D01*
X132493481Y-111031483D01*
X132493705Y-111031802D01*
X132660799Y-111198896D01*
X132853824Y-111334053D01*
X132897447Y-111388627D01*
X132906699Y-111435626D01*
X132906699Y-113965174D01*
X132887014Y-114032213D01*
X132853823Y-114066749D01*
X132660794Y-114201909D01*
X132493705Y-114368998D01*
X132363775Y-114554559D01*
X132309198Y-114598184D01*
X132239700Y-114605378D01*
X132177345Y-114573855D01*
X132160625Y-114554559D01*
X132030694Y-114368998D01*
X131863602Y-114201907D01*
X131863601Y-114201906D01*
X131691015Y-114081060D01*
X131670576Y-114066748D01*
X131626951Y-114012171D01*
X131617700Y-113965173D01*
X131617700Y-111435627D01*
X131637385Y-111368588D01*
X131670574Y-111334055D01*
X131863601Y-111198896D01*
X132030695Y-111031802D01*
X132160626Y-110846242D01*
X132215202Y-110802618D01*
X132284700Y-110795424D01*
X132347055Y-110826947D01*
G37*
G04 #@! TD.AperFunction*
G04 #@! TA.AperFunction,NonConductor*
G36*
X129807055Y-110826947D02*
G01*
X129823775Y-110846243D01*
X129953481Y-111031483D01*
X129953705Y-111031802D01*
X130120799Y-111198896D01*
X130313824Y-111334054D01*
X130357448Y-111388629D01*
X130366700Y-111435627D01*
X130366700Y-113965174D01*
X130347015Y-114032213D01*
X130313823Y-114066749D01*
X130120797Y-114201906D01*
X129953705Y-114368998D01*
X129823775Y-114554559D01*
X129769198Y-114598184D01*
X129699700Y-114605378D01*
X129637345Y-114573855D01*
X129620625Y-114554559D01*
X129490694Y-114368998D01*
X129323602Y-114201907D01*
X129323601Y-114201906D01*
X129151015Y-114081060D01*
X129130576Y-114066748D01*
X129086951Y-114012171D01*
X129077700Y-113965173D01*
X129077700Y-111435627D01*
X129097385Y-111368588D01*
X129130574Y-111334055D01*
X129323601Y-111198896D01*
X129490695Y-111031802D01*
X129620626Y-110846242D01*
X129675202Y-110802618D01*
X129744700Y-110795424D01*
X129807055Y-110826947D01*
G37*
G04 #@! TD.AperFunction*
G04 #@! TA.AperFunction,NonConductor*
G36*
X127267055Y-110826947D02*
G01*
X127283775Y-110846243D01*
X127413481Y-111031483D01*
X127413705Y-111031802D01*
X127580799Y-111198896D01*
X127773824Y-111334054D01*
X127817448Y-111388629D01*
X127826700Y-111435627D01*
X127826700Y-113965174D01*
X127807015Y-114032213D01*
X127773823Y-114066749D01*
X127580797Y-114201906D01*
X127413708Y-114368995D01*
X127283774Y-114554561D01*
X127229197Y-114598185D01*
X127159698Y-114605378D01*
X127097344Y-114573856D01*
X127080629Y-114554565D01*
X126950695Y-114369000D01*
X126950693Y-114368997D01*
X126783602Y-114201907D01*
X126783601Y-114201906D01*
X126611015Y-114081060D01*
X126590576Y-114066748D01*
X126546951Y-114012171D01*
X126537700Y-113965173D01*
X126537700Y-111435627D01*
X126557385Y-111368588D01*
X126590574Y-111334055D01*
X126783601Y-111198896D01*
X126950695Y-111031802D01*
X127080626Y-110846242D01*
X127135202Y-110802618D01*
X127204700Y-110795424D01*
X127267055Y-110826947D01*
G37*
G04 #@! TD.AperFunction*
G04 #@! TA.AperFunction,NonConductor*
G36*
X124727055Y-110826947D02*
G01*
X124743775Y-110846243D01*
X124873481Y-111031483D01*
X124873705Y-111031802D01*
X125040799Y-111198896D01*
X125233824Y-111334054D01*
X125277448Y-111388629D01*
X125286700Y-111435627D01*
X125286700Y-113965174D01*
X125267015Y-114032213D01*
X125233823Y-114066749D01*
X125040797Y-114201906D01*
X124873705Y-114368998D01*
X124743775Y-114554559D01*
X124689198Y-114598184D01*
X124619700Y-114605378D01*
X124557345Y-114573855D01*
X124540625Y-114554559D01*
X124410694Y-114368998D01*
X124243602Y-114201907D01*
X124243601Y-114201906D01*
X124071015Y-114081060D01*
X124050576Y-114066748D01*
X124006951Y-114012171D01*
X123997700Y-113965173D01*
X123997700Y-111435627D01*
X124017385Y-111368588D01*
X124050574Y-111334055D01*
X124243601Y-111198896D01*
X124410695Y-111031802D01*
X124540626Y-110846242D01*
X124595202Y-110802618D01*
X124664700Y-110795424D01*
X124727055Y-110826947D01*
G37*
G04 #@! TD.AperFunction*
G04 #@! TA.AperFunction,NonConductor*
G36*
X174748418Y-113620818D02*
G01*
X174776670Y-113641967D01*
X174898599Y-113763896D01*
X174966623Y-113811526D01*
X175010248Y-113866102D01*
X175019500Y-113913101D01*
X175019500Y-119042298D01*
X174999815Y-119109337D01*
X174966625Y-119143872D01*
X174898599Y-119191505D01*
X174776673Y-119313431D01*
X174715350Y-119346915D01*
X174645658Y-119341931D01*
X174589725Y-119300059D01*
X174572810Y-119269082D01*
X174523797Y-119137671D01*
X174523793Y-119137664D01*
X174437547Y-119022455D01*
X174437544Y-119022452D01*
X174322335Y-118936206D01*
X174322328Y-118936202D01*
X174187482Y-118885908D01*
X174187483Y-118885908D01*
X174127883Y-118879501D01*
X174127881Y-118879500D01*
X174127873Y-118879500D01*
X174127865Y-118879500D01*
X174104500Y-118879500D01*
X174037461Y-118859815D01*
X173991706Y-118807011D01*
X173980500Y-118755500D01*
X173980500Y-114199900D01*
X174000185Y-114132861D01*
X174052989Y-114087106D01*
X174104500Y-114075900D01*
X174127871Y-114075900D01*
X174127872Y-114075900D01*
X174187483Y-114069492D01*
X174322331Y-114019197D01*
X174437546Y-113932947D01*
X174523796Y-113817732D01*
X174572810Y-113686317D01*
X174614681Y-113630385D01*
X174680145Y-113605967D01*
X174748418Y-113620818D01*
G37*
G04 #@! TD.AperFunction*
G04 #@! TA.AperFunction,NonConductor*
G36*
X179664854Y-113391947D02*
G01*
X179681574Y-113411242D01*
X179811505Y-113596802D01*
X179811506Y-113596803D01*
X179978595Y-113763893D01*
X179978598Y-113763895D01*
X179978599Y-113763896D01*
X180046623Y-113811526D01*
X180090248Y-113866102D01*
X180099500Y-113913101D01*
X180099500Y-119042298D01*
X180079815Y-119109337D01*
X180046625Y-119143872D01*
X179978595Y-119191507D01*
X179811508Y-119358594D01*
X179681574Y-119544159D01*
X179626997Y-119587784D01*
X179557498Y-119594976D01*
X179495144Y-119563454D01*
X179478424Y-119544158D01*
X179348494Y-119358597D01*
X179181404Y-119191507D01*
X179113375Y-119143872D01*
X179069751Y-119089294D01*
X179060500Y-119042298D01*
X179060500Y-113913101D01*
X179080185Y-113846062D01*
X179113375Y-113811527D01*
X179181401Y-113763896D01*
X179348495Y-113596802D01*
X179478426Y-113411241D01*
X179533001Y-113367618D01*
X179602499Y-113360424D01*
X179664854Y-113391947D01*
G37*
G04 #@! TD.AperFunction*
G04 #@! TA.AperFunction,NonConductor*
G36*
X182204855Y-113391947D02*
G01*
X182221575Y-113411243D01*
X182351501Y-113596797D01*
X182351506Y-113596803D01*
X182518595Y-113763893D01*
X182518598Y-113763895D01*
X182518599Y-113763896D01*
X182586623Y-113811526D01*
X182630248Y-113866102D01*
X182639500Y-113913101D01*
X182639500Y-119042298D01*
X182619815Y-119109337D01*
X182586625Y-119143872D01*
X182518595Y-119191507D01*
X182351505Y-119358597D01*
X182221575Y-119544158D01*
X182166998Y-119587783D01*
X182097500Y-119594977D01*
X182035145Y-119563454D01*
X182018425Y-119544158D01*
X181888494Y-119358597D01*
X181721404Y-119191507D01*
X181653375Y-119143872D01*
X181609751Y-119089294D01*
X181600500Y-119042298D01*
X181600500Y-113913101D01*
X181620185Y-113846062D01*
X181653375Y-113811527D01*
X181721401Y-113763896D01*
X181888495Y-113596802D01*
X182018426Y-113411242D01*
X182073002Y-113367618D01*
X182142500Y-113360424D01*
X182204855Y-113391947D01*
G37*
G04 #@! TD.AperFunction*
G04 #@! TA.AperFunction,NonConductor*
G36*
X177124855Y-113391947D02*
G01*
X177141575Y-113411243D01*
X177271501Y-113596797D01*
X177271506Y-113596803D01*
X177438595Y-113763893D01*
X177438598Y-113763895D01*
X177438599Y-113763896D01*
X177506623Y-113811526D01*
X177550248Y-113866102D01*
X177559500Y-113913101D01*
X177559500Y-119042298D01*
X177539815Y-119109337D01*
X177506625Y-119143872D01*
X177438595Y-119191507D01*
X177271505Y-119358597D01*
X177141575Y-119544158D01*
X177086998Y-119587783D01*
X177017500Y-119594977D01*
X176955145Y-119563454D01*
X176938425Y-119544158D01*
X176808494Y-119358597D01*
X176641404Y-119191507D01*
X176573375Y-119143872D01*
X176529751Y-119089294D01*
X176520500Y-119042298D01*
X176520500Y-113913101D01*
X176540185Y-113846062D01*
X176573375Y-113811527D01*
X176641401Y-113763896D01*
X176808495Y-113596802D01*
X176938426Y-113411242D01*
X176993002Y-113367618D01*
X177062500Y-113360424D01*
X177124855Y-113391947D01*
G37*
G04 #@! TD.AperFunction*
M02*
