%TF.GenerationSoftware,KiCad,Pcbnew,7.0.5*%
%TF.CreationDate,2023-06-29T23:29:49-06:00*%
%TF.ProjectId,speedy-breakout,73706565-6479-42d6-9272-65616b6f7574,1.0*%
%TF.SameCoordinates,Original*%
%TF.FileFunction,Drillmap*%
%TF.FilePolarity,Positive*%
%FSLAX45Y45*%
G04 Gerber Fmt 4.5, Leading zero omitted, Abs format (unit mm)*
G04 Created by KiCad (PCBNEW 7.0.5) date 2023-06-29 23:29:49*
%MOMM*%
%LPD*%
G01*
G04 APERTURE LIST*
%ADD10C,0.025400*%
%ADD11C,0.200000*%
%ADD12C,0.095000*%
%ADD13C,0.100000*%
%ADD14C,0.320000*%
G04 APERTURE END LIST*
D10*
X10000000Y-7500000D02*
X20000000Y-7500000D01*
X20000000Y-12500000D01*
X10000000Y-12500000D01*
X10000000Y-7500000D01*
D11*
D12*
X10452500Y-8827500D02*
X10547500Y-8922500D01*
X10547500Y-8827500D02*
X10452500Y-8922500D01*
X10452500Y-9077500D02*
X10547500Y-9172500D01*
X10547500Y-9077500D02*
X10452500Y-9172500D01*
X10452500Y-9327500D02*
X10547500Y-9422500D01*
X10547500Y-9327500D02*
X10452500Y-9422500D01*
X10452500Y-9577500D02*
X10547500Y-9672500D01*
X10547500Y-9577500D02*
X10452500Y-9672500D01*
X10452500Y-10327500D02*
X10547500Y-10422500D01*
X10547500Y-10327500D02*
X10452500Y-10422500D01*
X10452500Y-10577500D02*
X10547500Y-10672500D01*
X10547500Y-10577500D02*
X10452500Y-10672500D01*
X10452500Y-10827500D02*
X10547500Y-10922500D01*
X10547500Y-10827500D02*
X10452500Y-10922500D01*
X10452500Y-11077500D02*
X10547500Y-11172500D01*
X10547500Y-11077500D02*
X10452500Y-11172500D01*
D13*
X11263500Y-8476040D02*
G75*
G03*
X11263500Y-8476040I-50000J0D01*
G01*
X11517500Y-8476040D02*
G75*
G03*
X11517500Y-8476040I-50000J0D01*
G01*
X11879220Y-8476040D02*
G75*
G03*
X11879220Y-8476040I-50000J0D01*
G01*
X11879220Y-8984040D02*
G75*
G03*
X11879220Y-8984040I-50000J0D01*
G01*
X11879220Y-11016040D02*
G75*
G03*
X11879220Y-11016040I-50000J0D01*
G01*
X11879220Y-11524040D02*
G75*
G03*
X11879220Y-11524040I-50000J0D01*
G01*
X12133220Y-8476040D02*
G75*
G03*
X12133220Y-8476040I-50000J0D01*
G01*
X12133220Y-8984040D02*
G75*
G03*
X12133220Y-8984040I-50000J0D01*
G01*
X12133220Y-11016040D02*
G75*
G03*
X12133220Y-11016040I-50000J0D01*
G01*
X12133220Y-11524040D02*
G75*
G03*
X12133220Y-11524040I-50000J0D01*
G01*
X12387220Y-8476040D02*
G75*
G03*
X12387220Y-8476040I-50000J0D01*
G01*
X12387220Y-8984040D02*
G75*
G03*
X12387220Y-8984040I-50000J0D01*
G01*
X12387220Y-11016040D02*
G75*
G03*
X12387220Y-11016040I-50000J0D01*
G01*
X12387220Y-11524040D02*
G75*
G03*
X12387220Y-11524040I-50000J0D01*
G01*
X12641220Y-8476040D02*
G75*
G03*
X12641220Y-8476040I-50000J0D01*
G01*
X12641220Y-8984040D02*
G75*
G03*
X12641220Y-8984040I-50000J0D01*
G01*
X12641220Y-11016040D02*
G75*
G03*
X12641220Y-11016040I-50000J0D01*
G01*
X12641220Y-11524040D02*
G75*
G03*
X12641220Y-11524040I-50000J0D01*
G01*
X12895220Y-8476040D02*
G75*
G03*
X12895220Y-8476040I-50000J0D01*
G01*
X12895220Y-8984040D02*
G75*
G03*
X12895220Y-8984040I-50000J0D01*
G01*
X12895220Y-11016040D02*
G75*
G03*
X12895220Y-11016040I-50000J0D01*
G01*
X12895220Y-11524040D02*
G75*
G03*
X12895220Y-11524040I-50000J0D01*
G01*
X13149220Y-8476040D02*
G75*
G03*
X13149220Y-8476040I-50000J0D01*
G01*
X13149220Y-8984040D02*
G75*
G03*
X13149220Y-8984040I-50000J0D01*
G01*
X13149220Y-11016040D02*
G75*
G03*
X13149220Y-11016040I-50000J0D01*
G01*
X13149220Y-11524040D02*
G75*
G03*
X13149220Y-11524040I-50000J0D01*
G01*
X13403220Y-8476040D02*
G75*
G03*
X13403220Y-8476040I-50000J0D01*
G01*
X13403220Y-8984040D02*
G75*
G03*
X13403220Y-8984040I-50000J0D01*
G01*
X13403220Y-11016040D02*
G75*
G03*
X13403220Y-11016040I-50000J0D01*
G01*
X13403220Y-11524040D02*
G75*
G03*
X13403220Y-11524040I-50000J0D01*
G01*
X13657220Y-8476040D02*
G75*
G03*
X13657220Y-8476040I-50000J0D01*
G01*
X13657220Y-8984040D02*
G75*
G03*
X13657220Y-8984040I-50000J0D01*
G01*
X13657220Y-11016040D02*
G75*
G03*
X13657220Y-11016040I-50000J0D01*
G01*
X13657220Y-11524040D02*
G75*
G03*
X13657220Y-11524040I-50000J0D01*
G01*
X13911220Y-8476040D02*
G75*
G03*
X13911220Y-8476040I-50000J0D01*
G01*
X13911220Y-8984040D02*
G75*
G03*
X13911220Y-8984040I-50000J0D01*
G01*
X13911220Y-11016040D02*
G75*
G03*
X13911220Y-11016040I-50000J0D01*
G01*
X13911220Y-11524040D02*
G75*
G03*
X13911220Y-11524040I-50000J0D01*
G01*
X14165220Y-8476040D02*
G75*
G03*
X14165220Y-8476040I-50000J0D01*
G01*
X14165220Y-8984040D02*
G75*
G03*
X14165220Y-8984040I-50000J0D01*
G01*
X14165220Y-11016040D02*
G75*
G03*
X14165220Y-11016040I-50000J0D01*
G01*
X14165220Y-11524040D02*
G75*
G03*
X14165220Y-11524040I-50000J0D01*
G01*
X14419220Y-8476040D02*
G75*
G03*
X14419220Y-8476040I-50000J0D01*
G01*
X14419220Y-8984040D02*
G75*
G03*
X14419220Y-8984040I-50000J0D01*
G01*
X14419220Y-11016040D02*
G75*
G03*
X14419220Y-11016040I-50000J0D01*
G01*
X14419220Y-11524040D02*
G75*
G03*
X14419220Y-11524040I-50000J0D01*
G01*
X14673220Y-8476040D02*
G75*
G03*
X14673220Y-8476040I-50000J0D01*
G01*
X14673220Y-8984040D02*
G75*
G03*
X14673220Y-8984040I-50000J0D01*
G01*
X14673220Y-11016040D02*
G75*
G03*
X14673220Y-11016040I-50000J0D01*
G01*
X14673220Y-11524040D02*
G75*
G03*
X14673220Y-11524040I-50000J0D01*
G01*
X14927220Y-8476040D02*
G75*
G03*
X14927220Y-8476040I-50000J0D01*
G01*
X14927220Y-8984040D02*
G75*
G03*
X14927220Y-8984040I-50000J0D01*
G01*
X14927220Y-11016040D02*
G75*
G03*
X14927220Y-11016040I-50000J0D01*
G01*
X14927220Y-11524040D02*
G75*
G03*
X14927220Y-11524040I-50000J0D01*
G01*
X15181220Y-8476040D02*
G75*
G03*
X15181220Y-8476040I-50000J0D01*
G01*
X15181220Y-8984040D02*
G75*
G03*
X15181220Y-8984040I-50000J0D01*
G01*
X15181220Y-11016040D02*
G75*
G03*
X15181220Y-11016040I-50000J0D01*
G01*
X15181220Y-11524040D02*
G75*
G03*
X15181220Y-11524040I-50000J0D01*
G01*
X15435220Y-8476040D02*
G75*
G03*
X15435220Y-8476040I-50000J0D01*
G01*
X15435220Y-8984040D02*
G75*
G03*
X15435220Y-8984040I-50000J0D01*
G01*
X15435220Y-11016040D02*
G75*
G03*
X15435220Y-11016040I-50000J0D01*
G01*
X15435220Y-11524040D02*
G75*
G03*
X15435220Y-11524040I-50000J0D01*
G01*
X15689220Y-8476040D02*
G75*
G03*
X15689220Y-8476040I-50000J0D01*
G01*
X15689220Y-8984040D02*
G75*
G03*
X15689220Y-8984040I-50000J0D01*
G01*
X15689220Y-11016040D02*
G75*
G03*
X15689220Y-11016040I-50000J0D01*
G01*
X15689220Y-11524040D02*
G75*
G03*
X15689220Y-11524040I-50000J0D01*
G01*
X15943220Y-8476040D02*
G75*
G03*
X15943220Y-8476040I-50000J0D01*
G01*
X15943220Y-8984040D02*
G75*
G03*
X15943220Y-8984040I-50000J0D01*
G01*
X15943220Y-11016040D02*
G75*
G03*
X15943220Y-11016040I-50000J0D01*
G01*
X15943220Y-11524040D02*
G75*
G03*
X15943220Y-11524040I-50000J0D01*
G01*
X16197220Y-8476040D02*
G75*
G03*
X16197220Y-8476040I-50000J0D01*
G01*
X16197220Y-8984040D02*
G75*
G03*
X16197220Y-8984040I-50000J0D01*
G01*
X16197220Y-11016040D02*
G75*
G03*
X16197220Y-11016040I-50000J0D01*
G01*
X16197220Y-11524040D02*
G75*
G03*
X16197220Y-11524040I-50000J0D01*
G01*
X16451220Y-8476040D02*
G75*
G03*
X16451220Y-8476040I-50000J0D01*
G01*
X16451220Y-8984040D02*
G75*
G03*
X16451220Y-8984040I-50000J0D01*
G01*
X16451220Y-11016040D02*
G75*
G03*
X16451220Y-11016040I-50000J0D01*
G01*
X16451220Y-11524040D02*
G75*
G03*
X16451220Y-11524040I-50000J0D01*
G01*
X16705220Y-8476040D02*
G75*
G03*
X16705220Y-8476040I-50000J0D01*
G01*
X16705220Y-8984040D02*
G75*
G03*
X16705220Y-8984040I-50000J0D01*
G01*
X16705220Y-11016040D02*
G75*
G03*
X16705220Y-11016040I-50000J0D01*
G01*
X16705220Y-11524040D02*
G75*
G03*
X16705220Y-11524040I-50000J0D01*
G01*
X17373000Y-7970540D02*
G75*
G03*
X17373000Y-7970540I-50000J0D01*
G01*
X17373000Y-8732540D02*
G75*
G03*
X17373000Y-8732540I-50000J0D01*
G01*
X17373000Y-11272540D02*
G75*
G03*
X17373000Y-11272540I-50000J0D01*
G01*
X17373000Y-12023000D02*
G75*
G03*
X17373000Y-12023000I-50000J0D01*
G01*
X17627000Y-7970540D02*
G75*
G03*
X17627000Y-7970540I-50000J0D01*
G01*
X17627000Y-8732540D02*
G75*
G03*
X17627000Y-8732540I-50000J0D01*
G01*
X17627000Y-11272540D02*
G75*
G03*
X17627000Y-11272540I-50000J0D01*
G01*
X17627000Y-12023000D02*
G75*
G03*
X17627000Y-12023000I-50000J0D01*
G01*
X17881000Y-7970540D02*
G75*
G03*
X17881000Y-7970540I-50000J0D01*
G01*
X17881000Y-8732540D02*
G75*
G03*
X17881000Y-8732540I-50000J0D01*
G01*
X17881000Y-11272540D02*
G75*
G03*
X17881000Y-11272540I-50000J0D01*
G01*
X17881000Y-12023000D02*
G75*
G03*
X17881000Y-12023000I-50000J0D01*
G01*
X18135000Y-7970540D02*
G75*
G03*
X18135000Y-7970540I-50000J0D01*
G01*
X18135000Y-8732540D02*
G75*
G03*
X18135000Y-8732540I-50000J0D01*
G01*
X18135000Y-11272540D02*
G75*
G03*
X18135000Y-11272540I-50000J0D01*
G01*
X18135000Y-12023000D02*
G75*
G03*
X18135000Y-12023000I-50000J0D01*
G01*
X18389000Y-7970540D02*
G75*
G03*
X18389000Y-7970540I-50000J0D01*
G01*
X18389000Y-8732540D02*
G75*
G03*
X18389000Y-8732540I-50000J0D01*
G01*
X18389000Y-11272540D02*
G75*
G03*
X18389000Y-11272540I-50000J0D01*
G01*
X18389000Y-12023000D02*
G75*
G03*
X18389000Y-12023000I-50000J0D01*
G01*
X18607000Y-9363500D02*
G75*
G03*
X18607000Y-9363500I-50000J0D01*
G01*
X18607000Y-9617500D02*
G75*
G03*
X18607000Y-9617500I-50000J0D01*
G01*
X18607000Y-10128500D02*
G75*
G03*
X18607000Y-10128500I-50000J0D01*
G01*
X18607000Y-10382500D02*
G75*
G03*
X18607000Y-10382500I-50000J0D01*
G01*
X18643000Y-7970540D02*
G75*
G03*
X18643000Y-7970540I-50000J0D01*
G01*
X18643000Y-8732540D02*
G75*
G03*
X18643000Y-8732540I-50000J0D01*
G01*
X18643000Y-11272540D02*
G75*
G03*
X18643000Y-11272540I-50000J0D01*
G01*
X18643000Y-12023000D02*
G75*
G03*
X18643000Y-12023000I-50000J0D01*
G01*
X19115000Y-9363500D02*
G75*
G03*
X19115000Y-9363500I-50000J0D01*
G01*
X19115000Y-9617500D02*
G75*
G03*
X19115000Y-9617500I-50000J0D01*
G01*
X19115000Y-10128500D02*
G75*
G03*
X19115000Y-10128500I-50000J0D01*
G01*
X19115000Y-10382500D02*
G75*
G03*
X19115000Y-10382500I-50000J0D01*
G01*
D14*
X10500000Y-7840000D02*
X10500000Y-8160000D01*
X10340000Y-8000000D02*
X10660000Y-8000000D01*
X10500000Y-11840000D02*
X10500000Y-12160000D01*
X10340000Y-12000000D02*
X10660000Y-12000000D01*
X19500000Y-7840000D02*
X19500000Y-8160000D01*
X19340000Y-8000000D02*
X19660000Y-8000000D01*
X19500000Y-11840000D02*
X19500000Y-12160000D01*
X19340000Y-12000000D02*
X19660000Y-12000000D01*
D11*
X10259507Y-12812754D02*
X10259507Y-12612754D01*
X10259507Y-12612754D02*
X10307126Y-12612754D01*
X10307126Y-12612754D02*
X10335697Y-12622278D01*
X10335697Y-12622278D02*
X10354745Y-12641325D01*
X10354745Y-12641325D02*
X10364269Y-12660373D01*
X10364269Y-12660373D02*
X10373793Y-12698468D01*
X10373793Y-12698468D02*
X10373793Y-12727039D01*
X10373793Y-12727039D02*
X10364269Y-12765135D01*
X10364269Y-12765135D02*
X10354745Y-12784182D01*
X10354745Y-12784182D02*
X10335697Y-12803230D01*
X10335697Y-12803230D02*
X10307126Y-12812754D01*
X10307126Y-12812754D02*
X10259507Y-12812754D01*
X10459507Y-12812754D02*
X10459507Y-12679420D01*
X10459507Y-12717516D02*
X10469031Y-12698468D01*
X10469031Y-12698468D02*
X10478554Y-12688944D01*
X10478554Y-12688944D02*
X10497602Y-12679420D01*
X10497602Y-12679420D02*
X10516650Y-12679420D01*
X10583316Y-12812754D02*
X10583316Y-12679420D01*
X10583316Y-12612754D02*
X10573793Y-12622278D01*
X10573793Y-12622278D02*
X10583316Y-12631801D01*
X10583316Y-12631801D02*
X10592840Y-12622278D01*
X10592840Y-12622278D02*
X10583316Y-12612754D01*
X10583316Y-12612754D02*
X10583316Y-12631801D01*
X10707126Y-12812754D02*
X10688078Y-12803230D01*
X10688078Y-12803230D02*
X10678554Y-12784182D01*
X10678554Y-12784182D02*
X10678554Y-12612754D01*
X10811888Y-12812754D02*
X10792840Y-12803230D01*
X10792840Y-12803230D02*
X10783316Y-12784182D01*
X10783316Y-12784182D02*
X10783316Y-12612754D01*
X11040459Y-12812754D02*
X11040459Y-12612754D01*
X11040459Y-12612754D02*
X11107126Y-12755611D01*
X11107126Y-12755611D02*
X11173793Y-12612754D01*
X11173793Y-12612754D02*
X11173793Y-12812754D01*
X11354745Y-12812754D02*
X11354745Y-12707992D01*
X11354745Y-12707992D02*
X11345221Y-12688944D01*
X11345221Y-12688944D02*
X11326173Y-12679420D01*
X11326173Y-12679420D02*
X11288078Y-12679420D01*
X11288078Y-12679420D02*
X11269031Y-12688944D01*
X11354745Y-12803230D02*
X11335697Y-12812754D01*
X11335697Y-12812754D02*
X11288078Y-12812754D01*
X11288078Y-12812754D02*
X11269031Y-12803230D01*
X11269031Y-12803230D02*
X11259507Y-12784182D01*
X11259507Y-12784182D02*
X11259507Y-12765135D01*
X11259507Y-12765135D02*
X11269031Y-12746087D01*
X11269031Y-12746087D02*
X11288078Y-12736563D01*
X11288078Y-12736563D02*
X11335697Y-12736563D01*
X11335697Y-12736563D02*
X11354745Y-12727039D01*
X11449983Y-12679420D02*
X11449983Y-12879420D01*
X11449983Y-12688944D02*
X11469031Y-12679420D01*
X11469031Y-12679420D02*
X11507126Y-12679420D01*
X11507126Y-12679420D02*
X11526173Y-12688944D01*
X11526173Y-12688944D02*
X11535697Y-12698468D01*
X11535697Y-12698468D02*
X11545221Y-12717516D01*
X11545221Y-12717516D02*
X11545221Y-12774658D01*
X11545221Y-12774658D02*
X11535697Y-12793706D01*
X11535697Y-12793706D02*
X11526173Y-12803230D01*
X11526173Y-12803230D02*
X11507126Y-12812754D01*
X11507126Y-12812754D02*
X11469031Y-12812754D01*
X11469031Y-12812754D02*
X11449983Y-12803230D01*
X11630935Y-12793706D02*
X11640459Y-12803230D01*
X11640459Y-12803230D02*
X11630935Y-12812754D01*
X11630935Y-12812754D02*
X11621412Y-12803230D01*
X11621412Y-12803230D02*
X11630935Y-12793706D01*
X11630935Y-12793706D02*
X11630935Y-12812754D01*
X11630935Y-12688944D02*
X11640459Y-12698468D01*
X11640459Y-12698468D02*
X11630935Y-12707992D01*
X11630935Y-12707992D02*
X11621412Y-12698468D01*
X11621412Y-12698468D02*
X11630935Y-12688944D01*
X11630935Y-12688944D02*
X11630935Y-12707992D01*
D12*
X9903730Y-13093770D02*
X9998730Y-13188770D01*
X9998730Y-13093770D02*
X9903730Y-13188770D01*
D11*
X10297602Y-13032754D02*
X10316650Y-13032754D01*
X10316650Y-13032754D02*
X10335697Y-13042278D01*
X10335697Y-13042278D02*
X10345221Y-13051801D01*
X10345221Y-13051801D02*
X10354745Y-13070849D01*
X10354745Y-13070849D02*
X10364269Y-13108944D01*
X10364269Y-13108944D02*
X10364269Y-13156563D01*
X10364269Y-13156563D02*
X10354745Y-13194658D01*
X10354745Y-13194658D02*
X10345221Y-13213706D01*
X10345221Y-13213706D02*
X10335697Y-13223230D01*
X10335697Y-13223230D02*
X10316650Y-13232754D01*
X10316650Y-13232754D02*
X10297602Y-13232754D01*
X10297602Y-13232754D02*
X10278554Y-13223230D01*
X10278554Y-13223230D02*
X10269031Y-13213706D01*
X10269031Y-13213706D02*
X10259507Y-13194658D01*
X10259507Y-13194658D02*
X10249983Y-13156563D01*
X10249983Y-13156563D02*
X10249983Y-13108944D01*
X10249983Y-13108944D02*
X10259507Y-13070849D01*
X10259507Y-13070849D02*
X10269031Y-13051801D01*
X10269031Y-13051801D02*
X10278554Y-13042278D01*
X10278554Y-13042278D02*
X10297602Y-13032754D01*
X10449983Y-13213706D02*
X10459507Y-13223230D01*
X10459507Y-13223230D02*
X10449983Y-13232754D01*
X10449983Y-13232754D02*
X10440459Y-13223230D01*
X10440459Y-13223230D02*
X10449983Y-13213706D01*
X10449983Y-13213706D02*
X10449983Y-13232754D01*
X10554745Y-13232754D02*
X10592840Y-13232754D01*
X10592840Y-13232754D02*
X10611888Y-13223230D01*
X10611888Y-13223230D02*
X10621412Y-13213706D01*
X10621412Y-13213706D02*
X10640459Y-13185135D01*
X10640459Y-13185135D02*
X10649983Y-13147039D01*
X10649983Y-13147039D02*
X10649983Y-13070849D01*
X10649983Y-13070849D02*
X10640459Y-13051801D01*
X10640459Y-13051801D02*
X10630935Y-13042278D01*
X10630935Y-13042278D02*
X10611888Y-13032754D01*
X10611888Y-13032754D02*
X10573793Y-13032754D01*
X10573793Y-13032754D02*
X10554745Y-13042278D01*
X10554745Y-13042278D02*
X10545221Y-13051801D01*
X10545221Y-13051801D02*
X10535697Y-13070849D01*
X10535697Y-13070849D02*
X10535697Y-13118468D01*
X10535697Y-13118468D02*
X10545221Y-13137516D01*
X10545221Y-13137516D02*
X10554745Y-13147039D01*
X10554745Y-13147039D02*
X10573793Y-13156563D01*
X10573793Y-13156563D02*
X10611888Y-13156563D01*
X10611888Y-13156563D02*
X10630935Y-13147039D01*
X10630935Y-13147039D02*
X10640459Y-13137516D01*
X10640459Y-13137516D02*
X10649983Y-13118468D01*
X10830935Y-13032754D02*
X10735697Y-13032754D01*
X10735697Y-13032754D02*
X10726174Y-13127992D01*
X10726174Y-13127992D02*
X10735697Y-13118468D01*
X10735697Y-13118468D02*
X10754745Y-13108944D01*
X10754745Y-13108944D02*
X10802364Y-13108944D01*
X10802364Y-13108944D02*
X10821412Y-13118468D01*
X10821412Y-13118468D02*
X10830935Y-13127992D01*
X10830935Y-13127992D02*
X10840459Y-13147039D01*
X10840459Y-13147039D02*
X10840459Y-13194658D01*
X10840459Y-13194658D02*
X10830935Y-13213706D01*
X10830935Y-13213706D02*
X10821412Y-13223230D01*
X10821412Y-13223230D02*
X10802364Y-13232754D01*
X10802364Y-13232754D02*
X10754745Y-13232754D01*
X10754745Y-13232754D02*
X10735697Y-13223230D01*
X10735697Y-13223230D02*
X10726174Y-13213706D01*
X10964269Y-13032754D02*
X10983316Y-13032754D01*
X10983316Y-13032754D02*
X11002364Y-13042278D01*
X11002364Y-13042278D02*
X11011888Y-13051801D01*
X11011888Y-13051801D02*
X11021412Y-13070849D01*
X11021412Y-13070849D02*
X11030935Y-13108944D01*
X11030935Y-13108944D02*
X11030935Y-13156563D01*
X11030935Y-13156563D02*
X11021412Y-13194658D01*
X11021412Y-13194658D02*
X11011888Y-13213706D01*
X11011888Y-13213706D02*
X11002364Y-13223230D01*
X11002364Y-13223230D02*
X10983316Y-13232754D01*
X10983316Y-13232754D02*
X10964269Y-13232754D01*
X10964269Y-13232754D02*
X10945221Y-13223230D01*
X10945221Y-13223230D02*
X10935697Y-13213706D01*
X10935697Y-13213706D02*
X10926174Y-13194658D01*
X10926174Y-13194658D02*
X10916650Y-13156563D01*
X10916650Y-13156563D02*
X10916650Y-13108944D01*
X10916650Y-13108944D02*
X10926174Y-13070849D01*
X10926174Y-13070849D02*
X10935697Y-13051801D01*
X10935697Y-13051801D02*
X10945221Y-13042278D01*
X10945221Y-13042278D02*
X10964269Y-13032754D01*
X11116650Y-13232754D02*
X11116650Y-13099420D01*
X11116650Y-13118468D02*
X11126174Y-13108944D01*
X11126174Y-13108944D02*
X11145221Y-13099420D01*
X11145221Y-13099420D02*
X11173793Y-13099420D01*
X11173793Y-13099420D02*
X11192840Y-13108944D01*
X11192840Y-13108944D02*
X11202364Y-13127992D01*
X11202364Y-13127992D02*
X11202364Y-13232754D01*
X11202364Y-13127992D02*
X11211888Y-13108944D01*
X11211888Y-13108944D02*
X11230935Y-13099420D01*
X11230935Y-13099420D02*
X11259507Y-13099420D01*
X11259507Y-13099420D02*
X11278554Y-13108944D01*
X11278554Y-13108944D02*
X11288078Y-13127992D01*
X11288078Y-13127992D02*
X11288078Y-13232754D01*
X11383316Y-13232754D02*
X11383316Y-13099420D01*
X11383316Y-13118468D02*
X11392840Y-13108944D01*
X11392840Y-13108944D02*
X11411888Y-13099420D01*
X11411888Y-13099420D02*
X11440459Y-13099420D01*
X11440459Y-13099420D02*
X11459507Y-13108944D01*
X11459507Y-13108944D02*
X11469031Y-13127992D01*
X11469031Y-13127992D02*
X11469031Y-13232754D01*
X11469031Y-13127992D02*
X11478554Y-13108944D01*
X11478554Y-13108944D02*
X11497602Y-13099420D01*
X11497602Y-13099420D02*
X11526173Y-13099420D01*
X11526173Y-13099420D02*
X11545221Y-13108944D01*
X11545221Y-13108944D02*
X11554745Y-13127992D01*
X11554745Y-13127992D02*
X11554745Y-13232754D01*
X11945221Y-13023230D02*
X11773793Y-13280373D01*
X12202364Y-13032754D02*
X12221412Y-13032754D01*
X12221412Y-13032754D02*
X12240459Y-13042278D01*
X12240459Y-13042278D02*
X12249983Y-13051801D01*
X12249983Y-13051801D02*
X12259507Y-13070849D01*
X12259507Y-13070849D02*
X12269031Y-13108944D01*
X12269031Y-13108944D02*
X12269031Y-13156563D01*
X12269031Y-13156563D02*
X12259507Y-13194658D01*
X12259507Y-13194658D02*
X12249983Y-13213706D01*
X12249983Y-13213706D02*
X12240459Y-13223230D01*
X12240459Y-13223230D02*
X12221412Y-13232754D01*
X12221412Y-13232754D02*
X12202364Y-13232754D01*
X12202364Y-13232754D02*
X12183316Y-13223230D01*
X12183316Y-13223230D02*
X12173793Y-13213706D01*
X12173793Y-13213706D02*
X12164269Y-13194658D01*
X12164269Y-13194658D02*
X12154745Y-13156563D01*
X12154745Y-13156563D02*
X12154745Y-13108944D01*
X12154745Y-13108944D02*
X12164269Y-13070849D01*
X12164269Y-13070849D02*
X12173793Y-13051801D01*
X12173793Y-13051801D02*
X12183316Y-13042278D01*
X12183316Y-13042278D02*
X12202364Y-13032754D01*
X12354745Y-13213706D02*
X12364269Y-13223230D01*
X12364269Y-13223230D02*
X12354745Y-13232754D01*
X12354745Y-13232754D02*
X12345221Y-13223230D01*
X12345221Y-13223230D02*
X12354745Y-13213706D01*
X12354745Y-13213706D02*
X12354745Y-13232754D01*
X12488078Y-13032754D02*
X12507126Y-13032754D01*
X12507126Y-13032754D02*
X12526174Y-13042278D01*
X12526174Y-13042278D02*
X12535697Y-13051801D01*
X12535697Y-13051801D02*
X12545221Y-13070849D01*
X12545221Y-13070849D02*
X12554745Y-13108944D01*
X12554745Y-13108944D02*
X12554745Y-13156563D01*
X12554745Y-13156563D02*
X12545221Y-13194658D01*
X12545221Y-13194658D02*
X12535697Y-13213706D01*
X12535697Y-13213706D02*
X12526174Y-13223230D01*
X12526174Y-13223230D02*
X12507126Y-13232754D01*
X12507126Y-13232754D02*
X12488078Y-13232754D01*
X12488078Y-13232754D02*
X12469031Y-13223230D01*
X12469031Y-13223230D02*
X12459507Y-13213706D01*
X12459507Y-13213706D02*
X12449983Y-13194658D01*
X12449983Y-13194658D02*
X12440459Y-13156563D01*
X12440459Y-13156563D02*
X12440459Y-13108944D01*
X12440459Y-13108944D02*
X12449983Y-13070849D01*
X12449983Y-13070849D02*
X12459507Y-13051801D01*
X12459507Y-13051801D02*
X12469031Y-13042278D01*
X12469031Y-13042278D02*
X12488078Y-13032754D01*
X12621412Y-13032754D02*
X12745221Y-13032754D01*
X12745221Y-13032754D02*
X12678555Y-13108944D01*
X12678555Y-13108944D02*
X12707126Y-13108944D01*
X12707126Y-13108944D02*
X12726174Y-13118468D01*
X12726174Y-13118468D02*
X12735697Y-13127992D01*
X12735697Y-13127992D02*
X12745221Y-13147039D01*
X12745221Y-13147039D02*
X12745221Y-13194658D01*
X12745221Y-13194658D02*
X12735697Y-13213706D01*
X12735697Y-13213706D02*
X12726174Y-13223230D01*
X12726174Y-13223230D02*
X12707126Y-13232754D01*
X12707126Y-13232754D02*
X12649983Y-13232754D01*
X12649983Y-13232754D02*
X12630936Y-13223230D01*
X12630936Y-13223230D02*
X12621412Y-13213706D01*
X12811888Y-13032754D02*
X12945221Y-13032754D01*
X12945221Y-13032754D02*
X12859507Y-13232754D01*
X13107126Y-13099420D02*
X13107126Y-13232754D01*
X13059507Y-13023230D02*
X13011888Y-13166087D01*
X13011888Y-13166087D02*
X13135697Y-13166087D01*
X13202364Y-13032754D02*
X13202364Y-13070849D01*
X13278555Y-13032754D02*
X13278555Y-13070849D01*
X13573793Y-13308944D02*
X13564269Y-13299420D01*
X13564269Y-13299420D02*
X13545221Y-13270849D01*
X13545221Y-13270849D02*
X13535698Y-13251801D01*
X13535698Y-13251801D02*
X13526174Y-13223230D01*
X13526174Y-13223230D02*
X13516650Y-13175611D01*
X13516650Y-13175611D02*
X13516650Y-13137516D01*
X13516650Y-13137516D02*
X13526174Y-13089897D01*
X13526174Y-13089897D02*
X13535698Y-13061325D01*
X13535698Y-13061325D02*
X13545221Y-13042278D01*
X13545221Y-13042278D02*
X13564269Y-13013706D01*
X13564269Y-13013706D02*
X13573793Y-13004182D01*
X13678555Y-13118468D02*
X13659507Y-13108944D01*
X13659507Y-13108944D02*
X13649983Y-13099420D01*
X13649983Y-13099420D02*
X13640459Y-13080373D01*
X13640459Y-13080373D02*
X13640459Y-13070849D01*
X13640459Y-13070849D02*
X13649983Y-13051801D01*
X13649983Y-13051801D02*
X13659507Y-13042278D01*
X13659507Y-13042278D02*
X13678555Y-13032754D01*
X13678555Y-13032754D02*
X13716650Y-13032754D01*
X13716650Y-13032754D02*
X13735698Y-13042278D01*
X13735698Y-13042278D02*
X13745221Y-13051801D01*
X13745221Y-13051801D02*
X13754745Y-13070849D01*
X13754745Y-13070849D02*
X13754745Y-13080373D01*
X13754745Y-13080373D02*
X13745221Y-13099420D01*
X13745221Y-13099420D02*
X13735698Y-13108944D01*
X13735698Y-13108944D02*
X13716650Y-13118468D01*
X13716650Y-13118468D02*
X13678555Y-13118468D01*
X13678555Y-13118468D02*
X13659507Y-13127992D01*
X13659507Y-13127992D02*
X13649983Y-13137516D01*
X13649983Y-13137516D02*
X13640459Y-13156563D01*
X13640459Y-13156563D02*
X13640459Y-13194658D01*
X13640459Y-13194658D02*
X13649983Y-13213706D01*
X13649983Y-13213706D02*
X13659507Y-13223230D01*
X13659507Y-13223230D02*
X13678555Y-13232754D01*
X13678555Y-13232754D02*
X13716650Y-13232754D01*
X13716650Y-13232754D02*
X13735698Y-13223230D01*
X13735698Y-13223230D02*
X13745221Y-13213706D01*
X13745221Y-13213706D02*
X13754745Y-13194658D01*
X13754745Y-13194658D02*
X13754745Y-13156563D01*
X13754745Y-13156563D02*
X13745221Y-13137516D01*
X13745221Y-13137516D02*
X13735698Y-13127992D01*
X13735698Y-13127992D02*
X13716650Y-13118468D01*
X13992840Y-13232754D02*
X13992840Y-13032754D01*
X14078555Y-13232754D02*
X14078555Y-13127992D01*
X14078555Y-13127992D02*
X14069031Y-13108944D01*
X14069031Y-13108944D02*
X14049983Y-13099420D01*
X14049983Y-13099420D02*
X14021412Y-13099420D01*
X14021412Y-13099420D02*
X14002364Y-13108944D01*
X14002364Y-13108944D02*
X13992840Y-13118468D01*
X14202364Y-13232754D02*
X14183317Y-13223230D01*
X14183317Y-13223230D02*
X14173793Y-13213706D01*
X14173793Y-13213706D02*
X14164269Y-13194658D01*
X14164269Y-13194658D02*
X14164269Y-13137516D01*
X14164269Y-13137516D02*
X14173793Y-13118468D01*
X14173793Y-13118468D02*
X14183317Y-13108944D01*
X14183317Y-13108944D02*
X14202364Y-13099420D01*
X14202364Y-13099420D02*
X14230936Y-13099420D01*
X14230936Y-13099420D02*
X14249983Y-13108944D01*
X14249983Y-13108944D02*
X14259507Y-13118468D01*
X14259507Y-13118468D02*
X14269031Y-13137516D01*
X14269031Y-13137516D02*
X14269031Y-13194658D01*
X14269031Y-13194658D02*
X14259507Y-13213706D01*
X14259507Y-13213706D02*
X14249983Y-13223230D01*
X14249983Y-13223230D02*
X14230936Y-13232754D01*
X14230936Y-13232754D02*
X14202364Y-13232754D01*
X14383317Y-13232754D02*
X14364269Y-13223230D01*
X14364269Y-13223230D02*
X14354745Y-13204182D01*
X14354745Y-13204182D02*
X14354745Y-13032754D01*
X14535698Y-13223230D02*
X14516650Y-13232754D01*
X14516650Y-13232754D02*
X14478555Y-13232754D01*
X14478555Y-13232754D02*
X14459507Y-13223230D01*
X14459507Y-13223230D02*
X14449983Y-13204182D01*
X14449983Y-13204182D02*
X14449983Y-13127992D01*
X14449983Y-13127992D02*
X14459507Y-13108944D01*
X14459507Y-13108944D02*
X14478555Y-13099420D01*
X14478555Y-13099420D02*
X14516650Y-13099420D01*
X14516650Y-13099420D02*
X14535698Y-13108944D01*
X14535698Y-13108944D02*
X14545221Y-13127992D01*
X14545221Y-13127992D02*
X14545221Y-13147039D01*
X14545221Y-13147039D02*
X14449983Y-13166087D01*
X14621412Y-13223230D02*
X14640460Y-13232754D01*
X14640460Y-13232754D02*
X14678555Y-13232754D01*
X14678555Y-13232754D02*
X14697602Y-13223230D01*
X14697602Y-13223230D02*
X14707126Y-13204182D01*
X14707126Y-13204182D02*
X14707126Y-13194658D01*
X14707126Y-13194658D02*
X14697602Y-13175611D01*
X14697602Y-13175611D02*
X14678555Y-13166087D01*
X14678555Y-13166087D02*
X14649983Y-13166087D01*
X14649983Y-13166087D02*
X14630936Y-13156563D01*
X14630936Y-13156563D02*
X14621412Y-13137516D01*
X14621412Y-13137516D02*
X14621412Y-13127992D01*
X14621412Y-13127992D02*
X14630936Y-13108944D01*
X14630936Y-13108944D02*
X14649983Y-13099420D01*
X14649983Y-13099420D02*
X14678555Y-13099420D01*
X14678555Y-13099420D02*
X14697602Y-13108944D01*
X14773793Y-13308944D02*
X14783317Y-13299420D01*
X14783317Y-13299420D02*
X14802364Y-13270849D01*
X14802364Y-13270849D02*
X14811888Y-13251801D01*
X14811888Y-13251801D02*
X14821412Y-13223230D01*
X14821412Y-13223230D02*
X14830936Y-13175611D01*
X14830936Y-13175611D02*
X14830936Y-13137516D01*
X14830936Y-13137516D02*
X14821412Y-13089897D01*
X14821412Y-13089897D02*
X14811888Y-13061325D01*
X14811888Y-13061325D02*
X14802364Y-13042278D01*
X14802364Y-13042278D02*
X14783317Y-13013706D01*
X14783317Y-13013706D02*
X14773793Y-13004182D01*
D13*
X9998730Y-13405270D02*
G75*
G03*
X9998730Y-13405270I-50000J0D01*
G01*
D11*
X10364269Y-13496754D02*
X10249983Y-13496754D01*
X10307126Y-13496754D02*
X10307126Y-13296754D01*
X10307126Y-13296754D02*
X10288078Y-13325325D01*
X10288078Y-13325325D02*
X10269031Y-13344373D01*
X10269031Y-13344373D02*
X10249983Y-13353897D01*
X10449983Y-13477706D02*
X10459507Y-13487230D01*
X10459507Y-13487230D02*
X10449983Y-13496754D01*
X10449983Y-13496754D02*
X10440459Y-13487230D01*
X10440459Y-13487230D02*
X10449983Y-13477706D01*
X10449983Y-13477706D02*
X10449983Y-13496754D01*
X10583316Y-13296754D02*
X10602364Y-13296754D01*
X10602364Y-13296754D02*
X10621412Y-13306278D01*
X10621412Y-13306278D02*
X10630935Y-13315801D01*
X10630935Y-13315801D02*
X10640459Y-13334849D01*
X10640459Y-13334849D02*
X10649983Y-13372944D01*
X10649983Y-13372944D02*
X10649983Y-13420563D01*
X10649983Y-13420563D02*
X10640459Y-13458658D01*
X10640459Y-13458658D02*
X10630935Y-13477706D01*
X10630935Y-13477706D02*
X10621412Y-13487230D01*
X10621412Y-13487230D02*
X10602364Y-13496754D01*
X10602364Y-13496754D02*
X10583316Y-13496754D01*
X10583316Y-13496754D02*
X10564269Y-13487230D01*
X10564269Y-13487230D02*
X10554745Y-13477706D01*
X10554745Y-13477706D02*
X10545221Y-13458658D01*
X10545221Y-13458658D02*
X10535697Y-13420563D01*
X10535697Y-13420563D02*
X10535697Y-13372944D01*
X10535697Y-13372944D02*
X10545221Y-13334849D01*
X10545221Y-13334849D02*
X10554745Y-13315801D01*
X10554745Y-13315801D02*
X10564269Y-13306278D01*
X10564269Y-13306278D02*
X10583316Y-13296754D01*
X10773793Y-13296754D02*
X10792840Y-13296754D01*
X10792840Y-13296754D02*
X10811888Y-13306278D01*
X10811888Y-13306278D02*
X10821412Y-13315801D01*
X10821412Y-13315801D02*
X10830935Y-13334849D01*
X10830935Y-13334849D02*
X10840459Y-13372944D01*
X10840459Y-13372944D02*
X10840459Y-13420563D01*
X10840459Y-13420563D02*
X10830935Y-13458658D01*
X10830935Y-13458658D02*
X10821412Y-13477706D01*
X10821412Y-13477706D02*
X10811888Y-13487230D01*
X10811888Y-13487230D02*
X10792840Y-13496754D01*
X10792840Y-13496754D02*
X10773793Y-13496754D01*
X10773793Y-13496754D02*
X10754745Y-13487230D01*
X10754745Y-13487230D02*
X10745221Y-13477706D01*
X10745221Y-13477706D02*
X10735697Y-13458658D01*
X10735697Y-13458658D02*
X10726174Y-13420563D01*
X10726174Y-13420563D02*
X10726174Y-13372944D01*
X10726174Y-13372944D02*
X10735697Y-13334849D01*
X10735697Y-13334849D02*
X10745221Y-13315801D01*
X10745221Y-13315801D02*
X10754745Y-13306278D01*
X10754745Y-13306278D02*
X10773793Y-13296754D01*
X10964269Y-13296754D02*
X10983316Y-13296754D01*
X10983316Y-13296754D02*
X11002364Y-13306278D01*
X11002364Y-13306278D02*
X11011888Y-13315801D01*
X11011888Y-13315801D02*
X11021412Y-13334849D01*
X11021412Y-13334849D02*
X11030935Y-13372944D01*
X11030935Y-13372944D02*
X11030935Y-13420563D01*
X11030935Y-13420563D02*
X11021412Y-13458658D01*
X11021412Y-13458658D02*
X11011888Y-13477706D01*
X11011888Y-13477706D02*
X11002364Y-13487230D01*
X11002364Y-13487230D02*
X10983316Y-13496754D01*
X10983316Y-13496754D02*
X10964269Y-13496754D01*
X10964269Y-13496754D02*
X10945221Y-13487230D01*
X10945221Y-13487230D02*
X10935697Y-13477706D01*
X10935697Y-13477706D02*
X10926174Y-13458658D01*
X10926174Y-13458658D02*
X10916650Y-13420563D01*
X10916650Y-13420563D02*
X10916650Y-13372944D01*
X10916650Y-13372944D02*
X10926174Y-13334849D01*
X10926174Y-13334849D02*
X10935697Y-13315801D01*
X10935697Y-13315801D02*
X10945221Y-13306278D01*
X10945221Y-13306278D02*
X10964269Y-13296754D01*
X11116650Y-13496754D02*
X11116650Y-13363420D01*
X11116650Y-13382468D02*
X11126174Y-13372944D01*
X11126174Y-13372944D02*
X11145221Y-13363420D01*
X11145221Y-13363420D02*
X11173793Y-13363420D01*
X11173793Y-13363420D02*
X11192840Y-13372944D01*
X11192840Y-13372944D02*
X11202364Y-13391992D01*
X11202364Y-13391992D02*
X11202364Y-13496754D01*
X11202364Y-13391992D02*
X11211888Y-13372944D01*
X11211888Y-13372944D02*
X11230935Y-13363420D01*
X11230935Y-13363420D02*
X11259507Y-13363420D01*
X11259507Y-13363420D02*
X11278554Y-13372944D01*
X11278554Y-13372944D02*
X11288078Y-13391992D01*
X11288078Y-13391992D02*
X11288078Y-13496754D01*
X11383316Y-13496754D02*
X11383316Y-13363420D01*
X11383316Y-13382468D02*
X11392840Y-13372944D01*
X11392840Y-13372944D02*
X11411888Y-13363420D01*
X11411888Y-13363420D02*
X11440459Y-13363420D01*
X11440459Y-13363420D02*
X11459507Y-13372944D01*
X11459507Y-13372944D02*
X11469031Y-13391992D01*
X11469031Y-13391992D02*
X11469031Y-13496754D01*
X11469031Y-13391992D02*
X11478554Y-13372944D01*
X11478554Y-13372944D02*
X11497602Y-13363420D01*
X11497602Y-13363420D02*
X11526173Y-13363420D01*
X11526173Y-13363420D02*
X11545221Y-13372944D01*
X11545221Y-13372944D02*
X11554745Y-13391992D01*
X11554745Y-13391992D02*
X11554745Y-13496754D01*
X11945221Y-13287230D02*
X11773793Y-13544373D01*
X12202364Y-13296754D02*
X12221412Y-13296754D01*
X12221412Y-13296754D02*
X12240459Y-13306278D01*
X12240459Y-13306278D02*
X12249983Y-13315801D01*
X12249983Y-13315801D02*
X12259507Y-13334849D01*
X12259507Y-13334849D02*
X12269031Y-13372944D01*
X12269031Y-13372944D02*
X12269031Y-13420563D01*
X12269031Y-13420563D02*
X12259507Y-13458658D01*
X12259507Y-13458658D02*
X12249983Y-13477706D01*
X12249983Y-13477706D02*
X12240459Y-13487230D01*
X12240459Y-13487230D02*
X12221412Y-13496754D01*
X12221412Y-13496754D02*
X12202364Y-13496754D01*
X12202364Y-13496754D02*
X12183316Y-13487230D01*
X12183316Y-13487230D02*
X12173793Y-13477706D01*
X12173793Y-13477706D02*
X12164269Y-13458658D01*
X12164269Y-13458658D02*
X12154745Y-13420563D01*
X12154745Y-13420563D02*
X12154745Y-13372944D01*
X12154745Y-13372944D02*
X12164269Y-13334849D01*
X12164269Y-13334849D02*
X12173793Y-13315801D01*
X12173793Y-13315801D02*
X12183316Y-13306278D01*
X12183316Y-13306278D02*
X12202364Y-13296754D01*
X12354745Y-13477706D02*
X12364269Y-13487230D01*
X12364269Y-13487230D02*
X12354745Y-13496754D01*
X12354745Y-13496754D02*
X12345221Y-13487230D01*
X12345221Y-13487230D02*
X12354745Y-13477706D01*
X12354745Y-13477706D02*
X12354745Y-13496754D01*
X12488078Y-13296754D02*
X12507126Y-13296754D01*
X12507126Y-13296754D02*
X12526174Y-13306278D01*
X12526174Y-13306278D02*
X12535697Y-13315801D01*
X12535697Y-13315801D02*
X12545221Y-13334849D01*
X12545221Y-13334849D02*
X12554745Y-13372944D01*
X12554745Y-13372944D02*
X12554745Y-13420563D01*
X12554745Y-13420563D02*
X12545221Y-13458658D01*
X12545221Y-13458658D02*
X12535697Y-13477706D01*
X12535697Y-13477706D02*
X12526174Y-13487230D01*
X12526174Y-13487230D02*
X12507126Y-13496754D01*
X12507126Y-13496754D02*
X12488078Y-13496754D01*
X12488078Y-13496754D02*
X12469031Y-13487230D01*
X12469031Y-13487230D02*
X12459507Y-13477706D01*
X12459507Y-13477706D02*
X12449983Y-13458658D01*
X12449983Y-13458658D02*
X12440459Y-13420563D01*
X12440459Y-13420563D02*
X12440459Y-13372944D01*
X12440459Y-13372944D02*
X12449983Y-13334849D01*
X12449983Y-13334849D02*
X12459507Y-13315801D01*
X12459507Y-13315801D02*
X12469031Y-13306278D01*
X12469031Y-13306278D02*
X12488078Y-13296754D01*
X12621412Y-13296754D02*
X12745221Y-13296754D01*
X12745221Y-13296754D02*
X12678555Y-13372944D01*
X12678555Y-13372944D02*
X12707126Y-13372944D01*
X12707126Y-13372944D02*
X12726174Y-13382468D01*
X12726174Y-13382468D02*
X12735697Y-13391992D01*
X12735697Y-13391992D02*
X12745221Y-13411039D01*
X12745221Y-13411039D02*
X12745221Y-13458658D01*
X12745221Y-13458658D02*
X12735697Y-13477706D01*
X12735697Y-13477706D02*
X12726174Y-13487230D01*
X12726174Y-13487230D02*
X12707126Y-13496754D01*
X12707126Y-13496754D02*
X12649983Y-13496754D01*
X12649983Y-13496754D02*
X12630936Y-13487230D01*
X12630936Y-13487230D02*
X12621412Y-13477706D01*
X12840459Y-13496754D02*
X12878555Y-13496754D01*
X12878555Y-13496754D02*
X12897602Y-13487230D01*
X12897602Y-13487230D02*
X12907126Y-13477706D01*
X12907126Y-13477706D02*
X12926174Y-13449135D01*
X12926174Y-13449135D02*
X12935697Y-13411039D01*
X12935697Y-13411039D02*
X12935697Y-13334849D01*
X12935697Y-13334849D02*
X12926174Y-13315801D01*
X12926174Y-13315801D02*
X12916650Y-13306278D01*
X12916650Y-13306278D02*
X12897602Y-13296754D01*
X12897602Y-13296754D02*
X12859507Y-13296754D01*
X12859507Y-13296754D02*
X12840459Y-13306278D01*
X12840459Y-13306278D02*
X12830936Y-13315801D01*
X12830936Y-13315801D02*
X12821412Y-13334849D01*
X12821412Y-13334849D02*
X12821412Y-13382468D01*
X12821412Y-13382468D02*
X12830936Y-13401516D01*
X12830936Y-13401516D02*
X12840459Y-13411039D01*
X12840459Y-13411039D02*
X12859507Y-13420563D01*
X12859507Y-13420563D02*
X12897602Y-13420563D01*
X12897602Y-13420563D02*
X12916650Y-13411039D01*
X12916650Y-13411039D02*
X12926174Y-13401516D01*
X12926174Y-13401516D02*
X12935697Y-13382468D01*
X13107126Y-13363420D02*
X13107126Y-13496754D01*
X13059507Y-13287230D02*
X13011888Y-13430087D01*
X13011888Y-13430087D02*
X13135697Y-13430087D01*
X13202364Y-13296754D02*
X13202364Y-13334849D01*
X13278555Y-13296754D02*
X13278555Y-13334849D01*
X13573793Y-13572944D02*
X13564269Y-13563420D01*
X13564269Y-13563420D02*
X13545221Y-13534849D01*
X13545221Y-13534849D02*
X13535698Y-13515801D01*
X13535698Y-13515801D02*
X13526174Y-13487230D01*
X13526174Y-13487230D02*
X13516650Y-13439611D01*
X13516650Y-13439611D02*
X13516650Y-13401516D01*
X13516650Y-13401516D02*
X13526174Y-13353897D01*
X13526174Y-13353897D02*
X13535698Y-13325325D01*
X13535698Y-13325325D02*
X13545221Y-13306278D01*
X13545221Y-13306278D02*
X13564269Y-13277706D01*
X13564269Y-13277706D02*
X13573793Y-13268182D01*
X13754745Y-13496754D02*
X13640459Y-13496754D01*
X13697602Y-13496754D02*
X13697602Y-13296754D01*
X13697602Y-13296754D02*
X13678555Y-13325325D01*
X13678555Y-13325325D02*
X13659507Y-13344373D01*
X13659507Y-13344373D02*
X13640459Y-13353897D01*
X13945221Y-13496754D02*
X13830936Y-13496754D01*
X13888078Y-13496754D02*
X13888078Y-13296754D01*
X13888078Y-13296754D02*
X13869031Y-13325325D01*
X13869031Y-13325325D02*
X13849983Y-13344373D01*
X13849983Y-13344373D02*
X13830936Y-13353897D01*
X14116650Y-13363420D02*
X14116650Y-13496754D01*
X14069031Y-13287230D02*
X14021412Y-13430087D01*
X14021412Y-13430087D02*
X14145221Y-13430087D01*
X14373793Y-13496754D02*
X14373793Y-13296754D01*
X14459507Y-13496754D02*
X14459507Y-13391992D01*
X14459507Y-13391992D02*
X14449983Y-13372944D01*
X14449983Y-13372944D02*
X14430936Y-13363420D01*
X14430936Y-13363420D02*
X14402364Y-13363420D01*
X14402364Y-13363420D02*
X14383317Y-13372944D01*
X14383317Y-13372944D02*
X14373793Y-13382468D01*
X14583317Y-13496754D02*
X14564269Y-13487230D01*
X14564269Y-13487230D02*
X14554745Y-13477706D01*
X14554745Y-13477706D02*
X14545221Y-13458658D01*
X14545221Y-13458658D02*
X14545221Y-13401516D01*
X14545221Y-13401516D02*
X14554745Y-13382468D01*
X14554745Y-13382468D02*
X14564269Y-13372944D01*
X14564269Y-13372944D02*
X14583317Y-13363420D01*
X14583317Y-13363420D02*
X14611888Y-13363420D01*
X14611888Y-13363420D02*
X14630936Y-13372944D01*
X14630936Y-13372944D02*
X14640460Y-13382468D01*
X14640460Y-13382468D02*
X14649983Y-13401516D01*
X14649983Y-13401516D02*
X14649983Y-13458658D01*
X14649983Y-13458658D02*
X14640460Y-13477706D01*
X14640460Y-13477706D02*
X14630936Y-13487230D01*
X14630936Y-13487230D02*
X14611888Y-13496754D01*
X14611888Y-13496754D02*
X14583317Y-13496754D01*
X14764269Y-13496754D02*
X14745221Y-13487230D01*
X14745221Y-13487230D02*
X14735698Y-13468182D01*
X14735698Y-13468182D02*
X14735698Y-13296754D01*
X14916650Y-13487230D02*
X14897602Y-13496754D01*
X14897602Y-13496754D02*
X14859507Y-13496754D01*
X14859507Y-13496754D02*
X14840460Y-13487230D01*
X14840460Y-13487230D02*
X14830936Y-13468182D01*
X14830936Y-13468182D02*
X14830936Y-13391992D01*
X14830936Y-13391992D02*
X14840460Y-13372944D01*
X14840460Y-13372944D02*
X14859507Y-13363420D01*
X14859507Y-13363420D02*
X14897602Y-13363420D01*
X14897602Y-13363420D02*
X14916650Y-13372944D01*
X14916650Y-13372944D02*
X14926174Y-13391992D01*
X14926174Y-13391992D02*
X14926174Y-13411039D01*
X14926174Y-13411039D02*
X14830936Y-13430087D01*
X15002364Y-13487230D02*
X15021412Y-13496754D01*
X15021412Y-13496754D02*
X15059507Y-13496754D01*
X15059507Y-13496754D02*
X15078555Y-13487230D01*
X15078555Y-13487230D02*
X15088079Y-13468182D01*
X15088079Y-13468182D02*
X15088079Y-13458658D01*
X15088079Y-13458658D02*
X15078555Y-13439611D01*
X15078555Y-13439611D02*
X15059507Y-13430087D01*
X15059507Y-13430087D02*
X15030936Y-13430087D01*
X15030936Y-13430087D02*
X15011888Y-13420563D01*
X15011888Y-13420563D02*
X15002364Y-13401516D01*
X15002364Y-13401516D02*
X15002364Y-13391992D01*
X15002364Y-13391992D02*
X15011888Y-13372944D01*
X15011888Y-13372944D02*
X15030936Y-13363420D01*
X15030936Y-13363420D02*
X15059507Y-13363420D01*
X15059507Y-13363420D02*
X15078555Y-13372944D01*
X15154745Y-13572944D02*
X15164269Y-13563420D01*
X15164269Y-13563420D02*
X15183317Y-13534849D01*
X15183317Y-13534849D02*
X15192841Y-13515801D01*
X15192841Y-13515801D02*
X15202364Y-13487230D01*
X15202364Y-13487230D02*
X15211888Y-13439611D01*
X15211888Y-13439611D02*
X15211888Y-13401516D01*
X15211888Y-13401516D02*
X15202364Y-13353897D01*
X15202364Y-13353897D02*
X15192841Y-13325325D01*
X15192841Y-13325325D02*
X15183317Y-13306278D01*
X15183317Y-13306278D02*
X15164269Y-13277706D01*
X15164269Y-13277706D02*
X15154745Y-13268182D01*
X9898730Y-13569270D02*
X9898730Y-13769270D01*
X9798730Y-13669270D02*
X9998730Y-13669270D01*
X10240459Y-13560754D02*
X10364269Y-13560754D01*
X10364269Y-13560754D02*
X10297602Y-13636944D01*
X10297602Y-13636944D02*
X10326174Y-13636944D01*
X10326174Y-13636944D02*
X10345221Y-13646468D01*
X10345221Y-13646468D02*
X10354745Y-13655992D01*
X10354745Y-13655992D02*
X10364269Y-13675039D01*
X10364269Y-13675039D02*
X10364269Y-13722658D01*
X10364269Y-13722658D02*
X10354745Y-13741706D01*
X10354745Y-13741706D02*
X10345221Y-13751230D01*
X10345221Y-13751230D02*
X10326174Y-13760754D01*
X10326174Y-13760754D02*
X10269031Y-13760754D01*
X10269031Y-13760754D02*
X10249983Y-13751230D01*
X10249983Y-13751230D02*
X10240459Y-13741706D01*
X10449983Y-13741706D02*
X10459507Y-13751230D01*
X10459507Y-13751230D02*
X10449983Y-13760754D01*
X10449983Y-13760754D02*
X10440459Y-13751230D01*
X10440459Y-13751230D02*
X10449983Y-13741706D01*
X10449983Y-13741706D02*
X10449983Y-13760754D01*
X10535697Y-13579801D02*
X10545221Y-13570278D01*
X10545221Y-13570278D02*
X10564269Y-13560754D01*
X10564269Y-13560754D02*
X10611888Y-13560754D01*
X10611888Y-13560754D02*
X10630935Y-13570278D01*
X10630935Y-13570278D02*
X10640459Y-13579801D01*
X10640459Y-13579801D02*
X10649983Y-13598849D01*
X10649983Y-13598849D02*
X10649983Y-13617897D01*
X10649983Y-13617897D02*
X10640459Y-13646468D01*
X10640459Y-13646468D02*
X10526174Y-13760754D01*
X10526174Y-13760754D02*
X10649983Y-13760754D01*
X10773793Y-13560754D02*
X10792840Y-13560754D01*
X10792840Y-13560754D02*
X10811888Y-13570278D01*
X10811888Y-13570278D02*
X10821412Y-13579801D01*
X10821412Y-13579801D02*
X10830935Y-13598849D01*
X10830935Y-13598849D02*
X10840459Y-13636944D01*
X10840459Y-13636944D02*
X10840459Y-13684563D01*
X10840459Y-13684563D02*
X10830935Y-13722658D01*
X10830935Y-13722658D02*
X10821412Y-13741706D01*
X10821412Y-13741706D02*
X10811888Y-13751230D01*
X10811888Y-13751230D02*
X10792840Y-13760754D01*
X10792840Y-13760754D02*
X10773793Y-13760754D01*
X10773793Y-13760754D02*
X10754745Y-13751230D01*
X10754745Y-13751230D02*
X10745221Y-13741706D01*
X10745221Y-13741706D02*
X10735697Y-13722658D01*
X10735697Y-13722658D02*
X10726174Y-13684563D01*
X10726174Y-13684563D02*
X10726174Y-13636944D01*
X10726174Y-13636944D02*
X10735697Y-13598849D01*
X10735697Y-13598849D02*
X10745221Y-13579801D01*
X10745221Y-13579801D02*
X10754745Y-13570278D01*
X10754745Y-13570278D02*
X10773793Y-13560754D01*
X10964269Y-13560754D02*
X10983316Y-13560754D01*
X10983316Y-13560754D02*
X11002364Y-13570278D01*
X11002364Y-13570278D02*
X11011888Y-13579801D01*
X11011888Y-13579801D02*
X11021412Y-13598849D01*
X11021412Y-13598849D02*
X11030935Y-13636944D01*
X11030935Y-13636944D02*
X11030935Y-13684563D01*
X11030935Y-13684563D02*
X11021412Y-13722658D01*
X11021412Y-13722658D02*
X11011888Y-13741706D01*
X11011888Y-13741706D02*
X11002364Y-13751230D01*
X11002364Y-13751230D02*
X10983316Y-13760754D01*
X10983316Y-13760754D02*
X10964269Y-13760754D01*
X10964269Y-13760754D02*
X10945221Y-13751230D01*
X10945221Y-13751230D02*
X10935697Y-13741706D01*
X10935697Y-13741706D02*
X10926174Y-13722658D01*
X10926174Y-13722658D02*
X10916650Y-13684563D01*
X10916650Y-13684563D02*
X10916650Y-13636944D01*
X10916650Y-13636944D02*
X10926174Y-13598849D01*
X10926174Y-13598849D02*
X10935697Y-13579801D01*
X10935697Y-13579801D02*
X10945221Y-13570278D01*
X10945221Y-13570278D02*
X10964269Y-13560754D01*
X11116650Y-13760754D02*
X11116650Y-13627420D01*
X11116650Y-13646468D02*
X11126174Y-13636944D01*
X11126174Y-13636944D02*
X11145221Y-13627420D01*
X11145221Y-13627420D02*
X11173793Y-13627420D01*
X11173793Y-13627420D02*
X11192840Y-13636944D01*
X11192840Y-13636944D02*
X11202364Y-13655992D01*
X11202364Y-13655992D02*
X11202364Y-13760754D01*
X11202364Y-13655992D02*
X11211888Y-13636944D01*
X11211888Y-13636944D02*
X11230935Y-13627420D01*
X11230935Y-13627420D02*
X11259507Y-13627420D01*
X11259507Y-13627420D02*
X11278554Y-13636944D01*
X11278554Y-13636944D02*
X11288078Y-13655992D01*
X11288078Y-13655992D02*
X11288078Y-13760754D01*
X11383316Y-13760754D02*
X11383316Y-13627420D01*
X11383316Y-13646468D02*
X11392840Y-13636944D01*
X11392840Y-13636944D02*
X11411888Y-13627420D01*
X11411888Y-13627420D02*
X11440459Y-13627420D01*
X11440459Y-13627420D02*
X11459507Y-13636944D01*
X11459507Y-13636944D02*
X11469031Y-13655992D01*
X11469031Y-13655992D02*
X11469031Y-13760754D01*
X11469031Y-13655992D02*
X11478554Y-13636944D01*
X11478554Y-13636944D02*
X11497602Y-13627420D01*
X11497602Y-13627420D02*
X11526173Y-13627420D01*
X11526173Y-13627420D02*
X11545221Y-13636944D01*
X11545221Y-13636944D02*
X11554745Y-13655992D01*
X11554745Y-13655992D02*
X11554745Y-13760754D01*
X11945221Y-13551230D02*
X11773793Y-13808373D01*
X12202364Y-13560754D02*
X12221412Y-13560754D01*
X12221412Y-13560754D02*
X12240459Y-13570278D01*
X12240459Y-13570278D02*
X12249983Y-13579801D01*
X12249983Y-13579801D02*
X12259507Y-13598849D01*
X12259507Y-13598849D02*
X12269031Y-13636944D01*
X12269031Y-13636944D02*
X12269031Y-13684563D01*
X12269031Y-13684563D02*
X12259507Y-13722658D01*
X12259507Y-13722658D02*
X12249983Y-13741706D01*
X12249983Y-13741706D02*
X12240459Y-13751230D01*
X12240459Y-13751230D02*
X12221412Y-13760754D01*
X12221412Y-13760754D02*
X12202364Y-13760754D01*
X12202364Y-13760754D02*
X12183316Y-13751230D01*
X12183316Y-13751230D02*
X12173793Y-13741706D01*
X12173793Y-13741706D02*
X12164269Y-13722658D01*
X12164269Y-13722658D02*
X12154745Y-13684563D01*
X12154745Y-13684563D02*
X12154745Y-13636944D01*
X12154745Y-13636944D02*
X12164269Y-13598849D01*
X12164269Y-13598849D02*
X12173793Y-13579801D01*
X12173793Y-13579801D02*
X12183316Y-13570278D01*
X12183316Y-13570278D02*
X12202364Y-13560754D01*
X12354745Y-13741706D02*
X12364269Y-13751230D01*
X12364269Y-13751230D02*
X12354745Y-13760754D01*
X12354745Y-13760754D02*
X12345221Y-13751230D01*
X12345221Y-13751230D02*
X12354745Y-13741706D01*
X12354745Y-13741706D02*
X12354745Y-13760754D01*
X12554745Y-13760754D02*
X12440459Y-13760754D01*
X12497602Y-13760754D02*
X12497602Y-13560754D01*
X12497602Y-13560754D02*
X12478555Y-13589325D01*
X12478555Y-13589325D02*
X12459507Y-13608373D01*
X12459507Y-13608373D02*
X12440459Y-13617897D01*
X12630936Y-13579801D02*
X12640459Y-13570278D01*
X12640459Y-13570278D02*
X12659507Y-13560754D01*
X12659507Y-13560754D02*
X12707126Y-13560754D01*
X12707126Y-13560754D02*
X12726174Y-13570278D01*
X12726174Y-13570278D02*
X12735697Y-13579801D01*
X12735697Y-13579801D02*
X12745221Y-13598849D01*
X12745221Y-13598849D02*
X12745221Y-13617897D01*
X12745221Y-13617897D02*
X12735697Y-13646468D01*
X12735697Y-13646468D02*
X12621412Y-13760754D01*
X12621412Y-13760754D02*
X12745221Y-13760754D01*
X12916650Y-13560754D02*
X12878555Y-13560754D01*
X12878555Y-13560754D02*
X12859507Y-13570278D01*
X12859507Y-13570278D02*
X12849983Y-13579801D01*
X12849983Y-13579801D02*
X12830936Y-13608373D01*
X12830936Y-13608373D02*
X12821412Y-13646468D01*
X12821412Y-13646468D02*
X12821412Y-13722658D01*
X12821412Y-13722658D02*
X12830936Y-13741706D01*
X12830936Y-13741706D02*
X12840459Y-13751230D01*
X12840459Y-13751230D02*
X12859507Y-13760754D01*
X12859507Y-13760754D02*
X12897602Y-13760754D01*
X12897602Y-13760754D02*
X12916650Y-13751230D01*
X12916650Y-13751230D02*
X12926174Y-13741706D01*
X12926174Y-13741706D02*
X12935697Y-13722658D01*
X12935697Y-13722658D02*
X12935697Y-13675039D01*
X12935697Y-13675039D02*
X12926174Y-13655992D01*
X12926174Y-13655992D02*
X12916650Y-13646468D01*
X12916650Y-13646468D02*
X12897602Y-13636944D01*
X12897602Y-13636944D02*
X12859507Y-13636944D01*
X12859507Y-13636944D02*
X12840459Y-13646468D01*
X12840459Y-13646468D02*
X12830936Y-13655992D01*
X12830936Y-13655992D02*
X12821412Y-13675039D01*
X13059507Y-13560754D02*
X13078555Y-13560754D01*
X13078555Y-13560754D02*
X13097602Y-13570278D01*
X13097602Y-13570278D02*
X13107126Y-13579801D01*
X13107126Y-13579801D02*
X13116650Y-13598849D01*
X13116650Y-13598849D02*
X13126174Y-13636944D01*
X13126174Y-13636944D02*
X13126174Y-13684563D01*
X13126174Y-13684563D02*
X13116650Y-13722658D01*
X13116650Y-13722658D02*
X13107126Y-13741706D01*
X13107126Y-13741706D02*
X13097602Y-13751230D01*
X13097602Y-13751230D02*
X13078555Y-13760754D01*
X13078555Y-13760754D02*
X13059507Y-13760754D01*
X13059507Y-13760754D02*
X13040459Y-13751230D01*
X13040459Y-13751230D02*
X13030936Y-13741706D01*
X13030936Y-13741706D02*
X13021412Y-13722658D01*
X13021412Y-13722658D02*
X13011888Y-13684563D01*
X13011888Y-13684563D02*
X13011888Y-13636944D01*
X13011888Y-13636944D02*
X13021412Y-13598849D01*
X13021412Y-13598849D02*
X13030936Y-13579801D01*
X13030936Y-13579801D02*
X13040459Y-13570278D01*
X13040459Y-13570278D02*
X13059507Y-13560754D01*
X13202364Y-13560754D02*
X13202364Y-13598849D01*
X13278555Y-13560754D02*
X13278555Y-13598849D01*
X13573793Y-13836944D02*
X13564269Y-13827420D01*
X13564269Y-13827420D02*
X13545221Y-13798849D01*
X13545221Y-13798849D02*
X13535698Y-13779801D01*
X13535698Y-13779801D02*
X13526174Y-13751230D01*
X13526174Y-13751230D02*
X13516650Y-13703611D01*
X13516650Y-13703611D02*
X13516650Y-13665516D01*
X13516650Y-13665516D02*
X13526174Y-13617897D01*
X13526174Y-13617897D02*
X13535698Y-13589325D01*
X13535698Y-13589325D02*
X13545221Y-13570278D01*
X13545221Y-13570278D02*
X13564269Y-13541706D01*
X13564269Y-13541706D02*
X13573793Y-13532182D01*
X13735698Y-13627420D02*
X13735698Y-13760754D01*
X13688078Y-13551230D02*
X13640459Y-13694087D01*
X13640459Y-13694087D02*
X13764269Y-13694087D01*
X13992840Y-13760754D02*
X13992840Y-13560754D01*
X14078555Y-13760754D02*
X14078555Y-13655992D01*
X14078555Y-13655992D02*
X14069031Y-13636944D01*
X14069031Y-13636944D02*
X14049983Y-13627420D01*
X14049983Y-13627420D02*
X14021412Y-13627420D01*
X14021412Y-13627420D02*
X14002364Y-13636944D01*
X14002364Y-13636944D02*
X13992840Y-13646468D01*
X14202364Y-13760754D02*
X14183317Y-13751230D01*
X14183317Y-13751230D02*
X14173793Y-13741706D01*
X14173793Y-13741706D02*
X14164269Y-13722658D01*
X14164269Y-13722658D02*
X14164269Y-13665516D01*
X14164269Y-13665516D02*
X14173793Y-13646468D01*
X14173793Y-13646468D02*
X14183317Y-13636944D01*
X14183317Y-13636944D02*
X14202364Y-13627420D01*
X14202364Y-13627420D02*
X14230936Y-13627420D01*
X14230936Y-13627420D02*
X14249983Y-13636944D01*
X14249983Y-13636944D02*
X14259507Y-13646468D01*
X14259507Y-13646468D02*
X14269031Y-13665516D01*
X14269031Y-13665516D02*
X14269031Y-13722658D01*
X14269031Y-13722658D02*
X14259507Y-13741706D01*
X14259507Y-13741706D02*
X14249983Y-13751230D01*
X14249983Y-13751230D02*
X14230936Y-13760754D01*
X14230936Y-13760754D02*
X14202364Y-13760754D01*
X14383317Y-13760754D02*
X14364269Y-13751230D01*
X14364269Y-13751230D02*
X14354745Y-13732182D01*
X14354745Y-13732182D02*
X14354745Y-13560754D01*
X14535698Y-13751230D02*
X14516650Y-13760754D01*
X14516650Y-13760754D02*
X14478555Y-13760754D01*
X14478555Y-13760754D02*
X14459507Y-13751230D01*
X14459507Y-13751230D02*
X14449983Y-13732182D01*
X14449983Y-13732182D02*
X14449983Y-13655992D01*
X14449983Y-13655992D02*
X14459507Y-13636944D01*
X14459507Y-13636944D02*
X14478555Y-13627420D01*
X14478555Y-13627420D02*
X14516650Y-13627420D01*
X14516650Y-13627420D02*
X14535698Y-13636944D01*
X14535698Y-13636944D02*
X14545221Y-13655992D01*
X14545221Y-13655992D02*
X14545221Y-13675039D01*
X14545221Y-13675039D02*
X14449983Y-13694087D01*
X14621412Y-13751230D02*
X14640460Y-13760754D01*
X14640460Y-13760754D02*
X14678555Y-13760754D01*
X14678555Y-13760754D02*
X14697602Y-13751230D01*
X14697602Y-13751230D02*
X14707126Y-13732182D01*
X14707126Y-13732182D02*
X14707126Y-13722658D01*
X14707126Y-13722658D02*
X14697602Y-13703611D01*
X14697602Y-13703611D02*
X14678555Y-13694087D01*
X14678555Y-13694087D02*
X14649983Y-13694087D01*
X14649983Y-13694087D02*
X14630936Y-13684563D01*
X14630936Y-13684563D02*
X14621412Y-13665516D01*
X14621412Y-13665516D02*
X14621412Y-13655992D01*
X14621412Y-13655992D02*
X14630936Y-13636944D01*
X14630936Y-13636944D02*
X14649983Y-13627420D01*
X14649983Y-13627420D02*
X14678555Y-13627420D01*
X14678555Y-13627420D02*
X14697602Y-13636944D01*
X14773793Y-13836944D02*
X14783317Y-13827420D01*
X14783317Y-13827420D02*
X14802364Y-13798849D01*
X14802364Y-13798849D02*
X14811888Y-13779801D01*
X14811888Y-13779801D02*
X14821412Y-13751230D01*
X14821412Y-13751230D02*
X14830936Y-13703611D01*
X14830936Y-13703611D02*
X14830936Y-13665516D01*
X14830936Y-13665516D02*
X14821412Y-13617897D01*
X14821412Y-13617897D02*
X14811888Y-13589325D01*
X14811888Y-13589325D02*
X14802364Y-13570278D01*
X14802364Y-13570278D02*
X14783317Y-13541706D01*
X14783317Y-13541706D02*
X14773793Y-13532182D01*
M02*
