G04 #@! TF.GenerationSoftware,KiCad,Pcbnew,7.0.5*
G04 #@! TF.CreationDate,2023-06-29T23:29:46-06:00*
G04 #@! TF.ProjectId,speedy-breakout,73706565-6479-42d6-9272-65616b6f7574,1.0*
G04 #@! TF.SameCoordinates,Original*
G04 #@! TF.FileFunction,Soldermask,Bot*
G04 #@! TF.FilePolarity,Negative*
%FSLAX46Y46*%
G04 Gerber Fmt 4.6, Leading zero omitted, Abs format (unit mm)*
G04 Created by KiCad (PCBNEW 7.0.5) date 2023-06-29 23:29:46*
%MOMM*%
%LPD*%
G01*
G04 APERTURE LIST*
G04 APERTURE END LIST*
G36*
X105492814Y-117205116D02*
G01*
X105813948Y-117281226D01*
X106124074Y-117394103D01*
X106419000Y-117542220D01*
X106694736Y-117723574D01*
X106947554Y-117935714D01*
X107174034Y-118175769D01*
X107371114Y-118440494D01*
X107536129Y-118726308D01*
X107666848Y-119029347D01*
X107761501Y-119345512D01*
X107818810Y-119670528D01*
X107838000Y-120000000D01*
X107818810Y-120329472D01*
X107761501Y-120654488D01*
X107666848Y-120970653D01*
X107536129Y-121273692D01*
X107371114Y-121559506D01*
X107174034Y-121824231D01*
X106947554Y-122064286D01*
X106694736Y-122276426D01*
X106419000Y-122457780D01*
X106124074Y-122605897D01*
X105813948Y-122718774D01*
X105492814Y-122794884D01*
X105165015Y-122833199D01*
X104834985Y-122833199D01*
X104507186Y-122794884D01*
X104186052Y-122718774D01*
X103875926Y-122605897D01*
X103581000Y-122457780D01*
X103305264Y-122276426D01*
X103052446Y-122064286D01*
X102825966Y-121824231D01*
X102628886Y-121559506D01*
X102463871Y-121273692D01*
X102333152Y-120970653D01*
X102238499Y-120654488D01*
X102181190Y-120329472D01*
X102162000Y-120000000D01*
X102181190Y-119670528D01*
X102238499Y-119345512D01*
X102333152Y-119029347D01*
X102463871Y-118726308D01*
X102628886Y-118440494D01*
X102825966Y-118175769D01*
X103052446Y-117935714D01*
X103305264Y-117723574D01*
X103581000Y-117542220D01*
X103875926Y-117394103D01*
X104186052Y-117281226D01*
X104507186Y-117205116D01*
X104834985Y-117166801D01*
X105165015Y-117166801D01*
X105492814Y-117205116D01*
G37*
G36*
X195492814Y-117205116D02*
G01*
X195813948Y-117281226D01*
X196124074Y-117394103D01*
X196419000Y-117542220D01*
X196694736Y-117723574D01*
X196947554Y-117935714D01*
X197174034Y-118175769D01*
X197371114Y-118440494D01*
X197536129Y-118726308D01*
X197666848Y-119029347D01*
X197761501Y-119345512D01*
X197818810Y-119670528D01*
X197838000Y-120000000D01*
X197818810Y-120329472D01*
X197761501Y-120654488D01*
X197666848Y-120970653D01*
X197536129Y-121273692D01*
X197371114Y-121559506D01*
X197174034Y-121824231D01*
X196947554Y-122064286D01*
X196694736Y-122276426D01*
X196419000Y-122457780D01*
X196124074Y-122605897D01*
X195813948Y-122718774D01*
X195492814Y-122794884D01*
X195165015Y-122833199D01*
X194834985Y-122833199D01*
X194507186Y-122794884D01*
X194186052Y-122718774D01*
X193875926Y-122605897D01*
X193581000Y-122457780D01*
X193305264Y-122276426D01*
X193052446Y-122064286D01*
X192825966Y-121824231D01*
X192628886Y-121559506D01*
X192463871Y-121273692D01*
X192333152Y-120970653D01*
X192238499Y-120654488D01*
X192181190Y-120329472D01*
X192162000Y-120000000D01*
X192181190Y-119670528D01*
X192238499Y-119345512D01*
X192333152Y-119029347D01*
X192463871Y-118726308D01*
X192628886Y-118440494D01*
X192825966Y-118175769D01*
X193052446Y-117935714D01*
X193305264Y-117723574D01*
X193581000Y-117542220D01*
X193875926Y-117394103D01*
X194186052Y-117281226D01*
X194507186Y-117205116D01*
X194834985Y-117166801D01*
X195165015Y-117166801D01*
X195492814Y-117205116D01*
G37*
G36*
X174094542Y-119344893D02*
G01*
X174106870Y-119353130D01*
X174115107Y-119365458D01*
X174118000Y-119380000D01*
X174118000Y-121080000D01*
X174115107Y-121094542D01*
X174106870Y-121106870D01*
X174094542Y-121115107D01*
X174080000Y-121118000D01*
X172380000Y-121118000D01*
X172365458Y-121115107D01*
X172353130Y-121106870D01*
X172344893Y-121094542D01*
X172342000Y-121080000D01*
X172342000Y-119380000D01*
X172344893Y-119365458D01*
X172353130Y-119353130D01*
X172365458Y-119344893D01*
X172380000Y-119342000D01*
X174080000Y-119342000D01*
X174094542Y-119344893D01*
G37*
G36*
X176044407Y-119385462D02*
G01*
X176214000Y-119460969D01*
X176364188Y-119570087D01*
X176488407Y-119708047D01*
X176581228Y-119868818D01*
X176638595Y-120045374D01*
X176658000Y-120230000D01*
X176638595Y-120414626D01*
X176581228Y-120591182D01*
X176488407Y-120751953D01*
X176364188Y-120889913D01*
X176214000Y-120999031D01*
X176044407Y-121074538D01*
X175862821Y-121113135D01*
X175677179Y-121113135D01*
X175495593Y-121074538D01*
X175326000Y-120999031D01*
X175175812Y-120889913D01*
X175051593Y-120751953D01*
X174958772Y-120591182D01*
X174901405Y-120414626D01*
X174882000Y-120230000D01*
X174901405Y-120045374D01*
X174958772Y-119868818D01*
X175051593Y-119708047D01*
X175175812Y-119570087D01*
X175326000Y-119460969D01*
X175495593Y-119385462D01*
X175677179Y-119346865D01*
X175862821Y-119346865D01*
X176044407Y-119385462D01*
G37*
G36*
X178584407Y-119385462D02*
G01*
X178754000Y-119460969D01*
X178904188Y-119570087D01*
X179028407Y-119708047D01*
X179121228Y-119868818D01*
X179178595Y-120045374D01*
X179198000Y-120230000D01*
X179178595Y-120414626D01*
X179121228Y-120591182D01*
X179028407Y-120751953D01*
X178904188Y-120889913D01*
X178754000Y-120999031D01*
X178584407Y-121074538D01*
X178402821Y-121113135D01*
X178217179Y-121113135D01*
X178035593Y-121074538D01*
X177866000Y-120999031D01*
X177715812Y-120889913D01*
X177591593Y-120751953D01*
X177498772Y-120591182D01*
X177441405Y-120414626D01*
X177422000Y-120230000D01*
X177441405Y-120045374D01*
X177498772Y-119868818D01*
X177591593Y-119708047D01*
X177715812Y-119570087D01*
X177866000Y-119460969D01*
X178035593Y-119385462D01*
X178217179Y-119346865D01*
X178402821Y-119346865D01*
X178584407Y-119385462D01*
G37*
G36*
X181124407Y-119385462D02*
G01*
X181294000Y-119460969D01*
X181444188Y-119570087D01*
X181568407Y-119708047D01*
X181661228Y-119868818D01*
X181718595Y-120045374D01*
X181738000Y-120230000D01*
X181718595Y-120414626D01*
X181661228Y-120591182D01*
X181568407Y-120751953D01*
X181444188Y-120889913D01*
X181294000Y-120999031D01*
X181124407Y-121074538D01*
X180942821Y-121113135D01*
X180757179Y-121113135D01*
X180575593Y-121074538D01*
X180406000Y-120999031D01*
X180255812Y-120889913D01*
X180131593Y-120751953D01*
X180038772Y-120591182D01*
X179981405Y-120414626D01*
X179962000Y-120230000D01*
X179981405Y-120045374D01*
X180038772Y-119868818D01*
X180131593Y-119708047D01*
X180255812Y-119570087D01*
X180406000Y-119460969D01*
X180575593Y-119385462D01*
X180757179Y-119346865D01*
X180942821Y-119346865D01*
X181124407Y-119385462D01*
G37*
G36*
X183664407Y-119385462D02*
G01*
X183834000Y-119460969D01*
X183984188Y-119570087D01*
X184108407Y-119708047D01*
X184201228Y-119868818D01*
X184258595Y-120045374D01*
X184278000Y-120230000D01*
X184258595Y-120414626D01*
X184201228Y-120591182D01*
X184108407Y-120751953D01*
X183984188Y-120889913D01*
X183834000Y-120999031D01*
X183664407Y-121074538D01*
X183482821Y-121113135D01*
X183297179Y-121113135D01*
X183115593Y-121074538D01*
X182946000Y-120999031D01*
X182795812Y-120889913D01*
X182671593Y-120751953D01*
X182578772Y-120591182D01*
X182521405Y-120414626D01*
X182502000Y-120230000D01*
X182521405Y-120045374D01*
X182578772Y-119868818D01*
X182671593Y-119708047D01*
X182795812Y-119570087D01*
X182946000Y-119460969D01*
X183115593Y-119385462D01*
X183297179Y-119346865D01*
X183482821Y-119346865D01*
X183664407Y-119385462D01*
G37*
G36*
X186204407Y-119385462D02*
G01*
X186374000Y-119460969D01*
X186524188Y-119570087D01*
X186648407Y-119708047D01*
X186741228Y-119868818D01*
X186798595Y-120045374D01*
X186818000Y-120230000D01*
X186798595Y-120414626D01*
X186741228Y-120591182D01*
X186648407Y-120751953D01*
X186524188Y-120889913D01*
X186374000Y-120999031D01*
X186204407Y-121074538D01*
X186022821Y-121113135D01*
X185837179Y-121113135D01*
X185655593Y-121074538D01*
X185486000Y-120999031D01*
X185335812Y-120889913D01*
X185211593Y-120751953D01*
X185118772Y-120591182D01*
X185061405Y-120414626D01*
X185042000Y-120230000D01*
X185061405Y-120045374D01*
X185118772Y-119868818D01*
X185211593Y-119708047D01*
X185335812Y-119570087D01*
X185486000Y-119460969D01*
X185655593Y-119385462D01*
X185837179Y-119346865D01*
X186022821Y-119346865D01*
X186204407Y-119385462D01*
G37*
G36*
X119156742Y-114355294D02*
G01*
X119169070Y-114363531D01*
X119177307Y-114375859D01*
X119180200Y-114390401D01*
X119180200Y-116090401D01*
X119177307Y-116104943D01*
X119169070Y-116117271D01*
X119156742Y-116125508D01*
X119142200Y-116128401D01*
X117442200Y-116128401D01*
X117427658Y-116125508D01*
X117415330Y-116117271D01*
X117407093Y-116104943D01*
X117404200Y-116090401D01*
X117404200Y-114390401D01*
X117407093Y-114375859D01*
X117415330Y-114363531D01*
X117427658Y-114355294D01*
X117442200Y-114352401D01*
X119142200Y-114352401D01*
X119156742Y-114355294D01*
G37*
G36*
X121106607Y-114395863D02*
G01*
X121276200Y-114471370D01*
X121426388Y-114580488D01*
X121550607Y-114718448D01*
X121643428Y-114879219D01*
X121700795Y-115055775D01*
X121720200Y-115240401D01*
X121700795Y-115425027D01*
X121643428Y-115601583D01*
X121550607Y-115762354D01*
X121426388Y-115900314D01*
X121276200Y-116009432D01*
X121106607Y-116084939D01*
X120925021Y-116123536D01*
X120739379Y-116123536D01*
X120557793Y-116084939D01*
X120388200Y-116009432D01*
X120238012Y-115900314D01*
X120113793Y-115762354D01*
X120020972Y-115601583D01*
X119963605Y-115425027D01*
X119944200Y-115240401D01*
X119963605Y-115055775D01*
X120020972Y-114879219D01*
X120113793Y-114718448D01*
X120238012Y-114580488D01*
X120388200Y-114471370D01*
X120557793Y-114395863D01*
X120739379Y-114357266D01*
X120925021Y-114357266D01*
X121106607Y-114395863D01*
G37*
G36*
X123646607Y-114395863D02*
G01*
X123816200Y-114471370D01*
X123966388Y-114580488D01*
X124090607Y-114718448D01*
X124183428Y-114879219D01*
X124240795Y-115055775D01*
X124260200Y-115240401D01*
X124240795Y-115425027D01*
X124183428Y-115601583D01*
X124090607Y-115762354D01*
X123966388Y-115900314D01*
X123816200Y-116009432D01*
X123646607Y-116084939D01*
X123465021Y-116123536D01*
X123279379Y-116123536D01*
X123097793Y-116084939D01*
X122928200Y-116009432D01*
X122778012Y-115900314D01*
X122653793Y-115762354D01*
X122560972Y-115601583D01*
X122503605Y-115425027D01*
X122484200Y-115240401D01*
X122503605Y-115055775D01*
X122560972Y-114879219D01*
X122653793Y-114718448D01*
X122778012Y-114580488D01*
X122928200Y-114471370D01*
X123097793Y-114395863D01*
X123279379Y-114357266D01*
X123465021Y-114357266D01*
X123646607Y-114395863D01*
G37*
G36*
X126186607Y-114395863D02*
G01*
X126356200Y-114471370D01*
X126506388Y-114580488D01*
X126630607Y-114718448D01*
X126723428Y-114879219D01*
X126780795Y-115055775D01*
X126800200Y-115240401D01*
X126780795Y-115425027D01*
X126723428Y-115601583D01*
X126630607Y-115762354D01*
X126506388Y-115900314D01*
X126356200Y-116009432D01*
X126186607Y-116084939D01*
X126005021Y-116123536D01*
X125819379Y-116123536D01*
X125637793Y-116084939D01*
X125468200Y-116009432D01*
X125318012Y-115900314D01*
X125193793Y-115762354D01*
X125100972Y-115601583D01*
X125043605Y-115425027D01*
X125024200Y-115240401D01*
X125043605Y-115055775D01*
X125100972Y-114879219D01*
X125193793Y-114718448D01*
X125318012Y-114580488D01*
X125468200Y-114471370D01*
X125637793Y-114395863D01*
X125819379Y-114357266D01*
X126005021Y-114357266D01*
X126186607Y-114395863D01*
G37*
G36*
X128726607Y-114395863D02*
G01*
X128896200Y-114471370D01*
X129046388Y-114580488D01*
X129170607Y-114718448D01*
X129263428Y-114879219D01*
X129320795Y-115055775D01*
X129340200Y-115240401D01*
X129320795Y-115425027D01*
X129263428Y-115601583D01*
X129170607Y-115762354D01*
X129046388Y-115900314D01*
X128896200Y-116009432D01*
X128726607Y-116084939D01*
X128545021Y-116123536D01*
X128359379Y-116123536D01*
X128177793Y-116084939D01*
X128008200Y-116009432D01*
X127858012Y-115900314D01*
X127733793Y-115762354D01*
X127640972Y-115601583D01*
X127583605Y-115425027D01*
X127564200Y-115240401D01*
X127583605Y-115055775D01*
X127640972Y-114879219D01*
X127733793Y-114718448D01*
X127858012Y-114580488D01*
X128008200Y-114471370D01*
X128177793Y-114395863D01*
X128359379Y-114357266D01*
X128545021Y-114357266D01*
X128726607Y-114395863D01*
G37*
G36*
X131266607Y-114395863D02*
G01*
X131436200Y-114471370D01*
X131586388Y-114580488D01*
X131710607Y-114718448D01*
X131803428Y-114879219D01*
X131860795Y-115055775D01*
X131880200Y-115240401D01*
X131860795Y-115425027D01*
X131803428Y-115601583D01*
X131710607Y-115762354D01*
X131586388Y-115900314D01*
X131436200Y-116009432D01*
X131266607Y-116084939D01*
X131085021Y-116123536D01*
X130899379Y-116123536D01*
X130717793Y-116084939D01*
X130548200Y-116009432D01*
X130398012Y-115900314D01*
X130273793Y-115762354D01*
X130180972Y-115601583D01*
X130123605Y-115425027D01*
X130104200Y-115240401D01*
X130123605Y-115055775D01*
X130180972Y-114879219D01*
X130273793Y-114718448D01*
X130398012Y-114580488D01*
X130548200Y-114471370D01*
X130717793Y-114395863D01*
X130899379Y-114357266D01*
X131085021Y-114357266D01*
X131266607Y-114395863D01*
G37*
G36*
X133806607Y-114395863D02*
G01*
X133976200Y-114471370D01*
X134126388Y-114580488D01*
X134250607Y-114718448D01*
X134343428Y-114879219D01*
X134400795Y-115055775D01*
X134420200Y-115240401D01*
X134400795Y-115425027D01*
X134343428Y-115601583D01*
X134250607Y-115762354D01*
X134126388Y-115900314D01*
X133976200Y-116009432D01*
X133806607Y-116084939D01*
X133625021Y-116123536D01*
X133439379Y-116123536D01*
X133257793Y-116084939D01*
X133088200Y-116009432D01*
X132938012Y-115900314D01*
X132813793Y-115762354D01*
X132720972Y-115601583D01*
X132663605Y-115425027D01*
X132644200Y-115240401D01*
X132663605Y-115055775D01*
X132720972Y-114879219D01*
X132813793Y-114718448D01*
X132938012Y-114580488D01*
X133088200Y-114471370D01*
X133257793Y-114395863D01*
X133439379Y-114357266D01*
X133625021Y-114357266D01*
X133806607Y-114395863D01*
G37*
G36*
X136346607Y-114395863D02*
G01*
X136516200Y-114471370D01*
X136666388Y-114580488D01*
X136790607Y-114718448D01*
X136883428Y-114879219D01*
X136940795Y-115055775D01*
X136960200Y-115240401D01*
X136940795Y-115425027D01*
X136883428Y-115601583D01*
X136790607Y-115762354D01*
X136666388Y-115900314D01*
X136516200Y-116009432D01*
X136346607Y-116084939D01*
X136165021Y-116123536D01*
X135979379Y-116123536D01*
X135797793Y-116084939D01*
X135628200Y-116009432D01*
X135478012Y-115900314D01*
X135353793Y-115762354D01*
X135260972Y-115601583D01*
X135203605Y-115425027D01*
X135184200Y-115240401D01*
X135203605Y-115055775D01*
X135260972Y-114879219D01*
X135353793Y-114718448D01*
X135478012Y-114580488D01*
X135628200Y-114471370D01*
X135797793Y-114395863D01*
X135979379Y-114357266D01*
X136165021Y-114357266D01*
X136346607Y-114395863D01*
G37*
G36*
X138886607Y-114395863D02*
G01*
X139056200Y-114471370D01*
X139206388Y-114580488D01*
X139330607Y-114718448D01*
X139423428Y-114879219D01*
X139480795Y-115055775D01*
X139500200Y-115240401D01*
X139480795Y-115425027D01*
X139423428Y-115601583D01*
X139330607Y-115762354D01*
X139206388Y-115900314D01*
X139056200Y-116009432D01*
X138886607Y-116084939D01*
X138705021Y-116123536D01*
X138519379Y-116123536D01*
X138337793Y-116084939D01*
X138168200Y-116009432D01*
X138018012Y-115900314D01*
X137893793Y-115762354D01*
X137800972Y-115601583D01*
X137743605Y-115425027D01*
X137724200Y-115240401D01*
X137743605Y-115055775D01*
X137800972Y-114879219D01*
X137893793Y-114718448D01*
X138018012Y-114580488D01*
X138168200Y-114471370D01*
X138337793Y-114395863D01*
X138519379Y-114357266D01*
X138705021Y-114357266D01*
X138886607Y-114395863D01*
G37*
G36*
X141426607Y-114395863D02*
G01*
X141596200Y-114471370D01*
X141746388Y-114580488D01*
X141870607Y-114718448D01*
X141963428Y-114879219D01*
X142020795Y-115055775D01*
X142040200Y-115240401D01*
X142020795Y-115425027D01*
X141963428Y-115601583D01*
X141870607Y-115762354D01*
X141746388Y-115900314D01*
X141596200Y-116009432D01*
X141426607Y-116084939D01*
X141245021Y-116123536D01*
X141059379Y-116123536D01*
X140877793Y-116084939D01*
X140708200Y-116009432D01*
X140558012Y-115900314D01*
X140433793Y-115762354D01*
X140340972Y-115601583D01*
X140283605Y-115425027D01*
X140264200Y-115240401D01*
X140283605Y-115055775D01*
X140340972Y-114879219D01*
X140433793Y-114718448D01*
X140558012Y-114580488D01*
X140708200Y-114471370D01*
X140877793Y-114395863D01*
X141059379Y-114357266D01*
X141245021Y-114357266D01*
X141426607Y-114395863D01*
G37*
G36*
X143966607Y-114395863D02*
G01*
X144136200Y-114471370D01*
X144286388Y-114580488D01*
X144410607Y-114718448D01*
X144503428Y-114879219D01*
X144560795Y-115055775D01*
X144580200Y-115240401D01*
X144560795Y-115425027D01*
X144503428Y-115601583D01*
X144410607Y-115762354D01*
X144286388Y-115900314D01*
X144136200Y-116009432D01*
X143966607Y-116084939D01*
X143785021Y-116123536D01*
X143599379Y-116123536D01*
X143417793Y-116084939D01*
X143248200Y-116009432D01*
X143098012Y-115900314D01*
X142973793Y-115762354D01*
X142880972Y-115601583D01*
X142823605Y-115425027D01*
X142804200Y-115240401D01*
X142823605Y-115055775D01*
X142880972Y-114879219D01*
X142973793Y-114718448D01*
X143098012Y-114580488D01*
X143248200Y-114471370D01*
X143417793Y-114395863D01*
X143599379Y-114357266D01*
X143785021Y-114357266D01*
X143966607Y-114395863D01*
G37*
G36*
X146506607Y-114395863D02*
G01*
X146676200Y-114471370D01*
X146826388Y-114580488D01*
X146950607Y-114718448D01*
X147043428Y-114879219D01*
X147100795Y-115055775D01*
X147120200Y-115240401D01*
X147100795Y-115425027D01*
X147043428Y-115601583D01*
X146950607Y-115762354D01*
X146826388Y-115900314D01*
X146676200Y-116009432D01*
X146506607Y-116084939D01*
X146325021Y-116123536D01*
X146139379Y-116123536D01*
X145957793Y-116084939D01*
X145788200Y-116009432D01*
X145638012Y-115900314D01*
X145513793Y-115762354D01*
X145420972Y-115601583D01*
X145363605Y-115425027D01*
X145344200Y-115240401D01*
X145363605Y-115055775D01*
X145420972Y-114879219D01*
X145513793Y-114718448D01*
X145638012Y-114580488D01*
X145788200Y-114471370D01*
X145957793Y-114395863D01*
X146139379Y-114357266D01*
X146325021Y-114357266D01*
X146506607Y-114395863D01*
G37*
G36*
X149046607Y-114395863D02*
G01*
X149216200Y-114471370D01*
X149366388Y-114580488D01*
X149490607Y-114718448D01*
X149583428Y-114879219D01*
X149640795Y-115055775D01*
X149660200Y-115240401D01*
X149640795Y-115425027D01*
X149583428Y-115601583D01*
X149490607Y-115762354D01*
X149366388Y-115900314D01*
X149216200Y-116009432D01*
X149046607Y-116084939D01*
X148865021Y-116123536D01*
X148679379Y-116123536D01*
X148497793Y-116084939D01*
X148328200Y-116009432D01*
X148178012Y-115900314D01*
X148053793Y-115762354D01*
X147960972Y-115601583D01*
X147903605Y-115425027D01*
X147884200Y-115240401D01*
X147903605Y-115055775D01*
X147960972Y-114879219D01*
X148053793Y-114718448D01*
X148178012Y-114580488D01*
X148328200Y-114471370D01*
X148497793Y-114395863D01*
X148679379Y-114357266D01*
X148865021Y-114357266D01*
X149046607Y-114395863D01*
G37*
G36*
X151586607Y-114395863D02*
G01*
X151756200Y-114471370D01*
X151906388Y-114580488D01*
X152030607Y-114718448D01*
X152123428Y-114879219D01*
X152180795Y-115055775D01*
X152200200Y-115240401D01*
X152180795Y-115425027D01*
X152123428Y-115601583D01*
X152030607Y-115762354D01*
X151906388Y-115900314D01*
X151756200Y-116009432D01*
X151586607Y-116084939D01*
X151405021Y-116123536D01*
X151219379Y-116123536D01*
X151037793Y-116084939D01*
X150868200Y-116009432D01*
X150718012Y-115900314D01*
X150593793Y-115762354D01*
X150500972Y-115601583D01*
X150443605Y-115425027D01*
X150424200Y-115240401D01*
X150443605Y-115055775D01*
X150500972Y-114879219D01*
X150593793Y-114718448D01*
X150718012Y-114580488D01*
X150868200Y-114471370D01*
X151037793Y-114395863D01*
X151219379Y-114357266D01*
X151405021Y-114357266D01*
X151586607Y-114395863D01*
G37*
G36*
X154126607Y-114395863D02*
G01*
X154296200Y-114471370D01*
X154446388Y-114580488D01*
X154570607Y-114718448D01*
X154663428Y-114879219D01*
X154720795Y-115055775D01*
X154740200Y-115240401D01*
X154720795Y-115425027D01*
X154663428Y-115601583D01*
X154570607Y-115762354D01*
X154446388Y-115900314D01*
X154296200Y-116009432D01*
X154126607Y-116084939D01*
X153945021Y-116123536D01*
X153759379Y-116123536D01*
X153577793Y-116084939D01*
X153408200Y-116009432D01*
X153258012Y-115900314D01*
X153133793Y-115762354D01*
X153040972Y-115601583D01*
X152983605Y-115425027D01*
X152964200Y-115240401D01*
X152983605Y-115055775D01*
X153040972Y-114879219D01*
X153133793Y-114718448D01*
X153258012Y-114580488D01*
X153408200Y-114471370D01*
X153577793Y-114395863D01*
X153759379Y-114357266D01*
X153945021Y-114357266D01*
X154126607Y-114395863D01*
G37*
G36*
X156666607Y-114395863D02*
G01*
X156836200Y-114471370D01*
X156986388Y-114580488D01*
X157110607Y-114718448D01*
X157203428Y-114879219D01*
X157260795Y-115055775D01*
X157280200Y-115240401D01*
X157260795Y-115425027D01*
X157203428Y-115601583D01*
X157110607Y-115762354D01*
X156986388Y-115900314D01*
X156836200Y-116009432D01*
X156666607Y-116084939D01*
X156485021Y-116123536D01*
X156299379Y-116123536D01*
X156117793Y-116084939D01*
X155948200Y-116009432D01*
X155798012Y-115900314D01*
X155673793Y-115762354D01*
X155580972Y-115601583D01*
X155523605Y-115425027D01*
X155504200Y-115240401D01*
X155523605Y-115055775D01*
X155580972Y-114879219D01*
X155673793Y-114718448D01*
X155798012Y-114580488D01*
X155948200Y-114471370D01*
X156117793Y-114395863D01*
X156299379Y-114357266D01*
X156485021Y-114357266D01*
X156666607Y-114395863D01*
G37*
G36*
X159206607Y-114395863D02*
G01*
X159376200Y-114471370D01*
X159526388Y-114580488D01*
X159650607Y-114718448D01*
X159743428Y-114879219D01*
X159800795Y-115055775D01*
X159820200Y-115240401D01*
X159800795Y-115425027D01*
X159743428Y-115601583D01*
X159650607Y-115762354D01*
X159526388Y-115900314D01*
X159376200Y-116009432D01*
X159206607Y-116084939D01*
X159025021Y-116123536D01*
X158839379Y-116123536D01*
X158657793Y-116084939D01*
X158488200Y-116009432D01*
X158338012Y-115900314D01*
X158213793Y-115762354D01*
X158120972Y-115601583D01*
X158063605Y-115425027D01*
X158044200Y-115240401D01*
X158063605Y-115055775D01*
X158120972Y-114879219D01*
X158213793Y-114718448D01*
X158338012Y-114580488D01*
X158488200Y-114471370D01*
X158657793Y-114395863D01*
X158839379Y-114357266D01*
X159025021Y-114357266D01*
X159206607Y-114395863D01*
G37*
G36*
X161746607Y-114395863D02*
G01*
X161916200Y-114471370D01*
X162066388Y-114580488D01*
X162190607Y-114718448D01*
X162283428Y-114879219D01*
X162340795Y-115055775D01*
X162360200Y-115240401D01*
X162340795Y-115425027D01*
X162283428Y-115601583D01*
X162190607Y-115762354D01*
X162066388Y-115900314D01*
X161916200Y-116009432D01*
X161746607Y-116084939D01*
X161565021Y-116123536D01*
X161379379Y-116123536D01*
X161197793Y-116084939D01*
X161028200Y-116009432D01*
X160878012Y-115900314D01*
X160753793Y-115762354D01*
X160660972Y-115601583D01*
X160603605Y-115425027D01*
X160584200Y-115240401D01*
X160603605Y-115055775D01*
X160660972Y-114879219D01*
X160753793Y-114718448D01*
X160878012Y-114580488D01*
X161028200Y-114471370D01*
X161197793Y-114395863D01*
X161379379Y-114357266D01*
X161565021Y-114357266D01*
X161746607Y-114395863D01*
G37*
G36*
X164286607Y-114395863D02*
G01*
X164456200Y-114471370D01*
X164606388Y-114580488D01*
X164730607Y-114718448D01*
X164823428Y-114879219D01*
X164880795Y-115055775D01*
X164900200Y-115240401D01*
X164880795Y-115425027D01*
X164823428Y-115601583D01*
X164730607Y-115762354D01*
X164606388Y-115900314D01*
X164456200Y-116009432D01*
X164286607Y-116084939D01*
X164105021Y-116123536D01*
X163919379Y-116123536D01*
X163737793Y-116084939D01*
X163568200Y-116009432D01*
X163418012Y-115900314D01*
X163293793Y-115762354D01*
X163200972Y-115601583D01*
X163143605Y-115425027D01*
X163124200Y-115240401D01*
X163143605Y-115055775D01*
X163200972Y-114879219D01*
X163293793Y-114718448D01*
X163418012Y-114580488D01*
X163568200Y-114471370D01*
X163737793Y-114395863D01*
X163919379Y-114357266D01*
X164105021Y-114357266D01*
X164286607Y-114395863D01*
G37*
G36*
X166826607Y-114395863D02*
G01*
X166996200Y-114471370D01*
X167146388Y-114580488D01*
X167270607Y-114718448D01*
X167363428Y-114879219D01*
X167420795Y-115055775D01*
X167440200Y-115240401D01*
X167420795Y-115425027D01*
X167363428Y-115601583D01*
X167270607Y-115762354D01*
X167146388Y-115900314D01*
X166996200Y-116009432D01*
X166826607Y-116084939D01*
X166645021Y-116123536D01*
X166459379Y-116123536D01*
X166277793Y-116084939D01*
X166108200Y-116009432D01*
X165958012Y-115900314D01*
X165833793Y-115762354D01*
X165740972Y-115601583D01*
X165683605Y-115425027D01*
X165664200Y-115240401D01*
X165683605Y-115055775D01*
X165740972Y-114879219D01*
X165833793Y-114718448D01*
X165958012Y-114580488D01*
X166108200Y-114471370D01*
X166277793Y-114395863D01*
X166459379Y-114357266D01*
X166645021Y-114357266D01*
X166826607Y-114395863D01*
G37*
G36*
X174094542Y-111840294D02*
G01*
X174106870Y-111848531D01*
X174115107Y-111860859D01*
X174118000Y-111875401D01*
X174118000Y-113575401D01*
X174115107Y-113589943D01*
X174106870Y-113602271D01*
X174094542Y-113610508D01*
X174080000Y-113613401D01*
X172380000Y-113613401D01*
X172365458Y-113610508D01*
X172353130Y-113602271D01*
X172344893Y-113589943D01*
X172342000Y-113575401D01*
X172342000Y-111875401D01*
X172344893Y-111860859D01*
X172353130Y-111848531D01*
X172365458Y-111840294D01*
X172380000Y-111837401D01*
X174080000Y-111837401D01*
X174094542Y-111840294D01*
G37*
G36*
X176044407Y-111880863D02*
G01*
X176214000Y-111956370D01*
X176364188Y-112065488D01*
X176488407Y-112203448D01*
X176581228Y-112364219D01*
X176638595Y-112540775D01*
X176658000Y-112725401D01*
X176638595Y-112910027D01*
X176581228Y-113086583D01*
X176488407Y-113247354D01*
X176364188Y-113385314D01*
X176214000Y-113494432D01*
X176044407Y-113569939D01*
X175862821Y-113608536D01*
X175677179Y-113608536D01*
X175495593Y-113569939D01*
X175326000Y-113494432D01*
X175175812Y-113385314D01*
X175051593Y-113247354D01*
X174958772Y-113086583D01*
X174901405Y-112910027D01*
X174882000Y-112725401D01*
X174901405Y-112540775D01*
X174958772Y-112364219D01*
X175051593Y-112203448D01*
X175175812Y-112065488D01*
X175326000Y-111956370D01*
X175495593Y-111880863D01*
X175677179Y-111842266D01*
X175862821Y-111842266D01*
X176044407Y-111880863D01*
G37*
G36*
X178584407Y-111880863D02*
G01*
X178754000Y-111956370D01*
X178904188Y-112065488D01*
X179028407Y-112203448D01*
X179121228Y-112364219D01*
X179178595Y-112540775D01*
X179198000Y-112725401D01*
X179178595Y-112910027D01*
X179121228Y-113086583D01*
X179028407Y-113247354D01*
X178904188Y-113385314D01*
X178754000Y-113494432D01*
X178584407Y-113569939D01*
X178402821Y-113608536D01*
X178217179Y-113608536D01*
X178035593Y-113569939D01*
X177866000Y-113494432D01*
X177715812Y-113385314D01*
X177591593Y-113247354D01*
X177498772Y-113086583D01*
X177441405Y-112910027D01*
X177422000Y-112725401D01*
X177441405Y-112540775D01*
X177498772Y-112364219D01*
X177591593Y-112203448D01*
X177715812Y-112065488D01*
X177866000Y-111956370D01*
X178035593Y-111880863D01*
X178217179Y-111842266D01*
X178402821Y-111842266D01*
X178584407Y-111880863D01*
G37*
G36*
X181124407Y-111880863D02*
G01*
X181294000Y-111956370D01*
X181444188Y-112065488D01*
X181568407Y-112203448D01*
X181661228Y-112364219D01*
X181718595Y-112540775D01*
X181738000Y-112725401D01*
X181718595Y-112910027D01*
X181661228Y-113086583D01*
X181568407Y-113247354D01*
X181444188Y-113385314D01*
X181294000Y-113494432D01*
X181124407Y-113569939D01*
X180942821Y-113608536D01*
X180757179Y-113608536D01*
X180575593Y-113569939D01*
X180406000Y-113494432D01*
X180255812Y-113385314D01*
X180131593Y-113247354D01*
X180038772Y-113086583D01*
X179981405Y-112910027D01*
X179962000Y-112725401D01*
X179981405Y-112540775D01*
X180038772Y-112364219D01*
X180131593Y-112203448D01*
X180255812Y-112065488D01*
X180406000Y-111956370D01*
X180575593Y-111880863D01*
X180757179Y-111842266D01*
X180942821Y-111842266D01*
X181124407Y-111880863D01*
G37*
G36*
X183664407Y-111880863D02*
G01*
X183834000Y-111956370D01*
X183984188Y-112065488D01*
X184108407Y-112203448D01*
X184201228Y-112364219D01*
X184258595Y-112540775D01*
X184278000Y-112725401D01*
X184258595Y-112910027D01*
X184201228Y-113086583D01*
X184108407Y-113247354D01*
X183984188Y-113385314D01*
X183834000Y-113494432D01*
X183664407Y-113569939D01*
X183482821Y-113608536D01*
X183297179Y-113608536D01*
X183115593Y-113569939D01*
X182946000Y-113494432D01*
X182795812Y-113385314D01*
X182671593Y-113247354D01*
X182578772Y-113086583D01*
X182521405Y-112910027D01*
X182502000Y-112725401D01*
X182521405Y-112540775D01*
X182578772Y-112364219D01*
X182671593Y-112203448D01*
X182795812Y-112065488D01*
X182946000Y-111956370D01*
X183115593Y-111880863D01*
X183297179Y-111842266D01*
X183482821Y-111842266D01*
X183664407Y-111880863D01*
G37*
G36*
X186204407Y-111880863D02*
G01*
X186374000Y-111956370D01*
X186524188Y-112065488D01*
X186648407Y-112203448D01*
X186741228Y-112364219D01*
X186798595Y-112540775D01*
X186818000Y-112725401D01*
X186798595Y-112910027D01*
X186741228Y-113086583D01*
X186648407Y-113247354D01*
X186524188Y-113385314D01*
X186374000Y-113494432D01*
X186204407Y-113569939D01*
X186022821Y-113608536D01*
X185837179Y-113608536D01*
X185655593Y-113569939D01*
X185486000Y-113494432D01*
X185335812Y-113385314D01*
X185211593Y-113247354D01*
X185118772Y-113086583D01*
X185061405Y-112910027D01*
X185042000Y-112725401D01*
X185061405Y-112540775D01*
X185118772Y-112364219D01*
X185211593Y-112203448D01*
X185335812Y-112065488D01*
X185486000Y-111956370D01*
X185655593Y-111880863D01*
X185837179Y-111842266D01*
X186022821Y-111842266D01*
X186204407Y-111880863D01*
G37*
G36*
X105309626Y-110381405D02*
G01*
X105486182Y-110438772D01*
X105646953Y-110531593D01*
X105784913Y-110655812D01*
X105894031Y-110806000D01*
X105969538Y-110975593D01*
X106008135Y-111157179D01*
X106008135Y-111342821D01*
X105969538Y-111524407D01*
X105894031Y-111694000D01*
X105784913Y-111844188D01*
X105646953Y-111968407D01*
X105486182Y-112061228D01*
X105309626Y-112118595D01*
X105125000Y-112138000D01*
X105122381Y-112138000D01*
X104877619Y-112138000D01*
X104875000Y-112138000D01*
X104690374Y-112118595D01*
X104513818Y-112061228D01*
X104353047Y-111968407D01*
X104215087Y-111844188D01*
X104105969Y-111694000D01*
X104030462Y-111524407D01*
X103991865Y-111342821D01*
X103991865Y-111157179D01*
X104030462Y-110975593D01*
X104105969Y-110806000D01*
X104215087Y-110655812D01*
X104353047Y-110531593D01*
X104513818Y-110438772D01*
X104690374Y-110381405D01*
X104875000Y-110362000D01*
X105125000Y-110362000D01*
X105309626Y-110381405D01*
G37*
G36*
X119156742Y-109275294D02*
G01*
X119169070Y-109283531D01*
X119177307Y-109295859D01*
X119180200Y-109310401D01*
X119180200Y-111010401D01*
X119177307Y-111024943D01*
X119169070Y-111037271D01*
X119156742Y-111045508D01*
X119142200Y-111048401D01*
X117442200Y-111048401D01*
X117427658Y-111045508D01*
X117415330Y-111037271D01*
X117407093Y-111024943D01*
X117404200Y-111010401D01*
X117404200Y-109310401D01*
X117407093Y-109295859D01*
X117415330Y-109283531D01*
X117427658Y-109275294D01*
X117442200Y-109272401D01*
X119142200Y-109272401D01*
X119156742Y-109275294D01*
G37*
G36*
X121106607Y-109315863D02*
G01*
X121276200Y-109391370D01*
X121426388Y-109500488D01*
X121550607Y-109638448D01*
X121643428Y-109799219D01*
X121700795Y-109975775D01*
X121720200Y-110160401D01*
X121700795Y-110345027D01*
X121643428Y-110521583D01*
X121550607Y-110682354D01*
X121426388Y-110820314D01*
X121276200Y-110929432D01*
X121106607Y-111004939D01*
X120925021Y-111043536D01*
X120739379Y-111043536D01*
X120557793Y-111004939D01*
X120388200Y-110929432D01*
X120238012Y-110820314D01*
X120113793Y-110682354D01*
X120020972Y-110521583D01*
X119963605Y-110345027D01*
X119944200Y-110160401D01*
X119963605Y-109975775D01*
X120020972Y-109799219D01*
X120113793Y-109638448D01*
X120238012Y-109500488D01*
X120388200Y-109391370D01*
X120557793Y-109315863D01*
X120739379Y-109277266D01*
X120925021Y-109277266D01*
X121106607Y-109315863D01*
G37*
G36*
X123646607Y-109315863D02*
G01*
X123816200Y-109391370D01*
X123966388Y-109500488D01*
X124090607Y-109638448D01*
X124183428Y-109799219D01*
X124240795Y-109975775D01*
X124260200Y-110160401D01*
X124240795Y-110345027D01*
X124183428Y-110521583D01*
X124090607Y-110682354D01*
X123966388Y-110820314D01*
X123816200Y-110929432D01*
X123646607Y-111004939D01*
X123465021Y-111043536D01*
X123279379Y-111043536D01*
X123097793Y-111004939D01*
X122928200Y-110929432D01*
X122778012Y-110820314D01*
X122653793Y-110682354D01*
X122560972Y-110521583D01*
X122503605Y-110345027D01*
X122484200Y-110160401D01*
X122503605Y-109975775D01*
X122560972Y-109799219D01*
X122653793Y-109638448D01*
X122778012Y-109500488D01*
X122928200Y-109391370D01*
X123097793Y-109315863D01*
X123279379Y-109277266D01*
X123465021Y-109277266D01*
X123646607Y-109315863D01*
G37*
G36*
X126186607Y-109315863D02*
G01*
X126356200Y-109391370D01*
X126506388Y-109500488D01*
X126630607Y-109638448D01*
X126723428Y-109799219D01*
X126780795Y-109975775D01*
X126800200Y-110160401D01*
X126780795Y-110345027D01*
X126723428Y-110521583D01*
X126630607Y-110682354D01*
X126506388Y-110820314D01*
X126356200Y-110929432D01*
X126186607Y-111004939D01*
X126005021Y-111043536D01*
X125819379Y-111043536D01*
X125637793Y-111004939D01*
X125468200Y-110929432D01*
X125318012Y-110820314D01*
X125193793Y-110682354D01*
X125100972Y-110521583D01*
X125043605Y-110345027D01*
X125024200Y-110160401D01*
X125043605Y-109975775D01*
X125100972Y-109799219D01*
X125193793Y-109638448D01*
X125318012Y-109500488D01*
X125468200Y-109391370D01*
X125637793Y-109315863D01*
X125819379Y-109277266D01*
X126005021Y-109277266D01*
X126186607Y-109315863D01*
G37*
G36*
X128726607Y-109315863D02*
G01*
X128896200Y-109391370D01*
X129046388Y-109500488D01*
X129170607Y-109638448D01*
X129263428Y-109799219D01*
X129320795Y-109975775D01*
X129340200Y-110160401D01*
X129320795Y-110345027D01*
X129263428Y-110521583D01*
X129170607Y-110682354D01*
X129046388Y-110820314D01*
X128896200Y-110929432D01*
X128726607Y-111004939D01*
X128545021Y-111043536D01*
X128359379Y-111043536D01*
X128177793Y-111004939D01*
X128008200Y-110929432D01*
X127858012Y-110820314D01*
X127733793Y-110682354D01*
X127640972Y-110521583D01*
X127583605Y-110345027D01*
X127564200Y-110160401D01*
X127583605Y-109975775D01*
X127640972Y-109799219D01*
X127733793Y-109638448D01*
X127858012Y-109500488D01*
X128008200Y-109391370D01*
X128177793Y-109315863D01*
X128359379Y-109277266D01*
X128545021Y-109277266D01*
X128726607Y-109315863D01*
G37*
G36*
X131266607Y-109315863D02*
G01*
X131436200Y-109391370D01*
X131586388Y-109500488D01*
X131710607Y-109638448D01*
X131803428Y-109799219D01*
X131860795Y-109975775D01*
X131880200Y-110160401D01*
X131860795Y-110345027D01*
X131803428Y-110521583D01*
X131710607Y-110682354D01*
X131586388Y-110820314D01*
X131436200Y-110929432D01*
X131266607Y-111004939D01*
X131085021Y-111043536D01*
X130899379Y-111043536D01*
X130717793Y-111004939D01*
X130548200Y-110929432D01*
X130398012Y-110820314D01*
X130273793Y-110682354D01*
X130180972Y-110521583D01*
X130123605Y-110345027D01*
X130104200Y-110160401D01*
X130123605Y-109975775D01*
X130180972Y-109799219D01*
X130273793Y-109638448D01*
X130398012Y-109500488D01*
X130548200Y-109391370D01*
X130717793Y-109315863D01*
X130899379Y-109277266D01*
X131085021Y-109277266D01*
X131266607Y-109315863D01*
G37*
G36*
X133806607Y-109315863D02*
G01*
X133976200Y-109391370D01*
X134126388Y-109500488D01*
X134250607Y-109638448D01*
X134343428Y-109799219D01*
X134400795Y-109975775D01*
X134420200Y-110160401D01*
X134400795Y-110345027D01*
X134343428Y-110521583D01*
X134250607Y-110682354D01*
X134126388Y-110820314D01*
X133976200Y-110929432D01*
X133806607Y-111004939D01*
X133625021Y-111043536D01*
X133439379Y-111043536D01*
X133257793Y-111004939D01*
X133088200Y-110929432D01*
X132938012Y-110820314D01*
X132813793Y-110682354D01*
X132720972Y-110521583D01*
X132663605Y-110345027D01*
X132644200Y-110160401D01*
X132663605Y-109975775D01*
X132720972Y-109799219D01*
X132813793Y-109638448D01*
X132938012Y-109500488D01*
X133088200Y-109391370D01*
X133257793Y-109315863D01*
X133439379Y-109277266D01*
X133625021Y-109277266D01*
X133806607Y-109315863D01*
G37*
G36*
X136346607Y-109315863D02*
G01*
X136516200Y-109391370D01*
X136666388Y-109500488D01*
X136790607Y-109638448D01*
X136883428Y-109799219D01*
X136940795Y-109975775D01*
X136960200Y-110160401D01*
X136940795Y-110345027D01*
X136883428Y-110521583D01*
X136790607Y-110682354D01*
X136666388Y-110820314D01*
X136516200Y-110929432D01*
X136346607Y-111004939D01*
X136165021Y-111043536D01*
X135979379Y-111043536D01*
X135797793Y-111004939D01*
X135628200Y-110929432D01*
X135478012Y-110820314D01*
X135353793Y-110682354D01*
X135260972Y-110521583D01*
X135203605Y-110345027D01*
X135184200Y-110160401D01*
X135203605Y-109975775D01*
X135260972Y-109799219D01*
X135353793Y-109638448D01*
X135478012Y-109500488D01*
X135628200Y-109391370D01*
X135797793Y-109315863D01*
X135979379Y-109277266D01*
X136165021Y-109277266D01*
X136346607Y-109315863D01*
G37*
G36*
X138886607Y-109315863D02*
G01*
X139056200Y-109391370D01*
X139206388Y-109500488D01*
X139330607Y-109638448D01*
X139423428Y-109799219D01*
X139480795Y-109975775D01*
X139500200Y-110160401D01*
X139480795Y-110345027D01*
X139423428Y-110521583D01*
X139330607Y-110682354D01*
X139206388Y-110820314D01*
X139056200Y-110929432D01*
X138886607Y-111004939D01*
X138705021Y-111043536D01*
X138519379Y-111043536D01*
X138337793Y-111004939D01*
X138168200Y-110929432D01*
X138018012Y-110820314D01*
X137893793Y-110682354D01*
X137800972Y-110521583D01*
X137743605Y-110345027D01*
X137724200Y-110160401D01*
X137743605Y-109975775D01*
X137800972Y-109799219D01*
X137893793Y-109638448D01*
X138018012Y-109500488D01*
X138168200Y-109391370D01*
X138337793Y-109315863D01*
X138519379Y-109277266D01*
X138705021Y-109277266D01*
X138886607Y-109315863D01*
G37*
G36*
X141426607Y-109315863D02*
G01*
X141596200Y-109391370D01*
X141746388Y-109500488D01*
X141870607Y-109638448D01*
X141963428Y-109799219D01*
X142020795Y-109975775D01*
X142040200Y-110160401D01*
X142020795Y-110345027D01*
X141963428Y-110521583D01*
X141870607Y-110682354D01*
X141746388Y-110820314D01*
X141596200Y-110929432D01*
X141426607Y-111004939D01*
X141245021Y-111043536D01*
X141059379Y-111043536D01*
X140877793Y-111004939D01*
X140708200Y-110929432D01*
X140558012Y-110820314D01*
X140433793Y-110682354D01*
X140340972Y-110521583D01*
X140283605Y-110345027D01*
X140264200Y-110160401D01*
X140283605Y-109975775D01*
X140340972Y-109799219D01*
X140433793Y-109638448D01*
X140558012Y-109500488D01*
X140708200Y-109391370D01*
X140877793Y-109315863D01*
X141059379Y-109277266D01*
X141245021Y-109277266D01*
X141426607Y-109315863D01*
G37*
G36*
X143966607Y-109315863D02*
G01*
X144136200Y-109391370D01*
X144286388Y-109500488D01*
X144410607Y-109638448D01*
X144503428Y-109799219D01*
X144560795Y-109975775D01*
X144580200Y-110160401D01*
X144560795Y-110345027D01*
X144503428Y-110521583D01*
X144410607Y-110682354D01*
X144286388Y-110820314D01*
X144136200Y-110929432D01*
X143966607Y-111004939D01*
X143785021Y-111043536D01*
X143599379Y-111043536D01*
X143417793Y-111004939D01*
X143248200Y-110929432D01*
X143098012Y-110820314D01*
X142973793Y-110682354D01*
X142880972Y-110521583D01*
X142823605Y-110345027D01*
X142804200Y-110160401D01*
X142823605Y-109975775D01*
X142880972Y-109799219D01*
X142973793Y-109638448D01*
X143098012Y-109500488D01*
X143248200Y-109391370D01*
X143417793Y-109315863D01*
X143599379Y-109277266D01*
X143785021Y-109277266D01*
X143966607Y-109315863D01*
G37*
G36*
X146506607Y-109315863D02*
G01*
X146676200Y-109391370D01*
X146826388Y-109500488D01*
X146950607Y-109638448D01*
X147043428Y-109799219D01*
X147100795Y-109975775D01*
X147120200Y-110160401D01*
X147100795Y-110345027D01*
X147043428Y-110521583D01*
X146950607Y-110682354D01*
X146826388Y-110820314D01*
X146676200Y-110929432D01*
X146506607Y-111004939D01*
X146325021Y-111043536D01*
X146139379Y-111043536D01*
X145957793Y-111004939D01*
X145788200Y-110929432D01*
X145638012Y-110820314D01*
X145513793Y-110682354D01*
X145420972Y-110521583D01*
X145363605Y-110345027D01*
X145344200Y-110160401D01*
X145363605Y-109975775D01*
X145420972Y-109799219D01*
X145513793Y-109638448D01*
X145638012Y-109500488D01*
X145788200Y-109391370D01*
X145957793Y-109315863D01*
X146139379Y-109277266D01*
X146325021Y-109277266D01*
X146506607Y-109315863D01*
G37*
G36*
X149046607Y-109315863D02*
G01*
X149216200Y-109391370D01*
X149366388Y-109500488D01*
X149490607Y-109638448D01*
X149583428Y-109799219D01*
X149640795Y-109975775D01*
X149660200Y-110160401D01*
X149640795Y-110345027D01*
X149583428Y-110521583D01*
X149490607Y-110682354D01*
X149366388Y-110820314D01*
X149216200Y-110929432D01*
X149046607Y-111004939D01*
X148865021Y-111043536D01*
X148679379Y-111043536D01*
X148497793Y-111004939D01*
X148328200Y-110929432D01*
X148178012Y-110820314D01*
X148053793Y-110682354D01*
X147960972Y-110521583D01*
X147903605Y-110345027D01*
X147884200Y-110160401D01*
X147903605Y-109975775D01*
X147960972Y-109799219D01*
X148053793Y-109638448D01*
X148178012Y-109500488D01*
X148328200Y-109391370D01*
X148497793Y-109315863D01*
X148679379Y-109277266D01*
X148865021Y-109277266D01*
X149046607Y-109315863D01*
G37*
G36*
X151586607Y-109315863D02*
G01*
X151756200Y-109391370D01*
X151906388Y-109500488D01*
X152030607Y-109638448D01*
X152123428Y-109799219D01*
X152180795Y-109975775D01*
X152200200Y-110160401D01*
X152180795Y-110345027D01*
X152123428Y-110521583D01*
X152030607Y-110682354D01*
X151906388Y-110820314D01*
X151756200Y-110929432D01*
X151586607Y-111004939D01*
X151405021Y-111043536D01*
X151219379Y-111043536D01*
X151037793Y-111004939D01*
X150868200Y-110929432D01*
X150718012Y-110820314D01*
X150593793Y-110682354D01*
X150500972Y-110521583D01*
X150443605Y-110345027D01*
X150424200Y-110160401D01*
X150443605Y-109975775D01*
X150500972Y-109799219D01*
X150593793Y-109638448D01*
X150718012Y-109500488D01*
X150868200Y-109391370D01*
X151037793Y-109315863D01*
X151219379Y-109277266D01*
X151405021Y-109277266D01*
X151586607Y-109315863D01*
G37*
G36*
X154126607Y-109315863D02*
G01*
X154296200Y-109391370D01*
X154446388Y-109500488D01*
X154570607Y-109638448D01*
X154663428Y-109799219D01*
X154720795Y-109975775D01*
X154740200Y-110160401D01*
X154720795Y-110345027D01*
X154663428Y-110521583D01*
X154570607Y-110682354D01*
X154446388Y-110820314D01*
X154296200Y-110929432D01*
X154126607Y-111004939D01*
X153945021Y-111043536D01*
X153759379Y-111043536D01*
X153577793Y-111004939D01*
X153408200Y-110929432D01*
X153258012Y-110820314D01*
X153133793Y-110682354D01*
X153040972Y-110521583D01*
X152983605Y-110345027D01*
X152964200Y-110160401D01*
X152983605Y-109975775D01*
X153040972Y-109799219D01*
X153133793Y-109638448D01*
X153258012Y-109500488D01*
X153408200Y-109391370D01*
X153577793Y-109315863D01*
X153759379Y-109277266D01*
X153945021Y-109277266D01*
X154126607Y-109315863D01*
G37*
G36*
X156666607Y-109315863D02*
G01*
X156836200Y-109391370D01*
X156986388Y-109500488D01*
X157110607Y-109638448D01*
X157203428Y-109799219D01*
X157260795Y-109975775D01*
X157280200Y-110160401D01*
X157260795Y-110345027D01*
X157203428Y-110521583D01*
X157110607Y-110682354D01*
X156986388Y-110820314D01*
X156836200Y-110929432D01*
X156666607Y-111004939D01*
X156485021Y-111043536D01*
X156299379Y-111043536D01*
X156117793Y-111004939D01*
X155948200Y-110929432D01*
X155798012Y-110820314D01*
X155673793Y-110682354D01*
X155580972Y-110521583D01*
X155523605Y-110345027D01*
X155504200Y-110160401D01*
X155523605Y-109975775D01*
X155580972Y-109799219D01*
X155673793Y-109638448D01*
X155798012Y-109500488D01*
X155948200Y-109391370D01*
X156117793Y-109315863D01*
X156299379Y-109277266D01*
X156485021Y-109277266D01*
X156666607Y-109315863D01*
G37*
G36*
X159206607Y-109315863D02*
G01*
X159376200Y-109391370D01*
X159526388Y-109500488D01*
X159650607Y-109638448D01*
X159743428Y-109799219D01*
X159800795Y-109975775D01*
X159820200Y-110160401D01*
X159800795Y-110345027D01*
X159743428Y-110521583D01*
X159650607Y-110682354D01*
X159526388Y-110820314D01*
X159376200Y-110929432D01*
X159206607Y-111004939D01*
X159025021Y-111043536D01*
X158839379Y-111043536D01*
X158657793Y-111004939D01*
X158488200Y-110929432D01*
X158338012Y-110820314D01*
X158213793Y-110682354D01*
X158120972Y-110521583D01*
X158063605Y-110345027D01*
X158044200Y-110160401D01*
X158063605Y-109975775D01*
X158120972Y-109799219D01*
X158213793Y-109638448D01*
X158338012Y-109500488D01*
X158488200Y-109391370D01*
X158657793Y-109315863D01*
X158839379Y-109277266D01*
X159025021Y-109277266D01*
X159206607Y-109315863D01*
G37*
G36*
X161746607Y-109315863D02*
G01*
X161916200Y-109391370D01*
X162066388Y-109500488D01*
X162190607Y-109638448D01*
X162283428Y-109799219D01*
X162340795Y-109975775D01*
X162360200Y-110160401D01*
X162340795Y-110345027D01*
X162283428Y-110521583D01*
X162190607Y-110682354D01*
X162066388Y-110820314D01*
X161916200Y-110929432D01*
X161746607Y-111004939D01*
X161565021Y-111043536D01*
X161379379Y-111043536D01*
X161197793Y-111004939D01*
X161028200Y-110929432D01*
X160878012Y-110820314D01*
X160753793Y-110682354D01*
X160660972Y-110521583D01*
X160603605Y-110345027D01*
X160584200Y-110160401D01*
X160603605Y-109975775D01*
X160660972Y-109799219D01*
X160753793Y-109638448D01*
X160878012Y-109500488D01*
X161028200Y-109391370D01*
X161197793Y-109315863D01*
X161379379Y-109277266D01*
X161565021Y-109277266D01*
X161746607Y-109315863D01*
G37*
G36*
X164286607Y-109315863D02*
G01*
X164456200Y-109391370D01*
X164606388Y-109500488D01*
X164730607Y-109638448D01*
X164823428Y-109799219D01*
X164880795Y-109975775D01*
X164900200Y-110160401D01*
X164880795Y-110345027D01*
X164823428Y-110521583D01*
X164730607Y-110682354D01*
X164606388Y-110820314D01*
X164456200Y-110929432D01*
X164286607Y-111004939D01*
X164105021Y-111043536D01*
X163919379Y-111043536D01*
X163737793Y-111004939D01*
X163568200Y-110929432D01*
X163418012Y-110820314D01*
X163293793Y-110682354D01*
X163200972Y-110521583D01*
X163143605Y-110345027D01*
X163124200Y-110160401D01*
X163143605Y-109975775D01*
X163200972Y-109799219D01*
X163293793Y-109638448D01*
X163418012Y-109500488D01*
X163568200Y-109391370D01*
X163737793Y-109315863D01*
X163919379Y-109277266D01*
X164105021Y-109277266D01*
X164286607Y-109315863D01*
G37*
G36*
X166826607Y-109315863D02*
G01*
X166996200Y-109391370D01*
X167146388Y-109500488D01*
X167270607Y-109638448D01*
X167363428Y-109799219D01*
X167420795Y-109975775D01*
X167440200Y-110160401D01*
X167420795Y-110345027D01*
X167363428Y-110521583D01*
X167270607Y-110682354D01*
X167146388Y-110820314D01*
X166996200Y-110929432D01*
X166826607Y-111004939D01*
X166645021Y-111043536D01*
X166459379Y-111043536D01*
X166277793Y-111004939D01*
X166108200Y-110929432D01*
X165958012Y-110820314D01*
X165833793Y-110682354D01*
X165740972Y-110521583D01*
X165683605Y-110345027D01*
X165664200Y-110160401D01*
X165683605Y-109975775D01*
X165740972Y-109799219D01*
X165833793Y-109638448D01*
X165958012Y-109500488D01*
X166108200Y-109391370D01*
X166277793Y-109315863D01*
X166459379Y-109277266D01*
X166645021Y-109277266D01*
X166826607Y-109315863D01*
G37*
G36*
X105309626Y-107881405D02*
G01*
X105486182Y-107938772D01*
X105646953Y-108031593D01*
X105784913Y-108155812D01*
X105894031Y-108306000D01*
X105969538Y-108475593D01*
X106008135Y-108657179D01*
X106008135Y-108842821D01*
X105969538Y-109024407D01*
X105894031Y-109194000D01*
X105784913Y-109344188D01*
X105646953Y-109468407D01*
X105486182Y-109561228D01*
X105309626Y-109618595D01*
X105125000Y-109638000D01*
X105122381Y-109638000D01*
X104877619Y-109638000D01*
X104875000Y-109638000D01*
X104690374Y-109618595D01*
X104513818Y-109561228D01*
X104353047Y-109468407D01*
X104215087Y-109344188D01*
X104105969Y-109194000D01*
X104030462Y-109024407D01*
X103991865Y-108842821D01*
X103991865Y-108657179D01*
X104030462Y-108475593D01*
X104105969Y-108306000D01*
X104215087Y-108155812D01*
X104353047Y-108031593D01*
X104513818Y-107938772D01*
X104690374Y-107881405D01*
X104875000Y-107862000D01*
X105125000Y-107862000D01*
X105309626Y-107881405D01*
G37*
G36*
X105309626Y-105381405D02*
G01*
X105486182Y-105438772D01*
X105646953Y-105531593D01*
X105784913Y-105655812D01*
X105894031Y-105806000D01*
X105969538Y-105975593D01*
X106008135Y-106157179D01*
X106008135Y-106342821D01*
X105969538Y-106524407D01*
X105894031Y-106694000D01*
X105784913Y-106844188D01*
X105646953Y-106968407D01*
X105486182Y-107061228D01*
X105309626Y-107118595D01*
X105125000Y-107138000D01*
X105122381Y-107138000D01*
X104877619Y-107138000D01*
X104875000Y-107138000D01*
X104690374Y-107118595D01*
X104513818Y-107061228D01*
X104353047Y-106968407D01*
X104215087Y-106844188D01*
X104105969Y-106694000D01*
X104030462Y-106524407D01*
X103991865Y-106342821D01*
X103991865Y-106157179D01*
X104030462Y-105975593D01*
X104105969Y-105806000D01*
X104215087Y-105655812D01*
X104353047Y-105531593D01*
X104513818Y-105438772D01*
X104690374Y-105381405D01*
X104875000Y-105362000D01*
X105125000Y-105362000D01*
X105309626Y-105381405D01*
G37*
G36*
X186434542Y-102939893D02*
G01*
X186446870Y-102948130D01*
X186455107Y-102960458D01*
X186458000Y-102975000D01*
X186458000Y-104675000D01*
X186455107Y-104689542D01*
X186446870Y-104701870D01*
X186434542Y-104710107D01*
X186420000Y-104713000D01*
X184720000Y-104713000D01*
X184705458Y-104710107D01*
X184693130Y-104701870D01*
X184684893Y-104689542D01*
X184682000Y-104675000D01*
X184682000Y-102975000D01*
X184684893Y-102960458D01*
X184693130Y-102948130D01*
X184705458Y-102939893D01*
X184720000Y-102937000D01*
X186420000Y-102937000D01*
X186434542Y-102939893D01*
G37*
G36*
X191514542Y-102939893D02*
G01*
X191526870Y-102948130D01*
X191535107Y-102960458D01*
X191538000Y-102975000D01*
X191538000Y-104675000D01*
X191535107Y-104689542D01*
X191526870Y-104701870D01*
X191514542Y-104710107D01*
X191500000Y-104713000D01*
X189800000Y-104713000D01*
X189785458Y-104710107D01*
X189773130Y-104701870D01*
X189764893Y-104689542D01*
X189762000Y-104675000D01*
X189762000Y-102975000D01*
X189764893Y-102960458D01*
X189773130Y-102948130D01*
X189785458Y-102939893D01*
X189800000Y-102937000D01*
X191500000Y-102937000D01*
X191514542Y-102939893D01*
G37*
G36*
X105790938Y-102869650D02*
G01*
X105795653Y-102871732D01*
X105798326Y-102872084D01*
X105831770Y-102887679D01*
X105887759Y-102912401D01*
X105962599Y-102987241D01*
X105987330Y-103043251D01*
X106002915Y-103076673D01*
X106003266Y-103079343D01*
X106005350Y-103084062D01*
X106013000Y-103150000D01*
X106013000Y-104350000D01*
X106005350Y-104415938D01*
X106003266Y-104420656D01*
X106002915Y-104423326D01*
X105987338Y-104456730D01*
X105962599Y-104512759D01*
X105887759Y-104587599D01*
X105831730Y-104612338D01*
X105798326Y-104627915D01*
X105795656Y-104628266D01*
X105790938Y-104630350D01*
X105725000Y-104638000D01*
X104275000Y-104638000D01*
X104209062Y-104630350D01*
X104204343Y-104628266D01*
X104201673Y-104627915D01*
X104168251Y-104612330D01*
X104112241Y-104587599D01*
X104037401Y-104512759D01*
X104012679Y-104456770D01*
X103997084Y-104423326D01*
X103996732Y-104420653D01*
X103994650Y-104415938D01*
X103987000Y-104350000D01*
X103987000Y-103150000D01*
X103994650Y-103084062D01*
X103996732Y-103079346D01*
X103997084Y-103076673D01*
X104012687Y-103043210D01*
X104037401Y-102987241D01*
X104112241Y-102912401D01*
X104168210Y-102887687D01*
X104201673Y-102872084D01*
X104204346Y-102871732D01*
X104209062Y-102869650D01*
X104275000Y-102862000D01*
X105725000Y-102862000D01*
X105790938Y-102869650D01*
G37*
G36*
X185844407Y-100440462D02*
G01*
X186014000Y-100515969D01*
X186164188Y-100625087D01*
X186288407Y-100763047D01*
X186381228Y-100923818D01*
X186438595Y-101100374D01*
X186458000Y-101285000D01*
X186438595Y-101469626D01*
X186381228Y-101646182D01*
X186288407Y-101806953D01*
X186164188Y-101944913D01*
X186014000Y-102054031D01*
X185844407Y-102129538D01*
X185662821Y-102168135D01*
X185477179Y-102168135D01*
X185295593Y-102129538D01*
X185126000Y-102054031D01*
X184975812Y-101944913D01*
X184851593Y-101806953D01*
X184758772Y-101646182D01*
X184701405Y-101469626D01*
X184682000Y-101285000D01*
X184701405Y-101100374D01*
X184758772Y-100923818D01*
X184851593Y-100763047D01*
X184975812Y-100625087D01*
X185126000Y-100515969D01*
X185295593Y-100440462D01*
X185477179Y-100401865D01*
X185662821Y-100401865D01*
X185844407Y-100440462D01*
G37*
G36*
X190924407Y-100440462D02*
G01*
X191094000Y-100515969D01*
X191244188Y-100625087D01*
X191368407Y-100763047D01*
X191461228Y-100923818D01*
X191518595Y-101100374D01*
X191538000Y-101285000D01*
X191518595Y-101469626D01*
X191461228Y-101646182D01*
X191368407Y-101806953D01*
X191244188Y-101944913D01*
X191094000Y-102054031D01*
X190924407Y-102129538D01*
X190742821Y-102168135D01*
X190557179Y-102168135D01*
X190375593Y-102129538D01*
X190206000Y-102054031D01*
X190055812Y-101944913D01*
X189931593Y-101806953D01*
X189838772Y-101646182D01*
X189781405Y-101469626D01*
X189762000Y-101285000D01*
X189781405Y-101100374D01*
X189838772Y-100923818D01*
X189931593Y-100763047D01*
X190055812Y-100625087D01*
X190206000Y-100515969D01*
X190375593Y-100440462D01*
X190557179Y-100401865D01*
X190742821Y-100401865D01*
X190924407Y-100440462D01*
G37*
G36*
X105309626Y-95381405D02*
G01*
X105486182Y-95438772D01*
X105646953Y-95531593D01*
X105784913Y-95655812D01*
X105894031Y-95806000D01*
X105969538Y-95975593D01*
X106008135Y-96157179D01*
X106008135Y-96342821D01*
X105969538Y-96524407D01*
X105894031Y-96694000D01*
X105784913Y-96844188D01*
X105646953Y-96968407D01*
X105486182Y-97061228D01*
X105309626Y-97118595D01*
X105125000Y-97138000D01*
X105122381Y-97138000D01*
X104877619Y-97138000D01*
X104875000Y-97138000D01*
X104690374Y-97118595D01*
X104513818Y-97061228D01*
X104353047Y-96968407D01*
X104215087Y-96844188D01*
X104105969Y-96694000D01*
X104030462Y-96524407D01*
X103991865Y-96342821D01*
X103991865Y-96157179D01*
X104030462Y-95975593D01*
X104105969Y-95806000D01*
X104215087Y-95655812D01*
X104353047Y-95531593D01*
X104513818Y-95438772D01*
X104690374Y-95381405D01*
X104875000Y-95362000D01*
X105125000Y-95362000D01*
X105309626Y-95381405D01*
G37*
G36*
X186434542Y-95289893D02*
G01*
X186446870Y-95298130D01*
X186455107Y-95310458D01*
X186458000Y-95325000D01*
X186458000Y-97025000D01*
X186455107Y-97039542D01*
X186446870Y-97051870D01*
X186434542Y-97060107D01*
X186420000Y-97063000D01*
X184720000Y-97063000D01*
X184705458Y-97060107D01*
X184693130Y-97051870D01*
X184684893Y-97039542D01*
X184682000Y-97025000D01*
X184682000Y-95325000D01*
X184684893Y-95310458D01*
X184693130Y-95298130D01*
X184705458Y-95289893D01*
X184720000Y-95287000D01*
X186420000Y-95287000D01*
X186434542Y-95289893D01*
G37*
G36*
X191514542Y-95289893D02*
G01*
X191526870Y-95298130D01*
X191535107Y-95310458D01*
X191538000Y-95325000D01*
X191538000Y-97025000D01*
X191535107Y-97039542D01*
X191526870Y-97051870D01*
X191514542Y-97060107D01*
X191500000Y-97063000D01*
X189800000Y-97063000D01*
X189785458Y-97060107D01*
X189773130Y-97051870D01*
X189764893Y-97039542D01*
X189762000Y-97025000D01*
X189762000Y-95325000D01*
X189764893Y-95310458D01*
X189773130Y-95298130D01*
X189785458Y-95289893D01*
X189800000Y-95287000D01*
X191500000Y-95287000D01*
X191514542Y-95289893D01*
G37*
G36*
X105309626Y-92881405D02*
G01*
X105486182Y-92938772D01*
X105646953Y-93031593D01*
X105784913Y-93155812D01*
X105894031Y-93306000D01*
X105969538Y-93475593D01*
X106008135Y-93657179D01*
X106008135Y-93842821D01*
X105969538Y-94024407D01*
X105894031Y-94194000D01*
X105784913Y-94344188D01*
X105646953Y-94468407D01*
X105486182Y-94561228D01*
X105309626Y-94618595D01*
X105125000Y-94638000D01*
X105122381Y-94638000D01*
X104877619Y-94638000D01*
X104875000Y-94638000D01*
X104690374Y-94618595D01*
X104513818Y-94561228D01*
X104353047Y-94468407D01*
X104215087Y-94344188D01*
X104105969Y-94194000D01*
X104030462Y-94024407D01*
X103991865Y-93842821D01*
X103991865Y-93657179D01*
X104030462Y-93475593D01*
X104105969Y-93306000D01*
X104215087Y-93155812D01*
X104353047Y-93031593D01*
X104513818Y-92938772D01*
X104690374Y-92881405D01*
X104875000Y-92862000D01*
X105125000Y-92862000D01*
X105309626Y-92881405D01*
G37*
G36*
X185844407Y-92790462D02*
G01*
X186014000Y-92865969D01*
X186164188Y-92975087D01*
X186288407Y-93113047D01*
X186381228Y-93273818D01*
X186438595Y-93450374D01*
X186458000Y-93635000D01*
X186438595Y-93819626D01*
X186381228Y-93996182D01*
X186288407Y-94156953D01*
X186164188Y-94294913D01*
X186014000Y-94404031D01*
X185844407Y-94479538D01*
X185662821Y-94518135D01*
X185477179Y-94518135D01*
X185295593Y-94479538D01*
X185126000Y-94404031D01*
X184975812Y-94294913D01*
X184851593Y-94156953D01*
X184758772Y-93996182D01*
X184701405Y-93819626D01*
X184682000Y-93635000D01*
X184701405Y-93450374D01*
X184758772Y-93273818D01*
X184851593Y-93113047D01*
X184975812Y-92975087D01*
X185126000Y-92865969D01*
X185295593Y-92790462D01*
X185477179Y-92751865D01*
X185662821Y-92751865D01*
X185844407Y-92790462D01*
G37*
G36*
X190924407Y-92790462D02*
G01*
X191094000Y-92865969D01*
X191244188Y-92975087D01*
X191368407Y-93113047D01*
X191461228Y-93273818D01*
X191518595Y-93450374D01*
X191538000Y-93635000D01*
X191518595Y-93819626D01*
X191461228Y-93996182D01*
X191368407Y-94156953D01*
X191244188Y-94294913D01*
X191094000Y-94404031D01*
X190924407Y-94479538D01*
X190742821Y-94518135D01*
X190557179Y-94518135D01*
X190375593Y-94479538D01*
X190206000Y-94404031D01*
X190055812Y-94294913D01*
X189931593Y-94156953D01*
X189838772Y-93996182D01*
X189781405Y-93819626D01*
X189762000Y-93635000D01*
X189781405Y-93450374D01*
X189838772Y-93273818D01*
X189931593Y-93113047D01*
X190055812Y-92975087D01*
X190206000Y-92865969D01*
X190375593Y-92790462D01*
X190557179Y-92751865D01*
X190742821Y-92751865D01*
X190924407Y-92790462D01*
G37*
G36*
X105309626Y-90381405D02*
G01*
X105486182Y-90438772D01*
X105646953Y-90531593D01*
X105784913Y-90655812D01*
X105894031Y-90806000D01*
X105969538Y-90975593D01*
X106008135Y-91157179D01*
X106008135Y-91342821D01*
X105969538Y-91524407D01*
X105894031Y-91694000D01*
X105784913Y-91844188D01*
X105646953Y-91968407D01*
X105486182Y-92061228D01*
X105309626Y-92118595D01*
X105125000Y-92138000D01*
X105122381Y-92138000D01*
X104877619Y-92138000D01*
X104875000Y-92138000D01*
X104690374Y-92118595D01*
X104513818Y-92061228D01*
X104353047Y-91968407D01*
X104215087Y-91844188D01*
X104105969Y-91694000D01*
X104030462Y-91524407D01*
X103991865Y-91342821D01*
X103991865Y-91157179D01*
X104030462Y-90975593D01*
X104105969Y-90806000D01*
X104215087Y-90655812D01*
X104353047Y-90531593D01*
X104513818Y-90438772D01*
X104690374Y-90381405D01*
X104875000Y-90362000D01*
X105125000Y-90362000D01*
X105309626Y-90381405D01*
G37*
G36*
X119156742Y-88955294D02*
G01*
X119169070Y-88963531D01*
X119177307Y-88975859D01*
X119180200Y-88990401D01*
X119180200Y-90690401D01*
X119177307Y-90704943D01*
X119169070Y-90717271D01*
X119156742Y-90725508D01*
X119142200Y-90728401D01*
X117442200Y-90728401D01*
X117427658Y-90725508D01*
X117415330Y-90717271D01*
X117407093Y-90704943D01*
X117404200Y-90690401D01*
X117404200Y-88990401D01*
X117407093Y-88975859D01*
X117415330Y-88963531D01*
X117427658Y-88955294D01*
X117442200Y-88952401D01*
X119142200Y-88952401D01*
X119156742Y-88955294D01*
G37*
G36*
X121106607Y-88995863D02*
G01*
X121276200Y-89071370D01*
X121426388Y-89180488D01*
X121550607Y-89318448D01*
X121643428Y-89479219D01*
X121700795Y-89655775D01*
X121720200Y-89840401D01*
X121700795Y-90025027D01*
X121643428Y-90201583D01*
X121550607Y-90362354D01*
X121426388Y-90500314D01*
X121276200Y-90609432D01*
X121106607Y-90684939D01*
X120925021Y-90723536D01*
X120739379Y-90723536D01*
X120557793Y-90684939D01*
X120388200Y-90609432D01*
X120238012Y-90500314D01*
X120113793Y-90362354D01*
X120020972Y-90201583D01*
X119963605Y-90025027D01*
X119944200Y-89840401D01*
X119963605Y-89655775D01*
X120020972Y-89479219D01*
X120113793Y-89318448D01*
X120238012Y-89180488D01*
X120388200Y-89071370D01*
X120557793Y-88995863D01*
X120739379Y-88957266D01*
X120925021Y-88957266D01*
X121106607Y-88995863D01*
G37*
G36*
X123646607Y-88995863D02*
G01*
X123816200Y-89071370D01*
X123966388Y-89180488D01*
X124090607Y-89318448D01*
X124183428Y-89479219D01*
X124240795Y-89655775D01*
X124260200Y-89840401D01*
X124240795Y-90025027D01*
X124183428Y-90201583D01*
X124090607Y-90362354D01*
X123966388Y-90500314D01*
X123816200Y-90609432D01*
X123646607Y-90684939D01*
X123465021Y-90723536D01*
X123279379Y-90723536D01*
X123097793Y-90684939D01*
X122928200Y-90609432D01*
X122778012Y-90500314D01*
X122653793Y-90362354D01*
X122560972Y-90201583D01*
X122503605Y-90025027D01*
X122484200Y-89840401D01*
X122503605Y-89655775D01*
X122560972Y-89479219D01*
X122653793Y-89318448D01*
X122778012Y-89180488D01*
X122928200Y-89071370D01*
X123097793Y-88995863D01*
X123279379Y-88957266D01*
X123465021Y-88957266D01*
X123646607Y-88995863D01*
G37*
G36*
X126186607Y-88995863D02*
G01*
X126356200Y-89071370D01*
X126506388Y-89180488D01*
X126630607Y-89318448D01*
X126723428Y-89479219D01*
X126780795Y-89655775D01*
X126800200Y-89840401D01*
X126780795Y-90025027D01*
X126723428Y-90201583D01*
X126630607Y-90362354D01*
X126506388Y-90500314D01*
X126356200Y-90609432D01*
X126186607Y-90684939D01*
X126005021Y-90723536D01*
X125819379Y-90723536D01*
X125637793Y-90684939D01*
X125468200Y-90609432D01*
X125318012Y-90500314D01*
X125193793Y-90362354D01*
X125100972Y-90201583D01*
X125043605Y-90025027D01*
X125024200Y-89840401D01*
X125043605Y-89655775D01*
X125100972Y-89479219D01*
X125193793Y-89318448D01*
X125318012Y-89180488D01*
X125468200Y-89071370D01*
X125637793Y-88995863D01*
X125819379Y-88957266D01*
X126005021Y-88957266D01*
X126186607Y-88995863D01*
G37*
G36*
X128726607Y-88995863D02*
G01*
X128896200Y-89071370D01*
X129046388Y-89180488D01*
X129170607Y-89318448D01*
X129263428Y-89479219D01*
X129320795Y-89655775D01*
X129340200Y-89840401D01*
X129320795Y-90025027D01*
X129263428Y-90201583D01*
X129170607Y-90362354D01*
X129046388Y-90500314D01*
X128896200Y-90609432D01*
X128726607Y-90684939D01*
X128545021Y-90723536D01*
X128359379Y-90723536D01*
X128177793Y-90684939D01*
X128008200Y-90609432D01*
X127858012Y-90500314D01*
X127733793Y-90362354D01*
X127640972Y-90201583D01*
X127583605Y-90025027D01*
X127564200Y-89840401D01*
X127583605Y-89655775D01*
X127640972Y-89479219D01*
X127733793Y-89318448D01*
X127858012Y-89180488D01*
X128008200Y-89071370D01*
X128177793Y-88995863D01*
X128359379Y-88957266D01*
X128545021Y-88957266D01*
X128726607Y-88995863D01*
G37*
G36*
X131266607Y-88995863D02*
G01*
X131436200Y-89071370D01*
X131586388Y-89180488D01*
X131710607Y-89318448D01*
X131803428Y-89479219D01*
X131860795Y-89655775D01*
X131880200Y-89840401D01*
X131860795Y-90025027D01*
X131803428Y-90201583D01*
X131710607Y-90362354D01*
X131586388Y-90500314D01*
X131436200Y-90609432D01*
X131266607Y-90684939D01*
X131085021Y-90723536D01*
X130899379Y-90723536D01*
X130717793Y-90684939D01*
X130548200Y-90609432D01*
X130398012Y-90500314D01*
X130273793Y-90362354D01*
X130180972Y-90201583D01*
X130123605Y-90025027D01*
X130104200Y-89840401D01*
X130123605Y-89655775D01*
X130180972Y-89479219D01*
X130273793Y-89318448D01*
X130398012Y-89180488D01*
X130548200Y-89071370D01*
X130717793Y-88995863D01*
X130899379Y-88957266D01*
X131085021Y-88957266D01*
X131266607Y-88995863D01*
G37*
G36*
X133806607Y-88995863D02*
G01*
X133976200Y-89071370D01*
X134126388Y-89180488D01*
X134250607Y-89318448D01*
X134343428Y-89479219D01*
X134400795Y-89655775D01*
X134420200Y-89840401D01*
X134400795Y-90025027D01*
X134343428Y-90201583D01*
X134250607Y-90362354D01*
X134126388Y-90500314D01*
X133976200Y-90609432D01*
X133806607Y-90684939D01*
X133625021Y-90723536D01*
X133439379Y-90723536D01*
X133257793Y-90684939D01*
X133088200Y-90609432D01*
X132938012Y-90500314D01*
X132813793Y-90362354D01*
X132720972Y-90201583D01*
X132663605Y-90025027D01*
X132644200Y-89840401D01*
X132663605Y-89655775D01*
X132720972Y-89479219D01*
X132813793Y-89318448D01*
X132938012Y-89180488D01*
X133088200Y-89071370D01*
X133257793Y-88995863D01*
X133439379Y-88957266D01*
X133625021Y-88957266D01*
X133806607Y-88995863D01*
G37*
G36*
X136346607Y-88995863D02*
G01*
X136516200Y-89071370D01*
X136666388Y-89180488D01*
X136790607Y-89318448D01*
X136883428Y-89479219D01*
X136940795Y-89655775D01*
X136960200Y-89840401D01*
X136940795Y-90025027D01*
X136883428Y-90201583D01*
X136790607Y-90362354D01*
X136666388Y-90500314D01*
X136516200Y-90609432D01*
X136346607Y-90684939D01*
X136165021Y-90723536D01*
X135979379Y-90723536D01*
X135797793Y-90684939D01*
X135628200Y-90609432D01*
X135478012Y-90500314D01*
X135353793Y-90362354D01*
X135260972Y-90201583D01*
X135203605Y-90025027D01*
X135184200Y-89840401D01*
X135203605Y-89655775D01*
X135260972Y-89479219D01*
X135353793Y-89318448D01*
X135478012Y-89180488D01*
X135628200Y-89071370D01*
X135797793Y-88995863D01*
X135979379Y-88957266D01*
X136165021Y-88957266D01*
X136346607Y-88995863D01*
G37*
G36*
X138886607Y-88995863D02*
G01*
X139056200Y-89071370D01*
X139206388Y-89180488D01*
X139330607Y-89318448D01*
X139423428Y-89479219D01*
X139480795Y-89655775D01*
X139500200Y-89840401D01*
X139480795Y-90025027D01*
X139423428Y-90201583D01*
X139330607Y-90362354D01*
X139206388Y-90500314D01*
X139056200Y-90609432D01*
X138886607Y-90684939D01*
X138705021Y-90723536D01*
X138519379Y-90723536D01*
X138337793Y-90684939D01*
X138168200Y-90609432D01*
X138018012Y-90500314D01*
X137893793Y-90362354D01*
X137800972Y-90201583D01*
X137743605Y-90025027D01*
X137724200Y-89840401D01*
X137743605Y-89655775D01*
X137800972Y-89479219D01*
X137893793Y-89318448D01*
X138018012Y-89180488D01*
X138168200Y-89071370D01*
X138337793Y-88995863D01*
X138519379Y-88957266D01*
X138705021Y-88957266D01*
X138886607Y-88995863D01*
G37*
G36*
X141426607Y-88995863D02*
G01*
X141596200Y-89071370D01*
X141746388Y-89180488D01*
X141870607Y-89318448D01*
X141963428Y-89479219D01*
X142020795Y-89655775D01*
X142040200Y-89840401D01*
X142020795Y-90025027D01*
X141963428Y-90201583D01*
X141870607Y-90362354D01*
X141746388Y-90500314D01*
X141596200Y-90609432D01*
X141426607Y-90684939D01*
X141245021Y-90723536D01*
X141059379Y-90723536D01*
X140877793Y-90684939D01*
X140708200Y-90609432D01*
X140558012Y-90500314D01*
X140433793Y-90362354D01*
X140340972Y-90201583D01*
X140283605Y-90025027D01*
X140264200Y-89840401D01*
X140283605Y-89655775D01*
X140340972Y-89479219D01*
X140433793Y-89318448D01*
X140558012Y-89180488D01*
X140708200Y-89071370D01*
X140877793Y-88995863D01*
X141059379Y-88957266D01*
X141245021Y-88957266D01*
X141426607Y-88995863D01*
G37*
G36*
X143966607Y-88995863D02*
G01*
X144136200Y-89071370D01*
X144286388Y-89180488D01*
X144410607Y-89318448D01*
X144503428Y-89479219D01*
X144560795Y-89655775D01*
X144580200Y-89840401D01*
X144560795Y-90025027D01*
X144503428Y-90201583D01*
X144410607Y-90362354D01*
X144286388Y-90500314D01*
X144136200Y-90609432D01*
X143966607Y-90684939D01*
X143785021Y-90723536D01*
X143599379Y-90723536D01*
X143417793Y-90684939D01*
X143248200Y-90609432D01*
X143098012Y-90500314D01*
X142973793Y-90362354D01*
X142880972Y-90201583D01*
X142823605Y-90025027D01*
X142804200Y-89840401D01*
X142823605Y-89655775D01*
X142880972Y-89479219D01*
X142973793Y-89318448D01*
X143098012Y-89180488D01*
X143248200Y-89071370D01*
X143417793Y-88995863D01*
X143599379Y-88957266D01*
X143785021Y-88957266D01*
X143966607Y-88995863D01*
G37*
G36*
X146506607Y-88995863D02*
G01*
X146676200Y-89071370D01*
X146826388Y-89180488D01*
X146950607Y-89318448D01*
X147043428Y-89479219D01*
X147100795Y-89655775D01*
X147120200Y-89840401D01*
X147100795Y-90025027D01*
X147043428Y-90201583D01*
X146950607Y-90362354D01*
X146826388Y-90500314D01*
X146676200Y-90609432D01*
X146506607Y-90684939D01*
X146325021Y-90723536D01*
X146139379Y-90723536D01*
X145957793Y-90684939D01*
X145788200Y-90609432D01*
X145638012Y-90500314D01*
X145513793Y-90362354D01*
X145420972Y-90201583D01*
X145363605Y-90025027D01*
X145344200Y-89840401D01*
X145363605Y-89655775D01*
X145420972Y-89479219D01*
X145513793Y-89318448D01*
X145638012Y-89180488D01*
X145788200Y-89071370D01*
X145957793Y-88995863D01*
X146139379Y-88957266D01*
X146325021Y-88957266D01*
X146506607Y-88995863D01*
G37*
G36*
X149046607Y-88995863D02*
G01*
X149216200Y-89071370D01*
X149366388Y-89180488D01*
X149490607Y-89318448D01*
X149583428Y-89479219D01*
X149640795Y-89655775D01*
X149660200Y-89840401D01*
X149640795Y-90025027D01*
X149583428Y-90201583D01*
X149490607Y-90362354D01*
X149366388Y-90500314D01*
X149216200Y-90609432D01*
X149046607Y-90684939D01*
X148865021Y-90723536D01*
X148679379Y-90723536D01*
X148497793Y-90684939D01*
X148328200Y-90609432D01*
X148178012Y-90500314D01*
X148053793Y-90362354D01*
X147960972Y-90201583D01*
X147903605Y-90025027D01*
X147884200Y-89840401D01*
X147903605Y-89655775D01*
X147960972Y-89479219D01*
X148053793Y-89318448D01*
X148178012Y-89180488D01*
X148328200Y-89071370D01*
X148497793Y-88995863D01*
X148679379Y-88957266D01*
X148865021Y-88957266D01*
X149046607Y-88995863D01*
G37*
G36*
X151586607Y-88995863D02*
G01*
X151756200Y-89071370D01*
X151906388Y-89180488D01*
X152030607Y-89318448D01*
X152123428Y-89479219D01*
X152180795Y-89655775D01*
X152200200Y-89840401D01*
X152180795Y-90025027D01*
X152123428Y-90201583D01*
X152030607Y-90362354D01*
X151906388Y-90500314D01*
X151756200Y-90609432D01*
X151586607Y-90684939D01*
X151405021Y-90723536D01*
X151219379Y-90723536D01*
X151037793Y-90684939D01*
X150868200Y-90609432D01*
X150718012Y-90500314D01*
X150593793Y-90362354D01*
X150500972Y-90201583D01*
X150443605Y-90025027D01*
X150424200Y-89840401D01*
X150443605Y-89655775D01*
X150500972Y-89479219D01*
X150593793Y-89318448D01*
X150718012Y-89180488D01*
X150868200Y-89071370D01*
X151037793Y-88995863D01*
X151219379Y-88957266D01*
X151405021Y-88957266D01*
X151586607Y-88995863D01*
G37*
G36*
X154126607Y-88995863D02*
G01*
X154296200Y-89071370D01*
X154446388Y-89180488D01*
X154570607Y-89318448D01*
X154663428Y-89479219D01*
X154720795Y-89655775D01*
X154740200Y-89840401D01*
X154720795Y-90025027D01*
X154663428Y-90201583D01*
X154570607Y-90362354D01*
X154446388Y-90500314D01*
X154296200Y-90609432D01*
X154126607Y-90684939D01*
X153945021Y-90723536D01*
X153759379Y-90723536D01*
X153577793Y-90684939D01*
X153408200Y-90609432D01*
X153258012Y-90500314D01*
X153133793Y-90362354D01*
X153040972Y-90201583D01*
X152983605Y-90025027D01*
X152964200Y-89840401D01*
X152983605Y-89655775D01*
X153040972Y-89479219D01*
X153133793Y-89318448D01*
X153258012Y-89180488D01*
X153408200Y-89071370D01*
X153577793Y-88995863D01*
X153759379Y-88957266D01*
X153945021Y-88957266D01*
X154126607Y-88995863D01*
G37*
G36*
X156666607Y-88995863D02*
G01*
X156836200Y-89071370D01*
X156986388Y-89180488D01*
X157110607Y-89318448D01*
X157203428Y-89479219D01*
X157260795Y-89655775D01*
X157280200Y-89840401D01*
X157260795Y-90025027D01*
X157203428Y-90201583D01*
X157110607Y-90362354D01*
X156986388Y-90500314D01*
X156836200Y-90609432D01*
X156666607Y-90684939D01*
X156485021Y-90723536D01*
X156299379Y-90723536D01*
X156117793Y-90684939D01*
X155948200Y-90609432D01*
X155798012Y-90500314D01*
X155673793Y-90362354D01*
X155580972Y-90201583D01*
X155523605Y-90025027D01*
X155504200Y-89840401D01*
X155523605Y-89655775D01*
X155580972Y-89479219D01*
X155673793Y-89318448D01*
X155798012Y-89180488D01*
X155948200Y-89071370D01*
X156117793Y-88995863D01*
X156299379Y-88957266D01*
X156485021Y-88957266D01*
X156666607Y-88995863D01*
G37*
G36*
X159206607Y-88995863D02*
G01*
X159376200Y-89071370D01*
X159526388Y-89180488D01*
X159650607Y-89318448D01*
X159743428Y-89479219D01*
X159800795Y-89655775D01*
X159820200Y-89840401D01*
X159800795Y-90025027D01*
X159743428Y-90201583D01*
X159650607Y-90362354D01*
X159526388Y-90500314D01*
X159376200Y-90609432D01*
X159206607Y-90684939D01*
X159025021Y-90723536D01*
X158839379Y-90723536D01*
X158657793Y-90684939D01*
X158488200Y-90609432D01*
X158338012Y-90500314D01*
X158213793Y-90362354D01*
X158120972Y-90201583D01*
X158063605Y-90025027D01*
X158044200Y-89840401D01*
X158063605Y-89655775D01*
X158120972Y-89479219D01*
X158213793Y-89318448D01*
X158338012Y-89180488D01*
X158488200Y-89071370D01*
X158657793Y-88995863D01*
X158839379Y-88957266D01*
X159025021Y-88957266D01*
X159206607Y-88995863D01*
G37*
G36*
X161746607Y-88995863D02*
G01*
X161916200Y-89071370D01*
X162066388Y-89180488D01*
X162190607Y-89318448D01*
X162283428Y-89479219D01*
X162340795Y-89655775D01*
X162360200Y-89840401D01*
X162340795Y-90025027D01*
X162283428Y-90201583D01*
X162190607Y-90362354D01*
X162066388Y-90500314D01*
X161916200Y-90609432D01*
X161746607Y-90684939D01*
X161565021Y-90723536D01*
X161379379Y-90723536D01*
X161197793Y-90684939D01*
X161028200Y-90609432D01*
X160878012Y-90500314D01*
X160753793Y-90362354D01*
X160660972Y-90201583D01*
X160603605Y-90025027D01*
X160584200Y-89840401D01*
X160603605Y-89655775D01*
X160660972Y-89479219D01*
X160753793Y-89318448D01*
X160878012Y-89180488D01*
X161028200Y-89071370D01*
X161197793Y-88995863D01*
X161379379Y-88957266D01*
X161565021Y-88957266D01*
X161746607Y-88995863D01*
G37*
G36*
X164286607Y-88995863D02*
G01*
X164456200Y-89071370D01*
X164606388Y-89180488D01*
X164730607Y-89318448D01*
X164823428Y-89479219D01*
X164880795Y-89655775D01*
X164900200Y-89840401D01*
X164880795Y-90025027D01*
X164823428Y-90201583D01*
X164730607Y-90362354D01*
X164606388Y-90500314D01*
X164456200Y-90609432D01*
X164286607Y-90684939D01*
X164105021Y-90723536D01*
X163919379Y-90723536D01*
X163737793Y-90684939D01*
X163568200Y-90609432D01*
X163418012Y-90500314D01*
X163293793Y-90362354D01*
X163200972Y-90201583D01*
X163143605Y-90025027D01*
X163124200Y-89840401D01*
X163143605Y-89655775D01*
X163200972Y-89479219D01*
X163293793Y-89318448D01*
X163418012Y-89180488D01*
X163568200Y-89071370D01*
X163737793Y-88995863D01*
X163919379Y-88957266D01*
X164105021Y-88957266D01*
X164286607Y-88995863D01*
G37*
G36*
X166826607Y-88995863D02*
G01*
X166996200Y-89071370D01*
X167146388Y-89180488D01*
X167270607Y-89318448D01*
X167363428Y-89479219D01*
X167420795Y-89655775D01*
X167440200Y-89840401D01*
X167420795Y-90025027D01*
X167363428Y-90201583D01*
X167270607Y-90362354D01*
X167146388Y-90500314D01*
X166996200Y-90609432D01*
X166826607Y-90684939D01*
X166645021Y-90723536D01*
X166459379Y-90723536D01*
X166277793Y-90684939D01*
X166108200Y-90609432D01*
X165958012Y-90500314D01*
X165833793Y-90362354D01*
X165740972Y-90201583D01*
X165683605Y-90025027D01*
X165664200Y-89840401D01*
X165683605Y-89655775D01*
X165740972Y-89479219D01*
X165833793Y-89318448D01*
X165958012Y-89180488D01*
X166108200Y-89071370D01*
X166277793Y-88995863D01*
X166459379Y-88957266D01*
X166645021Y-88957266D01*
X166826607Y-88995863D01*
G37*
G36*
X105790938Y-87869650D02*
G01*
X105795653Y-87871732D01*
X105798326Y-87872084D01*
X105831770Y-87887679D01*
X105887759Y-87912401D01*
X105962599Y-87987241D01*
X105987330Y-88043251D01*
X106002915Y-88076673D01*
X106003266Y-88079343D01*
X106005350Y-88084062D01*
X106013000Y-88150000D01*
X106013000Y-89350000D01*
X106005350Y-89415938D01*
X106003266Y-89420656D01*
X106002915Y-89423326D01*
X105987338Y-89456730D01*
X105962599Y-89512759D01*
X105887759Y-89587599D01*
X105831730Y-89612338D01*
X105798326Y-89627915D01*
X105795656Y-89628266D01*
X105790938Y-89630350D01*
X105725000Y-89638000D01*
X104275000Y-89638000D01*
X104209062Y-89630350D01*
X104204343Y-89628266D01*
X104201673Y-89627915D01*
X104168251Y-89612330D01*
X104112241Y-89587599D01*
X104037401Y-89512759D01*
X104012679Y-89456770D01*
X103997084Y-89423326D01*
X103996732Y-89420653D01*
X103994650Y-89415938D01*
X103987000Y-89350000D01*
X103987000Y-88150000D01*
X103994650Y-88084062D01*
X103996732Y-88079346D01*
X103997084Y-88076673D01*
X104012687Y-88043210D01*
X104037401Y-87987241D01*
X104112241Y-87912401D01*
X104168210Y-87887687D01*
X104201673Y-87872084D01*
X104204346Y-87871732D01*
X104209062Y-87869650D01*
X104275000Y-87862000D01*
X105725000Y-87862000D01*
X105790938Y-87869650D01*
G37*
G36*
X174094542Y-86440294D02*
G01*
X174106870Y-86448531D01*
X174115107Y-86460859D01*
X174118000Y-86475401D01*
X174118000Y-88175401D01*
X174115107Y-88189943D01*
X174106870Y-88202271D01*
X174094542Y-88210508D01*
X174080000Y-88213401D01*
X172380000Y-88213401D01*
X172365458Y-88210508D01*
X172353130Y-88202271D01*
X172344893Y-88189943D01*
X172342000Y-88175401D01*
X172342000Y-86475401D01*
X172344893Y-86460859D01*
X172353130Y-86448531D01*
X172365458Y-86440294D01*
X172380000Y-86437401D01*
X174080000Y-86437401D01*
X174094542Y-86440294D01*
G37*
G36*
X176044407Y-86480863D02*
G01*
X176214000Y-86556370D01*
X176364188Y-86665488D01*
X176488407Y-86803448D01*
X176581228Y-86964219D01*
X176638595Y-87140775D01*
X176658000Y-87325401D01*
X176638595Y-87510027D01*
X176581228Y-87686583D01*
X176488407Y-87847354D01*
X176364188Y-87985314D01*
X176214000Y-88094432D01*
X176044407Y-88169939D01*
X175862821Y-88208536D01*
X175677179Y-88208536D01*
X175495593Y-88169939D01*
X175326000Y-88094432D01*
X175175812Y-87985314D01*
X175051593Y-87847354D01*
X174958772Y-87686583D01*
X174901405Y-87510027D01*
X174882000Y-87325401D01*
X174901405Y-87140775D01*
X174958772Y-86964219D01*
X175051593Y-86803448D01*
X175175812Y-86665488D01*
X175326000Y-86556370D01*
X175495593Y-86480863D01*
X175677179Y-86442266D01*
X175862821Y-86442266D01*
X176044407Y-86480863D01*
G37*
G36*
X178584407Y-86480863D02*
G01*
X178754000Y-86556370D01*
X178904188Y-86665488D01*
X179028407Y-86803448D01*
X179121228Y-86964219D01*
X179178595Y-87140775D01*
X179198000Y-87325401D01*
X179178595Y-87510027D01*
X179121228Y-87686583D01*
X179028407Y-87847354D01*
X178904188Y-87985314D01*
X178754000Y-88094432D01*
X178584407Y-88169939D01*
X178402821Y-88208536D01*
X178217179Y-88208536D01*
X178035593Y-88169939D01*
X177866000Y-88094432D01*
X177715812Y-87985314D01*
X177591593Y-87847354D01*
X177498772Y-87686583D01*
X177441405Y-87510027D01*
X177422000Y-87325401D01*
X177441405Y-87140775D01*
X177498772Y-86964219D01*
X177591593Y-86803448D01*
X177715812Y-86665488D01*
X177866000Y-86556370D01*
X178035593Y-86480863D01*
X178217179Y-86442266D01*
X178402821Y-86442266D01*
X178584407Y-86480863D01*
G37*
G36*
X181124407Y-86480863D02*
G01*
X181294000Y-86556370D01*
X181444188Y-86665488D01*
X181568407Y-86803448D01*
X181661228Y-86964219D01*
X181718595Y-87140775D01*
X181738000Y-87325401D01*
X181718595Y-87510027D01*
X181661228Y-87686583D01*
X181568407Y-87847354D01*
X181444188Y-87985314D01*
X181294000Y-88094432D01*
X181124407Y-88169939D01*
X180942821Y-88208536D01*
X180757179Y-88208536D01*
X180575593Y-88169939D01*
X180406000Y-88094432D01*
X180255812Y-87985314D01*
X180131593Y-87847354D01*
X180038772Y-87686583D01*
X179981405Y-87510027D01*
X179962000Y-87325401D01*
X179981405Y-87140775D01*
X180038772Y-86964219D01*
X180131593Y-86803448D01*
X180255812Y-86665488D01*
X180406000Y-86556370D01*
X180575593Y-86480863D01*
X180757179Y-86442266D01*
X180942821Y-86442266D01*
X181124407Y-86480863D01*
G37*
G36*
X183664407Y-86480863D02*
G01*
X183834000Y-86556370D01*
X183984188Y-86665488D01*
X184108407Y-86803448D01*
X184201228Y-86964219D01*
X184258595Y-87140775D01*
X184278000Y-87325401D01*
X184258595Y-87510027D01*
X184201228Y-87686583D01*
X184108407Y-87847354D01*
X183984188Y-87985314D01*
X183834000Y-88094432D01*
X183664407Y-88169939D01*
X183482821Y-88208536D01*
X183297179Y-88208536D01*
X183115593Y-88169939D01*
X182946000Y-88094432D01*
X182795812Y-87985314D01*
X182671593Y-87847354D01*
X182578772Y-87686583D01*
X182521405Y-87510027D01*
X182502000Y-87325401D01*
X182521405Y-87140775D01*
X182578772Y-86964219D01*
X182671593Y-86803448D01*
X182795812Y-86665488D01*
X182946000Y-86556370D01*
X183115593Y-86480863D01*
X183297179Y-86442266D01*
X183482821Y-86442266D01*
X183664407Y-86480863D01*
G37*
G36*
X186204407Y-86480863D02*
G01*
X186374000Y-86556370D01*
X186524188Y-86665488D01*
X186648407Y-86803448D01*
X186741228Y-86964219D01*
X186798595Y-87140775D01*
X186818000Y-87325401D01*
X186798595Y-87510027D01*
X186741228Y-87686583D01*
X186648407Y-87847354D01*
X186524188Y-87985314D01*
X186374000Y-88094432D01*
X186204407Y-88169939D01*
X186022821Y-88208536D01*
X185837179Y-88208536D01*
X185655593Y-88169939D01*
X185486000Y-88094432D01*
X185335812Y-87985314D01*
X185211593Y-87847354D01*
X185118772Y-87686583D01*
X185061405Y-87510027D01*
X185042000Y-87325401D01*
X185061405Y-87140775D01*
X185118772Y-86964219D01*
X185211593Y-86803448D01*
X185335812Y-86665488D01*
X185486000Y-86556370D01*
X185655593Y-86480863D01*
X185837179Y-86442266D01*
X186022821Y-86442266D01*
X186204407Y-86480863D01*
G37*
G36*
X112999542Y-83875294D02*
G01*
X113011870Y-83883531D01*
X113020107Y-83895859D01*
X113023000Y-83910401D01*
X113023000Y-85610401D01*
X113020107Y-85624943D01*
X113011870Y-85637271D01*
X112999542Y-85645508D01*
X112985000Y-85648401D01*
X111285000Y-85648401D01*
X111270458Y-85645508D01*
X111258130Y-85637271D01*
X111249893Y-85624943D01*
X111247000Y-85610401D01*
X111247000Y-83910401D01*
X111249893Y-83895859D01*
X111258130Y-83883531D01*
X111270458Y-83875294D01*
X111285000Y-83872401D01*
X112985000Y-83872401D01*
X112999542Y-83875294D01*
G37*
G36*
X119156742Y-83875294D02*
G01*
X119169070Y-83883531D01*
X119177307Y-83895859D01*
X119180200Y-83910401D01*
X119180200Y-85610401D01*
X119177307Y-85624943D01*
X119169070Y-85637271D01*
X119156742Y-85645508D01*
X119142200Y-85648401D01*
X117442200Y-85648401D01*
X117427658Y-85645508D01*
X117415330Y-85637271D01*
X117407093Y-85624943D01*
X117404200Y-85610401D01*
X117404200Y-83910401D01*
X117407093Y-83895859D01*
X117415330Y-83883531D01*
X117427658Y-83875294D01*
X117442200Y-83872401D01*
X119142200Y-83872401D01*
X119156742Y-83875294D01*
G37*
G36*
X114949407Y-83915863D02*
G01*
X115119000Y-83991370D01*
X115269188Y-84100488D01*
X115393407Y-84238448D01*
X115486228Y-84399219D01*
X115543595Y-84575775D01*
X115563000Y-84760401D01*
X115543595Y-84945027D01*
X115486228Y-85121583D01*
X115393407Y-85282354D01*
X115269188Y-85420314D01*
X115119000Y-85529432D01*
X114949407Y-85604939D01*
X114767821Y-85643536D01*
X114582179Y-85643536D01*
X114400593Y-85604939D01*
X114231000Y-85529432D01*
X114080812Y-85420314D01*
X113956593Y-85282354D01*
X113863772Y-85121583D01*
X113806405Y-84945027D01*
X113787000Y-84760401D01*
X113806405Y-84575775D01*
X113863772Y-84399219D01*
X113956593Y-84238448D01*
X114080812Y-84100488D01*
X114231000Y-83991370D01*
X114400593Y-83915863D01*
X114582179Y-83877266D01*
X114767821Y-83877266D01*
X114949407Y-83915863D01*
G37*
G36*
X121106607Y-83915863D02*
G01*
X121276200Y-83991370D01*
X121426388Y-84100488D01*
X121550607Y-84238448D01*
X121643428Y-84399219D01*
X121700795Y-84575775D01*
X121720200Y-84760401D01*
X121700795Y-84945027D01*
X121643428Y-85121583D01*
X121550607Y-85282354D01*
X121426388Y-85420314D01*
X121276200Y-85529432D01*
X121106607Y-85604939D01*
X120925021Y-85643536D01*
X120739379Y-85643536D01*
X120557793Y-85604939D01*
X120388200Y-85529432D01*
X120238012Y-85420314D01*
X120113793Y-85282354D01*
X120020972Y-85121583D01*
X119963605Y-84945027D01*
X119944200Y-84760401D01*
X119963605Y-84575775D01*
X120020972Y-84399219D01*
X120113793Y-84238448D01*
X120238012Y-84100488D01*
X120388200Y-83991370D01*
X120557793Y-83915863D01*
X120739379Y-83877266D01*
X120925021Y-83877266D01*
X121106607Y-83915863D01*
G37*
G36*
X123646607Y-83915863D02*
G01*
X123816200Y-83991370D01*
X123966388Y-84100488D01*
X124090607Y-84238448D01*
X124183428Y-84399219D01*
X124240795Y-84575775D01*
X124260200Y-84760401D01*
X124240795Y-84945027D01*
X124183428Y-85121583D01*
X124090607Y-85282354D01*
X123966388Y-85420314D01*
X123816200Y-85529432D01*
X123646607Y-85604939D01*
X123465021Y-85643536D01*
X123279379Y-85643536D01*
X123097793Y-85604939D01*
X122928200Y-85529432D01*
X122778012Y-85420314D01*
X122653793Y-85282354D01*
X122560972Y-85121583D01*
X122503605Y-84945027D01*
X122484200Y-84760401D01*
X122503605Y-84575775D01*
X122560972Y-84399219D01*
X122653793Y-84238448D01*
X122778012Y-84100488D01*
X122928200Y-83991370D01*
X123097793Y-83915863D01*
X123279379Y-83877266D01*
X123465021Y-83877266D01*
X123646607Y-83915863D01*
G37*
G36*
X126186607Y-83915863D02*
G01*
X126356200Y-83991370D01*
X126506388Y-84100488D01*
X126630607Y-84238448D01*
X126723428Y-84399219D01*
X126780795Y-84575775D01*
X126800200Y-84760401D01*
X126780795Y-84945027D01*
X126723428Y-85121583D01*
X126630607Y-85282354D01*
X126506388Y-85420314D01*
X126356200Y-85529432D01*
X126186607Y-85604939D01*
X126005021Y-85643536D01*
X125819379Y-85643536D01*
X125637793Y-85604939D01*
X125468200Y-85529432D01*
X125318012Y-85420314D01*
X125193793Y-85282354D01*
X125100972Y-85121583D01*
X125043605Y-84945027D01*
X125024200Y-84760401D01*
X125043605Y-84575775D01*
X125100972Y-84399219D01*
X125193793Y-84238448D01*
X125318012Y-84100488D01*
X125468200Y-83991370D01*
X125637793Y-83915863D01*
X125819379Y-83877266D01*
X126005021Y-83877266D01*
X126186607Y-83915863D01*
G37*
G36*
X128726607Y-83915863D02*
G01*
X128896200Y-83991370D01*
X129046388Y-84100488D01*
X129170607Y-84238448D01*
X129263428Y-84399219D01*
X129320795Y-84575775D01*
X129340200Y-84760401D01*
X129320795Y-84945027D01*
X129263428Y-85121583D01*
X129170607Y-85282354D01*
X129046388Y-85420314D01*
X128896200Y-85529432D01*
X128726607Y-85604939D01*
X128545021Y-85643536D01*
X128359379Y-85643536D01*
X128177793Y-85604939D01*
X128008200Y-85529432D01*
X127858012Y-85420314D01*
X127733793Y-85282354D01*
X127640972Y-85121583D01*
X127583605Y-84945027D01*
X127564200Y-84760401D01*
X127583605Y-84575775D01*
X127640972Y-84399219D01*
X127733793Y-84238448D01*
X127858012Y-84100488D01*
X128008200Y-83991370D01*
X128177793Y-83915863D01*
X128359379Y-83877266D01*
X128545021Y-83877266D01*
X128726607Y-83915863D01*
G37*
G36*
X131266607Y-83915863D02*
G01*
X131436200Y-83991370D01*
X131586388Y-84100488D01*
X131710607Y-84238448D01*
X131803428Y-84399219D01*
X131860795Y-84575775D01*
X131880200Y-84760401D01*
X131860795Y-84945027D01*
X131803428Y-85121583D01*
X131710607Y-85282354D01*
X131586388Y-85420314D01*
X131436200Y-85529432D01*
X131266607Y-85604939D01*
X131085021Y-85643536D01*
X130899379Y-85643536D01*
X130717793Y-85604939D01*
X130548200Y-85529432D01*
X130398012Y-85420314D01*
X130273793Y-85282354D01*
X130180972Y-85121583D01*
X130123605Y-84945027D01*
X130104200Y-84760401D01*
X130123605Y-84575775D01*
X130180972Y-84399219D01*
X130273793Y-84238448D01*
X130398012Y-84100488D01*
X130548200Y-83991370D01*
X130717793Y-83915863D01*
X130899379Y-83877266D01*
X131085021Y-83877266D01*
X131266607Y-83915863D01*
G37*
G36*
X133806607Y-83915863D02*
G01*
X133976200Y-83991370D01*
X134126388Y-84100488D01*
X134250607Y-84238448D01*
X134343428Y-84399219D01*
X134400795Y-84575775D01*
X134420200Y-84760401D01*
X134400795Y-84945027D01*
X134343428Y-85121583D01*
X134250607Y-85282354D01*
X134126388Y-85420314D01*
X133976200Y-85529432D01*
X133806607Y-85604939D01*
X133625021Y-85643536D01*
X133439379Y-85643536D01*
X133257793Y-85604939D01*
X133088200Y-85529432D01*
X132938012Y-85420314D01*
X132813793Y-85282354D01*
X132720972Y-85121583D01*
X132663605Y-84945027D01*
X132644200Y-84760401D01*
X132663605Y-84575775D01*
X132720972Y-84399219D01*
X132813793Y-84238448D01*
X132938012Y-84100488D01*
X133088200Y-83991370D01*
X133257793Y-83915863D01*
X133439379Y-83877266D01*
X133625021Y-83877266D01*
X133806607Y-83915863D01*
G37*
G36*
X136346607Y-83915863D02*
G01*
X136516200Y-83991370D01*
X136666388Y-84100488D01*
X136790607Y-84238448D01*
X136883428Y-84399219D01*
X136940795Y-84575775D01*
X136960200Y-84760401D01*
X136940795Y-84945027D01*
X136883428Y-85121583D01*
X136790607Y-85282354D01*
X136666388Y-85420314D01*
X136516200Y-85529432D01*
X136346607Y-85604939D01*
X136165021Y-85643536D01*
X135979379Y-85643536D01*
X135797793Y-85604939D01*
X135628200Y-85529432D01*
X135478012Y-85420314D01*
X135353793Y-85282354D01*
X135260972Y-85121583D01*
X135203605Y-84945027D01*
X135184200Y-84760401D01*
X135203605Y-84575775D01*
X135260972Y-84399219D01*
X135353793Y-84238448D01*
X135478012Y-84100488D01*
X135628200Y-83991370D01*
X135797793Y-83915863D01*
X135979379Y-83877266D01*
X136165021Y-83877266D01*
X136346607Y-83915863D01*
G37*
G36*
X138886607Y-83915863D02*
G01*
X139056200Y-83991370D01*
X139206388Y-84100488D01*
X139330607Y-84238448D01*
X139423428Y-84399219D01*
X139480795Y-84575775D01*
X139500200Y-84760401D01*
X139480795Y-84945027D01*
X139423428Y-85121583D01*
X139330607Y-85282354D01*
X139206388Y-85420314D01*
X139056200Y-85529432D01*
X138886607Y-85604939D01*
X138705021Y-85643536D01*
X138519379Y-85643536D01*
X138337793Y-85604939D01*
X138168200Y-85529432D01*
X138018012Y-85420314D01*
X137893793Y-85282354D01*
X137800972Y-85121583D01*
X137743605Y-84945027D01*
X137724200Y-84760401D01*
X137743605Y-84575775D01*
X137800972Y-84399219D01*
X137893793Y-84238448D01*
X138018012Y-84100488D01*
X138168200Y-83991370D01*
X138337793Y-83915863D01*
X138519379Y-83877266D01*
X138705021Y-83877266D01*
X138886607Y-83915863D01*
G37*
G36*
X141426607Y-83915863D02*
G01*
X141596200Y-83991370D01*
X141746388Y-84100488D01*
X141870607Y-84238448D01*
X141963428Y-84399219D01*
X142020795Y-84575775D01*
X142040200Y-84760401D01*
X142020795Y-84945027D01*
X141963428Y-85121583D01*
X141870607Y-85282354D01*
X141746388Y-85420314D01*
X141596200Y-85529432D01*
X141426607Y-85604939D01*
X141245021Y-85643536D01*
X141059379Y-85643536D01*
X140877793Y-85604939D01*
X140708200Y-85529432D01*
X140558012Y-85420314D01*
X140433793Y-85282354D01*
X140340972Y-85121583D01*
X140283605Y-84945027D01*
X140264200Y-84760401D01*
X140283605Y-84575775D01*
X140340972Y-84399219D01*
X140433793Y-84238448D01*
X140558012Y-84100488D01*
X140708200Y-83991370D01*
X140877793Y-83915863D01*
X141059379Y-83877266D01*
X141245021Y-83877266D01*
X141426607Y-83915863D01*
G37*
G36*
X143966607Y-83915863D02*
G01*
X144136200Y-83991370D01*
X144286388Y-84100488D01*
X144410607Y-84238448D01*
X144503428Y-84399219D01*
X144560795Y-84575775D01*
X144580200Y-84760401D01*
X144560795Y-84945027D01*
X144503428Y-85121583D01*
X144410607Y-85282354D01*
X144286388Y-85420314D01*
X144136200Y-85529432D01*
X143966607Y-85604939D01*
X143785021Y-85643536D01*
X143599379Y-85643536D01*
X143417793Y-85604939D01*
X143248200Y-85529432D01*
X143098012Y-85420314D01*
X142973793Y-85282354D01*
X142880972Y-85121583D01*
X142823605Y-84945027D01*
X142804200Y-84760401D01*
X142823605Y-84575775D01*
X142880972Y-84399219D01*
X142973793Y-84238448D01*
X143098012Y-84100488D01*
X143248200Y-83991370D01*
X143417793Y-83915863D01*
X143599379Y-83877266D01*
X143785021Y-83877266D01*
X143966607Y-83915863D01*
G37*
G36*
X146506607Y-83915863D02*
G01*
X146676200Y-83991370D01*
X146826388Y-84100488D01*
X146950607Y-84238448D01*
X147043428Y-84399219D01*
X147100795Y-84575775D01*
X147120200Y-84760401D01*
X147100795Y-84945027D01*
X147043428Y-85121583D01*
X146950607Y-85282354D01*
X146826388Y-85420314D01*
X146676200Y-85529432D01*
X146506607Y-85604939D01*
X146325021Y-85643536D01*
X146139379Y-85643536D01*
X145957793Y-85604939D01*
X145788200Y-85529432D01*
X145638012Y-85420314D01*
X145513793Y-85282354D01*
X145420972Y-85121583D01*
X145363605Y-84945027D01*
X145344200Y-84760401D01*
X145363605Y-84575775D01*
X145420972Y-84399219D01*
X145513793Y-84238448D01*
X145638012Y-84100488D01*
X145788200Y-83991370D01*
X145957793Y-83915863D01*
X146139379Y-83877266D01*
X146325021Y-83877266D01*
X146506607Y-83915863D01*
G37*
G36*
X149046607Y-83915863D02*
G01*
X149216200Y-83991370D01*
X149366388Y-84100488D01*
X149490607Y-84238448D01*
X149583428Y-84399219D01*
X149640795Y-84575775D01*
X149660200Y-84760401D01*
X149640795Y-84945027D01*
X149583428Y-85121583D01*
X149490607Y-85282354D01*
X149366388Y-85420314D01*
X149216200Y-85529432D01*
X149046607Y-85604939D01*
X148865021Y-85643536D01*
X148679379Y-85643536D01*
X148497793Y-85604939D01*
X148328200Y-85529432D01*
X148178012Y-85420314D01*
X148053793Y-85282354D01*
X147960972Y-85121583D01*
X147903605Y-84945027D01*
X147884200Y-84760401D01*
X147903605Y-84575775D01*
X147960972Y-84399219D01*
X148053793Y-84238448D01*
X148178012Y-84100488D01*
X148328200Y-83991370D01*
X148497793Y-83915863D01*
X148679379Y-83877266D01*
X148865021Y-83877266D01*
X149046607Y-83915863D01*
G37*
G36*
X151586607Y-83915863D02*
G01*
X151756200Y-83991370D01*
X151906388Y-84100488D01*
X152030607Y-84238448D01*
X152123428Y-84399219D01*
X152180795Y-84575775D01*
X152200200Y-84760401D01*
X152180795Y-84945027D01*
X152123428Y-85121583D01*
X152030607Y-85282354D01*
X151906388Y-85420314D01*
X151756200Y-85529432D01*
X151586607Y-85604939D01*
X151405021Y-85643536D01*
X151219379Y-85643536D01*
X151037793Y-85604939D01*
X150868200Y-85529432D01*
X150718012Y-85420314D01*
X150593793Y-85282354D01*
X150500972Y-85121583D01*
X150443605Y-84945027D01*
X150424200Y-84760401D01*
X150443605Y-84575775D01*
X150500972Y-84399219D01*
X150593793Y-84238448D01*
X150718012Y-84100488D01*
X150868200Y-83991370D01*
X151037793Y-83915863D01*
X151219379Y-83877266D01*
X151405021Y-83877266D01*
X151586607Y-83915863D01*
G37*
G36*
X154126607Y-83915863D02*
G01*
X154296200Y-83991370D01*
X154446388Y-84100488D01*
X154570607Y-84238448D01*
X154663428Y-84399219D01*
X154720795Y-84575775D01*
X154740200Y-84760401D01*
X154720795Y-84945027D01*
X154663428Y-85121583D01*
X154570607Y-85282354D01*
X154446388Y-85420314D01*
X154296200Y-85529432D01*
X154126607Y-85604939D01*
X153945021Y-85643536D01*
X153759379Y-85643536D01*
X153577793Y-85604939D01*
X153408200Y-85529432D01*
X153258012Y-85420314D01*
X153133793Y-85282354D01*
X153040972Y-85121583D01*
X152983605Y-84945027D01*
X152964200Y-84760401D01*
X152983605Y-84575775D01*
X153040972Y-84399219D01*
X153133793Y-84238448D01*
X153258012Y-84100488D01*
X153408200Y-83991370D01*
X153577793Y-83915863D01*
X153759379Y-83877266D01*
X153945021Y-83877266D01*
X154126607Y-83915863D01*
G37*
G36*
X156666607Y-83915863D02*
G01*
X156836200Y-83991370D01*
X156986388Y-84100488D01*
X157110607Y-84238448D01*
X157203428Y-84399219D01*
X157260795Y-84575775D01*
X157280200Y-84760401D01*
X157260795Y-84945027D01*
X157203428Y-85121583D01*
X157110607Y-85282354D01*
X156986388Y-85420314D01*
X156836200Y-85529432D01*
X156666607Y-85604939D01*
X156485021Y-85643536D01*
X156299379Y-85643536D01*
X156117793Y-85604939D01*
X155948200Y-85529432D01*
X155798012Y-85420314D01*
X155673793Y-85282354D01*
X155580972Y-85121583D01*
X155523605Y-84945027D01*
X155504200Y-84760401D01*
X155523605Y-84575775D01*
X155580972Y-84399219D01*
X155673793Y-84238448D01*
X155798012Y-84100488D01*
X155948200Y-83991370D01*
X156117793Y-83915863D01*
X156299379Y-83877266D01*
X156485021Y-83877266D01*
X156666607Y-83915863D01*
G37*
G36*
X159206607Y-83915863D02*
G01*
X159376200Y-83991370D01*
X159526388Y-84100488D01*
X159650607Y-84238448D01*
X159743428Y-84399219D01*
X159800795Y-84575775D01*
X159820200Y-84760401D01*
X159800795Y-84945027D01*
X159743428Y-85121583D01*
X159650607Y-85282354D01*
X159526388Y-85420314D01*
X159376200Y-85529432D01*
X159206607Y-85604939D01*
X159025021Y-85643536D01*
X158839379Y-85643536D01*
X158657793Y-85604939D01*
X158488200Y-85529432D01*
X158338012Y-85420314D01*
X158213793Y-85282354D01*
X158120972Y-85121583D01*
X158063605Y-84945027D01*
X158044200Y-84760401D01*
X158063605Y-84575775D01*
X158120972Y-84399219D01*
X158213793Y-84238448D01*
X158338012Y-84100488D01*
X158488200Y-83991370D01*
X158657793Y-83915863D01*
X158839379Y-83877266D01*
X159025021Y-83877266D01*
X159206607Y-83915863D01*
G37*
G36*
X161746607Y-83915863D02*
G01*
X161916200Y-83991370D01*
X162066388Y-84100488D01*
X162190607Y-84238448D01*
X162283428Y-84399219D01*
X162340795Y-84575775D01*
X162360200Y-84760401D01*
X162340795Y-84945027D01*
X162283428Y-85121583D01*
X162190607Y-85282354D01*
X162066388Y-85420314D01*
X161916200Y-85529432D01*
X161746607Y-85604939D01*
X161565021Y-85643536D01*
X161379379Y-85643536D01*
X161197793Y-85604939D01*
X161028200Y-85529432D01*
X160878012Y-85420314D01*
X160753793Y-85282354D01*
X160660972Y-85121583D01*
X160603605Y-84945027D01*
X160584200Y-84760401D01*
X160603605Y-84575775D01*
X160660972Y-84399219D01*
X160753793Y-84238448D01*
X160878012Y-84100488D01*
X161028200Y-83991370D01*
X161197793Y-83915863D01*
X161379379Y-83877266D01*
X161565021Y-83877266D01*
X161746607Y-83915863D01*
G37*
G36*
X164286607Y-83915863D02*
G01*
X164456200Y-83991370D01*
X164606388Y-84100488D01*
X164730607Y-84238448D01*
X164823428Y-84399219D01*
X164880795Y-84575775D01*
X164900200Y-84760401D01*
X164880795Y-84945027D01*
X164823428Y-85121583D01*
X164730607Y-85282354D01*
X164606388Y-85420314D01*
X164456200Y-85529432D01*
X164286607Y-85604939D01*
X164105021Y-85643536D01*
X163919379Y-85643536D01*
X163737793Y-85604939D01*
X163568200Y-85529432D01*
X163418012Y-85420314D01*
X163293793Y-85282354D01*
X163200972Y-85121583D01*
X163143605Y-84945027D01*
X163124200Y-84760401D01*
X163143605Y-84575775D01*
X163200972Y-84399219D01*
X163293793Y-84238448D01*
X163418012Y-84100488D01*
X163568200Y-83991370D01*
X163737793Y-83915863D01*
X163919379Y-83877266D01*
X164105021Y-83877266D01*
X164286607Y-83915863D01*
G37*
G36*
X166826607Y-83915863D02*
G01*
X166996200Y-83991370D01*
X167146388Y-84100488D01*
X167270607Y-84238448D01*
X167363428Y-84399219D01*
X167420795Y-84575775D01*
X167440200Y-84760401D01*
X167420795Y-84945027D01*
X167363428Y-85121583D01*
X167270607Y-85282354D01*
X167146388Y-85420314D01*
X166996200Y-85529432D01*
X166826607Y-85604939D01*
X166645021Y-85643536D01*
X166459379Y-85643536D01*
X166277793Y-85604939D01*
X166108200Y-85529432D01*
X165958012Y-85420314D01*
X165833793Y-85282354D01*
X165740972Y-85121583D01*
X165683605Y-84945027D01*
X165664200Y-84760401D01*
X165683605Y-84575775D01*
X165740972Y-84399219D01*
X165833793Y-84238448D01*
X165958012Y-84100488D01*
X166108200Y-83991370D01*
X166277793Y-83915863D01*
X166459379Y-83877266D01*
X166645021Y-83877266D01*
X166826607Y-83915863D01*
G37*
G36*
X105492814Y-77205116D02*
G01*
X105813948Y-77281226D01*
X106124074Y-77394103D01*
X106419000Y-77542220D01*
X106694736Y-77723574D01*
X106947554Y-77935714D01*
X107174034Y-78175769D01*
X107371114Y-78440494D01*
X107536129Y-78726308D01*
X107666848Y-79029347D01*
X107761501Y-79345512D01*
X107818810Y-79670528D01*
X107838000Y-80000000D01*
X107818810Y-80329472D01*
X107761501Y-80654488D01*
X107666848Y-80970653D01*
X107536129Y-81273692D01*
X107371114Y-81559506D01*
X107174034Y-81824231D01*
X106947554Y-82064286D01*
X106694736Y-82276426D01*
X106419000Y-82457780D01*
X106124074Y-82605897D01*
X105813948Y-82718774D01*
X105492814Y-82794884D01*
X105165015Y-82833199D01*
X104834985Y-82833199D01*
X104507186Y-82794884D01*
X104186052Y-82718774D01*
X103875926Y-82605897D01*
X103581000Y-82457780D01*
X103305264Y-82276426D01*
X103052446Y-82064286D01*
X102825966Y-81824231D01*
X102628886Y-81559506D01*
X102463871Y-81273692D01*
X102333152Y-80970653D01*
X102238499Y-80654488D01*
X102181190Y-80329472D01*
X102162000Y-80000000D01*
X102181190Y-79670528D01*
X102238499Y-79345512D01*
X102333152Y-79029347D01*
X102463871Y-78726308D01*
X102628886Y-78440494D01*
X102825966Y-78175769D01*
X103052446Y-77935714D01*
X103305264Y-77723574D01*
X103581000Y-77542220D01*
X103875926Y-77394103D01*
X104186052Y-77281226D01*
X104507186Y-77205116D01*
X104834985Y-77166801D01*
X105165015Y-77166801D01*
X105492814Y-77205116D01*
G37*
G36*
X195492814Y-77205116D02*
G01*
X195813948Y-77281226D01*
X196124074Y-77394103D01*
X196419000Y-77542220D01*
X196694736Y-77723574D01*
X196947554Y-77935714D01*
X197174034Y-78175769D01*
X197371114Y-78440494D01*
X197536129Y-78726308D01*
X197666848Y-79029347D01*
X197761501Y-79345512D01*
X197818810Y-79670528D01*
X197838000Y-80000000D01*
X197818810Y-80329472D01*
X197761501Y-80654488D01*
X197666848Y-80970653D01*
X197536129Y-81273692D01*
X197371114Y-81559506D01*
X197174034Y-81824231D01*
X196947554Y-82064286D01*
X196694736Y-82276426D01*
X196419000Y-82457780D01*
X196124074Y-82605897D01*
X195813948Y-82718774D01*
X195492814Y-82794884D01*
X195165015Y-82833199D01*
X194834985Y-82833199D01*
X194507186Y-82794884D01*
X194186052Y-82718774D01*
X193875926Y-82605897D01*
X193581000Y-82457780D01*
X193305264Y-82276426D01*
X193052446Y-82064286D01*
X192825966Y-81824231D01*
X192628886Y-81559506D01*
X192463871Y-81273692D01*
X192333152Y-80970653D01*
X192238499Y-80654488D01*
X192181190Y-80329472D01*
X192162000Y-80000000D01*
X192181190Y-79670528D01*
X192238499Y-79345512D01*
X192333152Y-79029347D01*
X192463871Y-78726308D01*
X192628886Y-78440494D01*
X192825966Y-78175769D01*
X193052446Y-77935714D01*
X193305264Y-77723574D01*
X193581000Y-77542220D01*
X193875926Y-77394103D01*
X194186052Y-77281226D01*
X194507186Y-77205116D01*
X194834985Y-77166801D01*
X195165015Y-77166801D01*
X195492814Y-77205116D01*
G37*
G36*
X174094542Y-78820294D02*
G01*
X174106870Y-78828531D01*
X174115107Y-78840859D01*
X174118000Y-78855401D01*
X174118000Y-80555401D01*
X174115107Y-80569943D01*
X174106870Y-80582271D01*
X174094542Y-80590508D01*
X174080000Y-80593401D01*
X172380000Y-80593401D01*
X172365458Y-80590508D01*
X172353130Y-80582271D01*
X172344893Y-80569943D01*
X172342000Y-80555401D01*
X172342000Y-78855401D01*
X172344893Y-78840859D01*
X172353130Y-78828531D01*
X172365458Y-78820294D01*
X172380000Y-78817401D01*
X174080000Y-78817401D01*
X174094542Y-78820294D01*
G37*
G36*
X176044407Y-78860863D02*
G01*
X176214000Y-78936370D01*
X176364188Y-79045488D01*
X176488407Y-79183448D01*
X176581228Y-79344219D01*
X176638595Y-79520775D01*
X176658000Y-79705401D01*
X176638595Y-79890027D01*
X176581228Y-80066583D01*
X176488407Y-80227354D01*
X176364188Y-80365314D01*
X176214000Y-80474432D01*
X176044407Y-80549939D01*
X175862821Y-80588536D01*
X175677179Y-80588536D01*
X175495593Y-80549939D01*
X175326000Y-80474432D01*
X175175812Y-80365314D01*
X175051593Y-80227354D01*
X174958772Y-80066583D01*
X174901405Y-79890027D01*
X174882000Y-79705401D01*
X174901405Y-79520775D01*
X174958772Y-79344219D01*
X175051593Y-79183448D01*
X175175812Y-79045488D01*
X175326000Y-78936370D01*
X175495593Y-78860863D01*
X175677179Y-78822266D01*
X175862821Y-78822266D01*
X176044407Y-78860863D01*
G37*
G36*
X178584407Y-78860863D02*
G01*
X178754000Y-78936370D01*
X178904188Y-79045488D01*
X179028407Y-79183448D01*
X179121228Y-79344219D01*
X179178595Y-79520775D01*
X179198000Y-79705401D01*
X179178595Y-79890027D01*
X179121228Y-80066583D01*
X179028407Y-80227354D01*
X178904188Y-80365314D01*
X178754000Y-80474432D01*
X178584407Y-80549939D01*
X178402821Y-80588536D01*
X178217179Y-80588536D01*
X178035593Y-80549939D01*
X177866000Y-80474432D01*
X177715812Y-80365314D01*
X177591593Y-80227354D01*
X177498772Y-80066583D01*
X177441405Y-79890027D01*
X177422000Y-79705401D01*
X177441405Y-79520775D01*
X177498772Y-79344219D01*
X177591593Y-79183448D01*
X177715812Y-79045488D01*
X177866000Y-78936370D01*
X178035593Y-78860863D01*
X178217179Y-78822266D01*
X178402821Y-78822266D01*
X178584407Y-78860863D01*
G37*
G36*
X181124407Y-78860863D02*
G01*
X181294000Y-78936370D01*
X181444188Y-79045488D01*
X181568407Y-79183448D01*
X181661228Y-79344219D01*
X181718595Y-79520775D01*
X181738000Y-79705401D01*
X181718595Y-79890027D01*
X181661228Y-80066583D01*
X181568407Y-80227354D01*
X181444188Y-80365314D01*
X181294000Y-80474432D01*
X181124407Y-80549939D01*
X180942821Y-80588536D01*
X180757179Y-80588536D01*
X180575593Y-80549939D01*
X180406000Y-80474432D01*
X180255812Y-80365314D01*
X180131593Y-80227354D01*
X180038772Y-80066583D01*
X179981405Y-79890027D01*
X179962000Y-79705401D01*
X179981405Y-79520775D01*
X180038772Y-79344219D01*
X180131593Y-79183448D01*
X180255812Y-79045488D01*
X180406000Y-78936370D01*
X180575593Y-78860863D01*
X180757179Y-78822266D01*
X180942821Y-78822266D01*
X181124407Y-78860863D01*
G37*
G36*
X183664407Y-78860863D02*
G01*
X183834000Y-78936370D01*
X183984188Y-79045488D01*
X184108407Y-79183448D01*
X184201228Y-79344219D01*
X184258595Y-79520775D01*
X184278000Y-79705401D01*
X184258595Y-79890027D01*
X184201228Y-80066583D01*
X184108407Y-80227354D01*
X183984188Y-80365314D01*
X183834000Y-80474432D01*
X183664407Y-80549939D01*
X183482821Y-80588536D01*
X183297179Y-80588536D01*
X183115593Y-80549939D01*
X182946000Y-80474432D01*
X182795812Y-80365314D01*
X182671593Y-80227354D01*
X182578772Y-80066583D01*
X182521405Y-79890027D01*
X182502000Y-79705401D01*
X182521405Y-79520775D01*
X182578772Y-79344219D01*
X182671593Y-79183448D01*
X182795812Y-79045488D01*
X182946000Y-78936370D01*
X183115593Y-78860863D01*
X183297179Y-78822266D01*
X183482821Y-78822266D01*
X183664407Y-78860863D01*
G37*
G36*
X186204407Y-78860863D02*
G01*
X186374000Y-78936370D01*
X186524188Y-79045488D01*
X186648407Y-79183448D01*
X186741228Y-79344219D01*
X186798595Y-79520775D01*
X186818000Y-79705401D01*
X186798595Y-79890027D01*
X186741228Y-80066583D01*
X186648407Y-80227354D01*
X186524188Y-80365314D01*
X186374000Y-80474432D01*
X186204407Y-80549939D01*
X186022821Y-80588536D01*
X185837179Y-80588536D01*
X185655593Y-80549939D01*
X185486000Y-80474432D01*
X185335812Y-80365314D01*
X185211593Y-80227354D01*
X185118772Y-80066583D01*
X185061405Y-79890027D01*
X185042000Y-79705401D01*
X185061405Y-79520775D01*
X185118772Y-79344219D01*
X185211593Y-79183448D01*
X185335812Y-79045488D01*
X185486000Y-78936370D01*
X185655593Y-78860863D01*
X185837179Y-78822266D01*
X186022821Y-78822266D01*
X186204407Y-78860863D01*
G37*
M02*
