M48
; DRILL file {KiCad 7.0.5} date Thu 29 Jun 2023 11:29:48 PM
; FORMAT={-:-/ absolute / metric / decimal}
; #@! TF.CreationDate,2023-06-29T23:29:48-06:00
; #@! TF.GenerationSoftware,Kicad,Pcbnew,7.0.5
; #@! TF.FileFunction,Plated,1,2,PTH
FMAT,2
METRIC
; #@! TA.AperFunction,Plated,PTH,ComponentDrill
T1C0.950
; #@! TA.AperFunction,Plated,PTH,ComponentDrill
T2C1.000
; #@! TA.AperFunction,Plated,PTH,ComponentDrill
T3C3.200
%
G90
G05
T1
X105.0Y-88.75
X105.0Y-91.25
X105.0Y-93.75
X105.0Y-96.25
X105.0Y-103.75
X105.0Y-106.25
X105.0Y-108.75
X105.0Y-111.25
T2
X112.135Y-84.76
X114.675Y-84.76
X118.292Y-84.76
X118.292Y-89.84
X118.292Y-110.16
X118.292Y-115.24
X120.832Y-84.76
X120.832Y-89.84
X120.832Y-110.16
X120.832Y-115.24
X123.372Y-84.76
X123.372Y-89.84
X123.372Y-110.16
X123.372Y-115.24
X125.912Y-84.76
X125.912Y-89.84
X125.912Y-110.16
X125.912Y-115.24
X128.452Y-84.76
X128.452Y-89.84
X128.452Y-110.16
X128.452Y-115.24
X130.992Y-84.76
X130.992Y-89.84
X130.992Y-110.16
X130.992Y-115.24
X133.532Y-84.76
X133.532Y-89.84
X133.532Y-110.16
X133.532Y-115.24
X136.072Y-84.76
X136.072Y-89.84
X136.072Y-110.16
X136.072Y-115.24
X138.612Y-84.76
X138.612Y-89.84
X138.612Y-110.16
X138.612Y-115.24
X141.152Y-84.76
X141.152Y-89.84
X141.152Y-110.16
X141.152Y-115.24
X143.692Y-84.76
X143.692Y-89.84
X143.692Y-110.16
X143.692Y-115.24
X146.232Y-84.76
X146.232Y-89.84
X146.232Y-110.16
X146.232Y-115.24
X148.772Y-84.76
X148.772Y-89.84
X148.772Y-110.16
X148.772Y-115.24
X151.312Y-84.76
X151.312Y-89.84
X151.312Y-110.16
X151.312Y-115.24
X153.852Y-84.76
X153.852Y-89.84
X153.852Y-110.16
X153.852Y-115.24
X156.392Y-84.76
X156.392Y-89.84
X156.392Y-110.16
X156.392Y-115.24
X158.932Y-84.76
X158.932Y-89.84
X158.932Y-110.16
X158.932Y-115.24
X161.472Y-84.76
X161.472Y-89.84
X161.472Y-110.16
X161.472Y-115.24
X164.012Y-84.76
X164.012Y-89.84
X164.012Y-110.16
X164.012Y-115.24
X166.552Y-84.76
X166.552Y-89.84
X166.552Y-110.16
X166.552Y-115.24
X173.23Y-79.705
X173.23Y-87.325
X173.23Y-112.725
X173.23Y-120.23
X175.77Y-79.705
X175.77Y-87.325
X175.77Y-112.725
X175.77Y-120.23
X178.31Y-79.705
X178.31Y-87.325
X178.31Y-112.725
X178.31Y-120.23
X180.85Y-79.705
X180.85Y-87.325
X180.85Y-112.725
X180.85Y-120.23
X183.39Y-79.705
X183.39Y-87.325
X183.39Y-112.725
X183.39Y-120.23
X185.57Y-93.635
X185.57Y-96.175
X185.57Y-101.285
X185.57Y-103.825
X185.93Y-79.705
X185.93Y-87.325
X185.93Y-112.725
X185.93Y-120.23
X190.65Y-93.635
X190.65Y-96.175
X190.65Y-101.285
X190.65Y-103.825
T3
X105.0Y-80.0
X105.0Y-120.0
X195.0Y-80.0
X195.0Y-120.0
T0
M30
