G04 EAGLE Gerber X2 export*
%TF.Part,Single*%
%TF.FileFunction,Copper,L1,Top,Mixed*%
%TF.FilePolarity,Positive*%
%TF.GenerationSoftware,Autodesk,EAGLE,9.1.3*%
%TF.CreationDate,2018-11-23T23:54:25Z*%
G75*
%MOMM*%
%FSLAX34Y34*%
%LPD*%
%AMOC8*
5,1,8,0,0,1.08239X$1,22.5*%
G01*
%ADD10R,1.300000X1.500000*%
%ADD11R,1.500000X1.300000*%
%ADD12R,1.700000X0.600000*%
%ADD13R,2.700000X1.000000*%
%ADD14R,1.200000X1.200000*%
%ADD15P,6.983147X8X202.500000*%
%ADD16R,0.900000X1.000000*%
%ADD17R,1.524000X1.524000*%
%ADD18C,1.524000*%
%ADD19R,1.350000X4.600000*%
%ADD20R,10.800000X9.400000*%
%ADD21R,1.000000X1.400000*%
%ADD22R,6.350000X6.350000*%
%ADD23C,6.350000*%
%ADD24R,1.500000X0.600000*%
%ADD25R,0.200000X1.000000*%
%ADD26R,1.000000X0.200000*%
%ADD27R,20.000000X5.000000*%
%ADD28C,0.150000*%
%ADD29R,30.000000X2.000000*%
%ADD30R,1.270000X0.635000*%
%ADD31P,1.649562X8X112.500000*%
%ADD32C,0.254000*%
%ADD33C,0.756400*%
%ADD34C,0.406400*%
%ADD35C,0.152400*%
%ADD36C,0.304800*%
%ADD37C,0.203200*%

G36*
X795093Y107955D02*
X795093Y107955D01*
X795166Y107953D01*
X795411Y107975D01*
X795656Y107991D01*
X795727Y108004D01*
X795800Y108011D01*
X796040Y108064D01*
X796282Y108110D01*
X796351Y108133D01*
X796422Y108148D01*
X796653Y108231D01*
X796888Y108307D01*
X796954Y108338D01*
X797023Y108362D01*
X797242Y108473D01*
X797464Y108578D01*
X797526Y108617D01*
X797591Y108650D01*
X797795Y108787D01*
X798003Y108919D01*
X798059Y108965D01*
X798119Y109006D01*
X798293Y109159D01*
X798494Y109324D01*
X798551Y109385D01*
X798612Y109438D01*
X885092Y195918D01*
X885140Y195973D01*
X885193Y196023D01*
X885351Y196212D01*
X885513Y196396D01*
X885554Y196457D01*
X885601Y196513D01*
X885733Y196720D01*
X885871Y196923D01*
X885904Y196988D01*
X885944Y197050D01*
X886049Y197272D01*
X886161Y197491D01*
X886185Y197559D01*
X886217Y197625D01*
X886293Y197859D01*
X886377Y198090D01*
X886393Y198161D01*
X886416Y198231D01*
X886462Y198472D01*
X886516Y198712D01*
X886523Y198785D01*
X886537Y198856D01*
X886552Y199087D01*
X886577Y199346D01*
X886574Y199430D01*
X886579Y199510D01*
X886579Y548520D01*
X886575Y548593D01*
X886577Y548666D01*
X886555Y548911D01*
X886539Y549156D01*
X886526Y549227D01*
X886519Y549300D01*
X886466Y549540D01*
X886420Y549782D01*
X886397Y549851D01*
X886382Y549922D01*
X886299Y550153D01*
X886223Y550388D01*
X886192Y550454D01*
X886168Y550523D01*
X886057Y550742D01*
X885952Y550964D01*
X885913Y551026D01*
X885880Y551091D01*
X885743Y551295D01*
X885611Y551503D01*
X885565Y551559D01*
X885524Y551619D01*
X885371Y551793D01*
X885206Y551994D01*
X885145Y552051D01*
X885092Y552112D01*
X864652Y572552D01*
X864597Y572600D01*
X864547Y572653D01*
X864358Y572811D01*
X864174Y572973D01*
X864113Y573014D01*
X864057Y573061D01*
X863850Y573193D01*
X863647Y573331D01*
X863582Y573364D01*
X863520Y573404D01*
X863298Y573509D01*
X863079Y573621D01*
X863011Y573645D01*
X862945Y573677D01*
X862710Y573754D01*
X862480Y573837D01*
X862409Y573853D01*
X862339Y573876D01*
X862098Y573922D01*
X861858Y573976D01*
X861786Y573983D01*
X861714Y573997D01*
X861483Y574012D01*
X861224Y574037D01*
X861140Y574034D01*
X861060Y574039D01*
X755650Y574039D01*
X755577Y574035D01*
X755504Y574037D01*
X755259Y574015D01*
X755014Y573999D01*
X754943Y573986D01*
X754870Y573979D01*
X754630Y573926D01*
X754388Y573880D01*
X754319Y573857D01*
X754248Y573842D01*
X754017Y573759D01*
X753782Y573683D01*
X753716Y573652D01*
X753647Y573628D01*
X753428Y573517D01*
X753206Y573412D01*
X753144Y573373D01*
X753079Y573340D01*
X752875Y573203D01*
X752667Y573071D01*
X752611Y573025D01*
X752551Y572984D01*
X752377Y572831D01*
X752176Y572666D01*
X752119Y572605D01*
X752058Y572552D01*
X751220Y571714D01*
X751172Y571659D01*
X751119Y571609D01*
X750961Y571420D01*
X750799Y571236D01*
X750758Y571175D01*
X750711Y571119D01*
X750579Y570912D01*
X750441Y570709D01*
X750408Y570644D01*
X750368Y570582D01*
X750263Y570360D01*
X750151Y570141D01*
X750127Y570073D01*
X750095Y570007D01*
X750018Y569772D01*
X749935Y569542D01*
X749919Y569471D01*
X749896Y569401D01*
X749850Y569160D01*
X749796Y568920D01*
X749789Y568847D01*
X749775Y568776D01*
X749760Y568545D01*
X749735Y568286D01*
X749738Y568202D01*
X749733Y568122D01*
X749733Y558396D01*
X749423Y557649D01*
X748851Y557077D01*
X748104Y556767D01*
X547296Y556767D01*
X546549Y557077D01*
X545977Y557648D01*
X545699Y558319D01*
X545685Y558347D01*
X545674Y558378D01*
X545545Y558633D01*
X545419Y558891D01*
X545401Y558918D01*
X545387Y558946D01*
X545227Y559183D01*
X545069Y559423D01*
X545048Y559448D01*
X545031Y559474D01*
X544866Y559662D01*
X544656Y559908D01*
X544625Y559936D01*
X544598Y559967D01*
X542173Y562392D01*
X542118Y562440D01*
X542068Y562493D01*
X541879Y562651D01*
X541695Y562813D01*
X541635Y562854D01*
X541579Y562901D01*
X541371Y563033D01*
X541168Y563171D01*
X541103Y563204D01*
X541042Y563244D01*
X540820Y563349D01*
X540601Y563461D01*
X540532Y563485D01*
X540466Y563517D01*
X540232Y563593D01*
X540001Y563677D01*
X539930Y563693D01*
X539861Y563716D01*
X539620Y563762D01*
X539380Y563816D01*
X539307Y563823D01*
X539235Y563837D01*
X539004Y563852D01*
X538745Y563877D01*
X538662Y563874D01*
X538581Y563879D01*
X538044Y563879D01*
X531912Y570012D01*
X531857Y570060D01*
X531807Y570113D01*
X531618Y570271D01*
X531434Y570433D01*
X531373Y570474D01*
X531317Y570521D01*
X531110Y570653D01*
X530907Y570791D01*
X530842Y570824D01*
X530780Y570864D01*
X530558Y570969D01*
X530339Y571081D01*
X530271Y571105D01*
X530205Y571137D01*
X529971Y571213D01*
X529740Y571297D01*
X529669Y571313D01*
X529599Y571336D01*
X529358Y571382D01*
X529118Y571436D01*
X529046Y571443D01*
X528974Y571457D01*
X528743Y571472D01*
X528484Y571497D01*
X528400Y571494D01*
X528320Y571499D01*
X483870Y571499D01*
X483797Y571495D01*
X483724Y571497D01*
X483479Y571475D01*
X483234Y571459D01*
X483163Y571446D01*
X483090Y571439D01*
X482850Y571386D01*
X482608Y571340D01*
X482539Y571317D01*
X482468Y571302D01*
X482237Y571219D01*
X482002Y571143D01*
X481936Y571112D01*
X481867Y571088D01*
X481648Y570977D01*
X481426Y570872D01*
X481364Y570833D01*
X481299Y570800D01*
X481095Y570663D01*
X480887Y570531D01*
X480831Y570485D01*
X480771Y570444D01*
X480597Y570291D01*
X480396Y570126D01*
X480339Y570065D01*
X480278Y570012D01*
X433288Y523022D01*
X433240Y522967D01*
X433187Y522917D01*
X433029Y522728D01*
X432867Y522544D01*
X432826Y522483D01*
X432779Y522427D01*
X432647Y522220D01*
X432509Y522017D01*
X432476Y521952D01*
X432436Y521890D01*
X432331Y521668D01*
X432219Y521449D01*
X432195Y521381D01*
X432163Y521315D01*
X432087Y521081D01*
X432003Y520850D01*
X431987Y520779D01*
X431965Y520709D01*
X431918Y520468D01*
X431864Y520228D01*
X431857Y520156D01*
X431843Y520084D01*
X431828Y519853D01*
X431819Y519758D01*
X431811Y519698D01*
X431811Y519676D01*
X431803Y519594D01*
X431806Y519510D01*
X431801Y519430D01*
X431801Y231140D01*
X431805Y231067D01*
X431803Y230994D01*
X431825Y230749D01*
X431841Y230504D01*
X431854Y230433D01*
X431861Y230360D01*
X431914Y230120D01*
X431960Y229878D01*
X431983Y229809D01*
X431998Y229738D01*
X432081Y229507D01*
X432157Y229272D01*
X432188Y229206D01*
X432212Y229137D01*
X432323Y228918D01*
X432428Y228696D01*
X432467Y228634D01*
X432500Y228569D01*
X432637Y228365D01*
X432769Y228157D01*
X432815Y228101D01*
X432856Y228041D01*
X433009Y227867D01*
X433174Y227666D01*
X433235Y227609D01*
X433288Y227548D01*
X551398Y109438D01*
X551453Y109390D01*
X551503Y109337D01*
X551692Y109179D01*
X551876Y109017D01*
X551937Y108976D01*
X551993Y108929D01*
X552200Y108797D01*
X552403Y108659D01*
X552468Y108626D01*
X552530Y108586D01*
X552752Y108481D01*
X552971Y108369D01*
X553039Y108345D01*
X553105Y108313D01*
X553339Y108237D01*
X553570Y108153D01*
X553641Y108137D01*
X553711Y108115D01*
X553952Y108068D01*
X554192Y108014D01*
X554265Y108007D01*
X554336Y107993D01*
X554567Y107978D01*
X554826Y107953D01*
X554910Y107956D01*
X554990Y107951D01*
X795020Y107951D01*
X795093Y107955D01*
G37*
G36*
X467416Y593093D02*
X467416Y593093D01*
X467448Y593091D01*
X467734Y593113D01*
X468020Y593131D01*
X468051Y593137D01*
X468083Y593139D01*
X468364Y593196D01*
X468646Y593250D01*
X468676Y593260D01*
X468707Y593266D01*
X468944Y593347D01*
X469252Y593447D01*
X469289Y593464D01*
X469328Y593477D01*
X472073Y594615D01*
X474387Y594615D01*
X477132Y593477D01*
X477163Y593467D01*
X477192Y593453D01*
X477465Y593364D01*
X477735Y593271D01*
X477767Y593264D01*
X477797Y593255D01*
X478079Y593200D01*
X478359Y593142D01*
X478391Y593139D01*
X478422Y593133D01*
X478673Y593117D01*
X478994Y593091D01*
X479036Y593093D01*
X479076Y593091D01*
X488906Y593091D01*
X489117Y593104D01*
X489329Y593108D01*
X489435Y593124D01*
X489542Y593131D01*
X489750Y593170D01*
X489959Y593201D01*
X490063Y593230D01*
X490168Y593250D01*
X490369Y593315D01*
X490573Y593372D01*
X490672Y593414D01*
X490774Y593447D01*
X490965Y593537D01*
X491161Y593619D01*
X491251Y593671D01*
X491350Y593718D01*
X491545Y593841D01*
X491728Y593947D01*
X492147Y594227D01*
X492609Y594418D01*
X493100Y594516D01*
X495183Y594516D01*
X495460Y594533D01*
X495737Y594546D01*
X495778Y594553D01*
X495818Y594556D01*
X496091Y594608D01*
X496365Y594655D01*
X496404Y594667D01*
X496444Y594675D01*
X496709Y594761D01*
X496974Y594842D01*
X497011Y594859D01*
X497050Y594872D01*
X497302Y594990D01*
X497555Y595104D01*
X497590Y595125D01*
X497627Y595143D01*
X497862Y595292D01*
X498098Y595436D01*
X498130Y595462D01*
X498165Y595484D01*
X498379Y595661D01*
X498596Y595834D01*
X498625Y595863D01*
X498656Y595889D01*
X498847Y596092D01*
X499040Y596291D01*
X499065Y596324D01*
X499093Y596353D01*
X499257Y596579D01*
X499423Y596800D01*
X499444Y596835D01*
X499468Y596868D01*
X499602Y597112D01*
X499740Y597353D01*
X499756Y597391D01*
X499776Y597426D01*
X499878Y597684D01*
X499985Y597941D01*
X499996Y597980D01*
X500011Y598019D01*
X500080Y598287D01*
X500154Y598555D01*
X500160Y598596D01*
X500170Y598635D01*
X500206Y598910D01*
X500245Y599186D01*
X500246Y599227D01*
X500251Y599267D01*
X500252Y599546D01*
X500257Y599823D01*
X500252Y599863D01*
X500252Y599905D01*
X500218Y600181D01*
X500188Y600456D01*
X500179Y600496D01*
X500174Y600537D01*
X500105Y600807D01*
X500041Y601076D01*
X500027Y601115D01*
X500017Y601154D01*
X499915Y601413D01*
X499817Y601673D01*
X499798Y601709D01*
X499783Y601747D01*
X499650Y601991D01*
X499521Y602237D01*
X499497Y602270D01*
X499478Y602306D01*
X499315Y602531D01*
X499156Y602759D01*
X499128Y602789D01*
X499104Y602823D01*
X498915Y603025D01*
X498729Y603231D01*
X498698Y603258D01*
X498670Y603288D01*
X498456Y603466D01*
X498245Y603647D01*
X498211Y603670D01*
X498180Y603696D01*
X497946Y603845D01*
X497714Y603998D01*
X497678Y604016D01*
X497643Y604039D01*
X497351Y604177D01*
X497126Y604288D01*
X496496Y604548D01*
X496080Y604827D01*
X495727Y605180D01*
X495448Y605597D01*
X495257Y606059D01*
X495159Y606550D01*
X495159Y611721D01*
X647700Y611721D01*
X800241Y611721D01*
X800241Y606550D01*
X800143Y606059D01*
X799952Y605597D01*
X799673Y605180D01*
X799320Y604827D01*
X798903Y604548D01*
X798441Y604357D01*
X797950Y604259D01*
X755910Y604259D01*
X755674Y604244D01*
X755437Y604237D01*
X755356Y604224D01*
X755274Y604219D01*
X755042Y604175D01*
X754808Y604138D01*
X754729Y604115D01*
X754648Y604100D01*
X754423Y604027D01*
X754196Y603961D01*
X754120Y603929D01*
X754042Y603903D01*
X753828Y603803D01*
X753610Y603709D01*
X753540Y603667D01*
X753466Y603632D01*
X753266Y603506D01*
X753062Y603385D01*
X752997Y603335D01*
X752927Y603291D01*
X752745Y603140D01*
X752557Y602996D01*
X752499Y602938D01*
X752436Y602886D01*
X752274Y602713D01*
X752106Y602546D01*
X752056Y602481D01*
X752000Y602422D01*
X751860Y602230D01*
X751715Y602043D01*
X751673Y601973D01*
X751625Y601907D01*
X751510Y601699D01*
X751389Y601496D01*
X751356Y601420D01*
X751317Y601349D01*
X751230Y601129D01*
X751135Y600911D01*
X751112Y600833D01*
X751082Y600756D01*
X751022Y600527D01*
X750956Y600300D01*
X750943Y600219D01*
X750922Y600140D01*
X750892Y599905D01*
X750855Y599671D01*
X750852Y599589D01*
X750841Y599508D01*
X750841Y599271D01*
X750833Y599034D01*
X750840Y598953D01*
X750840Y598870D01*
X750869Y598635D01*
X750891Y598400D01*
X750909Y598320D01*
X750919Y598238D01*
X750977Y598009D01*
X751028Y597777D01*
X751056Y597700D01*
X751076Y597621D01*
X751163Y597401D01*
X751242Y597177D01*
X751279Y597104D01*
X751309Y597028D01*
X751423Y596820D01*
X751530Y596609D01*
X751575Y596541D01*
X751615Y596469D01*
X751754Y596276D01*
X751886Y596081D01*
X751939Y596020D01*
X751988Y595952D01*
X752166Y595762D01*
X752318Y595588D01*
X753328Y594578D01*
X753383Y594530D01*
X753433Y594477D01*
X753622Y594320D01*
X753806Y594157D01*
X753867Y594116D01*
X753923Y594069D01*
X754130Y593937D01*
X754333Y593799D01*
X754398Y593766D01*
X754460Y593726D01*
X754682Y593621D01*
X754901Y593509D01*
X754969Y593485D01*
X755035Y593453D01*
X755269Y593377D01*
X755500Y593293D01*
X755571Y593277D01*
X755641Y593255D01*
X755882Y593208D01*
X756122Y593154D01*
X756194Y593147D01*
X756266Y593133D01*
X756498Y593118D01*
X756756Y593093D01*
X756840Y593096D01*
X756920Y593091D01*
X861060Y593091D01*
X861133Y593095D01*
X861206Y593093D01*
X861451Y593115D01*
X861696Y593131D01*
X861767Y593144D01*
X861840Y593151D01*
X862080Y593204D01*
X862322Y593250D01*
X862391Y593273D01*
X862462Y593288D01*
X862693Y593371D01*
X862928Y593447D01*
X862994Y593478D01*
X863063Y593502D01*
X863282Y593613D01*
X863504Y593718D01*
X863566Y593757D01*
X863631Y593790D01*
X863835Y593927D01*
X864043Y594059D01*
X864099Y594105D01*
X864159Y594146D01*
X864333Y594299D01*
X864534Y594464D01*
X864591Y594525D01*
X864652Y594578D01*
X885092Y615018D01*
X885140Y615073D01*
X885193Y615123D01*
X885351Y615312D01*
X885513Y615496D01*
X885554Y615557D01*
X885601Y615613D01*
X885733Y615820D01*
X885871Y616023D01*
X885904Y616088D01*
X885944Y616150D01*
X886049Y616372D01*
X886161Y616591D01*
X886185Y616659D01*
X886217Y616725D01*
X886293Y616959D01*
X886377Y617190D01*
X886393Y617261D01*
X886416Y617331D01*
X886462Y617572D01*
X886516Y617812D01*
X886523Y617885D01*
X886537Y617956D01*
X886552Y618187D01*
X886577Y618446D01*
X886574Y618530D01*
X886579Y618610D01*
X886579Y881260D01*
X886575Y881333D01*
X886577Y881406D01*
X886555Y881651D01*
X886539Y881896D01*
X886526Y881967D01*
X886519Y882040D01*
X886466Y882281D01*
X886420Y882522D01*
X886398Y882591D01*
X886382Y882662D01*
X886299Y882894D01*
X886223Y883128D01*
X886192Y883194D01*
X886168Y883263D01*
X886057Y883482D01*
X885952Y883704D01*
X885913Y883766D01*
X885880Y883831D01*
X885743Y884035D01*
X885611Y884243D01*
X885565Y884299D01*
X885524Y884359D01*
X885371Y884533D01*
X885206Y884734D01*
X885145Y884791D01*
X885092Y884852D01*
X871002Y898942D01*
X870947Y898990D01*
X870897Y899043D01*
X870708Y899201D01*
X870524Y899363D01*
X870463Y899404D01*
X870407Y899451D01*
X870200Y899583D01*
X869997Y899721D01*
X869932Y899754D01*
X869870Y899794D01*
X869648Y899899D01*
X869429Y900011D01*
X869361Y900035D01*
X869295Y900067D01*
X869060Y900144D01*
X868830Y900227D01*
X868759Y900243D01*
X868689Y900266D01*
X868448Y900312D01*
X868208Y900366D01*
X868136Y900373D01*
X868064Y900387D01*
X867833Y900402D01*
X867574Y900427D01*
X867490Y900424D01*
X867410Y900429D01*
X772820Y900429D01*
X772665Y900420D01*
X772510Y900420D01*
X772348Y900400D01*
X772184Y900389D01*
X772032Y900360D01*
X771878Y900341D01*
X771719Y900301D01*
X771558Y900270D01*
X771411Y900222D01*
X771261Y900184D01*
X771108Y900124D01*
X770952Y900073D01*
X770812Y900008D01*
X770668Y899951D01*
X770524Y899872D01*
X770376Y899802D01*
X770245Y899720D01*
X770109Y899645D01*
X769976Y899549D01*
X769837Y899461D01*
X769718Y899363D01*
X769592Y899272D01*
X769473Y899160D01*
X769346Y899056D01*
X769240Y898943D01*
X769127Y898837D01*
X769022Y898711D01*
X768910Y898592D01*
X768818Y898466D01*
X768719Y898347D01*
X768631Y898209D01*
X768535Y898077D01*
X768460Y897941D01*
X768376Y897810D01*
X768306Y897662D01*
X768227Y897519D01*
X768170Y897375D01*
X768103Y897235D01*
X768052Y897079D01*
X767992Y896926D01*
X767953Y896776D01*
X767904Y896629D01*
X767873Y896468D01*
X767832Y896310D01*
X767813Y896156D01*
X767783Y896004D01*
X767773Y895845D01*
X767751Y895678D01*
X767751Y895509D01*
X767741Y895350D01*
X767741Y858459D01*
X716280Y858459D01*
X716126Y858449D01*
X715971Y858450D01*
X715808Y858429D01*
X715644Y858419D01*
X715492Y858390D01*
X715338Y858371D01*
X715179Y858331D01*
X715018Y858300D01*
X714871Y858252D01*
X714721Y858214D01*
X714568Y858154D01*
X714412Y858103D01*
X714272Y858037D01*
X714128Y857981D01*
X713984Y857902D01*
X713836Y857832D01*
X713705Y857749D01*
X713569Y857675D01*
X713436Y857579D01*
X713298Y857491D01*
X713178Y857393D01*
X713053Y857302D01*
X712933Y857190D01*
X712806Y857086D01*
X712700Y856973D01*
X712587Y856867D01*
X712482Y856741D01*
X712370Y856621D01*
X712278Y856496D01*
X712179Y856377D01*
X712091Y856239D01*
X711995Y856106D01*
X711920Y855971D01*
X711836Y855840D01*
X711766Y855692D01*
X711687Y855548D01*
X711630Y855405D01*
X711563Y855265D01*
X711512Y855109D01*
X711452Y854956D01*
X711413Y854806D01*
X711365Y854659D01*
X711333Y854498D01*
X711292Y854340D01*
X711273Y854186D01*
X711243Y854034D01*
X711233Y853875D01*
X711211Y853708D01*
X711211Y853539D01*
X711201Y853380D01*
X711201Y848299D01*
X711199Y848299D01*
X711199Y853380D01*
X711189Y853534D01*
X711190Y853689D01*
X711169Y853852D01*
X711159Y854016D01*
X711130Y854168D01*
X711111Y854322D01*
X711071Y854481D01*
X711040Y854642D01*
X710992Y854789D01*
X710954Y854939D01*
X710894Y855092D01*
X710843Y855248D01*
X710777Y855388D01*
X710721Y855532D01*
X710642Y855676D01*
X710572Y855824D01*
X710489Y855955D01*
X710415Y856091D01*
X710319Y856224D01*
X710231Y856362D01*
X710133Y856482D01*
X710042Y856607D01*
X709930Y856727D01*
X709825Y856854D01*
X709713Y856960D01*
X709607Y857073D01*
X709481Y857178D01*
X709361Y857290D01*
X709236Y857382D01*
X709117Y857481D01*
X708979Y857569D01*
X708846Y857665D01*
X708711Y857740D01*
X708580Y857824D01*
X708432Y857894D01*
X708288Y857973D01*
X708145Y858030D01*
X708005Y858097D01*
X707849Y858148D01*
X707696Y858208D01*
X707546Y858247D01*
X707399Y858295D01*
X707238Y858327D01*
X707079Y858368D01*
X706926Y858387D01*
X706774Y858417D01*
X706615Y858427D01*
X706447Y858449D01*
X706279Y858449D01*
X706120Y858459D01*
X654659Y858459D01*
X654659Y894588D01*
X654650Y894743D01*
X654650Y894898D01*
X654630Y895060D01*
X654619Y895224D01*
X654590Y895376D01*
X654571Y895530D01*
X654531Y895689D01*
X654500Y895850D01*
X654452Y895997D01*
X654414Y896147D01*
X654354Y896300D01*
X654303Y896456D01*
X654238Y896596D01*
X654181Y896740D01*
X654102Y896884D01*
X654032Y897032D01*
X653950Y897163D01*
X653875Y897299D01*
X653779Y897432D01*
X653691Y897571D01*
X653593Y897690D01*
X653502Y897816D01*
X653390Y897935D01*
X653286Y898062D01*
X653173Y898168D01*
X653067Y898281D01*
X652941Y898386D01*
X652822Y898498D01*
X652696Y898590D01*
X652577Y898689D01*
X652439Y898777D01*
X652307Y898873D01*
X652171Y898948D01*
X652040Y899032D01*
X651892Y899102D01*
X651749Y899181D01*
X651605Y899238D01*
X651465Y899305D01*
X651309Y899356D01*
X651156Y899416D01*
X651006Y899455D01*
X650859Y899504D01*
X650698Y899535D01*
X650540Y899576D01*
X650386Y899595D01*
X650234Y899625D01*
X650075Y899635D01*
X649908Y899657D01*
X649739Y899657D01*
X649580Y899667D01*
X645820Y899667D01*
X645665Y899658D01*
X645510Y899658D01*
X645348Y899638D01*
X645184Y899627D01*
X645032Y899598D01*
X644878Y899579D01*
X644719Y899539D01*
X644558Y899508D01*
X644411Y899460D01*
X644261Y899422D01*
X644108Y899362D01*
X643952Y899311D01*
X643812Y899246D01*
X643668Y899189D01*
X643524Y899110D01*
X643376Y899040D01*
X643245Y898958D01*
X643109Y898883D01*
X642976Y898787D01*
X642837Y898699D01*
X642718Y898601D01*
X642592Y898510D01*
X642473Y898398D01*
X642346Y898294D01*
X642240Y898181D01*
X642127Y898075D01*
X642022Y897949D01*
X641910Y897830D01*
X641818Y897704D01*
X641719Y897585D01*
X641631Y897447D01*
X641535Y897315D01*
X641460Y897179D01*
X641376Y897048D01*
X641306Y896900D01*
X641227Y896757D01*
X641170Y896613D01*
X641103Y896473D01*
X641052Y896317D01*
X640992Y896164D01*
X640953Y896014D01*
X640904Y895867D01*
X640873Y895706D01*
X640832Y895548D01*
X640813Y895394D01*
X640783Y895242D01*
X640773Y895083D01*
X640751Y894916D01*
X640751Y894747D01*
X640741Y894588D01*
X640741Y858459D01*
X589280Y858459D01*
X589126Y858449D01*
X588971Y858450D01*
X588808Y858429D01*
X588644Y858419D01*
X588492Y858390D01*
X588338Y858371D01*
X588179Y858331D01*
X588018Y858300D01*
X587871Y858252D01*
X587721Y858214D01*
X587568Y858154D01*
X587412Y858103D01*
X587272Y858037D01*
X587128Y857981D01*
X586984Y857902D01*
X586836Y857832D01*
X586705Y857749D01*
X586569Y857675D01*
X586436Y857579D01*
X586298Y857491D01*
X586178Y857393D01*
X586053Y857302D01*
X585933Y857190D01*
X585806Y857086D01*
X585700Y856973D01*
X585587Y856867D01*
X585482Y856741D01*
X585370Y856621D01*
X585278Y856496D01*
X585179Y856377D01*
X585091Y856239D01*
X584995Y856106D01*
X584920Y855971D01*
X584836Y855840D01*
X584766Y855692D01*
X584687Y855548D01*
X584630Y855405D01*
X584563Y855265D01*
X584512Y855109D01*
X584452Y854956D01*
X584413Y854806D01*
X584365Y854659D01*
X584333Y854498D01*
X584292Y854340D01*
X584273Y854186D01*
X584243Y854034D01*
X584233Y853875D01*
X584211Y853708D01*
X584211Y853539D01*
X584201Y853380D01*
X584201Y848299D01*
X584199Y848299D01*
X584199Y853380D01*
X584189Y853534D01*
X584190Y853689D01*
X584169Y853852D01*
X584159Y854016D01*
X584130Y854168D01*
X584111Y854322D01*
X584071Y854481D01*
X584040Y854642D01*
X583992Y854789D01*
X583954Y854939D01*
X583894Y855092D01*
X583843Y855248D01*
X583777Y855388D01*
X583721Y855532D01*
X583642Y855676D01*
X583572Y855824D01*
X583489Y855955D01*
X583415Y856091D01*
X583319Y856224D01*
X583231Y856362D01*
X583133Y856482D01*
X583042Y856607D01*
X582930Y856727D01*
X582825Y856854D01*
X582713Y856960D01*
X582607Y857073D01*
X582481Y857178D01*
X582361Y857290D01*
X582236Y857382D01*
X582117Y857481D01*
X581979Y857569D01*
X581846Y857665D01*
X581711Y857740D01*
X581580Y857824D01*
X581432Y857894D01*
X581288Y857973D01*
X581145Y858030D01*
X581005Y858097D01*
X580849Y858148D01*
X580696Y858208D01*
X580546Y858247D01*
X580399Y858295D01*
X580238Y858327D01*
X580079Y858368D01*
X579926Y858387D01*
X579774Y858417D01*
X579615Y858427D01*
X579447Y858449D01*
X579279Y858449D01*
X579120Y858459D01*
X527659Y858459D01*
X527659Y894588D01*
X527650Y894743D01*
X527650Y894898D01*
X527630Y895060D01*
X527619Y895224D01*
X527590Y895376D01*
X527571Y895530D01*
X527531Y895689D01*
X527500Y895850D01*
X527452Y895997D01*
X527414Y896147D01*
X527354Y896300D01*
X527303Y896456D01*
X527238Y896596D01*
X527181Y896740D01*
X527102Y896884D01*
X527032Y897032D01*
X526950Y897163D01*
X526875Y897299D01*
X526779Y897432D01*
X526691Y897571D01*
X526593Y897690D01*
X526502Y897816D01*
X526390Y897935D01*
X526286Y898062D01*
X526173Y898168D01*
X526067Y898281D01*
X525941Y898386D01*
X525822Y898498D01*
X525696Y898590D01*
X525577Y898689D01*
X525439Y898777D01*
X525307Y898873D01*
X525171Y898948D01*
X525040Y899032D01*
X524892Y899102D01*
X524749Y899181D01*
X524605Y899238D01*
X524465Y899305D01*
X524309Y899356D01*
X524156Y899416D01*
X524006Y899455D01*
X523859Y899504D01*
X523698Y899535D01*
X523540Y899576D01*
X523386Y899595D01*
X523234Y899625D01*
X523075Y899635D01*
X522908Y899657D01*
X522739Y899657D01*
X522580Y899667D01*
X445008Y899667D01*
X444935Y899663D01*
X444862Y899665D01*
X444617Y899643D01*
X444372Y899627D01*
X444301Y899614D01*
X444228Y899607D01*
X443988Y899554D01*
X443746Y899508D01*
X443677Y899485D01*
X443606Y899470D01*
X443375Y899387D01*
X443140Y899311D01*
X443074Y899280D01*
X443005Y899256D01*
X442786Y899145D01*
X442564Y899040D01*
X442502Y899001D01*
X442437Y898968D01*
X442233Y898831D01*
X442025Y898699D01*
X441969Y898653D01*
X441909Y898612D01*
X441735Y898459D01*
X441534Y898294D01*
X441477Y898233D01*
X441416Y898180D01*
X423128Y879892D01*
X423080Y879837D01*
X423027Y879787D01*
X422869Y879598D01*
X422707Y879414D01*
X422666Y879353D01*
X422619Y879297D01*
X422487Y879090D01*
X422349Y878887D01*
X422316Y878822D01*
X422276Y878760D01*
X422171Y878538D01*
X422059Y878319D01*
X422035Y878251D01*
X422003Y878185D01*
X421927Y877951D01*
X421843Y877720D01*
X421827Y877649D01*
X421805Y877579D01*
X421758Y877338D01*
X421704Y877098D01*
X421697Y877026D01*
X421683Y876954D01*
X421668Y876723D01*
X421643Y876464D01*
X421646Y876380D01*
X421641Y876300D01*
X421641Y637540D01*
X421645Y637467D01*
X421643Y637394D01*
X421665Y637149D01*
X421681Y636904D01*
X421694Y636833D01*
X421701Y636760D01*
X421754Y636520D01*
X421800Y636278D01*
X421823Y636209D01*
X421838Y636138D01*
X421921Y635907D01*
X421997Y635672D01*
X422028Y635606D01*
X422052Y635537D01*
X422163Y635318D01*
X422268Y635096D01*
X422307Y635034D01*
X422340Y634969D01*
X422477Y634765D01*
X422609Y634557D01*
X422655Y634501D01*
X422696Y634441D01*
X422849Y634267D01*
X423014Y634066D01*
X423075Y634009D01*
X423128Y633948D01*
X462498Y594578D01*
X462553Y594530D01*
X462603Y594477D01*
X462792Y594319D01*
X462976Y594157D01*
X463037Y594116D01*
X463093Y594069D01*
X463300Y593937D01*
X463503Y593799D01*
X463568Y593766D01*
X463630Y593726D01*
X463852Y593621D01*
X464071Y593509D01*
X464139Y593485D01*
X464205Y593453D01*
X464439Y593377D01*
X464670Y593293D01*
X464741Y593277D01*
X464811Y593255D01*
X465052Y593208D01*
X465292Y593154D01*
X465365Y593147D01*
X465436Y593133D01*
X465667Y593118D01*
X465926Y593093D01*
X466010Y593096D01*
X466090Y593091D01*
X467384Y593091D01*
X467416Y593093D01*
G37*
G36*
X849794Y905525D02*
X849794Y905525D01*
X849958Y905532D01*
X850018Y905545D01*
X850079Y905551D01*
X850237Y905594D01*
X850398Y905630D01*
X850454Y905653D01*
X850513Y905669D01*
X850661Y905740D01*
X850813Y905803D01*
X850865Y905836D01*
X850920Y905863D01*
X851053Y905958D01*
X851191Y906048D01*
X851249Y906099D01*
X851286Y906125D01*
X851328Y906168D01*
X851426Y906254D01*
X885836Y940664D01*
X885941Y940791D01*
X886053Y940912D01*
X886085Y940963D01*
X886124Y941010D01*
X886206Y941153D01*
X886294Y941291D01*
X886318Y941348D01*
X886348Y941401D01*
X886403Y941556D01*
X886465Y941708D01*
X886478Y941768D01*
X886499Y941825D01*
X886525Y941987D01*
X886560Y942148D01*
X886565Y942225D01*
X886572Y942269D01*
X886571Y942330D01*
X886579Y942460D01*
X886579Y1041037D01*
X886569Y1041155D01*
X886568Y1041273D01*
X886549Y1041379D01*
X886539Y1041485D01*
X886508Y1041600D01*
X886487Y1041716D01*
X886449Y1041816D01*
X886421Y1041920D01*
X886370Y1042027D01*
X886328Y1042138D01*
X886273Y1042230D01*
X886227Y1042326D01*
X886159Y1042423D01*
X886098Y1042525D01*
X886028Y1042606D01*
X885965Y1042692D01*
X885880Y1042775D01*
X885803Y1042865D01*
X885719Y1042932D01*
X885643Y1043006D01*
X885544Y1043073D01*
X885452Y1043147D01*
X885358Y1043199D01*
X885270Y1043259D01*
X885161Y1043307D01*
X885057Y1043363D01*
X884956Y1043397D01*
X884858Y1043441D01*
X884742Y1043469D01*
X884630Y1043507D01*
X884524Y1043522D01*
X884420Y1043547D01*
X884302Y1043555D01*
X884185Y1043572D01*
X884078Y1043569D01*
X883971Y1043575D01*
X883853Y1043561D01*
X883735Y1043558D01*
X883630Y1043535D01*
X883524Y1043523D01*
X883410Y1043489D01*
X883294Y1043464D01*
X883195Y1043424D01*
X883093Y1043393D01*
X882987Y1043339D01*
X882877Y1043294D01*
X882787Y1043237D01*
X882691Y1043188D01*
X882597Y1043117D01*
X882497Y1043053D01*
X882418Y1042981D01*
X882333Y1042916D01*
X882252Y1042829D01*
X882165Y1042749D01*
X882100Y1042664D01*
X882028Y1042585D01*
X881964Y1042485D01*
X881892Y1042391D01*
X881843Y1042296D01*
X881786Y1042206D01*
X881741Y1042096D01*
X881687Y1041990D01*
X881639Y1041847D01*
X881615Y1041789D01*
X881607Y1041752D01*
X881587Y1041694D01*
X880435Y1037393D01*
X876135Y1029946D01*
X870054Y1023865D01*
X862607Y1019565D01*
X854300Y1017339D01*
X845700Y1017339D01*
X837393Y1019565D01*
X829946Y1023865D01*
X823865Y1029946D01*
X819565Y1037393D01*
X817339Y1045700D01*
X817339Y1054300D01*
X819565Y1062607D01*
X823865Y1070054D01*
X829946Y1076135D01*
X835744Y1079483D01*
X835755Y1079490D01*
X835767Y1079496D01*
X835939Y1079620D01*
X836113Y1079742D01*
X836122Y1079751D01*
X836133Y1079759D01*
X836281Y1079911D01*
X836430Y1080061D01*
X836437Y1080072D01*
X836446Y1080082D01*
X836566Y1080259D01*
X836685Y1080432D01*
X836691Y1080444D01*
X836698Y1080455D01*
X836784Y1080650D01*
X836871Y1080842D01*
X836874Y1080855D01*
X836880Y1080867D01*
X836929Y1081073D01*
X836982Y1081279D01*
X836983Y1081292D01*
X836986Y1081305D01*
X836998Y1081515D01*
X837013Y1081728D01*
X837012Y1081741D01*
X837013Y1081754D01*
X836988Y1081965D01*
X836965Y1082176D01*
X836962Y1082188D01*
X836960Y1082202D01*
X836898Y1082406D01*
X836839Y1082608D01*
X836833Y1082620D01*
X836829Y1082632D01*
X836732Y1082822D01*
X836638Y1083011D01*
X836630Y1083022D01*
X836624Y1083033D01*
X836496Y1083202D01*
X836370Y1083372D01*
X836360Y1083381D01*
X836352Y1083392D01*
X836196Y1083535D01*
X836041Y1083680D01*
X836030Y1083687D01*
X836020Y1083697D01*
X835841Y1083810D01*
X835664Y1083925D01*
X835651Y1083931D01*
X835640Y1083938D01*
X835443Y1084018D01*
X835249Y1084100D01*
X835236Y1084103D01*
X835223Y1084108D01*
X835015Y1084153D01*
X834809Y1084199D01*
X834796Y1084200D01*
X834783Y1084202D01*
X834471Y1084221D01*
X490216Y1083734D01*
X490184Y1083731D01*
X490151Y1083733D01*
X489959Y1083710D01*
X489768Y1083693D01*
X489736Y1083684D01*
X489704Y1083681D01*
X489519Y1083625D01*
X489334Y1083574D01*
X489304Y1083560D01*
X489273Y1083550D01*
X489101Y1083463D01*
X488927Y1083380D01*
X488901Y1083361D01*
X488871Y1083346D01*
X488718Y1083230D01*
X488562Y1083117D01*
X488539Y1083094D01*
X488513Y1083074D01*
X488382Y1082932D01*
X488248Y1082794D01*
X488230Y1082767D01*
X488208Y1082743D01*
X488104Y1082580D01*
X487997Y1082421D01*
X487983Y1082391D01*
X487966Y1082363D01*
X487893Y1082185D01*
X487815Y1082009D01*
X487807Y1081977D01*
X487795Y1081946D01*
X487754Y1081758D01*
X487709Y1081571D01*
X487707Y1081538D01*
X487700Y1081506D01*
X487681Y1081194D01*
X487681Y922020D01*
X487695Y921856D01*
X487702Y921692D01*
X487715Y921632D01*
X487721Y921572D01*
X487764Y921413D01*
X487800Y921252D01*
X487823Y921196D01*
X487839Y921137D01*
X487910Y920989D01*
X487973Y920837D01*
X488006Y920785D01*
X488033Y920731D01*
X488128Y920597D01*
X488218Y920459D01*
X488269Y920401D01*
X488295Y920364D01*
X488338Y920322D01*
X488424Y920224D01*
X501632Y907016D01*
X501759Y906911D01*
X501880Y906799D01*
X501931Y906767D01*
X501978Y906728D01*
X502121Y906646D01*
X502259Y906558D01*
X502316Y906534D01*
X502369Y906504D01*
X502524Y906449D01*
X502676Y906387D01*
X502736Y906374D01*
X502793Y906353D01*
X502955Y906327D01*
X503116Y906292D01*
X503193Y906287D01*
X503237Y906280D01*
X503298Y906281D01*
X503428Y906273D01*
X604386Y906273D01*
X604516Y906284D01*
X604646Y906286D01*
X604739Y906304D01*
X604835Y906313D01*
X604960Y906347D01*
X605088Y906372D01*
X605177Y906406D01*
X605269Y906431D01*
X605386Y906487D01*
X605508Y906534D01*
X605590Y906584D01*
X605676Y906625D01*
X605781Y906700D01*
X605893Y906768D01*
X605964Y906831D01*
X606042Y906887D01*
X606133Y906980D01*
X606230Y907066D01*
X606289Y907141D01*
X606356Y907209D01*
X606429Y907317D01*
X606509Y907419D01*
X606554Y907503D01*
X606608Y907582D01*
X606661Y907701D01*
X606722Y907816D01*
X606752Y907907D01*
X606790Y907994D01*
X606821Y908121D01*
X606861Y908244D01*
X606874Y908339D01*
X606897Y908432D01*
X606905Y908561D01*
X606923Y908690D01*
X606919Y908786D01*
X606925Y908881D01*
X606909Y909010D01*
X606904Y909140D01*
X606884Y909233D01*
X606872Y909328D01*
X606835Y909453D01*
X606807Y909580D01*
X606770Y909668D01*
X606742Y909759D01*
X606683Y909875D01*
X606633Y909995D01*
X606581Y910075D01*
X606538Y910161D01*
X606459Y910264D01*
X606389Y910373D01*
X606303Y910471D01*
X606297Y910478D01*
X606297Y912228D01*
X606294Y912263D01*
X606296Y912297D01*
X606274Y912486D01*
X606257Y912677D01*
X606248Y912710D01*
X606244Y912744D01*
X606189Y912927D01*
X606139Y913111D01*
X606124Y913142D01*
X606114Y913175D01*
X606027Y913346D01*
X605945Y913518D01*
X605925Y913546D01*
X605910Y913577D01*
X605794Y913729D01*
X605683Y913884D01*
X605658Y913908D01*
X605638Y913935D01*
X605498Y914064D01*
X605361Y914198D01*
X605332Y914217D01*
X605306Y914241D01*
X605145Y914343D01*
X604988Y914450D01*
X604956Y914464D01*
X604927Y914482D01*
X604750Y914555D01*
X604576Y914632D01*
X604542Y914640D01*
X604510Y914653D01*
X604323Y914693D01*
X604138Y914739D01*
X604104Y914741D01*
X604070Y914748D01*
X603758Y914767D01*
X602008Y914767D01*
X600817Y915958D01*
X600817Y963642D01*
X602008Y964833D01*
X617192Y964833D01*
X618383Y963642D01*
X618383Y915958D01*
X617165Y914741D01*
X617141Y914736D01*
X617045Y914727D01*
X616920Y914693D01*
X616792Y914668D01*
X616703Y914634D01*
X616611Y914609D01*
X616494Y914553D01*
X616372Y914506D01*
X616290Y914456D01*
X616204Y914415D01*
X616099Y914340D01*
X615987Y914272D01*
X615916Y914209D01*
X615838Y914153D01*
X615747Y914060D01*
X615650Y913974D01*
X615591Y913899D01*
X615524Y913831D01*
X615451Y913723D01*
X615371Y913621D01*
X615326Y913537D01*
X615272Y913458D01*
X615219Y913339D01*
X615158Y913224D01*
X615128Y913133D01*
X615090Y913046D01*
X615059Y912919D01*
X615019Y912796D01*
X615006Y912701D01*
X614983Y912608D01*
X614975Y912479D01*
X614957Y912350D01*
X614961Y912254D01*
X614955Y912159D01*
X614970Y912030D01*
X614976Y911900D01*
X614996Y911807D01*
X615008Y911712D01*
X615045Y911587D01*
X615073Y911460D01*
X615110Y911372D01*
X615138Y911281D01*
X615197Y911165D01*
X615247Y911045D01*
X615299Y910965D01*
X615342Y910879D01*
X615421Y910776D01*
X615491Y910667D01*
X615577Y910569D01*
X615614Y910521D01*
X615647Y910490D01*
X615698Y910432D01*
X619114Y907016D01*
X619240Y906911D01*
X619361Y906799D01*
X619413Y906767D01*
X619460Y906728D01*
X619602Y906646D01*
X619741Y906558D01*
X619798Y906534D01*
X619851Y906504D01*
X620005Y906449D01*
X620158Y906387D01*
X620217Y906374D01*
X620275Y906353D01*
X620437Y906327D01*
X620598Y906292D01*
X620675Y906287D01*
X620719Y906280D01*
X620780Y906281D01*
X620910Y906273D01*
X725290Y906273D01*
X725454Y906287D01*
X725618Y906294D01*
X725678Y906307D01*
X725739Y906313D01*
X725898Y906356D01*
X726058Y906392D01*
X726114Y906415D01*
X726173Y906431D01*
X726321Y906502D01*
X726473Y906565D01*
X726525Y906598D01*
X726580Y906625D01*
X726713Y906720D01*
X726852Y906810D01*
X726909Y906861D01*
X726946Y906887D01*
X726988Y906930D01*
X727086Y907016D01*
X730502Y910432D01*
X730585Y910532D01*
X730676Y910625D01*
X730729Y910705D01*
X730791Y910778D01*
X730855Y910891D01*
X730928Y910998D01*
X730967Y911086D01*
X731014Y911169D01*
X731058Y911291D01*
X731110Y911410D01*
X731133Y911503D01*
X731165Y911593D01*
X731186Y911721D01*
X731217Y911848D01*
X731223Y911943D01*
X731238Y912037D01*
X731237Y912167D01*
X731245Y912297D01*
X731233Y912392D01*
X731232Y912488D01*
X731207Y912615D01*
X731192Y912744D01*
X731165Y912836D01*
X731147Y912930D01*
X731100Y913051D01*
X731062Y913175D01*
X731019Y913261D01*
X730984Y913350D01*
X730917Y913461D01*
X730858Y913577D01*
X730800Y913653D01*
X730750Y913734D01*
X730664Y913832D01*
X730586Y913935D01*
X730516Y914000D01*
X730452Y914072D01*
X730350Y914152D01*
X730255Y914241D01*
X730174Y914292D01*
X730099Y914351D01*
X729985Y914412D01*
X729875Y914482D01*
X729786Y914519D01*
X729702Y914564D01*
X729579Y914604D01*
X729458Y914653D01*
X729365Y914673D01*
X729274Y914703D01*
X729145Y914721D01*
X729030Y914746D01*
X727817Y915958D01*
X727817Y963642D01*
X729008Y964833D01*
X744192Y964833D01*
X745383Y963642D01*
X745383Y915958D01*
X744192Y914767D01*
X742442Y914767D01*
X742407Y914764D01*
X742373Y914766D01*
X742184Y914744D01*
X741993Y914727D01*
X741960Y914718D01*
X741926Y914714D01*
X741743Y914659D01*
X741559Y914609D01*
X741528Y914594D01*
X741495Y914584D01*
X741324Y914497D01*
X741152Y914415D01*
X741124Y914395D01*
X741093Y914380D01*
X740941Y914264D01*
X740786Y914153D01*
X740762Y914128D01*
X740735Y914108D01*
X740606Y913968D01*
X740472Y913831D01*
X740453Y913802D01*
X740429Y913776D01*
X740327Y913615D01*
X740220Y913458D01*
X740206Y913426D01*
X740188Y913397D01*
X740115Y913220D01*
X740038Y913046D01*
X740030Y913012D01*
X740017Y912980D01*
X739977Y912793D01*
X739931Y912608D01*
X739929Y912574D01*
X739922Y912540D01*
X739903Y912228D01*
X739903Y910492D01*
X739256Y909846D01*
X739173Y909746D01*
X739082Y909653D01*
X739029Y909573D01*
X738967Y909500D01*
X738903Y909387D01*
X738830Y909280D01*
X738791Y909192D01*
X738744Y909109D01*
X738700Y908987D01*
X738648Y908868D01*
X738625Y908775D01*
X738593Y908685D01*
X738572Y908557D01*
X738541Y908430D01*
X738535Y908335D01*
X738520Y908241D01*
X738521Y908110D01*
X738513Y907981D01*
X738525Y907886D01*
X738526Y907791D01*
X738551Y907663D01*
X738566Y907534D01*
X738593Y907442D01*
X738611Y907348D01*
X738658Y907227D01*
X738696Y907103D01*
X738739Y907017D01*
X738774Y906928D01*
X738841Y906817D01*
X738900Y906701D01*
X738958Y906625D01*
X739008Y906544D01*
X739094Y906446D01*
X739172Y906343D01*
X739242Y906278D01*
X739306Y906206D01*
X739408Y906126D01*
X739503Y906038D01*
X739584Y905986D01*
X739659Y905927D01*
X739773Y905866D01*
X739883Y905796D01*
X739971Y905759D01*
X740056Y905714D01*
X740180Y905674D01*
X740300Y905625D01*
X740393Y905605D01*
X740484Y905575D01*
X740613Y905557D01*
X740740Y905530D01*
X740870Y905522D01*
X740930Y905514D01*
X740975Y905516D01*
X741052Y905511D01*
X849630Y905511D01*
X849794Y905525D01*
G37*
%LPC*%
G36*
X544596Y992509D02*
X544596Y992509D01*
X524509Y1012596D01*
X524509Y1041004D01*
X544596Y1061091D01*
X573004Y1061091D01*
X593091Y1041004D01*
X593091Y1012596D01*
X573004Y992509D01*
X544596Y992509D01*
G37*
%LPD*%
%LPC*%
G36*
X603882Y337057D02*
X603882Y337057D01*
X595290Y339360D01*
X587587Y343807D01*
X581297Y350097D01*
X576850Y357800D01*
X574547Y366392D01*
X574547Y375288D01*
X576850Y383880D01*
X581297Y391583D01*
X587587Y397873D01*
X595290Y402320D01*
X603882Y404623D01*
X612778Y404623D01*
X621370Y402320D01*
X629073Y397873D01*
X635363Y391583D01*
X639810Y383880D01*
X642113Y375288D01*
X642113Y366392D01*
X639810Y357800D01*
X635363Y350097D01*
X629073Y343807D01*
X621370Y339360D01*
X612778Y337057D01*
X603882Y337057D01*
G37*
%LPD*%
%LPC*%
G36*
X603882Y258317D02*
X603882Y258317D01*
X595290Y260620D01*
X587587Y265067D01*
X581297Y271357D01*
X576850Y279060D01*
X574547Y287652D01*
X574547Y296548D01*
X576850Y305140D01*
X581297Y312843D01*
X587587Y319133D01*
X595290Y323580D01*
X603882Y325883D01*
X612778Y325883D01*
X621370Y323580D01*
X629073Y319133D01*
X635363Y312843D01*
X639810Y305140D01*
X642113Y296548D01*
X642113Y287652D01*
X639810Y279060D01*
X635363Y271357D01*
X629073Y265067D01*
X621370Y260620D01*
X612778Y258317D01*
X603882Y258317D01*
G37*
%LPD*%
%LPC*%
G36*
X721359Y798759D02*
X721359Y798759D01*
X721359Y838141D01*
X767741Y838141D01*
X767741Y801050D01*
X767643Y800559D01*
X767452Y800097D01*
X767173Y799680D01*
X766820Y799327D01*
X766403Y799048D01*
X765941Y798857D01*
X765450Y798759D01*
X721359Y798759D01*
G37*
%LPD*%
%LPC*%
G36*
X594359Y798759D02*
X594359Y798759D01*
X594359Y838141D01*
X640741Y838141D01*
X640741Y801050D01*
X640643Y800559D01*
X640452Y800097D01*
X640173Y799680D01*
X639820Y799327D01*
X639403Y799048D01*
X638941Y798857D01*
X638450Y798759D01*
X594359Y798759D01*
G37*
%LPD*%
%LPC*%
G36*
X656950Y798759D02*
X656950Y798759D01*
X656459Y798857D01*
X655997Y799048D01*
X655580Y799327D01*
X655227Y799680D01*
X654948Y800097D01*
X654757Y800559D01*
X654659Y801050D01*
X654659Y838141D01*
X701041Y838141D01*
X701041Y798759D01*
X656950Y798759D01*
G37*
%LPD*%
%LPC*%
G36*
X529950Y798759D02*
X529950Y798759D01*
X529459Y798857D01*
X528997Y799048D01*
X528580Y799327D01*
X528227Y799680D01*
X527948Y800097D01*
X527757Y800559D01*
X527659Y801050D01*
X527659Y838141D01*
X574041Y838141D01*
X574041Y798759D01*
X529950Y798759D01*
G37*
%LPD*%
%LPC*%
G36*
X652779Y621879D02*
X652779Y621879D01*
X652779Y629341D01*
X797950Y629341D01*
X798441Y629243D01*
X798903Y629052D01*
X799320Y628773D01*
X799673Y628420D01*
X799952Y628003D01*
X800143Y627541D01*
X800241Y627050D01*
X800241Y621879D01*
X652779Y621879D01*
G37*
%LPD*%
%LPC*%
G36*
X495159Y621879D02*
X495159Y621879D01*
X495159Y627050D01*
X495257Y627541D01*
X495448Y628003D01*
X495727Y628420D01*
X496080Y628773D01*
X496497Y629052D01*
X496959Y629243D01*
X497450Y629341D01*
X642621Y629341D01*
X642621Y621879D01*
X495159Y621879D01*
G37*
%LPD*%
%LPC*%
G36*
X754379Y1031879D02*
X754379Y1031879D01*
X754379Y1061599D01*
X763714Y1061599D01*
X784099Y1041214D01*
X784099Y1031879D01*
X754379Y1031879D01*
G37*
%LPD*%
%LPC*%
G36*
X714501Y1031879D02*
X714501Y1031879D01*
X714501Y1041214D01*
X734886Y1061599D01*
X744221Y1061599D01*
X744221Y1031879D01*
X714501Y1031879D01*
G37*
%LPD*%
%LPC*%
G36*
X754379Y992001D02*
X754379Y992001D01*
X754379Y1021721D01*
X784099Y1021721D01*
X784099Y1012386D01*
X763714Y992001D01*
X754379Y992001D01*
G37*
%LPD*%
%LPC*%
G36*
X734886Y992001D02*
X734886Y992001D01*
X714501Y1012386D01*
X714501Y1021721D01*
X744221Y1021721D01*
X744221Y992001D01*
X734886Y992001D01*
G37*
%LPD*%
%LPC*%
G36*
X689174Y943174D02*
X689174Y943174D01*
X689174Y965341D01*
X692885Y965341D01*
X693531Y965168D01*
X694110Y964833D01*
X694583Y964360D01*
X694918Y963781D01*
X695091Y963135D01*
X695091Y943174D01*
X689174Y943174D01*
G37*
%LPD*%
%LPC*%
G36*
X562174Y943174D02*
X562174Y943174D01*
X562174Y965341D01*
X565885Y965341D01*
X566531Y965168D01*
X567110Y964833D01*
X567583Y964360D01*
X567918Y963781D01*
X568091Y963135D01*
X568091Y943174D01*
X562174Y943174D01*
G37*
%LPD*%
%LPC*%
G36*
X689174Y914259D02*
X689174Y914259D01*
X689174Y936426D01*
X695091Y936426D01*
X695091Y916465D01*
X694918Y915819D01*
X694583Y915240D01*
X694110Y914767D01*
X693531Y914432D01*
X692885Y914259D01*
X689174Y914259D01*
G37*
%LPD*%
%LPC*%
G36*
X562174Y914259D02*
X562174Y914259D01*
X562174Y936426D01*
X568091Y936426D01*
X568091Y916465D01*
X567918Y915819D01*
X567583Y915240D01*
X567110Y914767D01*
X566531Y914432D01*
X565885Y914259D01*
X562174Y914259D01*
G37*
%LPD*%
%LPC*%
G36*
X676509Y943174D02*
X676509Y943174D01*
X676509Y963135D01*
X676682Y963781D01*
X677017Y964360D01*
X677490Y964833D01*
X678069Y965168D01*
X678715Y965341D01*
X682426Y965341D01*
X682426Y943174D01*
X676509Y943174D01*
G37*
%LPD*%
%LPC*%
G36*
X549509Y943174D02*
X549509Y943174D01*
X549509Y963135D01*
X549682Y963781D01*
X550017Y964360D01*
X550490Y964833D01*
X551069Y965168D01*
X551715Y965341D01*
X555426Y965341D01*
X555426Y943174D01*
X549509Y943174D01*
G37*
%LPD*%
%LPC*%
G36*
X678715Y914259D02*
X678715Y914259D01*
X678069Y914432D01*
X677490Y914767D01*
X677017Y915240D01*
X676682Y915819D01*
X676509Y916465D01*
X676509Y936426D01*
X682426Y936426D01*
X682426Y914259D01*
X678715Y914259D01*
G37*
%LPD*%
%LPC*%
G36*
X551715Y914259D02*
X551715Y914259D01*
X551069Y914432D01*
X550490Y914767D01*
X550017Y915240D01*
X549682Y915819D01*
X549509Y916465D01*
X549509Y936426D01*
X555426Y936426D01*
X555426Y914259D01*
X551715Y914259D01*
G37*
%LPD*%
%LPC*%
G36*
X749299Y1026799D02*
X749299Y1026799D01*
X749299Y1026801D01*
X749301Y1026801D01*
X749301Y1026799D01*
X749299Y1026799D01*
G37*
%LPD*%
D10*
X304190Y596900D03*
X323190Y596900D03*
D11*
X393700Y669900D03*
X393700Y650900D03*
X393700Y701700D03*
X393700Y720700D03*
X342900Y701700D03*
X342900Y720700D03*
X368300Y701700D03*
X368300Y720700D03*
X342900Y669900D03*
X342900Y650900D03*
X368300Y669900D03*
X368300Y650900D03*
D10*
X173330Y563880D03*
X154330Y563880D03*
D12*
X84700Y501750D03*
X84700Y514250D03*
D13*
X52700Y545250D03*
X52700Y470750D03*
D12*
X84700Y526750D03*
X84700Y489250D03*
X84700Y603350D03*
X84700Y615850D03*
D13*
X52700Y646850D03*
X52700Y572350D03*
D12*
X84700Y628350D03*
X84700Y590850D03*
D14*
X165100Y764200D03*
X165100Y785200D03*
X127000Y764200D03*
X127000Y785200D03*
D15*
X749300Y1026800D03*
X558800Y1026800D03*
D11*
X330200Y854100D03*
X330200Y873100D03*
X254000Y854100D03*
X254000Y873100D03*
D10*
X257200Y596900D03*
X276200Y596900D03*
X308000Y495300D03*
X327000Y495300D03*
X257200Y495300D03*
X276200Y495300D03*
X163170Y706120D03*
X144170Y706120D03*
D11*
X165100Y816000D03*
X165100Y835000D03*
X127000Y816000D03*
X127000Y835000D03*
D16*
X131900Y665100D03*
X131900Y681100D03*
X172900Y681100D03*
X172900Y665100D03*
D17*
X63500Y698500D03*
D18*
X63500Y749300D03*
X63500Y723900D03*
X63500Y774700D03*
D19*
X609600Y939800D03*
D20*
X584200Y848300D03*
D19*
X558800Y939800D03*
X736600Y939800D03*
D20*
X711200Y848300D03*
D19*
X685800Y939800D03*
D21*
X292100Y874600D03*
X301600Y852600D03*
X282600Y852600D03*
D22*
X687070Y292100D03*
X687070Y370840D03*
D23*
X608330Y292100D03*
X608330Y370840D03*
D24*
X319600Y539750D03*
X264600Y539750D03*
X319600Y527050D03*
X319600Y552450D03*
X319600Y565150D03*
X264600Y527050D03*
X264600Y552450D03*
X264600Y565150D03*
X192600Y514350D03*
X137600Y514350D03*
X192600Y501650D03*
X192600Y527050D03*
X192600Y539750D03*
X137600Y501650D03*
X137600Y527050D03*
X137600Y539750D03*
D25*
X239200Y643300D03*
X244200Y643300D03*
X249200Y643300D03*
X254200Y643300D03*
X259200Y643300D03*
X264200Y643300D03*
X269200Y643300D03*
X274200Y643300D03*
X279200Y643300D03*
X284200Y643300D03*
X289200Y643300D03*
X294200Y643300D03*
D26*
X309200Y658300D03*
X309200Y663300D03*
X309200Y668300D03*
X309200Y673300D03*
X309200Y678300D03*
X309200Y683300D03*
X309200Y688300D03*
X309200Y693300D03*
X309200Y698300D03*
X309200Y703300D03*
X309200Y708300D03*
X309200Y713300D03*
D25*
X294200Y728300D03*
X289200Y728300D03*
X284200Y728300D03*
X279200Y728300D03*
X274200Y728300D03*
X269200Y728300D03*
X264200Y728300D03*
X259200Y728300D03*
X254200Y728300D03*
X249200Y728300D03*
X244200Y728300D03*
X239200Y728300D03*
D26*
X224200Y713300D03*
X224200Y708300D03*
X224200Y703300D03*
X224200Y698300D03*
X224200Y693300D03*
X224200Y688300D03*
X224200Y683300D03*
X224200Y678300D03*
X224200Y673300D03*
X224200Y668300D03*
X224200Y663300D03*
X224200Y658300D03*
D21*
X292100Y789100D03*
X282600Y811100D03*
X301600Y811100D03*
D11*
X254000Y809600D03*
X254000Y790600D03*
X330200Y809600D03*
X330200Y790600D03*
D27*
X647700Y583800D03*
D28*
X549700Y608800D02*
X547700Y606800D01*
D29*
X647700Y616800D03*
X647700Y550800D03*
D28*
X523700Y578800D02*
X505700Y578800D01*
X505700Y588800D02*
X523700Y588800D01*
D30*
X499700Y588800D03*
X499700Y578800D03*
D28*
X529700Y588800D02*
X547700Y606800D01*
X529700Y588800D02*
X523700Y588800D01*
X529700Y578800D02*
X547700Y560800D01*
X529700Y578800D02*
X523700Y578800D01*
D31*
X62230Y840740D03*
X62230Y866140D03*
D16*
X365580Y585090D03*
X365580Y601090D03*
X406580Y601090D03*
X406580Y585090D03*
D32*
X736600Y911860D02*
X736600Y939800D01*
X736600Y911860D02*
X727710Y902970D01*
X618490Y902970D01*
X609600Y911860D01*
X609600Y939800D01*
X618490Y902970D02*
X419100Y902970D01*
X370840Y854710D02*
X365760Y854710D01*
D33*
X365760Y854710D03*
X346710Y853440D03*
D32*
X330860Y853440D01*
X330200Y854100D01*
X370840Y854710D02*
X419100Y902970D01*
X330200Y854100D02*
X315620Y868680D01*
X298020Y868680D02*
X292100Y874600D01*
X298020Y868680D02*
X315620Y868680D01*
X328700Y811100D02*
X301600Y811100D01*
X328700Y811100D02*
X330200Y809600D01*
D34*
X334440Y811100D02*
X301600Y811100D01*
X334440Y811100D02*
X335280Y810260D01*
X355600Y830580D01*
X355600Y866140D01*
X348640Y873100D01*
X330200Y873100D01*
X429260Y939800D02*
X558800Y939800D01*
X429260Y939800D02*
X355600Y866140D01*
D35*
X192600Y514350D02*
X187960Y514350D01*
X177800Y504190D01*
D33*
X177800Y504190D03*
D35*
X137600Y501650D02*
X125200Y489250D01*
X111760Y489250D01*
X84700Y489250D01*
D33*
X111760Y489250D03*
D36*
X52700Y470750D02*
X52700Y508000D01*
X52700Y545250D01*
X52700Y558800D01*
X52700Y572350D01*
X52700Y612140D01*
D33*
X52700Y558800D03*
D36*
X52700Y612140D02*
X52700Y646850D01*
D33*
X52700Y612140D03*
X52700Y508000D03*
D37*
X84700Y589670D02*
X84700Y590850D01*
X84700Y589670D02*
X93980Y580390D01*
D33*
X93980Y580390D03*
D37*
X154330Y563880D02*
X156210Y562000D01*
X156210Y549910D01*
D33*
X156210Y549910D03*
D37*
X327000Y519650D02*
X327000Y495300D01*
X327000Y519650D02*
X319600Y527050D01*
X308610Y527050D01*
X303530Y532130D02*
X303530Y560070D01*
X308610Y565150D01*
X319600Y565150D01*
X303530Y532130D02*
X308610Y527050D01*
X319600Y565150D02*
X318770Y565980D01*
X318770Y576580D01*
X304190Y591160D01*
X304190Y596900D01*
X323850Y581660D02*
X318770Y576580D01*
D33*
X323850Y581660D03*
D37*
X368300Y650900D02*
X393700Y650900D01*
X368300Y650900D02*
X342900Y650900D01*
X368300Y650900D02*
X368300Y635000D01*
D33*
X368300Y635000D03*
D37*
X368300Y720700D02*
X342900Y720700D01*
X368300Y720700D02*
X393700Y720700D01*
X368300Y720700D02*
X368300Y737870D01*
D33*
X368300Y737870D03*
X326390Y702310D03*
D37*
X310152Y707348D02*
X309200Y708300D01*
X310152Y707348D02*
X315463Y707348D01*
X320501Y702310D02*
X326390Y702310D01*
X320501Y702310D02*
X315463Y707348D01*
D33*
X267970Y669290D03*
D37*
X274200Y653161D02*
X274200Y643300D01*
X274200Y653161D02*
X274800Y653761D01*
X274800Y662460D01*
X267970Y669290D01*
X224200Y663300D02*
X218890Y663300D01*
X214630Y667560D02*
X214630Y674370D01*
X214630Y667560D02*
X218890Y663300D01*
X244200Y728300D02*
X244200Y735690D01*
X251460Y742950D01*
D33*
X251460Y742950D03*
D37*
X172900Y681100D02*
X152400Y681100D01*
X131900Y681100D01*
D33*
X152400Y681100D03*
D37*
X209029Y679971D02*
X214630Y674370D01*
D33*
X206489Y679971D03*
D37*
X146050Y764200D02*
X127000Y764200D01*
X146050Y764200D02*
X165100Y764200D01*
D33*
X146050Y764200D03*
D34*
X292100Y789100D02*
X293600Y790600D01*
X311150Y790600D01*
X330200Y790600D01*
D33*
X311150Y790600D03*
D34*
X254000Y790600D02*
X235610Y790600D01*
X234950Y789940D01*
D33*
X234950Y789940D03*
D34*
X292100Y789100D02*
X292100Y830580D01*
X292100Y843100D01*
X301600Y852600D01*
X292100Y830580D02*
X277520Y830580D01*
X254000Y854100D01*
D33*
X292100Y830580D03*
D37*
X209029Y679971D02*
X206489Y679971D01*
X214630Y674370D02*
X218560Y678300D01*
X224200Y678300D01*
X386080Y585090D02*
X406580Y585090D01*
X386080Y585090D02*
X365580Y585090D01*
D33*
X386080Y585090D03*
D32*
X282600Y852600D02*
X262100Y873100D01*
X254000Y873100D01*
X153010Y873100D01*
X128270Y848360D01*
X128270Y836270D01*
X127330Y835330D01*
X127000Y835000D01*
X93040Y835330D02*
X62230Y866140D01*
X93040Y835330D02*
X127330Y835330D01*
D37*
X319600Y552450D02*
X436880Y552450D01*
X473230Y588800D01*
D33*
X473230Y588800D03*
X486410Y576580D03*
D32*
X497480Y576580D01*
X499700Y578800D01*
D37*
X323190Y596900D02*
X321615Y598475D01*
X309220Y610870D01*
X302260Y610870D01*
X278130Y570230D02*
X278130Y547370D01*
X270510Y539750D01*
X264600Y539750D01*
X278130Y570230D02*
X267510Y580850D01*
D32*
X342900Y498500D02*
X368300Y498500D01*
X393700Y498500D01*
X393700Y466700D01*
X368300Y466700D01*
X342900Y466700D01*
X326390Y713300D02*
X309200Y713300D01*
X326390Y713300D02*
X330640Y713300D01*
X342900Y701040D01*
D37*
X144170Y706120D02*
X100330Y706120D01*
X93980Y712470D01*
X66438Y712470D02*
X59292Y712470D01*
X52070Y719692D01*
X63500Y767478D02*
X63500Y774700D01*
X63500Y767478D02*
X52070Y756048D01*
X66438Y712470D02*
X93980Y712470D01*
X52070Y719692D02*
X52070Y756048D01*
D34*
X281100Y809600D02*
X282600Y811100D01*
X281100Y809600D02*
X254000Y809600D01*
X228600Y835000D01*
X165100Y835000D01*
X147930Y835000D01*
X146050Y833120D01*
D33*
X146050Y833120D03*
D34*
X282600Y811100D02*
X282600Y791870D01*
X237930Y747200D02*
X237930Y729570D01*
X237930Y747200D02*
X282600Y791870D01*
X282600Y757090D02*
X326390Y713300D01*
X282600Y757090D02*
X282600Y791870D01*
D32*
X230002Y658300D02*
X224200Y658300D01*
X230002Y658300D02*
X236066Y664364D01*
X236066Y707386D01*
X239200Y710520D01*
X239200Y637079D02*
X243819Y632460D01*
X239200Y637079D02*
X239200Y643300D01*
X274581Y632460D02*
X279200Y637079D01*
X279200Y643300D01*
X274581Y632460D02*
X243819Y632460D01*
X279200Y643300D02*
X279200Y666750D01*
X279200Y694690D01*
X297810Y713300D01*
X309200Y713300D01*
D35*
X137600Y571700D02*
X137600Y539750D01*
X137600Y571700D02*
X224200Y658300D01*
D37*
X239200Y728300D02*
X237930Y729570D01*
D32*
X239200Y728300D02*
X239200Y710520D01*
D33*
X267510Y580850D03*
X271544Y610214D03*
D37*
X309876Y610214D01*
X321615Y598475D01*
X288090Y657860D02*
X279200Y666750D01*
X288090Y657860D02*
X293370Y657860D01*
X302260Y648970D01*
X302260Y613410D01*
X302260Y610870D01*
D32*
X257200Y596900D02*
X257200Y572550D01*
X264600Y565150D01*
X276200Y495300D02*
X308000Y495300D01*
X308000Y504800D01*
X289560Y583540D02*
X276200Y596900D01*
X289560Y523240D02*
X308000Y504800D01*
X289560Y523240D02*
X289560Y583540D01*
D37*
X246380Y506120D02*
X257200Y495300D01*
X256540Y552450D02*
X264600Y552450D01*
X246380Y542290D02*
X246380Y506120D01*
X246380Y542290D02*
X256540Y552450D01*
X243840Y565150D01*
X255270Y624840D02*
X279400Y624840D01*
X243840Y613410D02*
X243840Y565150D01*
X243840Y613410D02*
X255270Y624840D01*
X284200Y629640D02*
X284200Y643300D01*
X284200Y629640D02*
X279400Y624840D01*
X181610Y665100D02*
X172900Y665100D01*
X181610Y665100D02*
X204090Y665100D01*
X204470Y665480D01*
D33*
X204470Y665480D03*
X267970Y656590D03*
D37*
X269200Y655360D01*
X269200Y643300D01*
X172900Y665100D02*
X131900Y665100D01*
X163170Y706120D02*
X181610Y687680D01*
X181610Y665100D01*
X192600Y614240D02*
X192600Y539750D01*
X260470Y682110D02*
X260470Y721950D01*
X260470Y682110D02*
X192600Y614240D01*
X259200Y723220D02*
X259200Y728300D01*
X259200Y723220D02*
X260470Y721950D01*
X193870Y502920D02*
X192600Y501650D01*
X193870Y502920D02*
X205740Y502920D01*
X210820Y508000D01*
D33*
X269332Y707390D03*
D37*
X265296Y680637D02*
X210820Y626161D01*
X265296Y705894D02*
X266792Y707390D01*
X265296Y705894D02*
X265296Y680637D01*
X210820Y626161D02*
X210820Y508000D01*
D33*
X252730Y707390D03*
D37*
X254200Y708860D02*
X254200Y728300D01*
X254200Y708860D02*
X252730Y707390D01*
X266792Y707390D02*
X269332Y707390D01*
D36*
X84700Y628350D02*
X72090Y628350D01*
X68580Y624840D01*
X68580Y584200D01*
X84700Y568080D01*
X84700Y526750D01*
D37*
X180340Y527050D02*
X192600Y527050D01*
X73360Y526750D02*
X64770Y518160D01*
X73360Y526750D02*
X84700Y526750D01*
X64770Y488950D02*
X73660Y480060D01*
X64770Y488950D02*
X64770Y518160D01*
X133350Y480060D02*
X180340Y527050D01*
X133350Y480060D02*
X73660Y480060D01*
D32*
X173330Y534060D02*
X173330Y563880D01*
X173330Y534060D02*
X180340Y527050D01*
D35*
X137600Y514350D02*
X121920Y514350D01*
D33*
X121920Y514350D03*
X101600Y514350D03*
D35*
X84800Y514350D01*
X84700Y514250D01*
X106680Y519430D02*
X106680Y607060D01*
X97790Y615950D01*
X97690Y615850D01*
X84700Y615850D01*
X106680Y519430D02*
X101600Y514350D01*
X124460Y527050D02*
X137600Y527050D01*
X99160Y501750D02*
X84700Y501750D01*
X99160Y501750D02*
X124460Y527050D01*
X123190Y527050D02*
X118110Y532130D01*
X118110Y600710D01*
X115570Y603250D01*
D33*
X115570Y603250D03*
X99060Y603250D03*
D35*
X98960Y603350D01*
X84700Y603350D01*
X123190Y527050D02*
X124460Y527050D01*
D37*
X64770Y722630D02*
X196850Y722630D01*
D33*
X196850Y718820D03*
X243840Y701040D03*
D37*
X245138Y702338D01*
X245138Y711279D01*
X249200Y715341D01*
X249200Y728300D01*
X196850Y722630D02*
X196850Y718820D01*
X64770Y722630D02*
X63500Y723900D01*
X82578Y730222D02*
X63500Y749300D01*
X82578Y730222D02*
X163448Y730222D01*
D33*
X163448Y730222D03*
X224815Y727735D03*
D37*
X224815Y713915D01*
X224200Y713300D01*
X165100Y785200D02*
X165100Y816000D01*
X127000Y816000D02*
X127000Y785200D01*
X319600Y539750D02*
X438150Y539750D01*
X487200Y588800D01*
D32*
X499700Y588800D01*
X204470Y721426D02*
X204470Y737870D01*
X204470Y721426D02*
X217676Y708220D01*
X224120Y708220D01*
X204470Y737870D02*
X198120Y744220D01*
X62230Y802640D02*
X62230Y840740D01*
X120650Y744220D02*
X198120Y744220D01*
X120650Y744220D02*
X62230Y802640D01*
X224120Y708220D02*
X224200Y708300D01*
D37*
X332940Y633730D02*
X365580Y601090D01*
X332940Y633730D02*
X312420Y633730D01*
D33*
X312420Y633730D03*
X293370Y632486D03*
D37*
X289200Y636656D01*
X289200Y643300D01*
X365580Y601090D02*
X406580Y601090D01*
M02*
