G04 EAGLE Gerber X2 export*
%TF.Part,Single*%
%TF.FileFunction,Soldermask,Top,1*%
%TF.FilePolarity,Negative*%
%TF.GenerationSoftware,Autodesk,EAGLE,9.1.3*%
%TF.CreationDate,2018-11-23T23:54:25Z*%
G75*
%MOMM*%
%FSLAX34Y34*%
%LPD*%
%AMOC8*
5,1,8,0,0,1.08239X$1,22.5*%
G01*
%ADD10C,4.703200*%
%ADD11R,1.503200X1.703200*%
%ADD12R,1.703200X1.503200*%
%ADD13R,1.903200X0.803200*%
%ADD14R,2.903200X1.203200*%
%ADD15R,1.403200X1.403200*%
%ADD16P,7.203089X8X202.500000*%
%ADD17R,1.103200X1.203200*%
%ADD18R,1.727200X1.727200*%
%ADD19C,1.727200*%
%ADD20R,1.553200X4.803200*%
%ADD21R,11.003200X9.603200*%
%ADD22R,1.203200X1.603200*%
%ADD23R,6.553200X6.553200*%
%ADD24C,6.553200*%
%ADD25R,1.703200X0.803200*%
%ADD26R,0.403200X1.203200*%
%ADD27R,1.203200X0.403200*%
%ADD28R,1.473200X0.838200*%
%ADD29P,1.869504X8X112.500000*%
%ADD30C,0.959600*%


D10*
X50000Y50000D03*
X850000Y50000D03*
X850000Y1050000D03*
X50000Y1050000D03*
D11*
X304190Y596900D03*
X323190Y596900D03*
D12*
X393700Y669900D03*
X393700Y650900D03*
X393700Y701700D03*
X393700Y720700D03*
X342900Y701700D03*
X342900Y720700D03*
X368300Y701700D03*
X368300Y720700D03*
X342900Y669900D03*
X342900Y650900D03*
X368300Y669900D03*
X368300Y650900D03*
D11*
X173330Y563880D03*
X154330Y563880D03*
D13*
X84700Y501750D03*
X84700Y514250D03*
D14*
X52700Y545250D03*
X52700Y470750D03*
D13*
X84700Y526750D03*
X84700Y489250D03*
X84700Y603350D03*
X84700Y615850D03*
D14*
X52700Y646850D03*
X52700Y572350D03*
D13*
X84700Y628350D03*
X84700Y590850D03*
D15*
X165100Y764200D03*
X165100Y785200D03*
X127000Y764200D03*
X127000Y785200D03*
D16*
X749300Y1026800D03*
X558800Y1026800D03*
D12*
X330200Y854100D03*
X330200Y873100D03*
X254000Y854100D03*
X254000Y873100D03*
D11*
X257200Y596900D03*
X276200Y596900D03*
X308000Y495300D03*
X327000Y495300D03*
X257200Y495300D03*
X276200Y495300D03*
X163170Y706120D03*
X144170Y706120D03*
D12*
X165100Y816000D03*
X165100Y835000D03*
X127000Y816000D03*
X127000Y835000D03*
D17*
X131900Y665100D03*
X131900Y681100D03*
X172900Y681100D03*
X172900Y665100D03*
D18*
X63500Y698500D03*
D19*
X63500Y749300D03*
X63500Y723900D03*
X63500Y774700D03*
D20*
X609600Y939800D03*
D21*
X584200Y848300D03*
D20*
X558800Y939800D03*
X736600Y939800D03*
D21*
X711200Y848300D03*
D20*
X685800Y939800D03*
D22*
X292100Y874600D03*
X301600Y852600D03*
X282600Y852600D03*
D23*
X687070Y292100D03*
X687070Y370840D03*
D24*
X608330Y292100D03*
X608330Y370840D03*
D25*
X319600Y539750D03*
X264600Y539750D03*
X319600Y527050D03*
X319600Y552450D03*
X319600Y565150D03*
X264600Y527050D03*
X264600Y552450D03*
X264600Y565150D03*
X192600Y514350D03*
X137600Y514350D03*
X192600Y501650D03*
X192600Y527050D03*
X192600Y539750D03*
X137600Y501650D03*
X137600Y527050D03*
X137600Y539750D03*
D26*
X239200Y643300D03*
X244200Y643300D03*
X249200Y643300D03*
X254200Y643300D03*
X259200Y643300D03*
X264200Y643300D03*
X269200Y643300D03*
X274200Y643300D03*
X279200Y643300D03*
X284200Y643300D03*
X289200Y643300D03*
X294200Y643300D03*
D27*
X309200Y658300D03*
X309200Y663300D03*
X309200Y668300D03*
X309200Y673300D03*
X309200Y678300D03*
X309200Y683300D03*
X309200Y688300D03*
X309200Y693300D03*
X309200Y698300D03*
X309200Y703300D03*
X309200Y708300D03*
X309200Y713300D03*
D26*
X294200Y728300D03*
X289200Y728300D03*
X284200Y728300D03*
X279200Y728300D03*
X274200Y728300D03*
X269200Y728300D03*
X264200Y728300D03*
X259200Y728300D03*
X254200Y728300D03*
X249200Y728300D03*
X244200Y728300D03*
X239200Y728300D03*
D27*
X224200Y713300D03*
X224200Y708300D03*
X224200Y703300D03*
X224200Y698300D03*
X224200Y693300D03*
X224200Y688300D03*
X224200Y683300D03*
X224200Y678300D03*
X224200Y673300D03*
X224200Y668300D03*
X224200Y663300D03*
X224200Y658300D03*
D22*
X292100Y789100D03*
X282600Y811100D03*
X301600Y811100D03*
D12*
X254000Y809600D03*
X254000Y790600D03*
X330200Y809600D03*
X330200Y790600D03*
D28*
X499700Y588800D03*
X499700Y578800D03*
D29*
X62230Y840740D03*
X62230Y866140D03*
D17*
X365580Y585090D03*
X365580Y601090D03*
X406580Y601090D03*
X406580Y585090D03*
D30*
X365760Y854710D03*
X346710Y853440D03*
X177800Y504190D03*
X111760Y489250D03*
X52700Y558800D03*
X52700Y612140D03*
X52700Y508000D03*
X93980Y580390D03*
X156210Y549910D03*
X323850Y581660D03*
X368300Y635000D03*
X368300Y737870D03*
X326390Y702310D03*
X267970Y669290D03*
X251460Y742950D03*
X152400Y681100D03*
X206489Y679971D03*
X146050Y764200D03*
X311150Y790600D03*
X234950Y789940D03*
X292100Y830580D03*
X386080Y585090D03*
X473230Y588800D03*
X486410Y576580D03*
X146050Y833120D03*
X267510Y580850D03*
X271544Y610214D03*
X204470Y665480D03*
X267970Y656590D03*
X269332Y707390D03*
X252730Y707390D03*
X121920Y514350D03*
X101600Y514350D03*
X115570Y603250D03*
X99060Y603250D03*
X196850Y718820D03*
X243840Y701040D03*
X163448Y730222D03*
X224815Y727735D03*
X312420Y633730D03*
X293370Y632486D03*
M02*
