G04 EAGLE Gerber X2 export*
%TF.Part,Single*%
%TF.FileFunction,Paste,Top*%
%TF.FilePolarity,Positive*%
%TF.GenerationSoftware,Autodesk,EAGLE,9.1.3*%
%TF.CreationDate,2018-11-23T23:54:25Z*%
G75*
%MOMM*%
%FSLAX34Y34*%
%LPD*%
%AMOC8*
5,1,8,0,0,1.08239X$1,22.5*%
G01*
%ADD10R,1.300000X1.500000*%
%ADD11R,1.500000X1.300000*%
%ADD12R,1.700000X0.600000*%
%ADD13R,2.700000X1.000000*%
%ADD14R,1.200000X1.200000*%
%ADD15R,0.900000X1.000000*%
%ADD16R,5.200000X4.550000*%
%ADD17R,1.350000X4.500000*%
%ADD18R,1.000000X1.400000*%
%ADD19R,1.500000X0.600000*%
%ADD20R,0.200000X1.000000*%
%ADD21R,1.000000X0.200000*%
%ADD22R,1.270000X0.635000*%


D10*
X304190Y596900D03*
X323190Y596900D03*
D11*
X393700Y669900D03*
X393700Y650900D03*
X393700Y701700D03*
X393700Y720700D03*
X342900Y701700D03*
X342900Y720700D03*
X368300Y701700D03*
X368300Y720700D03*
X342900Y669900D03*
X342900Y650900D03*
X368300Y669900D03*
X368300Y650900D03*
D10*
X173330Y563880D03*
X154330Y563880D03*
D12*
X84700Y501750D03*
X84700Y514250D03*
D13*
X52700Y545250D03*
X52700Y470750D03*
D12*
X84700Y526750D03*
X84700Y489250D03*
X84700Y603350D03*
X84700Y615850D03*
D13*
X52700Y646850D03*
X52700Y572350D03*
D12*
X84700Y628350D03*
X84700Y590850D03*
D14*
X165100Y764200D03*
X165100Y785200D03*
X127000Y764200D03*
X127000Y785200D03*
D11*
X330200Y854100D03*
X330200Y873100D03*
X254000Y854100D03*
X254000Y873100D03*
D10*
X257200Y596900D03*
X276200Y596900D03*
X308000Y495300D03*
X327000Y495300D03*
X257200Y495300D03*
X276200Y495300D03*
X163170Y706120D03*
X144170Y706120D03*
D11*
X165100Y816000D03*
X165100Y835000D03*
X127000Y816000D03*
X127000Y835000D03*
D15*
X131900Y665100D03*
X131900Y681100D03*
X172900Y681100D03*
X172900Y665100D03*
D16*
X611700Y824050D03*
D17*
X609600Y939800D03*
X558800Y939800D03*
D16*
X611700Y872550D03*
X556700Y824050D03*
X556700Y872550D03*
X738700Y824050D03*
D17*
X736600Y939800D03*
X685800Y939800D03*
D16*
X738700Y872550D03*
X683700Y824050D03*
X683700Y872550D03*
D18*
X292100Y874600D03*
X301600Y852600D03*
X282600Y852600D03*
D19*
X319600Y539750D03*
X264600Y539750D03*
X319600Y527050D03*
X319600Y552450D03*
X319600Y565150D03*
X264600Y527050D03*
X264600Y552450D03*
X264600Y565150D03*
X192600Y514350D03*
X137600Y514350D03*
X192600Y501650D03*
X192600Y527050D03*
X192600Y539750D03*
X137600Y501650D03*
X137600Y527050D03*
X137600Y539750D03*
D20*
X239200Y643300D03*
X244200Y643300D03*
X249200Y643300D03*
X254200Y643300D03*
X259200Y643300D03*
X264200Y643300D03*
X269200Y643300D03*
X274200Y643300D03*
X279200Y643300D03*
X284200Y643300D03*
X289200Y643300D03*
X294200Y643300D03*
D21*
X309200Y658300D03*
X309200Y663300D03*
X309200Y668300D03*
X309200Y673300D03*
X309200Y678300D03*
X309200Y683300D03*
X309200Y688300D03*
X309200Y693300D03*
X309200Y698300D03*
X309200Y703300D03*
X309200Y708300D03*
X309200Y713300D03*
D20*
X294200Y728300D03*
X289200Y728300D03*
X284200Y728300D03*
X279200Y728300D03*
X274200Y728300D03*
X269200Y728300D03*
X264200Y728300D03*
X259200Y728300D03*
X254200Y728300D03*
X249200Y728300D03*
X244200Y728300D03*
X239200Y728300D03*
D21*
X224200Y713300D03*
X224200Y708300D03*
X224200Y703300D03*
X224200Y698300D03*
X224200Y693300D03*
X224200Y688300D03*
X224200Y683300D03*
X224200Y678300D03*
X224200Y673300D03*
X224200Y668300D03*
X224200Y663300D03*
X224200Y658300D03*
D18*
X292100Y789100D03*
X282600Y811100D03*
X301600Y811100D03*
D11*
X254000Y809600D03*
X254000Y790600D03*
X330200Y809600D03*
X330200Y790600D03*
D22*
X499700Y588800D03*
X499700Y578800D03*
D15*
X365580Y585090D03*
X365580Y601090D03*
X406580Y601090D03*
X406580Y585090D03*
M02*
