G04 #@! TF.FileFunction,Soldermask,Top*
%FSLAX46Y46*%
G04 Gerber Fmt 4.6, Leading zero omitted, Abs format (unit mm)*
G04 Created by KiCad (PCBNEW 4.0.7) date 03/14/18 22:29:54*
%MOMM*%
%LPD*%
G01*
G04 APERTURE LIST*
%ADD10C,0.100000*%
%ADD11R,2.000000X2.000000*%
%ADD12O,2.000000X2.000000*%
%ADD13R,10.400000X5.400000*%
%ADD14R,2.100000X2.100000*%
%ADD15O,2.100000X2.100000*%
%ADD16R,1.400000X2.400000*%
%ADD17R,2.400000X1.400000*%
%ADD18C,2.250000*%
%ADD19C,1.924000*%
%ADD20C,2.900000*%
%ADD21R,0.800000X1.500000*%
G04 APERTURE END LIST*
D10*
D11*
X180000000Y-57000000D03*
D12*
X192700000Y-74780000D03*
X180000000Y-59540000D03*
X192700000Y-72240000D03*
X180000000Y-62080000D03*
X192700000Y-69700000D03*
X180000000Y-64620000D03*
X192700000Y-67160000D03*
X180000000Y-67160000D03*
X192700000Y-64620000D03*
X180000000Y-69700000D03*
X192700000Y-62080000D03*
X180000000Y-72240000D03*
X192700000Y-59540000D03*
X180000000Y-74780000D03*
X192700000Y-57000000D03*
D11*
X197000000Y-57000000D03*
D12*
X209700000Y-74780000D03*
X197000000Y-59540000D03*
X209700000Y-72240000D03*
X197000000Y-62080000D03*
X209700000Y-69700000D03*
X197000000Y-64620000D03*
X209700000Y-67160000D03*
X197000000Y-67160000D03*
X209700000Y-64620000D03*
X197000000Y-69700000D03*
X209700000Y-62080000D03*
X197000000Y-72240000D03*
X209700000Y-59540000D03*
X197000000Y-74780000D03*
X209700000Y-57000000D03*
D11*
X214000000Y-57000000D03*
D12*
X226700000Y-74780000D03*
X214000000Y-59540000D03*
X226700000Y-72240000D03*
X214000000Y-62080000D03*
X226700000Y-69700000D03*
X214000000Y-64620000D03*
X226700000Y-67160000D03*
X214000000Y-67160000D03*
X226700000Y-64620000D03*
X214000000Y-69700000D03*
X226700000Y-62080000D03*
X214000000Y-72240000D03*
X226700000Y-59540000D03*
X214000000Y-74780000D03*
X226700000Y-57000000D03*
D11*
X231000000Y-57000000D03*
D12*
X243700000Y-74780000D03*
X231000000Y-59540000D03*
X243700000Y-72240000D03*
X231000000Y-62080000D03*
X243700000Y-69700000D03*
X231000000Y-64620000D03*
X243700000Y-67160000D03*
X231000000Y-67160000D03*
X243700000Y-64620000D03*
X231000000Y-69700000D03*
X243700000Y-62080000D03*
X231000000Y-72240000D03*
X243700000Y-59540000D03*
X231000000Y-74780000D03*
X243700000Y-57000000D03*
D13*
X120000000Y-97250000D03*
X120000000Y-104750000D03*
D14*
X180000000Y-50000000D03*
D15*
X182540000Y-50000000D03*
X185080000Y-50000000D03*
X187620000Y-50000000D03*
D14*
X197000000Y-50000000D03*
D15*
X199540000Y-50000000D03*
X202080000Y-50000000D03*
X204620000Y-50000000D03*
D14*
X214000000Y-50000000D03*
D15*
X216540000Y-50000000D03*
X219080000Y-50000000D03*
X221620000Y-50000000D03*
D14*
X231000000Y-50000000D03*
D15*
X233540000Y-50000000D03*
X236080000Y-50000000D03*
X238620000Y-50000000D03*
D14*
X125620000Y-50000000D03*
D15*
X123080000Y-50000000D03*
X120540000Y-50000000D03*
X118000000Y-50000000D03*
D14*
X156620000Y-50000000D03*
D15*
X154080000Y-50000000D03*
X151540000Y-50000000D03*
X149000000Y-50000000D03*
D14*
X206920000Y-117500000D03*
D15*
X209460000Y-117500000D03*
X212000000Y-117500000D03*
X214540000Y-117500000D03*
X217080000Y-117500000D03*
X219620000Y-117500000D03*
X222160000Y-117500000D03*
X224700000Y-117500000D03*
X227240000Y-117500000D03*
X229780000Y-117500000D03*
X232320000Y-117500000D03*
X234860000Y-117500000D03*
D14*
X244000000Y-100460000D03*
D15*
X244000000Y-103000000D03*
X244000000Y-105540000D03*
X244000000Y-108080000D03*
X244000000Y-110620000D03*
D14*
X244000000Y-81920000D03*
D15*
X244000000Y-84460000D03*
X244000000Y-87000000D03*
X244000000Y-89540000D03*
X244000000Y-92080000D03*
X244000000Y-94620000D03*
D14*
X186920000Y-117500000D03*
D15*
X189460000Y-117500000D03*
X192000000Y-117500000D03*
X194540000Y-117500000D03*
X197080000Y-117500000D03*
X199620000Y-117500000D03*
D14*
X145380000Y-115900000D03*
D15*
X147920000Y-115900000D03*
X150460000Y-115900000D03*
X153000000Y-115900000D03*
X155540000Y-115900000D03*
X158080000Y-115900000D03*
X160620000Y-115900000D03*
X163160000Y-115900000D03*
D14*
X145380000Y-118440000D03*
D15*
X147920000Y-118440000D03*
X150460000Y-118440000D03*
X153000000Y-118440000D03*
X155540000Y-118440000D03*
X158080000Y-118440000D03*
X160620000Y-118440000D03*
X163160000Y-118440000D03*
D14*
X132500000Y-117500000D03*
D15*
X135040000Y-117500000D03*
D14*
X145380000Y-113360000D03*
D15*
X147920000Y-113360000D03*
X150460000Y-113360000D03*
X153000000Y-113360000D03*
X155540000Y-113360000D03*
X158080000Y-113360000D03*
X160620000Y-113360000D03*
X163160000Y-113360000D03*
D16*
X186600000Y-73000000D03*
X188000000Y-73000000D03*
X204300000Y-73000000D03*
X205700000Y-73000000D03*
X221300000Y-73000000D03*
X222700000Y-73000000D03*
X238300000Y-73000000D03*
X239700000Y-73000000D03*
X186600000Y-70000000D03*
X188000000Y-70000000D03*
X204300000Y-70000000D03*
X205700000Y-70000000D03*
X221300000Y-70000000D03*
X222700000Y-70000000D03*
X238300000Y-70000000D03*
X239700000Y-70000000D03*
X186600000Y-67000000D03*
X188000000Y-67000000D03*
X204300000Y-67000000D03*
X205700000Y-67000000D03*
X221300000Y-67000000D03*
X222700000Y-67000000D03*
X238300000Y-67000000D03*
X239700000Y-67000000D03*
D17*
X137000000Y-107000000D03*
X137000000Y-108400000D03*
D18*
X120540000Y-57000000D03*
X118000000Y-57000000D03*
X118000000Y-59541818D03*
X118000000Y-62083636D03*
D19*
X118000000Y-64625454D03*
X118000000Y-67167272D03*
D18*
X118000000Y-69709090D03*
X118000000Y-72250908D03*
X118000000Y-74792726D03*
X118000000Y-77334544D03*
X118000000Y-79876362D03*
X118000000Y-82418180D03*
X118000000Y-84959998D03*
D20*
X137940000Y-62250000D03*
X137940000Y-65750000D03*
X137940000Y-69250000D03*
X137940000Y-72750000D03*
X137940000Y-76250000D03*
X137940000Y-79750000D03*
D18*
X135780000Y-84959998D03*
X133240000Y-84959998D03*
X151540000Y-57000000D03*
X149000000Y-57000000D03*
X149000000Y-59541818D03*
X149000000Y-62083636D03*
D19*
X149000000Y-64625454D03*
X149000000Y-67167272D03*
D18*
X149000000Y-69709090D03*
X149000000Y-72250908D03*
X149000000Y-74792726D03*
X149000000Y-77334544D03*
X149000000Y-79876362D03*
X149000000Y-82418180D03*
X149000000Y-84959998D03*
D20*
X168940000Y-62250000D03*
X168940000Y-65750000D03*
X168940000Y-69250000D03*
X168940000Y-72750000D03*
X168940000Y-76250000D03*
X168940000Y-79750000D03*
D18*
X166780000Y-84959998D03*
X164240000Y-84959998D03*
D21*
X144775000Y-106850000D03*
X145425000Y-106850000D03*
X146075000Y-106850000D03*
X146725000Y-106850000D03*
X147375000Y-106850000D03*
X148025000Y-106850000D03*
X148675000Y-106850000D03*
X149325000Y-106850000D03*
X149975000Y-106850000D03*
X150625000Y-106850000D03*
X151275000Y-106850000D03*
X151925000Y-106850000D03*
X152575000Y-106850000D03*
X153225000Y-106850000D03*
X153225000Y-101150000D03*
X152575000Y-101150000D03*
X151925000Y-101150000D03*
X151275000Y-101150000D03*
X150625000Y-101150000D03*
X149975000Y-101150000D03*
X149325000Y-101150000D03*
X148675000Y-101150000D03*
X148025000Y-101150000D03*
X147375000Y-101150000D03*
X146725000Y-101150000D03*
X146075000Y-101150000D03*
X145425000Y-101150000D03*
X144775000Y-101150000D03*
D14*
X175000000Y-117500000D03*
D15*
X177540000Y-117500000D03*
M02*
