G04 #@! TF.FileFunction,Copper,L2,Inr,Plane*
%FSLAX46Y46*%
G04 Gerber Fmt 4.6, Leading zero omitted, Abs format (unit mm)*
G04 Created by KiCad (PCBNEW 4.0.7) date 03/14/18 22:29:54*
%MOMM*%
%LPD*%
G01*
G04 APERTURE LIST*
%ADD10C,0.100000*%
%ADD11R,1.600000X1.600000*%
%ADD12O,1.600000X1.600000*%
%ADD13R,1.700000X1.700000*%
%ADD14O,1.700000X1.700000*%
%ADD15C,1.850000*%
%ADD16C,1.524000*%
%ADD17C,2.500000*%
%ADD18C,2.000000*%
%ADD19C,0.600000*%
%ADD20C,0.254000*%
G04 APERTURE END LIST*
D10*
D11*
X180000000Y-57000000D03*
D12*
X192700000Y-74780000D03*
X180000000Y-59540000D03*
X192700000Y-72240000D03*
X180000000Y-62080000D03*
X192700000Y-69700000D03*
X180000000Y-64620000D03*
X192700000Y-67160000D03*
X180000000Y-67160000D03*
X192700000Y-64620000D03*
X180000000Y-69700000D03*
X192700000Y-62080000D03*
X180000000Y-72240000D03*
X192700000Y-59540000D03*
X180000000Y-74780000D03*
X192700000Y-57000000D03*
D11*
X197000000Y-57000000D03*
D12*
X209700000Y-74780000D03*
X197000000Y-59540000D03*
X209700000Y-72240000D03*
X197000000Y-62080000D03*
X209700000Y-69700000D03*
X197000000Y-64620000D03*
X209700000Y-67160000D03*
X197000000Y-67160000D03*
X209700000Y-64620000D03*
X197000000Y-69700000D03*
X209700000Y-62080000D03*
X197000000Y-72240000D03*
X209700000Y-59540000D03*
X197000000Y-74780000D03*
X209700000Y-57000000D03*
D11*
X214000000Y-57000000D03*
D12*
X226700000Y-74780000D03*
X214000000Y-59540000D03*
X226700000Y-72240000D03*
X214000000Y-62080000D03*
X226700000Y-69700000D03*
X214000000Y-64620000D03*
X226700000Y-67160000D03*
X214000000Y-67160000D03*
X226700000Y-64620000D03*
X214000000Y-69700000D03*
X226700000Y-62080000D03*
X214000000Y-72240000D03*
X226700000Y-59540000D03*
X214000000Y-74780000D03*
X226700000Y-57000000D03*
D11*
X231000000Y-57000000D03*
D12*
X243700000Y-74780000D03*
X231000000Y-59540000D03*
X243700000Y-72240000D03*
X231000000Y-62080000D03*
X243700000Y-69700000D03*
X231000000Y-64620000D03*
X243700000Y-67160000D03*
X231000000Y-67160000D03*
X243700000Y-64620000D03*
X231000000Y-69700000D03*
X243700000Y-62080000D03*
X231000000Y-72240000D03*
X243700000Y-59540000D03*
X231000000Y-74780000D03*
X243700000Y-57000000D03*
D13*
X180000000Y-50000000D03*
D14*
X182540000Y-50000000D03*
X185080000Y-50000000D03*
X187620000Y-50000000D03*
D13*
X197000000Y-50000000D03*
D14*
X199540000Y-50000000D03*
X202080000Y-50000000D03*
X204620000Y-50000000D03*
D13*
X214000000Y-50000000D03*
D14*
X216540000Y-50000000D03*
X219080000Y-50000000D03*
X221620000Y-50000000D03*
D13*
X231000000Y-50000000D03*
D14*
X233540000Y-50000000D03*
X236080000Y-50000000D03*
X238620000Y-50000000D03*
D13*
X125620000Y-50000000D03*
D14*
X123080000Y-50000000D03*
X120540000Y-50000000D03*
X118000000Y-50000000D03*
D13*
X156620000Y-50000000D03*
D14*
X154080000Y-50000000D03*
X151540000Y-50000000D03*
X149000000Y-50000000D03*
D13*
X206920000Y-117500000D03*
D14*
X209460000Y-117500000D03*
X212000000Y-117500000D03*
X214540000Y-117500000D03*
X217080000Y-117500000D03*
X219620000Y-117500000D03*
X222160000Y-117500000D03*
X224700000Y-117500000D03*
X227240000Y-117500000D03*
X229780000Y-117500000D03*
X232320000Y-117500000D03*
X234860000Y-117500000D03*
D13*
X244000000Y-100460000D03*
D14*
X244000000Y-103000000D03*
X244000000Y-105540000D03*
X244000000Y-108080000D03*
X244000000Y-110620000D03*
D13*
X244000000Y-81920000D03*
D14*
X244000000Y-84460000D03*
X244000000Y-87000000D03*
X244000000Y-89540000D03*
X244000000Y-92080000D03*
X244000000Y-94620000D03*
D13*
X186920000Y-117500000D03*
D14*
X189460000Y-117500000D03*
X192000000Y-117500000D03*
X194540000Y-117500000D03*
X197080000Y-117500000D03*
X199620000Y-117500000D03*
D13*
X145380000Y-115900000D03*
D14*
X147920000Y-115900000D03*
X150460000Y-115900000D03*
X153000000Y-115900000D03*
X155540000Y-115900000D03*
X158080000Y-115900000D03*
X160620000Y-115900000D03*
X163160000Y-115900000D03*
D13*
X145380000Y-118440000D03*
D14*
X147920000Y-118440000D03*
X150460000Y-118440000D03*
X153000000Y-118440000D03*
X155540000Y-118440000D03*
X158080000Y-118440000D03*
X160620000Y-118440000D03*
X163160000Y-118440000D03*
D13*
X132500000Y-117500000D03*
D14*
X135040000Y-117500000D03*
D13*
X145380000Y-113360000D03*
D14*
X147920000Y-113360000D03*
X150460000Y-113360000D03*
X153000000Y-113360000D03*
X155540000Y-113360000D03*
X158080000Y-113360000D03*
X160620000Y-113360000D03*
X163160000Y-113360000D03*
D15*
X120540000Y-57000000D03*
X118000000Y-57000000D03*
X118000000Y-59541818D03*
X118000000Y-62083636D03*
D16*
X118000000Y-64625454D03*
X118000000Y-67167272D03*
D15*
X118000000Y-69709090D03*
X118000000Y-72250908D03*
X118000000Y-74792726D03*
X118000000Y-77334544D03*
X118000000Y-79876362D03*
X118000000Y-82418180D03*
X118000000Y-84959998D03*
D17*
X137940000Y-62250000D03*
X137940000Y-65750000D03*
X137940000Y-69250000D03*
X137940000Y-72750000D03*
X137940000Y-76250000D03*
X137940000Y-79750000D03*
D15*
X135780000Y-84959998D03*
X133240000Y-84959998D03*
X151540000Y-57000000D03*
X149000000Y-57000000D03*
X149000000Y-59541818D03*
X149000000Y-62083636D03*
D16*
X149000000Y-64625454D03*
X149000000Y-67167272D03*
D15*
X149000000Y-69709090D03*
X149000000Y-72250908D03*
X149000000Y-74792726D03*
X149000000Y-77334544D03*
X149000000Y-79876362D03*
X149000000Y-82418180D03*
X149000000Y-84959998D03*
D17*
X168940000Y-62250000D03*
X168940000Y-65750000D03*
X168940000Y-69250000D03*
X168940000Y-72750000D03*
X168940000Y-76250000D03*
X168940000Y-79750000D03*
D15*
X166780000Y-84959998D03*
X164240000Y-84959998D03*
D13*
X175000000Y-117500000D03*
D14*
X177540000Y-117500000D03*
D18*
X120000000Y-117000000D03*
X120000000Y-115000000D03*
X120000000Y-113000000D03*
X120000000Y-111000000D03*
X120000000Y-109000000D03*
D19*
X147400000Y-105600000D03*
X147700000Y-101150000D03*
X177400000Y-85434989D03*
X177504438Y-81324989D03*
X177500000Y-92275041D03*
X177500000Y-89000000D03*
D18*
X134000000Y-97000000D03*
X132000000Y-97000000D03*
X130000000Y-97000000D03*
X128000000Y-97250000D03*
X126000000Y-97250000D03*
D19*
X178484325Y-85434989D03*
X179000000Y-81275010D03*
X178700000Y-88900000D03*
X178700000Y-92300000D03*
X213000000Y-76700000D03*
X197400000Y-98000000D03*
X209500000Y-77100000D03*
X201700000Y-93600000D03*
X210500000Y-77700000D03*
X198000000Y-98700000D03*
X202700000Y-94100000D03*
X227000000Y-77574968D03*
X213300000Y-77574968D03*
X230000000Y-77200000D03*
X192300000Y-82500000D03*
X231000000Y-86000000D03*
X191358485Y-82619890D03*
X231100000Y-86900000D03*
X191932293Y-83850012D03*
X231041741Y-87748987D03*
X192376175Y-84574918D03*
X145300000Y-87935029D03*
X148800000Y-87935044D03*
X150500000Y-84000000D03*
X151578965Y-82852958D03*
X230985267Y-88597120D03*
X192026153Y-85349517D03*
X230882902Y-89440945D03*
X231000000Y-78700000D03*
X230700000Y-79600000D03*
X230700000Y-80600000D03*
X230699986Y-81600000D03*
X230700000Y-82600000D03*
X231100000Y-84800000D03*
X118000000Y-93000000D03*
X118100000Y-90100000D03*
X148200000Y-88800000D03*
X147799990Y-92300000D03*
D20*
G36*
X250290000Y-121290000D02*
X111710000Y-121290000D01*
X111710000Y-109323795D01*
X118364716Y-109323795D01*
X118613106Y-109924943D01*
X118687759Y-109999727D01*
X118614722Y-110072637D01*
X118365284Y-110673352D01*
X118364716Y-111323795D01*
X118613106Y-111924943D01*
X118687759Y-111999727D01*
X118614722Y-112072637D01*
X118365284Y-112673352D01*
X118364716Y-113323795D01*
X118613106Y-113924943D01*
X118687759Y-113999727D01*
X118614722Y-114072637D01*
X118365284Y-114673352D01*
X118364716Y-115323795D01*
X118613106Y-115924943D01*
X118687759Y-115999727D01*
X118614722Y-116072637D01*
X118365284Y-116673352D01*
X118364716Y-117323795D01*
X118613106Y-117924943D01*
X119072637Y-118385278D01*
X119673352Y-118634716D01*
X120323795Y-118635284D01*
X120924943Y-118386894D01*
X121385278Y-117927363D01*
X121634716Y-117326648D01*
X121635284Y-116676205D01*
X121624457Y-116650000D01*
X131002560Y-116650000D01*
X131002560Y-118350000D01*
X131046838Y-118585317D01*
X131185910Y-118801441D01*
X131398110Y-118946431D01*
X131650000Y-118997440D01*
X133350000Y-118997440D01*
X133585317Y-118953162D01*
X133801441Y-118814090D01*
X133946431Y-118601890D01*
X133960086Y-118534459D01*
X133989946Y-118579147D01*
X134471715Y-118901054D01*
X135040000Y-119014093D01*
X135608285Y-118901054D01*
X136090054Y-118579147D01*
X136411961Y-118097378D01*
X136525000Y-117529093D01*
X136525000Y-117470907D01*
X136411961Y-116902622D01*
X136090054Y-116420853D01*
X135608285Y-116098946D01*
X135040000Y-115985907D01*
X134471715Y-116098946D01*
X133989946Y-116420853D01*
X133962150Y-116462452D01*
X133953162Y-116414683D01*
X133814090Y-116198559D01*
X133601890Y-116053569D01*
X133350000Y-116002560D01*
X131650000Y-116002560D01*
X131414683Y-116046838D01*
X131198559Y-116185910D01*
X131053569Y-116398110D01*
X131002560Y-116650000D01*
X121624457Y-116650000D01*
X121386894Y-116075057D01*
X121312241Y-116000273D01*
X121385278Y-115927363D01*
X121634716Y-115326648D01*
X121635284Y-114676205D01*
X121386894Y-114075057D01*
X121312241Y-114000273D01*
X121385278Y-113927363D01*
X121634716Y-113326648D01*
X121635284Y-112676205D01*
X121566610Y-112510000D01*
X143882560Y-112510000D01*
X143882560Y-114210000D01*
X143926838Y-114445317D01*
X144047015Y-114632077D01*
X143933569Y-114798110D01*
X143882560Y-115050000D01*
X143882560Y-116750000D01*
X143926838Y-116985317D01*
X144047015Y-117172077D01*
X143933569Y-117338110D01*
X143882560Y-117590000D01*
X143882560Y-119290000D01*
X143926838Y-119525317D01*
X144065910Y-119741441D01*
X144278110Y-119886431D01*
X144530000Y-119937440D01*
X146230000Y-119937440D01*
X146465317Y-119893162D01*
X146681441Y-119754090D01*
X146826431Y-119541890D01*
X146840086Y-119474459D01*
X146869946Y-119519147D01*
X147351715Y-119841054D01*
X147920000Y-119954093D01*
X148488285Y-119841054D01*
X148970054Y-119519147D01*
X149190000Y-119189974D01*
X149409946Y-119519147D01*
X149891715Y-119841054D01*
X150460000Y-119954093D01*
X151028285Y-119841054D01*
X151510054Y-119519147D01*
X151730000Y-119189974D01*
X151949946Y-119519147D01*
X152431715Y-119841054D01*
X153000000Y-119954093D01*
X153568285Y-119841054D01*
X154050054Y-119519147D01*
X154270000Y-119189974D01*
X154489946Y-119519147D01*
X154971715Y-119841054D01*
X155540000Y-119954093D01*
X156108285Y-119841054D01*
X156590054Y-119519147D01*
X156810000Y-119189974D01*
X157029946Y-119519147D01*
X157511715Y-119841054D01*
X158080000Y-119954093D01*
X158648285Y-119841054D01*
X159130054Y-119519147D01*
X159350000Y-119189974D01*
X159569946Y-119519147D01*
X160051715Y-119841054D01*
X160620000Y-119954093D01*
X161188285Y-119841054D01*
X161670054Y-119519147D01*
X161890000Y-119189974D01*
X162109946Y-119519147D01*
X162591715Y-119841054D01*
X163160000Y-119954093D01*
X163728285Y-119841054D01*
X164210054Y-119519147D01*
X164531961Y-119037378D01*
X164645000Y-118469093D01*
X164645000Y-118410907D01*
X164531961Y-117842622D01*
X164210054Y-117360853D01*
X163924422Y-117170000D01*
X164210054Y-116979147D01*
X164429982Y-116650000D01*
X173502560Y-116650000D01*
X173502560Y-118350000D01*
X173546838Y-118585317D01*
X173685910Y-118801441D01*
X173898110Y-118946431D01*
X174150000Y-118997440D01*
X175850000Y-118997440D01*
X176085317Y-118953162D01*
X176301441Y-118814090D01*
X176446431Y-118601890D01*
X176460086Y-118534459D01*
X176489946Y-118579147D01*
X176971715Y-118901054D01*
X177540000Y-119014093D01*
X178108285Y-118901054D01*
X178590054Y-118579147D01*
X178911961Y-118097378D01*
X179025000Y-117529093D01*
X179025000Y-117470907D01*
X178911961Y-116902622D01*
X178743165Y-116650000D01*
X185422560Y-116650000D01*
X185422560Y-118350000D01*
X185466838Y-118585317D01*
X185605910Y-118801441D01*
X185818110Y-118946431D01*
X186070000Y-118997440D01*
X187770000Y-118997440D01*
X188005317Y-118953162D01*
X188221441Y-118814090D01*
X188366431Y-118601890D01*
X188380086Y-118534459D01*
X188409946Y-118579147D01*
X188891715Y-118901054D01*
X189460000Y-119014093D01*
X190028285Y-118901054D01*
X190510054Y-118579147D01*
X190730000Y-118249974D01*
X190949946Y-118579147D01*
X191431715Y-118901054D01*
X192000000Y-119014093D01*
X192568285Y-118901054D01*
X193050054Y-118579147D01*
X193270000Y-118249974D01*
X193489946Y-118579147D01*
X193971715Y-118901054D01*
X194540000Y-119014093D01*
X195108285Y-118901054D01*
X195590054Y-118579147D01*
X195810000Y-118249974D01*
X196029946Y-118579147D01*
X196511715Y-118901054D01*
X197080000Y-119014093D01*
X197648285Y-118901054D01*
X198130054Y-118579147D01*
X198350000Y-118249974D01*
X198569946Y-118579147D01*
X199051715Y-118901054D01*
X199620000Y-119014093D01*
X200188285Y-118901054D01*
X200670054Y-118579147D01*
X200991961Y-118097378D01*
X201105000Y-117529093D01*
X201105000Y-117470907D01*
X200991961Y-116902622D01*
X200823165Y-116650000D01*
X205422560Y-116650000D01*
X205422560Y-118350000D01*
X205466838Y-118585317D01*
X205605910Y-118801441D01*
X205818110Y-118946431D01*
X206070000Y-118997440D01*
X207770000Y-118997440D01*
X208005317Y-118953162D01*
X208221441Y-118814090D01*
X208366431Y-118601890D01*
X208380086Y-118534459D01*
X208409946Y-118579147D01*
X208891715Y-118901054D01*
X209460000Y-119014093D01*
X210028285Y-118901054D01*
X210510054Y-118579147D01*
X210730000Y-118249974D01*
X210949946Y-118579147D01*
X211431715Y-118901054D01*
X212000000Y-119014093D01*
X212568285Y-118901054D01*
X213050054Y-118579147D01*
X213270000Y-118249974D01*
X213489946Y-118579147D01*
X213971715Y-118901054D01*
X214540000Y-119014093D01*
X215108285Y-118901054D01*
X215590054Y-118579147D01*
X215810000Y-118249974D01*
X216029946Y-118579147D01*
X216511715Y-118901054D01*
X217080000Y-119014093D01*
X217648285Y-118901054D01*
X218130054Y-118579147D01*
X218350000Y-118249974D01*
X218569946Y-118579147D01*
X219051715Y-118901054D01*
X219620000Y-119014093D01*
X220188285Y-118901054D01*
X220670054Y-118579147D01*
X220890000Y-118249974D01*
X221109946Y-118579147D01*
X221591715Y-118901054D01*
X222160000Y-119014093D01*
X222728285Y-118901054D01*
X223210054Y-118579147D01*
X223430000Y-118249974D01*
X223649946Y-118579147D01*
X224131715Y-118901054D01*
X224700000Y-119014093D01*
X225268285Y-118901054D01*
X225750054Y-118579147D01*
X225970000Y-118249974D01*
X226189946Y-118579147D01*
X226671715Y-118901054D01*
X227240000Y-119014093D01*
X227808285Y-118901054D01*
X228290054Y-118579147D01*
X228510000Y-118249974D01*
X228729946Y-118579147D01*
X229211715Y-118901054D01*
X229780000Y-119014093D01*
X230348285Y-118901054D01*
X230830054Y-118579147D01*
X231050000Y-118249974D01*
X231269946Y-118579147D01*
X231751715Y-118901054D01*
X232320000Y-119014093D01*
X232888285Y-118901054D01*
X233370054Y-118579147D01*
X233590000Y-118249974D01*
X233809946Y-118579147D01*
X234291715Y-118901054D01*
X234860000Y-119014093D01*
X235428285Y-118901054D01*
X235910054Y-118579147D01*
X236231961Y-118097378D01*
X236345000Y-117529093D01*
X236345000Y-117470907D01*
X236231961Y-116902622D01*
X235910054Y-116420853D01*
X235428285Y-116098946D01*
X234860000Y-115985907D01*
X234291715Y-116098946D01*
X233809946Y-116420853D01*
X233590000Y-116750026D01*
X233370054Y-116420853D01*
X232888285Y-116098946D01*
X232320000Y-115985907D01*
X231751715Y-116098946D01*
X231269946Y-116420853D01*
X231050000Y-116750026D01*
X230830054Y-116420853D01*
X230348285Y-116098946D01*
X229780000Y-115985907D01*
X229211715Y-116098946D01*
X228729946Y-116420853D01*
X228510000Y-116750026D01*
X228290054Y-116420853D01*
X227808285Y-116098946D01*
X227240000Y-115985907D01*
X226671715Y-116098946D01*
X226189946Y-116420853D01*
X225970000Y-116750026D01*
X225750054Y-116420853D01*
X225268285Y-116098946D01*
X224700000Y-115985907D01*
X224131715Y-116098946D01*
X223649946Y-116420853D01*
X223430000Y-116750026D01*
X223210054Y-116420853D01*
X222728285Y-116098946D01*
X222160000Y-115985907D01*
X221591715Y-116098946D01*
X221109946Y-116420853D01*
X220890000Y-116750026D01*
X220670054Y-116420853D01*
X220188285Y-116098946D01*
X219620000Y-115985907D01*
X219051715Y-116098946D01*
X218569946Y-116420853D01*
X218350000Y-116750026D01*
X218130054Y-116420853D01*
X217648285Y-116098946D01*
X217080000Y-115985907D01*
X216511715Y-116098946D01*
X216029946Y-116420853D01*
X215810000Y-116750026D01*
X215590054Y-116420853D01*
X215108285Y-116098946D01*
X214540000Y-115985907D01*
X213971715Y-116098946D01*
X213489946Y-116420853D01*
X213270000Y-116750026D01*
X213050054Y-116420853D01*
X212568285Y-116098946D01*
X212000000Y-115985907D01*
X211431715Y-116098946D01*
X210949946Y-116420853D01*
X210730000Y-116750026D01*
X210510054Y-116420853D01*
X210028285Y-116098946D01*
X209460000Y-115985907D01*
X208891715Y-116098946D01*
X208409946Y-116420853D01*
X208382150Y-116462452D01*
X208373162Y-116414683D01*
X208234090Y-116198559D01*
X208021890Y-116053569D01*
X207770000Y-116002560D01*
X206070000Y-116002560D01*
X205834683Y-116046838D01*
X205618559Y-116185910D01*
X205473569Y-116398110D01*
X205422560Y-116650000D01*
X200823165Y-116650000D01*
X200670054Y-116420853D01*
X200188285Y-116098946D01*
X199620000Y-115985907D01*
X199051715Y-116098946D01*
X198569946Y-116420853D01*
X198350000Y-116750026D01*
X198130054Y-116420853D01*
X197648285Y-116098946D01*
X197080000Y-115985907D01*
X196511715Y-116098946D01*
X196029946Y-116420853D01*
X195810000Y-116750026D01*
X195590054Y-116420853D01*
X195108285Y-116098946D01*
X194540000Y-115985907D01*
X193971715Y-116098946D01*
X193489946Y-116420853D01*
X193270000Y-116750026D01*
X193050054Y-116420853D01*
X192568285Y-116098946D01*
X192000000Y-115985907D01*
X191431715Y-116098946D01*
X190949946Y-116420853D01*
X190730000Y-116750026D01*
X190510054Y-116420853D01*
X190028285Y-116098946D01*
X189460000Y-115985907D01*
X188891715Y-116098946D01*
X188409946Y-116420853D01*
X188382150Y-116462452D01*
X188373162Y-116414683D01*
X188234090Y-116198559D01*
X188021890Y-116053569D01*
X187770000Y-116002560D01*
X186070000Y-116002560D01*
X185834683Y-116046838D01*
X185618559Y-116185910D01*
X185473569Y-116398110D01*
X185422560Y-116650000D01*
X178743165Y-116650000D01*
X178590054Y-116420853D01*
X178108285Y-116098946D01*
X177540000Y-115985907D01*
X176971715Y-116098946D01*
X176489946Y-116420853D01*
X176462150Y-116462452D01*
X176453162Y-116414683D01*
X176314090Y-116198559D01*
X176101890Y-116053569D01*
X175850000Y-116002560D01*
X174150000Y-116002560D01*
X173914683Y-116046838D01*
X173698559Y-116185910D01*
X173553569Y-116398110D01*
X173502560Y-116650000D01*
X164429982Y-116650000D01*
X164531961Y-116497378D01*
X164645000Y-115929093D01*
X164645000Y-115870907D01*
X164531961Y-115302622D01*
X164210054Y-114820853D01*
X163924422Y-114630000D01*
X164210054Y-114439147D01*
X164531961Y-113957378D01*
X164645000Y-113389093D01*
X164645000Y-113330907D01*
X164531961Y-112762622D01*
X164210054Y-112280853D01*
X163728285Y-111958946D01*
X163160000Y-111845907D01*
X162591715Y-111958946D01*
X162109946Y-112280853D01*
X161890000Y-112610026D01*
X161670054Y-112280853D01*
X161188285Y-111958946D01*
X160620000Y-111845907D01*
X160051715Y-111958946D01*
X159569946Y-112280853D01*
X159350000Y-112610026D01*
X159130054Y-112280853D01*
X158648285Y-111958946D01*
X158080000Y-111845907D01*
X157511715Y-111958946D01*
X157029946Y-112280853D01*
X156810000Y-112610026D01*
X156590054Y-112280853D01*
X156108285Y-111958946D01*
X155540000Y-111845907D01*
X154971715Y-111958946D01*
X154489946Y-112280853D01*
X154270000Y-112610026D01*
X154050054Y-112280853D01*
X153568285Y-111958946D01*
X153000000Y-111845907D01*
X152431715Y-111958946D01*
X151949946Y-112280853D01*
X151730000Y-112610026D01*
X151510054Y-112280853D01*
X151028285Y-111958946D01*
X150460000Y-111845907D01*
X149891715Y-111958946D01*
X149409946Y-112280853D01*
X149190000Y-112610026D01*
X148970054Y-112280853D01*
X148488285Y-111958946D01*
X147920000Y-111845907D01*
X147351715Y-111958946D01*
X146869946Y-112280853D01*
X146842150Y-112322452D01*
X146833162Y-112274683D01*
X146694090Y-112058559D01*
X146481890Y-111913569D01*
X146230000Y-111862560D01*
X144530000Y-111862560D01*
X144294683Y-111906838D01*
X144078559Y-112045910D01*
X143933569Y-112258110D01*
X143882560Y-112510000D01*
X121566610Y-112510000D01*
X121386894Y-112075057D01*
X121312241Y-112000273D01*
X121385278Y-111927363D01*
X121634716Y-111326648D01*
X121635284Y-110676205D01*
X121386894Y-110075057D01*
X121312241Y-110000273D01*
X121385278Y-109927363D01*
X121634716Y-109326648D01*
X121635284Y-108676205D01*
X121386894Y-108075057D01*
X120927363Y-107614722D01*
X120326648Y-107365284D01*
X119676205Y-107364716D01*
X119075057Y-107613106D01*
X118614722Y-108072637D01*
X118365284Y-108673352D01*
X118364716Y-109323795D01*
X111710000Y-109323795D01*
X111710000Y-105785167D01*
X146464838Y-105785167D01*
X146606883Y-106128943D01*
X146869673Y-106392192D01*
X147213201Y-106534838D01*
X147585167Y-106535162D01*
X147928943Y-106393117D01*
X148192192Y-106130327D01*
X148334838Y-105786799D01*
X148335162Y-105414833D01*
X148193117Y-105071057D01*
X147930327Y-104807808D01*
X147586799Y-104665162D01*
X147214833Y-104664838D01*
X146871057Y-104806883D01*
X146607808Y-105069673D01*
X146465162Y-105413201D01*
X146464838Y-105785167D01*
X111710000Y-105785167D01*
X111710000Y-103000000D01*
X242485907Y-103000000D01*
X242598946Y-103568285D01*
X242920853Y-104050054D01*
X243250026Y-104270000D01*
X242920853Y-104489946D01*
X242598946Y-104971715D01*
X242485907Y-105540000D01*
X242598946Y-106108285D01*
X242920853Y-106590054D01*
X243250026Y-106810000D01*
X242920853Y-107029946D01*
X242598946Y-107511715D01*
X242485907Y-108080000D01*
X242598946Y-108648285D01*
X242920853Y-109130054D01*
X243250026Y-109350000D01*
X242920853Y-109569946D01*
X242598946Y-110051715D01*
X242485907Y-110620000D01*
X242598946Y-111188285D01*
X242920853Y-111670054D01*
X243402622Y-111991961D01*
X243970907Y-112105000D01*
X244029093Y-112105000D01*
X244597378Y-111991961D01*
X245079147Y-111670054D01*
X245401054Y-111188285D01*
X245514093Y-110620000D01*
X245401054Y-110051715D01*
X245079147Y-109569946D01*
X244749974Y-109350000D01*
X245079147Y-109130054D01*
X245401054Y-108648285D01*
X245514093Y-108080000D01*
X245401054Y-107511715D01*
X245079147Y-107029946D01*
X244749974Y-106810000D01*
X245079147Y-106590054D01*
X245401054Y-106108285D01*
X245514093Y-105540000D01*
X245401054Y-104971715D01*
X245079147Y-104489946D01*
X244749974Y-104270000D01*
X245079147Y-104050054D01*
X245401054Y-103568285D01*
X245514093Y-103000000D01*
X245401054Y-102431715D01*
X245079147Y-101949946D01*
X245037548Y-101922150D01*
X245085317Y-101913162D01*
X245301441Y-101774090D01*
X245446431Y-101561890D01*
X245497440Y-101310000D01*
X245497440Y-99610000D01*
X245453162Y-99374683D01*
X245314090Y-99158559D01*
X245101890Y-99013569D01*
X244850000Y-98962560D01*
X243150000Y-98962560D01*
X242914683Y-99006838D01*
X242698559Y-99145910D01*
X242553569Y-99358110D01*
X242502560Y-99610000D01*
X242502560Y-101310000D01*
X242546838Y-101545317D01*
X242685910Y-101761441D01*
X242898110Y-101906431D01*
X242965541Y-101920086D01*
X242920853Y-101949946D01*
X242598946Y-102431715D01*
X242485907Y-103000000D01*
X111710000Y-103000000D01*
X111710000Y-101335167D01*
X146764838Y-101335167D01*
X146906883Y-101678943D01*
X147169673Y-101942192D01*
X147513201Y-102084838D01*
X147885167Y-102085162D01*
X148228943Y-101943117D01*
X148492192Y-101680327D01*
X148634838Y-101336799D01*
X148635162Y-100964833D01*
X148493117Y-100621057D01*
X148230327Y-100357808D01*
X147886799Y-100215162D01*
X147514833Y-100214838D01*
X147171057Y-100356883D01*
X146907808Y-100619673D01*
X146765162Y-100963201D01*
X146764838Y-101335167D01*
X111710000Y-101335167D01*
X111710000Y-98185167D01*
X196464838Y-98185167D01*
X196606883Y-98528943D01*
X196869673Y-98792192D01*
X197064848Y-98873236D01*
X197064838Y-98885167D01*
X197206883Y-99228943D01*
X197469673Y-99492192D01*
X197813201Y-99634838D01*
X198185167Y-99635162D01*
X198528943Y-99493117D01*
X198792192Y-99230327D01*
X198934838Y-98886799D01*
X198935162Y-98514833D01*
X198793117Y-98171057D01*
X198530327Y-97907808D01*
X198335152Y-97826764D01*
X198335162Y-97814833D01*
X198193117Y-97471057D01*
X197930327Y-97207808D01*
X197586799Y-97065162D01*
X197214833Y-97064838D01*
X196871057Y-97206883D01*
X196607808Y-97469673D01*
X196465162Y-97813201D01*
X196464838Y-98185167D01*
X111710000Y-98185167D01*
X111710000Y-93185167D01*
X117064838Y-93185167D01*
X117206883Y-93528943D01*
X117469673Y-93792192D01*
X117813201Y-93934838D01*
X118185167Y-93935162D01*
X118528943Y-93793117D01*
X118536906Y-93785167D01*
X200764838Y-93785167D01*
X200906883Y-94128943D01*
X201169673Y-94392192D01*
X201513201Y-94534838D01*
X201868127Y-94535147D01*
X201906883Y-94628943D01*
X202169673Y-94892192D01*
X202513201Y-95034838D01*
X202885167Y-95035162D01*
X203228943Y-94893117D01*
X203492192Y-94630327D01*
X203634838Y-94286799D01*
X203635162Y-93914833D01*
X203493117Y-93571057D01*
X203230327Y-93307808D01*
X202886799Y-93165162D01*
X202531873Y-93164853D01*
X202493117Y-93071057D01*
X202230327Y-92807808D01*
X201886799Y-92665162D01*
X201514833Y-92664838D01*
X201171057Y-92806883D01*
X200907808Y-93069673D01*
X200765162Y-93413201D01*
X200764838Y-93785167D01*
X118536906Y-93785167D01*
X118792192Y-93530327D01*
X118934838Y-93186799D01*
X118935162Y-92814833D01*
X118798948Y-92485167D01*
X146864828Y-92485167D01*
X147006873Y-92828943D01*
X147269663Y-93092192D01*
X147613191Y-93234838D01*
X147985157Y-93235162D01*
X148328933Y-93093117D01*
X148592182Y-92830327D01*
X148734828Y-92486799D01*
X148734851Y-92460208D01*
X176564838Y-92460208D01*
X176706883Y-92803984D01*
X176969673Y-93067233D01*
X177313201Y-93209879D01*
X177685167Y-93210203D01*
X178028943Y-93068158D01*
X178087414Y-93009789D01*
X178169673Y-93092192D01*
X178513201Y-93234838D01*
X178885167Y-93235162D01*
X179228943Y-93093117D01*
X179492192Y-92830327D01*
X179634838Y-92486799D01*
X179635162Y-92114833D01*
X179493117Y-91771057D01*
X179230327Y-91507808D01*
X178886799Y-91365162D01*
X178514833Y-91364838D01*
X178171057Y-91506883D01*
X178112586Y-91565252D01*
X178030327Y-91482849D01*
X177686799Y-91340203D01*
X177314833Y-91339879D01*
X176971057Y-91481924D01*
X176707808Y-91744714D01*
X176565162Y-92088242D01*
X176564838Y-92460208D01*
X148734851Y-92460208D01*
X148735152Y-92114833D01*
X148593107Y-91771057D01*
X148330317Y-91507808D01*
X147986789Y-91365162D01*
X147614823Y-91364838D01*
X147271047Y-91506883D01*
X147007798Y-91769673D01*
X146865152Y-92113201D01*
X146864828Y-92485167D01*
X118798948Y-92485167D01*
X118793117Y-92471057D01*
X118530327Y-92207808D01*
X118186799Y-92065162D01*
X117814833Y-92064838D01*
X117471057Y-92206883D01*
X117207808Y-92469673D01*
X117065162Y-92813201D01*
X117064838Y-93185167D01*
X111710000Y-93185167D01*
X111710000Y-90285167D01*
X117164838Y-90285167D01*
X117306883Y-90628943D01*
X117569673Y-90892192D01*
X117913201Y-91034838D01*
X118285167Y-91035162D01*
X118628943Y-90893117D01*
X118892192Y-90630327D01*
X119034838Y-90286799D01*
X119035162Y-89914833D01*
X118893117Y-89571057D01*
X118630327Y-89307808D01*
X118286799Y-89165162D01*
X117914833Y-89164838D01*
X117571057Y-89306883D01*
X117307808Y-89569673D01*
X117165162Y-89913201D01*
X117164838Y-90285167D01*
X111710000Y-90285167D01*
X111710000Y-88985167D01*
X147264838Y-88985167D01*
X147406883Y-89328943D01*
X147669673Y-89592192D01*
X148013201Y-89734838D01*
X148385167Y-89735162D01*
X148728943Y-89593117D01*
X148992192Y-89330327D01*
X149052467Y-89185167D01*
X176564838Y-89185167D01*
X176706883Y-89528943D01*
X176969673Y-89792192D01*
X177313201Y-89934838D01*
X177685167Y-89935162D01*
X178028943Y-89793117D01*
X178149893Y-89672378D01*
X178169673Y-89692192D01*
X178513201Y-89834838D01*
X178885167Y-89835162D01*
X179228943Y-89693117D01*
X179296065Y-89626112D01*
X229947740Y-89626112D01*
X230089785Y-89969888D01*
X230352575Y-90233137D01*
X230696103Y-90375783D01*
X231068069Y-90376107D01*
X231411845Y-90234062D01*
X231675094Y-89971272D01*
X231817740Y-89627744D01*
X231818064Y-89255778D01*
X231768666Y-89136225D01*
X231777459Y-89127447D01*
X231920105Y-88783919D01*
X231920429Y-88411953D01*
X231849818Y-88241060D01*
X231976579Y-87935786D01*
X231976903Y-87563820D01*
X231907005Y-87394654D01*
X232034838Y-87086799D01*
X232035162Y-86714833D01*
X231893117Y-86371057D01*
X231868547Y-86346444D01*
X231934838Y-86186799D01*
X231935162Y-85814833D01*
X231793117Y-85471057D01*
X231772203Y-85450107D01*
X231892192Y-85330327D01*
X232034838Y-84986799D01*
X232035162Y-84614833D01*
X231971187Y-84460000D01*
X242485907Y-84460000D01*
X242598946Y-85028285D01*
X242920853Y-85510054D01*
X243250026Y-85730000D01*
X242920853Y-85949946D01*
X242598946Y-86431715D01*
X242485907Y-87000000D01*
X242598946Y-87568285D01*
X242920853Y-88050054D01*
X243250026Y-88270000D01*
X242920853Y-88489946D01*
X242598946Y-88971715D01*
X242485907Y-89540000D01*
X242598946Y-90108285D01*
X242920853Y-90590054D01*
X243250026Y-90810000D01*
X242920853Y-91029946D01*
X242598946Y-91511715D01*
X242485907Y-92080000D01*
X242598946Y-92648285D01*
X242920853Y-93130054D01*
X243250026Y-93350000D01*
X242920853Y-93569946D01*
X242598946Y-94051715D01*
X242485907Y-94620000D01*
X242598946Y-95188285D01*
X242920853Y-95670054D01*
X243402622Y-95991961D01*
X243970907Y-96105000D01*
X244029093Y-96105000D01*
X244597378Y-95991961D01*
X245079147Y-95670054D01*
X245401054Y-95188285D01*
X245514093Y-94620000D01*
X245401054Y-94051715D01*
X245079147Y-93569946D01*
X244749974Y-93350000D01*
X245079147Y-93130054D01*
X245401054Y-92648285D01*
X245514093Y-92080000D01*
X245401054Y-91511715D01*
X245079147Y-91029946D01*
X244749974Y-90810000D01*
X245079147Y-90590054D01*
X245401054Y-90108285D01*
X245514093Y-89540000D01*
X245401054Y-88971715D01*
X245079147Y-88489946D01*
X244749974Y-88270000D01*
X245079147Y-88050054D01*
X245401054Y-87568285D01*
X245514093Y-87000000D01*
X245401054Y-86431715D01*
X245079147Y-85949946D01*
X244749974Y-85730000D01*
X245079147Y-85510054D01*
X245401054Y-85028285D01*
X245514093Y-84460000D01*
X245401054Y-83891715D01*
X245079147Y-83409946D01*
X245037548Y-83382150D01*
X245085317Y-83373162D01*
X245301441Y-83234090D01*
X245446431Y-83021890D01*
X245497440Y-82770000D01*
X245497440Y-81070000D01*
X245453162Y-80834683D01*
X245314090Y-80618559D01*
X245101890Y-80473569D01*
X244850000Y-80422560D01*
X243150000Y-80422560D01*
X242914683Y-80466838D01*
X242698559Y-80605910D01*
X242553569Y-80818110D01*
X242502560Y-81070000D01*
X242502560Y-82770000D01*
X242546838Y-83005317D01*
X242685910Y-83221441D01*
X242898110Y-83366431D01*
X242965541Y-83380086D01*
X242920853Y-83409946D01*
X242598946Y-83891715D01*
X242485907Y-84460000D01*
X231971187Y-84460000D01*
X231893117Y-84271057D01*
X231630327Y-84007808D01*
X231286799Y-83865162D01*
X230914833Y-83864838D01*
X230571057Y-84006883D01*
X230307808Y-84269673D01*
X230165162Y-84613201D01*
X230164838Y-84985167D01*
X230306883Y-85328943D01*
X230327797Y-85349893D01*
X230207808Y-85469673D01*
X230065162Y-85813201D01*
X230064838Y-86185167D01*
X230206883Y-86528943D01*
X230231453Y-86553556D01*
X230165162Y-86713201D01*
X230164838Y-87085167D01*
X230234736Y-87254333D01*
X230106903Y-87562188D01*
X230106579Y-87934154D01*
X230177190Y-88105047D01*
X230050429Y-88410321D01*
X230050105Y-88782287D01*
X230099503Y-88901840D01*
X230090710Y-88910618D01*
X229948064Y-89254146D01*
X229947740Y-89626112D01*
X179296065Y-89626112D01*
X179492192Y-89430327D01*
X179634838Y-89086799D01*
X179635162Y-88714833D01*
X179493117Y-88371057D01*
X179230327Y-88107808D01*
X178886799Y-87965162D01*
X178514833Y-87964838D01*
X178171057Y-88106883D01*
X178050107Y-88227622D01*
X178030327Y-88207808D01*
X177686799Y-88065162D01*
X177314833Y-88064838D01*
X176971057Y-88206883D01*
X176707808Y-88469673D01*
X176565162Y-88813201D01*
X176564838Y-89185167D01*
X149052467Y-89185167D01*
X149134838Y-88986799D01*
X149134993Y-88808299D01*
X149328943Y-88728161D01*
X149592192Y-88465371D01*
X149734838Y-88121843D01*
X149735162Y-87749877D01*
X149593117Y-87406101D01*
X149330327Y-87142852D01*
X148986799Y-87000206D01*
X148614833Y-86999882D01*
X148271057Y-87141927D01*
X148007808Y-87404717D01*
X147865162Y-87748245D01*
X147865007Y-87926745D01*
X147671057Y-88006883D01*
X147407808Y-88269673D01*
X147265162Y-88613201D01*
X147264838Y-88985167D01*
X111710000Y-88985167D01*
X111710000Y-88120196D01*
X144364838Y-88120196D01*
X144506883Y-88463972D01*
X144769673Y-88727221D01*
X145113201Y-88869867D01*
X145485167Y-88870191D01*
X145828943Y-88728146D01*
X146092192Y-88465356D01*
X146234838Y-88121828D01*
X146235162Y-87749862D01*
X146093117Y-87406086D01*
X145830327Y-87142837D01*
X145486799Y-87000191D01*
X145114833Y-86999867D01*
X144771057Y-87141912D01*
X144507808Y-87404702D01*
X144365162Y-87748230D01*
X144364838Y-88120196D01*
X111710000Y-88120196D01*
X111710000Y-57308942D01*
X116439730Y-57308942D01*
X116676725Y-57882514D01*
X117064735Y-58271202D01*
X116678268Y-58656995D01*
X116440272Y-59230154D01*
X116439730Y-59850760D01*
X116676725Y-60424332D01*
X117064735Y-60813020D01*
X116678268Y-61198813D01*
X116440272Y-61771972D01*
X116439730Y-62392578D01*
X116676725Y-62966150D01*
X117115177Y-63405368D01*
X117206745Y-63443390D01*
X116816371Y-63833084D01*
X116603243Y-64346354D01*
X116602758Y-64902115D01*
X116814990Y-65415757D01*
X117207630Y-65809083D01*
X117417707Y-65896314D01*
X117209697Y-65982262D01*
X116816371Y-66374902D01*
X116603243Y-66888172D01*
X116602758Y-67443933D01*
X116814990Y-67957575D01*
X117205981Y-68349249D01*
X117117486Y-68385815D01*
X116678268Y-68824267D01*
X116440272Y-69397426D01*
X116439730Y-70018032D01*
X116676725Y-70591604D01*
X117064735Y-70980292D01*
X116678268Y-71366085D01*
X116440272Y-71939244D01*
X116439730Y-72559850D01*
X116676725Y-73133422D01*
X117064735Y-73522110D01*
X116678268Y-73907903D01*
X116440272Y-74481062D01*
X116439730Y-75101668D01*
X116676725Y-75675240D01*
X117064735Y-76063928D01*
X116678268Y-76449721D01*
X116440272Y-77022880D01*
X116439730Y-77643486D01*
X116676725Y-78217058D01*
X117064735Y-78605746D01*
X116678268Y-78991539D01*
X116440272Y-79564698D01*
X116439730Y-80185304D01*
X116676725Y-80758876D01*
X117064735Y-81147564D01*
X116678268Y-81533357D01*
X116440272Y-82106516D01*
X116439730Y-82727122D01*
X116676725Y-83300694D01*
X117064735Y-83689382D01*
X116678268Y-84075175D01*
X116440272Y-84648334D01*
X116439730Y-85268940D01*
X116676725Y-85842512D01*
X117115177Y-86281730D01*
X117688336Y-86519726D01*
X118308942Y-86520268D01*
X118882514Y-86283273D01*
X119321732Y-85844821D01*
X119559728Y-85271662D01*
X119559730Y-85268940D01*
X131679730Y-85268940D01*
X131916725Y-85842512D01*
X132355177Y-86281730D01*
X132928336Y-86519726D01*
X133548942Y-86520268D01*
X134122514Y-86283273D01*
X134510291Y-85896172D01*
X134895177Y-86281730D01*
X135468336Y-86519726D01*
X136088942Y-86520268D01*
X136662514Y-86283273D01*
X137101732Y-85844821D01*
X137339728Y-85271662D01*
X137340270Y-84651056D01*
X137103275Y-84077484D01*
X136664823Y-83638266D01*
X136091664Y-83400270D01*
X135471058Y-83399728D01*
X134897486Y-83636723D01*
X134509709Y-84023824D01*
X134124823Y-83638266D01*
X133551664Y-83400270D01*
X132931058Y-83399728D01*
X132357486Y-83636723D01*
X131918268Y-84075175D01*
X131680272Y-84648334D01*
X131679730Y-85268940D01*
X119559730Y-85268940D01*
X119560270Y-84651056D01*
X119323275Y-84077484D01*
X118935265Y-83688796D01*
X119321732Y-83303003D01*
X119559728Y-82729844D01*
X119560270Y-82109238D01*
X119323275Y-81535666D01*
X118935265Y-81146978D01*
X119321732Y-80761185D01*
X119559728Y-80188026D01*
X119560270Y-79567420D01*
X119323275Y-78993848D01*
X118935265Y-78605160D01*
X119321732Y-78219367D01*
X119559728Y-77646208D01*
X119560270Y-77025602D01*
X119323275Y-76452030D01*
X118935265Y-76063342D01*
X119321732Y-75677549D01*
X119559728Y-75104390D01*
X119560270Y-74483784D01*
X119323275Y-73910212D01*
X118935265Y-73521524D01*
X119321732Y-73135731D01*
X119559728Y-72562572D01*
X119560270Y-71941966D01*
X119323275Y-71368394D01*
X118935265Y-70979706D01*
X119321732Y-70593913D01*
X119559728Y-70020754D01*
X119560270Y-69400148D01*
X119323275Y-68826576D01*
X118884823Y-68387358D01*
X118793255Y-68349336D01*
X119183629Y-67959642D01*
X119396757Y-67446372D01*
X119397242Y-66890611D01*
X119185010Y-66376969D01*
X118931789Y-66123305D01*
X136054674Y-66123305D01*
X136341043Y-66816372D01*
X136870839Y-67347093D01*
X137239130Y-67500021D01*
X136873628Y-67651043D01*
X136342907Y-68180839D01*
X136055328Y-68873405D01*
X136054674Y-69623305D01*
X136341043Y-70316372D01*
X136870839Y-70847093D01*
X137239130Y-71000021D01*
X136873628Y-71151043D01*
X136342907Y-71680839D01*
X136055328Y-72373405D01*
X136054674Y-73123305D01*
X136341043Y-73816372D01*
X136870839Y-74347093D01*
X137239130Y-74500021D01*
X136873628Y-74651043D01*
X136342907Y-75180839D01*
X136055328Y-75873405D01*
X136054674Y-76623305D01*
X136341043Y-77316372D01*
X136870839Y-77847093D01*
X137239130Y-78000021D01*
X136873628Y-78151043D01*
X136342907Y-78680839D01*
X136055328Y-79373405D01*
X136054674Y-80123305D01*
X136341043Y-80816372D01*
X136870839Y-81347093D01*
X137563405Y-81634672D01*
X138313305Y-81635326D01*
X139006372Y-81348957D01*
X139537093Y-80819161D01*
X139824672Y-80126595D01*
X139825326Y-79376695D01*
X139538957Y-78683628D01*
X139009161Y-78152907D01*
X138640870Y-77999979D01*
X139006372Y-77848957D01*
X139537093Y-77319161D01*
X139824672Y-76626595D01*
X139825326Y-75876695D01*
X139538957Y-75183628D01*
X139009161Y-74652907D01*
X138640870Y-74499979D01*
X139006372Y-74348957D01*
X139537093Y-73819161D01*
X139824672Y-73126595D01*
X139825326Y-72376695D01*
X139538957Y-71683628D01*
X139009161Y-71152907D01*
X138640870Y-70999979D01*
X139006372Y-70848957D01*
X139537093Y-70319161D01*
X139824672Y-69626595D01*
X139825326Y-68876695D01*
X139538957Y-68183628D01*
X139009161Y-67652907D01*
X138640870Y-67499979D01*
X139006372Y-67348957D01*
X139537093Y-66819161D01*
X139824672Y-66126595D01*
X139825326Y-65376695D01*
X139538957Y-64683628D01*
X139009161Y-64152907D01*
X138653146Y-64005076D01*
X138964467Y-63876123D01*
X139093715Y-63583320D01*
X137940000Y-62429605D01*
X136786285Y-63583320D01*
X136915533Y-63876123D01*
X137239045Y-64000056D01*
X136873628Y-64151043D01*
X136342907Y-64680839D01*
X136055328Y-65373405D01*
X136054674Y-66123305D01*
X118931789Y-66123305D01*
X118792370Y-65983643D01*
X118582293Y-65896412D01*
X118790303Y-65810464D01*
X119183629Y-65417824D01*
X119396757Y-64904554D01*
X119397242Y-64348793D01*
X119185010Y-63835151D01*
X118794019Y-63443477D01*
X118882514Y-63406911D01*
X119321732Y-62968459D01*
X119559728Y-62395300D01*
X119560138Y-61925806D01*
X136045612Y-61925806D01*
X136065750Y-62675435D01*
X136313877Y-63274467D01*
X136606680Y-63403715D01*
X137760395Y-62250000D01*
X138119605Y-62250000D01*
X139273320Y-63403715D01*
X139566123Y-63274467D01*
X139834388Y-62574194D01*
X139814250Y-61824565D01*
X139566123Y-61225533D01*
X139273320Y-61096285D01*
X138119605Y-62250000D01*
X137760395Y-62250000D01*
X136606680Y-61096285D01*
X136313877Y-61225533D01*
X136045612Y-61925806D01*
X119560138Y-61925806D01*
X119560270Y-61774694D01*
X119323275Y-61201122D01*
X119039330Y-60916680D01*
X136786285Y-60916680D01*
X137940000Y-62070395D01*
X139093715Y-60916680D01*
X138964467Y-60623877D01*
X138264194Y-60355612D01*
X137514565Y-60375750D01*
X136915533Y-60623877D01*
X136786285Y-60916680D01*
X119039330Y-60916680D01*
X118935265Y-60812434D01*
X119321732Y-60426641D01*
X119559728Y-59853482D01*
X119560270Y-59232876D01*
X119323275Y-58659304D01*
X118935265Y-58270616D01*
X119270291Y-57936174D01*
X119655177Y-58321732D01*
X120228336Y-58559728D01*
X120848942Y-58560270D01*
X121422514Y-58323275D01*
X121861732Y-57884823D01*
X122099728Y-57311664D01*
X122099730Y-57308942D01*
X147439730Y-57308942D01*
X147676725Y-57882514D01*
X148064735Y-58271202D01*
X147678268Y-58656995D01*
X147440272Y-59230154D01*
X147439730Y-59850760D01*
X147676725Y-60424332D01*
X148064735Y-60813020D01*
X147678268Y-61198813D01*
X147440272Y-61771972D01*
X147439730Y-62392578D01*
X147676725Y-62966150D01*
X148115177Y-63405368D01*
X148206745Y-63443390D01*
X147816371Y-63833084D01*
X147603243Y-64346354D01*
X147602758Y-64902115D01*
X147814990Y-65415757D01*
X148207630Y-65809083D01*
X148417707Y-65896314D01*
X148209697Y-65982262D01*
X147816371Y-66374902D01*
X147603243Y-66888172D01*
X147602758Y-67443933D01*
X147814990Y-67957575D01*
X148205981Y-68349249D01*
X148117486Y-68385815D01*
X147678268Y-68824267D01*
X147440272Y-69397426D01*
X147439730Y-70018032D01*
X147676725Y-70591604D01*
X148064735Y-70980292D01*
X147678268Y-71366085D01*
X147440272Y-71939244D01*
X147439730Y-72559850D01*
X147676725Y-73133422D01*
X148064735Y-73522110D01*
X147678268Y-73907903D01*
X147440272Y-74481062D01*
X147439730Y-75101668D01*
X147676725Y-75675240D01*
X148064735Y-76063928D01*
X147678268Y-76449721D01*
X147440272Y-77022880D01*
X147439730Y-77643486D01*
X147676725Y-78217058D01*
X148064735Y-78605746D01*
X147678268Y-78991539D01*
X147440272Y-79564698D01*
X147439730Y-80185304D01*
X147676725Y-80758876D01*
X148064735Y-81147564D01*
X147678268Y-81533357D01*
X147440272Y-82106516D01*
X147439730Y-82727122D01*
X147676725Y-83300694D01*
X148064735Y-83689382D01*
X147678268Y-84075175D01*
X147440272Y-84648334D01*
X147439730Y-85268940D01*
X147676725Y-85842512D01*
X148115177Y-86281730D01*
X148688336Y-86519726D01*
X149308942Y-86520268D01*
X149882514Y-86283273D01*
X150321732Y-85844821D01*
X150559728Y-85271662D01*
X150559730Y-85268940D01*
X162679730Y-85268940D01*
X162916725Y-85842512D01*
X163355177Y-86281730D01*
X163928336Y-86519726D01*
X164548942Y-86520268D01*
X165122514Y-86283273D01*
X165510291Y-85896172D01*
X165895177Y-86281730D01*
X166468336Y-86519726D01*
X167088942Y-86520268D01*
X167662514Y-86283273D01*
X168101732Y-85844821D01*
X168195020Y-85620156D01*
X176464838Y-85620156D01*
X176606883Y-85963932D01*
X176869673Y-86227181D01*
X177213201Y-86369827D01*
X177585167Y-86370151D01*
X177928943Y-86228106D01*
X177941955Y-86215117D01*
X177953998Y-86227181D01*
X178297526Y-86369827D01*
X178669492Y-86370151D01*
X179013268Y-86228106D01*
X179276517Y-85965316D01*
X179419163Y-85621788D01*
X179419487Y-85249822D01*
X179277442Y-84906046D01*
X179014652Y-84642797D01*
X178671124Y-84500151D01*
X178299158Y-84499827D01*
X177955382Y-84641872D01*
X177942370Y-84654861D01*
X177930327Y-84642797D01*
X177586799Y-84500151D01*
X177214833Y-84499827D01*
X176871057Y-84641872D01*
X176607808Y-84904662D01*
X176465162Y-85248190D01*
X176464838Y-85620156D01*
X168195020Y-85620156D01*
X168339728Y-85271662D01*
X168340270Y-84651056D01*
X168103275Y-84077484D01*
X167664823Y-83638266D01*
X167091664Y-83400270D01*
X166471058Y-83399728D01*
X165897486Y-83636723D01*
X165509709Y-84023824D01*
X165124823Y-83638266D01*
X164551664Y-83400270D01*
X163931058Y-83399728D01*
X163357486Y-83636723D01*
X162918268Y-84075175D01*
X162680272Y-84648334D01*
X162679730Y-85268940D01*
X150559730Y-85268940D01*
X150560022Y-84935053D01*
X150685167Y-84935162D01*
X151028943Y-84793117D01*
X151292192Y-84530327D01*
X151434838Y-84186799D01*
X151435162Y-83814833D01*
X151424002Y-83787824D01*
X151764132Y-83788120D01*
X152107908Y-83646075D01*
X152371157Y-83383285D01*
X152513803Y-83039757D01*
X152514007Y-82805057D01*
X190423323Y-82805057D01*
X190565368Y-83148833D01*
X190828158Y-83412082D01*
X191061501Y-83508975D01*
X190997455Y-83663213D01*
X190997131Y-84035179D01*
X191139176Y-84378955D01*
X191401966Y-84642204D01*
X191408527Y-84644928D01*
X191233961Y-84819190D01*
X191091315Y-85162718D01*
X191090991Y-85534684D01*
X191233036Y-85878460D01*
X191495826Y-86141709D01*
X191839354Y-86284355D01*
X192211320Y-86284679D01*
X192555096Y-86142634D01*
X192818345Y-85879844D01*
X192960991Y-85536316D01*
X192961186Y-85312064D01*
X193168367Y-85105245D01*
X193311013Y-84761717D01*
X193311337Y-84389751D01*
X193169292Y-84045975D01*
X192906502Y-83782726D01*
X192867366Y-83766475D01*
X192867455Y-83664845D01*
X192730643Y-83333734D01*
X192828943Y-83293117D01*
X193092192Y-83030327D01*
X193234838Y-82686799D01*
X193235162Y-82314833D01*
X193093117Y-81971057D01*
X192830327Y-81707808D01*
X192486799Y-81565162D01*
X192114833Y-81564838D01*
X191771057Y-81706883D01*
X191720177Y-81757674D01*
X191545284Y-81685052D01*
X191173318Y-81684728D01*
X190829542Y-81826773D01*
X190566293Y-82089563D01*
X190423647Y-82433091D01*
X190423323Y-82805057D01*
X152514007Y-82805057D01*
X152514127Y-82667791D01*
X152372082Y-82324015D01*
X152109292Y-82060766D01*
X151765764Y-81918120D01*
X151393798Y-81917796D01*
X151050022Y-82059841D01*
X150786773Y-82322631D01*
X150644127Y-82666159D01*
X150643803Y-83038125D01*
X150654963Y-83065134D01*
X150420588Y-83064930D01*
X150559728Y-82729844D01*
X150560270Y-82109238D01*
X150323275Y-81535666D01*
X149935265Y-81146978D01*
X150321732Y-80761185D01*
X150559728Y-80188026D01*
X150560270Y-79567420D01*
X150323275Y-78993848D01*
X149935265Y-78605160D01*
X150321732Y-78219367D01*
X150559728Y-77646208D01*
X150560270Y-77025602D01*
X150323275Y-76452030D01*
X149935265Y-76063342D01*
X150321732Y-75677549D01*
X150559728Y-75104390D01*
X150560270Y-74483784D01*
X150323275Y-73910212D01*
X149935265Y-73521524D01*
X150321732Y-73135731D01*
X150559728Y-72562572D01*
X150560270Y-71941966D01*
X150323275Y-71368394D01*
X149935265Y-70979706D01*
X150321732Y-70593913D01*
X150559728Y-70020754D01*
X150560270Y-69400148D01*
X150323275Y-68826576D01*
X149884823Y-68387358D01*
X149793255Y-68349336D01*
X150183629Y-67959642D01*
X150396757Y-67446372D01*
X150397242Y-66890611D01*
X150185010Y-66376969D01*
X149931789Y-66123305D01*
X167054674Y-66123305D01*
X167341043Y-66816372D01*
X167870839Y-67347093D01*
X168239130Y-67500021D01*
X167873628Y-67651043D01*
X167342907Y-68180839D01*
X167055328Y-68873405D01*
X167054674Y-69623305D01*
X167341043Y-70316372D01*
X167870839Y-70847093D01*
X168239130Y-71000021D01*
X167873628Y-71151043D01*
X167342907Y-71680839D01*
X167055328Y-72373405D01*
X167054674Y-73123305D01*
X167341043Y-73816372D01*
X167870839Y-74347093D01*
X168239130Y-74500021D01*
X167873628Y-74651043D01*
X167342907Y-75180839D01*
X167055328Y-75873405D01*
X167054674Y-76623305D01*
X167341043Y-77316372D01*
X167870839Y-77847093D01*
X168239130Y-78000021D01*
X167873628Y-78151043D01*
X167342907Y-78680839D01*
X167055328Y-79373405D01*
X167054674Y-80123305D01*
X167341043Y-80816372D01*
X167870839Y-81347093D01*
X168563405Y-81634672D01*
X169313305Y-81635326D01*
X169616240Y-81510156D01*
X176569276Y-81510156D01*
X176711321Y-81853932D01*
X176974111Y-82117181D01*
X177317639Y-82259827D01*
X177689605Y-82260151D01*
X178033381Y-82118106D01*
X178277360Y-81874553D01*
X178469673Y-82067202D01*
X178813201Y-82209848D01*
X179185167Y-82210172D01*
X179528943Y-82068127D01*
X179792192Y-81805337D01*
X179934838Y-81461809D01*
X179935162Y-81089843D01*
X179793117Y-80746067D01*
X179530327Y-80482818D01*
X179186799Y-80340172D01*
X178814833Y-80339848D01*
X178471057Y-80481893D01*
X178227078Y-80725446D01*
X178034765Y-80532797D01*
X177691237Y-80390151D01*
X177319271Y-80389827D01*
X176975495Y-80531872D01*
X176712246Y-80794662D01*
X176569600Y-81138190D01*
X176569276Y-81510156D01*
X169616240Y-81510156D01*
X170006372Y-81348957D01*
X170537093Y-80819161D01*
X170824672Y-80126595D01*
X170825326Y-79376695D01*
X170538957Y-78683628D01*
X170009161Y-78152907D01*
X169640870Y-77999979D01*
X170006372Y-77848957D01*
X170537093Y-77319161D01*
X170824672Y-76626595D01*
X170825326Y-75876695D01*
X170538957Y-75183628D01*
X170484464Y-75129039D01*
X178608096Y-75129039D01*
X178768959Y-75517423D01*
X179144866Y-75932389D01*
X179650959Y-76171914D01*
X179873000Y-76050629D01*
X179873000Y-74907000D01*
X180127000Y-74907000D01*
X180127000Y-76050629D01*
X180349041Y-76171914D01*
X180855134Y-75932389D01*
X181231041Y-75517423D01*
X181391904Y-75129039D01*
X181269915Y-74907000D01*
X180127000Y-74907000D01*
X179873000Y-74907000D01*
X178730085Y-74907000D01*
X178608096Y-75129039D01*
X170484464Y-75129039D01*
X170009161Y-74652907D01*
X169640870Y-74499979D01*
X170006372Y-74348957D01*
X170537093Y-73819161D01*
X170824672Y-73126595D01*
X170825326Y-72376695D01*
X170538957Y-71683628D01*
X170009161Y-71152907D01*
X169640870Y-70999979D01*
X170006372Y-70848957D01*
X170537093Y-70319161D01*
X170824672Y-69626595D01*
X170825326Y-68876695D01*
X170538957Y-68183628D01*
X170009161Y-67652907D01*
X169640870Y-67499979D01*
X170006372Y-67348957D01*
X170537093Y-66819161D01*
X170824672Y-66126595D01*
X170825326Y-65376695D01*
X170538957Y-64683628D01*
X170009161Y-64152907D01*
X169653146Y-64005076D01*
X169964467Y-63876123D01*
X170093715Y-63583320D01*
X168940000Y-62429605D01*
X167786285Y-63583320D01*
X167915533Y-63876123D01*
X168239045Y-64000056D01*
X167873628Y-64151043D01*
X167342907Y-64680839D01*
X167055328Y-65373405D01*
X167054674Y-66123305D01*
X149931789Y-66123305D01*
X149792370Y-65983643D01*
X149582293Y-65896412D01*
X149790303Y-65810464D01*
X150183629Y-65417824D01*
X150396757Y-64904554D01*
X150397242Y-64348793D01*
X150185010Y-63835151D01*
X149794019Y-63443477D01*
X149882514Y-63406911D01*
X150321732Y-62968459D01*
X150559728Y-62395300D01*
X150560138Y-61925806D01*
X167045612Y-61925806D01*
X167065750Y-62675435D01*
X167313877Y-63274467D01*
X167606680Y-63403715D01*
X168760395Y-62250000D01*
X169119605Y-62250000D01*
X170273320Y-63403715D01*
X170566123Y-63274467D01*
X170834388Y-62574194D01*
X170814250Y-61824565D01*
X170566123Y-61225533D01*
X170273320Y-61096285D01*
X169119605Y-62250000D01*
X168760395Y-62250000D01*
X167606680Y-61096285D01*
X167313877Y-61225533D01*
X167045612Y-61925806D01*
X150560138Y-61925806D01*
X150560270Y-61774694D01*
X150323275Y-61201122D01*
X150039330Y-60916680D01*
X167786285Y-60916680D01*
X168940000Y-62070395D01*
X170093715Y-60916680D01*
X169964467Y-60623877D01*
X169264194Y-60355612D01*
X168514565Y-60375750D01*
X167915533Y-60623877D01*
X167786285Y-60916680D01*
X150039330Y-60916680D01*
X149935265Y-60812434D01*
X150321732Y-60426641D01*
X150559728Y-59853482D01*
X150560001Y-59540000D01*
X178536887Y-59540000D01*
X178646120Y-60089151D01*
X178957189Y-60554698D01*
X179339275Y-60810000D01*
X178957189Y-61065302D01*
X178646120Y-61530849D01*
X178536887Y-62080000D01*
X178646120Y-62629151D01*
X178957189Y-63094698D01*
X179339275Y-63350000D01*
X178957189Y-63605302D01*
X178646120Y-64070849D01*
X178536887Y-64620000D01*
X178646120Y-65169151D01*
X178957189Y-65634698D01*
X179339275Y-65890000D01*
X178957189Y-66145302D01*
X178646120Y-66610849D01*
X178536887Y-67160000D01*
X178646120Y-67709151D01*
X178957189Y-68174698D01*
X179339275Y-68430000D01*
X178957189Y-68685302D01*
X178646120Y-69150849D01*
X178536887Y-69700000D01*
X178646120Y-70249151D01*
X178957189Y-70714698D01*
X179339275Y-70970000D01*
X178957189Y-71225302D01*
X178646120Y-71690849D01*
X178536887Y-72240000D01*
X178646120Y-72789151D01*
X178957189Y-73254698D01*
X179361703Y-73524986D01*
X179144866Y-73627611D01*
X178768959Y-74042577D01*
X178608096Y-74430961D01*
X178730085Y-74653000D01*
X179873000Y-74653000D01*
X179873000Y-74633000D01*
X180127000Y-74633000D01*
X180127000Y-74653000D01*
X181269915Y-74653000D01*
X181391904Y-74430961D01*
X181231041Y-74042577D01*
X180855134Y-73627611D01*
X180638297Y-73524986D01*
X181042811Y-73254698D01*
X181353880Y-72789151D01*
X181463113Y-72240000D01*
X181353880Y-71690849D01*
X181042811Y-71225302D01*
X180660725Y-70970000D01*
X181042811Y-70714698D01*
X181353880Y-70249151D01*
X181463113Y-69700000D01*
X181353880Y-69150849D01*
X181042811Y-68685302D01*
X180660725Y-68430000D01*
X181042811Y-68174698D01*
X181353880Y-67709151D01*
X181463113Y-67160000D01*
X181353880Y-66610849D01*
X181042811Y-66145302D01*
X180660725Y-65890000D01*
X181042811Y-65634698D01*
X181353880Y-65169151D01*
X181463113Y-64620000D01*
X181353880Y-64070849D01*
X181042811Y-63605302D01*
X180660725Y-63350000D01*
X181042811Y-63094698D01*
X181353880Y-62629151D01*
X181463113Y-62080000D01*
X181353880Y-61530849D01*
X181042811Y-61065302D01*
X180660725Y-60810000D01*
X181042811Y-60554698D01*
X181353880Y-60089151D01*
X181463113Y-59540000D01*
X181353880Y-58990849D01*
X181042811Y-58525302D01*
X180898535Y-58428899D01*
X181035317Y-58403162D01*
X181251441Y-58264090D01*
X181396431Y-58051890D01*
X181447440Y-57800000D01*
X181447440Y-57000000D01*
X191236887Y-57000000D01*
X191346120Y-57549151D01*
X191657189Y-58014698D01*
X192039275Y-58270000D01*
X191657189Y-58525302D01*
X191346120Y-58990849D01*
X191236887Y-59540000D01*
X191346120Y-60089151D01*
X191657189Y-60554698D01*
X192039275Y-60810000D01*
X191657189Y-61065302D01*
X191346120Y-61530849D01*
X191236887Y-62080000D01*
X191346120Y-62629151D01*
X191657189Y-63094698D01*
X192039275Y-63350000D01*
X191657189Y-63605302D01*
X191346120Y-64070849D01*
X191236887Y-64620000D01*
X191346120Y-65169151D01*
X191657189Y-65634698D01*
X192039275Y-65890000D01*
X191657189Y-66145302D01*
X191346120Y-66610849D01*
X191236887Y-67160000D01*
X191346120Y-67709151D01*
X191657189Y-68174698D01*
X192039275Y-68430000D01*
X191657189Y-68685302D01*
X191346120Y-69150849D01*
X191236887Y-69700000D01*
X191346120Y-70249151D01*
X191657189Y-70714698D01*
X192039275Y-70970000D01*
X191657189Y-71225302D01*
X191346120Y-71690849D01*
X191236887Y-72240000D01*
X191346120Y-72789151D01*
X191657189Y-73254698D01*
X192039275Y-73510000D01*
X191657189Y-73765302D01*
X191346120Y-74230849D01*
X191236887Y-74780000D01*
X191346120Y-75329151D01*
X191657189Y-75794698D01*
X192122736Y-76105767D01*
X192671887Y-76215000D01*
X192728113Y-76215000D01*
X193277264Y-76105767D01*
X193742811Y-75794698D01*
X194053880Y-75329151D01*
X194093684Y-75129039D01*
X195608096Y-75129039D01*
X195768959Y-75517423D01*
X196144866Y-75932389D01*
X196650959Y-76171914D01*
X196873000Y-76050629D01*
X196873000Y-74907000D01*
X197127000Y-74907000D01*
X197127000Y-76050629D01*
X197349041Y-76171914D01*
X197855134Y-75932389D01*
X198231041Y-75517423D01*
X198391904Y-75129039D01*
X198269915Y-74907000D01*
X197127000Y-74907000D01*
X196873000Y-74907000D01*
X195730085Y-74907000D01*
X195608096Y-75129039D01*
X194093684Y-75129039D01*
X194163113Y-74780000D01*
X194053880Y-74230849D01*
X193742811Y-73765302D01*
X193360725Y-73510000D01*
X193742811Y-73254698D01*
X194053880Y-72789151D01*
X194163113Y-72240000D01*
X194053880Y-71690849D01*
X193742811Y-71225302D01*
X193360725Y-70970000D01*
X193742811Y-70714698D01*
X194053880Y-70249151D01*
X194163113Y-69700000D01*
X194053880Y-69150849D01*
X193742811Y-68685302D01*
X193360725Y-68430000D01*
X193742811Y-68174698D01*
X194053880Y-67709151D01*
X194163113Y-67160000D01*
X194053880Y-66610849D01*
X193742811Y-66145302D01*
X193360725Y-65890000D01*
X193742811Y-65634698D01*
X194053880Y-65169151D01*
X194163113Y-64620000D01*
X194053880Y-64070849D01*
X193742811Y-63605302D01*
X193360725Y-63350000D01*
X193742811Y-63094698D01*
X194053880Y-62629151D01*
X194163113Y-62080000D01*
X194053880Y-61530849D01*
X193742811Y-61065302D01*
X193360725Y-60810000D01*
X193742811Y-60554698D01*
X194053880Y-60089151D01*
X194163113Y-59540000D01*
X195536887Y-59540000D01*
X195646120Y-60089151D01*
X195957189Y-60554698D01*
X196339275Y-60810000D01*
X195957189Y-61065302D01*
X195646120Y-61530849D01*
X195536887Y-62080000D01*
X195646120Y-62629151D01*
X195957189Y-63094698D01*
X196339275Y-63350000D01*
X195957189Y-63605302D01*
X195646120Y-64070849D01*
X195536887Y-64620000D01*
X195646120Y-65169151D01*
X195957189Y-65634698D01*
X196339275Y-65890000D01*
X195957189Y-66145302D01*
X195646120Y-66610849D01*
X195536887Y-67160000D01*
X195646120Y-67709151D01*
X195957189Y-68174698D01*
X196339275Y-68430000D01*
X195957189Y-68685302D01*
X195646120Y-69150849D01*
X195536887Y-69700000D01*
X195646120Y-70249151D01*
X195957189Y-70714698D01*
X196339275Y-70970000D01*
X195957189Y-71225302D01*
X195646120Y-71690849D01*
X195536887Y-72240000D01*
X195646120Y-72789151D01*
X195957189Y-73254698D01*
X196361703Y-73524986D01*
X196144866Y-73627611D01*
X195768959Y-74042577D01*
X195608096Y-74430961D01*
X195730085Y-74653000D01*
X196873000Y-74653000D01*
X196873000Y-74633000D01*
X197127000Y-74633000D01*
X197127000Y-74653000D01*
X198269915Y-74653000D01*
X198391904Y-74430961D01*
X198231041Y-74042577D01*
X197855134Y-73627611D01*
X197638297Y-73524986D01*
X198042811Y-73254698D01*
X198353880Y-72789151D01*
X198463113Y-72240000D01*
X198353880Y-71690849D01*
X198042811Y-71225302D01*
X197660725Y-70970000D01*
X198042811Y-70714698D01*
X198353880Y-70249151D01*
X198463113Y-69700000D01*
X198353880Y-69150849D01*
X198042811Y-68685302D01*
X197660725Y-68430000D01*
X198042811Y-68174698D01*
X198353880Y-67709151D01*
X198463113Y-67160000D01*
X198353880Y-66610849D01*
X198042811Y-66145302D01*
X197660725Y-65890000D01*
X198042811Y-65634698D01*
X198353880Y-65169151D01*
X198463113Y-64620000D01*
X198353880Y-64070849D01*
X198042811Y-63605302D01*
X197660725Y-63350000D01*
X198042811Y-63094698D01*
X198353880Y-62629151D01*
X198463113Y-62080000D01*
X198353880Y-61530849D01*
X198042811Y-61065302D01*
X197660725Y-60810000D01*
X198042811Y-60554698D01*
X198353880Y-60089151D01*
X198463113Y-59540000D01*
X198353880Y-58990849D01*
X198042811Y-58525302D01*
X197898535Y-58428899D01*
X198035317Y-58403162D01*
X198251441Y-58264090D01*
X198396431Y-58051890D01*
X198447440Y-57800000D01*
X198447440Y-57000000D01*
X208236887Y-57000000D01*
X208346120Y-57549151D01*
X208657189Y-58014698D01*
X209039275Y-58270000D01*
X208657189Y-58525302D01*
X208346120Y-58990849D01*
X208236887Y-59540000D01*
X208346120Y-60089151D01*
X208657189Y-60554698D01*
X209039275Y-60810000D01*
X208657189Y-61065302D01*
X208346120Y-61530849D01*
X208236887Y-62080000D01*
X208346120Y-62629151D01*
X208657189Y-63094698D01*
X209039275Y-63350000D01*
X208657189Y-63605302D01*
X208346120Y-64070849D01*
X208236887Y-64620000D01*
X208346120Y-65169151D01*
X208657189Y-65634698D01*
X209039275Y-65890000D01*
X208657189Y-66145302D01*
X208346120Y-66610849D01*
X208236887Y-67160000D01*
X208346120Y-67709151D01*
X208657189Y-68174698D01*
X209039275Y-68430000D01*
X208657189Y-68685302D01*
X208346120Y-69150849D01*
X208236887Y-69700000D01*
X208346120Y-70249151D01*
X208657189Y-70714698D01*
X209039275Y-70970000D01*
X208657189Y-71225302D01*
X208346120Y-71690849D01*
X208236887Y-72240000D01*
X208346120Y-72789151D01*
X208657189Y-73254698D01*
X209039275Y-73510000D01*
X208657189Y-73765302D01*
X208346120Y-74230849D01*
X208236887Y-74780000D01*
X208346120Y-75329151D01*
X208657189Y-75794698D01*
X209122736Y-76105767D01*
X209420167Y-76164930D01*
X209314833Y-76164838D01*
X208971057Y-76306883D01*
X208707808Y-76569673D01*
X208565162Y-76913201D01*
X208564838Y-77285167D01*
X208706883Y-77628943D01*
X208969673Y-77892192D01*
X209313201Y-78034838D01*
X209626794Y-78035111D01*
X209706883Y-78228943D01*
X209969673Y-78492192D01*
X210313201Y-78634838D01*
X210685167Y-78635162D01*
X211028943Y-78493117D01*
X211292192Y-78230327D01*
X211434838Y-77886799D01*
X211435162Y-77514833D01*
X211293117Y-77171057D01*
X211030327Y-76907808D01*
X210975802Y-76885167D01*
X212064838Y-76885167D01*
X212206883Y-77228943D01*
X212365359Y-77387695D01*
X212365162Y-77388169D01*
X212364838Y-77760135D01*
X212506883Y-78103911D01*
X212769673Y-78367160D01*
X213113201Y-78509806D01*
X213485167Y-78510130D01*
X213828943Y-78368085D01*
X214092192Y-78105295D01*
X214234838Y-77761767D01*
X214234839Y-77760135D01*
X226064838Y-77760135D01*
X226206883Y-78103911D01*
X226469673Y-78367160D01*
X226813201Y-78509806D01*
X227185167Y-78510130D01*
X227528943Y-78368085D01*
X227792192Y-78105295D01*
X227934838Y-77761767D01*
X227935162Y-77389801D01*
X227933248Y-77385167D01*
X229064838Y-77385167D01*
X229206883Y-77728943D01*
X229469673Y-77992192D01*
X229813201Y-78134838D01*
X230185167Y-78135162D01*
X230282784Y-78094827D01*
X230207808Y-78169673D01*
X230065162Y-78513201D01*
X230064838Y-78885167D01*
X230072956Y-78904813D01*
X229907808Y-79069673D01*
X229765162Y-79413201D01*
X229764838Y-79785167D01*
X229895069Y-80100351D01*
X229765162Y-80413201D01*
X229764838Y-80785167D01*
X229895062Y-81100334D01*
X229765148Y-81413201D01*
X229764824Y-81785167D01*
X229895062Y-82100368D01*
X229765162Y-82413201D01*
X229764838Y-82785167D01*
X229906883Y-83128943D01*
X230169673Y-83392192D01*
X230513201Y-83534838D01*
X230885167Y-83535162D01*
X231228943Y-83393117D01*
X231492192Y-83130327D01*
X231634838Y-82786799D01*
X231635162Y-82414833D01*
X231504924Y-82099632D01*
X231634824Y-81786799D01*
X231635148Y-81414833D01*
X231504924Y-81099666D01*
X231634838Y-80786799D01*
X231635162Y-80414833D01*
X231504931Y-80099649D01*
X231634838Y-79786799D01*
X231635162Y-79414833D01*
X231627044Y-79395187D01*
X231792192Y-79230327D01*
X231934838Y-78886799D01*
X231935162Y-78514833D01*
X231793117Y-78171057D01*
X231530327Y-77907808D01*
X231186799Y-77765162D01*
X230814833Y-77764838D01*
X230717216Y-77805173D01*
X230792192Y-77730327D01*
X230934838Y-77386799D01*
X230935162Y-77014833D01*
X230793117Y-76671057D01*
X230530327Y-76407808D01*
X230186799Y-76265162D01*
X229814833Y-76264838D01*
X229471057Y-76406883D01*
X229207808Y-76669673D01*
X229065162Y-77013201D01*
X229064838Y-77385167D01*
X227933248Y-77385167D01*
X227793117Y-77046025D01*
X227530327Y-76782776D01*
X227186799Y-76640130D01*
X226814833Y-76639806D01*
X226471057Y-76781851D01*
X226207808Y-77044641D01*
X226065162Y-77388169D01*
X226064838Y-77760135D01*
X214234839Y-77760135D01*
X214235162Y-77389801D01*
X214093117Y-77046025D01*
X213934641Y-76887273D01*
X213934838Y-76886799D01*
X213935162Y-76514833D01*
X213793117Y-76171057D01*
X213743508Y-76121361D01*
X213873000Y-76050629D01*
X213873000Y-74907000D01*
X214127000Y-74907000D01*
X214127000Y-76050629D01*
X214349041Y-76171914D01*
X214855134Y-75932389D01*
X215231041Y-75517423D01*
X215391904Y-75129039D01*
X215269915Y-74907000D01*
X214127000Y-74907000D01*
X213873000Y-74907000D01*
X212730085Y-74907000D01*
X212608096Y-75129039D01*
X212768959Y-75517423D01*
X212993227Y-75764993D01*
X212814833Y-75764838D01*
X212471057Y-75906883D01*
X212207808Y-76169673D01*
X212065162Y-76513201D01*
X212064838Y-76885167D01*
X210975802Y-76885167D01*
X210686799Y-76765162D01*
X210373206Y-76764889D01*
X210293117Y-76571057D01*
X210030327Y-76307808D01*
X209781329Y-76204415D01*
X210277264Y-76105767D01*
X210742811Y-75794698D01*
X211053880Y-75329151D01*
X211163113Y-74780000D01*
X211053880Y-74230849D01*
X210742811Y-73765302D01*
X210360725Y-73510000D01*
X210742811Y-73254698D01*
X211053880Y-72789151D01*
X211163113Y-72240000D01*
X211053880Y-71690849D01*
X210742811Y-71225302D01*
X210360725Y-70970000D01*
X210742811Y-70714698D01*
X211053880Y-70249151D01*
X211163113Y-69700000D01*
X211053880Y-69150849D01*
X210742811Y-68685302D01*
X210360725Y-68430000D01*
X210742811Y-68174698D01*
X211053880Y-67709151D01*
X211163113Y-67160000D01*
X211053880Y-66610849D01*
X210742811Y-66145302D01*
X210360725Y-65890000D01*
X210742811Y-65634698D01*
X211053880Y-65169151D01*
X211163113Y-64620000D01*
X211053880Y-64070849D01*
X210742811Y-63605302D01*
X210360725Y-63350000D01*
X210742811Y-63094698D01*
X211053880Y-62629151D01*
X211163113Y-62080000D01*
X211053880Y-61530849D01*
X210742811Y-61065302D01*
X210360725Y-60810000D01*
X210742811Y-60554698D01*
X211053880Y-60089151D01*
X211163113Y-59540000D01*
X212536887Y-59540000D01*
X212646120Y-60089151D01*
X212957189Y-60554698D01*
X213339275Y-60810000D01*
X212957189Y-61065302D01*
X212646120Y-61530849D01*
X212536887Y-62080000D01*
X212646120Y-62629151D01*
X212957189Y-63094698D01*
X213339275Y-63350000D01*
X212957189Y-63605302D01*
X212646120Y-64070849D01*
X212536887Y-64620000D01*
X212646120Y-65169151D01*
X212957189Y-65634698D01*
X213339275Y-65890000D01*
X212957189Y-66145302D01*
X212646120Y-66610849D01*
X212536887Y-67160000D01*
X212646120Y-67709151D01*
X212957189Y-68174698D01*
X213339275Y-68430000D01*
X212957189Y-68685302D01*
X212646120Y-69150849D01*
X212536887Y-69700000D01*
X212646120Y-70249151D01*
X212957189Y-70714698D01*
X213339275Y-70970000D01*
X212957189Y-71225302D01*
X212646120Y-71690849D01*
X212536887Y-72240000D01*
X212646120Y-72789151D01*
X212957189Y-73254698D01*
X213361703Y-73524986D01*
X213144866Y-73627611D01*
X212768959Y-74042577D01*
X212608096Y-74430961D01*
X212730085Y-74653000D01*
X213873000Y-74653000D01*
X213873000Y-74633000D01*
X214127000Y-74633000D01*
X214127000Y-74653000D01*
X215269915Y-74653000D01*
X215391904Y-74430961D01*
X215231041Y-74042577D01*
X214855134Y-73627611D01*
X214638297Y-73524986D01*
X215042811Y-73254698D01*
X215353880Y-72789151D01*
X215463113Y-72240000D01*
X215353880Y-71690849D01*
X215042811Y-71225302D01*
X214660725Y-70970000D01*
X215042811Y-70714698D01*
X215353880Y-70249151D01*
X215463113Y-69700000D01*
X215353880Y-69150849D01*
X215042811Y-68685302D01*
X214660725Y-68430000D01*
X215042811Y-68174698D01*
X215353880Y-67709151D01*
X215463113Y-67160000D01*
X215353880Y-66610849D01*
X215042811Y-66145302D01*
X214660725Y-65890000D01*
X215042811Y-65634698D01*
X215353880Y-65169151D01*
X215463113Y-64620000D01*
X215353880Y-64070849D01*
X215042811Y-63605302D01*
X214660725Y-63350000D01*
X215042811Y-63094698D01*
X215353880Y-62629151D01*
X215463113Y-62080000D01*
X215353880Y-61530849D01*
X215042811Y-61065302D01*
X214660725Y-60810000D01*
X215042811Y-60554698D01*
X215353880Y-60089151D01*
X215463113Y-59540000D01*
X215353880Y-58990849D01*
X215042811Y-58525302D01*
X214898535Y-58428899D01*
X215035317Y-58403162D01*
X215251441Y-58264090D01*
X215396431Y-58051890D01*
X215447440Y-57800000D01*
X215447440Y-57000000D01*
X225236887Y-57000000D01*
X225346120Y-57549151D01*
X225657189Y-58014698D01*
X226039275Y-58270000D01*
X225657189Y-58525302D01*
X225346120Y-58990849D01*
X225236887Y-59540000D01*
X225346120Y-60089151D01*
X225657189Y-60554698D01*
X226039275Y-60810000D01*
X225657189Y-61065302D01*
X225346120Y-61530849D01*
X225236887Y-62080000D01*
X225346120Y-62629151D01*
X225657189Y-63094698D01*
X226039275Y-63350000D01*
X225657189Y-63605302D01*
X225346120Y-64070849D01*
X225236887Y-64620000D01*
X225346120Y-65169151D01*
X225657189Y-65634698D01*
X226039275Y-65890000D01*
X225657189Y-66145302D01*
X225346120Y-66610849D01*
X225236887Y-67160000D01*
X225346120Y-67709151D01*
X225657189Y-68174698D01*
X226039275Y-68430000D01*
X225657189Y-68685302D01*
X225346120Y-69150849D01*
X225236887Y-69700000D01*
X225346120Y-70249151D01*
X225657189Y-70714698D01*
X226039275Y-70970000D01*
X225657189Y-71225302D01*
X225346120Y-71690849D01*
X225236887Y-72240000D01*
X225346120Y-72789151D01*
X225657189Y-73254698D01*
X226039275Y-73510000D01*
X225657189Y-73765302D01*
X225346120Y-74230849D01*
X225236887Y-74780000D01*
X225346120Y-75329151D01*
X225657189Y-75794698D01*
X226122736Y-76105767D01*
X226671887Y-76215000D01*
X226728113Y-76215000D01*
X227277264Y-76105767D01*
X227742811Y-75794698D01*
X228053880Y-75329151D01*
X228093684Y-75129039D01*
X229608096Y-75129039D01*
X229768959Y-75517423D01*
X230144866Y-75932389D01*
X230650959Y-76171914D01*
X230873000Y-76050629D01*
X230873000Y-74907000D01*
X231127000Y-74907000D01*
X231127000Y-76050629D01*
X231349041Y-76171914D01*
X231855134Y-75932389D01*
X232231041Y-75517423D01*
X232391904Y-75129039D01*
X232269915Y-74907000D01*
X231127000Y-74907000D01*
X230873000Y-74907000D01*
X229730085Y-74907000D01*
X229608096Y-75129039D01*
X228093684Y-75129039D01*
X228163113Y-74780000D01*
X228053880Y-74230849D01*
X227742811Y-73765302D01*
X227360725Y-73510000D01*
X227742811Y-73254698D01*
X228053880Y-72789151D01*
X228163113Y-72240000D01*
X228053880Y-71690849D01*
X227742811Y-71225302D01*
X227360725Y-70970000D01*
X227742811Y-70714698D01*
X228053880Y-70249151D01*
X228163113Y-69700000D01*
X228053880Y-69150849D01*
X227742811Y-68685302D01*
X227360725Y-68430000D01*
X227742811Y-68174698D01*
X228053880Y-67709151D01*
X228163113Y-67160000D01*
X228053880Y-66610849D01*
X227742811Y-66145302D01*
X227360725Y-65890000D01*
X227742811Y-65634698D01*
X228053880Y-65169151D01*
X228163113Y-64620000D01*
X228053880Y-64070849D01*
X227742811Y-63605302D01*
X227360725Y-63350000D01*
X227742811Y-63094698D01*
X228053880Y-62629151D01*
X228163113Y-62080000D01*
X228053880Y-61530849D01*
X227742811Y-61065302D01*
X227360725Y-60810000D01*
X227742811Y-60554698D01*
X228053880Y-60089151D01*
X228163113Y-59540000D01*
X229536887Y-59540000D01*
X229646120Y-60089151D01*
X229957189Y-60554698D01*
X230339275Y-60810000D01*
X229957189Y-61065302D01*
X229646120Y-61530849D01*
X229536887Y-62080000D01*
X229646120Y-62629151D01*
X229957189Y-63094698D01*
X230339275Y-63350000D01*
X229957189Y-63605302D01*
X229646120Y-64070849D01*
X229536887Y-64620000D01*
X229646120Y-65169151D01*
X229957189Y-65634698D01*
X230339275Y-65890000D01*
X229957189Y-66145302D01*
X229646120Y-66610849D01*
X229536887Y-67160000D01*
X229646120Y-67709151D01*
X229957189Y-68174698D01*
X230339275Y-68430000D01*
X229957189Y-68685302D01*
X229646120Y-69150849D01*
X229536887Y-69700000D01*
X229646120Y-70249151D01*
X229957189Y-70714698D01*
X230339275Y-70970000D01*
X229957189Y-71225302D01*
X229646120Y-71690849D01*
X229536887Y-72240000D01*
X229646120Y-72789151D01*
X229957189Y-73254698D01*
X230361703Y-73524986D01*
X230144866Y-73627611D01*
X229768959Y-74042577D01*
X229608096Y-74430961D01*
X229730085Y-74653000D01*
X230873000Y-74653000D01*
X230873000Y-74633000D01*
X231127000Y-74633000D01*
X231127000Y-74653000D01*
X232269915Y-74653000D01*
X232391904Y-74430961D01*
X232231041Y-74042577D01*
X231855134Y-73627611D01*
X231638297Y-73524986D01*
X232042811Y-73254698D01*
X232353880Y-72789151D01*
X232463113Y-72240000D01*
X232353880Y-71690849D01*
X232042811Y-71225302D01*
X231660725Y-70970000D01*
X232042811Y-70714698D01*
X232353880Y-70249151D01*
X232463113Y-69700000D01*
X232353880Y-69150849D01*
X232042811Y-68685302D01*
X231660725Y-68430000D01*
X232042811Y-68174698D01*
X232353880Y-67709151D01*
X232463113Y-67160000D01*
X232353880Y-66610849D01*
X232042811Y-66145302D01*
X231660725Y-65890000D01*
X232042811Y-65634698D01*
X232353880Y-65169151D01*
X232463113Y-64620000D01*
X232353880Y-64070849D01*
X232042811Y-63605302D01*
X231660725Y-63350000D01*
X232042811Y-63094698D01*
X232353880Y-62629151D01*
X232463113Y-62080000D01*
X232353880Y-61530849D01*
X232042811Y-61065302D01*
X231660725Y-60810000D01*
X232042811Y-60554698D01*
X232353880Y-60089151D01*
X232463113Y-59540000D01*
X232353880Y-58990849D01*
X232042811Y-58525302D01*
X231898535Y-58428899D01*
X232035317Y-58403162D01*
X232251441Y-58264090D01*
X232396431Y-58051890D01*
X232447440Y-57800000D01*
X232447440Y-57000000D01*
X242236887Y-57000000D01*
X242346120Y-57549151D01*
X242657189Y-58014698D01*
X243039275Y-58270000D01*
X242657189Y-58525302D01*
X242346120Y-58990849D01*
X242236887Y-59540000D01*
X242346120Y-60089151D01*
X242657189Y-60554698D01*
X243039275Y-60810000D01*
X242657189Y-61065302D01*
X242346120Y-61530849D01*
X242236887Y-62080000D01*
X242346120Y-62629151D01*
X242657189Y-63094698D01*
X243039275Y-63350000D01*
X242657189Y-63605302D01*
X242346120Y-64070849D01*
X242236887Y-64620000D01*
X242346120Y-65169151D01*
X242657189Y-65634698D01*
X243039275Y-65890000D01*
X242657189Y-66145302D01*
X242346120Y-66610849D01*
X242236887Y-67160000D01*
X242346120Y-67709151D01*
X242657189Y-68174698D01*
X243039275Y-68430000D01*
X242657189Y-68685302D01*
X242346120Y-69150849D01*
X242236887Y-69700000D01*
X242346120Y-70249151D01*
X242657189Y-70714698D01*
X243039275Y-70970000D01*
X242657189Y-71225302D01*
X242346120Y-71690849D01*
X242236887Y-72240000D01*
X242346120Y-72789151D01*
X242657189Y-73254698D01*
X243039275Y-73510000D01*
X242657189Y-73765302D01*
X242346120Y-74230849D01*
X242236887Y-74780000D01*
X242346120Y-75329151D01*
X242657189Y-75794698D01*
X243122736Y-76105767D01*
X243671887Y-76215000D01*
X243728113Y-76215000D01*
X244277264Y-76105767D01*
X244742811Y-75794698D01*
X245053880Y-75329151D01*
X245163113Y-74780000D01*
X245053880Y-74230849D01*
X244742811Y-73765302D01*
X244360725Y-73510000D01*
X244742811Y-73254698D01*
X245053880Y-72789151D01*
X245163113Y-72240000D01*
X245053880Y-71690849D01*
X244742811Y-71225302D01*
X244360725Y-70970000D01*
X244742811Y-70714698D01*
X245053880Y-70249151D01*
X245163113Y-69700000D01*
X245053880Y-69150849D01*
X244742811Y-68685302D01*
X244360725Y-68430000D01*
X244742811Y-68174698D01*
X245053880Y-67709151D01*
X245163113Y-67160000D01*
X245053880Y-66610849D01*
X244742811Y-66145302D01*
X244360725Y-65890000D01*
X244742811Y-65634698D01*
X245053880Y-65169151D01*
X245163113Y-64620000D01*
X245053880Y-64070849D01*
X244742811Y-63605302D01*
X244360725Y-63350000D01*
X244742811Y-63094698D01*
X245053880Y-62629151D01*
X245163113Y-62080000D01*
X245053880Y-61530849D01*
X244742811Y-61065302D01*
X244360725Y-60810000D01*
X244742811Y-60554698D01*
X245053880Y-60089151D01*
X245163113Y-59540000D01*
X245053880Y-58990849D01*
X244742811Y-58525302D01*
X244360725Y-58270000D01*
X244742811Y-58014698D01*
X245053880Y-57549151D01*
X245163113Y-57000000D01*
X245053880Y-56450849D01*
X244742811Y-55985302D01*
X244277264Y-55674233D01*
X243728113Y-55565000D01*
X243671887Y-55565000D01*
X243122736Y-55674233D01*
X242657189Y-55985302D01*
X242346120Y-56450849D01*
X242236887Y-57000000D01*
X232447440Y-57000000D01*
X232447440Y-56200000D01*
X232403162Y-55964683D01*
X232264090Y-55748559D01*
X232051890Y-55603569D01*
X231800000Y-55552560D01*
X230200000Y-55552560D01*
X229964683Y-55596838D01*
X229748559Y-55735910D01*
X229603569Y-55948110D01*
X229552560Y-56200000D01*
X229552560Y-57800000D01*
X229596838Y-58035317D01*
X229735910Y-58251441D01*
X229948110Y-58396431D01*
X230103089Y-58427815D01*
X229957189Y-58525302D01*
X229646120Y-58990849D01*
X229536887Y-59540000D01*
X228163113Y-59540000D01*
X228053880Y-58990849D01*
X227742811Y-58525302D01*
X227360725Y-58270000D01*
X227742811Y-58014698D01*
X228053880Y-57549151D01*
X228163113Y-57000000D01*
X228053880Y-56450849D01*
X227742811Y-55985302D01*
X227277264Y-55674233D01*
X226728113Y-55565000D01*
X226671887Y-55565000D01*
X226122736Y-55674233D01*
X225657189Y-55985302D01*
X225346120Y-56450849D01*
X225236887Y-57000000D01*
X215447440Y-57000000D01*
X215447440Y-56200000D01*
X215403162Y-55964683D01*
X215264090Y-55748559D01*
X215051890Y-55603569D01*
X214800000Y-55552560D01*
X213200000Y-55552560D01*
X212964683Y-55596838D01*
X212748559Y-55735910D01*
X212603569Y-55948110D01*
X212552560Y-56200000D01*
X212552560Y-57800000D01*
X212596838Y-58035317D01*
X212735910Y-58251441D01*
X212948110Y-58396431D01*
X213103089Y-58427815D01*
X212957189Y-58525302D01*
X212646120Y-58990849D01*
X212536887Y-59540000D01*
X211163113Y-59540000D01*
X211053880Y-58990849D01*
X210742811Y-58525302D01*
X210360725Y-58270000D01*
X210742811Y-58014698D01*
X211053880Y-57549151D01*
X211163113Y-57000000D01*
X211053880Y-56450849D01*
X210742811Y-55985302D01*
X210277264Y-55674233D01*
X209728113Y-55565000D01*
X209671887Y-55565000D01*
X209122736Y-55674233D01*
X208657189Y-55985302D01*
X208346120Y-56450849D01*
X208236887Y-57000000D01*
X198447440Y-57000000D01*
X198447440Y-56200000D01*
X198403162Y-55964683D01*
X198264090Y-55748559D01*
X198051890Y-55603569D01*
X197800000Y-55552560D01*
X196200000Y-55552560D01*
X195964683Y-55596838D01*
X195748559Y-55735910D01*
X195603569Y-55948110D01*
X195552560Y-56200000D01*
X195552560Y-57800000D01*
X195596838Y-58035317D01*
X195735910Y-58251441D01*
X195948110Y-58396431D01*
X196103089Y-58427815D01*
X195957189Y-58525302D01*
X195646120Y-58990849D01*
X195536887Y-59540000D01*
X194163113Y-59540000D01*
X194053880Y-58990849D01*
X193742811Y-58525302D01*
X193360725Y-58270000D01*
X193742811Y-58014698D01*
X194053880Y-57549151D01*
X194163113Y-57000000D01*
X194053880Y-56450849D01*
X193742811Y-55985302D01*
X193277264Y-55674233D01*
X192728113Y-55565000D01*
X192671887Y-55565000D01*
X192122736Y-55674233D01*
X191657189Y-55985302D01*
X191346120Y-56450849D01*
X191236887Y-57000000D01*
X181447440Y-57000000D01*
X181447440Y-56200000D01*
X181403162Y-55964683D01*
X181264090Y-55748559D01*
X181051890Y-55603569D01*
X180800000Y-55552560D01*
X179200000Y-55552560D01*
X178964683Y-55596838D01*
X178748559Y-55735910D01*
X178603569Y-55948110D01*
X178552560Y-56200000D01*
X178552560Y-57800000D01*
X178596838Y-58035317D01*
X178735910Y-58251441D01*
X178948110Y-58396431D01*
X179103089Y-58427815D01*
X178957189Y-58525302D01*
X178646120Y-58990849D01*
X178536887Y-59540000D01*
X150560001Y-59540000D01*
X150560270Y-59232876D01*
X150323275Y-58659304D01*
X149935265Y-58270616D01*
X150270291Y-57936174D01*
X150655177Y-58321732D01*
X151228336Y-58559728D01*
X151848942Y-58560270D01*
X152422514Y-58323275D01*
X152861732Y-57884823D01*
X153099728Y-57311664D01*
X153100270Y-56691058D01*
X152863275Y-56117486D01*
X152424823Y-55678268D01*
X151851664Y-55440272D01*
X151231058Y-55439730D01*
X150657486Y-55676725D01*
X150269709Y-56063826D01*
X149884823Y-55678268D01*
X149311664Y-55440272D01*
X148691058Y-55439730D01*
X148117486Y-55676725D01*
X147678268Y-56115177D01*
X147440272Y-56688336D01*
X147439730Y-57308942D01*
X122099730Y-57308942D01*
X122100270Y-56691058D01*
X121863275Y-56117486D01*
X121424823Y-55678268D01*
X120851664Y-55440272D01*
X120231058Y-55439730D01*
X119657486Y-55676725D01*
X119269709Y-56063826D01*
X118884823Y-55678268D01*
X118311664Y-55440272D01*
X117691058Y-55439730D01*
X117117486Y-55676725D01*
X116678268Y-56115177D01*
X116440272Y-56688336D01*
X116439730Y-57308942D01*
X111710000Y-57308942D01*
X111710000Y-49970907D01*
X116515000Y-49970907D01*
X116515000Y-50029093D01*
X116628039Y-50597378D01*
X116949946Y-51079147D01*
X117431715Y-51401054D01*
X118000000Y-51514093D01*
X118568285Y-51401054D01*
X119050054Y-51079147D01*
X119270000Y-50749974D01*
X119489946Y-51079147D01*
X119971715Y-51401054D01*
X120540000Y-51514093D01*
X121108285Y-51401054D01*
X121590054Y-51079147D01*
X121810000Y-50749974D01*
X122029946Y-51079147D01*
X122511715Y-51401054D01*
X123080000Y-51514093D01*
X123648285Y-51401054D01*
X124130054Y-51079147D01*
X124157850Y-51037548D01*
X124166838Y-51085317D01*
X124305910Y-51301441D01*
X124518110Y-51446431D01*
X124770000Y-51497440D01*
X126470000Y-51497440D01*
X126705317Y-51453162D01*
X126921441Y-51314090D01*
X127066431Y-51101890D01*
X127117440Y-50850000D01*
X127117440Y-49970907D01*
X147515000Y-49970907D01*
X147515000Y-50029093D01*
X147628039Y-50597378D01*
X147949946Y-51079147D01*
X148431715Y-51401054D01*
X149000000Y-51514093D01*
X149568285Y-51401054D01*
X150050054Y-51079147D01*
X150270000Y-50749974D01*
X150489946Y-51079147D01*
X150971715Y-51401054D01*
X151540000Y-51514093D01*
X152108285Y-51401054D01*
X152590054Y-51079147D01*
X152810000Y-50749974D01*
X153029946Y-51079147D01*
X153511715Y-51401054D01*
X154080000Y-51514093D01*
X154648285Y-51401054D01*
X155130054Y-51079147D01*
X155157850Y-51037548D01*
X155166838Y-51085317D01*
X155305910Y-51301441D01*
X155518110Y-51446431D01*
X155770000Y-51497440D01*
X157470000Y-51497440D01*
X157705317Y-51453162D01*
X157921441Y-51314090D01*
X158066431Y-51101890D01*
X158117440Y-50850000D01*
X158117440Y-49150000D01*
X178502560Y-49150000D01*
X178502560Y-50850000D01*
X178546838Y-51085317D01*
X178685910Y-51301441D01*
X178898110Y-51446431D01*
X179150000Y-51497440D01*
X180850000Y-51497440D01*
X181085317Y-51453162D01*
X181301441Y-51314090D01*
X181446431Y-51101890D01*
X181460086Y-51034459D01*
X181489946Y-51079147D01*
X181971715Y-51401054D01*
X182540000Y-51514093D01*
X183108285Y-51401054D01*
X183590054Y-51079147D01*
X183810000Y-50749974D01*
X184029946Y-51079147D01*
X184511715Y-51401054D01*
X185080000Y-51514093D01*
X185648285Y-51401054D01*
X186130054Y-51079147D01*
X186350000Y-50749974D01*
X186569946Y-51079147D01*
X187051715Y-51401054D01*
X187620000Y-51514093D01*
X188188285Y-51401054D01*
X188670054Y-51079147D01*
X188991961Y-50597378D01*
X189105000Y-50029093D01*
X189105000Y-49970907D01*
X188991961Y-49402622D01*
X188823165Y-49150000D01*
X195502560Y-49150000D01*
X195502560Y-50850000D01*
X195546838Y-51085317D01*
X195685910Y-51301441D01*
X195898110Y-51446431D01*
X196150000Y-51497440D01*
X197850000Y-51497440D01*
X198085317Y-51453162D01*
X198301441Y-51314090D01*
X198446431Y-51101890D01*
X198460086Y-51034459D01*
X198489946Y-51079147D01*
X198971715Y-51401054D01*
X199540000Y-51514093D01*
X200108285Y-51401054D01*
X200590054Y-51079147D01*
X200810000Y-50749974D01*
X201029946Y-51079147D01*
X201511715Y-51401054D01*
X202080000Y-51514093D01*
X202648285Y-51401054D01*
X203130054Y-51079147D01*
X203350000Y-50749974D01*
X203569946Y-51079147D01*
X204051715Y-51401054D01*
X204620000Y-51514093D01*
X205188285Y-51401054D01*
X205670054Y-51079147D01*
X205991961Y-50597378D01*
X206105000Y-50029093D01*
X206105000Y-49970907D01*
X205991961Y-49402622D01*
X205823165Y-49150000D01*
X212502560Y-49150000D01*
X212502560Y-50850000D01*
X212546838Y-51085317D01*
X212685910Y-51301441D01*
X212898110Y-51446431D01*
X213150000Y-51497440D01*
X214850000Y-51497440D01*
X215085317Y-51453162D01*
X215301441Y-51314090D01*
X215446431Y-51101890D01*
X215460086Y-51034459D01*
X215489946Y-51079147D01*
X215971715Y-51401054D01*
X216540000Y-51514093D01*
X217108285Y-51401054D01*
X217590054Y-51079147D01*
X217810000Y-50749974D01*
X218029946Y-51079147D01*
X218511715Y-51401054D01*
X219080000Y-51514093D01*
X219648285Y-51401054D01*
X220130054Y-51079147D01*
X220350000Y-50749974D01*
X220569946Y-51079147D01*
X221051715Y-51401054D01*
X221620000Y-51514093D01*
X222188285Y-51401054D01*
X222670054Y-51079147D01*
X222991961Y-50597378D01*
X223105000Y-50029093D01*
X223105000Y-49970907D01*
X222991961Y-49402622D01*
X222823165Y-49150000D01*
X229502560Y-49150000D01*
X229502560Y-50850000D01*
X229546838Y-51085317D01*
X229685910Y-51301441D01*
X229898110Y-51446431D01*
X230150000Y-51497440D01*
X231850000Y-51497440D01*
X232085317Y-51453162D01*
X232301441Y-51314090D01*
X232446431Y-51101890D01*
X232460086Y-51034459D01*
X232489946Y-51079147D01*
X232971715Y-51401054D01*
X233540000Y-51514093D01*
X234108285Y-51401054D01*
X234590054Y-51079147D01*
X234810000Y-50749974D01*
X235029946Y-51079147D01*
X235511715Y-51401054D01*
X236080000Y-51514093D01*
X236648285Y-51401054D01*
X237130054Y-51079147D01*
X237350000Y-50749974D01*
X237569946Y-51079147D01*
X238051715Y-51401054D01*
X238620000Y-51514093D01*
X239188285Y-51401054D01*
X239670054Y-51079147D01*
X239991961Y-50597378D01*
X240105000Y-50029093D01*
X240105000Y-49970907D01*
X239991961Y-49402622D01*
X239670054Y-48920853D01*
X239188285Y-48598946D01*
X238620000Y-48485907D01*
X238051715Y-48598946D01*
X237569946Y-48920853D01*
X237350000Y-49250026D01*
X237130054Y-48920853D01*
X236648285Y-48598946D01*
X236080000Y-48485907D01*
X235511715Y-48598946D01*
X235029946Y-48920853D01*
X234810000Y-49250026D01*
X234590054Y-48920853D01*
X234108285Y-48598946D01*
X233540000Y-48485907D01*
X232971715Y-48598946D01*
X232489946Y-48920853D01*
X232462150Y-48962452D01*
X232453162Y-48914683D01*
X232314090Y-48698559D01*
X232101890Y-48553569D01*
X231850000Y-48502560D01*
X230150000Y-48502560D01*
X229914683Y-48546838D01*
X229698559Y-48685910D01*
X229553569Y-48898110D01*
X229502560Y-49150000D01*
X222823165Y-49150000D01*
X222670054Y-48920853D01*
X222188285Y-48598946D01*
X221620000Y-48485907D01*
X221051715Y-48598946D01*
X220569946Y-48920853D01*
X220350000Y-49250026D01*
X220130054Y-48920853D01*
X219648285Y-48598946D01*
X219080000Y-48485907D01*
X218511715Y-48598946D01*
X218029946Y-48920853D01*
X217810000Y-49250026D01*
X217590054Y-48920853D01*
X217108285Y-48598946D01*
X216540000Y-48485907D01*
X215971715Y-48598946D01*
X215489946Y-48920853D01*
X215462150Y-48962452D01*
X215453162Y-48914683D01*
X215314090Y-48698559D01*
X215101890Y-48553569D01*
X214850000Y-48502560D01*
X213150000Y-48502560D01*
X212914683Y-48546838D01*
X212698559Y-48685910D01*
X212553569Y-48898110D01*
X212502560Y-49150000D01*
X205823165Y-49150000D01*
X205670054Y-48920853D01*
X205188285Y-48598946D01*
X204620000Y-48485907D01*
X204051715Y-48598946D01*
X203569946Y-48920853D01*
X203350000Y-49250026D01*
X203130054Y-48920853D01*
X202648285Y-48598946D01*
X202080000Y-48485907D01*
X201511715Y-48598946D01*
X201029946Y-48920853D01*
X200810000Y-49250026D01*
X200590054Y-48920853D01*
X200108285Y-48598946D01*
X199540000Y-48485907D01*
X198971715Y-48598946D01*
X198489946Y-48920853D01*
X198462150Y-48962452D01*
X198453162Y-48914683D01*
X198314090Y-48698559D01*
X198101890Y-48553569D01*
X197850000Y-48502560D01*
X196150000Y-48502560D01*
X195914683Y-48546838D01*
X195698559Y-48685910D01*
X195553569Y-48898110D01*
X195502560Y-49150000D01*
X188823165Y-49150000D01*
X188670054Y-48920853D01*
X188188285Y-48598946D01*
X187620000Y-48485907D01*
X187051715Y-48598946D01*
X186569946Y-48920853D01*
X186350000Y-49250026D01*
X186130054Y-48920853D01*
X185648285Y-48598946D01*
X185080000Y-48485907D01*
X184511715Y-48598946D01*
X184029946Y-48920853D01*
X183810000Y-49250026D01*
X183590054Y-48920853D01*
X183108285Y-48598946D01*
X182540000Y-48485907D01*
X181971715Y-48598946D01*
X181489946Y-48920853D01*
X181462150Y-48962452D01*
X181453162Y-48914683D01*
X181314090Y-48698559D01*
X181101890Y-48553569D01*
X180850000Y-48502560D01*
X179150000Y-48502560D01*
X178914683Y-48546838D01*
X178698559Y-48685910D01*
X178553569Y-48898110D01*
X178502560Y-49150000D01*
X158117440Y-49150000D01*
X158073162Y-48914683D01*
X157934090Y-48698559D01*
X157721890Y-48553569D01*
X157470000Y-48502560D01*
X155770000Y-48502560D01*
X155534683Y-48546838D01*
X155318559Y-48685910D01*
X155173569Y-48898110D01*
X155159914Y-48965541D01*
X155130054Y-48920853D01*
X154648285Y-48598946D01*
X154080000Y-48485907D01*
X153511715Y-48598946D01*
X153029946Y-48920853D01*
X152810000Y-49250026D01*
X152590054Y-48920853D01*
X152108285Y-48598946D01*
X151540000Y-48485907D01*
X150971715Y-48598946D01*
X150489946Y-48920853D01*
X150270000Y-49250026D01*
X150050054Y-48920853D01*
X149568285Y-48598946D01*
X149000000Y-48485907D01*
X148431715Y-48598946D01*
X147949946Y-48920853D01*
X147628039Y-49402622D01*
X147515000Y-49970907D01*
X127117440Y-49970907D01*
X127117440Y-49150000D01*
X127073162Y-48914683D01*
X126934090Y-48698559D01*
X126721890Y-48553569D01*
X126470000Y-48502560D01*
X124770000Y-48502560D01*
X124534683Y-48546838D01*
X124318559Y-48685910D01*
X124173569Y-48898110D01*
X124159914Y-48965541D01*
X124130054Y-48920853D01*
X123648285Y-48598946D01*
X123080000Y-48485907D01*
X122511715Y-48598946D01*
X122029946Y-48920853D01*
X121810000Y-49250026D01*
X121590054Y-48920853D01*
X121108285Y-48598946D01*
X120540000Y-48485907D01*
X119971715Y-48598946D01*
X119489946Y-48920853D01*
X119270000Y-49250026D01*
X119050054Y-48920853D01*
X118568285Y-48598946D01*
X118000000Y-48485907D01*
X117431715Y-48598946D01*
X116949946Y-48920853D01*
X116628039Y-49402622D01*
X116515000Y-49970907D01*
X111710000Y-49970907D01*
X111710000Y-47710000D01*
X250290000Y-47710000D01*
X250290000Y-121290000D01*
X250290000Y-121290000D01*
G37*
X250290000Y-121290000D02*
X111710000Y-121290000D01*
X111710000Y-109323795D01*
X118364716Y-109323795D01*
X118613106Y-109924943D01*
X118687759Y-109999727D01*
X118614722Y-110072637D01*
X118365284Y-110673352D01*
X118364716Y-111323795D01*
X118613106Y-111924943D01*
X118687759Y-111999727D01*
X118614722Y-112072637D01*
X118365284Y-112673352D01*
X118364716Y-113323795D01*
X118613106Y-113924943D01*
X118687759Y-113999727D01*
X118614722Y-114072637D01*
X118365284Y-114673352D01*
X118364716Y-115323795D01*
X118613106Y-115924943D01*
X118687759Y-115999727D01*
X118614722Y-116072637D01*
X118365284Y-116673352D01*
X118364716Y-117323795D01*
X118613106Y-117924943D01*
X119072637Y-118385278D01*
X119673352Y-118634716D01*
X120323795Y-118635284D01*
X120924943Y-118386894D01*
X121385278Y-117927363D01*
X121634716Y-117326648D01*
X121635284Y-116676205D01*
X121624457Y-116650000D01*
X131002560Y-116650000D01*
X131002560Y-118350000D01*
X131046838Y-118585317D01*
X131185910Y-118801441D01*
X131398110Y-118946431D01*
X131650000Y-118997440D01*
X133350000Y-118997440D01*
X133585317Y-118953162D01*
X133801441Y-118814090D01*
X133946431Y-118601890D01*
X133960086Y-118534459D01*
X133989946Y-118579147D01*
X134471715Y-118901054D01*
X135040000Y-119014093D01*
X135608285Y-118901054D01*
X136090054Y-118579147D01*
X136411961Y-118097378D01*
X136525000Y-117529093D01*
X136525000Y-117470907D01*
X136411961Y-116902622D01*
X136090054Y-116420853D01*
X135608285Y-116098946D01*
X135040000Y-115985907D01*
X134471715Y-116098946D01*
X133989946Y-116420853D01*
X133962150Y-116462452D01*
X133953162Y-116414683D01*
X133814090Y-116198559D01*
X133601890Y-116053569D01*
X133350000Y-116002560D01*
X131650000Y-116002560D01*
X131414683Y-116046838D01*
X131198559Y-116185910D01*
X131053569Y-116398110D01*
X131002560Y-116650000D01*
X121624457Y-116650000D01*
X121386894Y-116075057D01*
X121312241Y-116000273D01*
X121385278Y-115927363D01*
X121634716Y-115326648D01*
X121635284Y-114676205D01*
X121386894Y-114075057D01*
X121312241Y-114000273D01*
X121385278Y-113927363D01*
X121634716Y-113326648D01*
X121635284Y-112676205D01*
X121566610Y-112510000D01*
X143882560Y-112510000D01*
X143882560Y-114210000D01*
X143926838Y-114445317D01*
X144047015Y-114632077D01*
X143933569Y-114798110D01*
X143882560Y-115050000D01*
X143882560Y-116750000D01*
X143926838Y-116985317D01*
X144047015Y-117172077D01*
X143933569Y-117338110D01*
X143882560Y-117590000D01*
X143882560Y-119290000D01*
X143926838Y-119525317D01*
X144065910Y-119741441D01*
X144278110Y-119886431D01*
X144530000Y-119937440D01*
X146230000Y-119937440D01*
X146465317Y-119893162D01*
X146681441Y-119754090D01*
X146826431Y-119541890D01*
X146840086Y-119474459D01*
X146869946Y-119519147D01*
X147351715Y-119841054D01*
X147920000Y-119954093D01*
X148488285Y-119841054D01*
X148970054Y-119519147D01*
X149190000Y-119189974D01*
X149409946Y-119519147D01*
X149891715Y-119841054D01*
X150460000Y-119954093D01*
X151028285Y-119841054D01*
X151510054Y-119519147D01*
X151730000Y-119189974D01*
X151949946Y-119519147D01*
X152431715Y-119841054D01*
X153000000Y-119954093D01*
X153568285Y-119841054D01*
X154050054Y-119519147D01*
X154270000Y-119189974D01*
X154489946Y-119519147D01*
X154971715Y-119841054D01*
X155540000Y-119954093D01*
X156108285Y-119841054D01*
X156590054Y-119519147D01*
X156810000Y-119189974D01*
X157029946Y-119519147D01*
X157511715Y-119841054D01*
X158080000Y-119954093D01*
X158648285Y-119841054D01*
X159130054Y-119519147D01*
X159350000Y-119189974D01*
X159569946Y-119519147D01*
X160051715Y-119841054D01*
X160620000Y-119954093D01*
X161188285Y-119841054D01*
X161670054Y-119519147D01*
X161890000Y-119189974D01*
X162109946Y-119519147D01*
X162591715Y-119841054D01*
X163160000Y-119954093D01*
X163728285Y-119841054D01*
X164210054Y-119519147D01*
X164531961Y-119037378D01*
X164645000Y-118469093D01*
X164645000Y-118410907D01*
X164531961Y-117842622D01*
X164210054Y-117360853D01*
X163924422Y-117170000D01*
X164210054Y-116979147D01*
X164429982Y-116650000D01*
X173502560Y-116650000D01*
X173502560Y-118350000D01*
X173546838Y-118585317D01*
X173685910Y-118801441D01*
X173898110Y-118946431D01*
X174150000Y-118997440D01*
X175850000Y-118997440D01*
X176085317Y-118953162D01*
X176301441Y-118814090D01*
X176446431Y-118601890D01*
X176460086Y-118534459D01*
X176489946Y-118579147D01*
X176971715Y-118901054D01*
X177540000Y-119014093D01*
X178108285Y-118901054D01*
X178590054Y-118579147D01*
X178911961Y-118097378D01*
X179025000Y-117529093D01*
X179025000Y-117470907D01*
X178911961Y-116902622D01*
X178743165Y-116650000D01*
X185422560Y-116650000D01*
X185422560Y-118350000D01*
X185466838Y-118585317D01*
X185605910Y-118801441D01*
X185818110Y-118946431D01*
X186070000Y-118997440D01*
X187770000Y-118997440D01*
X188005317Y-118953162D01*
X188221441Y-118814090D01*
X188366431Y-118601890D01*
X188380086Y-118534459D01*
X188409946Y-118579147D01*
X188891715Y-118901054D01*
X189460000Y-119014093D01*
X190028285Y-118901054D01*
X190510054Y-118579147D01*
X190730000Y-118249974D01*
X190949946Y-118579147D01*
X191431715Y-118901054D01*
X192000000Y-119014093D01*
X192568285Y-118901054D01*
X193050054Y-118579147D01*
X193270000Y-118249974D01*
X193489946Y-118579147D01*
X193971715Y-118901054D01*
X194540000Y-119014093D01*
X195108285Y-118901054D01*
X195590054Y-118579147D01*
X195810000Y-118249974D01*
X196029946Y-118579147D01*
X196511715Y-118901054D01*
X197080000Y-119014093D01*
X197648285Y-118901054D01*
X198130054Y-118579147D01*
X198350000Y-118249974D01*
X198569946Y-118579147D01*
X199051715Y-118901054D01*
X199620000Y-119014093D01*
X200188285Y-118901054D01*
X200670054Y-118579147D01*
X200991961Y-118097378D01*
X201105000Y-117529093D01*
X201105000Y-117470907D01*
X200991961Y-116902622D01*
X200823165Y-116650000D01*
X205422560Y-116650000D01*
X205422560Y-118350000D01*
X205466838Y-118585317D01*
X205605910Y-118801441D01*
X205818110Y-118946431D01*
X206070000Y-118997440D01*
X207770000Y-118997440D01*
X208005317Y-118953162D01*
X208221441Y-118814090D01*
X208366431Y-118601890D01*
X208380086Y-118534459D01*
X208409946Y-118579147D01*
X208891715Y-118901054D01*
X209460000Y-119014093D01*
X210028285Y-118901054D01*
X210510054Y-118579147D01*
X210730000Y-118249974D01*
X210949946Y-118579147D01*
X211431715Y-118901054D01*
X212000000Y-119014093D01*
X212568285Y-118901054D01*
X213050054Y-118579147D01*
X213270000Y-118249974D01*
X213489946Y-118579147D01*
X213971715Y-118901054D01*
X214540000Y-119014093D01*
X215108285Y-118901054D01*
X215590054Y-118579147D01*
X215810000Y-118249974D01*
X216029946Y-118579147D01*
X216511715Y-118901054D01*
X217080000Y-119014093D01*
X217648285Y-118901054D01*
X218130054Y-118579147D01*
X218350000Y-118249974D01*
X218569946Y-118579147D01*
X219051715Y-118901054D01*
X219620000Y-119014093D01*
X220188285Y-118901054D01*
X220670054Y-118579147D01*
X220890000Y-118249974D01*
X221109946Y-118579147D01*
X221591715Y-118901054D01*
X222160000Y-119014093D01*
X222728285Y-118901054D01*
X223210054Y-118579147D01*
X223430000Y-118249974D01*
X223649946Y-118579147D01*
X224131715Y-118901054D01*
X224700000Y-119014093D01*
X225268285Y-118901054D01*
X225750054Y-118579147D01*
X225970000Y-118249974D01*
X226189946Y-118579147D01*
X226671715Y-118901054D01*
X227240000Y-119014093D01*
X227808285Y-118901054D01*
X228290054Y-118579147D01*
X228510000Y-118249974D01*
X228729946Y-118579147D01*
X229211715Y-118901054D01*
X229780000Y-119014093D01*
X230348285Y-118901054D01*
X230830054Y-118579147D01*
X231050000Y-118249974D01*
X231269946Y-118579147D01*
X231751715Y-118901054D01*
X232320000Y-119014093D01*
X232888285Y-118901054D01*
X233370054Y-118579147D01*
X233590000Y-118249974D01*
X233809946Y-118579147D01*
X234291715Y-118901054D01*
X234860000Y-119014093D01*
X235428285Y-118901054D01*
X235910054Y-118579147D01*
X236231961Y-118097378D01*
X236345000Y-117529093D01*
X236345000Y-117470907D01*
X236231961Y-116902622D01*
X235910054Y-116420853D01*
X235428285Y-116098946D01*
X234860000Y-115985907D01*
X234291715Y-116098946D01*
X233809946Y-116420853D01*
X233590000Y-116750026D01*
X233370054Y-116420853D01*
X232888285Y-116098946D01*
X232320000Y-115985907D01*
X231751715Y-116098946D01*
X231269946Y-116420853D01*
X231050000Y-116750026D01*
X230830054Y-116420853D01*
X230348285Y-116098946D01*
X229780000Y-115985907D01*
X229211715Y-116098946D01*
X228729946Y-116420853D01*
X228510000Y-116750026D01*
X228290054Y-116420853D01*
X227808285Y-116098946D01*
X227240000Y-115985907D01*
X226671715Y-116098946D01*
X226189946Y-116420853D01*
X225970000Y-116750026D01*
X225750054Y-116420853D01*
X225268285Y-116098946D01*
X224700000Y-115985907D01*
X224131715Y-116098946D01*
X223649946Y-116420853D01*
X223430000Y-116750026D01*
X223210054Y-116420853D01*
X222728285Y-116098946D01*
X222160000Y-115985907D01*
X221591715Y-116098946D01*
X221109946Y-116420853D01*
X220890000Y-116750026D01*
X220670054Y-116420853D01*
X220188285Y-116098946D01*
X219620000Y-115985907D01*
X219051715Y-116098946D01*
X218569946Y-116420853D01*
X218350000Y-116750026D01*
X218130054Y-116420853D01*
X217648285Y-116098946D01*
X217080000Y-115985907D01*
X216511715Y-116098946D01*
X216029946Y-116420853D01*
X215810000Y-116750026D01*
X215590054Y-116420853D01*
X215108285Y-116098946D01*
X214540000Y-115985907D01*
X213971715Y-116098946D01*
X213489946Y-116420853D01*
X213270000Y-116750026D01*
X213050054Y-116420853D01*
X212568285Y-116098946D01*
X212000000Y-115985907D01*
X211431715Y-116098946D01*
X210949946Y-116420853D01*
X210730000Y-116750026D01*
X210510054Y-116420853D01*
X210028285Y-116098946D01*
X209460000Y-115985907D01*
X208891715Y-116098946D01*
X208409946Y-116420853D01*
X208382150Y-116462452D01*
X208373162Y-116414683D01*
X208234090Y-116198559D01*
X208021890Y-116053569D01*
X207770000Y-116002560D01*
X206070000Y-116002560D01*
X205834683Y-116046838D01*
X205618559Y-116185910D01*
X205473569Y-116398110D01*
X205422560Y-116650000D01*
X200823165Y-116650000D01*
X200670054Y-116420853D01*
X200188285Y-116098946D01*
X199620000Y-115985907D01*
X199051715Y-116098946D01*
X198569946Y-116420853D01*
X198350000Y-116750026D01*
X198130054Y-116420853D01*
X197648285Y-116098946D01*
X197080000Y-115985907D01*
X196511715Y-116098946D01*
X196029946Y-116420853D01*
X195810000Y-116750026D01*
X195590054Y-116420853D01*
X195108285Y-116098946D01*
X194540000Y-115985907D01*
X193971715Y-116098946D01*
X193489946Y-116420853D01*
X193270000Y-116750026D01*
X193050054Y-116420853D01*
X192568285Y-116098946D01*
X192000000Y-115985907D01*
X191431715Y-116098946D01*
X190949946Y-116420853D01*
X190730000Y-116750026D01*
X190510054Y-116420853D01*
X190028285Y-116098946D01*
X189460000Y-115985907D01*
X188891715Y-116098946D01*
X188409946Y-116420853D01*
X188382150Y-116462452D01*
X188373162Y-116414683D01*
X188234090Y-116198559D01*
X188021890Y-116053569D01*
X187770000Y-116002560D01*
X186070000Y-116002560D01*
X185834683Y-116046838D01*
X185618559Y-116185910D01*
X185473569Y-116398110D01*
X185422560Y-116650000D01*
X178743165Y-116650000D01*
X178590054Y-116420853D01*
X178108285Y-116098946D01*
X177540000Y-115985907D01*
X176971715Y-116098946D01*
X176489946Y-116420853D01*
X176462150Y-116462452D01*
X176453162Y-116414683D01*
X176314090Y-116198559D01*
X176101890Y-116053569D01*
X175850000Y-116002560D01*
X174150000Y-116002560D01*
X173914683Y-116046838D01*
X173698559Y-116185910D01*
X173553569Y-116398110D01*
X173502560Y-116650000D01*
X164429982Y-116650000D01*
X164531961Y-116497378D01*
X164645000Y-115929093D01*
X164645000Y-115870907D01*
X164531961Y-115302622D01*
X164210054Y-114820853D01*
X163924422Y-114630000D01*
X164210054Y-114439147D01*
X164531961Y-113957378D01*
X164645000Y-113389093D01*
X164645000Y-113330907D01*
X164531961Y-112762622D01*
X164210054Y-112280853D01*
X163728285Y-111958946D01*
X163160000Y-111845907D01*
X162591715Y-111958946D01*
X162109946Y-112280853D01*
X161890000Y-112610026D01*
X161670054Y-112280853D01*
X161188285Y-111958946D01*
X160620000Y-111845907D01*
X160051715Y-111958946D01*
X159569946Y-112280853D01*
X159350000Y-112610026D01*
X159130054Y-112280853D01*
X158648285Y-111958946D01*
X158080000Y-111845907D01*
X157511715Y-111958946D01*
X157029946Y-112280853D01*
X156810000Y-112610026D01*
X156590054Y-112280853D01*
X156108285Y-111958946D01*
X155540000Y-111845907D01*
X154971715Y-111958946D01*
X154489946Y-112280853D01*
X154270000Y-112610026D01*
X154050054Y-112280853D01*
X153568285Y-111958946D01*
X153000000Y-111845907D01*
X152431715Y-111958946D01*
X151949946Y-112280853D01*
X151730000Y-112610026D01*
X151510054Y-112280853D01*
X151028285Y-111958946D01*
X150460000Y-111845907D01*
X149891715Y-111958946D01*
X149409946Y-112280853D01*
X149190000Y-112610026D01*
X148970054Y-112280853D01*
X148488285Y-111958946D01*
X147920000Y-111845907D01*
X147351715Y-111958946D01*
X146869946Y-112280853D01*
X146842150Y-112322452D01*
X146833162Y-112274683D01*
X146694090Y-112058559D01*
X146481890Y-111913569D01*
X146230000Y-111862560D01*
X144530000Y-111862560D01*
X144294683Y-111906838D01*
X144078559Y-112045910D01*
X143933569Y-112258110D01*
X143882560Y-112510000D01*
X121566610Y-112510000D01*
X121386894Y-112075057D01*
X121312241Y-112000273D01*
X121385278Y-111927363D01*
X121634716Y-111326648D01*
X121635284Y-110676205D01*
X121386894Y-110075057D01*
X121312241Y-110000273D01*
X121385278Y-109927363D01*
X121634716Y-109326648D01*
X121635284Y-108676205D01*
X121386894Y-108075057D01*
X120927363Y-107614722D01*
X120326648Y-107365284D01*
X119676205Y-107364716D01*
X119075057Y-107613106D01*
X118614722Y-108072637D01*
X118365284Y-108673352D01*
X118364716Y-109323795D01*
X111710000Y-109323795D01*
X111710000Y-105785167D01*
X146464838Y-105785167D01*
X146606883Y-106128943D01*
X146869673Y-106392192D01*
X147213201Y-106534838D01*
X147585167Y-106535162D01*
X147928943Y-106393117D01*
X148192192Y-106130327D01*
X148334838Y-105786799D01*
X148335162Y-105414833D01*
X148193117Y-105071057D01*
X147930327Y-104807808D01*
X147586799Y-104665162D01*
X147214833Y-104664838D01*
X146871057Y-104806883D01*
X146607808Y-105069673D01*
X146465162Y-105413201D01*
X146464838Y-105785167D01*
X111710000Y-105785167D01*
X111710000Y-103000000D01*
X242485907Y-103000000D01*
X242598946Y-103568285D01*
X242920853Y-104050054D01*
X243250026Y-104270000D01*
X242920853Y-104489946D01*
X242598946Y-104971715D01*
X242485907Y-105540000D01*
X242598946Y-106108285D01*
X242920853Y-106590054D01*
X243250026Y-106810000D01*
X242920853Y-107029946D01*
X242598946Y-107511715D01*
X242485907Y-108080000D01*
X242598946Y-108648285D01*
X242920853Y-109130054D01*
X243250026Y-109350000D01*
X242920853Y-109569946D01*
X242598946Y-110051715D01*
X242485907Y-110620000D01*
X242598946Y-111188285D01*
X242920853Y-111670054D01*
X243402622Y-111991961D01*
X243970907Y-112105000D01*
X244029093Y-112105000D01*
X244597378Y-111991961D01*
X245079147Y-111670054D01*
X245401054Y-111188285D01*
X245514093Y-110620000D01*
X245401054Y-110051715D01*
X245079147Y-109569946D01*
X244749974Y-109350000D01*
X245079147Y-109130054D01*
X245401054Y-108648285D01*
X245514093Y-108080000D01*
X245401054Y-107511715D01*
X245079147Y-107029946D01*
X244749974Y-106810000D01*
X245079147Y-106590054D01*
X245401054Y-106108285D01*
X245514093Y-105540000D01*
X245401054Y-104971715D01*
X245079147Y-104489946D01*
X244749974Y-104270000D01*
X245079147Y-104050054D01*
X245401054Y-103568285D01*
X245514093Y-103000000D01*
X245401054Y-102431715D01*
X245079147Y-101949946D01*
X245037548Y-101922150D01*
X245085317Y-101913162D01*
X245301441Y-101774090D01*
X245446431Y-101561890D01*
X245497440Y-101310000D01*
X245497440Y-99610000D01*
X245453162Y-99374683D01*
X245314090Y-99158559D01*
X245101890Y-99013569D01*
X244850000Y-98962560D01*
X243150000Y-98962560D01*
X242914683Y-99006838D01*
X242698559Y-99145910D01*
X242553569Y-99358110D01*
X242502560Y-99610000D01*
X242502560Y-101310000D01*
X242546838Y-101545317D01*
X242685910Y-101761441D01*
X242898110Y-101906431D01*
X242965541Y-101920086D01*
X242920853Y-101949946D01*
X242598946Y-102431715D01*
X242485907Y-103000000D01*
X111710000Y-103000000D01*
X111710000Y-101335167D01*
X146764838Y-101335167D01*
X146906883Y-101678943D01*
X147169673Y-101942192D01*
X147513201Y-102084838D01*
X147885167Y-102085162D01*
X148228943Y-101943117D01*
X148492192Y-101680327D01*
X148634838Y-101336799D01*
X148635162Y-100964833D01*
X148493117Y-100621057D01*
X148230327Y-100357808D01*
X147886799Y-100215162D01*
X147514833Y-100214838D01*
X147171057Y-100356883D01*
X146907808Y-100619673D01*
X146765162Y-100963201D01*
X146764838Y-101335167D01*
X111710000Y-101335167D01*
X111710000Y-98185167D01*
X196464838Y-98185167D01*
X196606883Y-98528943D01*
X196869673Y-98792192D01*
X197064848Y-98873236D01*
X197064838Y-98885167D01*
X197206883Y-99228943D01*
X197469673Y-99492192D01*
X197813201Y-99634838D01*
X198185167Y-99635162D01*
X198528943Y-99493117D01*
X198792192Y-99230327D01*
X198934838Y-98886799D01*
X198935162Y-98514833D01*
X198793117Y-98171057D01*
X198530327Y-97907808D01*
X198335152Y-97826764D01*
X198335162Y-97814833D01*
X198193117Y-97471057D01*
X197930327Y-97207808D01*
X197586799Y-97065162D01*
X197214833Y-97064838D01*
X196871057Y-97206883D01*
X196607808Y-97469673D01*
X196465162Y-97813201D01*
X196464838Y-98185167D01*
X111710000Y-98185167D01*
X111710000Y-93185167D01*
X117064838Y-93185167D01*
X117206883Y-93528943D01*
X117469673Y-93792192D01*
X117813201Y-93934838D01*
X118185167Y-93935162D01*
X118528943Y-93793117D01*
X118536906Y-93785167D01*
X200764838Y-93785167D01*
X200906883Y-94128943D01*
X201169673Y-94392192D01*
X201513201Y-94534838D01*
X201868127Y-94535147D01*
X201906883Y-94628943D01*
X202169673Y-94892192D01*
X202513201Y-95034838D01*
X202885167Y-95035162D01*
X203228943Y-94893117D01*
X203492192Y-94630327D01*
X203634838Y-94286799D01*
X203635162Y-93914833D01*
X203493117Y-93571057D01*
X203230327Y-93307808D01*
X202886799Y-93165162D01*
X202531873Y-93164853D01*
X202493117Y-93071057D01*
X202230327Y-92807808D01*
X201886799Y-92665162D01*
X201514833Y-92664838D01*
X201171057Y-92806883D01*
X200907808Y-93069673D01*
X200765162Y-93413201D01*
X200764838Y-93785167D01*
X118536906Y-93785167D01*
X118792192Y-93530327D01*
X118934838Y-93186799D01*
X118935162Y-92814833D01*
X118798948Y-92485167D01*
X146864828Y-92485167D01*
X147006873Y-92828943D01*
X147269663Y-93092192D01*
X147613191Y-93234838D01*
X147985157Y-93235162D01*
X148328933Y-93093117D01*
X148592182Y-92830327D01*
X148734828Y-92486799D01*
X148734851Y-92460208D01*
X176564838Y-92460208D01*
X176706883Y-92803984D01*
X176969673Y-93067233D01*
X177313201Y-93209879D01*
X177685167Y-93210203D01*
X178028943Y-93068158D01*
X178087414Y-93009789D01*
X178169673Y-93092192D01*
X178513201Y-93234838D01*
X178885167Y-93235162D01*
X179228943Y-93093117D01*
X179492192Y-92830327D01*
X179634838Y-92486799D01*
X179635162Y-92114833D01*
X179493117Y-91771057D01*
X179230327Y-91507808D01*
X178886799Y-91365162D01*
X178514833Y-91364838D01*
X178171057Y-91506883D01*
X178112586Y-91565252D01*
X178030327Y-91482849D01*
X177686799Y-91340203D01*
X177314833Y-91339879D01*
X176971057Y-91481924D01*
X176707808Y-91744714D01*
X176565162Y-92088242D01*
X176564838Y-92460208D01*
X148734851Y-92460208D01*
X148735152Y-92114833D01*
X148593107Y-91771057D01*
X148330317Y-91507808D01*
X147986789Y-91365162D01*
X147614823Y-91364838D01*
X147271047Y-91506883D01*
X147007798Y-91769673D01*
X146865152Y-92113201D01*
X146864828Y-92485167D01*
X118798948Y-92485167D01*
X118793117Y-92471057D01*
X118530327Y-92207808D01*
X118186799Y-92065162D01*
X117814833Y-92064838D01*
X117471057Y-92206883D01*
X117207808Y-92469673D01*
X117065162Y-92813201D01*
X117064838Y-93185167D01*
X111710000Y-93185167D01*
X111710000Y-90285167D01*
X117164838Y-90285167D01*
X117306883Y-90628943D01*
X117569673Y-90892192D01*
X117913201Y-91034838D01*
X118285167Y-91035162D01*
X118628943Y-90893117D01*
X118892192Y-90630327D01*
X119034838Y-90286799D01*
X119035162Y-89914833D01*
X118893117Y-89571057D01*
X118630327Y-89307808D01*
X118286799Y-89165162D01*
X117914833Y-89164838D01*
X117571057Y-89306883D01*
X117307808Y-89569673D01*
X117165162Y-89913201D01*
X117164838Y-90285167D01*
X111710000Y-90285167D01*
X111710000Y-88985167D01*
X147264838Y-88985167D01*
X147406883Y-89328943D01*
X147669673Y-89592192D01*
X148013201Y-89734838D01*
X148385167Y-89735162D01*
X148728943Y-89593117D01*
X148992192Y-89330327D01*
X149052467Y-89185167D01*
X176564838Y-89185167D01*
X176706883Y-89528943D01*
X176969673Y-89792192D01*
X177313201Y-89934838D01*
X177685167Y-89935162D01*
X178028943Y-89793117D01*
X178149893Y-89672378D01*
X178169673Y-89692192D01*
X178513201Y-89834838D01*
X178885167Y-89835162D01*
X179228943Y-89693117D01*
X179296065Y-89626112D01*
X229947740Y-89626112D01*
X230089785Y-89969888D01*
X230352575Y-90233137D01*
X230696103Y-90375783D01*
X231068069Y-90376107D01*
X231411845Y-90234062D01*
X231675094Y-89971272D01*
X231817740Y-89627744D01*
X231818064Y-89255778D01*
X231768666Y-89136225D01*
X231777459Y-89127447D01*
X231920105Y-88783919D01*
X231920429Y-88411953D01*
X231849818Y-88241060D01*
X231976579Y-87935786D01*
X231976903Y-87563820D01*
X231907005Y-87394654D01*
X232034838Y-87086799D01*
X232035162Y-86714833D01*
X231893117Y-86371057D01*
X231868547Y-86346444D01*
X231934838Y-86186799D01*
X231935162Y-85814833D01*
X231793117Y-85471057D01*
X231772203Y-85450107D01*
X231892192Y-85330327D01*
X232034838Y-84986799D01*
X232035162Y-84614833D01*
X231971187Y-84460000D01*
X242485907Y-84460000D01*
X242598946Y-85028285D01*
X242920853Y-85510054D01*
X243250026Y-85730000D01*
X242920853Y-85949946D01*
X242598946Y-86431715D01*
X242485907Y-87000000D01*
X242598946Y-87568285D01*
X242920853Y-88050054D01*
X243250026Y-88270000D01*
X242920853Y-88489946D01*
X242598946Y-88971715D01*
X242485907Y-89540000D01*
X242598946Y-90108285D01*
X242920853Y-90590054D01*
X243250026Y-90810000D01*
X242920853Y-91029946D01*
X242598946Y-91511715D01*
X242485907Y-92080000D01*
X242598946Y-92648285D01*
X242920853Y-93130054D01*
X243250026Y-93350000D01*
X242920853Y-93569946D01*
X242598946Y-94051715D01*
X242485907Y-94620000D01*
X242598946Y-95188285D01*
X242920853Y-95670054D01*
X243402622Y-95991961D01*
X243970907Y-96105000D01*
X244029093Y-96105000D01*
X244597378Y-95991961D01*
X245079147Y-95670054D01*
X245401054Y-95188285D01*
X245514093Y-94620000D01*
X245401054Y-94051715D01*
X245079147Y-93569946D01*
X244749974Y-93350000D01*
X245079147Y-93130054D01*
X245401054Y-92648285D01*
X245514093Y-92080000D01*
X245401054Y-91511715D01*
X245079147Y-91029946D01*
X244749974Y-90810000D01*
X245079147Y-90590054D01*
X245401054Y-90108285D01*
X245514093Y-89540000D01*
X245401054Y-88971715D01*
X245079147Y-88489946D01*
X244749974Y-88270000D01*
X245079147Y-88050054D01*
X245401054Y-87568285D01*
X245514093Y-87000000D01*
X245401054Y-86431715D01*
X245079147Y-85949946D01*
X244749974Y-85730000D01*
X245079147Y-85510054D01*
X245401054Y-85028285D01*
X245514093Y-84460000D01*
X245401054Y-83891715D01*
X245079147Y-83409946D01*
X245037548Y-83382150D01*
X245085317Y-83373162D01*
X245301441Y-83234090D01*
X245446431Y-83021890D01*
X245497440Y-82770000D01*
X245497440Y-81070000D01*
X245453162Y-80834683D01*
X245314090Y-80618559D01*
X245101890Y-80473569D01*
X244850000Y-80422560D01*
X243150000Y-80422560D01*
X242914683Y-80466838D01*
X242698559Y-80605910D01*
X242553569Y-80818110D01*
X242502560Y-81070000D01*
X242502560Y-82770000D01*
X242546838Y-83005317D01*
X242685910Y-83221441D01*
X242898110Y-83366431D01*
X242965541Y-83380086D01*
X242920853Y-83409946D01*
X242598946Y-83891715D01*
X242485907Y-84460000D01*
X231971187Y-84460000D01*
X231893117Y-84271057D01*
X231630327Y-84007808D01*
X231286799Y-83865162D01*
X230914833Y-83864838D01*
X230571057Y-84006883D01*
X230307808Y-84269673D01*
X230165162Y-84613201D01*
X230164838Y-84985167D01*
X230306883Y-85328943D01*
X230327797Y-85349893D01*
X230207808Y-85469673D01*
X230065162Y-85813201D01*
X230064838Y-86185167D01*
X230206883Y-86528943D01*
X230231453Y-86553556D01*
X230165162Y-86713201D01*
X230164838Y-87085167D01*
X230234736Y-87254333D01*
X230106903Y-87562188D01*
X230106579Y-87934154D01*
X230177190Y-88105047D01*
X230050429Y-88410321D01*
X230050105Y-88782287D01*
X230099503Y-88901840D01*
X230090710Y-88910618D01*
X229948064Y-89254146D01*
X229947740Y-89626112D01*
X179296065Y-89626112D01*
X179492192Y-89430327D01*
X179634838Y-89086799D01*
X179635162Y-88714833D01*
X179493117Y-88371057D01*
X179230327Y-88107808D01*
X178886799Y-87965162D01*
X178514833Y-87964838D01*
X178171057Y-88106883D01*
X178050107Y-88227622D01*
X178030327Y-88207808D01*
X177686799Y-88065162D01*
X177314833Y-88064838D01*
X176971057Y-88206883D01*
X176707808Y-88469673D01*
X176565162Y-88813201D01*
X176564838Y-89185167D01*
X149052467Y-89185167D01*
X149134838Y-88986799D01*
X149134993Y-88808299D01*
X149328943Y-88728161D01*
X149592192Y-88465371D01*
X149734838Y-88121843D01*
X149735162Y-87749877D01*
X149593117Y-87406101D01*
X149330327Y-87142852D01*
X148986799Y-87000206D01*
X148614833Y-86999882D01*
X148271057Y-87141927D01*
X148007808Y-87404717D01*
X147865162Y-87748245D01*
X147865007Y-87926745D01*
X147671057Y-88006883D01*
X147407808Y-88269673D01*
X147265162Y-88613201D01*
X147264838Y-88985167D01*
X111710000Y-88985167D01*
X111710000Y-88120196D01*
X144364838Y-88120196D01*
X144506883Y-88463972D01*
X144769673Y-88727221D01*
X145113201Y-88869867D01*
X145485167Y-88870191D01*
X145828943Y-88728146D01*
X146092192Y-88465356D01*
X146234838Y-88121828D01*
X146235162Y-87749862D01*
X146093117Y-87406086D01*
X145830327Y-87142837D01*
X145486799Y-87000191D01*
X145114833Y-86999867D01*
X144771057Y-87141912D01*
X144507808Y-87404702D01*
X144365162Y-87748230D01*
X144364838Y-88120196D01*
X111710000Y-88120196D01*
X111710000Y-57308942D01*
X116439730Y-57308942D01*
X116676725Y-57882514D01*
X117064735Y-58271202D01*
X116678268Y-58656995D01*
X116440272Y-59230154D01*
X116439730Y-59850760D01*
X116676725Y-60424332D01*
X117064735Y-60813020D01*
X116678268Y-61198813D01*
X116440272Y-61771972D01*
X116439730Y-62392578D01*
X116676725Y-62966150D01*
X117115177Y-63405368D01*
X117206745Y-63443390D01*
X116816371Y-63833084D01*
X116603243Y-64346354D01*
X116602758Y-64902115D01*
X116814990Y-65415757D01*
X117207630Y-65809083D01*
X117417707Y-65896314D01*
X117209697Y-65982262D01*
X116816371Y-66374902D01*
X116603243Y-66888172D01*
X116602758Y-67443933D01*
X116814990Y-67957575D01*
X117205981Y-68349249D01*
X117117486Y-68385815D01*
X116678268Y-68824267D01*
X116440272Y-69397426D01*
X116439730Y-70018032D01*
X116676725Y-70591604D01*
X117064735Y-70980292D01*
X116678268Y-71366085D01*
X116440272Y-71939244D01*
X116439730Y-72559850D01*
X116676725Y-73133422D01*
X117064735Y-73522110D01*
X116678268Y-73907903D01*
X116440272Y-74481062D01*
X116439730Y-75101668D01*
X116676725Y-75675240D01*
X117064735Y-76063928D01*
X116678268Y-76449721D01*
X116440272Y-77022880D01*
X116439730Y-77643486D01*
X116676725Y-78217058D01*
X117064735Y-78605746D01*
X116678268Y-78991539D01*
X116440272Y-79564698D01*
X116439730Y-80185304D01*
X116676725Y-80758876D01*
X117064735Y-81147564D01*
X116678268Y-81533357D01*
X116440272Y-82106516D01*
X116439730Y-82727122D01*
X116676725Y-83300694D01*
X117064735Y-83689382D01*
X116678268Y-84075175D01*
X116440272Y-84648334D01*
X116439730Y-85268940D01*
X116676725Y-85842512D01*
X117115177Y-86281730D01*
X117688336Y-86519726D01*
X118308942Y-86520268D01*
X118882514Y-86283273D01*
X119321732Y-85844821D01*
X119559728Y-85271662D01*
X119559730Y-85268940D01*
X131679730Y-85268940D01*
X131916725Y-85842512D01*
X132355177Y-86281730D01*
X132928336Y-86519726D01*
X133548942Y-86520268D01*
X134122514Y-86283273D01*
X134510291Y-85896172D01*
X134895177Y-86281730D01*
X135468336Y-86519726D01*
X136088942Y-86520268D01*
X136662514Y-86283273D01*
X137101732Y-85844821D01*
X137339728Y-85271662D01*
X137340270Y-84651056D01*
X137103275Y-84077484D01*
X136664823Y-83638266D01*
X136091664Y-83400270D01*
X135471058Y-83399728D01*
X134897486Y-83636723D01*
X134509709Y-84023824D01*
X134124823Y-83638266D01*
X133551664Y-83400270D01*
X132931058Y-83399728D01*
X132357486Y-83636723D01*
X131918268Y-84075175D01*
X131680272Y-84648334D01*
X131679730Y-85268940D01*
X119559730Y-85268940D01*
X119560270Y-84651056D01*
X119323275Y-84077484D01*
X118935265Y-83688796D01*
X119321732Y-83303003D01*
X119559728Y-82729844D01*
X119560270Y-82109238D01*
X119323275Y-81535666D01*
X118935265Y-81146978D01*
X119321732Y-80761185D01*
X119559728Y-80188026D01*
X119560270Y-79567420D01*
X119323275Y-78993848D01*
X118935265Y-78605160D01*
X119321732Y-78219367D01*
X119559728Y-77646208D01*
X119560270Y-77025602D01*
X119323275Y-76452030D01*
X118935265Y-76063342D01*
X119321732Y-75677549D01*
X119559728Y-75104390D01*
X119560270Y-74483784D01*
X119323275Y-73910212D01*
X118935265Y-73521524D01*
X119321732Y-73135731D01*
X119559728Y-72562572D01*
X119560270Y-71941966D01*
X119323275Y-71368394D01*
X118935265Y-70979706D01*
X119321732Y-70593913D01*
X119559728Y-70020754D01*
X119560270Y-69400148D01*
X119323275Y-68826576D01*
X118884823Y-68387358D01*
X118793255Y-68349336D01*
X119183629Y-67959642D01*
X119396757Y-67446372D01*
X119397242Y-66890611D01*
X119185010Y-66376969D01*
X118931789Y-66123305D01*
X136054674Y-66123305D01*
X136341043Y-66816372D01*
X136870839Y-67347093D01*
X137239130Y-67500021D01*
X136873628Y-67651043D01*
X136342907Y-68180839D01*
X136055328Y-68873405D01*
X136054674Y-69623305D01*
X136341043Y-70316372D01*
X136870839Y-70847093D01*
X137239130Y-71000021D01*
X136873628Y-71151043D01*
X136342907Y-71680839D01*
X136055328Y-72373405D01*
X136054674Y-73123305D01*
X136341043Y-73816372D01*
X136870839Y-74347093D01*
X137239130Y-74500021D01*
X136873628Y-74651043D01*
X136342907Y-75180839D01*
X136055328Y-75873405D01*
X136054674Y-76623305D01*
X136341043Y-77316372D01*
X136870839Y-77847093D01*
X137239130Y-78000021D01*
X136873628Y-78151043D01*
X136342907Y-78680839D01*
X136055328Y-79373405D01*
X136054674Y-80123305D01*
X136341043Y-80816372D01*
X136870839Y-81347093D01*
X137563405Y-81634672D01*
X138313305Y-81635326D01*
X139006372Y-81348957D01*
X139537093Y-80819161D01*
X139824672Y-80126595D01*
X139825326Y-79376695D01*
X139538957Y-78683628D01*
X139009161Y-78152907D01*
X138640870Y-77999979D01*
X139006372Y-77848957D01*
X139537093Y-77319161D01*
X139824672Y-76626595D01*
X139825326Y-75876695D01*
X139538957Y-75183628D01*
X139009161Y-74652907D01*
X138640870Y-74499979D01*
X139006372Y-74348957D01*
X139537093Y-73819161D01*
X139824672Y-73126595D01*
X139825326Y-72376695D01*
X139538957Y-71683628D01*
X139009161Y-71152907D01*
X138640870Y-70999979D01*
X139006372Y-70848957D01*
X139537093Y-70319161D01*
X139824672Y-69626595D01*
X139825326Y-68876695D01*
X139538957Y-68183628D01*
X139009161Y-67652907D01*
X138640870Y-67499979D01*
X139006372Y-67348957D01*
X139537093Y-66819161D01*
X139824672Y-66126595D01*
X139825326Y-65376695D01*
X139538957Y-64683628D01*
X139009161Y-64152907D01*
X138653146Y-64005076D01*
X138964467Y-63876123D01*
X139093715Y-63583320D01*
X137940000Y-62429605D01*
X136786285Y-63583320D01*
X136915533Y-63876123D01*
X137239045Y-64000056D01*
X136873628Y-64151043D01*
X136342907Y-64680839D01*
X136055328Y-65373405D01*
X136054674Y-66123305D01*
X118931789Y-66123305D01*
X118792370Y-65983643D01*
X118582293Y-65896412D01*
X118790303Y-65810464D01*
X119183629Y-65417824D01*
X119396757Y-64904554D01*
X119397242Y-64348793D01*
X119185010Y-63835151D01*
X118794019Y-63443477D01*
X118882514Y-63406911D01*
X119321732Y-62968459D01*
X119559728Y-62395300D01*
X119560138Y-61925806D01*
X136045612Y-61925806D01*
X136065750Y-62675435D01*
X136313877Y-63274467D01*
X136606680Y-63403715D01*
X137760395Y-62250000D01*
X138119605Y-62250000D01*
X139273320Y-63403715D01*
X139566123Y-63274467D01*
X139834388Y-62574194D01*
X139814250Y-61824565D01*
X139566123Y-61225533D01*
X139273320Y-61096285D01*
X138119605Y-62250000D01*
X137760395Y-62250000D01*
X136606680Y-61096285D01*
X136313877Y-61225533D01*
X136045612Y-61925806D01*
X119560138Y-61925806D01*
X119560270Y-61774694D01*
X119323275Y-61201122D01*
X119039330Y-60916680D01*
X136786285Y-60916680D01*
X137940000Y-62070395D01*
X139093715Y-60916680D01*
X138964467Y-60623877D01*
X138264194Y-60355612D01*
X137514565Y-60375750D01*
X136915533Y-60623877D01*
X136786285Y-60916680D01*
X119039330Y-60916680D01*
X118935265Y-60812434D01*
X119321732Y-60426641D01*
X119559728Y-59853482D01*
X119560270Y-59232876D01*
X119323275Y-58659304D01*
X118935265Y-58270616D01*
X119270291Y-57936174D01*
X119655177Y-58321732D01*
X120228336Y-58559728D01*
X120848942Y-58560270D01*
X121422514Y-58323275D01*
X121861732Y-57884823D01*
X122099728Y-57311664D01*
X122099730Y-57308942D01*
X147439730Y-57308942D01*
X147676725Y-57882514D01*
X148064735Y-58271202D01*
X147678268Y-58656995D01*
X147440272Y-59230154D01*
X147439730Y-59850760D01*
X147676725Y-60424332D01*
X148064735Y-60813020D01*
X147678268Y-61198813D01*
X147440272Y-61771972D01*
X147439730Y-62392578D01*
X147676725Y-62966150D01*
X148115177Y-63405368D01*
X148206745Y-63443390D01*
X147816371Y-63833084D01*
X147603243Y-64346354D01*
X147602758Y-64902115D01*
X147814990Y-65415757D01*
X148207630Y-65809083D01*
X148417707Y-65896314D01*
X148209697Y-65982262D01*
X147816371Y-66374902D01*
X147603243Y-66888172D01*
X147602758Y-67443933D01*
X147814990Y-67957575D01*
X148205981Y-68349249D01*
X148117486Y-68385815D01*
X147678268Y-68824267D01*
X147440272Y-69397426D01*
X147439730Y-70018032D01*
X147676725Y-70591604D01*
X148064735Y-70980292D01*
X147678268Y-71366085D01*
X147440272Y-71939244D01*
X147439730Y-72559850D01*
X147676725Y-73133422D01*
X148064735Y-73522110D01*
X147678268Y-73907903D01*
X147440272Y-74481062D01*
X147439730Y-75101668D01*
X147676725Y-75675240D01*
X148064735Y-76063928D01*
X147678268Y-76449721D01*
X147440272Y-77022880D01*
X147439730Y-77643486D01*
X147676725Y-78217058D01*
X148064735Y-78605746D01*
X147678268Y-78991539D01*
X147440272Y-79564698D01*
X147439730Y-80185304D01*
X147676725Y-80758876D01*
X148064735Y-81147564D01*
X147678268Y-81533357D01*
X147440272Y-82106516D01*
X147439730Y-82727122D01*
X147676725Y-83300694D01*
X148064735Y-83689382D01*
X147678268Y-84075175D01*
X147440272Y-84648334D01*
X147439730Y-85268940D01*
X147676725Y-85842512D01*
X148115177Y-86281730D01*
X148688336Y-86519726D01*
X149308942Y-86520268D01*
X149882514Y-86283273D01*
X150321732Y-85844821D01*
X150559728Y-85271662D01*
X150559730Y-85268940D01*
X162679730Y-85268940D01*
X162916725Y-85842512D01*
X163355177Y-86281730D01*
X163928336Y-86519726D01*
X164548942Y-86520268D01*
X165122514Y-86283273D01*
X165510291Y-85896172D01*
X165895177Y-86281730D01*
X166468336Y-86519726D01*
X167088942Y-86520268D01*
X167662514Y-86283273D01*
X168101732Y-85844821D01*
X168195020Y-85620156D01*
X176464838Y-85620156D01*
X176606883Y-85963932D01*
X176869673Y-86227181D01*
X177213201Y-86369827D01*
X177585167Y-86370151D01*
X177928943Y-86228106D01*
X177941955Y-86215117D01*
X177953998Y-86227181D01*
X178297526Y-86369827D01*
X178669492Y-86370151D01*
X179013268Y-86228106D01*
X179276517Y-85965316D01*
X179419163Y-85621788D01*
X179419487Y-85249822D01*
X179277442Y-84906046D01*
X179014652Y-84642797D01*
X178671124Y-84500151D01*
X178299158Y-84499827D01*
X177955382Y-84641872D01*
X177942370Y-84654861D01*
X177930327Y-84642797D01*
X177586799Y-84500151D01*
X177214833Y-84499827D01*
X176871057Y-84641872D01*
X176607808Y-84904662D01*
X176465162Y-85248190D01*
X176464838Y-85620156D01*
X168195020Y-85620156D01*
X168339728Y-85271662D01*
X168340270Y-84651056D01*
X168103275Y-84077484D01*
X167664823Y-83638266D01*
X167091664Y-83400270D01*
X166471058Y-83399728D01*
X165897486Y-83636723D01*
X165509709Y-84023824D01*
X165124823Y-83638266D01*
X164551664Y-83400270D01*
X163931058Y-83399728D01*
X163357486Y-83636723D01*
X162918268Y-84075175D01*
X162680272Y-84648334D01*
X162679730Y-85268940D01*
X150559730Y-85268940D01*
X150560022Y-84935053D01*
X150685167Y-84935162D01*
X151028943Y-84793117D01*
X151292192Y-84530327D01*
X151434838Y-84186799D01*
X151435162Y-83814833D01*
X151424002Y-83787824D01*
X151764132Y-83788120D01*
X152107908Y-83646075D01*
X152371157Y-83383285D01*
X152513803Y-83039757D01*
X152514007Y-82805057D01*
X190423323Y-82805057D01*
X190565368Y-83148833D01*
X190828158Y-83412082D01*
X191061501Y-83508975D01*
X190997455Y-83663213D01*
X190997131Y-84035179D01*
X191139176Y-84378955D01*
X191401966Y-84642204D01*
X191408527Y-84644928D01*
X191233961Y-84819190D01*
X191091315Y-85162718D01*
X191090991Y-85534684D01*
X191233036Y-85878460D01*
X191495826Y-86141709D01*
X191839354Y-86284355D01*
X192211320Y-86284679D01*
X192555096Y-86142634D01*
X192818345Y-85879844D01*
X192960991Y-85536316D01*
X192961186Y-85312064D01*
X193168367Y-85105245D01*
X193311013Y-84761717D01*
X193311337Y-84389751D01*
X193169292Y-84045975D01*
X192906502Y-83782726D01*
X192867366Y-83766475D01*
X192867455Y-83664845D01*
X192730643Y-83333734D01*
X192828943Y-83293117D01*
X193092192Y-83030327D01*
X193234838Y-82686799D01*
X193235162Y-82314833D01*
X193093117Y-81971057D01*
X192830327Y-81707808D01*
X192486799Y-81565162D01*
X192114833Y-81564838D01*
X191771057Y-81706883D01*
X191720177Y-81757674D01*
X191545284Y-81685052D01*
X191173318Y-81684728D01*
X190829542Y-81826773D01*
X190566293Y-82089563D01*
X190423647Y-82433091D01*
X190423323Y-82805057D01*
X152514007Y-82805057D01*
X152514127Y-82667791D01*
X152372082Y-82324015D01*
X152109292Y-82060766D01*
X151765764Y-81918120D01*
X151393798Y-81917796D01*
X151050022Y-82059841D01*
X150786773Y-82322631D01*
X150644127Y-82666159D01*
X150643803Y-83038125D01*
X150654963Y-83065134D01*
X150420588Y-83064930D01*
X150559728Y-82729844D01*
X150560270Y-82109238D01*
X150323275Y-81535666D01*
X149935265Y-81146978D01*
X150321732Y-80761185D01*
X150559728Y-80188026D01*
X150560270Y-79567420D01*
X150323275Y-78993848D01*
X149935265Y-78605160D01*
X150321732Y-78219367D01*
X150559728Y-77646208D01*
X150560270Y-77025602D01*
X150323275Y-76452030D01*
X149935265Y-76063342D01*
X150321732Y-75677549D01*
X150559728Y-75104390D01*
X150560270Y-74483784D01*
X150323275Y-73910212D01*
X149935265Y-73521524D01*
X150321732Y-73135731D01*
X150559728Y-72562572D01*
X150560270Y-71941966D01*
X150323275Y-71368394D01*
X149935265Y-70979706D01*
X150321732Y-70593913D01*
X150559728Y-70020754D01*
X150560270Y-69400148D01*
X150323275Y-68826576D01*
X149884823Y-68387358D01*
X149793255Y-68349336D01*
X150183629Y-67959642D01*
X150396757Y-67446372D01*
X150397242Y-66890611D01*
X150185010Y-66376969D01*
X149931789Y-66123305D01*
X167054674Y-66123305D01*
X167341043Y-66816372D01*
X167870839Y-67347093D01*
X168239130Y-67500021D01*
X167873628Y-67651043D01*
X167342907Y-68180839D01*
X167055328Y-68873405D01*
X167054674Y-69623305D01*
X167341043Y-70316372D01*
X167870839Y-70847093D01*
X168239130Y-71000021D01*
X167873628Y-71151043D01*
X167342907Y-71680839D01*
X167055328Y-72373405D01*
X167054674Y-73123305D01*
X167341043Y-73816372D01*
X167870839Y-74347093D01*
X168239130Y-74500021D01*
X167873628Y-74651043D01*
X167342907Y-75180839D01*
X167055328Y-75873405D01*
X167054674Y-76623305D01*
X167341043Y-77316372D01*
X167870839Y-77847093D01*
X168239130Y-78000021D01*
X167873628Y-78151043D01*
X167342907Y-78680839D01*
X167055328Y-79373405D01*
X167054674Y-80123305D01*
X167341043Y-80816372D01*
X167870839Y-81347093D01*
X168563405Y-81634672D01*
X169313305Y-81635326D01*
X169616240Y-81510156D01*
X176569276Y-81510156D01*
X176711321Y-81853932D01*
X176974111Y-82117181D01*
X177317639Y-82259827D01*
X177689605Y-82260151D01*
X178033381Y-82118106D01*
X178277360Y-81874553D01*
X178469673Y-82067202D01*
X178813201Y-82209848D01*
X179185167Y-82210172D01*
X179528943Y-82068127D01*
X179792192Y-81805337D01*
X179934838Y-81461809D01*
X179935162Y-81089843D01*
X179793117Y-80746067D01*
X179530327Y-80482818D01*
X179186799Y-80340172D01*
X178814833Y-80339848D01*
X178471057Y-80481893D01*
X178227078Y-80725446D01*
X178034765Y-80532797D01*
X177691237Y-80390151D01*
X177319271Y-80389827D01*
X176975495Y-80531872D01*
X176712246Y-80794662D01*
X176569600Y-81138190D01*
X176569276Y-81510156D01*
X169616240Y-81510156D01*
X170006372Y-81348957D01*
X170537093Y-80819161D01*
X170824672Y-80126595D01*
X170825326Y-79376695D01*
X170538957Y-78683628D01*
X170009161Y-78152907D01*
X169640870Y-77999979D01*
X170006372Y-77848957D01*
X170537093Y-77319161D01*
X170824672Y-76626595D01*
X170825326Y-75876695D01*
X170538957Y-75183628D01*
X170484464Y-75129039D01*
X178608096Y-75129039D01*
X178768959Y-75517423D01*
X179144866Y-75932389D01*
X179650959Y-76171914D01*
X179873000Y-76050629D01*
X179873000Y-74907000D01*
X180127000Y-74907000D01*
X180127000Y-76050629D01*
X180349041Y-76171914D01*
X180855134Y-75932389D01*
X181231041Y-75517423D01*
X181391904Y-75129039D01*
X181269915Y-74907000D01*
X180127000Y-74907000D01*
X179873000Y-74907000D01*
X178730085Y-74907000D01*
X178608096Y-75129039D01*
X170484464Y-75129039D01*
X170009161Y-74652907D01*
X169640870Y-74499979D01*
X170006372Y-74348957D01*
X170537093Y-73819161D01*
X170824672Y-73126595D01*
X170825326Y-72376695D01*
X170538957Y-71683628D01*
X170009161Y-71152907D01*
X169640870Y-70999979D01*
X170006372Y-70848957D01*
X170537093Y-70319161D01*
X170824672Y-69626595D01*
X170825326Y-68876695D01*
X170538957Y-68183628D01*
X170009161Y-67652907D01*
X169640870Y-67499979D01*
X170006372Y-67348957D01*
X170537093Y-66819161D01*
X170824672Y-66126595D01*
X170825326Y-65376695D01*
X170538957Y-64683628D01*
X170009161Y-64152907D01*
X169653146Y-64005076D01*
X169964467Y-63876123D01*
X170093715Y-63583320D01*
X168940000Y-62429605D01*
X167786285Y-63583320D01*
X167915533Y-63876123D01*
X168239045Y-64000056D01*
X167873628Y-64151043D01*
X167342907Y-64680839D01*
X167055328Y-65373405D01*
X167054674Y-66123305D01*
X149931789Y-66123305D01*
X149792370Y-65983643D01*
X149582293Y-65896412D01*
X149790303Y-65810464D01*
X150183629Y-65417824D01*
X150396757Y-64904554D01*
X150397242Y-64348793D01*
X150185010Y-63835151D01*
X149794019Y-63443477D01*
X149882514Y-63406911D01*
X150321732Y-62968459D01*
X150559728Y-62395300D01*
X150560138Y-61925806D01*
X167045612Y-61925806D01*
X167065750Y-62675435D01*
X167313877Y-63274467D01*
X167606680Y-63403715D01*
X168760395Y-62250000D01*
X169119605Y-62250000D01*
X170273320Y-63403715D01*
X170566123Y-63274467D01*
X170834388Y-62574194D01*
X170814250Y-61824565D01*
X170566123Y-61225533D01*
X170273320Y-61096285D01*
X169119605Y-62250000D01*
X168760395Y-62250000D01*
X167606680Y-61096285D01*
X167313877Y-61225533D01*
X167045612Y-61925806D01*
X150560138Y-61925806D01*
X150560270Y-61774694D01*
X150323275Y-61201122D01*
X150039330Y-60916680D01*
X167786285Y-60916680D01*
X168940000Y-62070395D01*
X170093715Y-60916680D01*
X169964467Y-60623877D01*
X169264194Y-60355612D01*
X168514565Y-60375750D01*
X167915533Y-60623877D01*
X167786285Y-60916680D01*
X150039330Y-60916680D01*
X149935265Y-60812434D01*
X150321732Y-60426641D01*
X150559728Y-59853482D01*
X150560001Y-59540000D01*
X178536887Y-59540000D01*
X178646120Y-60089151D01*
X178957189Y-60554698D01*
X179339275Y-60810000D01*
X178957189Y-61065302D01*
X178646120Y-61530849D01*
X178536887Y-62080000D01*
X178646120Y-62629151D01*
X178957189Y-63094698D01*
X179339275Y-63350000D01*
X178957189Y-63605302D01*
X178646120Y-64070849D01*
X178536887Y-64620000D01*
X178646120Y-65169151D01*
X178957189Y-65634698D01*
X179339275Y-65890000D01*
X178957189Y-66145302D01*
X178646120Y-66610849D01*
X178536887Y-67160000D01*
X178646120Y-67709151D01*
X178957189Y-68174698D01*
X179339275Y-68430000D01*
X178957189Y-68685302D01*
X178646120Y-69150849D01*
X178536887Y-69700000D01*
X178646120Y-70249151D01*
X178957189Y-70714698D01*
X179339275Y-70970000D01*
X178957189Y-71225302D01*
X178646120Y-71690849D01*
X178536887Y-72240000D01*
X178646120Y-72789151D01*
X178957189Y-73254698D01*
X179361703Y-73524986D01*
X179144866Y-73627611D01*
X178768959Y-74042577D01*
X178608096Y-74430961D01*
X178730085Y-74653000D01*
X179873000Y-74653000D01*
X179873000Y-74633000D01*
X180127000Y-74633000D01*
X180127000Y-74653000D01*
X181269915Y-74653000D01*
X181391904Y-74430961D01*
X181231041Y-74042577D01*
X180855134Y-73627611D01*
X180638297Y-73524986D01*
X181042811Y-73254698D01*
X181353880Y-72789151D01*
X181463113Y-72240000D01*
X181353880Y-71690849D01*
X181042811Y-71225302D01*
X180660725Y-70970000D01*
X181042811Y-70714698D01*
X181353880Y-70249151D01*
X181463113Y-69700000D01*
X181353880Y-69150849D01*
X181042811Y-68685302D01*
X180660725Y-68430000D01*
X181042811Y-68174698D01*
X181353880Y-67709151D01*
X181463113Y-67160000D01*
X181353880Y-66610849D01*
X181042811Y-66145302D01*
X180660725Y-65890000D01*
X181042811Y-65634698D01*
X181353880Y-65169151D01*
X181463113Y-64620000D01*
X181353880Y-64070849D01*
X181042811Y-63605302D01*
X180660725Y-63350000D01*
X181042811Y-63094698D01*
X181353880Y-62629151D01*
X181463113Y-62080000D01*
X181353880Y-61530849D01*
X181042811Y-61065302D01*
X180660725Y-60810000D01*
X181042811Y-60554698D01*
X181353880Y-60089151D01*
X181463113Y-59540000D01*
X181353880Y-58990849D01*
X181042811Y-58525302D01*
X180898535Y-58428899D01*
X181035317Y-58403162D01*
X181251441Y-58264090D01*
X181396431Y-58051890D01*
X181447440Y-57800000D01*
X181447440Y-57000000D01*
X191236887Y-57000000D01*
X191346120Y-57549151D01*
X191657189Y-58014698D01*
X192039275Y-58270000D01*
X191657189Y-58525302D01*
X191346120Y-58990849D01*
X191236887Y-59540000D01*
X191346120Y-60089151D01*
X191657189Y-60554698D01*
X192039275Y-60810000D01*
X191657189Y-61065302D01*
X191346120Y-61530849D01*
X191236887Y-62080000D01*
X191346120Y-62629151D01*
X191657189Y-63094698D01*
X192039275Y-63350000D01*
X191657189Y-63605302D01*
X191346120Y-64070849D01*
X191236887Y-64620000D01*
X191346120Y-65169151D01*
X191657189Y-65634698D01*
X192039275Y-65890000D01*
X191657189Y-66145302D01*
X191346120Y-66610849D01*
X191236887Y-67160000D01*
X191346120Y-67709151D01*
X191657189Y-68174698D01*
X192039275Y-68430000D01*
X191657189Y-68685302D01*
X191346120Y-69150849D01*
X191236887Y-69700000D01*
X191346120Y-70249151D01*
X191657189Y-70714698D01*
X192039275Y-70970000D01*
X191657189Y-71225302D01*
X191346120Y-71690849D01*
X191236887Y-72240000D01*
X191346120Y-72789151D01*
X191657189Y-73254698D01*
X192039275Y-73510000D01*
X191657189Y-73765302D01*
X191346120Y-74230849D01*
X191236887Y-74780000D01*
X191346120Y-75329151D01*
X191657189Y-75794698D01*
X192122736Y-76105767D01*
X192671887Y-76215000D01*
X192728113Y-76215000D01*
X193277264Y-76105767D01*
X193742811Y-75794698D01*
X194053880Y-75329151D01*
X194093684Y-75129039D01*
X195608096Y-75129039D01*
X195768959Y-75517423D01*
X196144866Y-75932389D01*
X196650959Y-76171914D01*
X196873000Y-76050629D01*
X196873000Y-74907000D01*
X197127000Y-74907000D01*
X197127000Y-76050629D01*
X197349041Y-76171914D01*
X197855134Y-75932389D01*
X198231041Y-75517423D01*
X198391904Y-75129039D01*
X198269915Y-74907000D01*
X197127000Y-74907000D01*
X196873000Y-74907000D01*
X195730085Y-74907000D01*
X195608096Y-75129039D01*
X194093684Y-75129039D01*
X194163113Y-74780000D01*
X194053880Y-74230849D01*
X193742811Y-73765302D01*
X193360725Y-73510000D01*
X193742811Y-73254698D01*
X194053880Y-72789151D01*
X194163113Y-72240000D01*
X194053880Y-71690849D01*
X193742811Y-71225302D01*
X193360725Y-70970000D01*
X193742811Y-70714698D01*
X194053880Y-70249151D01*
X194163113Y-69700000D01*
X194053880Y-69150849D01*
X193742811Y-68685302D01*
X193360725Y-68430000D01*
X193742811Y-68174698D01*
X194053880Y-67709151D01*
X194163113Y-67160000D01*
X194053880Y-66610849D01*
X193742811Y-66145302D01*
X193360725Y-65890000D01*
X193742811Y-65634698D01*
X194053880Y-65169151D01*
X194163113Y-64620000D01*
X194053880Y-64070849D01*
X193742811Y-63605302D01*
X193360725Y-63350000D01*
X193742811Y-63094698D01*
X194053880Y-62629151D01*
X194163113Y-62080000D01*
X194053880Y-61530849D01*
X193742811Y-61065302D01*
X193360725Y-60810000D01*
X193742811Y-60554698D01*
X194053880Y-60089151D01*
X194163113Y-59540000D01*
X195536887Y-59540000D01*
X195646120Y-60089151D01*
X195957189Y-60554698D01*
X196339275Y-60810000D01*
X195957189Y-61065302D01*
X195646120Y-61530849D01*
X195536887Y-62080000D01*
X195646120Y-62629151D01*
X195957189Y-63094698D01*
X196339275Y-63350000D01*
X195957189Y-63605302D01*
X195646120Y-64070849D01*
X195536887Y-64620000D01*
X195646120Y-65169151D01*
X195957189Y-65634698D01*
X196339275Y-65890000D01*
X195957189Y-66145302D01*
X195646120Y-66610849D01*
X195536887Y-67160000D01*
X195646120Y-67709151D01*
X195957189Y-68174698D01*
X196339275Y-68430000D01*
X195957189Y-68685302D01*
X195646120Y-69150849D01*
X195536887Y-69700000D01*
X195646120Y-70249151D01*
X195957189Y-70714698D01*
X196339275Y-70970000D01*
X195957189Y-71225302D01*
X195646120Y-71690849D01*
X195536887Y-72240000D01*
X195646120Y-72789151D01*
X195957189Y-73254698D01*
X196361703Y-73524986D01*
X196144866Y-73627611D01*
X195768959Y-74042577D01*
X195608096Y-74430961D01*
X195730085Y-74653000D01*
X196873000Y-74653000D01*
X196873000Y-74633000D01*
X197127000Y-74633000D01*
X197127000Y-74653000D01*
X198269915Y-74653000D01*
X198391904Y-74430961D01*
X198231041Y-74042577D01*
X197855134Y-73627611D01*
X197638297Y-73524986D01*
X198042811Y-73254698D01*
X198353880Y-72789151D01*
X198463113Y-72240000D01*
X198353880Y-71690849D01*
X198042811Y-71225302D01*
X197660725Y-70970000D01*
X198042811Y-70714698D01*
X198353880Y-70249151D01*
X198463113Y-69700000D01*
X198353880Y-69150849D01*
X198042811Y-68685302D01*
X197660725Y-68430000D01*
X198042811Y-68174698D01*
X198353880Y-67709151D01*
X198463113Y-67160000D01*
X198353880Y-66610849D01*
X198042811Y-66145302D01*
X197660725Y-65890000D01*
X198042811Y-65634698D01*
X198353880Y-65169151D01*
X198463113Y-64620000D01*
X198353880Y-64070849D01*
X198042811Y-63605302D01*
X197660725Y-63350000D01*
X198042811Y-63094698D01*
X198353880Y-62629151D01*
X198463113Y-62080000D01*
X198353880Y-61530849D01*
X198042811Y-61065302D01*
X197660725Y-60810000D01*
X198042811Y-60554698D01*
X198353880Y-60089151D01*
X198463113Y-59540000D01*
X198353880Y-58990849D01*
X198042811Y-58525302D01*
X197898535Y-58428899D01*
X198035317Y-58403162D01*
X198251441Y-58264090D01*
X198396431Y-58051890D01*
X198447440Y-57800000D01*
X198447440Y-57000000D01*
X208236887Y-57000000D01*
X208346120Y-57549151D01*
X208657189Y-58014698D01*
X209039275Y-58270000D01*
X208657189Y-58525302D01*
X208346120Y-58990849D01*
X208236887Y-59540000D01*
X208346120Y-60089151D01*
X208657189Y-60554698D01*
X209039275Y-60810000D01*
X208657189Y-61065302D01*
X208346120Y-61530849D01*
X208236887Y-62080000D01*
X208346120Y-62629151D01*
X208657189Y-63094698D01*
X209039275Y-63350000D01*
X208657189Y-63605302D01*
X208346120Y-64070849D01*
X208236887Y-64620000D01*
X208346120Y-65169151D01*
X208657189Y-65634698D01*
X209039275Y-65890000D01*
X208657189Y-66145302D01*
X208346120Y-66610849D01*
X208236887Y-67160000D01*
X208346120Y-67709151D01*
X208657189Y-68174698D01*
X209039275Y-68430000D01*
X208657189Y-68685302D01*
X208346120Y-69150849D01*
X208236887Y-69700000D01*
X208346120Y-70249151D01*
X208657189Y-70714698D01*
X209039275Y-70970000D01*
X208657189Y-71225302D01*
X208346120Y-71690849D01*
X208236887Y-72240000D01*
X208346120Y-72789151D01*
X208657189Y-73254698D01*
X209039275Y-73510000D01*
X208657189Y-73765302D01*
X208346120Y-74230849D01*
X208236887Y-74780000D01*
X208346120Y-75329151D01*
X208657189Y-75794698D01*
X209122736Y-76105767D01*
X209420167Y-76164930D01*
X209314833Y-76164838D01*
X208971057Y-76306883D01*
X208707808Y-76569673D01*
X208565162Y-76913201D01*
X208564838Y-77285167D01*
X208706883Y-77628943D01*
X208969673Y-77892192D01*
X209313201Y-78034838D01*
X209626794Y-78035111D01*
X209706883Y-78228943D01*
X209969673Y-78492192D01*
X210313201Y-78634838D01*
X210685167Y-78635162D01*
X211028943Y-78493117D01*
X211292192Y-78230327D01*
X211434838Y-77886799D01*
X211435162Y-77514833D01*
X211293117Y-77171057D01*
X211030327Y-76907808D01*
X210975802Y-76885167D01*
X212064838Y-76885167D01*
X212206883Y-77228943D01*
X212365359Y-77387695D01*
X212365162Y-77388169D01*
X212364838Y-77760135D01*
X212506883Y-78103911D01*
X212769673Y-78367160D01*
X213113201Y-78509806D01*
X213485167Y-78510130D01*
X213828943Y-78368085D01*
X214092192Y-78105295D01*
X214234838Y-77761767D01*
X214234839Y-77760135D01*
X226064838Y-77760135D01*
X226206883Y-78103911D01*
X226469673Y-78367160D01*
X226813201Y-78509806D01*
X227185167Y-78510130D01*
X227528943Y-78368085D01*
X227792192Y-78105295D01*
X227934838Y-77761767D01*
X227935162Y-77389801D01*
X227933248Y-77385167D01*
X229064838Y-77385167D01*
X229206883Y-77728943D01*
X229469673Y-77992192D01*
X229813201Y-78134838D01*
X230185167Y-78135162D01*
X230282784Y-78094827D01*
X230207808Y-78169673D01*
X230065162Y-78513201D01*
X230064838Y-78885167D01*
X230072956Y-78904813D01*
X229907808Y-79069673D01*
X229765162Y-79413201D01*
X229764838Y-79785167D01*
X229895069Y-80100351D01*
X229765162Y-80413201D01*
X229764838Y-80785167D01*
X229895062Y-81100334D01*
X229765148Y-81413201D01*
X229764824Y-81785167D01*
X229895062Y-82100368D01*
X229765162Y-82413201D01*
X229764838Y-82785167D01*
X229906883Y-83128943D01*
X230169673Y-83392192D01*
X230513201Y-83534838D01*
X230885167Y-83535162D01*
X231228943Y-83393117D01*
X231492192Y-83130327D01*
X231634838Y-82786799D01*
X231635162Y-82414833D01*
X231504924Y-82099632D01*
X231634824Y-81786799D01*
X231635148Y-81414833D01*
X231504924Y-81099666D01*
X231634838Y-80786799D01*
X231635162Y-80414833D01*
X231504931Y-80099649D01*
X231634838Y-79786799D01*
X231635162Y-79414833D01*
X231627044Y-79395187D01*
X231792192Y-79230327D01*
X231934838Y-78886799D01*
X231935162Y-78514833D01*
X231793117Y-78171057D01*
X231530327Y-77907808D01*
X231186799Y-77765162D01*
X230814833Y-77764838D01*
X230717216Y-77805173D01*
X230792192Y-77730327D01*
X230934838Y-77386799D01*
X230935162Y-77014833D01*
X230793117Y-76671057D01*
X230530327Y-76407808D01*
X230186799Y-76265162D01*
X229814833Y-76264838D01*
X229471057Y-76406883D01*
X229207808Y-76669673D01*
X229065162Y-77013201D01*
X229064838Y-77385167D01*
X227933248Y-77385167D01*
X227793117Y-77046025D01*
X227530327Y-76782776D01*
X227186799Y-76640130D01*
X226814833Y-76639806D01*
X226471057Y-76781851D01*
X226207808Y-77044641D01*
X226065162Y-77388169D01*
X226064838Y-77760135D01*
X214234839Y-77760135D01*
X214235162Y-77389801D01*
X214093117Y-77046025D01*
X213934641Y-76887273D01*
X213934838Y-76886799D01*
X213935162Y-76514833D01*
X213793117Y-76171057D01*
X213743508Y-76121361D01*
X213873000Y-76050629D01*
X213873000Y-74907000D01*
X214127000Y-74907000D01*
X214127000Y-76050629D01*
X214349041Y-76171914D01*
X214855134Y-75932389D01*
X215231041Y-75517423D01*
X215391904Y-75129039D01*
X215269915Y-74907000D01*
X214127000Y-74907000D01*
X213873000Y-74907000D01*
X212730085Y-74907000D01*
X212608096Y-75129039D01*
X212768959Y-75517423D01*
X212993227Y-75764993D01*
X212814833Y-75764838D01*
X212471057Y-75906883D01*
X212207808Y-76169673D01*
X212065162Y-76513201D01*
X212064838Y-76885167D01*
X210975802Y-76885167D01*
X210686799Y-76765162D01*
X210373206Y-76764889D01*
X210293117Y-76571057D01*
X210030327Y-76307808D01*
X209781329Y-76204415D01*
X210277264Y-76105767D01*
X210742811Y-75794698D01*
X211053880Y-75329151D01*
X211163113Y-74780000D01*
X211053880Y-74230849D01*
X210742811Y-73765302D01*
X210360725Y-73510000D01*
X210742811Y-73254698D01*
X211053880Y-72789151D01*
X211163113Y-72240000D01*
X211053880Y-71690849D01*
X210742811Y-71225302D01*
X210360725Y-70970000D01*
X210742811Y-70714698D01*
X211053880Y-70249151D01*
X211163113Y-69700000D01*
X211053880Y-69150849D01*
X210742811Y-68685302D01*
X210360725Y-68430000D01*
X210742811Y-68174698D01*
X211053880Y-67709151D01*
X211163113Y-67160000D01*
X211053880Y-66610849D01*
X210742811Y-66145302D01*
X210360725Y-65890000D01*
X210742811Y-65634698D01*
X211053880Y-65169151D01*
X211163113Y-64620000D01*
X211053880Y-64070849D01*
X210742811Y-63605302D01*
X210360725Y-63350000D01*
X210742811Y-63094698D01*
X211053880Y-62629151D01*
X211163113Y-62080000D01*
X211053880Y-61530849D01*
X210742811Y-61065302D01*
X210360725Y-60810000D01*
X210742811Y-60554698D01*
X211053880Y-60089151D01*
X211163113Y-59540000D01*
X212536887Y-59540000D01*
X212646120Y-60089151D01*
X212957189Y-60554698D01*
X213339275Y-60810000D01*
X212957189Y-61065302D01*
X212646120Y-61530849D01*
X212536887Y-62080000D01*
X212646120Y-62629151D01*
X212957189Y-63094698D01*
X213339275Y-63350000D01*
X212957189Y-63605302D01*
X212646120Y-64070849D01*
X212536887Y-64620000D01*
X212646120Y-65169151D01*
X212957189Y-65634698D01*
X213339275Y-65890000D01*
X212957189Y-66145302D01*
X212646120Y-66610849D01*
X212536887Y-67160000D01*
X212646120Y-67709151D01*
X212957189Y-68174698D01*
X213339275Y-68430000D01*
X212957189Y-68685302D01*
X212646120Y-69150849D01*
X212536887Y-69700000D01*
X212646120Y-70249151D01*
X212957189Y-70714698D01*
X213339275Y-70970000D01*
X212957189Y-71225302D01*
X212646120Y-71690849D01*
X212536887Y-72240000D01*
X212646120Y-72789151D01*
X212957189Y-73254698D01*
X213361703Y-73524986D01*
X213144866Y-73627611D01*
X212768959Y-74042577D01*
X212608096Y-74430961D01*
X212730085Y-74653000D01*
X213873000Y-74653000D01*
X213873000Y-74633000D01*
X214127000Y-74633000D01*
X214127000Y-74653000D01*
X215269915Y-74653000D01*
X215391904Y-74430961D01*
X215231041Y-74042577D01*
X214855134Y-73627611D01*
X214638297Y-73524986D01*
X215042811Y-73254698D01*
X215353880Y-72789151D01*
X215463113Y-72240000D01*
X215353880Y-71690849D01*
X215042811Y-71225302D01*
X214660725Y-70970000D01*
X215042811Y-70714698D01*
X215353880Y-70249151D01*
X215463113Y-69700000D01*
X215353880Y-69150849D01*
X215042811Y-68685302D01*
X214660725Y-68430000D01*
X215042811Y-68174698D01*
X215353880Y-67709151D01*
X215463113Y-67160000D01*
X215353880Y-66610849D01*
X215042811Y-66145302D01*
X214660725Y-65890000D01*
X215042811Y-65634698D01*
X215353880Y-65169151D01*
X215463113Y-64620000D01*
X215353880Y-64070849D01*
X215042811Y-63605302D01*
X214660725Y-63350000D01*
X215042811Y-63094698D01*
X215353880Y-62629151D01*
X215463113Y-62080000D01*
X215353880Y-61530849D01*
X215042811Y-61065302D01*
X214660725Y-60810000D01*
X215042811Y-60554698D01*
X215353880Y-60089151D01*
X215463113Y-59540000D01*
X215353880Y-58990849D01*
X215042811Y-58525302D01*
X214898535Y-58428899D01*
X215035317Y-58403162D01*
X215251441Y-58264090D01*
X215396431Y-58051890D01*
X215447440Y-57800000D01*
X215447440Y-57000000D01*
X225236887Y-57000000D01*
X225346120Y-57549151D01*
X225657189Y-58014698D01*
X226039275Y-58270000D01*
X225657189Y-58525302D01*
X225346120Y-58990849D01*
X225236887Y-59540000D01*
X225346120Y-60089151D01*
X225657189Y-60554698D01*
X226039275Y-60810000D01*
X225657189Y-61065302D01*
X225346120Y-61530849D01*
X225236887Y-62080000D01*
X225346120Y-62629151D01*
X225657189Y-63094698D01*
X226039275Y-63350000D01*
X225657189Y-63605302D01*
X225346120Y-64070849D01*
X225236887Y-64620000D01*
X225346120Y-65169151D01*
X225657189Y-65634698D01*
X226039275Y-65890000D01*
X225657189Y-66145302D01*
X225346120Y-66610849D01*
X225236887Y-67160000D01*
X225346120Y-67709151D01*
X225657189Y-68174698D01*
X226039275Y-68430000D01*
X225657189Y-68685302D01*
X225346120Y-69150849D01*
X225236887Y-69700000D01*
X225346120Y-70249151D01*
X225657189Y-70714698D01*
X226039275Y-70970000D01*
X225657189Y-71225302D01*
X225346120Y-71690849D01*
X225236887Y-72240000D01*
X225346120Y-72789151D01*
X225657189Y-73254698D01*
X226039275Y-73510000D01*
X225657189Y-73765302D01*
X225346120Y-74230849D01*
X225236887Y-74780000D01*
X225346120Y-75329151D01*
X225657189Y-75794698D01*
X226122736Y-76105767D01*
X226671887Y-76215000D01*
X226728113Y-76215000D01*
X227277264Y-76105767D01*
X227742811Y-75794698D01*
X228053880Y-75329151D01*
X228093684Y-75129039D01*
X229608096Y-75129039D01*
X229768959Y-75517423D01*
X230144866Y-75932389D01*
X230650959Y-76171914D01*
X230873000Y-76050629D01*
X230873000Y-74907000D01*
X231127000Y-74907000D01*
X231127000Y-76050629D01*
X231349041Y-76171914D01*
X231855134Y-75932389D01*
X232231041Y-75517423D01*
X232391904Y-75129039D01*
X232269915Y-74907000D01*
X231127000Y-74907000D01*
X230873000Y-74907000D01*
X229730085Y-74907000D01*
X229608096Y-75129039D01*
X228093684Y-75129039D01*
X228163113Y-74780000D01*
X228053880Y-74230849D01*
X227742811Y-73765302D01*
X227360725Y-73510000D01*
X227742811Y-73254698D01*
X228053880Y-72789151D01*
X228163113Y-72240000D01*
X228053880Y-71690849D01*
X227742811Y-71225302D01*
X227360725Y-70970000D01*
X227742811Y-70714698D01*
X228053880Y-70249151D01*
X228163113Y-69700000D01*
X228053880Y-69150849D01*
X227742811Y-68685302D01*
X227360725Y-68430000D01*
X227742811Y-68174698D01*
X228053880Y-67709151D01*
X228163113Y-67160000D01*
X228053880Y-66610849D01*
X227742811Y-66145302D01*
X227360725Y-65890000D01*
X227742811Y-65634698D01*
X228053880Y-65169151D01*
X228163113Y-64620000D01*
X228053880Y-64070849D01*
X227742811Y-63605302D01*
X227360725Y-63350000D01*
X227742811Y-63094698D01*
X228053880Y-62629151D01*
X228163113Y-62080000D01*
X228053880Y-61530849D01*
X227742811Y-61065302D01*
X227360725Y-60810000D01*
X227742811Y-60554698D01*
X228053880Y-60089151D01*
X228163113Y-59540000D01*
X229536887Y-59540000D01*
X229646120Y-60089151D01*
X229957189Y-60554698D01*
X230339275Y-60810000D01*
X229957189Y-61065302D01*
X229646120Y-61530849D01*
X229536887Y-62080000D01*
X229646120Y-62629151D01*
X229957189Y-63094698D01*
X230339275Y-63350000D01*
X229957189Y-63605302D01*
X229646120Y-64070849D01*
X229536887Y-64620000D01*
X229646120Y-65169151D01*
X229957189Y-65634698D01*
X230339275Y-65890000D01*
X229957189Y-66145302D01*
X229646120Y-66610849D01*
X229536887Y-67160000D01*
X229646120Y-67709151D01*
X229957189Y-68174698D01*
X230339275Y-68430000D01*
X229957189Y-68685302D01*
X229646120Y-69150849D01*
X229536887Y-69700000D01*
X229646120Y-70249151D01*
X229957189Y-70714698D01*
X230339275Y-70970000D01*
X229957189Y-71225302D01*
X229646120Y-71690849D01*
X229536887Y-72240000D01*
X229646120Y-72789151D01*
X229957189Y-73254698D01*
X230361703Y-73524986D01*
X230144866Y-73627611D01*
X229768959Y-74042577D01*
X229608096Y-74430961D01*
X229730085Y-74653000D01*
X230873000Y-74653000D01*
X230873000Y-74633000D01*
X231127000Y-74633000D01*
X231127000Y-74653000D01*
X232269915Y-74653000D01*
X232391904Y-74430961D01*
X232231041Y-74042577D01*
X231855134Y-73627611D01*
X231638297Y-73524986D01*
X232042811Y-73254698D01*
X232353880Y-72789151D01*
X232463113Y-72240000D01*
X232353880Y-71690849D01*
X232042811Y-71225302D01*
X231660725Y-70970000D01*
X232042811Y-70714698D01*
X232353880Y-70249151D01*
X232463113Y-69700000D01*
X232353880Y-69150849D01*
X232042811Y-68685302D01*
X231660725Y-68430000D01*
X232042811Y-68174698D01*
X232353880Y-67709151D01*
X232463113Y-67160000D01*
X232353880Y-66610849D01*
X232042811Y-66145302D01*
X231660725Y-65890000D01*
X232042811Y-65634698D01*
X232353880Y-65169151D01*
X232463113Y-64620000D01*
X232353880Y-64070849D01*
X232042811Y-63605302D01*
X231660725Y-63350000D01*
X232042811Y-63094698D01*
X232353880Y-62629151D01*
X232463113Y-62080000D01*
X232353880Y-61530849D01*
X232042811Y-61065302D01*
X231660725Y-60810000D01*
X232042811Y-60554698D01*
X232353880Y-60089151D01*
X232463113Y-59540000D01*
X232353880Y-58990849D01*
X232042811Y-58525302D01*
X231898535Y-58428899D01*
X232035317Y-58403162D01*
X232251441Y-58264090D01*
X232396431Y-58051890D01*
X232447440Y-57800000D01*
X232447440Y-57000000D01*
X242236887Y-57000000D01*
X242346120Y-57549151D01*
X242657189Y-58014698D01*
X243039275Y-58270000D01*
X242657189Y-58525302D01*
X242346120Y-58990849D01*
X242236887Y-59540000D01*
X242346120Y-60089151D01*
X242657189Y-60554698D01*
X243039275Y-60810000D01*
X242657189Y-61065302D01*
X242346120Y-61530849D01*
X242236887Y-62080000D01*
X242346120Y-62629151D01*
X242657189Y-63094698D01*
X243039275Y-63350000D01*
X242657189Y-63605302D01*
X242346120Y-64070849D01*
X242236887Y-64620000D01*
X242346120Y-65169151D01*
X242657189Y-65634698D01*
X243039275Y-65890000D01*
X242657189Y-66145302D01*
X242346120Y-66610849D01*
X242236887Y-67160000D01*
X242346120Y-67709151D01*
X242657189Y-68174698D01*
X243039275Y-68430000D01*
X242657189Y-68685302D01*
X242346120Y-69150849D01*
X242236887Y-69700000D01*
X242346120Y-70249151D01*
X242657189Y-70714698D01*
X243039275Y-70970000D01*
X242657189Y-71225302D01*
X242346120Y-71690849D01*
X242236887Y-72240000D01*
X242346120Y-72789151D01*
X242657189Y-73254698D01*
X243039275Y-73510000D01*
X242657189Y-73765302D01*
X242346120Y-74230849D01*
X242236887Y-74780000D01*
X242346120Y-75329151D01*
X242657189Y-75794698D01*
X243122736Y-76105767D01*
X243671887Y-76215000D01*
X243728113Y-76215000D01*
X244277264Y-76105767D01*
X244742811Y-75794698D01*
X245053880Y-75329151D01*
X245163113Y-74780000D01*
X245053880Y-74230849D01*
X244742811Y-73765302D01*
X244360725Y-73510000D01*
X244742811Y-73254698D01*
X245053880Y-72789151D01*
X245163113Y-72240000D01*
X245053880Y-71690849D01*
X244742811Y-71225302D01*
X244360725Y-70970000D01*
X244742811Y-70714698D01*
X245053880Y-70249151D01*
X245163113Y-69700000D01*
X245053880Y-69150849D01*
X244742811Y-68685302D01*
X244360725Y-68430000D01*
X244742811Y-68174698D01*
X245053880Y-67709151D01*
X245163113Y-67160000D01*
X245053880Y-66610849D01*
X244742811Y-66145302D01*
X244360725Y-65890000D01*
X244742811Y-65634698D01*
X245053880Y-65169151D01*
X245163113Y-64620000D01*
X245053880Y-64070849D01*
X244742811Y-63605302D01*
X244360725Y-63350000D01*
X244742811Y-63094698D01*
X245053880Y-62629151D01*
X245163113Y-62080000D01*
X245053880Y-61530849D01*
X244742811Y-61065302D01*
X244360725Y-60810000D01*
X244742811Y-60554698D01*
X245053880Y-60089151D01*
X245163113Y-59540000D01*
X245053880Y-58990849D01*
X244742811Y-58525302D01*
X244360725Y-58270000D01*
X244742811Y-58014698D01*
X245053880Y-57549151D01*
X245163113Y-57000000D01*
X245053880Y-56450849D01*
X244742811Y-55985302D01*
X244277264Y-55674233D01*
X243728113Y-55565000D01*
X243671887Y-55565000D01*
X243122736Y-55674233D01*
X242657189Y-55985302D01*
X242346120Y-56450849D01*
X242236887Y-57000000D01*
X232447440Y-57000000D01*
X232447440Y-56200000D01*
X232403162Y-55964683D01*
X232264090Y-55748559D01*
X232051890Y-55603569D01*
X231800000Y-55552560D01*
X230200000Y-55552560D01*
X229964683Y-55596838D01*
X229748559Y-55735910D01*
X229603569Y-55948110D01*
X229552560Y-56200000D01*
X229552560Y-57800000D01*
X229596838Y-58035317D01*
X229735910Y-58251441D01*
X229948110Y-58396431D01*
X230103089Y-58427815D01*
X229957189Y-58525302D01*
X229646120Y-58990849D01*
X229536887Y-59540000D01*
X228163113Y-59540000D01*
X228053880Y-58990849D01*
X227742811Y-58525302D01*
X227360725Y-58270000D01*
X227742811Y-58014698D01*
X228053880Y-57549151D01*
X228163113Y-57000000D01*
X228053880Y-56450849D01*
X227742811Y-55985302D01*
X227277264Y-55674233D01*
X226728113Y-55565000D01*
X226671887Y-55565000D01*
X226122736Y-55674233D01*
X225657189Y-55985302D01*
X225346120Y-56450849D01*
X225236887Y-57000000D01*
X215447440Y-57000000D01*
X215447440Y-56200000D01*
X215403162Y-55964683D01*
X215264090Y-55748559D01*
X215051890Y-55603569D01*
X214800000Y-55552560D01*
X213200000Y-55552560D01*
X212964683Y-55596838D01*
X212748559Y-55735910D01*
X212603569Y-55948110D01*
X212552560Y-56200000D01*
X212552560Y-57800000D01*
X212596838Y-58035317D01*
X212735910Y-58251441D01*
X212948110Y-58396431D01*
X213103089Y-58427815D01*
X212957189Y-58525302D01*
X212646120Y-58990849D01*
X212536887Y-59540000D01*
X211163113Y-59540000D01*
X211053880Y-58990849D01*
X210742811Y-58525302D01*
X210360725Y-58270000D01*
X210742811Y-58014698D01*
X211053880Y-57549151D01*
X211163113Y-57000000D01*
X211053880Y-56450849D01*
X210742811Y-55985302D01*
X210277264Y-55674233D01*
X209728113Y-55565000D01*
X209671887Y-55565000D01*
X209122736Y-55674233D01*
X208657189Y-55985302D01*
X208346120Y-56450849D01*
X208236887Y-57000000D01*
X198447440Y-57000000D01*
X198447440Y-56200000D01*
X198403162Y-55964683D01*
X198264090Y-55748559D01*
X198051890Y-55603569D01*
X197800000Y-55552560D01*
X196200000Y-55552560D01*
X195964683Y-55596838D01*
X195748559Y-55735910D01*
X195603569Y-55948110D01*
X195552560Y-56200000D01*
X195552560Y-57800000D01*
X195596838Y-58035317D01*
X195735910Y-58251441D01*
X195948110Y-58396431D01*
X196103089Y-58427815D01*
X195957189Y-58525302D01*
X195646120Y-58990849D01*
X195536887Y-59540000D01*
X194163113Y-59540000D01*
X194053880Y-58990849D01*
X193742811Y-58525302D01*
X193360725Y-58270000D01*
X193742811Y-58014698D01*
X194053880Y-57549151D01*
X194163113Y-57000000D01*
X194053880Y-56450849D01*
X193742811Y-55985302D01*
X193277264Y-55674233D01*
X192728113Y-55565000D01*
X192671887Y-55565000D01*
X192122736Y-55674233D01*
X191657189Y-55985302D01*
X191346120Y-56450849D01*
X191236887Y-57000000D01*
X181447440Y-57000000D01*
X181447440Y-56200000D01*
X181403162Y-55964683D01*
X181264090Y-55748559D01*
X181051890Y-55603569D01*
X180800000Y-55552560D01*
X179200000Y-55552560D01*
X178964683Y-55596838D01*
X178748559Y-55735910D01*
X178603569Y-55948110D01*
X178552560Y-56200000D01*
X178552560Y-57800000D01*
X178596838Y-58035317D01*
X178735910Y-58251441D01*
X178948110Y-58396431D01*
X179103089Y-58427815D01*
X178957189Y-58525302D01*
X178646120Y-58990849D01*
X178536887Y-59540000D01*
X150560001Y-59540000D01*
X150560270Y-59232876D01*
X150323275Y-58659304D01*
X149935265Y-58270616D01*
X150270291Y-57936174D01*
X150655177Y-58321732D01*
X151228336Y-58559728D01*
X151848942Y-58560270D01*
X152422514Y-58323275D01*
X152861732Y-57884823D01*
X153099728Y-57311664D01*
X153100270Y-56691058D01*
X152863275Y-56117486D01*
X152424823Y-55678268D01*
X151851664Y-55440272D01*
X151231058Y-55439730D01*
X150657486Y-55676725D01*
X150269709Y-56063826D01*
X149884823Y-55678268D01*
X149311664Y-55440272D01*
X148691058Y-55439730D01*
X148117486Y-55676725D01*
X147678268Y-56115177D01*
X147440272Y-56688336D01*
X147439730Y-57308942D01*
X122099730Y-57308942D01*
X122100270Y-56691058D01*
X121863275Y-56117486D01*
X121424823Y-55678268D01*
X120851664Y-55440272D01*
X120231058Y-55439730D01*
X119657486Y-55676725D01*
X119269709Y-56063826D01*
X118884823Y-55678268D01*
X118311664Y-55440272D01*
X117691058Y-55439730D01*
X117117486Y-55676725D01*
X116678268Y-56115177D01*
X116440272Y-56688336D01*
X116439730Y-57308942D01*
X111710000Y-57308942D01*
X111710000Y-49970907D01*
X116515000Y-49970907D01*
X116515000Y-50029093D01*
X116628039Y-50597378D01*
X116949946Y-51079147D01*
X117431715Y-51401054D01*
X118000000Y-51514093D01*
X118568285Y-51401054D01*
X119050054Y-51079147D01*
X119270000Y-50749974D01*
X119489946Y-51079147D01*
X119971715Y-51401054D01*
X120540000Y-51514093D01*
X121108285Y-51401054D01*
X121590054Y-51079147D01*
X121810000Y-50749974D01*
X122029946Y-51079147D01*
X122511715Y-51401054D01*
X123080000Y-51514093D01*
X123648285Y-51401054D01*
X124130054Y-51079147D01*
X124157850Y-51037548D01*
X124166838Y-51085317D01*
X124305910Y-51301441D01*
X124518110Y-51446431D01*
X124770000Y-51497440D01*
X126470000Y-51497440D01*
X126705317Y-51453162D01*
X126921441Y-51314090D01*
X127066431Y-51101890D01*
X127117440Y-50850000D01*
X127117440Y-49970907D01*
X147515000Y-49970907D01*
X147515000Y-50029093D01*
X147628039Y-50597378D01*
X147949946Y-51079147D01*
X148431715Y-51401054D01*
X149000000Y-51514093D01*
X149568285Y-51401054D01*
X150050054Y-51079147D01*
X150270000Y-50749974D01*
X150489946Y-51079147D01*
X150971715Y-51401054D01*
X151540000Y-51514093D01*
X152108285Y-51401054D01*
X152590054Y-51079147D01*
X152810000Y-50749974D01*
X153029946Y-51079147D01*
X153511715Y-51401054D01*
X154080000Y-51514093D01*
X154648285Y-51401054D01*
X155130054Y-51079147D01*
X155157850Y-51037548D01*
X155166838Y-51085317D01*
X155305910Y-51301441D01*
X155518110Y-51446431D01*
X155770000Y-51497440D01*
X157470000Y-51497440D01*
X157705317Y-51453162D01*
X157921441Y-51314090D01*
X158066431Y-51101890D01*
X158117440Y-50850000D01*
X158117440Y-49150000D01*
X178502560Y-49150000D01*
X178502560Y-50850000D01*
X178546838Y-51085317D01*
X178685910Y-51301441D01*
X178898110Y-51446431D01*
X179150000Y-51497440D01*
X180850000Y-51497440D01*
X181085317Y-51453162D01*
X181301441Y-51314090D01*
X181446431Y-51101890D01*
X181460086Y-51034459D01*
X181489946Y-51079147D01*
X181971715Y-51401054D01*
X182540000Y-51514093D01*
X183108285Y-51401054D01*
X183590054Y-51079147D01*
X183810000Y-50749974D01*
X184029946Y-51079147D01*
X184511715Y-51401054D01*
X185080000Y-51514093D01*
X185648285Y-51401054D01*
X186130054Y-51079147D01*
X186350000Y-50749974D01*
X186569946Y-51079147D01*
X187051715Y-51401054D01*
X187620000Y-51514093D01*
X188188285Y-51401054D01*
X188670054Y-51079147D01*
X188991961Y-50597378D01*
X189105000Y-50029093D01*
X189105000Y-49970907D01*
X188991961Y-49402622D01*
X188823165Y-49150000D01*
X195502560Y-49150000D01*
X195502560Y-50850000D01*
X195546838Y-51085317D01*
X195685910Y-51301441D01*
X195898110Y-51446431D01*
X196150000Y-51497440D01*
X197850000Y-51497440D01*
X198085317Y-51453162D01*
X198301441Y-51314090D01*
X198446431Y-51101890D01*
X198460086Y-51034459D01*
X198489946Y-51079147D01*
X198971715Y-51401054D01*
X199540000Y-51514093D01*
X200108285Y-51401054D01*
X200590054Y-51079147D01*
X200810000Y-50749974D01*
X201029946Y-51079147D01*
X201511715Y-51401054D01*
X202080000Y-51514093D01*
X202648285Y-51401054D01*
X203130054Y-51079147D01*
X203350000Y-50749974D01*
X203569946Y-51079147D01*
X204051715Y-51401054D01*
X204620000Y-51514093D01*
X205188285Y-51401054D01*
X205670054Y-51079147D01*
X205991961Y-50597378D01*
X206105000Y-50029093D01*
X206105000Y-49970907D01*
X205991961Y-49402622D01*
X205823165Y-49150000D01*
X212502560Y-49150000D01*
X212502560Y-50850000D01*
X212546838Y-51085317D01*
X212685910Y-51301441D01*
X212898110Y-51446431D01*
X213150000Y-51497440D01*
X214850000Y-51497440D01*
X215085317Y-51453162D01*
X215301441Y-51314090D01*
X215446431Y-51101890D01*
X215460086Y-51034459D01*
X215489946Y-51079147D01*
X215971715Y-51401054D01*
X216540000Y-51514093D01*
X217108285Y-51401054D01*
X217590054Y-51079147D01*
X217810000Y-50749974D01*
X218029946Y-51079147D01*
X218511715Y-51401054D01*
X219080000Y-51514093D01*
X219648285Y-51401054D01*
X220130054Y-51079147D01*
X220350000Y-50749974D01*
X220569946Y-51079147D01*
X221051715Y-51401054D01*
X221620000Y-51514093D01*
X222188285Y-51401054D01*
X222670054Y-51079147D01*
X222991961Y-50597378D01*
X223105000Y-50029093D01*
X223105000Y-49970907D01*
X222991961Y-49402622D01*
X222823165Y-49150000D01*
X229502560Y-49150000D01*
X229502560Y-50850000D01*
X229546838Y-51085317D01*
X229685910Y-51301441D01*
X229898110Y-51446431D01*
X230150000Y-51497440D01*
X231850000Y-51497440D01*
X232085317Y-51453162D01*
X232301441Y-51314090D01*
X232446431Y-51101890D01*
X232460086Y-51034459D01*
X232489946Y-51079147D01*
X232971715Y-51401054D01*
X233540000Y-51514093D01*
X234108285Y-51401054D01*
X234590054Y-51079147D01*
X234810000Y-50749974D01*
X235029946Y-51079147D01*
X235511715Y-51401054D01*
X236080000Y-51514093D01*
X236648285Y-51401054D01*
X237130054Y-51079147D01*
X237350000Y-50749974D01*
X237569946Y-51079147D01*
X238051715Y-51401054D01*
X238620000Y-51514093D01*
X239188285Y-51401054D01*
X239670054Y-51079147D01*
X239991961Y-50597378D01*
X240105000Y-50029093D01*
X240105000Y-49970907D01*
X239991961Y-49402622D01*
X239670054Y-48920853D01*
X239188285Y-48598946D01*
X238620000Y-48485907D01*
X238051715Y-48598946D01*
X237569946Y-48920853D01*
X237350000Y-49250026D01*
X237130054Y-48920853D01*
X236648285Y-48598946D01*
X236080000Y-48485907D01*
X235511715Y-48598946D01*
X235029946Y-48920853D01*
X234810000Y-49250026D01*
X234590054Y-48920853D01*
X234108285Y-48598946D01*
X233540000Y-48485907D01*
X232971715Y-48598946D01*
X232489946Y-48920853D01*
X232462150Y-48962452D01*
X232453162Y-48914683D01*
X232314090Y-48698559D01*
X232101890Y-48553569D01*
X231850000Y-48502560D01*
X230150000Y-48502560D01*
X229914683Y-48546838D01*
X229698559Y-48685910D01*
X229553569Y-48898110D01*
X229502560Y-49150000D01*
X222823165Y-49150000D01*
X222670054Y-48920853D01*
X222188285Y-48598946D01*
X221620000Y-48485907D01*
X221051715Y-48598946D01*
X220569946Y-48920853D01*
X220350000Y-49250026D01*
X220130054Y-48920853D01*
X219648285Y-48598946D01*
X219080000Y-48485907D01*
X218511715Y-48598946D01*
X218029946Y-48920853D01*
X217810000Y-49250026D01*
X217590054Y-48920853D01*
X217108285Y-48598946D01*
X216540000Y-48485907D01*
X215971715Y-48598946D01*
X215489946Y-48920853D01*
X215462150Y-48962452D01*
X215453162Y-48914683D01*
X215314090Y-48698559D01*
X215101890Y-48553569D01*
X214850000Y-48502560D01*
X213150000Y-48502560D01*
X212914683Y-48546838D01*
X212698559Y-48685910D01*
X212553569Y-48898110D01*
X212502560Y-49150000D01*
X205823165Y-49150000D01*
X205670054Y-48920853D01*
X205188285Y-48598946D01*
X204620000Y-48485907D01*
X204051715Y-48598946D01*
X203569946Y-48920853D01*
X203350000Y-49250026D01*
X203130054Y-48920853D01*
X202648285Y-48598946D01*
X202080000Y-48485907D01*
X201511715Y-48598946D01*
X201029946Y-48920853D01*
X200810000Y-49250026D01*
X200590054Y-48920853D01*
X200108285Y-48598946D01*
X199540000Y-48485907D01*
X198971715Y-48598946D01*
X198489946Y-48920853D01*
X198462150Y-48962452D01*
X198453162Y-48914683D01*
X198314090Y-48698559D01*
X198101890Y-48553569D01*
X197850000Y-48502560D01*
X196150000Y-48502560D01*
X195914683Y-48546838D01*
X195698559Y-48685910D01*
X195553569Y-48898110D01*
X195502560Y-49150000D01*
X188823165Y-49150000D01*
X188670054Y-48920853D01*
X188188285Y-48598946D01*
X187620000Y-48485907D01*
X187051715Y-48598946D01*
X186569946Y-48920853D01*
X186350000Y-49250026D01*
X186130054Y-48920853D01*
X185648285Y-48598946D01*
X185080000Y-48485907D01*
X184511715Y-48598946D01*
X184029946Y-48920853D01*
X183810000Y-49250026D01*
X183590054Y-48920853D01*
X183108285Y-48598946D01*
X182540000Y-48485907D01*
X181971715Y-48598946D01*
X181489946Y-48920853D01*
X181462150Y-48962452D01*
X181453162Y-48914683D01*
X181314090Y-48698559D01*
X181101890Y-48553569D01*
X180850000Y-48502560D01*
X179150000Y-48502560D01*
X178914683Y-48546838D01*
X178698559Y-48685910D01*
X178553569Y-48898110D01*
X178502560Y-49150000D01*
X158117440Y-49150000D01*
X158073162Y-48914683D01*
X157934090Y-48698559D01*
X157721890Y-48553569D01*
X157470000Y-48502560D01*
X155770000Y-48502560D01*
X155534683Y-48546838D01*
X155318559Y-48685910D01*
X155173569Y-48898110D01*
X155159914Y-48965541D01*
X155130054Y-48920853D01*
X154648285Y-48598946D01*
X154080000Y-48485907D01*
X153511715Y-48598946D01*
X153029946Y-48920853D01*
X152810000Y-49250026D01*
X152590054Y-48920853D01*
X152108285Y-48598946D01*
X151540000Y-48485907D01*
X150971715Y-48598946D01*
X150489946Y-48920853D01*
X150270000Y-49250026D01*
X150050054Y-48920853D01*
X149568285Y-48598946D01*
X149000000Y-48485907D01*
X148431715Y-48598946D01*
X147949946Y-48920853D01*
X147628039Y-49402622D01*
X147515000Y-49970907D01*
X127117440Y-49970907D01*
X127117440Y-49150000D01*
X127073162Y-48914683D01*
X126934090Y-48698559D01*
X126721890Y-48553569D01*
X126470000Y-48502560D01*
X124770000Y-48502560D01*
X124534683Y-48546838D01*
X124318559Y-48685910D01*
X124173569Y-48898110D01*
X124159914Y-48965541D01*
X124130054Y-48920853D01*
X123648285Y-48598946D01*
X123080000Y-48485907D01*
X122511715Y-48598946D01*
X122029946Y-48920853D01*
X121810000Y-49250026D01*
X121590054Y-48920853D01*
X121108285Y-48598946D01*
X120540000Y-48485907D01*
X119971715Y-48598946D01*
X119489946Y-48920853D01*
X119270000Y-49250026D01*
X119050054Y-48920853D01*
X118568285Y-48598946D01*
X118000000Y-48485907D01*
X117431715Y-48598946D01*
X116949946Y-48920853D01*
X116628039Y-49402622D01*
X116515000Y-49970907D01*
X111710000Y-49970907D01*
X111710000Y-47710000D01*
X250290000Y-47710000D01*
X250290000Y-121290000D01*
M02*
