M48
;DRILL file {KiCad 4.0.7} date 03/14/18 22:29:56
;FORMAT={-:-/ absolute / inch / decimal}
FMAT,2
INCH,TZ
T1C0.016
T2C0.030
T3C0.031
T4C0.039
T5C0.040
T6C0.049
T7C0.060
%
G90
G05
M72
T1
X4.6457Y-3.6614
X4.6496Y-3.5472
X5.7205Y-3.462
X5.8031Y-4.1575
X5.815Y-3.9823
X5.8189Y-3.6339
X5.8346Y-3.4961
X5.8583Y-3.462
X5.9252Y-3.3071
X5.9677Y-3.2619
X6.9843Y-3.3636
X6.9882Y-3.5039
X6.9882Y-3.6329
X6.9884Y-3.2018
X7.0269Y-3.3636
X7.0354Y-3.5
X7.0354Y-3.6339
X7.0472Y-3.1998
X7.5338Y-3.2528
X7.5564Y-3.3012
X7.5601Y-3.3602
X7.5709Y-3.248
X7.5739Y-3.3297
X7.7717Y-3.8583
X7.7953Y-3.8858
X7.9409Y-3.685
X7.9803Y-3.7047
X8.248Y-3.0354
X8.2874Y-3.0591
X8.3858Y-3.0197
X8.3976Y-3.0541
X8.937Y-3.0541
X9.0551Y-3.0394
X9.0827Y-3.2126
X9.0827Y-3.1339
X9.0827Y-3.1732
X9.0827Y-3.252
X9.0899Y-3.5213
X9.0939Y-3.4881
X9.0945Y-3.0984
X9.0945Y-3.3858
X9.0961Y-3.4547
X9.0984Y-3.3386
X9.0984Y-3.4213
T2
X4.6457Y-2.5443
X4.6457Y-2.6444
X5.8661Y-2.5443
X5.8661Y-2.6444
T3
X7.0866Y-2.2441
X7.0866Y-2.3441
X7.0866Y-2.4441
X7.0866Y-2.5441
X7.0866Y-2.6441
X7.0866Y-2.7441
X7.0866Y-2.8441
X7.0866Y-2.9441
X7.5866Y-2.2441
X7.5866Y-2.3441
X7.5866Y-2.4441
X7.5866Y-2.5441
X7.5866Y-2.6441
X7.5866Y-2.7441
X7.5866Y-2.8441
X7.5866Y-2.9441
X7.7559Y-2.2441
X7.7559Y-2.3441
X7.7559Y-2.4441
X7.7559Y-2.5441
X7.7559Y-2.6441
X7.7559Y-2.7441
X7.7559Y-2.8441
X7.7559Y-2.9441
X8.2559Y-2.2441
X8.2559Y-2.3441
X8.2559Y-2.4441
X8.2559Y-2.5441
X8.2559Y-2.6441
X8.2559Y-2.7441
X8.2559Y-2.8441
X8.2559Y-2.9441
X8.4252Y-2.2441
X8.4252Y-2.3441
X8.4252Y-2.4441
X8.4252Y-2.5441
X8.4252Y-2.6441
X8.4252Y-2.7441
X8.4252Y-2.8441
X8.4252Y-2.9441
X8.9252Y-2.2441
X8.9252Y-2.3441
X8.9252Y-2.4441
X8.9252Y-2.5441
X8.9252Y-2.6441
X8.9252Y-2.7441
X8.9252Y-2.8441
X8.9252Y-2.9441
X9.0945Y-2.2441
X9.0945Y-2.3441
X9.0945Y-2.4441
X9.0945Y-2.5441
X9.0945Y-2.6441
X9.0945Y-2.7441
X9.0945Y-2.8441
X9.0945Y-2.9441
X9.5945Y-2.2441
X9.5945Y-2.3441
X9.5945Y-2.4441
X9.5945Y-2.5441
X9.5945Y-2.6441
X9.5945Y-2.7441
X9.5945Y-2.8441
X9.5945Y-2.9441
T4
X4.6457Y-1.9685
X4.7457Y-1.9685
X4.8457Y-1.9685
X4.9457Y-1.9685
X5.2165Y-4.626
X5.3165Y-4.626
X5.7236Y-4.463
X5.7236Y-4.563
X5.7236Y-4.663
X5.8236Y-4.463
X5.8236Y-4.563
X5.8236Y-4.663
X5.8661Y-1.9685
X5.9236Y-4.463
X5.9236Y-4.563
X5.9236Y-4.663
X5.9661Y-1.9685
X6.0236Y-4.463
X6.0236Y-4.563
X6.0236Y-4.663
X6.0661Y-1.9685
X6.1236Y-4.463
X6.1236Y-4.563
X6.1236Y-4.663
X6.1661Y-1.9685
X6.2236Y-4.463
X6.2236Y-4.563
X6.2236Y-4.663
X6.3236Y-4.463
X6.3236Y-4.563
X6.3236Y-4.663
X6.4236Y-4.463
X6.4236Y-4.563
X6.4236Y-4.663
X6.8898Y-4.626
X6.9898Y-4.626
X7.0866Y-1.9685
X7.1866Y-1.9685
X7.2866Y-1.9685
X7.3591Y-4.626
X7.3866Y-1.9685
X7.4591Y-4.626
X7.5591Y-4.626
X7.6591Y-4.626
X7.7559Y-1.9685
X7.7591Y-4.626
X7.8559Y-1.9685
X7.8591Y-4.626
X7.9559Y-1.9685
X8.0559Y-1.9685
X8.1465Y-4.626
X8.2465Y-4.626
X8.3465Y-4.626
X8.4252Y-1.9685
X8.4465Y-4.626
X8.5252Y-1.9685
X8.5465Y-4.626
X8.6252Y-1.9685
X8.6465Y-4.626
X8.7252Y-1.9685
X8.7465Y-4.626
X8.8465Y-4.626
X8.9465Y-4.626
X9.0465Y-4.626
X9.0945Y-1.9685
X9.1465Y-4.626
X9.1945Y-1.9685
X9.2465Y-4.626
X9.2945Y-1.9685
X9.3945Y-1.9685
X9.6063Y-3.2252
X9.6063Y-3.3252
X9.6063Y-3.4252
X9.6063Y-3.5252
X9.6063Y-3.6252
X9.6063Y-3.7252
X9.6063Y-3.9551
X9.6063Y-4.0551
X9.6063Y-4.1551
X9.6063Y-4.2551
X9.6063Y-4.3551
T5
X4.6457Y-2.2441
X4.6457Y-2.3442
X4.6457Y-2.4442
X4.6457Y-2.7445
X4.6457Y-2.8445
X4.6457Y-2.9446
X4.6457Y-3.0447
X4.6457Y-3.1447
X4.6457Y-3.2448
X4.6457Y-3.3449
X4.7457Y-2.2441
X5.2457Y-3.3449
X5.3457Y-3.3449
X5.8661Y-2.2441
X5.8661Y-2.3442
X5.8661Y-2.4442
X5.8661Y-2.7445
X5.8661Y-2.8445
X5.8661Y-2.9446
X5.8661Y-3.0447
X5.8661Y-3.1447
X5.8661Y-3.2448
X5.8661Y-3.3449
X5.9661Y-2.2441
X6.4661Y-3.3449
X6.5661Y-3.3449
T6
X4.7244Y-4.2913
X4.7244Y-4.3701
X4.7244Y-4.4488
X4.7244Y-4.5276
X4.7244Y-4.6063
X4.9606Y-3.8287
X5.0394Y-3.8287
X5.1181Y-3.8189
X5.1969Y-3.8189
X5.2756Y-3.8189
T7
X5.4307Y-2.4508
X5.4307Y-2.5886
X5.4307Y-2.7264
X5.4307Y-2.8642
X5.4307Y-3.002
X5.4307Y-3.1398
X6.6512Y-2.4508
X6.6512Y-2.5886
X6.6512Y-2.7264
X6.6512Y-2.8642
X6.6512Y-3.002
X6.6512Y-3.1398
T0
M30
