G04 #@! TF.FileFunction,Copper,L1,Top,Signal*
%FSLAX46Y46*%
G04 Gerber Fmt 4.6, Leading zero omitted, Abs format (unit mm)*
G04 Created by KiCad (PCBNEW 4.0.7) date 03/14/18 22:29:54*
%MOMM*%
%LPD*%
G01*
G04 APERTURE LIST*
%ADD10C,0.100000*%
%ADD11R,1.600000X1.600000*%
%ADD12O,1.600000X1.600000*%
%ADD13R,10.000000X5.000000*%
%ADD14R,1.700000X1.700000*%
%ADD15O,1.700000X1.700000*%
%ADD16R,1.000000X2.000000*%
%ADD17R,2.000000X1.000000*%
%ADD18C,1.850000*%
%ADD19C,1.524000*%
%ADD20C,2.500000*%
%ADD21R,0.400000X1.100000*%
%ADD22C,2.000000*%
%ADD23C,0.600000*%
%ADD24C,4.000000*%
%ADD25C,0.250000*%
%ADD26C,1.000000*%
%ADD27C,2.000000*%
G04 APERTURE END LIST*
D10*
D11*
X180000000Y-57000000D03*
D12*
X192700000Y-74780000D03*
X180000000Y-59540000D03*
X192700000Y-72240000D03*
X180000000Y-62080000D03*
X192700000Y-69700000D03*
X180000000Y-64620000D03*
X192700000Y-67160000D03*
X180000000Y-67160000D03*
X192700000Y-64620000D03*
X180000000Y-69700000D03*
X192700000Y-62080000D03*
X180000000Y-72240000D03*
X192700000Y-59540000D03*
X180000000Y-74780000D03*
X192700000Y-57000000D03*
D11*
X197000000Y-57000000D03*
D12*
X209700000Y-74780000D03*
X197000000Y-59540000D03*
X209700000Y-72240000D03*
X197000000Y-62080000D03*
X209700000Y-69700000D03*
X197000000Y-64620000D03*
X209700000Y-67160000D03*
X197000000Y-67160000D03*
X209700000Y-64620000D03*
X197000000Y-69700000D03*
X209700000Y-62080000D03*
X197000000Y-72240000D03*
X209700000Y-59540000D03*
X197000000Y-74780000D03*
X209700000Y-57000000D03*
D11*
X214000000Y-57000000D03*
D12*
X226700000Y-74780000D03*
X214000000Y-59540000D03*
X226700000Y-72240000D03*
X214000000Y-62080000D03*
X226700000Y-69700000D03*
X214000000Y-64620000D03*
X226700000Y-67160000D03*
X214000000Y-67160000D03*
X226700000Y-64620000D03*
X214000000Y-69700000D03*
X226700000Y-62080000D03*
X214000000Y-72240000D03*
X226700000Y-59540000D03*
X214000000Y-74780000D03*
X226700000Y-57000000D03*
D11*
X231000000Y-57000000D03*
D12*
X243700000Y-74780000D03*
X231000000Y-59540000D03*
X243700000Y-72240000D03*
X231000000Y-62080000D03*
X243700000Y-69700000D03*
X231000000Y-64620000D03*
X243700000Y-67160000D03*
X231000000Y-67160000D03*
X243700000Y-64620000D03*
X231000000Y-69700000D03*
X243700000Y-62080000D03*
X231000000Y-72240000D03*
X243700000Y-59540000D03*
X231000000Y-74780000D03*
X243700000Y-57000000D03*
D13*
X120000000Y-97250000D03*
X120000000Y-104750000D03*
D14*
X180000000Y-50000000D03*
D15*
X182540000Y-50000000D03*
X185080000Y-50000000D03*
X187620000Y-50000000D03*
D14*
X197000000Y-50000000D03*
D15*
X199540000Y-50000000D03*
X202080000Y-50000000D03*
X204620000Y-50000000D03*
D14*
X214000000Y-50000000D03*
D15*
X216540000Y-50000000D03*
X219080000Y-50000000D03*
X221620000Y-50000000D03*
D14*
X231000000Y-50000000D03*
D15*
X233540000Y-50000000D03*
X236080000Y-50000000D03*
X238620000Y-50000000D03*
D14*
X125620000Y-50000000D03*
D15*
X123080000Y-50000000D03*
X120540000Y-50000000D03*
X118000000Y-50000000D03*
D14*
X156620000Y-50000000D03*
D15*
X154080000Y-50000000D03*
X151540000Y-50000000D03*
X149000000Y-50000000D03*
D14*
X206920000Y-117500000D03*
D15*
X209460000Y-117500000D03*
X212000000Y-117500000D03*
X214540000Y-117500000D03*
X217080000Y-117500000D03*
X219620000Y-117500000D03*
X222160000Y-117500000D03*
X224700000Y-117500000D03*
X227240000Y-117500000D03*
X229780000Y-117500000D03*
X232320000Y-117500000D03*
X234860000Y-117500000D03*
D14*
X244000000Y-100460000D03*
D15*
X244000000Y-103000000D03*
X244000000Y-105540000D03*
X244000000Y-108080000D03*
X244000000Y-110620000D03*
D14*
X244000000Y-81920000D03*
D15*
X244000000Y-84460000D03*
X244000000Y-87000000D03*
X244000000Y-89540000D03*
X244000000Y-92080000D03*
X244000000Y-94620000D03*
D14*
X186920000Y-117500000D03*
D15*
X189460000Y-117500000D03*
X192000000Y-117500000D03*
X194540000Y-117500000D03*
X197080000Y-117500000D03*
X199620000Y-117500000D03*
D14*
X145380000Y-115900000D03*
D15*
X147920000Y-115900000D03*
X150460000Y-115900000D03*
X153000000Y-115900000D03*
X155540000Y-115900000D03*
X158080000Y-115900000D03*
X160620000Y-115900000D03*
X163160000Y-115900000D03*
D14*
X145380000Y-118440000D03*
D15*
X147920000Y-118440000D03*
X150460000Y-118440000D03*
X153000000Y-118440000D03*
X155540000Y-118440000D03*
X158080000Y-118440000D03*
X160620000Y-118440000D03*
X163160000Y-118440000D03*
D14*
X132500000Y-117500000D03*
D15*
X135040000Y-117500000D03*
D14*
X145380000Y-113360000D03*
D15*
X147920000Y-113360000D03*
X150460000Y-113360000D03*
X153000000Y-113360000D03*
X155540000Y-113360000D03*
X158080000Y-113360000D03*
X160620000Y-113360000D03*
X163160000Y-113360000D03*
D16*
X186600000Y-73000000D03*
X188000000Y-73000000D03*
X204300000Y-73000000D03*
X205700000Y-73000000D03*
X221300000Y-73000000D03*
X222700000Y-73000000D03*
X238300000Y-73000000D03*
X239700000Y-73000000D03*
X186600000Y-70000000D03*
X188000000Y-70000000D03*
X204300000Y-70000000D03*
X205700000Y-70000000D03*
X221300000Y-70000000D03*
X222700000Y-70000000D03*
X238300000Y-70000000D03*
X239700000Y-70000000D03*
X186600000Y-67000000D03*
X188000000Y-67000000D03*
X204300000Y-67000000D03*
X205700000Y-67000000D03*
X221300000Y-67000000D03*
X222700000Y-67000000D03*
X238300000Y-67000000D03*
X239700000Y-67000000D03*
D17*
X137000000Y-107000000D03*
X137000000Y-108400000D03*
D18*
X120540000Y-57000000D03*
X118000000Y-57000000D03*
X118000000Y-59541818D03*
X118000000Y-62083636D03*
D19*
X118000000Y-64625454D03*
X118000000Y-67167272D03*
D18*
X118000000Y-69709090D03*
X118000000Y-72250908D03*
X118000000Y-74792726D03*
X118000000Y-77334544D03*
X118000000Y-79876362D03*
X118000000Y-82418180D03*
X118000000Y-84959998D03*
D20*
X137940000Y-62250000D03*
X137940000Y-65750000D03*
X137940000Y-69250000D03*
X137940000Y-72750000D03*
X137940000Y-76250000D03*
X137940000Y-79750000D03*
D18*
X135780000Y-84959998D03*
X133240000Y-84959998D03*
X151540000Y-57000000D03*
X149000000Y-57000000D03*
X149000000Y-59541818D03*
X149000000Y-62083636D03*
D19*
X149000000Y-64625454D03*
X149000000Y-67167272D03*
D18*
X149000000Y-69709090D03*
X149000000Y-72250908D03*
X149000000Y-74792726D03*
X149000000Y-77334544D03*
X149000000Y-79876362D03*
X149000000Y-82418180D03*
X149000000Y-84959998D03*
D20*
X168940000Y-62250000D03*
X168940000Y-65750000D03*
X168940000Y-69250000D03*
X168940000Y-72750000D03*
X168940000Y-76250000D03*
X168940000Y-79750000D03*
D18*
X166780000Y-84959998D03*
X164240000Y-84959998D03*
D21*
X144775000Y-106850000D03*
X145425000Y-106850000D03*
X146075000Y-106850000D03*
X146725000Y-106850000D03*
X147375000Y-106850000D03*
X148025000Y-106850000D03*
X148675000Y-106850000D03*
X149325000Y-106850000D03*
X149975000Y-106850000D03*
X150625000Y-106850000D03*
X151275000Y-106850000D03*
X151925000Y-106850000D03*
X152575000Y-106850000D03*
X153225000Y-106850000D03*
X153225000Y-101150000D03*
X152575000Y-101150000D03*
X151925000Y-101150000D03*
X151275000Y-101150000D03*
X150625000Y-101150000D03*
X149975000Y-101150000D03*
X149325000Y-101150000D03*
X148675000Y-101150000D03*
X148025000Y-101150000D03*
X147375000Y-101150000D03*
X146725000Y-101150000D03*
X146075000Y-101150000D03*
X145425000Y-101150000D03*
X144775000Y-101150000D03*
D14*
X175000000Y-117500000D03*
D15*
X177540000Y-117500000D03*
D22*
X120000000Y-117000000D03*
X120000000Y-115000000D03*
X120000000Y-113000000D03*
X120000000Y-111000000D03*
X120000000Y-109000000D03*
D23*
X147400000Y-105600000D03*
X147700000Y-101150000D03*
X177400000Y-85434989D03*
X177504438Y-81324989D03*
X177500000Y-92275041D03*
X177500000Y-89000000D03*
D22*
X134000000Y-97000000D03*
X132000000Y-97000000D03*
X130000000Y-97000000D03*
X128000000Y-97250000D03*
X126000000Y-97250000D03*
D23*
X178484325Y-85434989D03*
X179000000Y-81275010D03*
X178700000Y-88900000D03*
X178700000Y-92300000D03*
X213000000Y-76700000D03*
X197400000Y-98000000D03*
X209500000Y-77100000D03*
X201700000Y-93600000D03*
X210500000Y-77700000D03*
X198000000Y-98700000D03*
X202700000Y-94100000D03*
X227000000Y-77574968D03*
X213300000Y-77574968D03*
X230000000Y-77200000D03*
X192300000Y-82500000D03*
X231000000Y-86000000D03*
X191358485Y-82619890D03*
X231100000Y-86900000D03*
X191932293Y-83850012D03*
X231041741Y-87748987D03*
X192376175Y-84574918D03*
X145300000Y-87935029D03*
X148800000Y-87935044D03*
X150500000Y-84000000D03*
X151578965Y-82852958D03*
X230985267Y-88597120D03*
X192026153Y-85349517D03*
X230882902Y-89440945D03*
X231000000Y-78700000D03*
X230700000Y-79600000D03*
X230700000Y-80600000D03*
X230699986Y-81600000D03*
X230700000Y-82600000D03*
X231100000Y-84800000D03*
X118000000Y-93000000D03*
X118100000Y-90100000D03*
X148200000Y-88800000D03*
X147799990Y-92300000D03*
D24*
X120000000Y-115000000D02*
X120000000Y-117000000D01*
X120000000Y-113000000D02*
X120000000Y-115000000D01*
X120000000Y-111000000D02*
X120000000Y-113000000D01*
X120000000Y-109000000D02*
X120000000Y-111000000D01*
X120000000Y-104750000D02*
X120000000Y-109000000D01*
D25*
X147824264Y-105600000D02*
X147400000Y-105600000D01*
X152775000Y-105600000D02*
X147824264Y-105600000D01*
X153225000Y-106050000D02*
X152775000Y-105600000D01*
X153225000Y-106850000D02*
X153225000Y-106050000D01*
X147375000Y-105625000D02*
X147400000Y-105600000D01*
X147375000Y-106850000D02*
X147375000Y-105625000D01*
X147375000Y-101150000D02*
X147700000Y-101150000D01*
X147700000Y-101150000D02*
X148025000Y-101150000D01*
X146725000Y-106850000D02*
X147375000Y-106850000D01*
X146075000Y-106850000D02*
X146725000Y-106850000D01*
X145425000Y-106850000D02*
X146075000Y-106850000D01*
X144775000Y-106850000D02*
X145425000Y-106850000D01*
X177500000Y-85534989D02*
X177400000Y-85434989D01*
X177500000Y-89000000D02*
X177500000Y-85534989D01*
X180000000Y-59540000D02*
X177504438Y-62035562D01*
X177504438Y-80900725D02*
X177504438Y-81324989D01*
X177504438Y-62035562D02*
X177504438Y-80900725D01*
X177799999Y-92575040D02*
X177500000Y-92275041D01*
X192000000Y-117500000D02*
X192000000Y-106775041D01*
X192000000Y-106775041D02*
X177799999Y-92575040D01*
X188000000Y-73000000D02*
X191940000Y-73000000D01*
X191940000Y-73000000D02*
X192700000Y-72240000D01*
D26*
X180000000Y-62080000D02*
X182540000Y-59540000D01*
X182540000Y-59540000D02*
X182540000Y-50000000D01*
D25*
X188000000Y-70000000D02*
X192400000Y-70000000D01*
X192400000Y-70000000D02*
X192700000Y-69700000D01*
X188000000Y-67000000D02*
X192540000Y-67000000D01*
X192540000Y-67000000D02*
X192700000Y-67160000D01*
D26*
X180000000Y-67160000D02*
X185080000Y-62080000D01*
X185080000Y-62080000D02*
X185080000Y-50000000D01*
D25*
X186600000Y-67000000D02*
X186600000Y-73000000D01*
X204300000Y-67000000D02*
X204300000Y-68250000D01*
X204300000Y-68250000D02*
X204300000Y-73000000D01*
X221300000Y-67000000D02*
X221300000Y-73000000D01*
X238300000Y-67000000D02*
X238300000Y-68250000D01*
X238300000Y-68250000D02*
X238300000Y-73000000D01*
X243700000Y-64620000D02*
X239430000Y-64620000D01*
X239430000Y-64620000D02*
X238300000Y-65750000D01*
X238300000Y-65750000D02*
X238300000Y-67000000D01*
X226700000Y-64620000D02*
X222430000Y-64620000D01*
X222430000Y-64620000D02*
X221300000Y-65750000D01*
X221300000Y-65750000D02*
X221300000Y-67000000D01*
X209700000Y-64620000D02*
X205430000Y-64620000D01*
X205430000Y-64620000D02*
X204300000Y-65750000D01*
X204300000Y-65750000D02*
X204300000Y-67000000D01*
X192700000Y-64620000D02*
X187730000Y-64620000D01*
X187730000Y-64620000D02*
X186600000Y-65750000D01*
X186600000Y-65750000D02*
X186600000Y-67000000D01*
D26*
X187620000Y-51202081D02*
X187620000Y-50000000D01*
X187620000Y-62080000D02*
X187620000Y-51202081D01*
X180000000Y-69700000D02*
X187620000Y-62080000D01*
D25*
X217080000Y-117500000D02*
X217080000Y-113500056D01*
X217080000Y-113500056D02*
X193875001Y-90295057D01*
X193499999Y-60339999D02*
X192700000Y-59540000D01*
X193875001Y-90295057D02*
X193875001Y-60715001D01*
X193875001Y-60715001D02*
X193499999Y-60339999D01*
D24*
X132000000Y-97000000D02*
X134000000Y-97000000D01*
X130000000Y-97000000D02*
X132000000Y-97000000D01*
X128000000Y-97250000D02*
X129750000Y-97250000D01*
X129750000Y-97250000D02*
X130000000Y-97000000D01*
D26*
X128750000Y-97250000D02*
X128000000Y-97250000D01*
D24*
X126000000Y-97250000D02*
X128000000Y-97250000D01*
X120000000Y-97250000D02*
X126000000Y-97250000D01*
D26*
X137000000Y-107000000D02*
X137000000Y-105500000D01*
X137000000Y-105500000D02*
X128750000Y-97250000D01*
D25*
X193499999Y-57799999D02*
X192700000Y-57000000D01*
X194375012Y-58675012D02*
X193499999Y-57799999D01*
X194375012Y-90087946D02*
X194375012Y-58675012D01*
X219620000Y-117500000D02*
X219620000Y-115332934D01*
X219620000Y-115332934D02*
X194375012Y-90087946D01*
X178700000Y-88900000D02*
X178700000Y-85650664D01*
X178700000Y-85650664D02*
X178484325Y-85434989D01*
X179299999Y-80975011D02*
X179000000Y-81275010D01*
X185724999Y-74550011D02*
X179299999Y-80975011D01*
X191524999Y-59899999D02*
X185724999Y-65699999D01*
X192135999Y-55824999D02*
X191524999Y-56435999D01*
X193284999Y-55824999D02*
X192135999Y-55824999D01*
X191524999Y-56435999D02*
X191524999Y-59899999D01*
X197000000Y-59540000D02*
X193284999Y-55824999D01*
X185724999Y-65699999D02*
X185724999Y-74550011D01*
X194540000Y-117500000D02*
X194540000Y-108140000D01*
X194540000Y-108140000D02*
X178700000Y-92300000D01*
X205700000Y-73000000D02*
X208940000Y-73000000D01*
X208940000Y-73000000D02*
X209700000Y-72240000D01*
D26*
X197000000Y-62080000D02*
X199540000Y-59540000D01*
X199540000Y-59540000D02*
X199540000Y-50000000D01*
D25*
X205700000Y-70000000D02*
X209400000Y-70000000D01*
X209400000Y-70000000D02*
X209700000Y-69700000D01*
X205700000Y-67000000D02*
X209540000Y-67000000D01*
X209540000Y-67000000D02*
X209700000Y-67160000D01*
D26*
X197000000Y-67160000D02*
X202080000Y-62080000D01*
X202080000Y-62080000D02*
X202080000Y-50000000D01*
X197000000Y-69700000D02*
X204620000Y-62080000D01*
X204620000Y-62080000D02*
X204620000Y-50000000D01*
D25*
X211249989Y-105387908D02*
X211249989Y-61089989D01*
X222160000Y-116297919D02*
X211249989Y-105387908D01*
X211249989Y-61089989D02*
X210499999Y-60339999D01*
X222160000Y-117500000D02*
X222160000Y-116297919D01*
X210499999Y-60339999D02*
X209700000Y-59540000D01*
X224700000Y-117500000D02*
X211900000Y-104700000D01*
X211900000Y-104700000D02*
X211900000Y-59200000D01*
X211900000Y-59200000D02*
X210499999Y-57799999D01*
X210499999Y-57799999D02*
X209700000Y-57000000D01*
X212700001Y-76400001D02*
X213000000Y-76700000D01*
X212700001Y-60839999D02*
X212700001Y-76400001D01*
X214000000Y-59540000D02*
X212700001Y-60839999D01*
X197100001Y-98299999D02*
X197400000Y-98000000D01*
X197080000Y-98320000D02*
X197100001Y-98299999D01*
X197080000Y-117500000D02*
X197080000Y-98320000D01*
X209200001Y-77399999D02*
X209500000Y-77100000D01*
X201700000Y-93600000D02*
X201700000Y-84900000D01*
X201700000Y-84900000D02*
X209200001Y-77399999D01*
X222700000Y-73000000D02*
X225940000Y-73000000D01*
X225940000Y-73000000D02*
X226700000Y-72240000D01*
D26*
X214000000Y-62080000D02*
X216080000Y-60000000D01*
X216080000Y-60000000D02*
X216500000Y-60000000D01*
X216500000Y-60000000D02*
X216540000Y-59960000D01*
X216540000Y-59960000D02*
X216540000Y-50000000D01*
D25*
X222700000Y-70000000D02*
X226400000Y-70000000D01*
X226400000Y-70000000D02*
X226700000Y-69700000D01*
X222700000Y-67000000D02*
X226540000Y-67000000D01*
X226540000Y-67000000D02*
X226700000Y-67160000D01*
D26*
X214000000Y-67160000D02*
X219080000Y-62080000D01*
X219080000Y-62080000D02*
X219080000Y-50000000D01*
X214000000Y-69700000D02*
X221620000Y-62080000D01*
X221620000Y-62080000D02*
X221620000Y-50000000D01*
D25*
X227499999Y-61140997D02*
X227499999Y-60339999D01*
X227875001Y-69135999D02*
X227799989Y-69060987D01*
X227875001Y-61515999D02*
X227499999Y-61140997D01*
X227875001Y-66595999D02*
X227799989Y-66520987D01*
X227799989Y-63980987D02*
X227799989Y-62719013D01*
X227875001Y-64055999D02*
X227799989Y-63980987D01*
X227875001Y-74215999D02*
X227799989Y-74140987D01*
X227875001Y-67724001D02*
X227875001Y-66595999D01*
X227799989Y-72879013D02*
X227875001Y-72804001D01*
X227799989Y-69060987D02*
X227799989Y-67799013D01*
X227799989Y-65259013D02*
X227875001Y-65184001D01*
X227875001Y-71675999D02*
X227799989Y-71600987D01*
X227875001Y-72804001D02*
X227875001Y-71675999D01*
X227799989Y-115737930D02*
X227799989Y-75419013D01*
X227875001Y-75344001D02*
X227875001Y-74215999D01*
X227875001Y-65184001D02*
X227875001Y-64055999D01*
X227799989Y-71600987D02*
X227799989Y-70339013D01*
X227799989Y-75419013D02*
X227875001Y-75344001D01*
X227240000Y-116297919D02*
X227799989Y-115737930D01*
X227240000Y-117500000D02*
X227240000Y-116297919D01*
X227799989Y-70339013D02*
X227875001Y-70264001D01*
X227875001Y-62644001D02*
X227875001Y-61515999D01*
X227875001Y-70264001D02*
X227875001Y-69135999D01*
X227799989Y-62719013D02*
X227875001Y-62644001D01*
X227799989Y-66520987D02*
X227799989Y-65259013D01*
X227799989Y-74140987D02*
X227799989Y-72879013D01*
X227799989Y-67799013D02*
X227875001Y-67724001D01*
X227499999Y-60339999D02*
X226700000Y-59540000D01*
X228375011Y-66388887D02*
X228300000Y-66313876D01*
X228375011Y-71468887D02*
X228300000Y-71393876D01*
X228300000Y-63773876D02*
X228300000Y-62926124D01*
X228300000Y-70546124D02*
X228375012Y-70471112D01*
X228300000Y-75626124D02*
X228375012Y-75551112D01*
X228300000Y-61233876D02*
X228300000Y-58600000D01*
X229780000Y-117500000D02*
X228300000Y-116020000D01*
X228300000Y-116020000D02*
X228300000Y-75626124D01*
X228375012Y-70471112D02*
X228375011Y-68928887D01*
X228375012Y-75551112D02*
X228375011Y-74008887D01*
X228375012Y-73011112D02*
X228375011Y-71468887D01*
X228375011Y-74008887D02*
X228300000Y-73933876D01*
X228300000Y-73933876D02*
X228300000Y-73086124D01*
X228300000Y-73086124D02*
X228375012Y-73011112D01*
X228300000Y-71393876D02*
X228300000Y-70546124D01*
X228375011Y-68928887D02*
X228300000Y-68853876D01*
X228300000Y-68853876D02*
X228300000Y-68006124D01*
X228300000Y-68006124D02*
X228375012Y-67931112D01*
X228375012Y-67931112D02*
X228375011Y-66388887D01*
X228300000Y-66313876D02*
X228300000Y-65466124D01*
X227499999Y-57799999D02*
X226700000Y-57000000D01*
X228300000Y-65466124D02*
X228375012Y-65391112D01*
X228375011Y-63848887D02*
X228300000Y-63773876D01*
X228375012Y-65391112D02*
X228375011Y-63848887D01*
X228300000Y-62926124D02*
X228375012Y-62851112D01*
X228375012Y-62851112D02*
X228375011Y-61308887D01*
X228375011Y-61308887D02*
X228300000Y-61233876D01*
X228300000Y-58600000D02*
X227499999Y-57799999D01*
X230000000Y-77200000D02*
X230000000Y-76775736D01*
X230000000Y-76775736D02*
X229700000Y-76475736D01*
X229700000Y-60840000D02*
X230200001Y-60339999D01*
X229700000Y-76475736D02*
X229700000Y-60840000D01*
X230200001Y-60339999D02*
X231000000Y-59540000D01*
X202700000Y-85500000D02*
X210200001Y-77999999D01*
X202700000Y-94100000D02*
X202700000Y-85500000D01*
X210200001Y-77999999D02*
X210500000Y-77700000D01*
X199620000Y-117500000D02*
X198600000Y-116480000D01*
X198600000Y-116480000D02*
X198600000Y-99300000D01*
X198600000Y-99300000D02*
X198299999Y-98999999D01*
X198299999Y-98999999D02*
X198000000Y-98700000D01*
X226575736Y-77574968D02*
X213300000Y-77574968D01*
X227000000Y-77574968D02*
X226575736Y-77574968D01*
X239700000Y-73000000D02*
X242940000Y-73000000D01*
X242940000Y-73000000D02*
X243700000Y-72240000D01*
D26*
X231000000Y-62080000D02*
X232820000Y-62080000D01*
X232820000Y-62080000D02*
X233540000Y-61360000D01*
X233540000Y-61360000D02*
X233540000Y-51202081D01*
X233540000Y-51202081D02*
X233540000Y-50000000D01*
D25*
X239700000Y-70000000D02*
X243400000Y-70000000D01*
X243400000Y-70000000D02*
X243700000Y-69700000D01*
X239700000Y-67000000D02*
X243540000Y-67000000D01*
X243540000Y-67000000D02*
X243700000Y-67160000D01*
D26*
X231000000Y-67160000D02*
X236080000Y-62080000D01*
X236080000Y-62080000D02*
X236080000Y-50000000D01*
X231000000Y-69700000D02*
X232131370Y-69700000D01*
X232131370Y-69700000D02*
X238620000Y-63211370D01*
X238620000Y-63211370D02*
X238620000Y-51202081D01*
X238620000Y-51202081D02*
X238620000Y-50000000D01*
D25*
X243100000Y-114200000D02*
X245225001Y-112074999D01*
X245225001Y-112074999D02*
X245225001Y-61065001D01*
X245225001Y-61065001D02*
X244499999Y-60339999D01*
X244499999Y-60339999D02*
X243700000Y-59540000D01*
X235620000Y-114200000D02*
X243100000Y-114200000D01*
X232320000Y-117500000D02*
X235620000Y-114200000D01*
X234860000Y-117500000D02*
X240507122Y-117500000D01*
X244499999Y-57799999D02*
X243700000Y-57000000D01*
X240507122Y-117500000D02*
X245800000Y-112207122D01*
X245800000Y-112207122D02*
X245800000Y-59100000D01*
X245800000Y-59100000D02*
X244499999Y-57799999D01*
D26*
X137940000Y-69250000D02*
X135989999Y-67299999D01*
X135989999Y-67299999D02*
X135599999Y-67299999D01*
X133400000Y-65100000D02*
X133400000Y-59630000D01*
X135599999Y-67299999D02*
X133400000Y-65100000D01*
X133400000Y-59630000D02*
X125620000Y-51850000D01*
X125620000Y-51850000D02*
X125620000Y-50000000D01*
X137940000Y-72750000D02*
X132149989Y-66959989D01*
X132149989Y-60272070D02*
X123080000Y-51202081D01*
X123080000Y-51202081D02*
X123080000Y-50000000D01*
X132149989Y-66959989D02*
X132149989Y-60272070D01*
X120540000Y-51202081D02*
X120540000Y-50000000D01*
X130899978Y-61562059D02*
X120540000Y-51202081D01*
X137940000Y-76250000D02*
X130899978Y-69209978D01*
X130899978Y-69209978D02*
X130899978Y-61562059D01*
X118000000Y-51202081D02*
X118000000Y-50000000D01*
X129649967Y-62949967D02*
X118000000Y-51300000D01*
X137940000Y-79750000D02*
X129649967Y-71459967D01*
X118000000Y-51300000D02*
X118000000Y-51202081D01*
X129649967Y-71459967D02*
X129649967Y-62949967D01*
X166939999Y-66710001D02*
X166939999Y-62169999D01*
X167690001Y-67460003D02*
X166939999Y-66710001D01*
X167690001Y-68000001D02*
X167690001Y-67460003D01*
X156620000Y-51850000D02*
X156620000Y-50000000D01*
X166939999Y-62169999D02*
X156620000Y-51850000D01*
X168940000Y-69250000D02*
X167690001Y-68000001D01*
X165689988Y-62812069D02*
X154080000Y-51202081D01*
X165839988Y-69649988D02*
X165839988Y-67377772D01*
X168940000Y-72750000D02*
X165839988Y-69649988D01*
X165689988Y-67227772D02*
X165689988Y-62812069D01*
X165839988Y-67377772D02*
X165689988Y-67227772D01*
X154080000Y-51202081D02*
X154080000Y-50000000D01*
X152389999Y-52789999D02*
X152389999Y-50849999D01*
X168940000Y-76250000D02*
X164589977Y-71899977D01*
X164589977Y-71899977D02*
X164589977Y-67895543D01*
X164589977Y-67895543D02*
X164439977Y-67745543D01*
X164439977Y-67745543D02*
X164439977Y-64839977D01*
X164439977Y-64839977D02*
X152389999Y-52789999D01*
X152389999Y-50849999D02*
X151540000Y-50000000D01*
X168940000Y-79750000D02*
X162800000Y-73610000D01*
X162800000Y-73610000D02*
X162800000Y-65002081D01*
X149000000Y-51202081D02*
X149000000Y-50000000D01*
X162800000Y-65002081D02*
X149000000Y-51202081D01*
D25*
X117075001Y-63008635D02*
X118000000Y-62083636D01*
X115050000Y-88720712D02*
X115050000Y-65033636D01*
X192351487Y-91600031D02*
X117929319Y-91600031D01*
X206920000Y-106168544D02*
X192351487Y-91600031D01*
X115050000Y-65033636D02*
X117075001Y-63008635D01*
X206920000Y-117500000D02*
X206920000Y-106168544D01*
X117929319Y-91600031D02*
X115050000Y-88720712D01*
X115550011Y-88513601D02*
X115550011Y-67075443D01*
X117238001Y-65387453D02*
X118000000Y-64625454D01*
X115550011Y-67075443D02*
X117238001Y-65387453D01*
X118136431Y-91100021D02*
X115550011Y-88513601D01*
X192558599Y-91100021D02*
X118136431Y-91100021D01*
X209460000Y-117500000D02*
X209460000Y-108001422D01*
X209460000Y-108001422D02*
X192558599Y-91100021D01*
X148075001Y-63008635D02*
X149000000Y-62083636D01*
X146499989Y-64583647D02*
X148075001Y-63008635D01*
X212000000Y-117500000D02*
X212000000Y-109834300D01*
X146499989Y-87846026D02*
X146499989Y-64583647D01*
X146402118Y-87943897D02*
X146499989Y-87846026D01*
X212000000Y-109834300D02*
X192765711Y-90600011D01*
X146402117Y-89006122D02*
X146402118Y-87943897D01*
X147996006Y-90600011D02*
X146402117Y-89006122D01*
X192765711Y-90600011D02*
X147996006Y-90600011D01*
X146902128Y-88151009D02*
X147000000Y-88053137D01*
X147000000Y-88053137D02*
X147000000Y-66625454D01*
X147000000Y-66625454D02*
X148238001Y-65387453D01*
X214540000Y-111667178D02*
X192972822Y-90100000D01*
X192972822Y-90100000D02*
X148203117Y-90100000D01*
X146902128Y-88799011D02*
X146902128Y-88151009D01*
X148203117Y-90100000D02*
X146902128Y-88799011D01*
X214540000Y-117500000D02*
X214540000Y-111667178D01*
X148238001Y-65387453D02*
X149000000Y-64625454D01*
X163832727Y-81999999D02*
X191063161Y-81999999D01*
X191728132Y-81928132D02*
X192000001Y-82200001D01*
X191135028Y-81928132D02*
X191728132Y-81928132D01*
X191063161Y-81999999D02*
X191135028Y-81928132D01*
X149000000Y-67167272D02*
X163832727Y-81999999D01*
X192000001Y-82200001D02*
X192300000Y-82500000D01*
X244000000Y-100460000D02*
X244000000Y-98100000D01*
X244000000Y-98100000D02*
X231900000Y-86000000D01*
X231900000Y-86000000D02*
X231000000Y-86000000D01*
X191316524Y-82577929D02*
X191358485Y-82619890D01*
X161868839Y-82577929D02*
X191316524Y-82577929D01*
X149000000Y-69709090D02*
X161868839Y-82577929D01*
X242200031Y-101200031D02*
X242200031Y-97575767D01*
X244000000Y-103000000D02*
X242200031Y-101200031D01*
X231524264Y-86900000D02*
X231100000Y-86900000D01*
X242200031Y-97575767D02*
X231524264Y-86900000D01*
X159849081Y-83099989D02*
X190839580Y-83099989D01*
X191289604Y-83550013D02*
X191632294Y-83550013D01*
X190839580Y-83099989D02*
X191289604Y-83550013D01*
X149000000Y-72250908D02*
X159849081Y-83099989D01*
X191632294Y-83550013D02*
X191932293Y-83850012D01*
X241700022Y-103240022D02*
X241700022Y-97983004D01*
X244000000Y-105540000D02*
X241700022Y-103240022D01*
X241700022Y-97983004D02*
X231466005Y-87748987D01*
X231466005Y-87748987D02*
X231041741Y-87748987D01*
X191607387Y-84574918D02*
X191951911Y-84574918D01*
X190692466Y-83659997D02*
X191607387Y-84574918D01*
X151578965Y-82852958D02*
X152386004Y-83659997D01*
X152386004Y-83659997D02*
X190692466Y-83659997D01*
X191951911Y-84574918D02*
X192376175Y-84574918D01*
X145300000Y-87510765D02*
X145300000Y-87935029D01*
X143900000Y-83500000D02*
X145300000Y-84900000D01*
X126707274Y-83500000D02*
X143900000Y-83500000D01*
X145300000Y-84900000D02*
X145300000Y-87510765D01*
X118000000Y-74792726D02*
X126707274Y-83500000D01*
X149100000Y-87635044D02*
X148800000Y-87935044D01*
X149100000Y-86700000D02*
X149100000Y-87635044D01*
X150500000Y-84000000D02*
X150500000Y-85300000D01*
X150500000Y-85300000D02*
X149100000Y-86700000D01*
X241200011Y-98387600D02*
X231409531Y-88597120D01*
X231409531Y-88597120D02*
X230985267Y-88597120D01*
X244000000Y-108080000D02*
X241200011Y-105280011D01*
X241200011Y-105280011D02*
X241200011Y-98387600D01*
X191601889Y-85349517D02*
X192026153Y-85349517D01*
X177075998Y-84759987D02*
X191012359Y-84759987D01*
X191012359Y-84759987D02*
X191601889Y-85349517D01*
X175575986Y-86259999D02*
X177075998Y-84759987D01*
X153759001Y-86259999D02*
X175575986Y-86259999D01*
X150300001Y-76092727D02*
X150300001Y-82800999D01*
X150300001Y-82800999D02*
X153759001Y-86259999D01*
X191675736Y-85100000D02*
X191776636Y-85100000D01*
X191776636Y-85100000D02*
X192026153Y-85349517D01*
X149000000Y-74792726D02*
X150300001Y-76092727D01*
X230882902Y-97502902D02*
X230882902Y-89865209D01*
X244000000Y-110620000D02*
X230882902Y-97502902D01*
X230882902Y-89865209D02*
X230882902Y-89440945D01*
X231424264Y-78700000D02*
X231000000Y-78700000D01*
X244000000Y-81920000D02*
X242900000Y-81920000D01*
X242900000Y-81920000D02*
X239680000Y-78700000D01*
X239680000Y-78700000D02*
X231424264Y-78700000D01*
X239140000Y-79600000D02*
X231124264Y-79600000D01*
X231124264Y-79600000D02*
X230700000Y-79600000D01*
X244000000Y-84460000D02*
X239140000Y-79600000D01*
X237600000Y-80600000D02*
X231124264Y-80600000D01*
X231124264Y-80600000D02*
X230700000Y-80600000D01*
X244000000Y-87000000D02*
X237600000Y-80600000D01*
X236060000Y-81600000D02*
X231124250Y-81600000D01*
X244000000Y-89540000D02*
X236060000Y-81600000D01*
X231124250Y-81600000D02*
X230699986Y-81600000D01*
X244000000Y-92080000D02*
X243880000Y-92080000D01*
X243880000Y-92080000D02*
X234400000Y-82600000D01*
X234400000Y-82600000D02*
X231124264Y-82600000D01*
X231124264Y-82600000D02*
X230700000Y-82600000D01*
X244000000Y-94620000D02*
X234479999Y-85099999D01*
X231399999Y-85099999D02*
X231100000Y-84800000D01*
X234479999Y-85099999D02*
X231399999Y-85099999D01*
X116050022Y-81826340D02*
X116050022Y-88050022D01*
X118000000Y-79876362D02*
X116050022Y-81826340D01*
X116050022Y-88050022D02*
X117800001Y-89800001D01*
X117800001Y-89800001D02*
X118100000Y-90100000D01*
X161320000Y-93000000D02*
X118424264Y-93000000D01*
X185820000Y-117500000D02*
X161320000Y-93000000D01*
X186920000Y-117500000D02*
X185820000Y-117500000D01*
X118424264Y-93000000D02*
X118000000Y-93000000D01*
X147900001Y-88500001D02*
X148200000Y-88800000D01*
X149000000Y-79876362D02*
X147600001Y-81276361D01*
X147600001Y-88200001D02*
X147900001Y-88500001D01*
X147600001Y-81276361D02*
X147600001Y-88200001D01*
X164260000Y-92300000D02*
X148224254Y-92300000D01*
X189460000Y-117500000D02*
X164260000Y-92300000D01*
X148224254Y-92300000D02*
X147799990Y-92300000D01*
D27*
X132500000Y-117500000D02*
X132939999Y-117060001D01*
X132939999Y-117060001D02*
X132939999Y-116491999D01*
X136048001Y-115399999D02*
X136098001Y-115449999D01*
X132939999Y-116491999D02*
X134031999Y-115399999D01*
X134031999Y-115399999D02*
X136048001Y-115399999D01*
X136098001Y-115449999D02*
X137400000Y-115449999D01*
X137400000Y-115449999D02*
X142079999Y-115449999D01*
D26*
X137000000Y-108400000D02*
X137000000Y-115049999D01*
X137000000Y-115049999D02*
X137400000Y-115449999D01*
D27*
X160620000Y-115900000D02*
X163160000Y-115900000D01*
X158080000Y-115900000D02*
X160620000Y-115900000D01*
X155540000Y-115900000D02*
X158080000Y-115900000D01*
X153000000Y-115900000D02*
X155540000Y-115900000D01*
X150460000Y-115900000D02*
X153000000Y-115900000D01*
X147920000Y-115900000D02*
X150460000Y-115900000D01*
X145380000Y-115900000D02*
X147920000Y-115900000D01*
X142079999Y-115449999D02*
X142530000Y-115900000D01*
X142530000Y-115900000D02*
X145380000Y-115900000D01*
D25*
X148025000Y-106850000D02*
X148000000Y-106875000D01*
X148000000Y-106875000D02*
X148000000Y-110740000D01*
X148000000Y-110740000D02*
X145380000Y-113360000D01*
X148675000Y-106850000D02*
X148675000Y-112605000D01*
X148675000Y-112605000D02*
X147920000Y-113360000D01*
X149325000Y-106850000D02*
X149325000Y-112225000D01*
X149325000Y-112225000D02*
X150460000Y-113360000D01*
X149975000Y-106850000D02*
X149975000Y-110335000D01*
X149975000Y-110335000D02*
X153000000Y-113360000D01*
X150625000Y-106850000D02*
X150625000Y-108445000D01*
X150625000Y-108445000D02*
X155540000Y-113360000D01*
X151275000Y-106850000D02*
X151275000Y-107739246D01*
X151275000Y-107739246D02*
X155235754Y-111700000D01*
X156170774Y-112285018D02*
X157005018Y-112285018D01*
X157005018Y-112285018D02*
X157230001Y-112510001D01*
X155235754Y-111700000D02*
X155585756Y-111700000D01*
X155585756Y-111700000D02*
X156170774Y-112285018D01*
X157230001Y-112510001D02*
X158080000Y-113360000D01*
X159770001Y-112510001D02*
X160620000Y-113360000D01*
X159510011Y-112250011D02*
X159770001Y-112510001D01*
X158638302Y-112250011D02*
X159510011Y-112250011D01*
X156377885Y-111785007D02*
X158173298Y-111785007D01*
X155792868Y-111199990D02*
X156377885Y-111785007D01*
X155442865Y-111199989D02*
X155792868Y-111199990D01*
X151925000Y-106850000D02*
X151925000Y-107682124D01*
X158173298Y-111785007D02*
X158638302Y-112250011D01*
X151925000Y-107682124D02*
X155442865Y-111199989D01*
X152724999Y-107775001D02*
X153375001Y-107775001D01*
X158380409Y-111284996D02*
X158845413Y-111750000D01*
X152575000Y-106975000D02*
X152649999Y-107049999D01*
X153375001Y-107775001D02*
X156884996Y-111284996D01*
X152575000Y-106850000D02*
X152575000Y-106975000D01*
X152649999Y-107049999D02*
X152649999Y-107700001D01*
X152649999Y-107700001D02*
X152724999Y-107775001D01*
X156884996Y-111284996D02*
X158380409Y-111284996D01*
X161550000Y-111750000D02*
X163160000Y-113360000D01*
X158845413Y-111750000D02*
X161550000Y-111750000D01*
X164000000Y-104700000D02*
X175000000Y-115700000D01*
X145425000Y-101150000D02*
X145425000Y-101950000D01*
X145425000Y-101950000D02*
X148175000Y-104700000D01*
X148175000Y-104700000D02*
X164000000Y-104700000D01*
X175000000Y-115700000D02*
X175000000Y-117500000D01*
X164239989Y-104199989D02*
X176690001Y-116650001D01*
X148382111Y-104199989D02*
X164239989Y-104199989D01*
X176690001Y-116650001D02*
X177540000Y-117500000D01*
X146075000Y-101892878D02*
X148382111Y-104199989D01*
X146075000Y-101150000D02*
X146075000Y-101892878D01*
M02*
