M48
;DRILL file {KiCad 4.0.7} date 01/17/18 18:11:14
;FORMAT={-:-/ absolute / inch / decimal}
FMAT,2
INCH,TZ
T1C0.036
T2C0.039
T3C0.051
T4C0.053
T5C0.059
T6C0.100
%
G90
G05
M72
T1
X5.4618Y-4.0661
X5.4618Y-4.4205
X5.4618Y-4.7945
X5.4618Y-5.1465
X5.5406Y-4.0661
X5.5406Y-4.4205
X5.5406Y-4.7945
X5.5406Y-5.1465
X5.6193Y-4.0661
X5.6193Y-4.4205
X5.6193Y-4.7945
X5.6193Y-5.1465
X5.698Y-4.0661
X5.698Y-4.4205
X5.698Y-4.7945
X5.698Y-5.1465
T2
X6.278Y-3.4646
X6.3173Y-2.9528
X6.378Y-3.4646
X6.4173Y-2.9528
X6.478Y-3.4646
X6.6929Y-2.9528
X6.7929Y-2.9528
T3
X6.1811Y-5.6693
X6.378Y-5.6693
X6.5748Y-5.6693
X6.7717Y-5.6693
X6.9685Y-5.6693
X7.1654Y-5.6693
X7.3622Y-5.6693
X7.5591Y-5.6693
T4
X5.4331Y-3.9591
X5.4331Y-4.1732
X5.4331Y-4.3134
X5.4331Y-4.5276
X5.4331Y-4.6874
X5.4331Y-4.9016
X5.4331Y-5.0394
X5.4331Y-5.2535
X5.7087Y-3.9591
X5.7087Y-4.1732
X5.7087Y-4.3134
X5.7087Y-4.5276
X5.7087Y-4.6874
X5.7087Y-4.9016
X5.7087Y-5.0394
X5.7087Y-5.2535
T5
X5.2756Y-3.6909
X7.4409Y-3.4547
X7.4409Y-4.0748
X7.4409Y-4.7146
T6
X5.503Y-2.9528
X5.703Y-2.9528
X5.863Y-2.9528
X6.063Y-2.9528
T0
M30
