G04 #@! TF.FileFunction,Legend,Bot*
%FSLAX46Y46*%
G04 Gerber Fmt 4.6, Leading zero omitted, Abs format (unit mm)*
G04 Created by KiCad (PCBNEW 4.0.7) date 07/03/18 20:11:16*
%MOMM*%
%LPD*%
G01*
G04 APERTURE LIST*
%ADD10C,0.100000*%
%ADD11C,0.300000*%
%ADD12C,0.200000*%
G04 APERTURE END LIST*
D10*
D11*
X131550000Y-89992857D02*
X131764286Y-89921429D01*
X132121429Y-89921429D01*
X132264286Y-89992857D01*
X132335715Y-90064286D01*
X132407143Y-90207143D01*
X132407143Y-90350000D01*
X132335715Y-90492857D01*
X132264286Y-90564286D01*
X132121429Y-90635714D01*
X131835715Y-90707143D01*
X131692857Y-90778571D01*
X131621429Y-90850000D01*
X131550000Y-90992857D01*
X131550000Y-91135714D01*
X131621429Y-91278571D01*
X131692857Y-91350000D01*
X131835715Y-91421429D01*
X132192857Y-91421429D01*
X132407143Y-91350000D01*
X133050000Y-89921429D02*
X133050000Y-91421429D01*
X133621428Y-91421429D01*
X133764286Y-91350000D01*
X133835714Y-91278571D01*
X133907143Y-91135714D01*
X133907143Y-90921429D01*
X133835714Y-90778571D01*
X133764286Y-90707143D01*
X133621428Y-90635714D01*
X133050000Y-90635714D01*
X134550000Y-90707143D02*
X135050000Y-90707143D01*
X135264286Y-89921429D02*
X134550000Y-89921429D01*
X134550000Y-91421429D01*
X135264286Y-91421429D01*
X135835714Y-90350000D02*
X136550000Y-90350000D01*
X135692857Y-89921429D02*
X136192857Y-91421429D01*
X136692857Y-89921429D01*
X138050000Y-89921429D02*
X137550000Y-90635714D01*
X137192857Y-89921429D02*
X137192857Y-91421429D01*
X137764285Y-91421429D01*
X137907143Y-91350000D01*
X137978571Y-91278571D01*
X138050000Y-91135714D01*
X138050000Y-90921429D01*
X137978571Y-90778571D01*
X137907143Y-90707143D01*
X137764285Y-90635714D01*
X137192857Y-90635714D01*
X138614286Y-114421429D02*
X139471429Y-114421429D01*
X139042858Y-112921429D02*
X139042858Y-114421429D01*
X140185715Y-112921429D02*
X140042857Y-112992857D01*
X139971429Y-113064286D01*
X139900000Y-113207143D01*
X139900000Y-113635714D01*
X139971429Y-113778571D01*
X140042857Y-113850000D01*
X140185715Y-113921429D01*
X140400000Y-113921429D01*
X140542857Y-113850000D01*
X140614286Y-113778571D01*
X140685715Y-113635714D01*
X140685715Y-113207143D01*
X140614286Y-113064286D01*
X140542857Y-112992857D01*
X140400000Y-112921429D01*
X140185715Y-112921429D01*
X141328572Y-113921429D02*
X141328572Y-112421429D01*
X141328572Y-113850000D02*
X141471429Y-113921429D01*
X141757143Y-113921429D01*
X141900000Y-113850000D01*
X141971429Y-113778571D01*
X142042858Y-113635714D01*
X142042858Y-113207143D01*
X141971429Y-113064286D01*
X141900000Y-112992857D01*
X141757143Y-112921429D01*
X141471429Y-112921429D01*
X141328572Y-112992857D01*
D12*
X132800000Y-113600000D02*
X136800000Y-113600000D01*
X132000000Y-113600000D02*
X132000000Y-113000000D01*
X138000000Y-114400000D02*
X138000000Y-113000000D01*
X132000000Y-114400000D02*
X138000000Y-114400000D01*
X132000000Y-113600000D02*
X132000000Y-114400000D01*
D11*
X133057143Y-104464286D02*
X133128571Y-104678572D01*
X133128571Y-105035715D01*
X133057143Y-105178572D01*
X132985714Y-105250001D01*
X132842857Y-105321429D01*
X132700000Y-105321429D01*
X132557143Y-105250001D01*
X132485714Y-105178572D01*
X132414286Y-105035715D01*
X132342857Y-104750001D01*
X132271429Y-104607143D01*
X132200000Y-104535715D01*
X132057143Y-104464286D01*
X131914286Y-104464286D01*
X131771429Y-104535715D01*
X131700000Y-104607143D01*
X131628571Y-104750001D01*
X131628571Y-105107143D01*
X131700000Y-105321429D01*
X133128571Y-105964286D02*
X131628571Y-105964286D01*
X131700000Y-107464286D02*
X131628571Y-107321429D01*
X131628571Y-107107143D01*
X131700000Y-106892858D01*
X131842857Y-106750000D01*
X131985714Y-106678572D01*
X132271429Y-106607143D01*
X132485714Y-106607143D01*
X132771429Y-106678572D01*
X132914286Y-106750000D01*
X133057143Y-106892858D01*
X133128571Y-107107143D01*
X133128571Y-107250000D01*
X133057143Y-107464286D01*
X132985714Y-107535715D01*
X132485714Y-107535715D01*
X132485714Y-107250000D01*
X134178571Y-104000000D02*
X135678571Y-104500000D01*
X134178571Y-105000000D01*
X135535714Y-106357143D02*
X135607143Y-106285714D01*
X135678571Y-106071428D01*
X135678571Y-105928571D01*
X135607143Y-105714286D01*
X135464286Y-105571428D01*
X135321429Y-105500000D01*
X135035714Y-105428571D01*
X134821429Y-105428571D01*
X134535714Y-105500000D01*
X134392857Y-105571428D01*
X134250000Y-105714286D01*
X134178571Y-105928571D01*
X134178571Y-106071428D01*
X134250000Y-106285714D01*
X134321429Y-106357143D01*
X135535714Y-107857143D02*
X135607143Y-107785714D01*
X135678571Y-107571428D01*
X135678571Y-107428571D01*
X135607143Y-107214286D01*
X135464286Y-107071428D01*
X135321429Y-107000000D01*
X135035714Y-106928571D01*
X134821429Y-106928571D01*
X134535714Y-107000000D01*
X134392857Y-107071428D01*
X134250000Y-107214286D01*
X134178571Y-107428571D01*
X134178571Y-107571428D01*
X134250000Y-107785714D01*
X134321429Y-107857143D01*
X136800000Y-104857143D02*
X136728571Y-104714286D01*
X136728571Y-104500000D01*
X136800000Y-104285715D01*
X136942857Y-104142857D01*
X137085714Y-104071429D01*
X137371429Y-104000000D01*
X137585714Y-104000000D01*
X137871429Y-104071429D01*
X138014286Y-104142857D01*
X138157143Y-104285715D01*
X138228571Y-104500000D01*
X138228571Y-104642857D01*
X138157143Y-104857143D01*
X138085714Y-104928572D01*
X137585714Y-104928572D01*
X137585714Y-104642857D01*
X138228571Y-105571429D02*
X136728571Y-105571429D01*
X138228571Y-106428572D01*
X136728571Y-106428572D01*
X138228571Y-107142858D02*
X136728571Y-107142858D01*
X136728571Y-107500001D01*
X136800000Y-107714286D01*
X136942857Y-107857144D01*
X137085714Y-107928572D01*
X137371429Y-108000001D01*
X137585714Y-108000001D01*
X137871429Y-107928572D01*
X138014286Y-107857144D01*
X138157143Y-107714286D01*
X138228571Y-107500001D01*
X138228571Y-107142858D01*
M02*
