G04 #@! TF.FileFunction,Legend,Top*
%FSLAX46Y46*%
G04 Gerber Fmt 4.6, Leading zero omitted, Abs format (unit mm)*
G04 Created by KiCad (PCBNEW 4.0.7) date 07/03/18 20:11:16*
%MOMM*%
%LPD*%
G01*
G04 APERTURE LIST*
%ADD10C,0.100000*%
%ADD11C,0.120000*%
%ADD12C,0.150000*%
G04 APERTURE END LIST*
D10*
D11*
X131130000Y-108670000D02*
X131130000Y-111330000D01*
X136270000Y-108670000D02*
X131130000Y-108670000D01*
X136270000Y-111330000D02*
X131130000Y-111330000D01*
X136270000Y-108670000D02*
X136270000Y-111330000D01*
X137540000Y-108670000D02*
X138870000Y-108670000D01*
X138870000Y-108670000D02*
X138870000Y-110000000D01*
X127286000Y-75000000D02*
G75*
G03X127286000Y-75000000I-2286000J0D01*
G01*
X147286000Y-75000000D02*
G75*
G03X147286000Y-75000000I-2286000J0D01*
G01*
X127286000Y-110000000D02*
G75*
G03X127286000Y-110000000I-2286000J0D01*
G01*
X147286000Y-110000000D02*
G75*
G03X147286000Y-110000000I-2286000J0D01*
G01*
D12*
X138000000Y-87500000D02*
X134100000Y-84700000D01*
X138000000Y-87500000D02*
G75*
G03X138000000Y-87500000I-3000000J0D01*
G01*
X130000000Y-82500000D02*
X130000000Y-94000000D01*
X140000000Y-82500000D02*
X130000000Y-82500000D01*
X140000000Y-94000000D02*
X140000000Y-82500000D01*
X130000000Y-94000000D02*
X140000000Y-94000000D01*
X139322381Y-110333333D02*
X140036667Y-110333333D01*
X140179524Y-110380953D01*
X140274762Y-110476191D01*
X140322381Y-110619048D01*
X140322381Y-110714286D01*
X140322381Y-109333333D02*
X140322381Y-109904762D01*
X140322381Y-109619048D02*
X139322381Y-109619048D01*
X139465238Y-109714286D01*
X139560476Y-109809524D01*
X139608095Y-109904762D01*
X134238095Y-96552381D02*
X134238095Y-97361905D01*
X134285714Y-97457143D01*
X134333333Y-97504762D01*
X134428571Y-97552381D01*
X134619048Y-97552381D01*
X134714286Y-97504762D01*
X134761905Y-97457143D01*
X134809524Y-97361905D01*
X134809524Y-96552381D01*
X135809524Y-97552381D02*
X135238095Y-97552381D01*
X135523809Y-97552381D02*
X135523809Y-96552381D01*
X135428571Y-96695238D01*
X135333333Y-96790476D01*
X135238095Y-96838095D01*
X128500000Y-85761904D02*
X128452381Y-85857142D01*
X128452381Y-85999999D01*
X128500000Y-86142857D01*
X128595238Y-86238095D01*
X128690476Y-86285714D01*
X128880952Y-86333333D01*
X129023810Y-86333333D01*
X129214286Y-86285714D01*
X129309524Y-86238095D01*
X129404762Y-86142857D01*
X129452381Y-85999999D01*
X129452381Y-85904761D01*
X129404762Y-85761904D01*
X129357143Y-85714285D01*
X129023810Y-85714285D01*
X129023810Y-85904761D01*
X129452381Y-85285714D02*
X128452381Y-85285714D01*
X129452381Y-84714285D01*
X128452381Y-84714285D01*
X129452381Y-84238095D02*
X128452381Y-84238095D01*
X128452381Y-84000000D01*
X128500000Y-83857142D01*
X128595238Y-83761904D01*
X128690476Y-83714285D01*
X128880952Y-83666666D01*
X129023810Y-83666666D01*
X129214286Y-83714285D01*
X129309524Y-83761904D01*
X129404762Y-83857142D01*
X129452381Y-84000000D01*
X129452381Y-84238095D01*
X140500000Y-85761904D02*
X140452381Y-85857142D01*
X140452381Y-85999999D01*
X140500000Y-86142857D01*
X140595238Y-86238095D01*
X140690476Y-86285714D01*
X140880952Y-86333333D01*
X141023810Y-86333333D01*
X141214286Y-86285714D01*
X141309524Y-86238095D01*
X141404762Y-86142857D01*
X141452381Y-85999999D01*
X141452381Y-85904761D01*
X141404762Y-85761904D01*
X141357143Y-85714285D01*
X141023810Y-85714285D01*
X141023810Y-85904761D01*
X141452381Y-85285714D02*
X140452381Y-85285714D01*
X141452381Y-84714285D01*
X140452381Y-84714285D01*
X141452381Y-84238095D02*
X140452381Y-84238095D01*
X140452381Y-84000000D01*
X140500000Y-83857142D01*
X140595238Y-83761904D01*
X140690476Y-83714285D01*
X140880952Y-83666666D01*
X141023810Y-83666666D01*
X141214286Y-83714285D01*
X141309524Y-83761904D01*
X141404762Y-83857142D01*
X141452381Y-84000000D01*
X141452381Y-84238095D01*
X137000000Y-93361904D02*
X136952381Y-93457142D01*
X136952381Y-93599999D01*
X137000000Y-93742857D01*
X137095238Y-93838095D01*
X137190476Y-93885714D01*
X137380952Y-93933333D01*
X137523810Y-93933333D01*
X137714286Y-93885714D01*
X137809524Y-93838095D01*
X137904762Y-93742857D01*
X137952381Y-93599999D01*
X137952381Y-93504761D01*
X137904762Y-93361904D01*
X137857143Y-93314285D01*
X137523810Y-93314285D01*
X137523810Y-93504761D01*
X137952381Y-92885714D02*
X136952381Y-92885714D01*
X137952381Y-92314285D01*
X136952381Y-92314285D01*
X137952381Y-91838095D02*
X136952381Y-91838095D01*
X136952381Y-91600000D01*
X137000000Y-91457142D01*
X137095238Y-91361904D01*
X137190476Y-91314285D01*
X137380952Y-91266666D01*
X137523810Y-91266666D01*
X137714286Y-91314285D01*
X137809524Y-91361904D01*
X137904762Y-91457142D01*
X137952381Y-91600000D01*
X137952381Y-91838095D01*
X135404762Y-93523809D02*
X135452381Y-93380952D01*
X135452381Y-93142856D01*
X135404762Y-93047618D01*
X135357143Y-92999999D01*
X135261905Y-92952380D01*
X135166667Y-92952380D01*
X135071429Y-92999999D01*
X135023810Y-93047618D01*
X134976190Y-93142856D01*
X134928571Y-93333333D01*
X134880952Y-93428571D01*
X134833333Y-93476190D01*
X134738095Y-93523809D01*
X134642857Y-93523809D01*
X134547619Y-93476190D01*
X134500000Y-93428571D01*
X134452381Y-93333333D01*
X134452381Y-93095237D01*
X134500000Y-92952380D01*
X135452381Y-92523809D02*
X134452381Y-92523809D01*
X134500000Y-91523809D02*
X134452381Y-91619047D01*
X134452381Y-91761904D01*
X134500000Y-91904762D01*
X134595238Y-92000000D01*
X134690476Y-92047619D01*
X134880952Y-92095238D01*
X135023810Y-92095238D01*
X135214286Y-92047619D01*
X135309524Y-92000000D01*
X135404762Y-91904762D01*
X135452381Y-91761904D01*
X135452381Y-91666666D01*
X135404762Y-91523809D01*
X135357143Y-91476190D01*
X135023810Y-91476190D01*
X135023810Y-91666666D01*
X131852381Y-93933333D02*
X132852381Y-93600000D01*
X131852381Y-93266666D01*
X132757143Y-92361904D02*
X132804762Y-92409523D01*
X132852381Y-92552380D01*
X132852381Y-92647618D01*
X132804762Y-92790476D01*
X132709524Y-92885714D01*
X132614286Y-92933333D01*
X132423810Y-92980952D01*
X132280952Y-92980952D01*
X132090476Y-92933333D01*
X131995238Y-92885714D01*
X131900000Y-92790476D01*
X131852381Y-92647618D01*
X131852381Y-92552380D01*
X131900000Y-92409523D01*
X131947619Y-92361904D01*
X132757143Y-91361904D02*
X132804762Y-91409523D01*
X132852381Y-91552380D01*
X132852381Y-91647618D01*
X132804762Y-91790476D01*
X132709524Y-91885714D01*
X132614286Y-91933333D01*
X132423810Y-91980952D01*
X132280952Y-91980952D01*
X132090476Y-91933333D01*
X131995238Y-91885714D01*
X131900000Y-91790476D01*
X131852381Y-91647618D01*
X131852381Y-91552380D01*
X131900000Y-91409523D01*
X131947619Y-91361904D01*
M02*
